<svg width="168" height="338" viewBox="0 0 168 338" fill="none" xmlns="http://www.w3.org/2000/svg">
<path fill-rule="evenodd" clip-rule="evenodd" d="M135.04 33.8818C126.536 31.5997 116.268 33.6516 105.726 39.7398L46.2323 74.0886L4.1921 331.378L53.0379 303.177L58.1435 271.91L60.4049 273.852C67.9475 280.329 78.2155 282.263 89.7921 279.387C101.369 276.511 113.683 268.967 125.037 257.795C136.391 246.623 146.224 232.374 153.18 217.015C160.135 201.655 163.871 185.942 163.871 172.042C163.874 160.161 161.147 150.068 155.968 142.795C150.788 135.521 143.343 131.327 134.391 130.641L132.046 130.461L134.251 127.399C142.876 115.421 149.345 101.696 152.721 88.2157C156.096 74.7355 156.202 62.2012 153.023 52.4313C149.843 42.6613 143.545 36.1639 135.04 33.8818ZM167.28 170.075C167.28 184.789 163.325 201.423 155.962 217.683C148.598 233.943 138.189 249.027 126.169 260.854C114.15 272.681 101.114 280.667 88.8583 283.712C77.7363 286.475 67.7554 285.044 60.0364 279.631L55.8101 305.512L5.30692e-06 337.734L43.4605 71.7528L105.726 35.804C105.726 35.804 105.726 35.8041 105.726 35.804C116.991 29.2976 127.965 27.1045 137.054 29.5435C146.143 31.9824 152.875 38.9263 156.273 49.3677C159.67 59.8092 159.557 73.205 155.95 87.6116C152.621 100.906 146.477 114.423 138.305 126.49C146.788 127.7 153.866 132.026 158.913 139.112C164.396 146.813 167.283 157.497 167.28 170.075Z" fill="black"/>
<path fill-rule="evenodd" clip-rule="evenodd" d="M56.1285 125.647C56.1206 134.842 58.0317 142.796 61.6998 148.834C65.3678 154.873 70.6847 158.818 77.1999 160.336L79.4077 160.85L77.0607 163.74C68.1082 174.762 60.6617 187.554 55.4817 200.808C50.3017 214.063 47.5739 227.306 47.5769 239.184L44.1682 241.153C44.165 228.578 47.0528 214.559 52.5365 200.527C57.5832 187.613 64.6622 175.115 73.1457 164.109C67.134 162.18 62.1941 158.189 58.6746 152.395C54.754 145.941 52.7113 137.439 52.7197 127.611L56.1285 125.647Z" fill="black"/>
</svg>
