<svg width="288" height="306" viewBox="0 0 288 306" fill="none" xmlns="http://www.w3.org/2000/svg">
<path fill-rule="evenodd" clip-rule="evenodd" d="M142.541 31.6854C130.441 30.3668 118.235 32.938 107.694 39.0259L48.2003 73.3747L122.669 299.446L171.515 271.244L162.461 243.772L166.346 245.278C179.305 250.305 193.504 251.185 206.984 247.799C220.465 244.413 232.562 236.927 241.607 226.373C250.653 215.82 256.2 202.72 257.484 188.88C258.768 175.04 255.725 161.143 248.776 149.106C242.839 138.816 234.278 130.286 223.966 124.388C213.655 118.489 201.963 115.433 190.084 115.531L186.973 115.557L188.283 112.734C193.409 101.694 194.883 89.3075 192.493 77.3723C190.103 65.437 183.972 54.5738 174.99 46.3587C166.008 38.1435 154.642 33.0039 142.541 31.6854ZM252.185 147.138C259.541 159.881 262.762 174.593 261.403 189.244C260.044 203.895 254.171 217.763 244.596 228.935C235.02 240.107 222.214 248.032 207.943 251.617C194.992 254.87 181.414 254.403 168.76 250.312L176.255 273.053L120.445 305.275L43.4605 71.5663L105.726 35.6175C105.726 35.6174 105.726 35.6176 105.726 35.6175C116.99 29.1113 130.036 26.3633 142.968 27.7724C155.9 29.1816 168.047 34.6745 177.646 43.4542C187.245 52.2339 193.798 63.8438 196.352 76.5993C198.71 88.3699 197.55 100.551 193.052 111.634C204.59 112.026 215.874 115.224 225.921 120.971C236.837 127.216 245.9 136.246 252.185 147.138Z" fill="black"/>
<path fill-rule="evenodd" clip-rule="evenodd" d="M86.7322 117.261C91.3196 125.225 97.7594 131.965 105.506 136.911C113.252 141.857 122.076 144.862 131.231 145.673L134.333 145.947L132.754 148.631C126.728 158.869 123.528 170.523 123.48 182.403C123.432 194.282 126.538 205.962 132.48 216.248L129.072 218.217C122.781 207.328 119.493 194.963 119.544 182.387C119.59 170.813 122.463 159.442 127.893 149.254C119.181 148.048 110.82 144.974 103.387 140.229C95.1078 134.942 88.2248 127.738 83.3215 119.226L86.7322 117.261Z" fill="black"/>
</svg>
