<svg width="843" height="595" viewBox="0 0 843 595" fill="none" xmlns="http://www.w3.org/2000/svg">
<g clip-path="url(#clip0_1526_5342)">
<rect width="842" height="595" transform="translate(0.408203)" fill="white"/>
<rect x="638.566" width="203.842" height="595" fill="#C4C4C4"/>
<path fill-rule="evenodd" clip-rule="evenodd" d="M54.5373 528.303C52.7028 526.959 50.4879 526.235 48.2141 526.235H35.3808L26.3125 569.765H36.8488L37.9502 564.474L38.438 565.081C40.065 567.105 42.2798 568.573 44.777 569.285C47.2742 569.996 49.9305 569.915 52.3796 569.052C54.8287 568.19 56.9497 566.589 58.4501 564.47C59.9505 562.351 60.7564 559.818 60.7564 557.222C60.757 555.002 60.1687 552.823 59.0515 550.905C57.9343 548.988 56.3282 547.402 54.3973 546.308L53.8915 546.021L54.3671 545.687C56.2275 544.38 57.623 542.514 58.3511 540.359C59.0792 538.205 59.102 535.875 58.4162 533.707C57.7305 531.539 56.3718 529.646 54.5373 528.303ZM61.4917 557.222C61.4916 559.97 60.6386 562.651 59.0502 564.895C57.4619 567.138 55.2165 568.833 52.6238 569.746C50.0312 570.659 47.2191 570.745 44.5756 569.992C42.1765 569.309 40.0235 567.965 38.3585 566.121L37.4468 570.5H25.4082L34.7829 525.5L48.214 525.5C48.214 525.5 48.2139 525.5 48.214 525.5C50.6441 525.5 53.0112 526.273 54.9717 527.709C56.9323 529.145 58.3844 531.168 59.1173 533.485C59.8502 535.802 59.8258 538.293 59.0477 540.595C58.3297 542.719 57.0042 544.582 55.2415 545.955C57.0714 547.096 58.5983 548.667 59.6868 550.535C60.8695 552.565 61.4923 554.872 61.4917 557.222Z" fill="black"/>
<path fill-rule="evenodd" clip-rule="evenodd" d="M37.5155 536.934C37.5138 538.651 37.926 540.343 38.7172 541.867C39.5085 543.39 40.6554 544.701 42.0607 545.687L42.537 546.021L42.0307 546.308C40.0996 547.401 38.4933 548.988 37.376 550.905C36.2586 552.823 35.6702 555.002 35.6708 557.221L34.9355 557.222C34.9349 554.872 35.5578 552.565 36.7407 550.535C37.8293 548.667 39.3562 547.096 41.1862 545.955C39.8894 544.946 38.8239 543.668 38.0647 542.206C37.219 540.577 36.7784 538.769 36.7802 536.933L37.5155 536.934Z" fill="black"/>
<path d="M28.0455 281.435H40.9155V297.5H38.8905V283.28H30.0705V297.5H28.0455V281.435ZM45.2109 287.555C46.2159 286.43 47.5809 285.867 49.3059 285.867C51.0309 285.867 52.3884 286.43 53.3784 287.555C54.3834 288.68 54.8859 290.105 54.8859 291.83C54.8859 293.555 54.3834 294.98 53.3784 296.105C52.3884 297.23 51.0309 297.793 49.3059 297.793C47.5809 297.793 46.2159 297.23 45.2109 296.105C44.2209 294.98 43.7259 293.555 43.7259 291.83C43.7259 290.105 44.2209 288.68 45.2109 287.555ZM46.5834 294.89C47.2134 295.715 48.1209 296.127 49.3059 296.127C50.4909 296.127 51.3984 295.715 52.0284 294.89C52.6584 294.05 52.9734 293.03 52.9734 291.83C52.9734 290.63 52.6584 289.617 52.0284 288.792C51.3984 287.952 50.4909 287.532 49.3059 287.532C48.1209 287.532 47.2134 287.952 46.5834 288.792C45.9534 289.617 45.6384 290.63 45.6384 291.83C45.6384 293.03 45.9534 294.05 46.5834 294.89ZM65.1607 294.08H67.0732C66.8482 295.22 66.3157 296.127 65.4757 296.802C64.6507 297.462 63.5932 297.793 62.3032 297.793C60.5932 297.793 59.2432 297.237 58.2532 296.127C57.2782 295.002 56.7907 293.57 56.7907 291.83C56.7907 290.075 57.2782 288.642 58.2532 287.532C59.2282 286.422 60.5782 285.867 62.3032 285.867C63.6082 285.867 64.6657 286.197 65.4757 286.857C66.3007 287.502 66.8107 288.365 67.0057 289.445H65.0932C64.6882 288.17 63.7582 287.532 62.3032 287.532C61.0882 287.532 60.1807 287.937 59.5807 288.747C58.9957 289.542 58.7032 290.555 58.7032 291.785C58.7032 293.03 59.0032 294.065 59.6032 294.89C60.2032 295.715 61.1032 296.127 62.3032 296.127C63.8932 296.127 64.8457 295.445 65.1607 294.08ZM77.3722 297.5L74.8522 292.505H71.4547V297.5H69.5422V286.16H71.4547V290.84H74.8972L77.2597 286.16H79.2622L76.4947 291.627L79.4197 297.5H77.3722ZM82.208 287.555C83.213 286.43 84.578 285.867 86.303 285.867C88.028 285.867 89.3855 286.43 90.3755 287.555C91.3805 288.68 91.883 290.105 91.883 291.83C91.883 293.555 91.3805 294.98 90.3755 296.105C89.3855 297.23 88.028 297.793 86.303 297.793C84.578 297.793 83.213 297.23 82.208 296.105C81.218 294.98 80.723 293.555 80.723 291.83C80.723 290.105 81.218 288.68 82.208 287.555ZM83.5805 294.89C84.2105 295.715 85.118 296.127 86.303 296.127C87.488 296.127 88.3955 295.715 89.0255 294.89C89.6555 294.05 89.9705 293.03 89.9705 291.83C89.9705 290.63 89.6555 289.617 89.0255 288.792C88.3955 287.952 87.488 287.532 86.303 287.532C85.118 287.532 84.2105 287.952 83.5805 288.792C82.9505 289.617 82.6355 290.63 82.6355 291.83C82.6355 293.03 82.9505 294.05 83.5805 294.89ZM93.2027 297.5V295.7H93.5852C94.3802 295.7 94.9502 295.332 95.2952 294.597C95.6402 293.847 95.8127 292.497 95.8127 290.547V286.16H104.498V297.5H102.563V287.825H97.5902V290.592C97.5902 293.157 97.2752 294.95 96.6452 295.97C96.0302 296.99 95.0102 297.5 93.5852 297.5H93.2027ZM109.704 286.16V289.94H113.057C114.422 289.94 115.472 290.27 116.207 290.93C116.957 291.59 117.332 292.512 117.332 293.697C117.332 294.897 116.957 295.835 116.207 296.51C115.472 297.17 114.422 297.5 113.057 297.5H107.792V286.16H109.704ZM109.704 295.835H112.787C113.732 295.835 114.407 295.655 114.812 295.295C115.217 294.935 115.419 294.402 115.419 293.697C115.419 292.992 115.217 292.46 114.812 292.1C114.407 291.74 113.732 291.56 112.787 291.56H109.704V295.835ZM127.5 297.5L124.98 292.505H121.582V297.5H119.67V286.16H121.582V290.84H125.025L127.387 286.16H129.39L126.622 291.627L129.547 297.5H127.5ZM134.938 302H133.003L135.343 296.442L130.505 286.16H132.553L136.018 293.63H136.58L139.73 286.16H141.733L134.938 302ZM157.469 291.245V291.74C158.024 291.875 158.467 292.175 158.797 292.64C159.142 293.105 159.314 293.69 159.314 294.395C159.314 296.465 157.979 297.5 155.309 297.5H149.482V286.16H155.107C156.247 286.16 157.124 286.415 157.739 286.925C158.369 287.42 158.684 288.117 158.684 289.017C158.684 289.542 158.564 290 158.324 290.39C158.099 290.78 157.814 291.065 157.469 291.245ZM151.372 295.88H155.197C156.667 295.88 157.402 295.317 157.402 294.193C157.402 293.052 156.667 292.482 155.197 292.482H151.372V295.88ZM151.372 287.78V290.862H154.927C155.572 290.862 156.037 290.72 156.322 290.435C156.622 290.15 156.772 289.782 156.772 289.332C156.772 288.297 156.157 287.78 154.927 287.78H151.372ZM164.609 297.5H161.909V286.16H163.777V294.935H164.272L169.244 286.16H172.034V297.5H170.167V288.725H169.672L164.609 297.5ZM174.178 287.825V286.16H183.943V287.825H180.028V297.5H178.115V287.825H174.178ZM193.306 297.5V296.307H192.811C192.031 297.297 190.853 297.793 189.278 297.793C188.033 297.793 187.043 297.433 186.308 296.712C185.573 295.992 185.206 295.122 185.206 294.102C185.206 293.067 185.566 292.182 186.286 291.447C187.006 290.712 188.093 290.345 189.548 290.345H193.238V289.895C193.238 289.175 193.013 288.605 192.563 288.185C192.113 287.75 191.416 287.532 190.471 287.532C188.821 287.532 187.943 288.08 187.838 289.175H185.926C186.001 288.14 186.443 287.33 187.253 286.745C188.078 286.16 189.136 285.867 190.426 285.867C191.881 285.867 193.021 286.205 193.846 286.88C194.686 287.555 195.106 288.522 195.106 289.782V297.5H193.306ZM189.751 296.127C190.696 296.127 191.513 295.82 192.203 295.205C192.893 294.575 193.238 293.81 193.238 292.91V291.875H189.841C188.026 291.875 187.118 292.595 187.118 294.035C187.118 294.68 187.343 295.19 187.793 295.565C188.258 295.94 188.911 296.127 189.751 296.127ZM198.225 297.5V286.16H201.263L204.053 291.335H204.548L207.338 286.16H210.33V297.5H208.463V288.387H207.968L205.335 293.247H203.22L200.588 288.387H200.093V297.5H198.225ZM216.341 297.5H213.641V286.16H215.509V294.935H216.004L220.976 286.16H223.766V297.5H221.899V288.725H221.404L216.341 297.5ZM237.182 297.5H235.269V292.505H228.992V297.5H227.079V286.16H228.992V290.84H235.269V286.16H237.182V297.5ZM248.603 295.655H258.121V297.5H246.578V281.435H257.761V283.28H248.603V288.252H255.983V290.097H248.603V295.655ZM269.768 292.527L267.585 297.5H265.583L268.148 291.672L265.74 286.16H267.72L269.768 290.862H272.67V286.16H274.515V290.862H277.418L279.465 286.16H281.445L279.038 291.672L281.625 297.5H279.6L277.418 292.527H274.515V297.5H272.67V292.527H269.768ZM286.644 297.5H283.944V286.16H285.811V294.935H286.306L291.279 286.16H294.069V297.5H292.201V288.725H291.706L286.644 297.5ZM302.827 287.532C301.642 287.532 300.75 287.945 300.15 288.77C299.565 289.595 299.272 290.615 299.272 291.83C299.272 293.045 299.565 294.065 300.15 294.89C300.75 295.715 301.642 296.127 302.827 296.127C303.937 296.127 304.792 295.737 305.392 294.957C306.007 294.162 306.315 293.12 306.315 291.83C306.315 290.54 306.007 289.505 305.392 288.725C304.792 287.93 303.937 287.532 302.827 287.532ZM297.382 286.16H299.227V287.375H299.722C300.532 286.37 301.71 285.867 303.255 285.867C304.785 285.867 305.992 286.43 306.877 287.555C307.777 288.68 308.227 290.105 308.227 291.83C308.227 293.585 307.777 295.017 306.877 296.127C305.992 297.237 304.785 297.793 303.255 297.793C301.695 297.793 300.54 297.29 299.79 296.285H299.295V302H297.382V286.16ZM311.63 287.555C312.635 286.43 314 285.867 315.725 285.867C317.45 285.867 318.807 286.43 319.797 287.555C320.802 288.68 321.305 290.105 321.305 291.83C321.305 293.555 320.802 294.98 319.797 296.105C318.807 297.23 317.45 297.793 315.725 297.793C314 297.793 312.635 297.23 311.63 296.105C310.64 294.98 310.145 293.555 310.145 291.83C310.145 290.105 310.64 288.68 311.63 287.555ZM313.002 294.89C313.632 295.715 314.54 296.127 315.725 296.127C316.91 296.127 317.817 295.715 318.447 294.89C319.077 294.05 319.392 293.03 319.392 291.83C319.392 290.63 319.077 289.617 318.447 288.792C317.817 287.952 316.91 287.532 315.725 287.532C314.54 287.532 313.632 287.952 313.002 288.792C312.372 289.617 312.057 290.63 312.057 291.83C312.057 293.03 312.372 294.05 313.002 294.89ZM329.352 287.532C328.167 287.532 327.275 287.945 326.675 288.77C326.09 289.595 325.797 290.615 325.797 291.83C325.797 293.045 326.09 294.065 326.675 294.89C327.275 295.715 328.167 296.127 329.352 296.127C330.462 296.127 331.317 295.737 331.917 294.957C332.532 294.162 332.84 293.12 332.84 291.83C332.84 290.54 332.532 289.505 331.917 288.725C331.317 287.93 330.462 287.532 329.352 287.532ZM323.907 286.16H325.752V287.375H326.247C327.057 286.37 328.235 285.867 329.78 285.867C331.31 285.867 332.517 286.43 333.402 287.555C334.302 288.68 334.752 290.105 334.752 291.83C334.752 293.585 334.302 295.017 333.402 296.127C332.517 297.237 331.31 297.793 329.78 297.793C328.22 297.793 327.065 297.29 326.315 296.285H325.82V302H323.907V286.16ZM344.59 297.5V296.307H344.095C343.315 297.297 342.137 297.793 340.562 297.793C339.317 297.793 338.327 297.433 337.592 296.712C336.857 295.992 336.49 295.122 336.49 294.102C336.49 293.067 336.85 292.182 337.57 291.447C338.29 290.712 339.377 290.345 340.832 290.345H344.522V289.895C344.522 289.175 344.297 288.605 343.847 288.185C343.397 287.75 342.7 287.532 341.755 287.532C340.105 287.532 339.227 288.08 339.122 289.175H337.21C337.285 288.14 337.727 287.33 338.537 286.745C339.362 286.16 340.42 285.867 341.71 285.867C343.165 285.867 344.305 286.205 345.13 286.88C345.97 287.555 346.39 288.522 346.39 289.782V297.5H344.59ZM341.035 296.127C341.98 296.127 342.797 295.82 343.487 295.205C344.177 294.575 344.522 293.81 344.522 292.91V291.875H341.125C339.31 291.875 338.402 292.595 338.402 294.035C338.402 294.68 338.627 295.19 339.077 295.565C339.542 295.94 340.195 296.127 341.035 296.127ZM357.182 294.08H359.094C358.869 295.22 358.337 296.127 357.497 296.802C356.672 297.462 355.614 297.793 354.324 297.793C352.614 297.793 351.264 297.237 350.274 296.127C349.299 295.002 348.812 293.57 348.812 291.83C348.812 290.075 349.299 288.642 350.274 287.532C351.249 286.422 352.599 285.867 354.324 285.867C355.629 285.867 356.687 286.197 357.497 286.857C358.322 287.502 358.832 288.365 359.027 289.445H357.114C356.709 288.17 355.779 287.532 354.324 287.532C353.109 287.532 352.202 287.937 351.602 288.747C351.017 289.542 350.724 290.555 350.724 291.785C350.724 293.03 351.024 294.065 351.624 294.89C352.224 295.715 353.124 296.127 354.324 296.127C355.914 296.127 356.867 295.445 357.182 294.08ZM360.393 287.825V286.16H370.158V287.825H366.243V297.5H364.331V287.825H360.393ZM380.287 291.245V291.74C380.842 291.875 381.284 292.175 381.614 292.64C381.959 293.105 382.132 293.69 382.132 294.395C382.132 296.465 380.797 297.5 378.127 297.5H372.299V286.16H377.924C379.064 286.16 379.942 286.415 380.557 286.925C381.187 287.42 381.502 288.117 381.502 289.017C381.502 289.542 381.382 290 381.142 290.39C380.917 290.78 380.632 291.065 380.287 291.245ZM374.189 295.88H378.014C379.484 295.88 380.219 295.317 380.219 294.193C380.219 293.052 379.484 292.482 378.014 292.482H374.189V295.88ZM374.189 287.78V290.862H377.744C378.389 290.862 378.854 290.72 379.139 290.435C379.439 290.15 379.589 289.782 379.589 289.332C379.589 288.297 378.974 287.78 377.744 287.78H374.189ZM385.514 287.555C386.519 286.43 387.884 285.867 389.609 285.867C391.334 285.867 392.692 286.43 393.682 287.555C394.687 288.68 395.189 290.105 395.189 291.83C395.189 293.555 394.687 294.98 393.682 296.105C392.692 297.23 391.334 297.793 389.609 297.793C387.884 297.793 386.519 297.23 385.514 296.105C384.524 294.98 384.029 293.555 384.029 291.83C384.029 290.105 384.524 288.68 385.514 287.555ZM386.887 294.89C387.517 295.715 388.424 296.127 389.609 296.127C390.794 296.127 391.702 295.715 392.332 294.89C392.962 294.05 393.277 293.03 393.277 291.83C393.277 290.63 392.962 289.617 392.332 288.792C391.702 287.952 390.794 287.532 389.609 287.532C388.424 287.532 387.517 287.952 386.887 288.792C386.257 289.617 385.942 290.63 385.942 291.83C385.942 293.03 386.257 294.05 386.887 294.89ZM403.236 287.532C402.051 287.532 401.159 287.945 400.559 288.77C399.974 289.595 399.681 290.615 399.681 291.83C399.681 293.045 399.974 294.065 400.559 294.89C401.159 295.715 402.051 296.127 403.236 296.127C404.346 296.127 405.201 295.737 405.801 294.957C406.416 294.162 406.724 293.12 406.724 291.83C406.724 290.54 406.416 289.505 405.801 288.725C405.201 287.93 404.346 287.532 403.236 287.532ZM397.791 286.16H399.636V287.375H400.131C400.941 286.37 402.119 285.867 403.664 285.867C405.194 285.867 406.401 286.43 407.286 287.555C408.186 288.68 408.636 290.105 408.636 291.83C408.636 293.585 408.186 295.017 407.286 296.127C406.401 297.237 405.194 297.793 403.664 297.793C402.104 297.793 400.949 297.29 400.199 296.285H399.704V302H397.791V286.16ZM413.952 297.5H411.252V286.16H413.119V294.935H413.614L418.587 286.16H421.377V297.5H419.509V288.725H419.014L413.952 297.5ZM424.69 297.5V286.16H427.727L430.517 291.335H431.012L433.802 286.16H436.795V297.5H434.927V288.387H434.432L431.8 293.247H429.685L427.052 288.387H426.557V297.5H424.69ZM441.118 297.5H439.993V294.89H442.333V297.928L441.073 300.088H439.858L441.118 297.928V297.5ZM35.8305 319.245V319.74C36.3855 319.875 36.828 320.175 37.158 320.64C37.503 321.105 37.6755 321.69 37.6755 322.395C37.6755 324.465 36.3405 325.5 33.6705 325.5H27.843V314.16H33.468C34.608 314.16 35.4855 314.415 36.1005 314.925C36.7305 315.42 37.0455 316.117 37.0455 317.017C37.0455 317.542 36.9255 318 36.6855 318.39C36.4605 318.78 36.1755 319.065 35.8305 319.245ZM29.733 323.88H33.558C35.028 323.88 35.763 323.317 35.763 322.193C35.763 321.052 35.028 320.482 33.558 320.482H29.733V323.88ZM29.733 315.78V318.862H33.288C33.933 318.862 34.398 318.72 34.683 318.435C34.983 318.15 35.133 317.782 35.133 317.332C35.133 316.297 34.518 315.78 33.288 315.78H29.733ZM46.9378 315.555C47.9428 314.43 49.3078 313.867 51.0328 313.867C52.7578 313.867 54.1153 314.43 55.1053 315.555C56.1103 316.68 56.6128 318.105 56.6128 319.83C56.6128 321.555 56.1103 322.98 55.1053 324.105C54.1153 325.23 52.7578 325.793 51.0328 325.793C49.3078 325.793 47.9428 325.23 46.9378 324.105C45.9478 322.98 45.4528 321.555 45.4528 319.83C45.4528 318.105 45.9478 316.68 46.9378 315.555ZM48.3103 322.89C48.9403 323.715 49.8478 324.127 51.0328 324.127C52.2178 324.127 53.1253 323.715 53.7553 322.89C54.3853 322.05 54.7003 321.03 54.7003 319.83C54.7003 318.63 54.3853 317.617 53.7553 316.792C53.1253 315.952 52.2178 315.532 51.0328 315.532C49.8478 315.532 48.9403 315.952 48.3103 316.792C47.6803 317.617 47.3653 318.63 47.3653 319.83C47.3653 321.03 47.6803 322.05 48.3103 322.89ZM66.8876 322.08H68.8001C68.5751 323.22 68.0426 324.127 67.2026 324.802C66.3776 325.462 65.3201 325.793 64.0301 325.793C62.3201 325.793 60.9701 325.237 59.9801 324.127C59.0051 323.002 58.5176 321.57 58.5176 319.83C58.5176 318.075 59.0051 316.642 59.9801 315.532C60.9551 314.422 62.3051 313.867 64.0301 313.867C65.3351 313.867 66.3926 314.197 67.2026 314.857C68.0276 315.502 68.5376 316.365 68.7326 317.445H66.8201C66.4151 316.17 65.4851 315.532 64.0301 315.532C62.8151 315.532 61.9076 315.937 61.3076 316.747C60.7226 317.542 60.4301 318.555 60.4301 319.785C60.4301 321.03 60.7301 322.065 61.3301 322.89C61.9301 323.715 62.8301 324.127 64.0301 324.127C65.6201 324.127 66.5726 323.445 66.8876 322.08ZM81.3716 325.5H79.4591V320.505H73.1816V325.5H71.2691V314.16H73.1816V318.84H79.4591V314.16H81.3716V325.5ZM85.4729 315.555C86.4779 314.43 87.8429 313.867 89.5679 313.867C91.2929 313.867 92.6504 314.43 93.6404 315.555C94.6454 316.68 95.1479 318.105 95.1479 319.83C95.1479 321.555 94.6454 322.98 93.6404 324.105C92.6504 325.23 91.2929 325.793 89.5679 325.793C87.8429 325.793 86.4779 325.23 85.4729 324.105C84.4829 322.98 83.9879 321.555 83.9879 319.83C83.9879 318.105 84.4829 316.68 85.4729 315.555ZM86.8454 322.89C87.4754 323.715 88.3829 324.127 89.5679 324.127C90.7529 324.127 91.6604 323.715 92.2904 322.89C92.9204 322.05 93.2354 321.03 93.2354 319.83C93.2354 318.63 92.9204 317.617 92.2904 316.792C91.6604 315.952 90.7529 315.532 89.5679 315.532C88.3829 315.532 87.4754 315.952 86.8454 316.792C86.2154 317.617 85.9004 318.63 85.9004 319.83C85.9004 321.03 86.2154 322.05 86.8454 322.89ZM105.738 319.245V319.74C106.293 319.875 106.735 320.175 107.065 320.64C107.41 321.105 107.583 321.69 107.583 322.395C107.583 324.465 106.248 325.5 103.578 325.5H97.7502V314.16H103.375C104.515 314.16 105.393 314.415 106.008 314.925C106.638 315.42 106.953 316.117 106.953 317.017C106.953 317.542 106.833 318 106.593 318.39C106.368 318.78 106.083 319.065 105.738 319.245ZM99.6402 323.88H103.465C104.935 323.88 105.67 323.317 105.67 322.193C105.67 321.052 104.935 320.482 103.465 320.482H99.6402V323.88ZM99.6402 315.78V318.862H103.195C103.84 318.862 104.305 318.72 104.59 318.435C104.89 318.15 105.04 317.782 105.04 317.332C105.04 316.297 104.425 315.78 103.195 315.78H99.6402ZM120.28 325.5H118.368V320.505H112.09V325.5H110.178V314.16H112.09V318.84H118.368V314.16H120.28V325.5ZM124.382 315.555C125.387 314.43 126.752 313.867 128.477 313.867C130.202 313.867 131.559 314.43 132.549 315.555C133.554 316.68 134.057 318.105 134.057 319.83C134.057 321.555 133.554 322.98 132.549 324.105C131.559 325.23 130.202 325.793 128.477 325.793C126.752 325.793 125.387 325.23 124.382 324.105C123.392 322.98 122.897 321.555 122.897 319.83C122.897 318.105 123.392 316.68 124.382 315.555ZM125.754 322.89C126.384 323.715 127.292 324.127 128.477 324.127C129.662 324.127 130.569 323.715 131.199 322.89C131.829 322.05 132.144 321.03 132.144 319.83C132.144 318.63 131.829 317.617 131.199 316.792C130.569 315.952 129.662 315.532 128.477 315.532C127.292 315.532 126.384 315.952 125.754 316.792C125.124 317.617 124.809 318.63 124.809 319.83C124.809 321.03 125.124 322.05 125.754 322.89ZM136.659 325.5V314.16H139.696L142.486 319.335H142.981L145.771 314.16H148.764V325.5H146.896V316.387H146.401L143.769 321.247H141.654L139.021 316.387H138.526V325.5H136.659ZM158.742 315.555C159.747 314.43 161.112 313.867 162.837 313.867C164.562 313.867 165.919 314.43 166.909 315.555C167.914 316.68 168.417 318.105 168.417 319.83C168.417 321.555 167.914 322.98 166.909 324.105C165.919 325.23 164.562 325.793 162.837 325.793C161.112 325.793 159.747 325.23 158.742 324.105C157.752 322.98 157.257 321.555 157.257 319.83C157.257 318.105 157.752 316.68 158.742 315.555ZM160.114 322.89C160.744 323.715 161.652 324.127 162.837 324.127C164.022 324.127 164.929 323.715 165.559 322.89C166.189 322.05 166.504 321.03 166.504 319.83C166.504 318.63 166.189 317.617 165.559 316.792C164.929 315.952 164.022 315.532 162.837 315.532C161.652 315.532 160.744 315.952 160.114 316.792C159.484 317.617 159.169 318.63 159.169 319.83C159.169 321.03 159.484 322.05 160.114 322.89ZM181.122 325.5H179.209V320.505H172.932V325.5H171.019V314.16H172.932V318.84H179.209V314.16H181.122V325.5ZM197.988 322.08H199.9C199.675 323.22 199.143 324.127 198.303 324.802C197.478 325.462 196.42 325.793 195.13 325.793C193.42 325.793 192.07 325.237 191.08 324.127C190.105 323.002 189.618 321.57 189.618 319.83C189.618 318.075 190.105 316.642 191.08 315.532C192.055 314.422 193.405 313.867 195.13 313.867C196.435 313.867 197.493 314.197 198.303 314.857C199.128 315.502 199.638 316.365 199.833 317.445H197.92C197.515 316.17 196.585 315.532 195.13 315.532C193.915 315.532 193.008 315.937 192.408 316.747C191.823 317.542 191.53 318.555 191.53 319.785C191.53 321.03 191.83 322.065 192.43 322.89C193.03 323.715 193.93 324.127 195.13 324.127C196.72 324.127 197.673 323.445 197.988 322.08ZM203.157 315.555C204.162 314.43 205.527 313.867 207.252 313.867C208.977 313.867 210.334 314.43 211.324 315.555C212.329 316.68 212.832 318.105 212.832 319.83C212.832 321.555 212.329 322.98 211.324 324.105C210.334 325.23 208.977 325.793 207.252 325.793C205.527 325.793 204.162 325.23 203.157 324.105C202.167 322.98 201.672 321.555 201.672 319.83C201.672 318.105 202.167 316.68 203.157 315.555ZM204.529 322.89C205.159 323.715 206.067 324.127 207.252 324.127C208.437 324.127 209.344 323.715 209.974 322.89C210.604 322.05 210.919 321.03 210.919 319.83C210.919 318.63 210.604 317.617 209.974 316.792C209.344 315.952 208.437 315.532 207.252 315.532C206.067 315.532 205.159 315.952 204.529 316.792C203.899 317.617 203.584 318.63 203.584 319.83C203.584 321.03 203.899 322.05 204.529 322.89ZM225.536 323.835H227.629V328.718H225.761V325.5H215.951V328.718H214.084V323.835H215.591C216.521 321.855 216.986 319.665 216.986 317.265V314.16H225.536V323.835ZM223.624 323.835V315.825H218.764V317.265C218.764 319.83 218.351 322.02 217.526 323.835H223.624ZM239.562 319.155V319.807H230.922C230.952 321.172 231.274 322.237 231.889 323.002C232.504 323.752 233.389 324.127 234.544 324.127C236.104 324.127 237.064 323.542 237.424 322.372H239.359C239.164 323.392 238.647 324.217 237.807 324.847C236.982 325.477 235.894 325.793 234.544 325.793C232.819 325.793 231.469 325.23 230.494 324.105C229.519 322.98 229.032 321.517 229.032 319.718C229.032 317.947 229.519 316.53 230.494 315.465C231.469 314.4 232.804 313.867 234.499 313.867C236.104 313.867 237.342 314.377 238.212 315.397C239.082 316.402 239.532 317.655 239.562 319.155ZM234.454 315.532C233.479 315.532 232.699 315.787 232.114 316.297C231.529 316.792 231.169 317.43 231.034 318.21H237.582C237.522 317.445 237.214 316.807 236.659 316.297C236.104 315.787 235.369 315.532 234.454 315.532ZM247.602 315.532C246.417 315.532 245.524 315.945 244.924 316.77C244.339 317.595 244.047 318.615 244.047 319.83C244.047 321.045 244.339 322.065 244.924 322.89C245.524 323.715 246.417 324.127 247.602 324.127C248.712 324.127 249.567 323.737 250.167 322.957C250.782 322.162 251.089 321.12 251.089 319.83C251.089 318.54 250.782 317.505 250.167 316.725C249.567 315.93 248.712 315.532 247.602 315.532ZM242.157 314.16H244.002V315.375H244.497C245.307 314.37 246.484 313.867 248.029 313.867C249.559 313.867 250.767 314.43 251.652 315.555C252.552 316.68 253.002 318.105 253.002 319.83C253.002 321.585 252.552 323.017 251.652 324.127C250.767 325.237 249.559 325.793 248.029 325.793C246.469 325.793 245.314 325.29 244.564 324.285H244.069V330H242.157V314.16ZM258.835 320.527L256.652 325.5H254.65L257.215 319.672L254.807 314.16H256.787L258.835 318.862H261.737V314.16H263.582V318.862H266.485L268.532 314.16H270.512L268.105 319.672L270.692 325.5H268.667L266.485 320.527H263.582V325.5H261.737V320.527H258.835ZM275.71 325.5H273.01V314.16H274.878V322.935H275.373L280.345 314.16H283.135V325.5H281.268V316.725H280.773L275.71 325.5ZM285.279 315.825V314.16H295.044V315.825H291.129V325.5H289.216V315.825H285.279ZM304.681 322.08H306.594C306.369 323.22 305.836 324.127 304.996 324.802C304.171 325.462 303.114 325.793 301.824 325.793C300.114 325.793 298.764 325.237 297.774 324.127C296.799 323.002 296.311 321.57 296.311 319.83C296.311 318.075 296.799 316.642 297.774 315.532C298.749 314.422 300.099 313.867 301.824 313.867C303.129 313.867 304.186 314.197 304.996 314.857C305.821 315.502 306.331 316.365 306.526 317.445H304.614C304.209 316.17 303.279 315.532 301.824 315.532C300.609 315.532 299.701 315.937 299.101 316.747C298.516 317.542 298.224 318.555 298.224 319.785C298.224 321.03 298.524 322.065 299.124 322.89C299.724 323.715 300.624 324.127 301.824 324.127C303.414 324.127 304.366 323.445 304.681 322.08ZM312.73 314.16H318.378V325.5H316.443V321.022H313C312.7 321.022 312.468 321.015 312.303 321L310.593 325.5H308.59L310.503 320.572C309.333 320.017 308.748 319.027 308.748 317.602C308.748 316.507 309.085 315.66 309.76 315.06C310.45 314.46 311.44 314.16 312.73 314.16ZM316.443 315.78H312.933C312.108 315.78 311.523 315.937 311.178 316.252C310.833 316.567 310.66 317.025 310.66 317.625C310.66 318.21 310.833 318.652 311.178 318.952C311.523 319.252 312.108 319.402 312.933 319.402H316.443V315.78ZM335.533 319.245V319.74C336.088 319.875 336.531 320.175 336.861 320.64C337.206 321.105 337.378 321.69 337.378 322.395C337.378 324.465 336.043 325.5 333.373 325.5H327.546V314.16H333.171C334.311 314.16 335.188 314.415 335.803 314.925C336.433 315.42 336.748 316.117 336.748 317.017C336.748 317.542 336.628 318 336.388 318.39C336.163 318.78 335.878 319.065 335.533 319.245ZM329.436 323.88H333.261C334.731 323.88 335.466 323.317 335.466 322.193C335.466 321.052 334.731 320.482 333.261 320.482H329.436V323.88ZM329.436 315.78V318.862H332.991C333.636 318.862 334.101 318.72 334.386 318.435C334.686 318.15 334.836 317.782 334.836 317.332C334.836 316.297 334.221 315.78 332.991 315.78H329.436ZM349.07 320.527L346.888 325.5H344.885L347.45 319.672L345.043 314.16H347.023L349.07 318.862H351.973V314.16H353.818V318.862H356.72L358.768 314.16H360.748L358.34 319.672L360.928 325.5H358.903L356.72 320.527H353.818V325.5H351.973V320.527H349.07ZM365.946 325.5H363.246V314.16H365.114V322.935H365.609L370.581 314.16H373.371V325.5H371.504V316.725H371.009L365.946 325.5ZM382.13 315.532C380.945 315.532 380.052 315.945 379.452 316.77C378.867 317.595 378.575 318.615 378.575 319.83C378.575 321.045 378.867 322.065 379.452 322.89C380.052 323.715 380.945 324.127 382.13 324.127C383.24 324.127 384.095 323.737 384.695 322.957C385.31 322.162 385.617 321.12 385.617 319.83C385.617 318.54 385.31 317.505 384.695 316.725C384.095 315.93 383.24 315.532 382.13 315.532ZM376.685 314.16H378.53V315.375H379.025C379.835 314.37 381.012 313.867 382.557 313.867C384.087 313.867 385.295 314.43 386.18 315.555C387.08 316.68 387.53 318.105 387.53 319.83C387.53 321.585 387.08 323.017 386.18 324.127C385.295 325.237 384.087 325.793 382.557 325.793C380.997 325.793 379.842 325.29 379.092 324.285H378.597V330H376.685V314.16ZM397.367 325.5V324.307H396.872C396.092 325.297 394.915 325.793 393.34 325.793C392.095 325.793 391.105 325.433 390.37 324.712C389.635 323.992 389.267 323.122 389.267 322.102C389.267 321.067 389.627 320.182 390.347 319.447C391.067 318.712 392.155 318.345 393.61 318.345H397.3V317.895C397.3 317.175 397.075 316.605 396.625 316.185C396.175 315.75 395.477 315.532 394.532 315.532C392.882 315.532 392.005 316.08 391.9 317.175H389.987C390.062 316.14 390.505 315.33 391.315 314.745C392.14 314.16 393.197 313.867 394.487 313.867C395.942 313.867 397.082 314.205 397.907 314.88C398.747 315.555 399.167 316.522 399.167 317.782V325.5H397.367ZM393.812 324.127C394.757 324.127 395.575 323.82 396.265 323.205C396.955 322.575 397.3 321.81 397.3 320.91V319.875H393.902C392.087 319.875 391.18 320.595 391.18 322.035C391.18 322.68 391.405 323.19 391.855 323.565C392.32 323.94 392.972 324.127 393.812 324.127ZM409.869 325.5L407.057 320.752H406.247L403.367 325.5H401.274L404.807 319.695L401.634 314.16H403.659L406.269 318.66H407.079L409.734 314.16H411.737L408.519 319.627L412.029 325.5H409.869ZM415.331 325.5H414.206V322.89H416.546V325.928L415.286 328.088H414.071L415.331 325.928V325.5ZM35.0655 353.5V352.307H34.5705C33.7905 353.297 32.613 353.793 31.038 353.793C29.793 353.793 28.803 353.433 28.068 352.712C27.333 351.992 26.9655 351.122 26.9655 350.102C26.9655 349.067 27.3255 348.182 28.0455 347.447C28.7655 346.712 29.853 346.345 31.308 346.345H34.998V345.895C34.998 345.175 34.773 344.605 34.323 344.185C33.873 343.75 33.1755 343.532 32.2305 343.532C30.5805 343.532 29.703 344.08 29.598 345.175H27.6855C27.7605 344.14 28.203 343.33 29.013 342.745C29.838 342.16 30.8955 341.867 32.1855 341.867C33.6405 341.867 34.7805 342.205 35.6055 342.88C36.4455 343.555 36.8655 344.522 36.8655 345.782V353.5H35.0655ZM31.5105 352.127C32.4555 352.127 33.273 351.82 33.963 351.205C34.653 350.575 34.998 349.81 34.998 348.91V347.875H31.6005C29.7855 347.875 28.878 348.595 28.878 350.035C28.878 350.68 29.103 351.19 29.553 351.565C30.018 351.94 30.6705 352.127 31.5105 352.127ZM53.5372 350.08H55.4497C55.2247 351.22 54.6922 352.127 53.8522 352.802C53.0272 353.462 51.9697 353.793 50.6797 353.793C48.9697 353.793 47.6197 353.237 46.6297 352.127C45.6547 351.002 45.1672 349.57 45.1672 347.83C45.1672 346.075 45.6547 344.642 46.6297 343.532C47.6047 342.422 48.9547 341.867 50.6797 341.867C51.9847 341.867 53.0422 342.197 53.8522 342.857C54.6772 343.502 55.1872 344.365 55.3822 345.445H53.4697C53.0647 344.17 52.1347 343.532 50.6797 343.532C49.4647 343.532 48.5572 343.937 47.9572 344.747C47.3722 345.542 47.0797 346.555 47.0797 347.785C47.0797 349.03 47.3797 350.065 47.9797 350.89C48.5797 351.715 49.4797 352.127 50.6797 352.127C52.2697 352.127 53.2222 351.445 53.5372 350.08ZM65.1412 353.5V352.307H64.6462C63.8662 353.297 62.6887 353.793 61.1137 353.793C59.8687 353.793 58.8787 353.433 58.1437 352.712C57.4087 351.992 57.0412 351.122 57.0412 350.102C57.0412 349.067 57.4012 348.182 58.1212 347.447C58.8412 346.712 59.9287 346.345 61.3837 346.345H65.0737V345.895C65.0737 345.175 64.8487 344.605 64.3987 344.185C63.9487 343.75 63.2512 343.532 62.3062 343.532C60.6562 343.532 59.7787 344.08 59.6737 345.175H57.7612C57.8362 344.14 58.2787 343.33 59.0887 342.745C59.9137 342.16 60.9712 341.867 62.2612 341.867C63.7162 341.867 64.8562 342.205 65.6812 342.88C66.5212 343.555 66.9412 344.522 66.9412 345.782V353.5H65.1412ZM61.5862 352.127C62.5312 352.127 63.3487 351.82 64.0387 351.205C64.7287 350.575 65.0737 349.81 65.0737 348.91V347.875H61.6762C59.8612 347.875 58.9537 348.595 58.9537 350.035C58.9537 350.68 59.1787 351.19 59.6287 351.565C60.0937 351.94 60.7462 352.127 61.5862 352.127ZM70.0606 353.5V342.16H73.0981L75.8881 347.335H76.3831L79.1731 342.16H82.1656V353.5H80.2981V344.387H79.8031L77.1706 349.247H75.0556L72.4231 344.387H71.9281V353.5H70.0606ZM85.4764 342.16H87.3889V345.94H90.5164C91.8814 345.94 92.9314 346.27 93.6664 346.93C94.4164 347.59 94.7914 348.512 94.7914 349.697C94.7914 350.897 94.4164 351.835 93.6664 352.51C92.9314 353.17 91.8814 353.5 90.5164 353.5H85.4764V342.16ZM87.3889 347.56V351.835H90.2464C91.1914 351.835 91.8664 351.655 92.2714 351.295C92.6764 350.935 92.8789 350.402 92.8789 349.697C92.8789 348.992 92.6764 348.46 92.2714 348.1C91.8664 347.74 91.1914 347.56 90.2464 347.56H87.3889ZM96.6139 342.16H98.5264V353.5H96.6139V342.16ZM101.837 353.5V342.16H104.875L107.665 347.335H108.16L110.95 342.16H113.942V353.5H112.075V344.387H111.58L108.947 349.247H106.832L104.2 344.387H103.705V353.5H101.837ZM119.953 353.5H117.253V342.16H119.12V350.935H119.615L124.588 342.16H127.378V353.5H125.51V344.725H125.015L119.953 353.5ZM141.746 342.272C143.411 342.272 144.723 342.82 145.683 343.915C146.643 344.995 147.123 346.367 147.123 348.032C147.123 349.682 146.613 351.055 145.593 352.15C144.588 353.245 143.231 353.793 141.521 353.793C139.721 353.793 138.326 353.2 137.336 352.015C136.361 350.83 135.873 349.135 135.873 346.93C135.873 346.075 135.896 345.31 135.941 344.635C136.001 343.96 136.121 343.255 136.301 342.52C136.496 341.785 136.751 341.162 137.066 340.652C137.381 340.127 137.816 339.67 138.371 339.28C138.926 338.89 139.586 338.635 140.351 338.515L143.366 338.02C143.786 337.96 144.063 337.877 144.198 337.772C144.348 337.667 144.438 337.457 144.468 337.142H146.246C146.216 337.847 146.043 338.41 145.728 338.83C145.413 339.235 144.843 339.512 144.018 339.662L140.531 340.247C139.586 340.412 138.888 340.81 138.438 341.44C138.003 342.055 137.718 342.88 137.583 343.915H138.078C138.543 343.3 139.061 342.872 139.631 342.632C140.216 342.392 140.921 342.272 141.746 342.272ZM138.731 350.935C139.376 351.73 140.291 352.127 141.476 352.127C142.661 352.127 143.568 351.73 144.198 350.935C144.843 350.125 145.166 349.15 145.166 348.01C145.166 346.87 144.843 345.902 144.198 345.107C143.568 344.312 142.661 343.915 141.476 343.915C140.291 343.915 139.376 344.312 138.731 345.107C138.101 345.902 137.786 346.87 137.786 348.01C137.786 349.15 138.101 350.125 138.731 350.935ZM150.511 343.555C151.516 342.43 152.881 341.867 154.606 341.867C156.331 341.867 157.689 342.43 158.679 343.555C159.684 344.68 160.186 346.105 160.186 347.83C160.186 349.555 159.684 350.98 158.679 352.105C157.689 353.23 156.331 353.793 154.606 353.793C152.881 353.793 151.516 353.23 150.511 352.105C149.521 350.98 149.026 349.555 149.026 347.83C149.026 346.105 149.521 344.68 150.511 343.555ZM151.884 350.89C152.514 351.715 153.421 352.127 154.606 352.127C155.791 352.127 156.699 351.715 157.329 350.89C157.959 350.05 158.274 349.03 158.274 347.83C158.274 346.63 157.959 345.617 157.329 344.792C156.699 343.952 155.791 343.532 154.606 343.532C153.421 343.532 152.514 343.952 151.884 344.792C151.254 345.617 150.939 346.63 150.939 347.83C150.939 349.03 151.254 350.05 151.884 350.89ZM162.788 353.5V342.16H171.293V343.825H164.701V353.5H162.788ZM180.351 353.5V352.307H179.856C179.076 353.297 177.899 353.793 176.324 353.793C175.079 353.793 174.089 353.433 173.354 352.712C172.619 351.992 172.251 351.122 172.251 350.102C172.251 349.067 172.611 348.182 173.331 347.447C174.051 346.712 175.139 346.345 176.594 346.345H180.284V345.895C180.284 345.175 180.059 344.605 179.609 344.185C179.159 343.75 178.461 343.532 177.516 343.532C175.866 343.532 174.989 344.08 174.884 345.175H172.971C173.046 344.14 173.489 343.33 174.299 342.745C175.124 342.16 176.181 341.867 177.471 341.867C178.926 341.867 180.066 342.205 180.891 342.88C181.731 343.555 182.151 344.522 182.151 345.782V353.5H180.351ZM176.796 352.127C177.741 352.127 178.559 351.82 179.249 351.205C179.939 350.575 180.284 349.81 180.284 348.91V347.875H176.886C175.071 347.875 174.164 348.595 174.164 350.035C174.164 350.68 174.389 351.19 174.839 351.565C175.304 351.94 175.956 352.127 176.796 352.127ZM183.969 343.825V342.16H193.734V343.825H189.819V353.5H187.906V343.825H183.969ZM195.874 342.16H197.787V345.94H200.914C202.279 345.94 203.329 346.27 204.064 346.93C204.814 347.59 205.189 348.512 205.189 349.697C205.189 350.897 204.814 351.835 204.064 352.51C203.329 353.17 202.279 353.5 200.914 353.5H195.874V342.16ZM197.787 347.56V351.835H200.644C201.589 351.835 202.264 351.655 202.669 351.295C203.074 350.935 203.277 350.402 203.277 349.697C203.277 348.992 203.074 348.46 202.669 348.1C202.264 347.74 201.589 347.56 200.644 347.56H197.787ZM207.012 342.16H208.924V353.5H207.012V342.16ZM212.235 353.5V342.16H215.272L218.062 347.335H218.557L221.347 342.16H224.34V353.5H222.472V344.387H221.977L219.345 349.247H217.23L214.597 344.387H214.102V353.5H212.235ZM230.351 353.5H227.651V342.16H229.518V350.935H230.013L234.986 342.16H237.776V353.5H235.908V344.725H235.413L230.351 353.5ZM256.801 347.155V347.807H248.161C248.191 349.172 248.514 350.237 249.129 351.002C249.744 351.752 250.629 352.127 251.784 352.127C253.344 352.127 254.304 351.542 254.664 350.372H256.599C256.404 351.392 255.886 352.217 255.046 352.847C254.221 353.477 253.134 353.793 251.784 353.793C250.059 353.793 248.709 353.23 247.734 352.105C246.759 350.98 246.271 349.517 246.271 347.718C246.271 345.947 246.759 344.53 247.734 343.465C248.709 342.4 250.044 341.867 251.739 341.867C253.344 341.867 254.581 342.377 255.451 343.397C256.321 344.402 256.771 345.655 256.801 347.155ZM251.694 343.532C250.719 343.532 249.939 343.787 249.354 344.297C248.769 344.792 248.409 345.43 248.274 346.21H254.821C254.761 345.445 254.454 344.807 253.899 344.297C253.344 343.787 252.609 343.532 251.694 343.532ZM259.396 353.5V342.16H267.901V343.825H261.309V353.5H259.396ZM270.282 343.555C271.287 342.43 272.652 341.867 274.377 341.867C276.102 341.867 277.46 342.43 278.45 343.555C279.455 344.68 279.957 346.105 279.957 347.83C279.957 349.555 279.455 350.98 278.45 352.105C277.46 353.23 276.102 353.793 274.377 353.793C272.652 353.793 271.287 353.23 270.282 352.105C269.292 350.98 268.797 349.555 268.797 347.83C268.797 346.105 269.292 344.68 270.282 343.555ZM271.655 350.89C272.285 351.715 273.192 352.127 274.377 352.127C275.562 352.127 276.47 351.715 277.1 350.89C277.73 350.05 278.045 349.03 278.045 347.83C278.045 346.63 277.73 345.617 277.1 344.792C276.47 343.952 275.562 343.532 274.377 343.532C273.192 343.532 272.285 343.952 271.655 344.792C271.025 345.617 270.71 346.63 270.71 347.83C270.71 349.03 271.025 350.05 271.655 350.89ZM291.139 353.5H288.439V342.16H290.307V350.935H290.802L295.774 342.16H298.564V353.5H296.697V344.725H296.202L291.139 353.5ZM309.55 350.08H311.463C311.238 351.22 310.705 352.127 309.865 352.802C309.04 353.462 307.983 353.793 306.693 353.793C304.983 353.793 303.633 353.237 302.643 352.127C301.668 351.002 301.18 349.57 301.18 347.83C301.18 346.075 301.668 344.642 302.643 343.532C303.618 342.422 304.968 341.867 306.693 341.867C307.998 341.867 309.055 342.197 309.865 342.857C310.69 343.502 311.2 344.365 311.395 345.445H309.483C309.078 344.17 308.148 343.532 306.693 343.532C305.478 343.532 304.57 343.937 303.97 344.747C303.385 345.542 303.093 346.555 303.093 347.785C303.093 349.03 303.393 350.065 303.993 350.89C304.593 351.715 305.493 352.127 306.693 352.127C308.283 352.127 309.235 351.445 309.55 350.08ZM312.762 343.825V342.16H322.527V343.825H318.612V353.5H316.699V343.825H312.762ZM325.279 343.555C326.284 342.43 327.649 341.867 329.374 341.867C331.099 341.867 332.456 342.43 333.446 343.555C334.451 344.68 334.954 346.105 334.954 347.83C334.954 349.555 334.451 350.98 333.446 352.105C332.456 353.23 331.099 353.793 329.374 353.793C327.649 353.793 326.284 353.23 325.279 352.105C324.289 350.98 323.794 349.555 323.794 347.83C323.794 346.105 324.289 344.68 325.279 343.555ZM326.651 350.89C327.281 351.715 328.189 352.127 329.374 352.127C330.559 352.127 331.466 351.715 332.096 350.89C332.726 350.05 333.041 349.03 333.041 347.83C333.041 346.63 332.726 345.617 332.096 344.792C331.466 343.952 330.559 343.532 329.374 343.532C328.189 343.532 327.281 343.952 326.651 344.792C326.021 345.617 325.706 346.63 325.706 347.83C325.706 349.03 326.021 350.05 326.651 350.89ZM336.904 342.16H338.816V345.355C338.816 345.715 338.839 346 338.884 346.21C338.929 346.405 339.034 346.63 339.199 346.885C339.364 347.14 339.649 347.327 340.054 347.447C340.474 347.567 341.014 347.627 341.674 347.627C342.664 347.627 343.609 347.53 344.509 347.335V342.16H346.444V353.5H344.509V349.022C343.504 349.232 342.424 349.337 341.269 349.337C340.474 349.337 339.791 349.262 339.221 349.112C338.666 348.947 338.239 348.76 337.939 348.55C337.654 348.325 337.429 348.025 337.264 347.65C337.099 347.275 336.994 346.937 336.949 346.637C336.919 346.337 336.904 345.962 336.904 345.512V342.16ZM359.669 353.5H357.756V348.505H351.479V353.5H349.566V342.16H351.479V346.84H357.756V342.16H359.669V353.5ZM365.683 353.5H362.983V342.16H364.85V350.935H365.345L370.318 342.16H373.108V353.5H371.24V344.725H370.745L365.683 353.5ZM384.251 353.5L381.731 348.505H378.333V353.5H376.421V342.16H378.333V346.84H381.776L384.138 342.16H386.141L383.373 347.627L386.298 353.5H384.251ZM395.851 353.5V352.307H395.356C394.576 353.297 393.399 353.793 391.824 353.793C390.579 353.793 389.589 353.433 388.854 352.712C388.119 351.992 387.751 351.122 387.751 350.102C387.751 349.067 388.111 348.182 388.831 347.447C389.551 346.712 390.639 346.345 392.094 346.345H395.784V345.895C395.784 345.175 395.559 344.605 395.109 344.185C394.659 343.75 393.961 343.532 393.016 343.532C391.366 343.532 390.489 344.08 390.384 345.175H388.471C388.546 344.14 388.989 343.33 389.799 342.745C390.624 342.16 391.681 341.867 392.971 341.867C394.426 341.867 395.566 342.205 396.391 342.88C397.231 343.555 397.651 344.522 397.651 345.782V353.5H395.851ZM392.296 352.127C393.241 352.127 394.059 351.82 394.749 351.205C395.439 350.575 395.784 349.81 395.784 348.91V347.875H392.386C390.571 347.875 389.664 348.595 389.664 350.035C389.664 350.68 389.889 351.19 390.339 351.565C390.804 351.94 391.456 352.127 392.296 352.127ZM400.771 353.5V342.16H403.808L406.598 347.335H407.093L409.883 342.16H412.876V353.5H411.008V344.387H410.513L407.881 349.247H405.766L403.133 344.387H402.638V353.5H400.771ZM418.887 353.5H416.187V342.16H418.054V350.935H418.549L423.522 342.16H426.312V353.5H424.444V344.725H423.949L418.887 353.5ZM31.5105 370.16H37.158V381.5H35.223V377.022H31.7805C31.4805 377.022 31.248 377.015 31.083 377L29.373 381.5H27.3705L29.283 376.572C28.113 376.017 27.528 375.027 27.528 373.602C27.528 372.507 27.8655 371.66 28.5405 371.06C29.2305 370.46 30.2205 370.16 31.5105 370.16ZM35.223 371.78H31.713C30.888 371.78 30.303 371.937 29.958 372.252C29.613 372.567 29.4405 373.025 29.4405 373.625C29.4405 374.21 29.613 374.652 29.958 374.952C30.303 375.252 30.888 375.402 31.713 375.402H35.223V371.78ZM48.4339 375.245V375.74C48.9889 375.875 49.4314 376.175 49.7614 376.64C50.1064 377.105 50.2789 377.69 50.2789 378.395C50.2789 380.465 48.9439 381.5 46.2739 381.5H40.4464V370.16H46.0714C47.2114 370.16 48.0889 370.415 48.7039 370.925C49.3339 371.42 49.6489 372.117 49.6489 373.017C49.6489 373.542 49.5289 374 49.2889 374.39C49.0639 374.78 48.7789 375.065 48.4339 375.245ZM42.3364 379.88H46.1614C47.6314 379.88 48.3664 379.317 48.3664 378.193C48.3664 377.052 47.6314 376.482 46.1614 376.482H42.3364V379.88ZM42.3364 371.78V374.862H45.8914C46.5364 374.862 47.0014 374.72 47.2864 374.435C47.5864 374.15 47.7364 373.782 47.7364 373.332C47.7364 372.297 47.1214 371.78 45.8914 371.78H42.3364ZM51.5914 381.5V379.7H51.9739C52.7689 379.7 53.3389 379.332 53.6839 378.597C54.0289 377.847 54.2014 376.497 54.2014 374.547V370.16H62.8864V381.5H60.9514V371.825H55.9789V374.592C55.9789 377.157 55.6639 378.95 55.0339 379.97C54.4189 380.99 53.3989 381.5 51.9739 381.5H51.5914ZM69.8479 370.16H75.4954V381.5H73.5604V377.022H70.1179C69.8179 377.022 69.5854 377.015 69.4204 377L67.7104 381.5H65.7079L67.6204 376.572C66.4504 376.017 65.8654 375.027 65.8654 373.602C65.8654 372.507 66.2029 371.66 66.8779 371.06C67.5679 370.46 68.5579 370.16 69.8479 370.16ZM73.5604 371.78H70.0504C69.2254 371.78 68.6404 371.937 68.2954 372.252C67.9504 372.567 67.7779 373.025 67.7779 373.625C67.7779 374.21 67.9504 374.652 68.2954 374.952C68.6404 375.252 69.2254 375.402 70.0504 375.402H73.5604V371.78ZM88.7063 369.867C90.3863 369.867 91.7213 370.437 92.7113 371.577C93.7013 372.702 94.1963 374.12 94.1963 375.83C94.1963 377.54 93.7013 378.965 92.7113 380.105C91.7213 381.23 90.3863 381.793 88.7063 381.793C87.1463 381.793 85.8788 381.297 84.9038 380.307C83.9438 379.317 83.3963 378.05 83.2613 376.505H80.6738V381.5H78.7838V370.16H80.6738V374.84H83.3288C83.5088 373.355 84.0713 372.155 85.0163 371.24C85.9763 370.325 87.2063 369.867 88.7063 369.867ZM86.0513 378.89C86.6663 379.715 87.5513 380.127 88.7063 380.127C89.8613 380.127 90.7463 379.715 91.3613 378.89C91.9763 378.05 92.2838 377.03 92.2838 375.83C92.2838 374.63 91.9763 373.617 91.3613 372.792C90.7463 371.952 89.8613 371.532 88.7063 371.532C87.5513 371.532 86.6663 371.952 86.0513 372.792C85.4363 373.617 85.1288 374.63 85.1288 375.83C85.1288 377.03 85.4363 378.05 86.0513 378.89ZM95.4246 371.825V370.16H105.19V371.825H101.275V381.5H99.3621V371.825H95.4246ZM114.827 378.08H116.739C116.514 379.22 115.982 380.127 115.142 380.802C114.317 381.462 113.259 381.793 111.969 381.793C110.259 381.793 108.909 381.237 107.919 380.127C106.944 379.002 106.457 377.57 106.457 375.83C106.457 374.075 106.944 372.642 107.919 371.532C108.894 370.422 110.244 369.867 111.969 369.867C113.274 369.867 114.332 370.197 115.142 370.857C115.967 371.502 116.477 372.365 116.672 373.445H114.759C114.354 372.17 113.424 371.532 111.969 371.532C110.754 371.532 109.847 371.937 109.247 372.747C108.662 373.542 108.369 374.555 108.369 375.785C108.369 377.03 108.669 378.065 109.269 378.89C109.869 379.715 110.769 380.127 111.969 380.127C113.559 380.127 114.512 379.445 114.827 378.08ZM122.876 370.16H128.524V381.5H126.589V377.022H123.146C122.846 377.022 122.614 377.015 122.449 377L120.739 381.5H118.736L120.649 376.572C119.479 376.017 118.894 375.027 118.894 373.602C118.894 372.507 119.231 371.66 119.906 371.06C120.596 370.46 121.586 370.16 122.876 370.16ZM126.589 371.78H123.079C122.254 371.78 121.669 371.937 121.324 372.252C120.979 372.567 120.806 373.025 120.806 373.625C120.806 374.21 120.979 374.652 121.324 374.952C121.669 375.252 122.254 375.402 123.079 375.402H126.589V371.78ZM147.704 381.5H145.792V371.825H139.604V381.5H137.692V370.16H147.704V381.5ZM156.465 371.532C155.28 371.532 154.388 371.945 153.788 372.77C153.203 373.595 152.91 374.615 152.91 375.83C152.91 377.045 153.203 378.065 153.788 378.89C154.388 379.715 155.28 380.127 156.465 380.127C157.575 380.127 158.43 379.737 159.03 378.957C159.645 378.162 159.953 377.12 159.953 375.83C159.953 374.54 159.645 373.505 159.03 372.725C158.43 371.93 157.575 371.532 156.465 371.532ZM151.02 370.16H152.865V371.375H153.36C154.17 370.37 155.348 369.867 156.893 369.867C158.423 369.867 159.63 370.43 160.515 371.555C161.415 372.68 161.865 374.105 161.865 375.83C161.865 377.585 161.415 379.017 160.515 380.127C159.63 381.237 158.423 381.793 156.893 381.793C155.333 381.793 154.178 381.29 153.428 380.285H152.933V386H151.02V370.16ZM165.268 371.555C166.273 370.43 167.638 369.867 169.363 369.867C171.088 369.867 172.445 370.43 173.435 371.555C174.44 372.68 174.943 374.105 174.943 375.83C174.943 377.555 174.44 378.98 173.435 380.105C172.445 381.23 171.088 381.793 169.363 381.793C167.638 381.793 166.273 381.23 165.268 380.105C164.278 378.98 163.783 377.555 163.783 375.83C163.783 374.105 164.278 372.68 165.268 371.555ZM166.64 378.89C167.27 379.715 168.178 380.127 169.363 380.127C170.548 380.127 171.455 379.715 172.085 378.89C172.715 378.05 173.03 377.03 173.03 375.83C173.03 374.63 172.715 373.617 172.085 372.792C171.455 371.952 170.548 371.532 169.363 371.532C168.178 371.532 167.27 371.952 166.64 372.792C166.01 373.617 165.695 374.63 165.695 375.83C165.695 377.03 166.01 378.05 166.64 378.89ZM187.648 379.835H189.74V384.718H187.873V381.5H178.063V384.718H176.195V379.835H177.703C178.633 377.855 179.098 375.665 179.098 373.265V370.16H187.648V379.835ZM185.735 379.835V371.825H180.875V373.265C180.875 375.83 180.463 378.02 179.638 379.835H185.735ZM194.9 386H192.965L195.305 380.442L190.468 370.16H192.515L195.98 377.63H196.543L199.693 370.16H201.695L194.9 386ZM211.395 381.5L208.875 376.505H205.477V381.5H203.565V370.16H205.477V374.84H208.92L211.282 370.16H213.285L210.517 375.627L213.442 381.5H211.395ZM214.603 371.825V370.16H224.368V371.825H220.453V381.5H218.54V371.825H214.603ZM226.508 370.16H228.421V373.94H231.548C232.913 373.94 233.963 374.27 234.698 374.93C235.448 375.59 235.823 376.512 235.823 377.697C235.823 378.897 235.448 379.835 234.698 380.51C233.963 381.17 232.913 381.5 231.548 381.5H226.508V370.16ZM228.421 375.56V379.835H231.278C232.223 379.835 232.898 379.655 233.303 379.295C233.708 378.935 233.911 378.402 233.911 377.697C233.911 376.992 233.708 376.46 233.303 376.1C232.898 375.74 232.223 375.56 231.278 375.56H228.421ZM237.646 370.16H239.558V381.5H237.646V370.16ZM254.194 371.532C253.009 371.532 252.116 371.945 251.516 372.77C250.931 373.595 250.639 374.615 250.639 375.83C250.639 377.045 250.931 378.065 251.516 378.89C252.116 379.715 253.009 380.127 254.194 380.127C255.304 380.127 256.159 379.737 256.759 378.957C257.374 378.162 257.681 377.12 257.681 375.83C257.681 374.54 257.374 373.505 256.759 372.725C256.159 371.93 255.304 371.532 254.194 371.532ZM248.749 370.16H250.594V371.375H251.089C251.899 370.37 253.076 369.867 254.621 369.867C256.151 369.867 257.359 370.43 258.244 371.555C259.144 372.68 259.594 374.105 259.594 375.83C259.594 377.585 259.144 379.017 258.244 380.127C257.359 381.237 256.151 381.793 254.621 381.793C253.061 381.793 251.906 381.29 251.156 380.285H250.661V386H248.749V370.16ZM269.431 381.5V380.307H268.936C268.156 381.297 266.979 381.793 265.404 381.793C264.159 381.793 263.169 381.433 262.434 380.712C261.699 379.992 261.331 379.122 261.331 378.102C261.331 377.067 261.691 376.182 262.411 375.447C263.131 374.712 264.219 374.345 265.674 374.345H269.364V373.895C269.364 373.175 269.139 372.605 268.689 372.185C268.239 371.75 267.541 371.532 266.596 371.532C264.946 371.532 264.069 372.08 263.964 373.175H262.051C262.126 372.14 262.569 371.33 263.379 370.745C264.204 370.16 265.261 369.867 266.551 369.867C268.006 369.867 269.146 370.205 269.971 370.88C270.811 371.555 271.231 372.522 271.231 373.782V381.5H269.431ZM265.876 380.127C266.821 380.127 267.639 379.82 268.329 379.205C269.019 378.575 269.364 377.81 269.364 376.91V375.875H265.966C264.151 375.875 263.244 376.595 263.244 378.035C263.244 378.68 263.469 379.19 263.919 379.565C264.384 379.94 265.036 380.127 265.876 380.127ZM282.023 378.08H283.936C283.711 379.22 283.178 380.127 282.338 380.802C281.513 381.462 280.456 381.793 279.166 381.793C277.456 381.793 276.106 381.237 275.116 380.127C274.141 379.002 273.653 377.57 273.653 375.83C273.653 374.075 274.141 372.642 275.116 371.532C276.091 370.422 277.441 369.867 279.166 369.867C280.471 369.867 281.528 370.197 282.338 370.857C283.163 371.502 283.673 372.365 283.868 373.445H281.956C281.551 372.17 280.621 371.532 279.166 371.532C277.951 371.532 277.043 371.937 276.443 372.747C275.858 373.542 275.566 374.555 275.566 375.785C275.566 377.03 275.866 378.065 276.466 378.89C277.066 379.715 277.966 380.127 279.166 380.127C280.756 380.127 281.708 379.445 282.023 378.08ZM285.235 371.825V370.16H295V371.825H291.085V381.5H289.172V371.825H285.235ZM299.84 381.5H297.14V370.16H299.008V378.935H299.503L304.475 370.16H307.265V381.5H305.398V372.725H304.903L299.84 381.5ZM309.409 371.825V370.16H319.174V371.825H315.259V381.5H313.346V371.825H309.409ZM330.971 375.155V375.807H322.331C322.361 377.172 322.684 378.237 323.299 379.002C323.914 379.752 324.799 380.127 325.954 380.127C327.514 380.127 328.474 379.542 328.834 378.372H330.769C330.574 379.392 330.056 380.217 329.216 380.847C328.391 381.477 327.304 381.793 325.954 381.793C324.229 381.793 322.879 381.23 321.904 380.105C320.929 378.98 320.441 377.517 320.441 375.718C320.441 373.947 320.929 372.53 321.904 371.465C322.879 370.4 324.214 369.867 325.909 369.867C327.514 369.867 328.751 370.377 329.621 371.397C330.491 372.402 330.941 373.655 330.971 375.155ZM325.864 371.532C324.889 371.532 324.109 371.787 323.524 372.297C322.939 372.792 322.579 373.43 322.444 374.21H328.991C328.931 373.445 328.624 372.807 328.069 372.297C327.514 371.787 326.779 371.532 325.864 371.532ZM332.284 381.5V379.7H332.666C333.461 379.7 334.031 379.332 334.376 378.597C334.721 377.847 334.894 376.497 334.894 374.547V370.16H343.579V381.5H341.644V371.825H336.671V374.592C336.671 377.157 336.356 378.95 335.726 379.97C335.111 380.99 334.091 381.5 332.666 381.5H332.284ZM348.785 370.16V373.94H352.138C353.503 373.94 354.553 374.27 355.288 374.93C356.038 375.59 356.413 376.512 356.413 377.697C356.413 378.897 356.038 379.835 355.288 380.51C354.553 381.17 353.503 381.5 352.138 381.5H346.873V370.16H348.785ZM348.785 379.835H351.868C352.813 379.835 353.488 379.655 353.893 379.295C354.298 378.935 354.5 378.402 354.5 377.697C354.5 376.992 354.298 376.46 353.893 376.1C353.488 375.74 352.813 375.56 351.868 375.56H348.785V379.835ZM368.853 381.5H366.941V376.505H360.663V381.5H358.751V370.16H360.663V374.84H366.941V370.16H368.853V381.5ZM372.955 371.555C373.96 370.43 375.325 369.867 377.05 369.867C378.775 369.867 380.132 370.43 381.122 371.555C382.127 372.68 382.63 374.105 382.63 375.83C382.63 377.555 382.127 378.98 381.122 380.105C380.132 381.23 378.775 381.793 377.05 381.793C375.325 381.793 373.96 381.23 372.955 380.105C371.965 378.98 371.47 377.555 371.47 375.83C371.47 374.105 371.965 372.68 372.955 371.555ZM374.327 378.89C374.957 379.715 375.865 380.127 377.05 380.127C378.235 380.127 379.142 379.715 379.772 378.89C380.402 378.05 380.717 377.03 380.717 375.83C380.717 374.63 380.402 373.617 379.772 372.792C379.142 371.952 378.235 371.532 377.05 371.532C375.865 371.532 374.957 371.952 374.327 372.792C373.697 373.617 373.382 374.63 373.382 375.83C373.382 377.03 373.697 378.05 374.327 378.89ZM385.232 381.5V370.16H393.737V371.825H387.144V381.5H385.232ZM396.118 371.555C397.123 370.43 398.488 369.867 400.213 369.867C401.938 369.867 403.295 370.43 404.285 371.555C405.29 372.68 405.793 374.105 405.793 375.83C405.793 377.555 405.29 378.98 404.285 380.105C403.295 381.23 401.938 381.793 400.213 381.793C398.488 381.793 397.123 381.23 396.118 380.105C395.128 378.98 394.633 377.555 394.633 375.83C394.633 374.105 395.128 372.68 396.118 371.555ZM397.49 378.89C398.12 379.715 399.028 380.127 400.213 380.127C401.398 380.127 402.305 379.715 402.935 378.89C403.565 378.05 403.88 377.03 403.88 375.83C403.88 374.63 403.565 373.617 402.935 372.792C402.305 371.952 401.398 371.532 400.213 371.532C399.028 371.532 398.12 371.952 397.49 372.792C396.86 373.617 396.545 374.63 396.545 375.83C396.545 377.03 396.86 378.05 397.49 378.89ZM37.8555 409.5H35.943V399.825H29.7555V409.5H27.843V398.16H37.8555V409.5ZM46.6165 399.532C45.4315 399.532 44.539 399.945 43.939 400.77C43.354 401.595 43.0615 402.615 43.0615 403.83C43.0615 405.045 43.354 406.065 43.939 406.89C44.539 407.715 45.4315 408.127 46.6165 408.127C47.7265 408.127 48.5815 407.737 49.1815 406.957C49.7965 406.162 50.104 405.12 50.104 403.83C50.104 402.54 49.7965 401.505 49.1815 400.725C48.5815 399.93 47.7265 399.532 46.6165 399.532ZM41.1715 398.16H43.0165V399.375H43.5115C44.3215 398.37 45.499 397.867 47.044 397.867C48.574 397.867 49.7815 398.43 50.6665 399.555C51.5665 400.68 52.0165 402.105 52.0165 403.83C52.0165 405.585 51.5665 407.017 50.6665 408.127C49.7815 409.237 48.574 409.793 47.044 409.793C45.484 409.793 44.329 409.29 43.579 408.285H43.084V414H41.1715V398.16ZM55.4193 399.555C56.4243 398.43 57.7893 397.867 59.5143 397.867C61.2393 397.867 62.5968 398.43 63.5868 399.555C64.5918 400.68 65.0943 402.105 65.0943 403.83C65.0943 405.555 64.5918 406.98 63.5868 408.105C62.5968 409.23 61.2393 409.793 59.5143 409.793C57.7893 409.793 56.4243 409.23 55.4193 408.105C54.4293 406.98 53.9343 405.555 53.9343 403.83C53.9343 402.105 54.4293 400.68 55.4193 399.555ZM56.7918 406.89C57.4218 407.715 58.3293 408.127 59.5143 408.127C60.6993 408.127 61.6068 407.715 62.2368 406.89C62.8668 406.05 63.1818 405.03 63.1818 403.83C63.1818 402.63 62.8668 401.617 62.2368 400.792C61.6068 399.952 60.6993 399.532 59.5143 399.532C58.3293 399.532 57.4218 399.952 56.7918 400.792C56.1618 401.617 55.8468 402.63 55.8468 403.83C55.8468 405.03 56.1618 406.05 56.7918 406.89ZM70.3965 409.5H67.6965V398.16H69.564V406.935H70.059L75.0315 398.16H77.8215V409.5H75.954V400.725H75.459L70.3965 409.5ZM88.8073 406.08H90.7198C90.4948 407.22 89.9623 408.127 89.1223 408.802C88.2973 409.462 87.2398 409.793 85.9498 409.793C84.2398 409.793 82.8898 409.237 81.8998 408.127C80.9248 407.002 80.4373 405.57 80.4373 403.83C80.4373 402.075 80.9248 400.642 81.8998 399.532C82.8748 398.422 84.2248 397.867 85.9498 397.867C87.2548 397.867 88.3123 398.197 89.1223 398.857C89.9473 399.502 90.4573 400.365 90.6523 401.445H88.7398C88.3348 400.17 87.4048 399.532 85.9498 399.532C84.7348 399.532 83.8273 399.937 83.2273 400.747C82.6423 401.542 82.3498 402.555 82.3498 403.785C82.3498 405.03 82.6498 406.065 83.2498 406.89C83.8498 407.715 84.7498 408.127 85.9498 408.127C87.5398 408.127 88.4923 407.445 88.8073 406.08ZM100.771 409.5L97.9588 404.752H97.1488L94.2688 409.5H92.1763L95.7088 403.695L92.5363 398.16H94.5613L97.1713 402.66H97.9813L100.636 398.16H102.639L99.4213 403.627L102.931 409.5H100.771ZM105.679 399.555C106.684 398.43 108.049 397.867 109.774 397.867C111.499 397.867 112.856 398.43 113.846 399.555C114.851 400.68 115.354 402.105 115.354 403.83C115.354 405.555 114.851 406.98 113.846 408.105C112.856 409.23 111.499 409.793 109.774 409.793C108.049 409.793 106.684 409.23 105.679 408.105C104.689 406.98 104.194 405.555 104.194 403.83C104.194 402.105 104.689 400.68 105.679 399.555ZM107.051 406.89C107.681 407.715 108.589 408.127 109.774 408.127C110.959 408.127 111.866 407.715 112.496 406.89C113.126 406.05 113.441 405.03 113.441 403.83C113.441 402.63 113.126 401.617 112.496 400.792C111.866 399.952 110.959 399.532 109.774 399.532C108.589 399.532 107.681 399.952 107.051 400.792C106.421 401.617 106.106 402.63 106.106 403.83C106.106 405.03 106.421 406.05 107.051 406.89ZM121.174 404.527L118.991 409.5H116.989L119.554 403.672L117.146 398.16H119.126L121.174 402.862H124.076V398.16H125.921V402.862H128.824L130.871 398.16H132.851L130.444 403.672L133.031 409.5H131.006L128.824 404.527H125.921V409.5H124.076V404.527H121.174ZM145.452 407.835H147.544V412.718H145.677V409.5H135.867V412.718H133.999V407.835H135.507C136.437 405.855 136.902 403.665 136.902 401.265V398.16H145.452V407.835ZM143.539 407.835V399.825H138.679V401.265C138.679 403.83 138.267 406.02 137.442 407.835H143.539ZM159.477 403.155V403.807H150.837C150.867 405.172 151.19 406.237 151.805 407.002C152.42 407.752 153.305 408.127 154.46 408.127C156.02 408.127 156.98 407.542 157.34 406.372H159.275C159.08 407.392 158.562 408.217 157.722 408.847C156.897 409.477 155.81 409.793 154.46 409.793C152.735 409.793 151.385 409.23 150.41 408.105C149.435 406.98 148.947 405.517 148.947 403.718C148.947 401.947 149.435 400.53 150.41 399.465C151.385 398.4 152.72 397.867 154.415 397.867C156.02 397.867 157.257 398.377 158.127 399.397C158.997 400.402 159.447 401.655 159.477 403.155ZM154.37 399.532C153.395 399.532 152.615 399.787 152.03 400.297C151.445 400.792 151.085 401.43 150.95 402.21H157.497C157.437 401.445 157.13 400.807 156.575 400.297C156.02 399.787 155.285 399.532 154.37 399.532ZM172.175 409.5H170.262V404.505H163.985V409.5H162.072V398.16H163.985V402.84H170.262V398.16H172.175V409.5ZM178.189 409.5H175.489V398.16H177.356V406.935H177.851L182.824 398.16H185.614V409.5H183.746V400.725H183.251L178.189 409.5ZM192.594 398.16H198.242V409.5H196.307V405.022H192.864C192.564 405.022 192.332 405.015 192.167 405L190.457 409.5H188.454L190.367 404.572C189.197 404.017 188.612 403.027 188.612 401.602C188.612 400.507 188.949 399.66 189.624 399.06C190.314 398.46 191.304 398.16 192.594 398.16ZM196.307 399.78H192.797C191.972 399.78 191.387 399.937 191.042 400.252C190.697 400.567 190.524 401.025 190.524 401.625C190.524 402.21 190.697 402.652 191.042 402.952C191.387 403.252 191.972 403.402 192.797 403.402H196.307V399.78ZM203.758 409.5H201.418V406.89H203.758V409.5ZM203.758 400.77H201.418V398.16H203.758V400.77ZM212.828 409.5V398.16H215.866L218.656 403.335H219.151L221.941 398.16H224.933V409.5H223.066V400.387H222.571L219.938 405.247H217.823L215.191 400.387H214.696V409.5H212.828ZM230.944 409.5H228.244V398.16H230.112V406.935H230.607L235.579 398.16H238.369V409.5H236.502V400.725H236.007L230.944 409.5ZM251.785 409.5H249.872V404.505H243.595V409.5H241.682V398.16H243.595V402.84H249.872V398.16H251.785V409.5ZM265.201 407.835H267.294V412.718H265.426V409.5H255.616V412.718H253.749V407.835H255.256C256.186 405.855 256.651 403.665 256.651 401.265V398.16H265.201V407.835ZM263.289 407.835V399.825H258.429V401.265C258.429 403.83 258.016 406.02 257.191 407.835H263.289ZM276.616 409.5V408.307H276.121C275.341 409.297 274.164 409.793 272.589 409.793C271.344 409.793 270.354 409.433 269.619 408.712C268.884 407.992 268.516 407.122 268.516 406.102C268.516 405.067 268.876 404.182 269.596 403.447C270.316 402.712 271.404 402.345 272.859 402.345H276.549V401.895C276.549 401.175 276.324 400.605 275.874 400.185C275.424 399.75 274.726 399.532 273.781 399.532C272.131 399.532 271.254 400.08 271.149 401.175H269.236C269.311 400.14 269.754 399.33 270.564 398.745C271.389 398.16 272.446 397.867 273.736 397.867C275.191 397.867 276.331 398.205 277.156 398.88C277.996 399.555 278.416 400.522 278.416 401.782V409.5H276.616ZM273.061 408.127C274.006 408.127 274.824 407.82 275.514 407.205C276.204 406.575 276.549 405.81 276.549 404.91V403.875H273.151C271.336 403.875 270.429 404.595 270.429 406.035C270.429 406.68 270.654 407.19 271.104 407.565C271.569 407.94 272.221 408.127 273.061 408.127ZM280.253 409.5V407.7H280.636C281.431 407.7 282.001 407.332 282.346 406.597C282.691 405.847 282.863 404.497 282.863 402.547V398.16H291.548V409.5H289.613V399.825H284.641V402.592C284.641 405.157 284.326 406.95 283.696 407.97C283.081 408.99 282.061 409.5 280.636 409.5H280.253ZM296.755 398.16V401.94H300.107C301.472 401.94 302.522 402.27 303.257 402.93C304.007 403.59 304.382 404.512 304.382 405.697C304.382 406.897 304.007 407.835 303.257 408.51C302.522 409.17 301.472 409.5 300.107 409.5H294.842V398.16H296.755ZM296.755 407.835H299.837C300.782 407.835 301.457 407.655 301.862 407.295C302.267 406.935 302.47 406.402 302.47 405.697C302.47 404.992 302.267 404.46 301.862 404.1C301.457 403.74 300.782 403.56 299.837 403.56H296.755V407.835ZM307.733 409.5H306.608V406.89H308.948V409.928L307.688 412.088H306.473L307.733 409.928V409.5ZM325.174 409.5V414H323.284V409.5H322.924C321.169 409.5 319.796 408.975 318.806 407.925C317.816 406.875 317.321 405.51 317.321 403.83C317.321 402.135 317.809 400.77 318.784 399.735C319.759 398.685 321.131 398.16 322.901 398.16H323.284V393.142H325.174V398.16H325.534C327.289 398.16 328.654 398.685 329.629 399.735C330.619 400.785 331.114 402.15 331.114 403.83C331.114 405.6 330.596 406.987 329.561 407.992C328.526 408.997 327.064 409.5 325.174 409.5ZM320.156 400.927C319.526 401.692 319.211 402.66 319.211 403.83C319.211 405 319.526 405.967 320.156 406.732C320.786 407.497 321.709 407.88 322.924 407.88H323.284V399.78H322.924C321.724 399.78 320.801 400.162 320.156 400.927ZM325.174 407.88H325.489C326.704 407.88 327.626 407.497 328.256 406.732C328.901 405.967 329.224 405 329.224 403.83C329.224 402.66 328.901 401.692 328.256 400.927C327.626 400.162 326.704 399.78 325.489 399.78H325.174V407.88ZM336.516 414H334.581L336.921 408.442L332.084 398.16H334.131L337.596 405.63H338.159L341.309 398.16H343.311L336.516 414ZM355.283 409.5H353.371V404.505H347.093V409.5H345.181V398.16H347.093V402.84H353.371V398.16H355.283V409.5ZM368.7 407.835H370.792V412.718H368.925V409.5H359.115V412.718H357.247V407.835H358.755C359.685 405.855 360.15 403.665 360.15 401.265V398.16H368.7V407.835ZM366.787 407.835V399.825H361.927V401.265C361.927 403.83 361.515 406.02 360.69 407.835H366.787ZM375.952 414H374.017L376.357 408.442L371.52 398.16H373.567L377.032 405.63H377.595L380.745 398.16H382.747L375.952 414ZM392.447 409.5L389.927 404.505H386.529V409.5H384.617V398.16H386.529V402.84H389.972L392.334 398.16H394.337L391.569 403.627L394.494 409.5H392.447ZM397.837 409.5H396.712V406.89H399.052V409.928L397.792 412.088H396.577L397.837 409.928V409.5ZM35.0655 437.5V436.307H34.5705C33.7905 437.297 32.613 437.793 31.038 437.793C29.793 437.793 28.803 437.433 28.068 436.712C27.333 435.992 26.9655 435.122 26.9655 434.102C26.9655 433.067 27.3255 432.182 28.0455 431.447C28.7655 430.712 29.853 430.345 31.308 430.345H34.998V429.895C34.998 429.175 34.773 428.605 34.323 428.185C33.873 427.75 33.1755 427.532 32.2305 427.532C30.5805 427.532 29.703 428.08 29.598 429.175H27.6855C27.7605 428.14 28.203 427.33 29.013 426.745C29.838 426.16 30.8955 425.867 32.1855 425.867C33.6405 425.867 34.7805 426.205 35.6055 426.88C36.4455 427.555 36.8655 428.522 36.8655 429.782V437.5H35.0655ZM31.5105 436.127C32.4555 436.127 33.273 435.82 33.963 435.205C34.653 434.575 34.998 433.81 34.998 432.91V431.875H31.6005C29.7855 431.875 28.878 432.595 28.878 434.035C28.878 434.68 29.103 435.19 29.553 435.565C30.018 435.94 30.6705 436.127 31.5105 436.127ZM45.43 427.532C44.245 427.532 43.3525 427.945 42.7525 428.77C42.1675 429.595 41.875 430.615 41.875 431.83C41.875 433.045 42.1675 434.065 42.7525 434.89C43.3525 435.715 44.245 436.127 45.43 436.127C46.54 436.127 47.395 435.737 47.995 434.957C48.61 434.162 48.9175 433.12 48.9175 431.83C48.9175 430.54 48.61 429.505 47.995 428.725C47.395 427.93 46.54 427.532 45.43 427.532ZM39.985 426.16H41.83V427.375H42.325C43.135 426.37 44.3125 425.867 45.8575 425.867C47.3875 425.867 48.595 426.43 49.48 427.555C50.38 428.68 50.83 430.105 50.83 431.83C50.83 433.585 50.38 435.017 49.48 436.127C48.595 437.237 47.3875 437.793 45.8575 437.793C44.2975 437.793 43.1425 437.29 42.3925 436.285H41.8975V442H39.985V426.16ZM60.6677 437.5V436.307H60.1727C59.3927 437.297 58.2152 437.793 56.6402 437.793C55.3952 437.793 54.4052 437.433 53.6702 436.712C52.9352 435.992 52.5677 435.122 52.5677 434.102C52.5677 433.067 52.9277 432.182 53.6477 431.447C54.3677 430.712 55.4552 430.345 56.9102 430.345H60.6002V429.895C60.6002 429.175 60.3752 428.605 59.9252 428.185C59.4752 427.75 58.7777 427.532 57.8327 427.532C56.1827 427.532 55.3052 428.08 55.2002 429.175H53.2877C53.3627 428.14 53.8052 427.33 54.6152 426.745C55.4402 426.16 56.4977 425.867 57.7877 425.867C59.2427 425.867 60.3827 426.205 61.2077 426.88C62.0477 427.555 62.4677 428.522 62.4677 429.782V437.5H60.6677ZM57.1127 436.127C58.0577 436.127 58.8752 435.82 59.5652 435.205C60.2552 434.575 60.6002 433.81 60.6002 432.91V431.875H57.2027C55.3877 431.875 54.4802 432.595 54.4802 434.035C54.4802 434.68 54.7052 435.19 55.1552 435.565C55.6202 435.94 56.2727 436.127 57.1127 436.127ZM73.1697 437.5L70.3571 432.752H69.5471L66.6671 437.5H64.5746L68.1071 431.695L64.9346 426.16H66.9596L69.5696 430.66H70.3796L73.0346 426.16H75.0372L71.8196 431.627L75.3297 437.5H73.1697ZM80.3192 437.5H77.6192V426.16H79.4867V434.935H79.9817L84.9542 426.16H87.7442V437.5H85.8767V428.725H85.3817L80.3192 437.5ZM98.73 434.08H100.643C100.418 435.22 99.885 436.127 99.045 436.802C98.22 437.462 97.1625 437.793 95.8725 437.793C94.1625 437.793 92.8125 437.237 91.8225 436.127C90.8475 435.002 90.36 433.57 90.36 431.83C90.36 430.075 90.8475 428.642 91.8225 427.532C92.7975 426.422 94.1475 425.867 95.8725 425.867C97.1775 425.867 98.235 426.197 99.045 426.857C99.87 427.502 100.38 428.365 100.575 429.445H98.6625C98.2575 428.17 97.3275 427.532 95.8725 427.532C94.6575 427.532 93.75 427.937 93.15 428.747C92.565 429.542 92.2725 430.555 92.2725 431.785C92.2725 433.03 92.5725 434.065 93.1725 434.89C93.7725 435.715 94.6725 436.127 95.8725 436.127C97.4625 436.127 98.415 435.445 98.73 434.08ZM104.124 437.5H102.999V434.89H105.339V437.928L104.079 440.088H102.864L104.124 437.928V437.5ZM122.24 437.5L119.72 432.505H116.322V437.5H114.41V426.16H116.322V430.84H119.765L122.127 426.16H124.13L121.362 431.627L124.287 437.5H122.24ZM129.677 442H127.742L130.082 436.442L125.245 426.16H127.292L130.757 433.63H131.32L134.47 426.16H136.472L129.677 442ZM143.787 427.532C142.602 427.532 141.709 427.945 141.109 428.77C140.524 429.595 140.232 430.615 140.232 431.83C140.232 433.045 140.524 434.065 141.109 434.89C141.709 435.715 142.602 436.127 143.787 436.127C144.897 436.127 145.752 435.737 146.352 434.957C146.967 434.162 147.274 433.12 147.274 431.83C147.274 430.54 146.967 429.505 146.352 428.725C145.752 427.93 144.897 427.532 143.787 427.532ZM138.342 426.16H140.187V427.375H140.682C141.492 426.37 142.669 425.867 144.214 425.867C145.744 425.867 146.952 426.43 147.837 427.555C148.737 428.68 149.187 430.105 149.187 431.83C149.187 433.585 148.737 435.017 147.837 436.127C146.952 437.237 145.744 437.793 144.214 437.793C142.654 437.793 141.499 437.29 140.749 436.285H140.254V442H138.342V426.16ZM159.025 437.5V436.307H158.53C157.75 437.297 156.572 437.793 154.997 437.793C153.752 437.793 152.762 437.433 152.027 436.712C151.292 435.992 150.925 435.122 150.925 434.102C150.925 433.067 151.285 432.182 152.005 431.447C152.725 430.712 153.812 430.345 155.267 430.345H158.957V429.895C158.957 429.175 158.732 428.605 158.282 428.185C157.832 427.75 157.135 427.532 156.19 427.532C154.54 427.532 153.662 428.08 153.557 429.175H151.645C151.72 428.14 152.162 427.33 152.972 426.745C153.797 426.16 154.855 425.867 156.145 425.867C157.6 425.867 158.74 426.205 159.565 426.88C160.405 427.555 160.825 428.522 160.825 429.782V437.5H159.025ZM155.47 436.127C156.415 436.127 157.232 435.82 157.922 435.205C158.612 434.575 158.957 433.81 158.957 432.91V431.875H155.56C153.745 431.875 152.837 432.595 152.837 434.035C152.837 434.68 153.062 435.19 153.512 435.565C153.977 435.94 154.63 436.127 155.47 436.127ZM163.944 437.5V426.16H172.449V427.825H165.856V437.5H163.944ZM181.507 437.5V436.307H181.012C180.232 437.297 179.054 437.793 177.479 437.793C176.234 437.793 175.244 437.433 174.509 436.712C173.774 435.992 173.407 435.122 173.407 434.102C173.407 433.067 173.767 432.182 174.487 431.447C175.207 430.712 176.294 430.345 177.749 430.345H181.439V429.895C181.439 429.175 181.214 428.605 180.764 428.185C180.314 427.75 179.617 427.532 178.672 427.532C177.022 427.532 176.144 428.08 176.039 429.175H174.127C174.202 428.14 174.644 427.33 175.454 426.745C176.279 426.16 177.337 425.867 178.627 425.867C180.082 425.867 181.222 426.205 182.047 426.88C182.887 427.555 183.307 428.522 183.307 429.782V437.5H181.507ZM177.952 436.127C178.897 436.127 179.714 435.82 180.404 435.205C181.094 434.575 181.439 433.81 181.439 432.91V431.875H178.042C176.227 431.875 175.319 432.595 175.319 434.035C175.319 434.68 175.544 435.19 175.994 435.565C176.459 435.94 177.112 436.127 177.952 436.127ZM187.439 437.5H186.314V434.89H188.654V437.928L187.394 440.088H186.179L187.439 437.928V437.5ZM198.512 427.555C199.517 426.43 200.882 425.867 202.607 425.867C204.332 425.867 205.689 426.43 206.679 427.555C207.684 428.68 208.187 430.105 208.187 431.83C208.187 433.555 207.684 434.98 206.679 436.105C205.689 437.23 204.332 437.793 202.607 437.793C200.882 437.793 199.517 437.23 198.512 436.105C197.522 434.98 197.027 433.555 197.027 431.83C197.027 430.105 197.522 428.68 198.512 427.555ZM199.884 434.89C200.514 435.715 201.422 436.127 202.607 436.127C203.792 436.127 204.699 435.715 205.329 434.89C205.959 434.05 206.274 433.03 206.274 431.83C206.274 430.63 205.959 429.617 205.329 428.792C204.699 427.952 203.792 427.532 202.607 427.532C201.422 427.532 200.514 427.952 199.884 428.792C199.254 429.617 198.939 430.63 198.939 431.83C198.939 433.03 199.254 434.05 199.884 434.89ZM215.964 426.272C217.629 426.272 218.941 426.82 219.901 427.915C220.861 428.995 221.341 430.367 221.341 432.032C221.341 433.682 220.831 435.055 219.811 436.15C218.806 437.245 217.449 437.793 215.739 437.793C213.939 437.793 212.544 437.2 211.554 436.015C210.579 434.83 210.091 433.135 210.091 430.93C210.091 430.075 210.114 429.31 210.159 428.635C210.219 427.96 210.339 427.255 210.519 426.52C210.714 425.785 210.969 425.162 211.284 424.652C211.599 424.127 212.034 423.67 212.589 423.28C213.144 422.89 213.804 422.635 214.569 422.515L217.584 422.02C218.004 421.96 218.281 421.877 218.416 421.772C218.566 421.667 218.656 421.457 218.686 421.142H220.464C220.434 421.847 220.261 422.41 219.946 422.83C219.631 423.235 219.061 423.512 218.236 423.662L214.749 424.247C213.804 424.412 213.106 424.81 212.656 425.44C212.221 426.055 211.936 426.88 211.801 427.915H212.296C212.761 427.3 213.279 426.872 213.849 426.632C214.434 426.392 215.139 426.272 215.964 426.272ZM212.949 434.935C213.594 435.73 214.509 436.127 215.694 436.127C216.879 436.127 217.786 435.73 218.416 434.935C219.061 434.125 219.384 433.15 219.384 432.01C219.384 430.87 219.061 429.902 218.416 429.107C217.786 428.312 216.879 427.915 215.694 427.915C214.509 427.915 213.594 428.312 212.949 429.107C212.319 429.902 212.004 430.87 212.004 432.01C212.004 433.15 212.319 434.125 212.949 434.935ZM222.439 437.5V435.7H222.822C223.617 435.7 224.187 435.332 224.532 434.597C224.877 433.847 225.049 432.497 225.049 430.547V426.16H233.734V437.5H231.799V427.825H226.827V430.592C226.827 433.157 226.512 434.95 225.882 435.97C225.267 436.99 224.247 437.5 222.822 437.5H222.439ZM246.861 431.155V431.807H238.221C238.251 433.172 238.573 434.237 239.188 435.002C239.803 435.752 240.688 436.127 241.843 436.127C243.403 436.127 244.363 435.542 244.723 434.372H246.658C246.463 435.392 245.946 436.217 245.106 436.847C244.281 437.477 243.193 437.793 241.843 437.793C240.118 437.793 238.768 437.23 237.793 436.105C236.818 434.98 236.331 433.517 236.331 431.718C236.331 429.947 236.818 428.53 237.793 427.465C238.768 426.4 240.103 425.867 241.798 425.867C243.403 425.867 244.641 426.377 245.511 427.397C246.381 428.402 246.831 429.655 246.861 431.155ZM241.753 427.532C240.778 427.532 239.998 427.787 239.413 428.297C238.828 428.792 238.468 429.43 238.333 430.21H244.881C244.821 429.445 244.513 428.807 243.958 428.297C243.403 427.787 242.668 427.532 241.753 427.532ZM259.468 437.5H257.556V427.825H251.368V437.5H249.456V426.16H259.468V437.5ZM265.484 437.5H262.784V426.16H264.652V434.935H265.147L270.119 426.16H272.909V437.5H271.042V428.725H270.547L265.484 437.5ZM283.805 437.5L280.992 432.752H280.182L277.302 437.5H275.21L278.742 431.695L275.57 426.16H277.595L280.205 430.66H281.015L283.67 426.16H285.672L282.455 431.627L285.965 437.5H283.805ZM295.477 437.5V436.307H294.982C294.202 437.297 293.025 437.793 291.45 437.793C290.205 437.793 289.215 437.433 288.48 436.712C287.745 435.992 287.377 435.122 287.377 434.102C287.377 433.067 287.737 432.182 288.457 431.447C289.177 430.712 290.265 430.345 291.72 430.345H295.41V429.895C295.41 429.175 295.185 428.605 294.735 428.185C294.285 427.75 293.587 427.532 292.642 427.532C290.992 427.532 290.115 428.08 290.01 429.175H288.097C288.172 428.14 288.615 427.33 289.425 426.745C290.25 426.16 291.307 425.867 292.597 425.867C294.052 425.867 295.192 426.205 296.017 426.88C296.857 427.555 297.277 428.522 297.277 429.782V437.5H295.477ZM291.922 436.127C292.867 436.127 293.685 435.82 294.375 435.205C295.065 434.575 295.41 433.81 295.41 432.91V431.875H292.012C290.197 431.875 289.29 432.595 289.29 434.035C289.29 434.68 289.515 435.19 289.965 435.565C290.43 435.94 291.082 436.127 291.922 436.127ZM302.624 437.5H300.284V434.89H302.624V437.5Z" fill="black"/>
<path d="M75.4046 81.58V83.56C78.1046 84.82 80.2646 86.8 81.8846 89.5C83.5646 92.2 84.4046 95.17 84.4046 98.41C84.4046 103.81 82.5446 108.19 78.8246 111.55C75.1046 114.85 69.7046 116.5 62.6246 116.5H33.9146V52.24H61.9046C68.4446 52.24 73.4846 53.8 77.0246 56.92C80.6246 59.98 82.4246 63.85 82.4246 68.53C82.4246 74.71 80.0846 79.06 75.4046 81.58ZM42.0146 59.44V79.51H61.7246C70.0646 79.51 74.2346 76.09 74.2346 69.25C74.2346 65.89 73.0346 63.43 70.6346 61.87C68.2346 60.25 65.2046 59.44 61.5446 59.44H42.0146ZM42.0146 109.3H62.0846C66.2246 109.3 69.6146 108.43 72.2546 106.69C74.8946 104.89 76.2146 101.92 76.2146 97.78C76.2146 93.88 74.8946 91.06 72.2546 89.32C69.6746 87.52 66.3146 86.62 62.1746 86.62H42.0146V109.3ZM95.4901 52.24H103.41V106.69H105.39L135.27 52.24H147.96V116.5H140.04V62.05H138.06L108.18 116.5H95.4901V52.24ZM206.608 52.24V59.44H185.548V116.5H177.448V59.44H156.208V52.24H206.608ZM253.847 116.5L247.187 96.79H219.017L212.357 116.5H204.077L226.307 52.24H239.987L262.307 116.5H253.847ZM231.257 60.52L221.447 89.41H244.667L234.857 60.52H231.257ZM270.724 116.5V52.24H284.224L300.424 82.39H302.404L318.334 52.24H331.924V116.5H324.004V61.42H322.024L305.554 91.93H297.094L280.624 61.42H278.644V116.5H270.724ZM346.802 52.24H354.722V106.69H356.702L386.582 52.24H399.272V116.5H391.352V62.05H389.372L359.492 116.5H346.802V52.24ZM458.1 52.24H466.2V116.5H458.1V87.16H422.19V116.5H414.09V52.24H422.19V79.6H458.1V52.24ZM512.646 109.12H550.716V116.5H504.546V52.24H549.276V59.62H512.646V79.51H542.166V86.89H512.646V109.12Z" fill="black"/>
<path d="M29.8196 220.12H33.7796V247.345H34.7696L49.7096 220.12H56.0546V252.25H52.0946V225.025H51.1046L36.1646 252.25H29.8196V220.12ZM78.4038 245.41H82.2288C81.7788 247.69 80.7138 249.505 79.0338 250.855C77.3838 252.175 75.2688 252.835 72.6888 252.835C69.2688 252.835 66.5688 251.725 64.5888 249.505C62.6388 247.255 61.6638 244.39 61.6638 240.91C61.6638 237.4 62.6388 234.535 64.5888 232.315C66.5388 230.095 69.2388 228.985 72.6888 228.985C75.2988 228.985 77.4138 229.645 79.0338 230.965C80.6838 232.255 81.7038 233.98 82.0938 236.14H78.2688C77.4588 233.59 75.5988 232.315 72.6888 232.315C70.2588 232.315 68.4438 233.125 67.2438 234.745C66.0738 236.335 65.4888 238.36 65.4888 240.82C65.4888 243.31 66.0888 245.38 67.2888 247.03C68.4888 248.68 70.2888 249.505 72.6888 249.505C75.8688 249.505 77.7738 248.14 78.4038 245.41ZM84.8268 232.9V229.57H104.357V232.9H96.5268V252.25H92.7018V232.9H84.8268ZM109.862 232.36C111.872 230.11 114.602 228.985 118.052 228.985C121.502 228.985 124.217 230.11 126.197 232.36C128.207 234.61 129.212 237.46 129.212 240.91C129.212 244.36 128.207 247.21 126.197 249.46C124.217 251.71 121.502 252.835 118.052 252.835C114.602 252.835 111.872 251.71 109.862 249.46C107.882 247.21 106.892 244.36 106.892 240.91C106.892 237.46 107.882 234.61 109.862 232.36ZM112.607 247.03C113.867 248.68 115.682 249.505 118.052 249.505C120.422 249.505 122.237 248.68 123.497 247.03C124.757 245.35 125.387 243.31 125.387 240.91C125.387 238.51 124.757 236.485 123.497 234.835C122.237 233.155 120.422 232.315 118.052 232.315C115.682 232.315 113.867 233.155 112.607 234.835C111.347 236.485 110.717 238.51 110.717 240.91C110.717 243.31 111.347 245.35 112.607 247.03ZM133.111 229.57H136.936V235.96C136.936 236.68 136.981 237.25 137.071 237.67C137.161 238.06 137.371 238.51 137.701 239.02C138.031 239.53 138.601 239.905 139.411 240.145C140.251 240.385 141.331 240.505 142.651 240.505C144.631 240.505 146.521 240.31 148.321 239.92V229.57H152.191V252.25H148.321V243.295C146.311 243.715 144.151 243.925 141.841 243.925C140.251 243.925 138.886 243.775 137.746 243.475C136.636 243.145 135.781 242.77 135.181 242.35C134.611 241.9 134.161 241.3 133.831 240.55C133.501 239.8 133.291 239.125 133.201 238.525C133.141 237.925 133.111 237.175 133.111 236.275V229.57ZM178.641 252.25H174.816V242.26H162.261V252.25H158.436V229.57H162.261V238.93H174.816V229.57H178.641V252.25ZM190.669 252.25H185.269V229.57H189.004V247.12H189.994L199.939 229.57H205.519V252.25H201.784V234.7H200.794L190.669 252.25ZM227.806 252.25L222.766 242.26H215.971V252.25H212.146V229.57H215.971V238.93H222.856L227.581 229.57H231.586L226.051 240.505L231.901 252.25H227.806ZM241.961 252.25H236.561V229.57H240.296V247.12H241.286L251.231 229.57H256.811V252.25H253.076V234.7H252.086L241.961 252.25Z" fill="black"/>
</g>
<defs>
<clipPath id="clip0_1526_5342">
<rect width="842" height="595" fill="white" transform="translate(0.408203)"/>
</clipPath>
</defs>
</svg>
