<svg width="601" height="600" viewBox="0 0 601 600" fill="none" xmlns="http://www.w3.org/2000/svg">
<g clip-path="url(#clip0_1526_4925)">
<rect width="600" height="600" transform="translate(0.408203)" fill="white"/>
<path fill-rule="evenodd" clip-rule="evenodd" d="M568.458 27.8649C566.583 26.4915 564.319 25.7512 561.994 25.7516H548.876L539.606 70.2484H550.377L551.502 64.8406L552.001 65.4607C553.664 67.5292 555.928 69.0306 558.481 69.7577C561.033 70.4848 563.749 70.4019 566.252 69.5202C568.756 68.6386 570.924 67.0018 572.458 64.8356C573.992 62.6694 574.815 60.0807 574.815 57.4265C574.816 55.158 574.215 52.93 573.073 50.97C571.931 49.01 570.289 47.3882 568.315 46.2703L567.798 45.9774L568.284 45.6358C570.186 44.2993 571.612 42.3917 572.357 40.1897C573.101 37.9877 573.124 35.6058 572.423 33.3896C571.722 31.1735 570.333 29.2383 568.458 27.8649ZM575.567 57.4266C575.567 60.2363 574.695 62.9768 573.071 65.27C571.448 67.5631 569.152 69.2959 566.502 70.2292C563.852 71.1625 560.977 71.2503 558.275 70.4806C555.823 69.782 553.622 68.4084 551.92 66.5236L550.988 71H538.682L548.265 25L561.994 25C561.994 25 561.994 25 561.994 25C564.478 24.9996 566.898 25.7907 568.902 27.2585C570.906 28.7263 572.391 30.7945 573.14 33.1629C573.889 35.5314 573.864 38.077 573.069 40.4304C572.335 42.602 570.98 44.5057 569.178 45.9091C571.048 47.0755 572.609 48.6819 573.722 50.5916C574.931 52.6665 575.568 55.0252 575.567 57.4266Z" fill="black"/>
<path fill-rule="evenodd" clip-rule="evenodd" d="M551.057 36.6885C551.055 38.4435 551.477 40.1731 552.286 41.7306C553.094 43.2881 554.267 44.6277 555.703 45.6358L556.19 45.9775L555.673 46.2705C553.699 47.3883 552.057 49.01 550.915 50.97C549.772 52.93 549.171 55.158 549.172 57.4266L548.42 57.4268C548.419 55.0252 549.056 52.6665 550.265 50.5915C551.378 48.682 552.939 47.0757 554.809 45.9095C553.484 44.8782 552.395 43.5715 551.619 42.077C550.754 40.4122 550.304 38.5636 550.306 36.6877L551.057 36.6885Z" fill="black"/>
<path d="M50.6824 53.346V54.347C52.0474 54.984 53.1394 55.985 53.9584 57.35C54.8077 58.715 55.2324 60.2165 55.2324 61.8545C55.2324 64.5845 54.2921 66.7988 52.4114 68.4975C50.5307 70.1658 47.8007 71 44.2214 71H29.7069V38.513H43.8574C47.1637 38.513 49.7117 39.3017 51.5014 40.879C53.3214 42.426 54.2314 44.3825 54.2314 46.7485C54.2314 49.8728 53.0484 52.072 50.6824 53.346ZM33.8019 42.153V52.2995H43.7664C47.9827 52.2995 50.0909 50.5705 50.0909 47.1125C50.0909 45.4138 49.4842 44.1702 48.2709 43.3815C47.0576 42.5625 45.5257 42.153 43.6754 42.153H33.8019ZM33.8019 67.36H43.9484C46.0414 67.36 47.7552 66.9202 49.0899 66.0405C50.4246 65.1305 51.0919 63.629 51.0919 61.536C51.0919 59.5643 50.4246 58.1387 49.0899 57.259C47.7856 56.349 46.0869 55.894 43.9939 55.894H33.8019V67.36ZM60.8367 38.513H64.8407V66.0405H65.8417L80.9477 38.513H87.3632V71H83.3592V43.4725H82.3582L67.2522 71H60.8367V38.513ZM117.013 38.513V42.153H106.366V71H102.271V42.153H91.5332V38.513H117.013ZM140.895 71L137.528 61.0355H123.287L119.92 71H115.734L126.972 38.513H133.888L145.172 71H140.895ZM129.475 42.699L124.515 57.3045H136.254L131.295 42.699H129.475ZM149.427 71V38.513H156.252L164.442 53.7555H165.443L173.497 38.513H180.367V71H176.363V43.154H175.362L167.036 58.5785H162.759L154.432 43.154H153.431V71H149.427ZM187.889 38.513H191.893V66.0405H192.894L208 38.513H214.415V71H210.411V43.4725H209.41L194.304 71H187.889V38.513ZM244.156 38.513H248.251V71H244.156V56.167H226.002V71H221.907V38.513H226.002V52.345H244.156V38.513ZM271.732 67.269H290.979V71H267.637V38.513H290.251V42.244H271.732V52.2995H286.656V56.0305H271.732V67.269Z" fill="black"/>
<path d="M27.6594 100.578H40.8154V117H38.7454V102.464H29.7294V117H27.6594V100.578ZM45.2062 106.834C46.2336 105.684 47.6289 105.109 49.3922 105.109C51.1556 105.109 52.5432 105.684 53.5552 106.834C54.5826 107.984 55.0963 109.441 55.0963 111.204C55.0963 112.967 54.5826 114.424 53.5552 115.574C52.5432 116.724 51.1556 117.299 49.3922 117.299C47.6289 117.299 46.2336 116.724 45.2062 115.574C44.1942 114.424 43.6882 112.967 43.6882 111.204C43.6882 109.441 44.1942 107.984 45.2062 106.834ZM46.6092 114.332C47.2532 115.175 48.1809 115.597 49.3922 115.597C50.6036 115.597 51.5312 115.175 52.1752 114.332C52.8192 113.473 53.1412 112.431 53.1412 111.204C53.1412 109.977 52.8192 108.942 52.1752 108.099C51.5312 107.24 50.6036 106.811 49.3922 106.811C48.1809 106.811 47.2532 107.24 46.6092 108.099C45.9652 108.942 45.6432 109.977 45.6432 111.204C45.6432 112.431 45.9652 113.473 46.6092 114.332ZM65.5993 113.504H67.5543C67.3243 114.669 66.78 115.597 65.9213 116.287C65.078 116.962 63.997 117.299 62.6783 117.299C60.9303 117.299 59.5503 116.732 58.5383 115.597C57.5417 114.447 57.0433 112.983 57.0433 111.204C57.0433 109.41 57.5417 107.946 58.5383 106.811C59.535 105.676 60.915 105.109 62.6783 105.109C64.0123 105.109 65.0933 105.446 65.9213 106.121C66.7647 106.78 67.286 107.662 67.4853 108.766H65.5303C65.1163 107.463 64.1657 106.811 62.6783 106.811C61.4363 106.811 60.5087 107.225 59.8953 108.053C59.2973 108.866 58.9983 109.901 58.9983 111.158C58.9983 112.431 59.305 113.489 59.9183 114.332C60.5317 115.175 61.4517 115.597 62.6783 115.597C64.3037 115.597 65.2773 114.899 65.5993 113.504ZM78.0822 117L75.5062 111.894H72.0332V117H70.0782V105.408H72.0332V110.192H75.5522L77.9672 105.408H80.0142L77.1852 110.997L80.1752 117H78.0822ZM83.0254 106.834C84.0528 105.684 85.4481 105.109 87.2114 105.109C88.9748 105.109 90.3624 105.684 91.3744 106.834C92.4018 107.984 92.9154 109.441 92.9154 111.204C92.9154 112.967 92.4018 114.424 91.3744 115.574C90.3624 116.724 88.9748 117.299 87.2114 117.299C85.4481 117.299 84.0528 116.724 83.0254 115.574C82.0134 114.424 81.5074 112.967 81.5074 111.204C81.5074 109.441 82.0134 107.984 83.0254 106.834ZM84.4284 114.332C85.0724 115.175 86.0001 115.597 87.2114 115.597C88.4228 115.597 89.3504 115.175 89.9944 114.332C90.6384 113.473 90.9604 112.431 90.9604 111.204C90.9604 109.977 90.6384 108.942 89.9944 108.099C89.3504 107.24 88.4228 106.811 87.2114 106.811C86.0001 106.811 85.0724 107.24 84.4284 108.099C83.7844 108.942 83.4624 109.977 83.4624 111.204C83.4624 112.431 83.7844 113.473 84.4284 114.332ZM94.2645 117V115.16H94.6555C95.4682 115.16 96.0509 114.784 96.4035 114.033C96.7562 113.266 96.9325 111.886 96.9325 109.893V105.408H105.811V117H103.833V107.11H98.7495V109.939C98.7495 112.561 98.4275 114.393 97.7835 115.436C97.1549 116.479 96.1122 117 94.6555 117H94.2645ZM111.133 105.408V109.272H114.56C115.955 109.272 117.028 109.609 117.78 110.284C118.546 110.959 118.93 111.902 118.93 113.113C118.93 114.34 118.546 115.298 117.78 115.988C117.028 116.663 115.955 117 114.56 117H109.178V105.408H111.133ZM111.133 115.298H114.284C115.25 115.298 115.94 115.114 116.354 114.746C116.768 114.378 116.975 113.834 116.975 113.113C116.975 112.392 116.768 111.848 116.354 111.48C115.94 111.112 115.25 110.928 114.284 110.928H111.133V115.298ZM129.324 117L126.748 111.894H123.275V117H121.32V105.408H123.275V110.192H126.794L129.209 105.408H131.256L128.427 110.997L131.417 117H129.324ZM136.927 121.6H134.949L137.341 115.919L132.396 105.408H134.489L138.031 113.044H138.606L141.826 105.408H143.873L136.927 121.6ZM159.959 110.606V111.112C160.527 111.25 160.979 111.557 161.316 112.032C161.669 112.507 161.845 113.105 161.845 113.826C161.845 115.942 160.481 117 157.751 117H151.794V105.408H157.544C158.71 105.408 159.607 105.669 160.235 106.19C160.879 106.696 161.201 107.409 161.201 108.329C161.201 108.866 161.079 109.333 160.833 109.732C160.603 110.131 160.312 110.422 159.959 110.606ZM153.726 115.344H157.636C159.139 115.344 159.89 114.769 159.89 113.619C159.89 112.454 159.139 111.871 157.636 111.871H153.726V115.344ZM153.726 107.064V110.215H157.36C158.02 110.215 158.495 110.069 158.786 109.778C159.093 109.487 159.246 109.111 159.246 108.651C159.246 107.593 158.618 107.064 157.36 107.064H153.726ZM167.258 117H164.498V105.408H166.407V114.378H166.913L171.996 105.408H174.848V117H172.939V108.03H172.433L167.258 117ZM177.039 107.11V105.408H187.021V107.11H183.019V117H181.064V107.11H177.039ZM196.592 117V115.781H196.086C195.289 116.793 194.085 117.299 192.475 117.299C191.203 117.299 190.191 116.931 189.439 116.195C188.688 115.459 188.312 114.57 188.312 113.527C188.312 112.469 188.68 111.564 189.416 110.813C190.152 110.062 191.264 109.686 192.751 109.686H196.523V109.226C196.523 108.49 196.293 107.907 195.833 107.478C195.373 107.033 194.66 106.811 193.694 106.811C192.008 106.811 191.111 107.371 191.003 108.49H189.048C189.125 107.432 189.577 106.604 190.405 106.006C191.249 105.408 192.33 105.109 193.648 105.109C195.136 105.109 196.301 105.454 197.144 106.144C198.003 106.834 198.432 107.823 198.432 109.111V117H196.592ZM192.958 115.597C193.924 115.597 194.76 115.283 195.465 114.654C196.171 114.01 196.523 113.228 196.523 112.308V111.25H193.05C191.195 111.25 190.267 111.986 190.267 113.458C190.267 114.117 190.497 114.639 190.957 115.022C191.433 115.405 192.1 115.597 192.958 115.597ZM201.621 117V105.408H204.726L207.578 110.698H208.084L210.936 105.408H213.995V117H212.086V107.685H211.58L208.889 112.653H206.727L204.036 107.685H203.53V117H201.621ZM220.139 117H217.379V105.408H219.288V114.378H219.794L224.877 105.408H227.729V117H225.82V108.03H225.314L220.139 117ZM241.443 117H239.488V111.894H233.071V117H231.116V105.408H233.071V110.192H239.488V105.408H241.443V117ZM253.118 115.114H262.847V117H251.048V100.578H262.479V102.464H253.118V107.547H260.662V109.433H253.118V115.114ZM274.753 111.917L272.522 117H270.475L273.097 111.043L270.636 105.408H272.66L274.753 110.215H277.72V105.408H279.606V110.215H282.573L284.666 105.408H286.69L284.229 111.043L286.874 117H284.804L282.573 111.917H279.606V117H277.72V111.917H274.753ZM292.004 117H289.244V105.408H291.153V114.378H291.659L296.742 105.408H299.594V117H297.685V108.03H297.179L292.004 117ZM308.547 106.811C307.336 106.811 306.424 107.233 305.81 108.076C305.212 108.919 304.913 109.962 304.913 111.204C304.913 112.446 305.212 113.489 305.81 114.332C306.424 115.175 307.336 115.597 308.547 115.597C309.682 115.597 310.556 115.198 311.169 114.401C311.798 113.588 312.112 112.523 312.112 111.204C312.112 109.885 311.798 108.827 311.169 108.03C310.556 107.217 309.682 106.811 308.547 106.811ZM302.981 105.408H304.867V106.65H305.373C306.201 105.623 307.405 105.109 308.984 105.109C310.548 105.109 311.783 105.684 312.687 106.834C313.607 107.984 314.067 109.441 314.067 111.204C314.067 112.998 313.607 114.462 312.687 115.597C311.783 116.732 310.548 117.299 308.984 117.299C307.39 117.299 306.209 116.785 305.442 115.758H304.936V121.6H302.981V105.408ZM317.546 106.834C318.573 105.684 319.968 105.109 321.732 105.109C323.495 105.109 324.883 105.684 325.895 106.834C326.922 107.984 327.436 109.441 327.436 111.204C327.436 112.967 326.922 114.424 325.895 115.574C324.883 116.724 323.495 117.299 321.732 117.299C319.968 117.299 318.573 116.724 317.546 115.574C316.534 114.424 316.028 112.967 316.028 111.204C316.028 109.441 316.534 107.984 317.546 106.834ZM318.949 114.332C319.593 115.175 320.52 115.597 321.732 115.597C322.943 115.597 323.871 115.175 324.515 114.332C325.159 113.473 325.481 112.431 325.481 111.204C325.481 109.977 325.159 108.942 324.515 108.099C323.871 107.24 322.943 106.811 321.732 106.811C320.52 106.811 319.593 107.24 318.949 108.099C318.305 108.942 317.983 109.977 317.983 111.204C317.983 112.431 318.305 113.473 318.949 114.332ZM335.662 106.811C334.45 106.811 333.538 107.233 332.925 108.076C332.327 108.919 332.028 109.962 332.028 111.204C332.028 112.446 332.327 113.489 332.925 114.332C333.538 115.175 334.45 115.597 335.662 115.597C336.796 115.597 337.67 115.198 338.284 114.401C338.912 113.588 339.227 112.523 339.227 111.204C339.227 109.885 338.912 108.827 338.284 108.03C337.67 107.217 336.796 106.811 335.662 106.811ZM330.096 105.408H331.982V106.65H332.488C333.316 105.623 334.519 105.109 336.099 105.109C337.663 105.109 338.897 105.684 339.802 106.834C340.722 107.984 341.182 109.441 341.182 111.204C341.182 112.998 340.722 114.462 339.802 115.597C338.897 116.732 337.663 117.299 336.099 117.299C334.504 117.299 333.323 116.785 332.557 115.758H332.051V121.6H330.096V105.408ZM351.238 117V115.781H350.732C349.935 116.793 348.731 117.299 347.121 117.299C345.848 117.299 344.836 116.931 344.085 116.195C343.334 115.459 342.958 114.57 342.958 113.527C342.958 112.469 343.326 111.564 344.062 110.813C344.798 110.062 345.91 109.686 347.397 109.686H351.169V109.226C351.169 108.49 350.939 107.907 350.479 107.478C350.019 107.033 349.306 106.811 348.34 106.811C346.653 106.811 345.756 107.371 345.649 108.49H343.694C343.771 107.432 344.223 106.604 345.051 106.006C345.894 105.408 346.975 105.109 348.294 105.109C349.781 105.109 350.947 105.454 351.79 106.144C352.649 106.834 353.078 107.823 353.078 109.111V117H351.238ZM347.604 115.597C348.57 115.597 349.406 115.283 350.111 114.654C350.816 114.01 351.169 113.228 351.169 112.308V111.25H347.696C345.841 111.25 344.913 111.986 344.913 113.458C344.913 114.117 345.143 114.639 345.603 115.022C346.078 115.405 346.745 115.597 347.604 115.597ZM364.11 113.504H366.065C365.835 114.669 365.291 115.597 364.432 116.287C363.589 116.962 362.508 117.299 361.189 117.299C359.441 117.299 358.061 116.732 357.049 115.597C356.052 114.447 355.554 112.983 355.554 111.204C355.554 109.41 356.052 107.946 357.049 106.811C358.046 105.676 359.426 105.109 361.189 105.109C362.523 105.109 363.604 105.446 364.432 106.121C365.275 106.78 365.797 107.662 365.996 108.766H364.041C363.627 107.463 362.676 106.811 361.189 106.811C359.947 106.811 359.019 107.225 358.406 108.053C357.808 108.866 357.509 109.901 357.509 111.158C357.509 112.431 357.816 113.489 358.429 114.332C359.042 115.175 359.962 115.597 361.189 115.597C362.814 115.597 363.788 114.899 364.11 113.504ZM367.393 107.11V105.408H377.375V107.11H373.373V117H371.418V107.11H367.393ZM387.728 110.606V111.112C388.295 111.25 388.748 111.557 389.085 112.032C389.438 112.507 389.614 113.105 389.614 113.826C389.614 115.942 388.249 117 385.52 117H379.563V105.408H385.313C386.478 105.408 387.375 105.669 388.004 106.19C388.648 106.696 388.97 107.409 388.97 108.329C388.97 108.866 388.847 109.333 388.602 109.732C388.372 110.131 388.081 110.422 387.728 110.606ZM381.495 115.344H385.405C386.908 115.344 387.659 114.769 387.659 113.619C387.659 112.454 386.908 111.871 385.405 111.871H381.495V115.344ZM381.495 107.064V110.215H385.129C385.788 110.215 386.264 110.069 386.555 109.778C386.862 109.487 387.015 109.111 387.015 108.651C387.015 107.593 386.386 107.064 385.129 107.064H381.495ZM393.072 106.834C394.099 105.684 395.494 105.109 397.258 105.109C399.021 105.109 400.409 105.684 401.421 106.834C402.448 107.984 402.962 109.441 402.962 111.204C402.962 112.967 402.448 114.424 401.421 115.574C400.409 116.724 399.021 117.299 397.258 117.299C395.494 117.299 394.099 116.724 393.072 115.574C392.06 114.424 391.554 112.967 391.554 111.204C391.554 109.441 392.06 107.984 393.072 106.834ZM394.475 114.332C395.119 115.175 396.046 115.597 397.258 115.597C398.469 115.597 399.397 115.175 400.041 114.332C400.685 113.473 401.007 112.431 401.007 111.204C401.007 109.977 400.685 108.942 400.041 108.099C399.397 107.24 398.469 106.811 397.258 106.811C396.046 106.811 395.119 107.24 394.475 108.099C393.831 108.942 393.509 109.977 393.509 111.204C393.509 112.431 393.831 113.473 394.475 114.332ZM411.188 106.811C409.976 106.811 409.064 107.233 408.451 108.076C407.853 108.919 407.554 109.962 407.554 111.204C407.554 112.446 407.853 113.489 408.451 114.332C409.064 115.175 409.976 115.597 411.188 115.597C412.322 115.597 413.196 115.198 413.81 114.401C414.438 113.588 414.753 112.523 414.753 111.204C414.753 109.885 414.438 108.827 413.81 108.03C413.196 107.217 412.322 106.811 411.188 106.811ZM405.622 105.408H407.508V106.65H408.014C408.842 105.623 410.045 105.109 411.625 105.109C413.189 105.109 414.423 105.684 415.328 106.834C416.248 107.984 416.708 109.441 416.708 111.204C416.708 112.998 416.248 114.462 415.328 115.597C414.423 116.732 413.189 117.299 411.625 117.299C410.03 117.299 408.849 116.785 408.083 115.758H407.577V121.6H405.622V105.408ZM422.141 117H419.381V105.408H421.29V114.378H421.796L426.879 105.408H429.731V117H427.822V108.03H427.316L422.141 117ZM433.118 117V105.408H436.223L439.075 110.698H439.581L442.433 105.408H445.492V117H443.583V107.685H443.077L440.386 112.653H438.224L435.533 107.685H435.027V117H433.118ZM449.912 117H448.762V114.332H451.154V117.437L449.866 119.645H448.624L449.912 117.437V117ZM35.6174 138.606V139.112C36.1847 139.25 36.6371 139.557 36.9744 140.032C37.3271 140.507 37.5034 141.105 37.5034 141.826C37.5034 143.942 36.1387 145 33.4094 145H27.4524V133.408H33.2024C34.3677 133.408 35.2647 133.669 35.8934 134.19C36.5374 134.696 36.8594 135.409 36.8594 136.329C36.8594 136.866 36.7367 137.333 36.4914 137.732C36.2614 138.131 35.9701 138.422 35.6174 138.606ZM29.3844 143.344H33.2944C34.7971 143.344 35.5484 142.769 35.5484 141.619C35.5484 140.454 34.7971 139.871 33.2944 139.871H29.3844V143.344ZM29.3844 135.064V138.215H33.0184C33.6777 138.215 34.1531 138.069 34.4444 137.778C34.7511 137.487 34.9044 137.111 34.9044 136.651C34.9044 135.593 34.2757 135.064 33.0184 135.064H29.3844ZM46.9715 134.834C47.9988 133.684 49.3942 133.109 51.1575 133.109C52.9208 133.109 54.3085 133.684 55.3205 134.834C56.3478 135.984 56.8615 137.441 56.8615 139.204C56.8615 140.967 56.3478 142.424 55.3205 143.574C54.3085 144.724 52.9208 145.299 51.1575 145.299C49.3942 145.299 47.9988 144.724 46.9715 143.574C45.9595 142.424 45.4535 140.967 45.4535 139.204C45.4535 137.441 45.9595 135.984 46.9715 134.834ZM48.3745 142.332C49.0185 143.175 49.9462 143.597 51.1575 143.597C52.3688 143.597 53.2965 143.175 53.9405 142.332C54.5845 141.473 54.9065 140.431 54.9065 139.204C54.9065 137.977 54.5845 136.942 53.9405 136.099C53.2965 135.24 52.3688 134.811 51.1575 134.811C49.9462 134.811 49.0185 135.24 48.3745 136.099C47.7305 136.942 47.4085 137.977 47.4085 139.204C47.4085 140.431 47.7305 141.473 48.3745 142.332ZM67.3646 141.504H69.3196C69.0896 142.669 68.5453 143.597 67.6866 144.287C66.8433 144.962 65.7623 145.299 64.4436 145.299C62.6956 145.299 61.3156 144.732 60.3036 143.597C59.3069 142.447 58.8086 140.983 58.8086 139.204C58.8086 137.41 59.3069 135.946 60.3036 134.811C61.3003 133.676 62.6803 133.109 64.4436 133.109C65.7776 133.109 66.8586 133.446 67.6866 134.121C68.5299 134.78 69.0513 135.662 69.2506 136.766H67.2956C66.8816 135.463 65.9309 134.811 64.4436 134.811C63.2016 134.811 62.2739 135.225 61.6606 136.053C61.0626 136.866 60.7636 137.901 60.7636 139.158C60.7636 140.431 61.0703 141.489 61.6836 142.332C62.2969 143.175 63.2169 143.597 64.4436 143.597C66.0689 143.597 67.0426 142.899 67.3646 141.504ZM82.1705 145H80.2155V139.894H73.7985V145H71.8435V133.408H73.7985V138.192H80.2155V133.408H82.1705V145ZM86.363 134.834C87.3903 133.684 88.7856 133.109 90.549 133.109C92.3123 133.109 93.7 133.684 94.712 134.834C95.7393 135.984 96.253 137.441 96.253 139.204C96.253 140.967 95.7393 142.424 94.712 143.574C93.7 144.724 92.3123 145.299 90.549 145.299C88.7856 145.299 87.3903 144.724 86.363 143.574C85.351 142.424 84.845 140.967 84.845 139.204C84.845 137.441 85.351 135.984 86.363 134.834ZM87.766 142.332C88.41 143.175 89.3376 143.597 90.549 143.597C91.7603 143.597 92.688 143.175 93.332 142.332C93.976 141.473 94.298 140.431 94.298 139.204C94.298 137.977 93.976 136.942 93.332 136.099C92.688 135.24 91.7603 134.811 90.549 134.811C89.3376 134.811 88.41 135.24 87.766 136.099C87.122 136.942 86.8 137.977 86.8 139.204C86.8 140.431 87.122 141.473 87.766 142.332ZM107.078 138.606V139.112C107.645 139.25 108.098 139.557 108.435 140.032C108.788 140.507 108.964 141.105 108.964 141.826C108.964 143.942 107.599 145 104.87 145H98.913V133.408H104.663C105.828 133.408 106.725 133.669 107.354 134.19C107.998 134.696 108.32 135.409 108.32 136.329C108.32 136.866 108.197 137.333 107.952 137.732C107.722 138.131 107.431 138.422 107.078 138.606ZM100.845 143.344H104.755C106.258 143.344 107.009 142.769 107.009 141.619C107.009 140.454 106.258 139.871 104.755 139.871H100.845V143.344ZM100.845 135.064V138.215H104.479C105.138 138.215 105.614 138.069 105.905 137.778C106.212 137.487 106.365 137.111 106.365 136.651C106.365 135.593 105.736 135.064 104.479 135.064H100.845ZM121.944 145H119.989V139.894H113.572V145H111.617V133.408H113.572V138.192H119.989V133.408H121.944V145ZM126.136 134.834C127.164 133.684 128.559 133.109 130.322 133.109C132.086 133.109 133.473 133.684 134.485 134.834C135.513 135.984 136.026 137.441 136.026 139.204C136.026 140.967 135.513 142.424 134.485 143.574C133.473 144.724 132.086 145.299 130.322 145.299C128.559 145.299 127.164 144.724 126.136 143.574C125.124 142.424 124.618 140.967 124.618 139.204C124.618 137.441 125.124 135.984 126.136 134.834ZM127.539 142.332C128.183 143.175 129.111 143.597 130.322 143.597C131.534 143.597 132.461 143.175 133.105 142.332C133.749 141.473 134.071 140.431 134.071 139.204C134.071 137.977 133.749 136.942 133.105 136.099C132.461 135.24 131.534 134.811 130.322 134.811C129.111 134.811 128.183 135.24 127.539 136.099C126.895 136.942 126.573 137.977 126.573 139.204C126.573 140.431 126.895 141.473 127.539 142.332ZM138.686 145V133.408H141.791L144.643 138.698H145.149L148.001 133.408H151.06V145H149.151V135.685H148.645L145.954 140.653H143.792L141.101 135.685H140.595V145H138.686ZM161.26 134.834C162.287 133.684 163.683 133.109 165.446 133.109C167.209 133.109 168.597 133.684 169.609 134.834C170.636 135.984 171.15 137.441 171.15 139.204C171.15 140.967 170.636 142.424 169.609 143.574C168.597 144.724 167.209 145.299 165.446 145.299C163.683 145.299 162.287 144.724 161.26 143.574C160.248 142.424 159.742 140.967 159.742 139.204C159.742 137.441 160.248 135.984 161.26 134.834ZM162.663 142.332C163.307 143.175 164.235 143.597 165.446 143.597C166.657 143.597 167.585 143.175 168.229 142.332C168.873 141.473 169.195 140.431 169.195 139.204C169.195 137.977 168.873 136.942 168.229 136.099C167.585 135.24 166.657 134.811 165.446 134.811C164.235 134.811 163.307 135.24 162.663 136.099C162.019 136.942 161.697 137.977 161.697 139.204C161.697 140.431 162.019 141.473 162.663 142.332ZM184.137 145H182.182V139.894H175.765V145H173.81V133.408H175.765V138.192H182.182V133.408H184.137V145ZM201.378 141.504H203.333C203.103 142.669 202.559 143.597 201.7 144.287C200.857 144.962 199.776 145.299 198.457 145.299C196.709 145.299 195.329 144.732 194.317 143.597C193.32 142.447 192.822 140.983 192.822 139.204C192.822 137.41 193.32 135.946 194.317 134.811C195.314 133.676 196.694 133.109 198.457 133.109C199.791 133.109 200.872 133.446 201.7 134.121C202.543 134.78 203.065 135.662 203.264 136.766H201.309C200.895 135.463 199.944 134.811 198.457 134.811C197.215 134.811 196.287 135.225 195.674 136.053C195.076 136.866 194.777 137.901 194.777 139.158C194.777 140.431 195.084 141.489 195.697 142.332C196.31 143.175 197.23 143.597 198.457 143.597C200.082 143.597 201.056 142.899 201.378 141.504ZM206.662 134.834C207.689 133.684 209.085 133.109 210.848 133.109C212.611 133.109 213.999 133.684 215.011 134.834C216.038 135.984 216.552 137.441 216.552 139.204C216.552 140.967 216.038 142.424 215.011 143.574C213.999 144.724 212.611 145.299 210.848 145.299C209.085 145.299 207.689 144.724 206.662 143.574C205.65 142.424 205.144 140.967 205.144 139.204C205.144 137.441 205.65 135.984 206.662 134.834ZM208.065 142.332C208.709 143.175 209.637 143.597 210.848 143.597C212.059 143.597 212.987 143.175 213.631 142.332C214.275 141.473 214.597 140.431 214.597 139.204C214.597 137.977 214.275 136.942 213.631 136.099C212.987 135.24 212.059 134.811 210.848 134.811C209.637 134.811 208.709 135.24 208.065 136.099C207.421 136.942 207.099 137.977 207.099 139.204C207.099 140.431 207.421 141.473 208.065 142.332ZM229.539 143.298H231.678V148.289H229.769V145H219.741V148.289H217.832V143.298H219.373C220.324 141.274 220.799 139.035 220.799 136.582V133.408H229.539V143.298ZM227.584 143.298V135.11H222.616V136.582C222.616 139.204 222.194 141.443 221.351 143.298H227.584ZM243.876 138.514V139.181H235.044C235.075 140.576 235.404 141.665 236.033 142.447C236.662 143.214 237.566 143.597 238.747 143.597C240.342 143.597 241.323 142.999 241.691 141.803H243.669C243.47 142.846 242.941 143.689 242.082 144.333C241.239 144.977 240.127 145.299 238.747 145.299C236.984 145.299 235.604 144.724 234.607 143.574C233.61 142.424 233.112 140.929 233.112 139.089C233.112 137.28 233.61 135.831 234.607 134.742C235.604 133.653 236.968 133.109 238.701 133.109C240.342 133.109 241.607 133.63 242.496 134.673C243.385 135.7 243.845 136.981 243.876 138.514ZM238.655 134.811C237.658 134.811 236.861 135.072 236.263 135.593C235.665 136.099 235.297 136.751 235.159 137.548H241.852C241.791 136.766 241.476 136.114 240.909 135.593C240.342 135.072 239.59 134.811 238.655 134.811ZM252.095 134.811C250.883 134.811 249.971 135.233 249.358 136.076C248.76 136.919 248.461 137.962 248.461 139.204C248.461 140.446 248.76 141.489 249.358 142.332C249.971 143.175 250.883 143.597 252.095 143.597C253.229 143.597 254.103 143.198 254.717 142.401C255.345 141.588 255.66 140.523 255.66 139.204C255.66 137.885 255.345 136.827 254.717 136.03C254.103 135.217 253.229 134.811 252.095 134.811ZM246.529 133.408H248.415V134.65H248.921C249.749 133.623 250.952 133.109 252.532 133.109C254.096 133.109 255.33 133.684 256.235 134.834C257.155 135.984 257.615 137.441 257.615 139.204C257.615 140.998 257.155 142.462 256.235 143.597C255.33 144.732 254.096 145.299 252.532 145.299C250.937 145.299 249.756 144.785 248.99 143.758H248.484V149.6H246.529V133.408ZM263.577 139.917L261.346 145H259.299L261.921 139.043L259.46 133.408H261.484L263.577 138.215H266.544V133.408H268.43V138.215H271.397L273.49 133.408H275.514L273.053 139.043L275.698 145H273.628L271.397 139.917H268.43V145H266.544V139.917H263.577ZM280.828 145H278.068V133.408H279.977V142.378H280.483L285.566 133.408H288.418V145H286.509V136.03H286.003L280.828 145ZM290.609 135.11V133.408H300.591V135.11H296.589V145H294.634V135.11H290.609ZM310.442 141.504H312.397C312.167 142.669 311.623 143.597 310.764 144.287C309.921 144.962 308.84 145.299 307.521 145.299C305.773 145.299 304.393 144.732 303.381 143.597C302.385 142.447 301.886 140.983 301.886 139.204C301.886 137.41 302.385 135.946 303.381 134.811C304.378 133.676 305.758 133.109 307.521 133.109C308.855 133.109 309.936 133.446 310.764 134.121C311.608 134.78 312.129 135.662 312.328 136.766H310.373C309.959 135.463 309.009 134.811 307.521 134.811C306.279 134.811 305.352 135.225 304.738 136.053C304.14 136.866 303.841 137.901 303.841 139.158C303.841 140.431 304.148 141.489 304.761 142.332C305.375 143.175 306.295 143.597 307.521 143.597C309.147 143.597 310.12 142.899 310.442 141.504ZM318.67 133.408H324.443V145H322.465V140.423H318.946C318.64 140.423 318.402 140.415 318.233 140.4L316.485 145H314.438L316.393 139.963C315.197 139.396 314.599 138.384 314.599 136.927C314.599 135.808 314.944 134.941 315.634 134.328C316.34 133.715 317.352 133.408 318.67 133.408ZM322.465 135.064H318.877C318.034 135.064 317.436 135.225 317.083 135.547C316.731 135.869 316.554 136.337 316.554 136.95C316.554 137.548 316.731 138 317.083 138.307C317.436 138.614 318.034 138.767 318.877 138.767H322.465V135.064ZM341.98 138.606V139.112C342.547 139.25 343 139.557 343.337 140.032C343.69 140.507 343.866 141.105 343.866 141.826C343.866 143.942 342.501 145 339.772 145H333.815V133.408H339.565C340.73 133.408 341.627 133.669 342.256 134.19C342.9 134.696 343.222 135.409 343.222 136.329C343.222 136.866 343.099 137.333 342.854 137.732C342.624 138.131 342.333 138.422 341.98 138.606ZM335.747 143.344H339.657C341.16 143.344 341.911 142.769 341.911 141.619C341.911 140.454 341.16 139.871 339.657 139.871H335.747V143.344ZM335.747 135.064V138.215H339.381C340.04 138.215 340.516 138.069 340.807 137.778C341.114 137.487 341.267 137.111 341.267 136.651C341.267 135.593 340.638 135.064 339.381 135.064H335.747ZM355.818 139.917L353.587 145H351.54L354.162 139.043L351.701 133.408H353.725L355.818 138.215H358.785V133.408H360.671V138.215H363.638L365.731 133.408H367.755L365.294 139.043L367.939 145H365.869L363.638 139.917H360.671V145H358.785V139.917H355.818ZM373.069 145H370.309V133.408H372.218V142.378H372.724L377.807 133.408H380.659V145H378.75V136.03H378.244L373.069 145ZM389.612 134.811C388.401 134.811 387.488 135.233 386.875 136.076C386.277 136.919 385.978 137.962 385.978 139.204C385.978 140.446 386.277 141.489 386.875 142.332C387.488 143.175 388.401 143.597 389.612 143.597C390.747 143.597 391.621 143.198 392.234 142.401C392.863 141.588 393.177 140.523 393.177 139.204C393.177 137.885 392.863 136.827 392.234 136.03C391.621 135.217 390.747 134.811 389.612 134.811ZM384.046 133.408H385.932V134.65H386.438C387.266 133.623 388.47 133.109 390.049 133.109C391.613 133.109 392.847 133.684 393.752 134.834C394.672 135.984 395.132 137.441 395.132 139.204C395.132 140.998 394.672 142.462 393.752 143.597C392.847 144.732 391.613 145.299 390.049 145.299C388.454 145.299 387.274 144.785 386.507 143.758H386.001V149.6H384.046V133.408ZM405.188 145V143.781H404.682C403.885 144.793 402.681 145.299 401.071 145.299C399.799 145.299 398.787 144.931 398.035 144.195C397.284 143.459 396.908 142.57 396.908 141.527C396.908 140.469 397.276 139.564 398.012 138.813C398.748 138.062 399.86 137.686 401.347 137.686H405.119V137.226C405.119 136.49 404.889 135.907 404.429 135.478C403.969 135.033 403.256 134.811 402.29 134.811C400.604 134.811 399.707 135.371 399.599 136.49H397.644C397.721 135.432 398.173 134.604 399.001 134.006C399.845 133.408 400.926 133.109 402.244 133.109C403.732 133.109 404.897 133.454 405.74 134.144C406.599 134.834 407.028 135.823 407.028 137.111V145H405.188ZM401.554 143.597C402.52 143.597 403.356 143.283 404.061 142.654C404.767 142.01 405.119 141.228 405.119 140.308V139.25H401.646C399.791 139.25 398.863 139.986 398.863 141.458C398.863 142.117 399.093 142.639 399.553 143.022C400.029 143.405 400.696 143.597 401.554 143.597ZM417.968 145L415.093 140.147H414.265L411.321 145H409.182L412.793 139.066L409.55 133.408H411.62L414.288 138.008H415.116L417.83 133.408H419.877L416.588 138.997L420.176 145H417.968ZM423.552 145H422.402V142.332H424.794V145.437L423.506 147.645H422.264L423.552 145.437V145ZM34.8354 173V171.781H34.3294C33.5321 172.793 32.3284 173.299 30.7184 173.299C29.4457 173.299 28.4337 172.931 27.6824 172.195C26.9311 171.459 26.5554 170.57 26.5554 169.527C26.5554 168.469 26.9234 167.564 27.6594 166.813C28.3954 166.062 29.5071 165.686 30.9944 165.686H34.7664V165.226C34.7664 164.49 34.5364 163.907 34.0764 163.478C33.6164 163.033 32.9034 162.811 31.9374 162.811C30.2507 162.811 29.3537 163.371 29.2464 164.49H27.2914C27.3681 163.432 27.8204 162.604 28.6484 162.006C29.4917 161.408 30.5727 161.109 31.8914 161.109C33.3787 161.109 34.5441 161.454 35.3874 162.144C36.2461 162.834 36.6754 163.823 36.6754 165.111V173H34.8354ZM31.2014 171.597C32.1674 171.597 33.0031 171.283 33.7084 170.654C34.4137 170.01 34.7664 169.228 34.7664 168.308V167.25H31.2934C29.4381 167.25 28.5104 167.986 28.5104 169.458C28.5104 170.117 28.7404 170.639 29.2004 171.022C29.6757 171.405 30.3427 171.597 31.2014 171.597ZM53.7175 169.504H55.6725C55.4425 170.669 54.8982 171.597 54.0395 172.287C53.1962 172.962 52.1152 173.299 50.7965 173.299C49.0485 173.299 47.6685 172.732 46.6565 171.597C45.6598 170.447 45.1615 168.983 45.1615 167.204C45.1615 165.41 45.6598 163.946 46.6565 162.811C47.6532 161.676 49.0332 161.109 50.7965 161.109C52.1305 161.109 53.2115 161.446 54.0395 162.121C54.8828 162.78 55.4042 163.662 55.6035 164.766H53.6485C53.2345 163.463 52.2838 162.811 50.7965 162.811C49.5545 162.811 48.6268 163.225 48.0135 164.053C47.4155 164.866 47.1165 165.901 47.1165 167.158C47.1165 168.431 47.4232 169.489 48.0365 170.332C48.6498 171.175 49.5698 171.597 50.7965 171.597C52.4218 171.597 53.3955 170.899 53.7175 169.504ZM65.5794 173V171.781H65.0734C64.2761 172.793 63.0724 173.299 61.4624 173.299C60.1897 173.299 59.1777 172.931 58.4264 172.195C57.6751 171.459 57.2994 170.57 57.2994 169.527C57.2994 168.469 57.6674 167.564 58.4034 166.813C59.1394 166.062 60.2511 165.686 61.7384 165.686H65.5104V165.226C65.5104 164.49 65.2804 163.907 64.8204 163.478C64.3604 163.033 63.6474 162.811 62.6814 162.811C60.9947 162.811 60.0977 163.371 59.9904 164.49H58.0354C58.1121 163.432 58.5644 162.604 59.3924 162.006C60.2357 161.408 61.3167 161.109 62.6354 161.109C64.1227 161.109 65.2881 161.454 66.1314 162.144C66.9901 162.834 67.4194 163.823 67.4194 165.111V173H65.5794ZM61.9454 171.597C62.9114 171.597 63.7471 171.283 64.4524 170.654C65.1577 170.01 65.5104 169.228 65.5104 168.308V167.25H62.0374C60.1821 167.25 59.2544 167.986 59.2544 169.458C59.2544 170.117 59.4844 170.639 59.9444 171.022C60.4197 171.405 61.0867 171.597 61.9454 171.597ZM70.6081 173V161.408H73.7131L76.5651 166.698H77.0711L79.9231 161.408H82.9821V173H81.0731V163.685H80.5671L77.8761 168.653H75.7141L73.0231 163.685H72.5171V173H70.6081ZM86.3665 161.408H88.3215V165.272H91.5185C92.9139 165.272 93.9872 165.609 94.7385 166.284C95.5052 166.959 95.8885 167.902 95.8885 169.113C95.8885 170.34 95.5052 171.298 94.7385 171.988C93.9872 172.663 92.9139 173 91.5185 173H86.3665V161.408ZM88.3215 166.928V171.298H91.2425C92.2085 171.298 92.8985 171.114 93.3125 170.746C93.7265 170.378 93.9335 169.834 93.9335 169.113C93.9335 168.392 93.7265 167.848 93.3125 167.48C92.8985 167.112 92.2085 166.928 91.2425 166.928H88.3215ZM97.7515 161.408H99.7065V173H97.7515V161.408ZM103.091 173V161.408H106.196L109.048 166.698H109.554L112.406 161.408H115.465V173H113.556V163.685H113.05L110.359 168.653H108.197L105.506 163.685H105V173H103.091ZM121.609 173H118.849V161.408H120.758V170.378H121.264L126.347 161.408H129.199V173H127.29V164.03H126.784L121.609 173ZM143.886 161.523C145.588 161.523 146.93 162.083 147.911 163.202C148.893 164.306 149.383 165.709 149.383 167.411C149.383 169.098 148.862 170.501 147.819 171.62C146.792 172.739 145.404 173.299 143.656 173.299C141.816 173.299 140.39 172.693 139.378 171.482C138.382 170.271 137.883 168.538 137.883 166.284C137.883 165.41 137.906 164.628 137.952 163.938C138.014 163.248 138.136 162.527 138.32 161.776C138.52 161.025 138.78 160.388 139.102 159.867C139.424 159.33 139.869 158.863 140.436 158.464C141.004 158.065 141.678 157.805 142.46 157.682L145.542 157.176C145.972 157.115 146.255 157.03 146.393 156.923C146.547 156.816 146.639 156.601 146.669 156.279H148.486C148.456 157 148.279 157.575 147.957 158.004C147.635 158.418 147.053 158.702 146.209 158.855L142.644 159.453C141.678 159.622 140.965 160.028 140.505 160.672C140.061 161.301 139.769 162.144 139.631 163.202H140.137C140.613 162.573 141.142 162.136 141.724 161.891C142.322 161.646 143.043 161.523 143.886 161.523ZM140.804 170.378C141.464 171.191 142.399 171.597 143.61 171.597C144.822 171.597 145.749 171.191 146.393 170.378C147.053 169.55 147.382 168.553 147.382 167.388C147.382 166.223 147.053 165.234 146.393 164.421C145.749 163.608 144.822 163.202 143.61 163.202C142.399 163.202 141.464 163.608 140.804 164.421C140.16 165.234 139.838 166.223 139.838 167.388C139.838 168.553 140.16 169.55 140.804 170.378ZM152.846 162.834C153.874 161.684 155.269 161.109 157.032 161.109C158.796 161.109 160.183 161.684 161.195 162.834C162.223 163.984 162.736 165.441 162.736 167.204C162.736 168.967 162.223 170.424 161.195 171.574C160.183 172.724 158.796 173.299 157.032 173.299C155.269 173.299 153.874 172.724 152.846 171.574C151.834 170.424 151.328 168.967 151.328 167.204C151.328 165.441 151.834 163.984 152.846 162.834ZM154.249 170.332C154.893 171.175 155.821 171.597 157.032 171.597C158.244 171.597 159.171 171.175 159.815 170.332C160.459 169.473 160.781 168.431 160.781 167.204C160.781 165.977 160.459 164.942 159.815 164.099C159.171 163.24 158.244 162.811 157.032 162.811C155.821 162.811 154.893 163.24 154.249 164.099C153.605 164.942 153.283 165.977 153.283 167.204C153.283 168.431 153.605 169.473 154.249 170.332ZM165.397 173V161.408H174.091V163.11H167.352V173H165.397ZM183.349 173V171.781H182.843C182.046 172.793 180.842 173.299 179.232 173.299C177.96 173.299 176.948 172.931 176.196 172.195C175.445 171.459 175.069 170.57 175.069 169.527C175.069 168.469 175.437 167.564 176.173 166.813C176.909 166.062 178.021 165.686 179.508 165.686H183.28V165.226C183.28 164.49 183.05 163.907 182.59 163.478C182.13 163.033 181.417 162.811 180.451 162.811C178.765 162.811 177.868 163.371 177.76 164.49H175.805C175.882 163.432 176.334 162.604 177.162 162.006C178.006 161.408 179.087 161.109 180.405 161.109C181.893 161.109 183.058 161.454 183.901 162.144C184.76 162.834 185.189 163.823 185.189 165.111V173H183.349ZM179.715 171.597C180.681 171.597 181.517 171.283 182.222 170.654C182.928 170.01 183.28 169.228 183.28 168.308V167.25H179.807C177.952 167.25 177.024 167.986 177.024 169.458C177.024 170.117 177.254 170.639 177.714 171.022C178.19 171.405 178.857 171.597 179.715 171.597ZM187.047 163.11V161.408H197.029V163.11H193.027V173H191.072V163.11H187.047ZM199.218 161.408H201.173V165.272H204.37C205.765 165.272 206.838 165.609 207.59 166.284C208.356 166.959 208.74 167.902 208.74 169.113C208.74 170.34 208.356 171.298 207.59 171.988C206.838 172.663 205.765 173 204.37 173H199.218V161.408ZM201.173 166.928V171.298H204.094C205.06 171.298 205.75 171.114 206.164 170.746C206.578 170.378 206.785 169.834 206.785 169.113C206.785 168.392 206.578 167.848 206.164 167.48C205.75 167.112 205.06 166.928 204.094 166.928H201.173ZM210.603 161.408H212.558V173H210.603V161.408ZM215.942 173V161.408H219.047L221.899 166.698H222.405L225.257 161.408H228.316V173H226.407V163.685H225.901L223.21 168.653H221.048L218.357 163.685H217.851V173H215.942ZM234.46 173H231.7V161.408H233.609V170.378H234.115L239.198 161.408H242.05V173H240.141V164.03H239.635L234.46 173ZM261.499 166.514V167.181H252.667C252.697 168.576 253.027 169.665 253.656 170.447C254.284 171.214 255.189 171.597 256.37 171.597C257.964 171.597 258.946 170.999 259.314 169.803H261.292C261.092 170.846 260.563 171.689 259.705 172.333C258.861 172.977 257.75 173.299 256.37 173.299C254.606 173.299 253.226 172.724 252.23 171.574C251.233 170.424 250.735 168.929 250.735 167.089C250.735 165.28 251.233 163.831 252.23 162.742C253.226 161.653 254.591 161.109 256.324 161.109C257.964 161.109 259.229 161.63 260.119 162.673C261.008 163.7 261.468 164.981 261.499 166.514ZM256.278 162.811C255.281 162.811 254.484 163.072 253.886 163.593C253.288 164.099 252.92 164.751 252.782 165.548H259.475C259.413 164.766 259.099 164.114 258.532 163.593C257.964 163.072 257.213 162.811 256.278 162.811ZM264.151 173V161.408H272.845V163.11H266.106V173H264.151ZM275.279 162.834C276.307 161.684 277.702 161.109 279.465 161.109C281.229 161.109 282.616 161.684 283.628 162.834C284.656 163.984 285.169 165.441 285.169 167.204C285.169 168.967 284.656 170.424 283.628 171.574C282.616 172.724 281.229 173.299 279.465 173.299C277.702 173.299 276.307 172.724 275.279 171.574C274.267 170.424 273.761 168.967 273.761 167.204C273.761 165.441 274.267 163.984 275.279 162.834ZM276.682 170.332C277.326 171.175 278.254 171.597 279.465 171.597C280.677 171.597 281.604 171.175 282.248 170.332C282.892 169.473 283.214 168.431 283.214 167.204C283.214 165.977 282.892 164.942 282.248 164.099C281.604 163.24 280.677 162.811 279.465 162.811C278.254 162.811 277.326 163.24 276.682 164.099C276.038 164.942 275.716 165.977 275.716 167.204C275.716 168.431 276.038 169.473 276.682 170.332ZM296.6 173H293.84V161.408H295.749V170.378H296.255L301.338 161.408H304.19V173H302.281V164.03H301.775L296.6 173ZM315.42 169.504H317.375C317.145 170.669 316.6 171.597 315.742 172.287C314.898 172.962 313.817 173.299 312.499 173.299C310.751 173.299 309.371 172.732 308.359 171.597C307.362 170.447 306.864 168.983 306.864 167.204C306.864 165.41 307.362 163.946 308.359 162.811C309.355 161.676 310.735 161.109 312.499 161.109C313.833 161.109 314.914 161.446 315.742 162.121C316.585 162.78 317.106 163.662 317.306 164.766H315.351C314.937 163.463 313.986 162.811 312.499 162.811C311.257 162.811 310.329 163.225 309.716 164.053C309.118 164.866 308.819 165.901 308.819 167.158C308.819 168.431 309.125 169.489 309.739 170.332C310.352 171.175 311.272 171.597 312.499 171.597C314.124 171.597 315.098 170.899 315.42 169.504ZM318.702 163.11V161.408H328.684V163.11H324.682V173H322.727V163.11H318.702ZM331.498 162.834C332.525 161.684 333.921 161.109 335.684 161.109C337.447 161.109 338.835 161.684 339.847 162.834C340.874 163.984 341.388 165.441 341.388 167.204C341.388 168.967 340.874 170.424 339.847 171.574C338.835 172.724 337.447 173.299 335.684 173.299C333.921 173.299 332.525 172.724 331.498 171.574C330.486 170.424 329.98 168.967 329.98 167.204C329.98 165.441 330.486 163.984 331.498 162.834ZM332.901 170.332C333.545 171.175 334.473 171.597 335.684 171.597C336.895 171.597 337.823 171.175 338.467 170.332C339.111 169.473 339.433 168.431 339.433 167.204C339.433 165.977 339.111 164.942 338.467 164.099C337.823 163.24 336.895 162.811 335.684 162.811C334.473 162.811 333.545 163.24 332.901 164.099C332.257 164.942 331.935 165.977 331.935 167.204C331.935 168.431 332.257 169.473 332.901 170.332ZM343.381 161.408H345.336V164.674C345.336 165.042 345.359 165.333 345.405 165.548C345.451 165.747 345.558 165.977 345.727 166.238C345.896 166.499 346.187 166.69 346.601 166.813C347.03 166.936 347.582 166.997 348.257 166.997C349.269 166.997 350.235 166.897 351.155 166.698V161.408H353.133V173H351.155V168.423C350.128 168.638 349.024 168.745 347.843 168.745C347.03 168.745 346.333 168.668 345.75 168.515C345.183 168.346 344.746 168.155 344.439 167.94C344.148 167.71 343.918 167.403 343.749 167.02C343.58 166.637 343.473 166.292 343.427 165.985C343.396 165.678 343.381 165.295 343.381 164.835V161.408ZM366.652 173H364.697V167.894H358.28V173H356.325V161.408H358.28V166.192H364.697V161.408H366.652V173ZM372.8 173H370.04V161.408H371.949V170.378H372.455L377.538 161.408H380.39V173H378.481V164.03H377.975L372.8 173ZM391.781 173L389.205 167.894H385.732V173H383.777V161.408H385.732V166.192H389.251L391.666 161.408H393.713L390.884 166.997L393.874 173H391.781ZM403.639 173V171.781H403.133C402.335 172.793 401.132 173.299 399.522 173.299C398.249 173.299 397.237 172.931 396.486 172.195C395.734 171.459 395.359 170.57 395.359 169.527C395.359 168.469 395.727 167.564 396.463 166.813C397.199 166.062 398.31 165.686 399.798 165.686H403.57V165.226C403.57 164.49 403.34 163.907 402.88 163.478C402.42 163.033 401.707 162.811 400.741 162.811C399.054 162.811 398.157 163.371 398.05 164.49H396.095C396.171 163.432 396.624 162.604 397.452 162.006C398.295 161.408 399.376 161.109 400.695 161.109C402.182 161.109 403.347 161.454 404.191 162.144C405.049 162.834 405.479 163.823 405.479 165.111V173H403.639ZM400.005 171.597C400.971 171.597 401.806 171.283 402.512 170.654C403.217 170.01 403.57 169.228 403.57 168.308V167.25H400.097C398.241 167.25 397.314 167.986 397.314 169.458C397.314 170.117 397.544 170.639 398.004 171.022C398.479 171.405 399.146 171.597 400.005 171.597ZM408.667 173V161.408H411.772L414.624 166.698H415.13L417.982 161.408H421.041V173H419.132V163.685H418.626L415.935 168.653H413.773L411.082 163.685H410.576V173H408.667ZM427.186 173H424.426V161.408H426.335V170.378H426.841L431.924 161.408H434.776V173H432.867V164.03H432.361L427.186 173ZM31.2014 189.408H36.9744V201H34.9964V196.423H31.4774C31.1707 196.423 30.9331 196.415 30.7644 196.4L29.0164 201H26.9694L28.9244 195.963C27.7284 195.396 27.1304 194.384 27.1304 192.927C27.1304 191.808 27.4754 190.941 28.1654 190.328C28.8707 189.715 29.8827 189.408 31.2014 189.408ZM34.9964 191.064H31.4084C30.5651 191.064 29.9671 191.225 29.6144 191.547C29.2617 191.869 29.0854 192.337 29.0854 192.95C29.0854 193.548 29.2617 194 29.6144 194.307C29.9671 194.614 30.5651 194.767 31.4084 194.767H34.9964V191.064ZM48.5008 194.606V195.112C49.0682 195.25 49.5205 195.557 49.8578 196.032C50.2105 196.507 50.3868 197.105 50.3868 197.826C50.3868 199.942 49.0222 201 46.2928 201H40.3358V189.408H46.0858C47.2512 189.408 48.1482 189.669 48.7768 190.19C49.4208 190.696 49.7428 191.409 49.7428 192.329C49.7428 192.866 49.6202 193.333 49.3748 193.732C49.1448 194.131 48.8535 194.422 48.5008 194.606ZM42.2678 199.344H46.1778C47.6805 199.344 48.4318 198.769 48.4318 197.619C48.4318 196.454 47.6805 195.871 46.1778 195.871H42.2678V199.344ZM42.2678 191.064V194.215H45.9018C46.5612 194.215 47.0365 194.069 47.3278 193.778C47.6345 193.487 47.7878 193.111 47.7878 192.651C47.7878 191.593 47.1592 191.064 45.9018 191.064H42.2678ZM51.7285 201V199.16H52.1195C52.9322 199.16 53.5149 198.784 53.8675 198.033C54.2202 197.266 54.3965 195.886 54.3965 193.893V189.408H63.2745V201H61.2965V191.11H56.2135V193.939C56.2135 196.561 55.8915 198.393 55.2475 199.436C54.6189 200.479 53.5762 201 52.1195 201H51.7285ZM70.3907 189.408H76.1637V201H74.1857V196.423H70.6667C70.36 196.423 70.1224 196.415 69.9537 196.4L68.2057 201H66.1587L68.1137 195.963C66.9177 195.396 66.3197 194.384 66.3197 192.927C66.3197 191.808 66.6647 190.941 67.3547 190.328C68.06 189.715 69.072 189.408 70.3907 189.408ZM74.1857 191.064H70.5977C69.7544 191.064 69.1564 191.225 68.8037 191.547C68.451 191.869 68.2747 192.337 68.2747 192.95C68.2747 193.548 68.451 194 68.8037 194.307C69.1564 194.614 69.7544 194.767 70.5977 194.767H74.1857V191.064ZM89.6681 189.109C91.3855 189.109 92.7501 189.692 93.7621 190.857C94.7741 192.007 95.2801 193.456 95.2801 195.204C95.2801 196.952 94.7741 198.409 93.7621 199.574C92.7501 200.724 91.3855 201.299 89.6681 201.299C88.0735 201.299 86.7778 200.793 85.7811 199.781C84.7998 198.769 84.2401 197.473 84.1021 195.894H81.4571V201H79.5251V189.408H81.4571V194.192H84.1711C84.3551 192.674 84.9301 191.447 85.8961 190.512C86.8775 189.577 88.1348 189.109 89.6681 189.109ZM86.9541 198.332C87.5828 199.175 88.4875 199.597 89.6681 199.597C90.8488 199.597 91.7535 199.175 92.3821 198.332C93.0108 197.473 93.3251 196.431 93.3251 195.204C93.3251 193.977 93.0108 192.942 92.3821 192.099C91.7535 191.24 90.8488 190.811 89.6681 190.811C88.4875 190.811 87.5828 191.24 86.9541 192.099C86.3255 192.942 86.0111 193.977 86.0111 195.204C86.0111 196.431 86.3255 197.473 86.9541 198.332ZM96.5358 191.11V189.408H106.518V191.11H102.516V201H100.561V191.11H96.5358ZM116.369 197.504H118.324C118.094 198.669 117.55 199.597 116.691 200.287C115.848 200.962 114.767 201.299 113.448 201.299C111.7 201.299 110.32 200.732 109.308 199.597C108.312 198.447 107.813 196.983 107.813 195.204C107.813 193.41 108.312 191.946 109.308 190.811C110.305 189.676 111.685 189.109 113.448 189.109C114.782 189.109 115.863 189.446 116.691 190.121C117.535 190.78 118.056 191.662 118.255 192.766H116.3C115.886 191.463 114.936 190.811 113.448 190.811C112.206 190.811 111.279 191.225 110.665 192.053C110.067 192.866 109.768 193.901 109.768 195.158C109.768 196.431 110.075 197.489 110.688 198.332C111.302 199.175 112.222 199.597 113.448 199.597C115.074 199.597 116.047 198.899 116.369 197.504ZM124.597 189.408H130.37V201H128.392V196.423H124.873C124.567 196.423 124.329 196.415 124.16 196.4L122.412 201H120.365L122.32 195.963C121.124 195.396 120.526 194.384 120.526 192.927C120.526 191.808 120.871 190.941 121.561 190.328C122.267 189.715 123.279 189.408 124.597 189.408ZM128.392 191.064H124.804C123.961 191.064 123.363 191.225 123.01 191.547C122.658 191.869 122.481 192.337 122.481 192.95C122.481 193.548 122.658 194 123.01 194.307C123.363 194.614 123.961 194.767 124.804 194.767H128.392V191.064ZM149.977 201H148.022V191.11H141.697V201H139.742V189.408H149.977V201ZM158.933 190.811C157.721 190.811 156.809 191.233 156.196 192.076C155.598 192.919 155.299 193.962 155.299 195.204C155.299 196.446 155.598 197.489 156.196 198.332C156.809 199.175 157.721 199.597 158.933 199.597C160.067 199.597 160.941 199.198 161.555 198.401C162.183 197.588 162.498 196.523 162.498 195.204C162.498 193.885 162.183 192.827 161.555 192.03C160.941 191.217 160.067 190.811 158.933 190.811ZM153.367 189.408H155.253V190.65H155.759C156.587 189.623 157.79 189.109 159.37 189.109C160.934 189.109 162.168 189.684 163.073 190.834C163.993 191.984 164.453 193.441 164.453 195.204C164.453 196.998 163.993 198.462 163.073 199.597C162.168 200.732 160.934 201.299 159.37 201.299C157.775 201.299 156.594 200.785 155.828 199.758H155.322V205.6H153.367V189.408ZM167.931 190.834C168.958 189.684 170.354 189.109 172.117 189.109C173.88 189.109 175.268 189.684 176.28 190.834C177.307 191.984 177.821 193.441 177.821 195.204C177.821 196.967 177.307 198.424 176.28 199.574C175.268 200.724 173.88 201.299 172.117 201.299C170.354 201.299 168.958 200.724 167.931 199.574C166.919 198.424 166.413 196.967 166.413 195.204C166.413 193.441 166.919 191.984 167.931 190.834ZM169.334 198.332C169.978 199.175 170.906 199.597 172.117 199.597C173.328 199.597 174.256 199.175 174.9 198.332C175.544 197.473 175.866 196.431 175.866 195.204C175.866 193.977 175.544 192.942 174.9 192.099C174.256 191.24 173.328 190.811 172.117 190.811C170.906 190.811 169.978 191.24 169.334 192.099C168.69 192.942 168.368 193.977 168.368 195.204C168.368 196.431 168.69 197.473 169.334 198.332ZM190.808 199.298H192.947V204.289H191.038V201H181.01V204.289H179.101V199.298H180.642C181.593 197.274 182.068 195.035 182.068 192.582V189.408H190.808V199.298ZM188.853 199.298V191.11H183.885V192.582C183.885 195.204 183.463 197.443 182.62 199.298H188.853ZM198.222 205.6H196.244L198.636 199.919L193.691 189.408H195.784L199.326 197.044H199.901L203.121 189.408H205.168L198.222 205.6ZM215.083 201L212.507 195.894H209.034V201H207.079V189.408H209.034V194.192H212.553L214.968 189.408H217.015L214.186 194.997L217.176 201H215.083ZM218.362 191.11V189.408H228.344V191.11H224.342V201H222.387V191.11H218.362ZM230.532 189.408H232.487V193.272H235.684C237.08 193.272 238.153 193.609 238.904 194.284C239.671 194.959 240.054 195.902 240.054 197.113C240.054 198.34 239.671 199.298 238.904 199.988C238.153 200.663 237.08 201 235.684 201H230.532V189.408ZM232.487 194.928V199.298H235.408C236.374 199.298 237.064 199.114 237.478 198.746C237.892 198.378 238.099 197.834 238.099 197.113C238.099 196.392 237.892 195.848 237.478 195.48C237.064 195.112 236.374 194.928 235.408 194.928H232.487ZM241.917 189.408H243.872V201H241.917V189.408ZM258.833 190.811C257.622 190.811 256.709 191.233 256.096 192.076C255.498 192.919 255.199 193.962 255.199 195.204C255.199 196.446 255.498 197.489 256.096 198.332C256.709 199.175 257.622 199.597 258.833 199.597C259.968 199.597 260.842 199.198 261.455 198.401C262.084 197.588 262.398 196.523 262.398 195.204C262.398 193.885 262.084 192.827 261.455 192.03C260.842 191.217 259.968 190.811 258.833 190.811ZM253.267 189.408H255.153V190.65H255.659C256.487 189.623 257.691 189.109 259.27 189.109C260.834 189.109 262.068 189.684 262.973 190.834C263.893 191.984 264.353 193.441 264.353 195.204C264.353 196.998 263.893 198.462 262.973 199.597C262.068 200.732 260.834 201.299 259.27 201.299C257.675 201.299 256.495 200.785 255.728 199.758H255.222V205.6H253.267V189.408ZM274.409 201V199.781H273.903C273.106 200.793 271.902 201.299 270.292 201.299C269.02 201.299 268.008 200.931 267.256 200.195C266.505 199.459 266.129 198.57 266.129 197.527C266.129 196.469 266.497 195.564 267.233 194.813C267.969 194.062 269.081 193.686 270.568 193.686H274.34V193.226C274.34 192.49 274.11 191.907 273.65 191.478C273.19 191.033 272.477 190.811 271.511 190.811C269.825 190.811 268.928 191.371 268.82 192.49H266.865C266.942 191.432 267.394 190.604 268.222 190.006C269.066 189.408 270.147 189.109 271.465 189.109C272.953 189.109 274.118 189.454 274.961 190.144C275.82 190.834 276.249 191.823 276.249 193.111V201H274.409ZM270.775 199.597C271.741 199.597 272.577 199.283 273.282 198.654C273.988 198.01 274.34 197.228 274.34 196.308V195.25H270.867C269.012 195.25 268.084 195.986 268.084 197.458C268.084 198.117 268.314 198.639 268.774 199.022C269.25 199.405 269.917 199.597 270.775 199.597ZM287.281 197.504H289.236C289.006 198.669 288.462 199.597 287.603 200.287C286.76 200.962 285.679 201.299 284.36 201.299C282.612 201.299 281.232 200.732 280.22 199.597C279.223 198.447 278.725 196.983 278.725 195.204C278.725 193.41 279.223 191.946 280.22 190.811C281.217 189.676 282.597 189.109 284.36 189.109C285.694 189.109 286.775 189.446 287.603 190.121C288.446 190.78 288.968 191.662 289.167 192.766H287.212C286.798 191.463 285.847 190.811 284.36 190.811C283.118 190.811 282.19 191.225 281.577 192.053C280.979 192.866 280.68 193.901 280.68 195.158C280.68 196.431 280.987 197.489 281.6 198.332C282.213 199.175 283.133 199.597 284.36 199.597C285.985 199.597 286.959 198.899 287.281 197.504ZM290.564 191.11V189.408H300.546V191.11H296.544V201H294.589V191.11H290.564ZM305.494 201H302.734V189.408H304.643V198.378H305.149L310.232 189.408H313.084V201H311.175V192.03H310.669L305.494 201ZM315.275 191.11V189.408H325.257V191.11H321.255V201H319.3V191.11H315.275ZM337.317 194.514V195.181H328.485C328.515 196.576 328.845 197.665 329.474 198.447C330.102 199.214 331.007 199.597 332.188 199.597C333.782 199.597 334.764 198.999 335.132 197.803H337.11C336.91 198.846 336.381 199.689 335.523 200.333C334.679 200.977 333.568 201.299 332.188 201.299C330.424 201.299 329.044 200.724 328.048 199.574C327.051 198.424 326.553 196.929 326.553 195.089C326.553 193.28 327.051 191.831 328.048 190.742C329.044 189.653 330.409 189.109 332.142 189.109C333.782 189.109 335.047 189.63 335.937 190.673C336.826 191.7 337.286 192.981 337.317 194.514ZM332.096 190.811C331.099 190.811 330.302 191.072 329.704 191.593C329.106 192.099 328.738 192.751 328.6 193.548H335.293C335.231 192.766 334.917 192.114 334.35 191.593C333.782 191.072 333.031 190.811 332.096 190.811ZM338.658 201V199.16H339.049C339.862 199.16 340.445 198.784 340.797 198.033C341.15 197.266 341.326 195.886 341.326 193.893V189.408H350.204V201H348.226V191.11H343.143V193.939C343.143 196.561 342.821 198.393 342.177 199.436C341.549 200.479 340.506 201 339.049 201H338.658ZM355.527 189.408V193.272H358.954C360.349 193.272 361.422 193.609 362.174 194.284C362.94 194.959 363.324 195.902 363.324 197.113C363.324 198.34 362.94 199.298 362.174 199.988C361.422 200.663 360.349 201 358.954 201H353.572V189.408H355.527ZM355.527 199.298H358.678C359.644 199.298 360.334 199.114 360.748 198.746C361.162 198.378 361.369 197.834 361.369 197.113C361.369 196.392 361.162 195.848 360.748 195.48C360.334 195.112 359.644 194.928 358.678 194.928H355.527V199.298ZM376.041 201H374.086V195.894H367.669V201H365.714V189.408H367.669V194.192H374.086V189.408H376.041V201ZM380.233 190.834C381.261 189.684 382.656 189.109 384.419 189.109C386.183 189.109 387.57 189.684 388.582 190.834C389.61 191.984 390.123 193.441 390.123 195.204C390.123 196.967 389.61 198.424 388.582 199.574C387.57 200.724 386.183 201.299 384.419 201.299C382.656 201.299 381.261 200.724 380.233 199.574C379.221 198.424 378.715 196.967 378.715 195.204C378.715 193.441 379.221 191.984 380.233 190.834ZM381.636 198.332C382.28 199.175 383.208 199.597 384.419 199.597C385.631 199.597 386.558 199.175 387.202 198.332C387.846 197.473 388.168 196.431 388.168 195.204C388.168 193.977 387.846 192.942 387.202 192.099C386.558 191.24 385.631 190.811 384.419 190.811C383.208 190.811 382.28 191.24 381.636 192.099C380.992 192.942 380.67 193.977 380.67 195.204C380.67 196.431 380.992 197.473 381.636 198.332ZM392.783 201V189.408H401.477V191.11H394.738V201H392.783ZM403.911 190.834C404.939 189.684 406.334 189.109 408.097 189.109C409.861 189.109 411.248 189.684 412.26 190.834C413.288 191.984 413.801 193.441 413.801 195.204C413.801 196.967 413.288 198.424 412.26 199.574C411.248 200.724 409.861 201.299 408.097 201.299C406.334 201.299 404.939 200.724 403.911 199.574C402.899 198.424 402.393 196.967 402.393 195.204C402.393 193.441 402.899 191.984 403.911 190.834ZM405.314 198.332C405.958 199.175 406.886 199.597 408.097 199.597C409.309 199.597 410.236 199.175 410.88 198.332C411.524 197.473 411.846 196.431 411.846 195.204C411.846 193.977 411.524 192.942 410.88 192.099C410.236 191.24 409.309 190.811 408.097 190.811C406.886 190.811 405.958 191.24 405.314 192.099C404.67 192.942 404.348 193.977 404.348 195.204C404.348 196.431 404.67 197.473 405.314 198.332ZM37.6874 229H35.7324V219.11H29.4074V229H27.4524V217.408H37.6874V229ZM46.643 218.811C45.4317 218.811 44.5194 219.233 43.906 220.076C43.308 220.919 43.009 221.962 43.009 223.204C43.009 224.446 43.308 225.489 43.906 226.332C44.5194 227.175 45.4317 227.597 46.643 227.597C47.7777 227.597 48.6517 227.198 49.265 226.401C49.8937 225.588 50.208 224.523 50.208 223.204C50.208 221.885 49.8937 220.827 49.265 220.03C48.6517 219.217 47.7777 218.811 46.643 218.811ZM41.077 217.408H42.963V218.65H43.469C44.297 217.623 45.5007 217.109 47.08 217.109C48.644 217.109 49.8784 217.684 50.783 218.834C51.703 219.984 52.163 221.441 52.163 223.204C52.163 224.998 51.703 226.462 50.783 227.597C49.8784 228.732 48.644 229.299 47.08 229.299C45.4854 229.299 44.3047 228.785 43.538 227.758H43.032V233.6H41.077V217.408ZM55.6414 218.834C56.6688 217.684 58.0641 217.109 59.8274 217.109C61.5908 217.109 62.9784 217.684 63.9904 218.834C65.0178 219.984 65.5314 221.441 65.5314 223.204C65.5314 224.967 65.0178 226.424 63.9904 227.574C62.9784 228.724 61.5908 229.299 59.8274 229.299C58.0641 229.299 56.6688 228.724 55.6414 227.574C54.6294 226.424 54.1234 224.967 54.1234 223.204C54.1234 221.441 54.6294 219.984 55.6414 218.834ZM57.0444 226.332C57.6884 227.175 58.6161 227.597 59.8274 227.597C61.0388 227.597 61.9664 227.175 62.6104 226.332C63.2544 225.473 63.5764 224.431 63.5764 223.204C63.5764 221.977 63.2544 220.942 62.6104 220.099C61.9664 219.24 61.0388 218.811 59.8274 218.811C58.6161 218.811 57.6884 219.24 57.0444 220.099C56.4004 220.942 56.0784 221.977 56.0784 223.204C56.0784 224.431 56.4004 225.473 57.0444 226.332ZM70.9515 229H68.1915V217.408H70.1005V226.378H70.6065L75.6895 217.408H78.5415V229H76.6325V220.03H76.1265L70.9515 229ZM89.7714 225.504H91.7264C91.4964 226.669 90.9521 227.597 90.0934 228.287C89.2501 228.962 88.1691 229.299 86.8504 229.299C85.1024 229.299 83.7224 228.732 82.7104 227.597C81.7138 226.447 81.2154 224.983 81.2154 223.204C81.2154 221.41 81.7138 219.946 82.7104 218.811C83.7071 217.676 85.0871 217.109 86.8504 217.109C88.1844 217.109 89.2654 217.446 90.0934 218.121C90.9368 218.78 91.4581 219.662 91.6574 220.766H89.7024C89.2884 219.463 88.3378 218.811 86.8504 218.811C85.6084 218.811 84.6808 219.225 84.0674 220.053C83.4694 220.866 83.1704 221.901 83.1704 223.158C83.1704 224.431 83.4771 225.489 84.0904 226.332C84.7038 227.175 85.6238 227.597 86.8504 227.597C88.4758 227.597 89.4494 226.899 89.7714 225.504ZM102.001 229L99.1263 224.147H98.2983L95.3543 229H93.2153L96.8263 223.066L93.5833 217.408H95.6533L98.3213 222.008H99.1493L101.863 217.408H103.91L100.621 222.997L104.209 229H102.001ZM107.018 218.834C108.045 217.684 109.441 217.109 111.204 217.109C112.967 217.109 114.355 217.684 115.367 218.834C116.394 219.984 116.908 221.441 116.908 223.204C116.908 224.967 116.394 226.424 115.367 227.574C114.355 228.724 112.967 229.299 111.204 229.299C109.441 229.299 108.045 228.724 107.018 227.574C106.006 226.424 105.5 224.967 105.5 223.204C105.5 221.441 106.006 219.984 107.018 218.834ZM108.421 226.332C109.065 227.175 109.993 227.597 111.204 227.597C112.415 227.597 113.343 227.175 113.987 226.332C114.631 225.473 114.953 224.431 114.953 223.204C114.953 221.977 114.631 220.942 113.987 220.099C113.343 219.24 112.415 218.811 111.204 218.811C109.993 218.811 109.065 219.24 108.421 220.099C107.777 220.942 107.455 221.977 107.455 223.204C107.455 224.431 107.777 225.473 108.421 226.332ZM122.857 223.917L120.626 229H118.579L121.201 223.043L118.74 217.408H120.764L122.857 222.215H125.824V217.408H127.71V222.215H130.677L132.77 217.408H134.794L132.333 223.043L134.978 229H132.908L130.677 223.917H127.71V229H125.824V223.917H122.857ZM147.675 227.298H149.814V232.289H147.905V229H137.877V232.289H135.968V227.298H137.509C138.46 225.274 138.935 223.035 138.935 220.582V217.408H147.675V227.298ZM145.72 227.298V219.11H140.752V220.582C140.752 223.204 140.33 225.443 139.487 227.298H145.72ZM162.012 222.514V223.181H153.18C153.21 224.576 153.54 225.665 154.169 226.447C154.797 227.214 155.702 227.597 156.883 227.597C158.477 227.597 159.459 226.999 159.827 225.803H161.805C161.605 226.846 161.076 227.689 160.218 228.333C159.374 228.977 158.263 229.299 156.883 229.299C155.119 229.299 153.739 228.724 152.743 227.574C151.746 226.424 151.248 224.929 151.248 223.089C151.248 221.28 151.746 219.831 152.743 218.742C153.739 217.653 155.104 217.109 156.837 217.109C158.477 217.109 159.742 217.63 160.632 218.673C161.521 219.7 161.981 220.981 162.012 222.514ZM156.791 218.811C155.794 218.811 154.997 219.072 154.399 219.593C153.801 220.099 153.433 220.751 153.295 221.548H159.988C159.926 220.766 159.612 220.114 159.045 219.593C158.477 219.072 157.726 218.811 156.791 218.811ZM174.991 229H173.036V223.894H166.619V229H164.664V217.408H166.619V222.192H173.036V217.408H174.991V229ZM181.139 229H178.379V217.408H180.288V226.378H180.794L185.877 217.408H188.729V229H186.82V220.03H186.314L181.139 229ZM195.865 217.408H201.638V229H199.66V224.423H196.141C195.834 224.423 195.597 224.415 195.428 224.4L193.68 229H191.633L193.588 223.963C192.392 223.396 191.794 222.384 191.794 220.927C191.794 219.808 192.139 218.941 192.829 218.328C193.534 217.715 194.546 217.408 195.865 217.408ZM199.66 219.064H196.072C195.229 219.064 194.631 219.225 194.278 219.547C193.925 219.869 193.749 220.337 193.749 220.95C193.749 221.548 193.925 222 194.278 222.307C194.631 222.614 195.229 222.767 196.072 222.767H199.66V219.064ZM207.276 229H204.884V226.332H207.276V229ZM207.276 220.076H204.884V217.408H207.276V220.076ZM216.548 229V217.408H219.653L222.505 222.698H223.011L225.863 217.408H228.922V229H227.013V219.685H226.507L223.816 224.653H221.654L218.963 219.685H218.457V229H216.548ZM235.067 229H232.307V217.408H234.216V226.378H234.722L239.805 217.408H242.657V229H240.748V220.03H240.242L235.067 229ZM256.371 229H254.416V223.894H247.999V229H246.044V217.408H247.999V222.192H254.416V217.408H256.371V229ZM270.085 227.298H272.224V232.289H270.315V229H260.287V232.289H258.378V227.298H259.919C260.87 225.274 261.345 223.035 261.345 220.582V217.408H270.085V227.298ZM268.13 227.298V219.11H263.162V220.582C263.162 223.204 262.74 225.443 261.897 227.298H268.13ZM281.754 229V227.781H281.248C280.451 228.793 279.247 229.299 277.637 229.299C276.364 229.299 275.352 228.931 274.601 228.195C273.85 227.459 273.474 226.57 273.474 225.527C273.474 224.469 273.842 223.564 274.578 222.813C275.314 222.062 276.426 221.686 277.913 221.686H281.685V221.226C281.685 220.49 281.455 219.907 280.995 219.478C280.535 219.033 279.822 218.811 278.856 218.811C277.169 218.811 276.272 219.371 276.165 220.49H274.21C274.287 219.432 274.739 218.604 275.567 218.006C276.41 217.408 277.491 217.109 278.81 217.109C280.297 217.109 281.463 217.454 282.306 218.144C283.165 218.834 283.594 219.823 283.594 221.111V229H281.754ZM278.12 227.597C279.086 227.597 279.922 227.283 280.627 226.654C281.332 226.01 281.685 225.228 281.685 224.308V223.25H278.212C276.357 223.25 275.429 223.986 275.429 225.458C275.429 226.117 275.659 226.639 276.119 227.022C276.594 227.405 277.261 227.597 278.12 227.597ZM285.472 229V227.16H285.863C286.675 227.16 287.258 226.784 287.611 226.033C287.963 225.266 288.14 223.886 288.14 221.893V217.408H297.018V229H295.04V219.11H289.957V221.939C289.957 224.561 289.635 226.393 288.991 227.436C288.362 228.479 287.319 229 285.863 229H285.472ZM302.34 217.408V221.272H305.767C307.162 221.272 308.236 221.609 308.987 222.284C309.754 222.959 310.137 223.902 310.137 225.113C310.137 226.34 309.754 227.298 308.987 227.988C308.236 228.663 307.162 229 305.767 229H300.385V217.408H302.34ZM302.34 227.298H305.491C306.457 227.298 307.147 227.114 307.561 226.746C307.975 226.378 308.182 225.834 308.182 225.113C308.182 224.392 307.975 223.848 307.561 223.48C307.147 223.112 306.457 222.928 305.491 222.928H302.34V227.298ZM313.562 229H312.412V226.332H314.804V229.437L313.516 231.645H312.274L313.562 229.437V229ZM331.39 229V233.6H329.458V229H329.09C327.296 229 325.893 228.463 324.881 227.39C323.869 226.317 323.363 224.921 323.363 223.204C323.363 221.471 323.862 220.076 324.858 219.018C325.855 217.945 327.258 217.408 329.067 217.408H329.458V212.279H331.39V217.408H331.758C333.552 217.408 334.948 217.945 335.944 219.018C336.956 220.091 337.462 221.487 337.462 223.204C337.462 225.013 336.933 226.432 335.875 227.459C334.817 228.486 333.322 229 331.39 229ZM326.261 220.237C325.617 221.019 325.295 222.008 325.295 223.204C325.295 224.4 325.617 225.389 326.261 226.171C326.905 226.953 327.848 227.344 329.09 227.344H329.458V219.064H329.09C327.864 219.064 326.921 219.455 326.261 220.237ZM331.39 227.344H331.712C332.954 227.344 333.897 226.953 334.541 226.171C335.201 225.389 335.53 224.4 335.53 223.204C335.53 222.008 335.201 221.019 334.541 220.237C333.897 219.455 332.954 219.064 331.712 219.064H331.39V227.344ZM342.985 233.6H341.007L343.399 227.919L338.454 217.408H340.547L344.089 225.044H344.664L347.884 217.408H349.931L342.985 233.6ZM362.169 229H360.214V223.894H353.797V229H351.842V217.408H353.797V222.192H360.214V217.408H362.169V229ZM375.884 227.298H378.023V232.289H376.114V229H366.086V232.289H364.177V227.298H365.718C366.668 225.274 367.144 223.035 367.144 220.582V217.408H375.884V227.298ZM373.929 227.298V219.11H368.961V220.582C368.961 223.204 368.539 225.443 367.696 227.298H373.929ZM383.297 233.6H381.319L383.711 227.919L378.766 217.408H380.859L384.401 225.044H384.976L388.196 217.408H390.243L383.297 233.6ZM400.158 229L397.582 223.894H394.109V229H392.154V217.408H394.109V222.192H397.628L400.043 217.408H402.09L399.261 222.997L402.251 229H400.158ZM405.669 229H404.519V226.332H406.911V229.437L405.623 231.645H404.381L405.669 229.437V229ZM34.8354 257V255.781H34.3294C33.5321 256.793 32.3284 257.299 30.7184 257.299C29.4457 257.299 28.4337 256.931 27.6824 256.195C26.9311 255.459 26.5554 254.57 26.5554 253.527C26.5554 252.469 26.9234 251.564 27.6594 250.813C28.3954 250.062 29.5071 249.686 30.9944 249.686H34.7664V249.226C34.7664 248.49 34.5364 247.907 34.0764 247.478C33.6164 247.033 32.9034 246.811 31.9374 246.811C30.2507 246.811 29.3537 247.371 29.2464 248.49H27.2914C27.3681 247.432 27.8204 246.604 28.6484 246.006C29.4917 245.408 30.5727 245.109 31.8914 245.109C33.3787 245.109 34.5441 245.454 35.3874 246.144C36.2461 246.834 36.6754 247.823 36.6754 249.111V257H34.8354ZM31.2014 255.597C32.1674 255.597 33.0031 255.283 33.7084 254.654C34.4137 254.01 34.7664 253.228 34.7664 252.308V251.25H31.2934C29.4381 251.25 28.5104 251.986 28.5104 253.458C28.5104 254.117 28.7404 254.639 29.2004 255.022C29.6757 255.405 30.3427 255.597 31.2014 255.597ZM45.4301 246.811C44.2188 246.811 43.3065 247.233 42.6931 248.076C42.0951 248.919 41.7961 249.962 41.7961 251.204C41.7961 252.446 42.0951 253.489 42.6931 254.332C43.3065 255.175 44.2188 255.597 45.4301 255.597C46.5648 255.597 47.4388 255.198 48.0521 254.401C48.6808 253.588 48.9951 252.523 48.9951 251.204C48.9951 249.885 48.6808 248.827 48.0521 248.03C47.4388 247.217 46.5648 246.811 45.4301 246.811ZM39.8641 245.408H41.7501V246.65H42.2561C43.0841 245.623 44.2878 245.109 45.8671 245.109C47.4311 245.109 48.6655 245.684 49.5701 246.834C50.4901 247.984 50.9501 249.441 50.9501 251.204C50.9501 252.998 50.4901 254.462 49.5701 255.597C48.6655 256.732 47.4311 257.299 45.8671 257.299C44.2725 257.299 43.0918 256.785 42.3251 255.758H41.8191V261.6H39.8641V245.408ZM61.0065 257V255.781H60.5005C59.7032 256.793 58.4995 257.299 56.8895 257.299C55.6169 257.299 54.6049 256.931 53.8535 256.195C53.1022 255.459 52.7265 254.57 52.7265 253.527C52.7265 252.469 53.0945 251.564 53.8305 250.813C54.5665 250.062 55.6782 249.686 57.1655 249.686H60.9375V249.226C60.9375 248.49 60.7075 247.907 60.2475 247.478C59.7875 247.033 59.0745 246.811 58.1085 246.811C56.4219 246.811 55.5249 247.371 55.4175 248.49H53.4625C53.5392 247.432 53.9915 246.604 54.8195 246.006C55.6629 245.408 56.7439 245.109 58.0625 245.109C59.5499 245.109 60.7152 245.454 61.5585 246.144C62.4172 246.834 62.8465 247.823 62.8465 249.111V257H61.0065ZM57.3725 255.597C58.3385 255.597 59.1742 255.283 59.8795 254.654C60.5849 254.01 60.9375 253.228 60.9375 252.308V251.25H57.4645C55.6092 251.25 54.6815 251.986 54.6815 253.458C54.6815 254.117 54.9115 254.639 55.3715 255.022C55.8469 255.405 56.5139 255.597 57.3725 255.597ZM73.7863 257L70.9113 252.147H70.0833L67.1393 257H65.0003L68.6113 251.066L65.3683 245.408H67.4383L70.1063 250.008H70.9343L73.6483 245.408H75.6953L72.4063 250.997L75.9943 257H73.7863ZM81.0947 257H78.3347V245.408H80.2437V254.378H80.7497L85.8327 245.408H88.6847V257H86.7757V248.03H86.2697L81.0947 257ZM99.9146 253.504H101.87C101.64 254.669 101.095 255.597 100.237 256.287C99.3933 256.962 98.3123 257.299 96.9936 257.299C95.2456 257.299 93.8656 256.732 92.8536 255.597C91.857 254.447 91.3586 252.983 91.3586 251.204C91.3586 249.41 91.857 247.946 92.8536 246.811C93.8503 245.676 95.2303 245.109 96.9936 245.109C98.3276 245.109 99.4086 245.446 100.237 246.121C101.08 246.78 101.601 247.662 101.801 248.766H99.8456C99.4316 247.463 98.481 246.811 96.9936 246.811C95.7516 246.811 94.824 247.225 94.2106 248.053C93.6126 248.866 93.3136 249.901 93.3136 251.158C93.3136 252.431 93.6203 253.489 94.2336 254.332C94.847 255.175 95.767 255.597 96.9936 255.597C98.619 255.597 99.5926 254.899 99.9146 253.504ZM105.429 257H104.279V254.332H106.671V257.437L105.383 259.645H104.141L105.429 257.437V257ZM123.947 257L121.371 251.894H117.898V257H115.943V245.408H117.898V250.192H121.417L123.832 245.408H125.879L123.05 250.997L126.04 257H123.947ZM131.55 261.6H129.572L131.964 255.919L127.019 245.408H129.112L132.654 253.044H133.229L136.449 245.408H138.496L131.55 261.6ZM145.973 246.811C144.761 246.811 143.849 247.233 143.236 248.076C142.638 248.919 142.339 249.962 142.339 251.204C142.339 252.446 142.638 253.489 143.236 254.332C143.849 255.175 144.761 255.597 145.973 255.597C147.107 255.597 147.981 255.198 148.595 254.401C149.223 253.588 149.538 252.523 149.538 251.204C149.538 249.885 149.223 248.827 148.595 248.03C147.981 247.217 147.107 246.811 145.973 246.811ZM140.407 245.408H142.293V246.65H142.799C143.627 245.623 144.83 245.109 146.41 245.109C147.974 245.109 149.208 245.684 150.113 246.834C151.033 247.984 151.493 249.441 151.493 251.204C151.493 252.998 151.033 254.462 150.113 255.597C149.208 256.732 147.974 257.299 146.41 257.299C144.815 257.299 143.634 256.785 142.868 255.758H142.362V261.6H140.407V245.408ZM161.549 257V255.781H161.043C160.246 256.793 159.042 257.299 157.432 257.299C156.159 257.299 155.147 256.931 154.396 256.195C153.645 255.459 153.269 254.57 153.269 253.527C153.269 252.469 153.637 251.564 154.373 250.813C155.109 250.062 156.221 249.686 157.708 249.686H161.48V249.226C161.48 248.49 161.25 247.907 160.79 247.478C160.33 247.033 159.617 246.811 158.651 246.811C156.964 246.811 156.067 247.371 155.96 248.49H154.005C154.082 247.432 154.534 246.604 155.362 246.006C156.205 245.408 157.286 245.109 158.605 245.109C160.092 245.109 161.258 245.454 162.101 246.144C162.96 246.834 163.389 247.823 163.389 249.111V257H161.549ZM157.915 255.597C158.881 255.597 159.717 255.283 160.422 254.654C161.127 254.01 161.48 253.228 161.48 252.308V251.25H158.007C156.152 251.25 155.224 251.986 155.224 253.458C155.224 254.117 155.454 254.639 155.914 255.022C156.389 255.405 157.056 255.597 157.915 255.597ZM166.578 257V245.408H175.272V247.11H168.533V257H166.578ZM184.531 257V255.781H184.025C183.227 256.793 182.024 257.299 180.414 257.299C179.141 257.299 178.129 256.931 177.378 256.195C176.626 255.459 176.251 254.57 176.251 253.527C176.251 252.469 176.619 251.564 177.355 250.813C178.091 250.062 179.202 249.686 180.69 249.686H184.462V249.226C184.462 248.49 184.232 247.907 183.772 247.478C183.312 247.033 182.599 246.811 181.633 246.811C179.946 246.811 179.049 247.371 178.942 248.49H176.987C177.063 247.432 177.516 246.604 178.344 246.006C179.187 245.408 180.268 245.109 181.587 245.109C183.074 245.109 184.239 245.454 185.083 246.144C185.941 246.834 186.371 247.823 186.371 249.111V257H184.531ZM180.897 255.597C181.863 255.597 182.698 255.283 183.404 254.654C184.109 254.01 184.462 253.228 184.462 252.308V251.25H180.989C179.133 251.25 178.206 251.986 178.206 253.458C178.206 254.117 178.436 254.639 178.896 255.022C179.371 255.405 180.038 255.597 180.897 255.597ZM190.594 257H189.444V254.332H191.836V257.437L190.548 259.645H189.306L190.594 257.437V257ZM201.914 246.834C202.941 245.684 204.336 245.109 206.1 245.109C207.863 245.109 209.251 245.684 210.263 246.834C211.29 247.984 211.804 249.441 211.804 251.204C211.804 252.967 211.29 254.424 210.263 255.574C209.251 256.724 207.863 257.299 206.1 257.299C204.336 257.299 202.941 256.724 201.914 255.574C200.902 254.424 200.396 252.967 200.396 251.204C200.396 249.441 200.902 247.984 201.914 246.834ZM203.317 254.332C203.961 255.175 204.888 255.597 206.1 255.597C207.311 255.597 208.239 255.175 208.883 254.332C209.527 253.473 209.849 252.431 209.849 251.204C209.849 249.977 209.527 248.942 208.883 248.099C208.239 247.24 207.311 246.811 206.1 246.811C204.888 246.811 203.961 247.24 203.317 248.099C202.673 248.942 202.351 249.977 202.351 251.204C202.351 252.431 202.673 253.473 203.317 254.332ZM219.754 245.523C221.456 245.523 222.797 246.083 223.779 247.202C224.76 248.306 225.251 249.709 225.251 251.411C225.251 253.098 224.729 254.501 223.687 255.62C222.659 256.739 221.272 257.299 219.524 257.299C217.684 257.299 216.258 256.693 215.246 255.482C214.249 254.271 213.751 252.538 213.751 250.284C213.751 249.41 213.774 248.628 213.82 247.938C213.881 247.248 214.004 246.527 214.188 245.776C214.387 245.025 214.648 244.388 214.97 243.867C215.292 243.33 215.736 242.863 216.304 242.464C216.871 242.065 217.546 241.805 218.328 241.682L221.41 241.176C221.839 241.115 222.123 241.03 222.261 240.923C222.414 240.816 222.506 240.601 222.537 240.279H224.354C224.323 241 224.147 241.575 223.825 242.004C223.503 242.418 222.92 242.702 222.077 242.855L218.512 243.453C217.546 243.622 216.833 244.028 216.373 244.672C215.928 245.301 215.637 246.144 215.499 247.202H216.005C216.48 246.573 217.009 246.136 217.592 245.891C218.19 245.646 218.91 245.523 219.754 245.523ZM216.672 254.378C217.331 255.191 218.266 255.597 219.478 255.597C220.689 255.597 221.617 255.191 222.261 254.378C222.92 253.55 223.25 252.553 223.25 251.388C223.25 250.223 222.92 249.234 222.261 248.421C221.617 247.608 220.689 247.202 219.478 247.202C218.266 247.202 217.331 247.608 216.672 248.421C216.028 249.234 215.706 250.223 215.706 251.388C215.706 252.553 216.028 253.55 216.672 254.378ZM226.373 257V255.16H226.764C227.577 255.16 228.159 254.784 228.512 254.033C228.865 253.266 229.041 251.886 229.041 249.893V245.408H237.919V257H235.941V247.11H230.858V249.939C230.858 252.561 230.536 254.393 229.892 255.436C229.263 256.479 228.221 257 226.764 257H226.373ZM251.337 250.514V251.181H242.505C242.536 252.576 242.865 253.665 243.494 254.447C244.123 255.214 245.027 255.597 246.208 255.597C247.803 255.597 248.784 254.999 249.152 253.803H251.13C250.931 254.846 250.402 255.689 249.543 256.333C248.7 256.977 247.588 257.299 246.208 257.299C244.445 257.299 243.065 256.724 242.068 255.574C241.071 254.424 240.573 252.929 240.573 251.089C240.573 249.28 241.071 247.831 242.068 246.742C243.065 245.653 244.429 245.109 246.162 245.109C247.803 245.109 249.068 245.63 249.957 246.673C250.846 247.7 251.306 248.981 251.337 250.514ZM246.116 246.811C245.119 246.811 244.322 247.072 243.724 247.593C243.126 248.099 242.758 248.751 242.62 249.548H249.313C249.252 248.766 248.937 248.114 248.37 247.593C247.803 247.072 247.051 246.811 246.116 246.811ZM264.225 257H262.27V247.11H255.945V257H253.99V245.408H264.225V257ZM270.374 257H267.614V245.408H269.523V254.378H270.029L275.112 245.408H277.964V257H276.055V248.03H275.549L270.374 257ZM289.102 257L286.227 252.147H285.399L282.455 257H280.316L283.927 251.066L280.684 245.408H282.754L285.422 250.008H286.25L288.964 245.408H291.011L287.722 250.997L291.31 257H289.102ZM301.034 257V255.781H300.528C299.73 256.793 298.527 257.299 296.917 257.299C295.644 257.299 294.632 256.931 293.881 256.195C293.129 255.459 292.754 254.57 292.754 253.527C292.754 252.469 293.122 251.564 293.858 250.813C294.594 250.062 295.705 249.686 297.193 249.686H300.965V249.226C300.965 248.49 300.735 247.907 300.275 247.478C299.815 247.033 299.102 246.811 298.136 246.811C296.449 246.811 295.552 247.371 295.445 248.49H293.49C293.566 247.432 294.019 246.604 294.847 246.006C295.69 245.408 296.771 245.109 298.09 245.109C299.577 245.109 300.742 245.454 301.586 246.144C302.444 246.834 302.874 247.823 302.874 249.111V257H301.034ZM297.4 255.597C298.366 255.597 299.201 255.283 299.907 254.654C300.612 254.01 300.965 253.228 300.965 252.308V251.25H297.492C295.636 251.25 294.709 251.986 294.709 253.458C294.709 254.117 294.939 254.639 295.399 255.022C295.874 255.405 296.541 255.597 297.4 255.597ZM308.34 257H305.948V254.332H308.34V257Z" fill="black"/>
<rect x="0.408203" y="300" width="600" height="300" fill="#C4C4C4"/>
</g>
<defs>
<clipPath id="clip0_1526_4925">
<rect width="600" height="600" fill="white" transform="translate(0.408203)"/>
</clipPath>
</defs>
</svg>
