<svg width="596" height="842" viewBox="0 0 596 842" fill="none" xmlns="http://www.w3.org/2000/svg">
<g clip-path="url(#clip0_1526_5081)">
<rect width="595" height="842" transform="translate(0.408203)" fill="white"/>
<rect x="0.408203" y="421" width="595" height="421" fill="#C4C4C4"/>
<path d="M27.0679 213.469H36.5059V225.25H35.0209V214.822H28.5529V225.25H27.0679V213.469ZM39.6559 217.957C40.3929 217.132 41.3939 216.719 42.6589 216.719C43.9239 216.719 44.9194 217.132 45.6454 217.957C46.3824 218.782 46.7509 219.827 46.7509 221.092C46.7509 222.357 46.3824 223.402 45.6454 224.227C44.9194 225.052 43.9239 225.465 42.6589 225.465C41.3939 225.465 40.3929 225.052 39.6559 224.227C38.9299 223.402 38.5669 222.357 38.5669 221.092C38.5669 219.827 38.9299 218.782 39.6559 217.957ZM40.6624 223.336C41.1244 223.941 41.7899 224.243 42.6589 224.243C43.5279 224.243 44.1934 223.941 44.6554 223.336C45.1174 222.72 45.3484 221.972 45.3484 221.092C45.3484 220.212 45.1174 219.469 44.6554 218.864C44.1934 218.248 43.5279 217.94 42.6589 217.94C41.7899 217.94 41.1244 218.248 40.6624 218.864C40.2004 219.469 39.9694 220.212 39.9694 221.092C39.9694 221.972 40.2004 222.72 40.6624 223.336ZM54.2857 222.742H55.6882C55.5232 223.578 55.1327 224.243 54.5167 224.738C53.9117 225.222 53.1362 225.465 52.1902 225.465C50.9362 225.465 49.9462 225.057 49.2202 224.243C48.5052 223.418 48.1477 222.368 48.1477 221.092C48.1477 219.805 48.5052 218.754 49.2202 217.94C49.9352 217.126 50.9252 216.719 52.1902 216.719C53.1472 216.719 53.9227 216.961 54.5167 217.445C55.1217 217.918 55.4957 218.551 55.6387 219.343H54.2362C53.9392 218.408 53.2572 217.94 52.1902 217.94C51.2992 217.94 50.6337 218.237 50.1937 218.831C49.7647 219.414 49.5502 220.157 49.5502 221.059C49.5502 221.972 49.7702 222.731 50.2102 223.336C50.6502 223.941 51.3102 224.243 52.1902 224.243C53.3562 224.243 54.0547 223.743 54.2857 222.742ZM63.2408 225.25L61.3928 221.587H58.9013V225.25H57.4988V216.934H58.9013V220.366H61.4258L63.1583 216.934H64.6268L62.5973 220.943L64.7423 225.25H63.2408ZM66.787 217.957C67.524 217.132 68.525 216.719 69.79 216.719C71.055 216.719 72.0505 217.132 72.7765 217.957C73.5135 218.782 73.882 219.827 73.882 221.092C73.882 222.357 73.5135 223.402 72.7765 224.227C72.0505 225.052 71.055 225.465 69.79 225.465C68.525 225.465 67.524 225.052 66.787 224.227C66.061 223.402 65.698 222.357 65.698 221.092C65.698 219.827 66.061 218.782 66.787 217.957ZM67.7935 223.336C68.2555 223.941 68.921 224.243 69.79 224.243C70.659 224.243 71.3245 223.941 71.7865 223.336C72.2485 222.72 72.4795 221.972 72.4795 221.092C72.4795 220.212 72.2485 219.469 71.7865 218.864C71.3245 218.248 70.659 217.94 69.79 217.94C68.921 217.94 68.2555 218.248 67.7935 218.864C67.3315 219.469 67.1005 220.212 67.1005 221.092C67.1005 221.972 67.3315 222.72 67.7935 223.336ZM74.8498 225.25V223.93H75.1303C75.7133 223.93 76.1313 223.66 76.3843 223.121C76.6373 222.571 76.7638 221.581 76.7638 220.151V216.934H83.1328V225.25H81.7138V218.155H78.0673V220.184C78.0673 222.065 77.8363 223.38 77.3743 224.128C76.9233 224.876 76.1753 225.25 75.1303 225.25H74.8498ZM86.9509 216.934V219.706H89.4094C90.4104 219.706 91.1804 219.948 91.7194 220.432C92.2694 220.916 92.5444 221.592 92.5444 222.461C92.5444 223.341 92.2694 224.029 91.7194 224.524C91.1804 225.008 90.4104 225.25 89.4094 225.25H85.5484V216.934H86.9509ZM86.9509 224.029H89.2114C89.9044 224.029 90.3994 223.897 90.6964 223.633C90.9934 223.369 91.1419 222.978 91.1419 222.461C91.1419 221.944 90.9934 221.554 90.6964 221.29C90.3994 221.026 89.9044 220.894 89.2114 220.894H86.9509V224.029ZM100.001 225.25L98.1531 221.587H95.6616V225.25H94.2591V216.934H95.6616V220.366H98.1861L99.9186 216.934H101.387L99.3576 220.943L101.503 225.25H100.001ZM105.456 228.55H104.037L105.753 224.474L102.205 216.934H103.707L106.248 222.412H106.66L108.97 216.934H110.439L105.456 228.55ZM121.979 220.663V221.026C122.386 221.125 122.71 221.345 122.952 221.686C123.205 222.027 123.332 222.456 123.332 222.973C123.332 224.491 122.353 225.25 120.395 225.25H116.121V216.934H120.246C121.082 216.934 121.726 217.121 122.177 217.495C122.639 217.858 122.87 218.369 122.87 219.029C122.87 219.414 122.782 219.75 122.606 220.036C122.441 220.322 122.232 220.531 121.979 220.663ZM117.507 224.062H120.312C121.39 224.062 121.929 223.649 121.929 222.825C121.929 221.988 121.39 221.57 120.312 221.57H117.507V224.062ZM117.507 218.122V220.382H120.114C120.587 220.382 120.928 220.278 121.137 220.069C121.357 219.86 121.467 219.59 121.467 219.26C121.467 218.501 121.016 218.122 120.114 218.122H117.507ZM127.215 225.25H125.235V216.934H126.604V223.369H126.967L130.614 216.934H132.66V225.25H131.29V218.815H130.927L127.215 225.25ZM134.232 218.155V216.934H141.393V218.155H138.522V225.25H137.119V218.155H134.232ZM148.259 225.25V224.375H147.896C147.324 225.101 146.46 225.465 145.305 225.465C144.392 225.465 143.666 225.201 143.127 224.672C142.588 224.144 142.319 223.506 142.319 222.758C142.319 221.999 142.583 221.35 143.111 220.811C143.639 220.272 144.436 220.003 145.503 220.003H148.209V219.673C148.209 219.145 148.044 218.727 147.714 218.419C147.384 218.1 146.873 217.94 146.18 217.94C144.97 217.94 144.326 218.342 144.249 219.145H142.847C142.902 218.386 143.226 217.792 143.82 217.363C144.425 216.934 145.201 216.719 146.147 216.719C147.214 216.719 148.05 216.967 148.655 217.462C149.271 217.957 149.579 218.666 149.579 219.59V225.25H148.259ZM145.652 224.243C146.345 224.243 146.944 224.018 147.45 223.567C147.956 223.105 148.209 222.544 148.209 221.884V221.125H145.718C144.387 221.125 143.721 221.653 143.721 222.709C143.721 223.182 143.886 223.556 144.216 223.831C144.557 224.106 145.036 224.243 145.652 224.243ZM151.866 225.25V216.934H154.094L156.14 220.729H156.503L158.549 216.934H160.743V225.25H159.374V218.567H159.011L157.08 222.131H155.529L153.599 218.567H153.236V225.25H151.866ZM165.151 225.25H163.171V216.934H164.541V223.369H164.904L168.55 216.934H170.596V225.25H169.227V218.815H168.864L165.151 225.25ZM180.435 225.25H179.032V221.587H174.429V225.25H173.026V216.934H174.429V220.366H179.032V216.934H180.435V225.25ZM188.81 223.897H195.79V225.25H187.325V213.469H195.526V214.822H188.81V218.468H194.222V219.821H188.81V223.897ZM204.331 221.603L202.731 225.25H201.262L203.143 220.976L201.378 216.934H202.83L204.331 220.382H206.46V216.934H207.813V220.382H209.941L211.443 216.934H212.895L211.129 220.976L213.027 225.25H211.542L209.941 221.603H207.813V225.25H206.46V221.603H204.331ZM216.707 225.25H214.727V216.934H216.096V223.369H216.459L220.106 216.934H222.152V225.25H220.782V218.815H220.419L216.707 225.25ZM228.574 217.94C227.705 217.94 227.051 218.243 226.611 218.848C226.182 219.453 225.967 220.201 225.967 221.092C225.967 221.983 226.182 222.731 226.611 223.336C227.051 223.941 227.705 224.243 228.574 224.243C229.388 224.243 230.015 223.957 230.455 223.385C230.906 222.802 231.132 222.038 231.132 221.092C231.132 220.146 230.906 219.387 230.455 218.815C230.015 218.232 229.388 217.94 228.574 217.94ZM224.581 216.934H225.934V217.825H226.297C226.891 217.088 227.755 216.719 228.888 216.719C230.01 216.719 230.895 217.132 231.544 217.957C232.204 218.782 232.534 219.827 232.534 221.092C232.534 222.379 232.204 223.429 231.544 224.243C230.895 225.057 230.01 225.465 228.888 225.465C227.744 225.465 226.897 225.096 226.347 224.359H225.984V228.55H224.581V216.934ZM235.03 217.957C235.767 217.132 236.768 216.719 238.033 216.719C239.298 216.719 240.293 217.132 241.019 217.957C241.756 218.782 242.125 219.827 242.125 221.092C242.125 222.357 241.756 223.402 241.019 224.227C240.293 225.052 239.298 225.465 238.033 225.465C236.768 225.465 235.767 225.052 235.03 224.227C234.304 223.402 233.941 222.357 233.941 221.092C233.941 219.827 234.304 218.782 235.03 217.957ZM236.036 223.336C236.498 223.941 237.164 224.243 238.033 224.243C238.902 224.243 239.567 223.941 240.029 223.336C240.491 222.72 240.722 221.972 240.722 221.092C240.722 220.212 240.491 219.469 240.029 218.864C239.567 218.248 238.902 217.94 238.033 217.94C237.164 217.94 236.498 218.248 236.036 218.864C235.574 219.469 235.343 220.212 235.343 221.092C235.343 221.972 235.574 222.72 236.036 223.336ZM248.026 217.94C247.157 217.94 246.503 218.243 246.063 218.848C245.634 219.453 245.419 220.201 245.419 221.092C245.419 221.983 245.634 222.731 246.063 223.336C246.503 223.941 247.157 224.243 248.026 224.243C248.84 224.243 249.467 223.957 249.907 223.385C250.358 222.802 250.584 222.038 250.584 221.092C250.584 220.146 250.358 219.387 249.907 218.815C249.467 218.232 248.84 217.94 248.026 217.94ZM244.033 216.934H245.386V217.825H245.749C246.343 217.088 247.207 216.719 248.34 216.719C249.462 216.719 250.347 217.132 250.996 217.957C251.656 218.782 251.986 219.827 251.986 221.092C251.986 222.379 251.656 223.429 250.996 224.243C250.347 225.057 249.462 225.465 248.34 225.465C247.196 225.465 246.349 225.096 245.799 224.359H245.436V228.55H244.033V216.934ZM259.2 225.25V224.375H258.837C258.265 225.101 257.402 225.465 256.247 225.465C255.334 225.465 254.608 225.201 254.069 224.672C253.53 224.144 253.26 223.506 253.26 222.758C253.26 221.999 253.524 221.35 254.052 220.811C254.58 220.272 255.378 220.003 256.445 220.003H259.151V219.673C259.151 219.145 258.986 218.727 258.656 218.419C258.326 218.1 257.814 217.94 257.121 217.94C255.911 217.94 255.268 218.342 255.191 219.145H253.788C253.843 218.386 254.168 217.792 254.762 217.363C255.367 216.934 256.142 216.719 257.088 216.719C258.155 216.719 258.991 216.967 259.596 217.462C260.212 217.957 260.52 218.666 260.52 219.59V225.25H259.2ZM256.593 224.243C257.286 224.243 257.886 224.018 258.392 223.567C258.898 223.105 259.151 222.544 259.151 221.884V221.125H256.659C255.328 221.125 254.663 221.653 254.663 222.709C254.663 223.182 254.828 223.556 255.158 223.831C255.499 224.106 255.977 224.243 256.593 224.243ZM268.435 222.742H269.837C269.672 223.578 269.282 224.243 268.666 224.738C268.061 225.222 267.285 225.465 266.339 225.465C265.085 225.465 264.095 225.057 263.369 224.243C262.654 223.418 262.297 222.368 262.297 221.092C262.297 219.805 262.654 218.754 263.369 217.94C264.084 217.126 265.074 216.719 266.339 216.719C267.296 216.719 268.072 216.961 268.666 217.445C269.271 217.918 269.645 218.551 269.788 219.343H268.385C268.088 218.408 267.406 217.94 266.339 217.94C265.448 217.94 264.783 218.237 264.343 218.831C263.914 219.414 263.699 220.157 263.699 221.059C263.699 221.972 263.919 222.731 264.359 223.336C264.799 223.941 265.459 224.243 266.339 224.243C267.505 224.243 268.204 223.743 268.435 222.742ZM270.79 218.155V216.934H277.951V218.155H275.08V225.25H273.677V218.155H270.79ZM285.378 220.663V221.026C285.785 221.125 286.109 221.345 286.351 221.686C286.604 222.027 286.731 222.456 286.731 222.973C286.731 224.491 285.752 225.25 283.794 225.25H279.52V216.934H283.645C284.481 216.934 285.125 217.121 285.576 217.495C286.038 217.858 286.269 218.369 286.269 219.029C286.269 219.414 286.181 219.75 286.005 220.036C285.84 220.322 285.631 220.531 285.378 220.663ZM280.906 224.062H283.711C284.789 224.062 285.328 223.649 285.328 222.825C285.328 221.988 284.789 221.57 283.711 221.57H280.906V224.062ZM280.906 218.122V220.382H283.513C283.986 220.382 284.327 220.278 284.536 220.069C284.756 219.86 284.866 219.59 284.866 219.26C284.866 218.501 284.415 218.122 283.513 218.122H280.906ZM289.212 217.957C289.949 217.132 290.95 216.719 292.215 216.719C293.48 216.719 294.475 217.132 295.201 217.957C295.938 218.782 296.307 219.827 296.307 221.092C296.307 222.357 295.938 223.402 295.201 224.227C294.475 225.052 293.48 225.465 292.215 225.465C290.95 225.465 289.949 225.052 289.212 224.227C288.486 223.402 288.123 222.357 288.123 221.092C288.123 219.827 288.486 218.782 289.212 217.957ZM290.218 223.336C290.68 223.941 291.346 224.243 292.215 224.243C293.084 224.243 293.749 223.941 294.211 223.336C294.673 222.72 294.904 221.972 294.904 221.092C294.904 220.212 294.673 219.469 294.211 218.864C293.749 218.248 293.084 217.94 292.215 217.94C291.346 217.94 290.68 218.248 290.218 218.864C289.756 219.469 289.525 220.212 289.525 221.092C289.525 221.972 289.756 222.72 290.218 223.336ZM302.208 217.94C301.339 217.94 300.684 218.243 300.244 218.848C299.815 219.453 299.601 220.201 299.601 221.092C299.601 221.983 299.815 222.731 300.244 223.336C300.684 223.941 301.339 224.243 302.208 224.243C303.022 224.243 303.649 223.957 304.089 223.385C304.54 222.802 304.765 222.038 304.765 221.092C304.765 220.146 304.54 219.387 304.089 218.815C303.649 218.232 303.022 217.94 302.208 217.94ZM298.215 216.934H299.568V217.825H299.931C300.525 217.088 301.388 216.719 302.521 216.719C303.643 216.719 304.529 217.132 305.178 217.957C305.838 218.782 306.168 219.827 306.168 221.092C306.168 222.379 305.838 223.429 305.178 224.243C304.529 225.057 303.643 225.465 302.521 225.465C301.377 225.465 300.53 225.096 299.98 224.359H299.617V228.55H298.215V216.934ZM310.066 225.25H308.086V216.934H309.455V223.369H309.818L313.465 216.934H315.511V225.25H314.141V218.815H313.778L310.066 225.25ZM317.94 225.25V216.934H320.168L322.214 220.729H322.577L324.623 216.934H326.817V225.25H325.448V218.567H325.085L323.154 222.131H321.603L319.673 218.567H319.31V225.25H317.94ZM329.988 225.25H329.163V223.336H330.879V225.564L329.955 227.148H329.064L329.988 225.564V225.25ZM32.7769 241.663V242.026C33.1839 242.125 33.5084 242.345 33.7504 242.686C34.0034 243.027 34.1299 243.456 34.1299 243.973C34.1299 245.491 33.1509 246.25 31.1929 246.25H26.9194V237.934H31.0444C31.8804 237.934 32.5239 238.121 32.9749 238.495C33.4369 238.858 33.6679 239.369 33.6679 240.029C33.6679 240.414 33.5799 240.75 33.4039 241.036C33.2389 241.322 33.0299 241.531 32.7769 241.663ZM28.3054 245.062H31.1104C32.1884 245.062 32.7274 244.649 32.7274 243.825C32.7274 242.988 32.1884 242.57 31.1104 242.57H28.3054V245.062ZM28.3054 239.122V241.382H30.9124C31.3854 241.382 31.7264 241.278 31.9354 241.069C32.1554 240.86 32.2654 240.59 32.2654 240.26C32.2654 239.501 31.8144 239.122 30.9124 239.122H28.3054ZM40.9222 238.957C41.6592 238.132 42.6602 237.719 43.9252 237.719C45.1902 237.719 46.1857 238.132 46.9117 238.957C47.6487 239.782 48.0172 240.827 48.0172 242.092C48.0172 243.357 47.6487 244.402 46.9117 245.227C46.1857 246.052 45.1902 246.465 43.9252 246.465C42.6602 246.465 41.6592 246.052 40.9222 245.227C40.1962 244.402 39.8332 243.357 39.8332 242.092C39.8332 240.827 40.1962 239.782 40.9222 238.957ZM41.9287 244.336C42.3907 244.941 43.0562 245.243 43.9252 245.243C44.7942 245.243 45.4597 244.941 45.9217 244.336C46.3837 243.72 46.6147 242.972 46.6147 242.092C46.6147 241.212 46.3837 240.469 45.9217 239.864C45.4597 239.248 44.7942 238.94 43.9252 238.94C43.0562 238.94 42.3907 239.248 41.9287 239.864C41.4667 240.469 41.2357 241.212 41.2357 242.092C41.2357 242.972 41.4667 243.72 41.9287 244.336ZM55.5521 243.742H56.9546C56.7896 244.578 56.3991 245.243 55.7831 245.738C55.1781 246.222 54.4026 246.465 53.4566 246.465C52.2026 246.465 51.2126 246.057 50.4866 245.243C49.7716 244.418 49.4141 243.368 49.4141 242.092C49.4141 240.805 49.7716 239.754 50.4866 238.94C51.2016 238.126 52.1916 237.719 53.4566 237.719C54.4136 237.719 55.1891 237.961 55.7831 238.445C56.3881 238.918 56.7621 239.551 56.9051 240.343H55.5026C55.2056 239.408 54.5236 238.94 53.4566 238.94C52.5656 238.94 51.9001 239.237 51.4601 239.831C51.0311 240.414 50.8166 241.157 50.8166 242.059C50.8166 242.972 51.0366 243.731 51.4766 244.336C51.9166 244.941 52.5766 245.243 53.4566 245.243C54.6226 245.243 55.3211 244.743 55.5521 243.742ZM66.1737 246.25H64.7712V242.587H60.1677V246.25H58.7652V237.934H60.1677V241.366H64.7712V237.934H66.1737V246.25ZM69.1813 238.957C69.9183 238.132 70.9193 237.719 72.1843 237.719C73.4493 237.719 74.4448 238.132 75.1708 238.957C75.9078 239.782 76.2763 240.827 76.2763 242.092C76.2763 243.357 75.9078 244.402 75.1708 245.227C74.4448 246.052 73.4493 246.465 72.1843 246.465C70.9193 246.465 69.9183 246.052 69.1813 245.227C68.4553 244.402 68.0923 243.357 68.0923 242.092C68.0923 240.827 68.4553 239.782 69.1813 238.957ZM70.1878 244.336C70.6498 244.941 71.3153 245.243 72.1843 245.243C73.0533 245.243 73.7188 244.941 74.1808 244.336C74.6428 243.72 74.8738 242.972 74.8738 242.092C74.8738 241.212 74.6428 240.469 74.1808 239.864C73.7188 239.248 73.0533 238.94 72.1843 238.94C71.3153 238.94 70.6498 239.248 70.1878 239.864C69.7258 240.469 69.4948 241.212 69.4948 242.092C69.4948 242.972 69.7258 243.72 70.1878 244.336ZM84.0421 241.663V242.026C84.4492 242.125 84.7737 242.345 85.0157 242.686C85.2687 243.027 85.3952 243.456 85.3952 243.973C85.3952 245.491 84.4162 246.25 82.4582 246.25H78.1846V237.934H82.3097C83.1457 237.934 83.7892 238.121 84.2402 238.495C84.7022 238.858 84.9332 239.369 84.9332 240.029C84.9332 240.414 84.8452 240.75 84.6692 241.036C84.5042 241.322 84.2951 241.531 84.0421 241.663ZM79.5706 245.062H82.3757C83.4537 245.062 83.9927 244.649 83.9927 243.825C83.9927 242.988 83.4537 242.57 82.3757 242.57H79.5706V245.062ZM79.5706 239.122V241.382H82.1776C82.6506 241.382 82.9916 241.278 83.2006 241.069C83.4207 240.86 83.5307 240.59 83.5307 240.26C83.5307 239.501 83.0796 239.122 82.1776 239.122H79.5706ZM94.7067 246.25H93.3042V242.587H88.7007V246.25H87.2982V237.934H88.7007V241.366H93.3042V237.934H94.7067V246.25ZM97.7143 238.957C98.4513 238.132 99.4523 237.719 100.717 237.719C101.982 237.719 102.978 238.132 103.704 238.957C104.441 239.782 104.809 240.827 104.809 242.092C104.809 243.357 104.441 244.402 103.704 245.227C102.978 246.052 101.982 246.465 100.717 246.465C99.4523 246.465 98.4513 246.052 97.7143 245.227C96.9883 244.402 96.6253 243.357 96.6253 242.092C96.6253 240.827 96.9883 239.782 97.7143 238.957ZM98.7208 244.336C99.1828 244.941 99.8483 245.243 100.717 245.243C101.586 245.243 102.252 244.941 102.714 244.336C103.176 243.72 103.407 242.972 103.407 242.092C103.407 241.212 103.176 240.469 102.714 239.864C102.252 239.248 101.586 238.94 100.717 238.94C99.8483 238.94 99.1828 239.248 98.7208 239.864C98.2588 240.469 98.0278 241.212 98.0278 242.092C98.0278 242.972 98.2588 243.72 98.7208 244.336ZM106.718 246.25V237.934H108.945L110.991 241.729H111.354L113.4 237.934H115.595V246.25H114.225V239.567H113.862L111.932 243.131H110.381L108.45 239.567H108.087V246.25H106.718ZM122.912 238.957C123.649 238.132 124.65 237.719 125.915 237.719C127.18 237.719 128.175 238.132 128.901 238.957C129.638 239.782 130.007 240.827 130.007 242.092C130.007 243.357 129.638 244.402 128.901 245.227C128.175 246.052 127.18 246.465 125.915 246.465C124.65 246.465 123.649 246.052 122.912 245.227C122.186 244.402 121.823 243.357 121.823 242.092C121.823 240.827 122.186 239.782 122.912 238.957ZM123.918 244.336C124.38 244.941 125.046 245.243 125.915 245.243C126.784 245.243 127.449 244.941 127.911 244.336C128.373 243.72 128.604 242.972 128.604 242.092C128.604 241.212 128.373 240.469 127.911 239.864C127.449 239.248 126.784 238.94 125.915 238.94C125.046 238.94 124.38 239.248 123.918 239.864C123.456 240.469 123.225 241.212 123.225 242.092C123.225 242.972 123.456 243.72 123.918 244.336ZM139.324 246.25H137.921V242.587H133.318V246.25H131.915V237.934H133.318V241.366H137.921V237.934H139.324V246.25ZM151.692 243.742H153.095C152.93 244.578 152.539 245.243 151.923 245.738C151.318 246.222 150.543 246.465 149.597 246.465C148.343 246.465 147.353 246.057 146.627 245.243C145.912 244.418 145.554 243.368 145.554 242.092C145.554 240.805 145.912 239.754 146.627 238.94C147.342 238.126 148.332 237.719 149.597 237.719C150.554 237.719 151.329 237.961 151.923 238.445C152.528 238.918 152.902 239.551 153.045 240.343H151.643C151.346 239.408 150.664 238.94 149.597 238.94C148.706 238.94 148.04 239.237 147.6 239.831C147.171 240.414 146.957 241.157 146.957 242.059C146.957 242.972 147.177 243.731 147.617 244.336C148.057 244.941 148.717 245.243 149.597 245.243C150.763 245.243 151.461 244.743 151.692 243.742ZM155.483 238.957C156.22 238.132 157.221 237.719 158.486 237.719C159.751 237.719 160.746 238.132 161.472 238.957C162.209 239.782 162.578 240.827 162.578 242.092C162.578 243.357 162.209 244.402 161.472 245.227C160.746 246.052 159.751 246.465 158.486 246.465C157.221 246.465 156.22 246.052 155.483 245.227C154.757 244.402 154.394 243.357 154.394 242.092C154.394 240.827 154.757 239.782 155.483 238.957ZM156.489 244.336C156.951 244.941 157.617 245.243 158.486 245.243C159.355 245.243 160.02 244.941 160.482 244.336C160.944 243.72 161.175 242.972 161.175 242.092C161.175 241.212 160.944 240.469 160.482 239.864C160.02 239.248 159.355 238.94 158.486 238.94C157.617 238.94 156.951 239.248 156.489 239.864C156.027 240.469 155.796 241.212 155.796 242.092C155.796 242.972 156.027 243.72 156.489 244.336ZM171.895 245.029H173.429V248.61H172.06V246.25H164.866V248.61H163.496V245.029H164.602C165.284 243.577 165.625 241.971 165.625 240.211V237.934H171.895V245.029ZM170.492 245.029V239.155H166.928V240.211C166.928 242.092 166.626 243.698 166.021 245.029H170.492ZM182.18 241.597V242.075H175.844C175.866 243.076 176.102 243.857 176.553 244.418C177.004 244.968 177.653 245.243 178.5 245.243C179.644 245.243 180.348 244.814 180.612 243.956H182.031C181.888 244.704 181.509 245.309 180.893 245.771C180.288 246.233 179.49 246.465 178.5 246.465C177.235 246.465 176.245 246.052 175.53 245.227C174.815 244.402 174.458 243.329 174.458 242.01C174.458 240.711 174.815 239.672 175.53 238.891C176.245 238.11 177.224 237.719 178.467 237.719C179.644 237.719 180.552 238.093 181.19 238.841C181.828 239.578 182.158 240.497 182.18 241.597ZM178.434 238.94C177.719 238.94 177.147 239.127 176.718 239.501C176.289 239.864 176.025 240.332 175.926 240.904H180.728C180.684 240.343 180.458 239.875 180.051 239.501C179.644 239.127 179.105 238.94 178.434 238.94ZM188.076 238.94C187.207 238.94 186.552 239.243 186.112 239.848C185.683 240.453 185.469 241.201 185.469 242.092C185.469 242.983 185.683 243.731 186.112 244.336C186.552 244.941 187.207 245.243 188.076 245.243C188.89 245.243 189.517 244.957 189.957 244.385C190.408 243.802 190.633 243.038 190.633 242.092C190.633 241.146 190.408 240.387 189.957 239.815C189.517 239.232 188.89 238.94 188.076 238.94ZM184.083 237.934H185.436V238.825H185.799C186.393 238.088 187.256 237.719 188.389 237.719C189.511 237.719 190.397 238.132 191.046 238.957C191.706 239.782 192.036 240.827 192.036 242.092C192.036 243.379 191.706 244.429 191.046 245.243C190.397 246.057 189.511 246.465 188.389 246.465C187.245 246.465 186.398 246.096 185.848 245.359H185.485V249.55H184.083V237.934ZM196.313 242.603L194.713 246.25H193.244L195.125 241.976L193.36 237.934H194.812L196.313 241.382H198.442V237.934H199.795V241.382H201.923L203.425 237.934H204.877L203.111 241.976L205.009 246.25H203.524L201.923 242.603H199.795V246.25H198.442V242.603H196.313ZM208.689 246.25H206.709V237.934H208.078V244.369H208.441L212.088 237.934H214.134V246.25H212.764V239.815H212.401L208.689 246.25ZM215.706 239.155V237.934H222.867V239.155H219.996V246.25H218.593V239.155H215.706ZM229.934 243.742H231.336C231.171 244.578 230.781 245.243 230.165 245.738C229.56 246.222 228.784 246.465 227.838 246.465C226.584 246.465 225.594 246.057 224.868 245.243C224.153 244.418 223.796 243.368 223.796 242.092C223.796 240.805 224.153 239.754 224.868 238.94C225.583 238.126 226.573 237.719 227.838 237.719C228.795 237.719 229.571 237.961 230.165 238.445C230.77 238.918 231.144 239.551 231.287 240.343H229.884C229.587 239.408 228.905 238.94 227.838 238.94C226.947 238.94 226.282 239.237 225.842 239.831C225.413 240.414 225.198 241.157 225.198 242.059C225.198 242.972 225.418 243.731 225.858 244.336C226.298 244.941 226.958 245.243 227.838 245.243C229.004 245.243 229.703 244.743 229.934 243.742ZM235.837 237.934H239.978V246.25H238.559V242.966H236.035C235.815 242.966 235.644 242.961 235.523 242.95L234.269 246.25H232.801L234.203 242.636C233.345 242.229 232.916 241.503 232.916 240.458C232.916 239.655 233.164 239.034 233.659 238.594C234.165 238.154 234.891 237.934 235.837 237.934ZM238.559 239.122H235.985C235.38 239.122 234.951 239.237 234.698 239.468C234.445 239.699 234.319 240.035 234.319 240.475C234.319 240.904 234.445 241.228 234.698 241.448C234.951 241.668 235.38 241.778 235.985 241.778H238.559V239.122ZM252.559 241.663V242.026C252.966 242.125 253.29 242.345 253.532 242.686C253.785 243.027 253.912 243.456 253.912 243.973C253.912 245.491 252.933 246.25 250.975 246.25H246.701V237.934H250.826C251.662 237.934 252.306 238.121 252.757 238.495C253.219 238.858 253.45 239.369 253.45 240.029C253.45 240.414 253.362 240.75 253.186 241.036C253.021 241.322 252.812 241.531 252.559 241.663ZM248.087 245.062H250.892C251.97 245.062 252.509 244.649 252.509 243.825C252.509 242.988 251.97 242.57 250.892 242.57H248.087V245.062ZM248.087 239.122V241.382H250.694C251.167 241.382 251.508 241.278 251.717 241.069C251.937 240.86 252.047 240.59 252.047 240.26C252.047 239.501 251.596 239.122 250.694 239.122H248.087ZM262.486 242.603L260.886 246.25H259.417L261.298 241.976L259.533 237.934H260.985L262.486 241.382H264.615V237.934H265.968V241.382H268.096L269.598 237.934H271.05L269.284 241.976L271.182 246.25H269.697L268.096 242.603H265.968V246.25H264.615V242.603H262.486ZM274.862 246.25H272.882V237.934H274.251V244.369H274.614L278.261 237.934H280.307V246.25H278.937V239.815H278.574L274.862 246.25ZM286.73 238.94C285.861 238.94 285.206 239.243 284.766 239.848C284.337 240.453 284.123 241.201 284.123 242.092C284.123 242.983 284.337 243.731 284.766 244.336C285.206 244.941 285.861 245.243 286.73 245.243C287.544 245.243 288.171 244.957 288.611 244.385C289.062 243.802 289.287 243.038 289.287 242.092C289.287 241.146 289.062 240.387 288.611 239.815C288.171 239.232 287.544 238.94 286.73 238.94ZM282.737 237.934H284.09V238.825H284.453C285.047 238.088 285.91 237.719 287.043 237.719C288.165 237.719 289.051 238.132 289.7 238.957C290.36 239.782 290.69 240.827 290.69 242.092C290.69 243.379 290.36 244.429 289.7 245.243C289.051 246.057 288.165 246.465 287.043 246.465C285.899 246.465 285.052 246.096 284.502 245.359H284.139V249.55H282.737V237.934ZM297.904 246.25V245.375H297.541C296.969 246.101 296.105 246.465 294.95 246.465C294.037 246.465 293.311 246.201 292.772 245.672C292.233 245.144 291.964 244.506 291.964 243.758C291.964 242.999 292.228 242.35 292.756 241.811C293.284 241.272 294.081 241.003 295.148 241.003H297.854V240.673C297.854 240.145 297.689 239.727 297.359 239.419C297.029 239.1 296.518 238.94 295.825 238.94C294.615 238.94 293.971 239.342 293.894 240.145H292.492C292.547 239.386 292.871 238.792 293.465 238.363C294.07 237.934 294.846 237.719 295.792 237.719C296.859 237.719 297.695 237.967 298.3 238.462C298.916 238.957 299.224 239.666 299.224 240.59V246.25H297.904ZM295.297 245.243C295.99 245.243 296.589 245.018 297.095 244.567C297.601 244.105 297.854 243.544 297.854 242.884V242.125H295.363C294.032 242.125 293.366 242.653 293.366 243.709C293.366 244.182 293.531 244.556 293.861 244.831C294.202 245.106 294.681 245.243 295.297 245.243ZM307.072 246.25L305.01 242.768H304.416L302.304 246.25H300.769L303.36 241.993L301.033 237.934H302.518L304.432 241.234H305.026L306.973 237.934H308.442L306.082 241.943L308.656 246.25H307.072ZM311.077 246.25H310.252V244.336H311.968V246.564L311.044 248.148H310.153L311.077 246.564V246.25ZM32.2159 266.25V265.375H31.8529C31.2809 266.101 30.4174 266.465 29.2624 266.465C28.3494 266.465 27.6234 266.201 27.0844 265.672C26.5454 265.144 26.2759 264.506 26.2759 263.758C26.2759 262.999 26.5399 262.35 27.0679 261.811C27.5959 261.272 28.3934 261.003 29.4604 261.003H32.1664V260.673C32.1664 260.145 32.0014 259.727 31.6714 259.419C31.3414 259.1 30.8299 258.94 30.1369 258.94C28.9269 258.94 28.2834 259.342 28.2064 260.145H26.8039C26.8589 259.386 27.1834 258.792 27.7774 258.363C28.3824 257.934 29.1579 257.719 30.1039 257.719C31.1709 257.719 32.0069 257.967 32.6119 258.462C33.2279 258.957 33.5359 259.666 33.5359 260.59V266.25H32.2159ZM29.6089 265.243C30.3019 265.243 30.9014 265.018 31.4074 264.567C31.9134 264.105 32.1664 263.544 32.1664 262.884V262.125H29.6749C28.3439 262.125 27.6784 262.653 27.6784 263.709C27.6784 264.182 27.8434 264.556 28.1734 264.831C28.5144 265.106 28.9929 265.243 29.6089 265.243ZM45.7618 263.742H47.1643C46.9993 264.578 46.6088 265.243 45.9928 265.738C45.3878 266.222 44.6123 266.465 43.6663 266.465C42.4123 266.465 41.4223 266.057 40.6963 265.243C39.9813 264.418 39.6238 263.368 39.6238 262.092C39.6238 260.805 39.9813 259.754 40.6963 258.94C41.4113 258.126 42.4013 257.719 43.6663 257.719C44.6233 257.719 45.3988 257.961 45.9928 258.445C46.5978 258.918 46.9718 259.551 47.1148 260.343H45.7123C45.4153 259.408 44.7333 258.94 43.6663 258.94C42.7753 258.94 42.1098 259.237 41.6698 259.831C41.2408 260.414 41.0263 261.157 41.0263 262.059C41.0263 262.972 41.2463 263.731 41.6863 264.336C42.1263 264.941 42.7863 265.243 43.6663 265.243C44.8323 265.243 45.5308 264.743 45.7618 263.742ZM54.2714 266.25V265.375H53.9084C53.3364 266.101 52.4729 266.465 51.3179 266.465C50.4049 266.465 49.6789 266.201 49.1399 265.672C48.6009 265.144 48.3314 264.506 48.3314 263.758C48.3314 262.999 48.5954 262.35 49.1234 261.811C49.6514 261.272 50.4489 261.003 51.5159 261.003H54.2219V260.673C54.2219 260.145 54.0569 259.727 53.7269 259.419C53.3969 259.1 52.8854 258.94 52.1924 258.94C50.9824 258.94 50.3389 259.342 50.2619 260.145H48.8594C48.9144 259.386 49.2389 258.792 49.8329 258.363C50.4379 257.934 51.2134 257.719 52.1594 257.719C53.2264 257.719 54.0624 257.967 54.6674 258.462C55.2834 258.957 55.5914 259.666 55.5914 260.59V266.25H54.2714ZM51.6644 265.243C52.3574 265.243 52.9569 265.018 53.4629 264.567C53.9689 264.105 54.2219 263.544 54.2219 262.884V262.125H51.7304C50.3994 262.125 49.7339 262.653 49.7339 263.709C49.7339 264.182 49.8989 264.556 50.2289 264.831C50.5699 265.106 51.0484 265.243 51.6644 265.243ZM57.8789 266.25V257.934H60.1064L62.1524 261.729H62.5154L64.5614 257.934H66.7559V266.25H65.3864V259.567H65.0235L63.093 263.131H61.5419L59.6114 259.567H59.2484V266.25H57.8789ZM69.1839 257.934H70.5864V260.706H72.8799C73.8809 260.706 74.6509 260.948 75.1899 261.432C75.7399 261.916 76.0149 262.592 76.0149 263.461C76.0149 264.341 75.7399 265.029 75.1899 265.524C74.6509 266.008 73.8809 266.25 72.8799 266.25H69.1839V257.934ZM70.5864 261.894V265.029H72.6819C73.3749 265.029 73.8699 264.897 74.1669 264.633C74.4639 264.369 74.6124 263.978 74.6124 263.461C74.6124 262.944 74.4639 262.554 74.1669 262.29C73.8699 262.026 73.3749 261.894 72.6819 261.894H70.5864ZM77.3514 257.934H78.7539V266.25H77.3514V257.934ZM81.1817 266.25V257.934H83.4092L85.4552 261.729H85.8182L87.8642 257.934H90.0587V266.25H88.6892V259.567H88.3262L86.3957 263.131H84.8447L82.9142 259.567H82.5512V266.25H81.1817ZM94.4667 266.25H92.4867V257.934H93.8562V264.369H94.2192L97.8657 257.934H99.9117V266.25H98.5422V259.815H98.1792L94.4667 266.25ZM110.448 258.016C111.669 258.016 112.632 258.418 113.336 259.221C114.04 260.013 114.392 261.019 114.392 262.24C114.392 263.45 114.018 264.457 113.27 265.26C112.533 266.063 111.537 266.465 110.283 266.465C108.963 266.465 107.94 266.03 107.214 265.161C106.499 264.292 106.142 263.049 106.142 261.432C106.142 260.805 106.158 260.244 106.191 259.749C106.235 259.254 106.323 258.737 106.455 258.198C106.598 257.659 106.785 257.202 107.016 256.828C107.247 256.443 107.566 256.108 107.973 255.822C108.38 255.536 108.864 255.349 109.425 255.261L111.636 254.898C111.944 254.854 112.148 254.793 112.247 254.716C112.357 254.639 112.423 254.485 112.445 254.254H113.748C113.726 254.771 113.6 255.184 113.369 255.492C113.138 255.789 112.72 255.992 112.115 256.102L109.557 256.531C108.864 256.652 108.353 256.944 108.023 257.406C107.704 257.857 107.495 258.462 107.396 259.221H107.759C108.1 258.77 108.479 258.456 108.897 258.28C109.326 258.104 109.843 258.016 110.448 258.016ZM108.237 264.369C108.71 264.952 109.381 265.243 110.25 265.243C111.119 265.243 111.785 264.952 112.247 264.369C112.72 263.775 112.956 263.06 112.956 262.224C112.956 261.388 112.72 260.678 112.247 260.095C111.785 259.512 111.119 259.221 110.25 259.221C109.381 259.221 108.71 259.512 108.237 260.095C107.775 260.678 107.544 261.388 107.544 262.224C107.544 263.06 107.775 263.775 108.237 264.369ZM116.876 258.957C117.613 258.132 118.614 257.719 119.879 257.719C121.144 257.719 122.139 258.132 122.865 258.957C123.602 259.782 123.971 260.827 123.971 262.092C123.971 263.357 123.602 264.402 122.865 265.227C122.139 266.052 121.144 266.465 119.879 266.465C118.614 266.465 117.613 266.052 116.876 265.227C116.15 264.402 115.787 263.357 115.787 262.092C115.787 260.827 116.15 259.782 116.876 258.957ZM117.882 264.336C118.344 264.941 119.01 265.243 119.879 265.243C120.748 265.243 121.413 264.941 121.875 264.336C122.337 263.72 122.568 262.972 122.568 262.092C122.568 261.212 122.337 260.469 121.875 259.864C121.413 259.248 120.748 258.94 119.879 258.94C119.01 258.94 118.344 259.248 117.882 259.864C117.42 260.469 117.189 261.212 117.189 262.092C117.189 262.972 117.42 263.72 117.882 264.336ZM125.879 266.25V257.934H132.116V259.155H127.282V266.25H125.879ZM138.759 266.25V265.375H138.396C137.824 266.101 136.96 266.465 135.805 266.465C134.892 266.465 134.166 266.201 133.627 265.672C133.088 265.144 132.819 264.506 132.819 263.758C132.819 262.999 133.083 262.35 133.611 261.811C134.139 261.272 134.936 261.003 136.003 261.003H138.709V260.673C138.709 260.145 138.544 259.727 138.214 259.419C137.884 259.1 137.373 258.94 136.68 258.94C135.47 258.94 134.826 259.342 134.749 260.145H133.347C133.402 259.386 133.726 258.792 134.32 258.363C134.925 257.934 135.701 257.719 136.647 257.719C137.714 257.719 138.55 257.967 139.155 258.462C139.771 258.957 140.079 259.666 140.079 260.59V266.25H138.759ZM136.152 265.243C136.845 265.243 137.444 265.018 137.95 264.567C138.456 264.105 138.709 263.544 138.709 262.884V262.125H136.218C134.887 262.125 134.221 262.653 134.221 263.709C134.221 264.182 134.386 264.556 134.716 264.831C135.057 265.106 135.536 265.243 136.152 265.243ZM141.411 259.155V257.934H148.572V259.155H145.701V266.25H144.299V259.155H141.411ZM150.142 257.934H151.545V260.706H153.838C154.839 260.706 155.609 260.948 156.148 261.432C156.698 261.916 156.973 262.592 156.973 263.461C156.973 264.341 156.698 265.029 156.148 265.524C155.609 266.008 154.839 266.25 153.838 266.25H150.142V257.934ZM151.545 261.894V265.029H153.64C154.333 265.029 154.828 264.897 155.125 264.633C155.422 264.369 155.571 263.978 155.571 263.461C155.571 262.944 155.422 262.554 155.125 262.29C154.828 262.026 154.333 261.894 153.64 261.894H151.545ZM158.31 257.934H159.712V266.25H158.31V257.934ZM162.14 266.25V257.934H164.368L166.414 261.729H166.777L168.823 257.934H171.017V266.25H169.648V259.567H169.285L167.354 263.131H165.803L163.873 259.567H163.51V266.25H162.14ZM175.425 266.25H173.445V257.934H174.815V264.369H175.178L178.824 257.934H180.87V266.25H179.501V259.815H179.138L175.425 266.25ZM194.822 261.597V262.075H188.486C188.508 263.076 188.745 263.857 189.196 264.418C189.647 264.968 190.296 265.243 191.143 265.243C192.287 265.243 192.991 264.814 193.255 263.956H194.674C194.531 264.704 194.151 265.309 193.535 265.771C192.93 266.233 192.133 266.465 191.143 266.465C189.878 266.465 188.888 266.052 188.173 265.227C187.458 264.402 187.1 263.329 187.1 262.01C187.1 260.711 187.458 259.672 188.173 258.891C188.888 258.11 189.867 257.719 191.11 257.719C192.287 257.719 193.194 258.093 193.832 258.841C194.47 259.578 194.8 260.497 194.822 261.597ZM191.077 258.94C190.362 258.94 189.79 259.127 189.361 259.501C188.932 259.864 188.668 260.332 188.569 260.904H193.37C193.326 260.343 193.101 259.875 192.694 259.501C192.287 259.127 191.748 258.94 191.077 258.94ZM196.725 266.25V257.934H202.962V259.155H198.128V266.25H196.725ZM204.708 258.957C205.445 258.132 206.446 257.719 207.711 257.719C208.976 257.719 209.972 258.132 210.698 258.957C211.435 259.782 211.803 260.827 211.803 262.092C211.803 263.357 211.435 264.402 210.698 265.227C209.972 266.052 208.976 266.465 207.711 266.465C206.446 266.465 205.445 266.052 204.708 265.227C203.982 264.402 203.619 263.357 203.619 262.092C203.619 260.827 203.982 259.782 204.708 258.957ZM205.715 264.336C206.177 264.941 206.842 265.243 207.711 265.243C208.58 265.243 209.246 264.941 209.708 264.336C210.17 263.72 210.401 262.972 210.401 262.092C210.401 261.212 210.17 260.469 209.708 259.864C209.246 259.248 208.58 258.94 207.711 258.94C206.842 258.94 206.177 259.248 205.715 259.864C205.253 260.469 205.022 261.212 205.022 262.092C205.022 262.972 205.253 263.72 205.715 264.336ZM220.003 266.25H218.023V257.934H219.393V264.369H219.756L223.402 257.934H225.448V266.25H224.079V259.815H223.716L220.003 266.25ZM233.505 263.742H234.907C234.742 264.578 234.352 265.243 233.736 265.738C233.131 266.222 232.355 266.465 231.409 266.465C230.155 266.465 229.165 266.057 228.439 265.243C227.724 264.418 227.367 263.368 227.367 262.092C227.367 260.805 227.724 259.754 228.439 258.94C229.154 258.126 230.144 257.719 231.409 257.719C232.366 257.719 233.142 257.961 233.736 258.445C234.341 258.918 234.715 259.551 234.858 260.343H233.455C233.158 259.408 232.476 258.94 231.409 258.94C230.518 258.94 229.853 259.237 229.413 259.831C228.984 260.414 228.769 261.157 228.769 262.059C228.769 262.972 228.989 263.731 229.429 264.336C229.869 264.941 230.529 265.243 231.409 265.243C232.575 265.243 233.274 264.743 233.505 263.742ZM235.86 259.155V257.934H243.021V259.155H240.15V266.25H238.747V259.155H235.86ZM245.039 258.957C245.776 258.132 246.777 257.719 248.042 257.719C249.307 257.719 250.303 258.132 251.029 258.957C251.766 259.782 252.134 260.827 252.134 262.092C252.134 263.357 251.766 264.402 251.029 265.227C250.303 266.052 249.307 266.465 248.042 266.465C246.777 266.465 245.776 266.052 245.039 265.227C244.313 264.402 243.95 263.357 243.95 262.092C243.95 260.827 244.313 259.782 245.039 258.957ZM246.046 264.336C246.508 264.941 247.173 265.243 248.042 265.243C248.911 265.243 249.577 264.941 250.039 264.336C250.501 263.72 250.732 262.972 250.732 262.092C250.732 261.212 250.501 260.469 250.039 259.864C249.577 259.248 248.911 258.94 248.042 258.94C247.173 258.94 246.508 259.248 246.046 259.864C245.584 260.469 245.353 261.212 245.353 262.092C245.353 262.972 245.584 263.72 246.046 264.336ZM253.564 257.934H254.966V260.277C254.966 260.541 254.983 260.75 255.016 260.904C255.049 261.047 255.126 261.212 255.247 261.399C255.368 261.586 255.577 261.723 255.874 261.811C256.182 261.899 256.578 261.943 257.062 261.943C257.788 261.943 258.481 261.872 259.141 261.729V257.934H260.56V266.25H259.141V262.966C258.404 263.12 257.612 263.197 256.765 263.197C256.182 263.197 255.681 263.142 255.263 263.032C254.856 262.911 254.543 262.774 254.323 262.62C254.114 262.455 253.949 262.235 253.828 261.96C253.707 261.685 253.63 261.437 253.597 261.217C253.575 260.997 253.564 260.722 253.564 260.392V257.934ZM270.258 266.25H268.856V262.587H264.252V266.25H262.85V257.934H264.252V261.366H268.856V257.934H270.258V266.25ZM274.668 266.25H272.688V257.934H274.058V264.369H274.421L278.067 257.934H280.113V266.25H278.744V259.815H278.381L274.668 266.25ZM288.285 266.25L286.437 262.587H283.946V266.25H282.543V257.934H283.946V261.366H286.47L288.203 257.934H289.671L287.642 261.943L289.787 266.25H288.285ZM296.792 266.25V265.375H296.429C295.857 266.101 294.994 266.465 293.839 266.465C292.926 266.465 292.2 266.201 291.661 265.672C291.122 265.144 290.852 264.506 290.852 263.758C290.852 262.999 291.116 262.35 291.644 261.811C292.172 261.272 292.97 261.003 294.037 261.003H296.743V260.673C296.743 260.145 296.578 259.727 296.248 259.419C295.918 259.1 295.406 258.94 294.713 258.94C293.503 258.94 292.86 259.342 292.783 260.145H291.38C291.435 259.386 291.76 258.792 292.354 258.363C292.959 257.934 293.734 257.719 294.68 257.719C295.747 257.719 296.583 257.967 297.188 258.462C297.804 258.957 298.112 259.666 298.112 260.59V266.25H296.792ZM294.185 265.243C294.878 265.243 295.478 265.018 295.984 264.567C296.49 264.105 296.743 263.544 296.743 262.884V262.125H294.251C292.92 262.125 292.255 262.653 292.255 263.709C292.255 264.182 292.42 264.556 292.75 264.831C293.091 265.106 293.569 265.243 294.185 265.243ZM300.4 266.25V257.934H302.627L304.673 261.729H305.036L307.082 257.934H309.277V266.25H307.907V259.567H307.544L305.614 263.131H304.063L302.132 259.567H301.769V266.25H300.4ZM313.685 266.25H311.705V257.934H313.074V264.369H313.437L317.084 257.934H319.13V266.25H317.76V259.815H317.397L313.685 266.25ZM29.6089 278.934H33.7504V287.25H32.3314V283.966H29.8069C29.5869 283.966 29.4164 283.961 29.2954 283.95L28.0414 287.25H26.5729L27.9754 283.636C27.1174 283.229 26.6884 282.503 26.6884 281.458C26.6884 280.655 26.9359 280.034 27.4309 279.594C27.9369 279.154 28.6629 278.934 29.6089 278.934ZM32.3314 280.122H29.7574C29.1524 280.122 28.7234 280.237 28.4704 280.468C28.2174 280.699 28.0909 281.035 28.0909 281.475C28.0909 281.904 28.2174 282.228 28.4704 282.448C28.7234 282.668 29.1524 282.778 29.7574 282.778H32.3314V280.122ZM42.0194 282.663V283.026C42.4264 283.125 42.7509 283.345 42.9929 283.686C43.2459 284.027 43.3724 284.456 43.3724 284.973C43.3724 286.491 42.3934 287.25 40.4354 287.25H36.1619V278.934H40.2869C41.1229 278.934 41.7664 279.121 42.2174 279.495C42.6794 279.858 42.9104 280.369 42.9104 281.029C42.9104 281.414 42.8224 281.75 42.6464 282.036C42.4814 282.322 42.2724 282.531 42.0194 282.663ZM37.5479 286.062H40.3529C41.4309 286.062 41.9699 285.649 41.9699 284.825C41.9699 283.988 41.4309 283.57 40.3529 283.57H37.5479V286.062ZM37.5479 280.122V282.382H40.1549C40.6279 282.382 40.9689 282.278 41.1779 282.069C41.3979 281.86 41.5079 281.59 41.5079 281.26C41.5079 280.501 41.0569 280.122 40.1549 280.122H37.5479ZM44.3349 287.25V285.93H44.6154C45.1984 285.93 45.6164 285.66 45.8694 285.121C46.1224 284.571 46.2489 283.581 46.2489 282.151V278.934H52.6179V287.25H51.1989V280.155H47.5524V282.184C47.5524 284.065 47.3214 285.38 46.8594 286.128C46.4084 286.876 45.6604 287.25 44.6154 287.25H44.3349ZM57.723 278.934H61.8645V287.25H60.4455V283.966H57.921C57.701 283.966 57.5305 283.961 57.4095 283.95L56.1555 287.25H54.687L56.0895 283.636C55.2315 283.229 54.8025 282.503 54.8025 281.458C54.8025 280.655 55.05 280.034 55.545 279.594C56.051 279.154 56.777 278.934 57.723 278.934ZM60.4455 280.122H57.8715C57.2665 280.122 56.8375 280.237 56.5845 280.468C56.3315 280.699 56.205 281.035 56.205 281.475C56.205 281.904 56.3315 282.228 56.5845 282.448C56.8375 282.668 57.2665 282.778 57.8715 282.778H60.4455V280.122ZM71.5524 278.719C72.7844 278.719 73.7634 279.137 74.4894 279.973C75.2154 280.798 75.5784 281.838 75.5784 283.092C75.5784 284.346 75.2154 285.391 74.4894 286.227C73.7634 287.052 72.7844 287.465 71.5524 287.465C70.4084 287.465 69.4789 287.101 68.7639 286.375C68.0599 285.649 67.6584 284.72 67.5594 283.587H65.6619V287.25H64.2759V278.934H65.6619V282.366H67.6089C67.7409 281.277 68.1534 280.397 68.8464 279.726C69.5504 279.055 70.4524 278.719 71.5524 278.719ZM69.6054 285.336C70.0564 285.941 70.7054 286.243 71.5524 286.243C72.3994 286.243 73.0484 285.941 73.4994 285.336C73.9504 284.72 74.1759 283.972 74.1759 283.092C74.1759 282.212 73.9504 281.469 73.4994 280.864C73.0484 280.248 72.3994 279.94 71.5524 279.94C70.7054 279.94 70.0564 280.248 69.6054 280.864C69.1544 281.469 68.9289 282.212 68.9289 283.092C68.9289 283.972 69.1544 284.72 69.6054 285.336ZM76.4792 280.155V278.934H83.6402V280.155H80.7692V287.25H79.3667V280.155H76.4792ZM90.7076 284.742H92.1101C91.9451 285.578 91.5546 286.243 90.9386 286.738C90.3336 287.222 89.5581 287.465 88.6121 287.465C87.3581 287.465 86.3681 287.057 85.6421 286.243C84.9271 285.418 84.5696 284.368 84.5696 283.092C84.5696 281.805 84.9271 280.754 85.6421 279.94C86.3571 279.126 87.3471 278.719 88.6121 278.719C89.5691 278.719 90.3446 278.961 90.9386 279.445C91.5436 279.918 91.9176 280.551 92.0606 281.343H90.6581C90.3611 280.408 89.6791 279.94 88.6121 279.94C87.7211 279.94 87.0556 280.237 86.6156 280.831C86.1866 281.414 85.9721 282.157 85.9721 283.059C85.9721 283.972 86.1921 284.731 86.6321 285.336C87.0721 285.941 87.7321 286.243 88.6121 286.243C89.7781 286.243 90.4766 285.743 90.7076 284.742ZM96.6102 278.934H100.752V287.25H99.3327V283.966H96.8082C96.5882 283.966 96.4177 283.961 96.2967 283.95L95.0427 287.25H93.5742L94.9767 283.636C94.1187 283.229 93.6897 282.503 93.6897 281.458C93.6897 280.655 93.9372 280.034 94.4322 279.594C94.9382 279.154 95.6642 278.934 96.6102 278.934ZM99.3327 280.122H96.7587C96.1537 280.122 95.7247 280.237 95.4717 280.468C95.2187 280.699 95.0922 281.035 95.0922 281.475C95.0922 281.904 95.2187 282.228 95.4717 282.448C95.7247 282.668 96.1537 282.778 96.7587 282.778H99.3327V280.122ZM114.817 287.25H113.415V280.155H108.877V287.25H107.475V278.934H114.817V287.25ZM121.242 279.94C120.373 279.94 119.719 280.243 119.279 280.848C118.85 281.453 118.635 282.201 118.635 283.092C118.635 283.983 118.85 284.731 119.279 285.336C119.719 285.941 120.373 286.243 121.242 286.243C122.056 286.243 122.683 285.957 123.123 285.385C123.574 284.802 123.8 284.038 123.8 283.092C123.8 282.146 123.574 281.387 123.123 280.815C122.683 280.232 122.056 279.94 121.242 279.94ZM117.249 278.934H118.602V279.825H118.965C119.559 279.088 120.423 278.719 121.556 278.719C122.678 278.719 123.563 279.132 124.212 279.957C124.872 280.782 125.202 281.827 125.202 283.092C125.202 284.379 124.872 285.429 124.212 286.243C123.563 287.057 122.678 287.465 121.556 287.465C120.412 287.465 119.565 287.096 119.015 286.359H118.652V290.55H117.249V278.934ZM127.698 279.957C128.435 279.132 129.436 278.719 130.701 278.719C131.966 278.719 132.961 279.132 133.687 279.957C134.424 280.782 134.793 281.827 134.793 283.092C134.793 284.357 134.424 285.402 133.687 286.227C132.961 287.052 131.966 287.465 130.701 287.465C129.436 287.465 128.435 287.052 127.698 286.227C126.972 285.402 126.609 284.357 126.609 283.092C126.609 281.827 126.972 280.782 127.698 279.957ZM128.704 285.336C129.166 285.941 129.832 286.243 130.701 286.243C131.57 286.243 132.235 285.941 132.697 285.336C133.159 284.72 133.39 283.972 133.39 283.092C133.39 282.212 133.159 281.469 132.697 280.864C132.235 280.248 131.57 279.94 130.701 279.94C129.832 279.94 129.166 280.248 128.704 280.864C128.242 281.469 128.011 282.212 128.011 283.092C128.011 283.972 128.242 284.72 128.704 285.336ZM144.109 286.029H145.644V289.61H144.274V287.25H137.08V289.61H135.711V286.029H136.816C137.498 284.577 137.839 282.971 137.839 281.211V278.934H144.109V286.029ZM142.707 286.029V280.155H139.143V281.211C139.143 283.092 138.84 284.698 138.235 286.029H142.707ZM149.428 290.55H148.009L149.725 286.474L146.178 278.934H147.679L150.22 284.412H150.633L152.943 278.934H154.411L149.428 290.55ZM161.524 287.25L159.676 283.587H157.184V287.25H155.782V278.934H157.184V282.366H159.709L161.441 278.934H162.91L160.88 282.943L163.025 287.25H161.524ZM163.876 280.155V278.934H171.037V280.155H168.166V287.25H166.764V280.155H163.876ZM172.607 278.934H174.01V281.706H176.303C177.304 281.706 178.074 281.948 178.613 282.432C179.163 282.916 179.438 283.592 179.438 284.461C179.438 285.341 179.163 286.029 178.613 286.524C178.074 287.008 177.304 287.25 176.303 287.25H172.607V278.934ZM174.01 282.894V286.029H176.105C176.798 286.029 177.293 285.897 177.59 285.633C177.887 285.369 178.036 284.978 178.036 284.461C178.036 283.944 177.887 283.554 177.59 283.29C177.293 283.026 176.798 282.894 176.105 282.894H174.01ZM180.775 278.934H182.177V287.25H180.775V278.934ZM192.91 279.94C192.041 279.94 191.386 280.243 190.946 280.848C190.517 281.453 190.303 282.201 190.303 283.092C190.303 283.983 190.517 284.731 190.946 285.336C191.386 285.941 192.041 286.243 192.91 286.243C193.724 286.243 194.351 285.957 194.791 285.385C195.242 284.802 195.467 284.038 195.467 283.092C195.467 282.146 195.242 281.387 194.791 280.815C194.351 280.232 193.724 279.94 192.91 279.94ZM188.917 278.934H190.27V279.825H190.633C191.227 279.088 192.09 278.719 193.223 278.719C194.345 278.719 195.231 279.132 195.88 279.957C196.54 280.782 196.87 281.827 196.87 283.092C196.87 284.379 196.54 285.429 195.88 286.243C195.231 287.057 194.345 287.465 193.223 287.465C192.079 287.465 191.232 287.096 190.682 286.359H190.319V290.55H188.917V278.934ZM204.084 287.25V286.375H203.721C203.149 287.101 202.286 287.465 201.131 287.465C200.218 287.465 199.492 287.201 198.953 286.672C198.414 286.144 198.144 285.506 198.144 284.758C198.144 283.999 198.408 283.35 198.936 282.811C199.464 282.272 200.262 282.003 201.329 282.003H204.035V281.673C204.035 281.145 203.87 280.727 203.54 280.419C203.21 280.1 202.698 279.94 202.005 279.94C200.795 279.94 200.152 280.342 200.075 281.145H198.672C198.727 280.386 199.052 279.792 199.646 279.363C200.251 278.934 201.026 278.719 201.972 278.719C203.039 278.719 203.875 278.967 204.48 279.462C205.096 279.957 205.404 280.666 205.404 281.59V287.25H204.084ZM201.477 286.243C202.17 286.243 202.77 286.018 203.276 285.567C203.782 285.105 204.035 284.544 204.035 283.884V283.125H201.543C200.212 283.125 199.547 283.653 199.547 284.709C199.547 285.182 199.712 285.556 200.042 285.831C200.383 286.106 200.861 286.243 201.477 286.243ZM213.318 284.742H214.721C214.556 285.578 214.165 286.243 213.549 286.738C212.944 287.222 212.169 287.465 211.223 287.465C209.969 287.465 208.979 287.057 208.253 286.243C207.538 285.418 207.18 284.368 207.18 283.092C207.18 281.805 207.538 280.754 208.253 279.94C208.968 279.126 209.958 278.719 211.223 278.719C212.18 278.719 212.955 278.961 213.549 279.445C214.154 279.918 214.528 280.551 214.671 281.343H213.269C212.972 280.408 212.29 279.94 211.223 279.94C210.332 279.94 209.666 280.237 209.226 280.831C208.797 281.414 208.583 282.157 208.583 283.059C208.583 283.972 208.803 284.731 209.243 285.336C209.683 285.941 210.343 286.243 211.223 286.243C212.389 286.243 213.087 285.743 213.318 284.742ZM215.673 280.155V278.934H222.834V280.155H219.963V287.25H218.561V280.155H215.673ZM226.384 287.25H224.404V278.934H225.774V285.369H226.137L229.783 278.934H231.829V287.25H230.46V280.815H230.097L226.384 287.25ZM233.401 280.155V278.934H240.562V280.155H237.691V287.25H236.288V280.155H233.401ZM249.213 282.597V283.075H242.877C242.899 284.076 243.136 284.857 243.587 285.418C244.038 285.968 244.687 286.243 245.534 286.243C246.678 286.243 247.382 285.814 247.646 284.956H249.065C248.922 285.704 248.542 286.309 247.926 286.771C247.321 287.233 246.524 287.465 245.534 287.465C244.269 287.465 243.279 287.052 242.564 286.227C241.849 285.402 241.491 284.329 241.491 283.01C241.491 281.711 241.849 280.672 242.564 279.891C243.279 279.11 244.258 278.719 245.501 278.719C246.678 278.719 247.585 279.093 248.223 279.841C248.861 280.578 249.191 281.497 249.213 282.597ZM245.468 279.94C244.753 279.94 244.181 280.127 243.752 280.501C243.323 280.864 243.059 281.332 242.96 281.904H247.761C247.717 281.343 247.492 280.875 247.085 280.501C246.678 280.127 246.139 279.94 245.468 279.94ZM250.176 287.25V285.93H250.456C251.039 285.93 251.457 285.66 251.71 285.121C251.963 284.571 252.09 283.581 252.09 282.151V278.934H258.459V287.25H257.04V280.155H253.393V282.184C253.393 284.065 253.162 285.38 252.7 286.128C252.249 286.876 251.501 287.25 250.456 287.25H250.176ZM262.277 278.934V281.706H264.735C265.736 281.706 266.506 281.948 267.045 282.432C267.595 282.916 267.87 283.592 267.87 284.461C267.87 285.341 267.595 286.029 267.045 286.524C266.506 287.008 265.736 287.25 264.735 287.25H260.874V278.934H262.277ZM262.277 286.029H264.537C265.23 286.029 265.725 285.897 266.022 285.633C266.319 285.369 266.468 284.978 266.468 284.461C266.468 283.944 266.319 283.554 266.022 283.29C265.725 283.026 265.23 282.894 264.537 282.894H262.277V286.029ZM276.994 287.25H275.591V283.587H270.988V287.25H269.585V278.934H270.988V282.366H275.591V278.934H276.994V287.25ZM280.001 279.957C280.738 279.132 281.739 278.719 283.004 278.719C284.269 278.719 285.265 279.132 285.991 279.957C286.728 280.782 287.096 281.827 287.096 283.092C287.096 284.357 286.728 285.402 285.991 286.227C285.265 287.052 284.269 287.465 283.004 287.465C281.739 287.465 280.738 287.052 280.001 286.227C279.275 285.402 278.912 284.357 278.912 283.092C278.912 281.827 279.275 280.782 280.001 279.957ZM281.008 285.336C281.47 285.941 282.135 286.243 283.004 286.243C283.873 286.243 284.539 285.941 285.001 285.336C285.463 284.72 285.694 283.972 285.694 283.092C285.694 282.212 285.463 281.469 285.001 280.864C284.539 280.248 283.873 279.94 283.004 279.94C282.135 279.94 281.47 280.248 281.008 280.864C280.546 281.469 280.315 282.212 280.315 283.092C280.315 283.972 280.546 284.72 281.008 285.336ZM289.005 287.25V278.934H295.242V280.155H290.407V287.25H289.005ZM296.988 279.957C297.725 279.132 298.726 278.719 299.991 278.719C301.256 278.719 302.251 279.132 302.977 279.957C303.714 280.782 304.083 281.827 304.083 283.092C304.083 284.357 303.714 285.402 302.977 286.227C302.251 287.052 301.256 287.465 299.991 287.465C298.726 287.465 297.725 287.052 296.988 286.227C296.262 285.402 295.899 284.357 295.899 283.092C295.899 281.827 296.262 280.782 296.988 279.957ZM297.994 285.336C298.456 285.941 299.122 286.243 299.991 286.243C300.86 286.243 301.525 285.941 301.987 285.336C302.449 284.72 302.68 283.972 302.68 283.092C302.68 282.212 302.449 281.469 301.987 280.864C301.525 280.248 300.86 279.94 299.991 279.94C299.122 279.94 298.456 280.248 297.994 280.864C297.532 281.469 297.301 282.212 297.301 283.092C297.301 283.972 297.532 284.72 297.994 285.336ZM34.2619 307.25H32.8594V300.155H28.3219V307.25H26.9194V298.934H34.2619V307.25ZM40.6866 299.94C39.8176 299.94 39.1631 300.243 38.7231 300.848C38.2941 301.453 38.0796 302.201 38.0796 303.092C38.0796 303.983 38.2941 304.731 38.7231 305.336C39.1631 305.941 39.8176 306.243 40.6866 306.243C41.5006 306.243 42.1276 305.957 42.5676 305.385C43.0186 304.802 43.2441 304.038 43.2441 303.092C43.2441 302.146 43.0186 301.387 42.5676 300.815C42.1276 300.232 41.5006 299.94 40.6866 299.94ZM36.6936 298.934H38.0466V299.825H38.4096C39.0036 299.088 39.8671 298.719 41.0001 298.719C42.1221 298.719 43.0076 299.132 43.6566 299.957C44.3166 300.782 44.6466 301.827 44.6466 303.092C44.6466 304.379 44.3166 305.429 43.6566 306.243C43.0076 307.057 42.1221 307.465 41.0001 307.465C39.8561 307.465 39.0091 307.096 38.4591 306.359H38.0961V310.55H36.6936V298.934ZM47.142 299.957C47.879 299.132 48.88 298.719 50.145 298.719C51.41 298.719 52.4055 299.132 53.1315 299.957C53.8685 300.782 54.237 301.827 54.237 303.092C54.237 304.357 53.8685 305.402 53.1315 306.227C52.4055 307.052 51.41 307.465 50.145 307.465C48.88 307.465 47.879 307.052 47.142 306.227C46.416 305.402 46.053 304.357 46.053 303.092C46.053 301.827 46.416 300.782 47.142 299.957ZM48.1485 305.336C48.6105 305.941 49.276 306.243 50.145 306.243C51.014 306.243 51.6795 305.941 52.1415 305.336C52.6035 304.72 52.8345 303.972 52.8345 303.092C52.8345 302.212 52.6035 301.469 52.1415 300.864C51.6795 300.248 51.014 299.94 50.145 299.94C49.276 299.94 48.6105 300.248 48.1485 300.864C47.6865 301.469 47.4555 302.212 47.4555 303.092C47.4555 303.972 47.6865 304.72 48.1485 305.336ZM58.1253 307.25H56.1453V298.934H57.5148V305.369H57.8778L61.5243 298.934H63.5703V307.25H62.2008V300.815H61.8378L58.1253 307.25ZM71.6265 304.742H73.029C72.864 305.578 72.4735 306.243 71.8575 306.738C71.2525 307.222 70.477 307.465 69.531 307.465C68.277 307.465 67.287 307.057 66.561 306.243C65.846 305.418 65.4885 304.368 65.4885 303.092C65.4885 301.805 65.846 300.754 66.561 299.94C67.276 299.126 68.266 298.719 69.531 298.719C70.488 298.719 71.2635 298.961 71.8575 299.445C72.4625 299.918 72.8365 300.551 72.9795 301.343H71.577C71.28 300.408 70.598 299.94 69.531 299.94C68.64 299.94 67.9745 300.237 67.5345 300.831C67.1055 301.414 66.891 302.157 66.891 303.059C66.891 303.972 67.111 304.731 67.551 305.336C67.991 305.941 68.651 306.243 69.531 306.243C70.697 306.243 71.3955 305.743 71.6265 304.742ZM80.4002 307.25L78.3377 303.768H77.7437L75.6317 307.25H74.0972L76.6877 302.993L74.3612 298.934H75.8462L77.7602 302.234H78.3542L80.3012 298.934H81.7697L79.4102 302.943L81.9842 307.25H80.4002ZM83.999 299.957C84.736 299.132 85.737 298.719 87.002 298.719C88.267 298.719 89.2625 299.132 89.9885 299.957C90.7255 300.782 91.094 301.827 91.094 303.092C91.094 304.357 90.7255 305.402 89.9885 306.227C89.2625 307.052 88.267 307.465 87.002 307.465C85.737 307.465 84.736 307.052 83.999 306.227C83.273 305.402 82.91 304.357 82.91 303.092C82.91 301.827 83.273 300.782 83.999 299.957ZM85.0055 305.336C85.4675 305.941 86.133 306.243 87.002 306.243C87.871 306.243 88.5365 305.941 88.9985 305.336C89.4605 304.72 89.6915 303.972 89.6915 303.092C89.6915 302.212 89.4605 301.469 88.9985 300.864C88.5365 300.248 87.871 299.94 87.002 299.94C86.133 299.94 85.4675 300.248 85.0055 300.864C84.5435 301.469 84.3125 302.212 84.3125 303.092C84.3125 303.972 84.5435 304.72 85.0055 305.336ZM95.3618 303.603L93.7613 307.25H92.2928L94.1738 302.976L92.4083 298.934H93.8603L95.3618 302.382H97.4903V298.934H98.8433V302.382H100.972L102.473 298.934H103.925L102.16 302.976L104.057 307.25H102.572L100.972 303.603H98.8433V307.25H97.4903V303.603H95.3618ZM113.166 306.029H114.7V309.61H113.331V307.25H106.137V309.61H104.767V306.029H105.873C106.555 304.577 106.896 302.971 106.896 301.211V298.934H113.166V306.029ZM111.763 306.029V300.155H108.199V301.211C108.199 303.092 107.897 304.698 107.292 306.029H111.763ZM123.451 302.597V303.075H117.115C117.137 304.076 117.374 304.857 117.825 305.418C118.276 305.968 118.925 306.243 119.772 306.243C120.916 306.243 121.62 305.814 121.884 304.956H123.303C123.16 305.704 122.78 306.309 122.164 306.771C121.559 307.233 120.762 307.465 119.772 307.465C118.507 307.465 117.517 307.052 116.802 306.227C116.087 305.402 115.729 304.329 115.729 303.01C115.729 301.711 116.087 300.672 116.802 299.891C117.517 299.11 118.496 298.719 119.739 298.719C120.916 298.719 121.823 299.093 122.461 299.841C123.099 300.578 123.429 301.497 123.451 302.597ZM119.706 299.94C118.991 299.94 118.419 300.127 117.99 300.501C117.561 300.864 117.297 301.332 117.198 301.904H121.999C121.955 301.343 121.73 300.875 121.323 300.501C120.916 300.127 120.377 299.94 119.706 299.94ZM132.763 307.25H131.36V303.587H126.757V307.25H125.354V298.934H126.757V302.366H131.36V298.934H132.763V307.25ZM137.173 307.25H135.193V298.934H136.562V305.369H136.925L140.572 298.934H142.618V307.25H141.248V300.815H140.885L137.173 307.25ZM147.737 298.934H151.879V307.25H150.46V303.966H147.935C147.715 303.966 147.545 303.961 147.424 303.95L146.17 307.25H144.701L146.104 303.636C145.246 303.229 144.817 302.503 144.817 301.458C144.817 300.655 145.064 300.034 145.559 299.594C146.065 299.154 146.791 298.934 147.737 298.934ZM150.46 300.122H147.886C147.281 300.122 146.852 300.237 146.599 300.468C146.346 300.699 146.219 301.035 146.219 301.475C146.219 301.904 146.346 302.228 146.599 302.448C146.852 302.668 147.281 302.778 147.886 302.778H150.46V300.122ZM155.923 307.25H154.207V305.336H155.923V307.25ZM155.923 300.848H154.207V298.934H155.923V300.848ZM162.575 307.25V298.934H164.803L166.849 302.729H167.212L169.258 298.934H171.452V307.25H170.083V300.567H169.72L167.789 304.131H166.238L164.308 300.567H163.945V307.25H162.575ZM175.86 307.25H173.88V298.934H175.25V305.369H175.613L179.259 298.934H181.305V307.25H179.936V300.815H179.573L175.86 307.25ZM191.143 307.25H189.741V303.587H185.137V307.25H183.735V298.934H185.137V302.366H189.741V298.934H191.143V307.25ZM200.982 306.029H202.517V309.61H201.147V307.25H193.953V309.61H192.584V306.029H193.689C194.371 304.577 194.712 302.971 194.712 301.211V298.934H200.982V306.029ZM199.58 306.029V300.155H196.016V301.211C196.016 303.092 195.713 304.698 195.108 306.029H199.58ZM209.353 307.25V306.375H208.99C208.418 307.101 207.555 307.465 206.4 307.465C205.487 307.465 204.761 307.201 204.222 306.672C203.683 306.144 203.413 305.506 203.413 304.758C203.413 303.999 203.677 303.35 204.205 302.811C204.733 302.272 205.531 302.003 206.598 302.003H209.304V301.673C209.304 301.145 209.139 300.727 208.809 300.419C208.479 300.1 207.967 299.94 207.274 299.94C206.064 299.94 205.421 300.342 205.344 301.145H203.941C203.996 300.386 204.321 299.792 204.915 299.363C205.52 298.934 206.295 298.719 207.241 298.719C208.308 298.719 209.144 298.967 209.749 299.462C210.365 299.957 210.673 300.666 210.673 301.59V307.25H209.353ZM206.746 306.243C207.439 306.243 208.039 306.018 208.545 305.567C209.051 305.105 209.304 304.544 209.304 303.884V303.125H206.812C205.481 303.125 204.816 303.653 204.816 304.709C204.816 305.182 204.981 305.556 205.311 305.831C205.652 306.106 206.13 306.243 206.746 306.243ZM212.02 307.25V305.93H212.301C212.884 305.93 213.302 305.66 213.555 305.121C213.808 304.571 213.934 303.581 213.934 302.151V298.934H220.303V307.25H218.884V300.155H215.238V302.184C215.238 304.065 215.007 305.38 214.545 306.128C214.094 306.876 213.346 307.25 212.301 307.25H212.02ZM224.121 298.934V301.706H226.58C227.581 301.706 228.351 301.948 228.89 302.432C229.44 302.916 229.715 303.592 229.715 304.461C229.715 305.341 229.44 306.029 228.89 306.524C228.351 307.008 227.581 307.25 226.58 307.25H222.719V298.934H224.121ZM224.121 306.029H226.382C227.075 306.029 227.57 305.897 227.867 305.633C228.164 305.369 228.312 304.978 228.312 304.461C228.312 303.944 228.164 303.554 227.867 303.29C227.57 303.026 227.075 302.894 226.382 302.894H224.121V306.029ZM232.172 307.25H231.347V305.336H233.063V307.564L232.139 309.148H231.248L232.172 307.564V307.25ZM244.962 307.25V310.55H243.576V307.25H243.312C242.025 307.25 241.018 306.865 240.292 306.095C239.566 305.325 239.203 304.324 239.203 303.092C239.203 301.849 239.561 300.848 240.276 300.089C240.991 299.319 241.997 298.934 243.295 298.934H243.576V295.254H244.962V298.934H245.226C246.513 298.934 247.514 299.319 248.229 300.089C248.955 300.859 249.318 301.86 249.318 303.092C249.318 304.39 248.938 305.407 248.179 306.144C247.42 306.881 246.348 307.25 244.962 307.25ZM241.282 300.963C240.82 301.524 240.589 302.234 240.589 303.092C240.589 303.95 240.82 304.659 241.282 305.22C241.744 305.781 242.421 306.062 243.312 306.062H243.576V300.122H243.312C242.432 300.122 241.755 300.402 241.282 300.963ZM244.962 306.062H245.193C246.084 306.062 246.76 305.781 247.222 305.22C247.695 304.659 247.932 303.95 247.932 303.092C247.932 302.234 247.695 301.524 247.222 300.963C246.76 300.402 246.084 300.122 245.193 300.122H244.962V306.062ZM253.28 310.55H251.861L253.577 306.474L250.029 298.934H251.531L254.072 304.412H254.484L256.794 298.934H258.263L253.28 310.55ZM267.042 307.25H265.64V303.587H261.036V307.25H259.634V298.934H261.036V302.366H265.64V298.934H267.042V307.25ZM276.881 306.029H278.415V309.61H277.046V307.25H269.852V309.61H268.482V306.029H269.588C270.27 304.577 270.611 302.971 270.611 301.211V298.934H276.881V306.029ZM275.478 306.029V300.155H271.914V301.211C271.914 303.092 271.612 304.698 271.007 306.029H275.478ZM282.2 310.55H280.781L282.497 306.474L278.949 298.934H280.451L282.992 304.412H283.404L285.714 298.934H287.183L282.2 310.55ZM294.295 307.25L292.447 303.587H289.956V307.25H288.553V298.934H289.956V302.366H292.48L294.213 298.934H295.681L293.652 302.943L295.797 307.25H294.295ZM298.248 307.25H297.423V305.336H299.139V307.564L298.215 309.148H297.324L298.248 307.564V307.25ZM311.088 307.25V306.375H310.725C310.153 307.101 309.289 307.465 308.134 307.465C307.221 307.465 306.495 307.201 305.956 306.672C305.417 306.144 305.148 305.506 305.148 304.758C305.148 303.999 305.412 303.35 305.94 302.811C306.468 302.272 307.265 302.003 308.332 302.003H311.038V301.673C311.038 301.145 310.873 300.727 310.543 300.419C310.213 300.1 309.702 299.94 309.009 299.94C307.799 299.94 307.155 300.342 307.078 301.145H305.676C305.731 300.386 306.055 299.792 306.649 299.363C307.254 298.934 308.03 298.719 308.976 298.719C310.043 298.719 310.879 298.967 311.484 299.462C312.1 299.957 312.408 300.666 312.408 301.59V307.25H311.088ZM308.481 306.243C309.174 306.243 309.773 306.018 310.279 305.567C310.785 305.105 311.038 304.544 311.038 303.884V303.125H308.547C307.216 303.125 306.55 303.653 306.55 304.709C306.55 305.182 306.715 305.556 307.045 305.831C307.386 306.106 307.865 306.243 308.481 306.243ZM318.688 299.94C317.819 299.94 317.165 300.243 316.725 300.848C316.296 301.453 316.081 302.201 316.081 303.092C316.081 303.983 316.296 304.731 316.725 305.336C317.165 305.941 317.819 306.243 318.688 306.243C319.502 306.243 320.129 305.957 320.569 305.385C321.02 304.802 321.246 304.038 321.246 303.092C321.246 302.146 321.02 301.387 320.569 300.815C320.129 300.232 319.502 299.94 318.688 299.94ZM314.695 298.934H316.048V299.825H316.411C317.005 299.088 317.869 298.719 319.002 298.719C320.124 298.719 321.009 299.132 321.658 299.957C322.318 300.782 322.648 301.827 322.648 303.092C322.648 304.379 322.318 305.429 321.658 306.243C321.009 307.057 320.124 307.465 319.002 307.465C317.858 307.465 317.011 307.096 316.461 306.359H316.098V310.55H314.695V298.934ZM329.863 307.25V306.375H329.5C328.928 307.101 328.064 307.465 326.909 307.465C325.996 307.465 325.27 307.201 324.731 306.672C324.192 306.144 323.923 305.506 323.923 304.758C323.923 303.999 324.187 303.35 324.715 302.811C325.243 302.272 326.04 302.003 327.107 302.003H329.813V301.673C329.813 301.145 329.648 300.727 329.318 300.419C328.988 300.1 328.477 299.94 327.784 299.94C326.574 299.94 325.93 300.342 325.853 301.145H324.451C324.506 300.386 324.83 299.792 325.424 299.363C326.029 298.934 326.805 298.719 327.751 298.719C328.818 298.719 329.654 298.967 330.259 299.462C330.875 299.957 331.183 300.666 331.183 301.59V307.25H329.863ZM327.256 306.243C327.949 306.243 328.548 306.018 329.054 305.567C329.56 305.105 329.813 304.544 329.813 303.884V303.125H327.322C325.991 303.125 325.325 303.653 325.325 304.709C325.325 305.182 325.49 305.556 325.82 305.831C326.161 306.106 326.64 306.243 327.256 306.243ZM339.031 307.25L336.968 303.768H336.374L334.262 307.25H332.728L335.318 302.993L332.992 298.934H334.477L336.391 302.234H336.985L338.932 298.934H340.4L338.041 302.943L340.615 307.25H339.031ZM344.274 307.25H342.294V298.934H343.663V305.369H344.026L347.673 298.934H349.719V307.25H348.349V300.815H347.986L344.274 307.25ZM357.775 304.742H359.177C359.012 305.578 358.622 306.243 358.006 306.738C357.401 307.222 356.625 307.465 355.679 307.465C354.425 307.465 353.435 307.057 352.709 306.243C351.994 305.418 351.637 304.368 351.637 303.092C351.637 301.805 351.994 300.754 352.709 299.94C353.424 299.126 354.414 298.719 355.679 298.719C356.636 298.719 357.412 298.961 358.006 299.445C358.611 299.918 358.985 300.551 359.128 301.343H357.725C357.428 300.408 356.746 299.94 355.679 299.94C354.788 299.94 354.123 300.237 353.683 300.831C353.254 301.414 353.039 302.157 353.039 303.059C353.039 303.972 353.259 304.731 353.699 305.336C354.139 305.941 354.799 306.243 355.679 306.243C356.845 306.243 357.544 305.743 357.775 304.742ZM361.73 307.25H360.905V305.336H362.621V307.564L361.697 309.148H360.806L361.73 307.564V307.25ZM32.6614 328.25L30.8134 324.587H28.3219V328.25H26.9194V319.934H28.3219V323.366H30.8464L32.5789 319.934H34.0474L32.0179 323.943L34.1629 328.25H32.6614ZM38.1158 331.55H36.6968L38.4128 327.474L34.8653 319.934H36.3668L38.9078 325.412H39.3203L41.6303 319.934H43.0988L38.1158 331.55ZM48.4627 320.94C47.5937 320.94 46.9392 321.243 46.4992 321.848C46.0702 322.453 45.8557 323.201 45.8557 324.092C45.8557 324.983 46.0702 325.731 46.4992 326.336C46.9392 326.941 47.5937 327.243 48.4627 327.243C49.2767 327.243 49.9037 326.957 50.3437 326.385C50.7947 325.802 51.0202 325.038 51.0202 324.092C51.0202 323.146 50.7947 322.387 50.3437 321.815C49.9037 321.232 49.2767 320.94 48.4627 320.94ZM44.4697 319.934H45.8227V320.825H46.1857C46.7797 320.088 47.6432 319.719 48.7762 319.719C49.8982 319.719 50.7837 320.132 51.4327 320.957C52.0927 321.782 52.4227 322.827 52.4227 324.092C52.4227 325.379 52.0927 326.429 51.4327 327.243C50.7837 328.057 49.8982 328.465 48.7762 328.465C47.6322 328.465 46.7852 328.096 46.2352 327.359H45.8722V331.55H44.4697V319.934ZM59.6371 328.25V327.375H59.2741C58.7021 328.101 57.8386 328.465 56.6836 328.465C55.7706 328.465 55.0446 328.201 54.5056 327.672C53.9666 327.144 53.6971 326.506 53.6971 325.758C53.6971 324.999 53.9611 324.35 54.4891 323.811C55.0171 323.272 55.8146 323.003 56.8816 323.003H59.5876V322.673C59.5876 322.145 59.4226 321.727 59.0926 321.419C58.7626 321.1 58.2511 320.94 57.5581 320.94C56.3481 320.94 55.7046 321.342 55.6276 322.145H54.2251C54.2801 321.386 54.6046 320.792 55.1986 320.363C55.8036 319.934 56.5791 319.719 57.5251 319.719C58.5921 319.719 59.4281 319.967 60.0331 320.462C60.6491 320.957 60.9571 321.666 60.9571 322.59V328.25H59.6371ZM57.0301 327.243C57.7231 327.243 58.3226 327.018 58.8286 326.567C59.3346 326.105 59.5876 325.544 59.5876 324.884V324.125H57.0961C55.7651 324.125 55.0996 324.653 55.0996 325.709C55.0996 326.182 55.2646 326.556 55.5946 326.831C55.9356 327.106 56.4141 327.243 57.0301 327.243ZM63.2447 328.25V319.934H69.4817V321.155H64.6472V328.25H63.2447ZM76.124 328.25V327.375H75.761C75.189 328.101 74.3255 328.465 73.1705 328.465C72.2575 328.465 71.5315 328.201 70.9925 327.672C70.4535 327.144 70.184 326.506 70.184 325.758C70.184 324.999 70.448 324.35 70.976 323.811C71.504 323.272 72.3015 323.003 73.3685 323.003H76.0745V322.673C76.0745 322.145 75.9095 321.727 75.5795 321.419C75.2495 321.1 74.738 320.94 74.045 320.94C72.835 320.94 72.1915 321.342 72.1145 322.145H70.712C70.767 321.386 71.0915 320.792 71.6855 320.363C72.2905 319.934 73.066 319.719 74.012 319.719C75.079 319.719 75.915 319.967 76.52 320.462C77.136 320.957 77.444 321.666 77.444 322.59V328.25H76.124ZM73.517 327.243C74.21 327.243 74.8095 327.018 75.3155 326.567C75.8215 326.105 76.0745 325.544 76.0745 324.884V324.125H73.583C72.252 324.125 71.5865 324.653 71.5865 325.709C71.5865 326.182 71.7515 326.556 72.0815 326.831C72.4225 327.106 72.901 327.243 73.517 327.243ZM80.474 328.25H79.649V326.336H81.365V328.564L80.441 330.148H79.55L80.474 328.564V328.25ZM88.5942 320.957C89.3312 320.132 90.3322 319.719 91.5972 319.719C92.8622 319.719 93.8577 320.132 94.5837 320.957C95.3207 321.782 95.6892 322.827 95.6892 324.092C95.6892 325.357 95.3207 326.402 94.5837 327.227C93.8577 328.052 92.8622 328.465 91.5972 328.465C90.3322 328.465 89.3312 328.052 88.5942 327.227C87.8682 326.402 87.5052 325.357 87.5052 324.092C87.5052 322.827 87.8682 321.782 88.5942 320.957ZM89.6007 326.336C90.0627 326.941 90.7282 327.243 91.5972 327.243C92.4662 327.243 93.1317 326.941 93.5937 326.336C94.0557 325.72 94.2867 324.972 94.2867 324.092C94.2867 323.212 94.0557 322.469 93.5937 321.864C93.1317 321.248 92.4662 320.94 91.5972 320.94C90.7282 320.94 90.0627 321.248 89.6007 321.864C89.1387 322.469 88.9077 323.212 88.9077 324.092C88.9077 324.972 89.1387 325.72 89.6007 326.336ZM101.393 320.016C102.614 320.016 103.576 320.418 104.28 321.221C104.984 322.013 105.336 323.019 105.336 324.24C105.336 325.45 104.962 326.457 104.214 327.26C103.477 328.063 102.482 328.465 101.228 328.465C99.9075 328.465 98.8845 328.03 98.1585 327.161C97.4435 326.292 97.086 325.049 97.086 323.432C97.086 322.805 97.1025 322.244 97.1355 321.749C97.1795 321.254 97.2675 320.737 97.3995 320.198C97.5425 319.659 97.7295 319.202 97.9605 318.828C98.1915 318.443 98.5105 318.108 98.9175 317.822C99.3245 317.536 99.8085 317.349 100.37 317.261L102.581 316.898C102.889 316.854 103.092 316.793 103.191 316.716C103.301 316.639 103.367 316.485 103.389 316.254H104.693C104.671 316.771 104.544 317.184 104.313 317.492C104.082 317.789 103.664 317.992 103.059 318.102L100.502 318.531C99.8085 318.652 99.297 318.944 98.967 319.406C98.648 319.857 98.439 320.462 98.34 321.221H98.703C99.044 320.77 99.4235 320.456 99.8415 320.28C100.271 320.104 100.788 320.016 101.393 320.016ZM99.1815 326.369C99.6545 326.952 100.326 327.243 101.195 327.243C102.064 327.243 102.729 326.952 103.191 326.369C103.664 325.775 103.901 325.06 103.901 324.224C103.901 323.388 103.664 322.678 103.191 322.095C102.729 321.512 102.064 321.221 101.195 321.221C100.326 321.221 99.6545 321.512 99.1815 322.095C98.7195 322.678 98.4885 323.388 98.4885 324.224C98.4885 325.06 98.7195 325.775 99.1815 326.369ZM106.141 328.25V326.93H106.422C107.005 326.93 107.423 326.66 107.676 326.121C107.929 325.571 108.055 324.581 108.055 323.151V319.934H114.424V328.25H113.005V321.155H109.359V323.184C109.359 325.065 109.128 326.38 108.666 327.128C108.215 327.876 107.467 328.25 106.422 328.25H106.141ZM124.05 323.597V324.075H117.714C117.736 325.076 117.973 325.857 118.424 326.418C118.875 326.968 119.524 327.243 120.371 327.243C121.515 327.243 122.219 326.814 122.483 325.956H123.902C123.759 326.704 123.379 327.309 122.763 327.771C122.158 328.233 121.361 328.465 120.371 328.465C119.106 328.465 118.116 328.052 117.401 327.227C116.686 326.402 116.328 325.329 116.328 324.01C116.328 322.711 116.686 321.672 117.401 320.891C118.116 320.11 119.095 319.719 120.338 319.719C121.515 319.719 122.422 320.093 123.06 320.841C123.698 321.578 124.028 322.497 124.05 323.597ZM120.305 320.94C119.59 320.94 119.018 321.127 118.589 321.501C118.16 321.864 117.896 322.332 117.797 322.904H122.598C122.554 322.343 122.329 321.875 121.922 321.501C121.515 321.127 120.976 320.94 120.305 320.94ZM133.296 328.25H131.893V321.155H127.356V328.25H125.953V319.934H133.296V328.25ZM137.707 328.25H135.727V319.934H137.097V326.369H137.46L141.106 319.934H143.152V328.25H141.783V321.815H141.42L137.707 328.25ZM151.143 328.25L149.08 324.768H148.486L146.374 328.25H144.84L147.43 323.993L145.104 319.934H146.589L148.503 323.234H149.097L151.044 319.934H152.512L150.153 323.943L152.727 328.25H151.143ZM159.702 328.25V327.375H159.339C158.767 328.101 157.904 328.465 156.749 328.465C155.836 328.465 155.11 328.201 154.571 327.672C154.032 327.144 153.762 326.506 153.762 325.758C153.762 324.999 154.026 324.35 154.554 323.811C155.082 323.272 155.88 323.003 156.947 323.003H159.653V322.673C159.653 322.145 159.488 321.727 159.158 321.419C158.828 321.1 158.316 320.94 157.623 320.94C156.413 320.94 155.77 321.342 155.693 322.145H154.29C154.345 321.386 154.67 320.792 155.264 320.363C155.869 319.934 156.644 319.719 157.59 319.719C158.657 319.719 159.493 319.967 160.098 320.462C160.714 320.957 161.022 321.666 161.022 322.59V328.25H159.702ZM157.095 327.243C157.788 327.243 158.388 327.018 158.894 326.567C159.4 326.105 159.653 325.544 159.653 324.884V324.125H157.161C155.83 324.125 155.165 324.653 155.165 325.709C155.165 326.182 155.33 326.556 155.66 326.831C156.001 327.106 156.479 327.243 157.095 327.243ZM164.943 328.25H163.227V326.336H164.943V328.25Z" fill="black"/>
<path fill-rule="evenodd" clip-rule="evenodd" d="M560.367 29.1105C557.677 27.1399 554.428 26.0779 551.093 26.0784H532.271L518.971 89.9216H534.424L536.039 82.1626L536.755 83.0524C539.141 86.0202 542.39 88.1743 546.052 89.2176C549.715 90.2609 553.611 90.1418 557.203 88.8769C560.795 87.6119 563.905 85.2634 566.106 82.1554C568.307 79.0474 569.488 75.3331 569.489 71.5249C569.489 68.2702 568.627 65.0734 566.988 62.2613C565.349 59.4491 562.994 57.1222 560.162 55.5182L559.42 55.098L560.118 54.6078C562.846 52.6903 564.893 49.9533 565.961 46.7939C567.029 43.6345 567.062 40.217 566.056 37.0373C565.051 33.8576 563.058 31.081 560.367 29.1105ZM570.567 71.5251C570.567 75.5565 569.316 79.4885 566.986 82.7786C564.657 86.0688 561.363 88.555 557.561 89.8941C553.758 91.2332 549.634 91.3592 545.757 90.2548C542.238 89.2525 539.08 87.2816 536.638 84.5774L535.301 91H517.645L531.394 25L551.093 25C551.093 25 551.093 25 551.093 25C554.657 24.9994 558.129 26.1345 561.004 28.2404C563.88 30.3464 566.01 33.3138 567.085 36.712C568.159 40.1103 568.124 43.7627 566.982 47.1392C565.929 50.2551 563.985 52.9865 561.4 55C564.084 56.6736 566.323 58.9784 567.92 61.7183C569.654 64.6954 570.568 68.0796 570.567 71.5251Z" fill="black"/>
<path fill-rule="evenodd" clip-rule="evenodd" d="M535.401 41.7702C535.399 44.2883 536.003 46.7699 537.164 49.0046C538.324 51.2393 540.006 53.1613 542.067 54.6077L542.766 55.0979L542.023 55.5183C539.191 57.1221 536.835 59.4489 535.196 62.2611C533.558 65.0733 532.695 68.27 532.696 71.5249L531.617 71.5252C531.616 68.0795 532.53 64.6952 534.265 61.7181C535.861 58.9783 538.101 56.6736 540.785 55.0003C538.883 53.5207 537.32 51.6458 536.207 49.5016C534.966 47.113 534.32 44.4606 534.323 41.7692L535.401 41.7702Z" fill="black"/>
<path d="M62.1566 65.392V66.844C64.1366 67.768 65.7206 69.22 66.9086 71.2C68.1406 73.18 68.7566 75.358 68.7566 77.734C68.7566 81.694 67.3926 84.906 64.6646 87.37C61.9366 89.79 57.9766 91 52.7846 91H31.7306V43.876H52.2566C57.0526 43.876 60.7486 45.02 63.3446 47.308C65.9846 49.552 67.3046 52.39 67.3046 55.822C67.3046 60.354 65.5886 63.544 62.1566 65.392ZM37.6706 49.156V63.874H52.1246C58.2406 63.874 61.2986 61.366 61.2986 56.35C61.2986 53.886 60.4186 52.082 58.6586 50.938C56.8986 49.75 54.6766 49.156 51.9926 49.156H37.6706ZM37.6706 85.72H52.3886C55.4246 85.72 57.9106 85.082 59.8466 83.806C61.7826 82.486 62.7506 80.308 62.7506 77.272C62.7506 74.412 61.7826 72.344 59.8466 71.068C57.9546 69.748 55.4906 69.088 52.4546 69.088H37.6706V85.72ZM76.886 43.876H82.694V83.806H84.146L106.058 43.876H115.364V91H109.556V51.07H108.104L86.192 91H76.886V43.876ZM158.373 43.876V49.156H142.929V91H136.989V49.156H121.413V43.876H158.373ZM193.015 91L188.131 76.546H167.473L162.589 91H156.517L172.819 43.876H182.851L199.219 91H193.015ZM176.449 49.948L169.255 71.134H186.283L179.089 49.948H176.449ZM205.391 91V43.876H215.291L227.171 65.986H228.623L240.305 43.876H250.271V91H244.463V50.608H243.011L230.933 72.982H224.729L212.651 50.608H211.199V91H205.391ZM261.181 43.876H266.989V83.806H268.441L290.353 43.876H299.659V91H293.851V51.07H292.399L270.487 91H261.181V43.876ZM342.8 43.876H348.74V91H342.8V69.484H316.466V91H310.526V43.876H316.466V63.94H342.8V43.876ZM382.8 85.588H410.718V91H376.86V43.876H409.662V49.288H382.8V63.874H404.448V69.286H382.8V85.588Z" fill="black"/>
<path d="M28.7276 166.438H31.6316V186.403H32.3576L43.3136 166.438H47.9666V190H45.0626V170.035H44.3366L33.3806 190H28.7276V166.438ZM64.356 184.984H67.161C66.831 186.656 66.05 187.987 64.818 188.977C63.608 189.945 62.057 190.429 60.165 190.429C57.657 190.429 55.677 189.615 54.225 187.987C52.795 186.337 52.08 184.236 52.08 181.684C52.08 179.11 52.795 177.009 54.225 175.381C55.655 173.753 57.635 172.939 60.165 172.939C62.079 172.939 63.63 173.423 64.818 174.391C66.028 175.337 66.776 176.602 67.062 178.186H64.257C63.663 176.316 62.299 175.381 60.165 175.381C58.383 175.381 57.052 175.975 56.172 177.163C55.314 178.329 54.885 179.814 54.885 181.618C54.885 183.444 55.325 184.962 56.205 186.172C57.085 187.382 58.405 187.987 60.165 187.987C62.497 187.987 63.894 186.986 64.356 184.984ZM69.0662 175.81V173.368H83.3882V175.81H77.6462V190H74.8412V175.81H69.0662ZM87.4251 175.414C88.8991 173.764 90.9011 172.939 93.4311 172.939C95.9611 172.939 97.9521 173.764 99.4041 175.414C100.878 177.064 101.615 179.154 101.615 181.684C101.615 184.214 100.878 186.304 99.4041 187.954C97.9521 189.604 95.9611 190.429 93.4311 190.429C90.9011 190.429 88.8991 189.604 87.4251 187.954C85.9731 186.304 85.2471 184.214 85.2471 181.684C85.2471 179.154 85.9731 177.064 87.4251 175.414ZM89.4381 186.172C90.3621 187.382 91.6931 187.987 93.4311 187.987C95.1691 187.987 96.5001 187.382 97.4241 186.172C98.3481 184.94 98.8101 183.444 98.8101 181.684C98.8101 179.924 98.3481 178.439 97.4241 177.229C96.5001 175.997 95.1691 175.381 93.4311 175.381C91.6931 175.381 90.3621 175.997 89.4381 177.229C88.5141 178.439 88.0521 179.924 88.0521 181.684C88.0521 183.444 88.5141 184.94 89.4381 186.172ZM104.475 173.368H107.28V178.054C107.28 178.582 107.313 179 107.379 179.308C107.445 179.594 107.599 179.924 107.841 180.298C108.083 180.672 108.501 180.947 109.095 181.123C109.711 181.299 110.503 181.387 111.471 181.387C112.923 181.387 114.309 181.244 115.629 180.958V173.368H118.467V190H115.629V183.433C114.155 183.741 112.571 183.895 110.877 183.895C109.711 183.895 108.71 183.785 107.874 183.565C107.06 183.323 106.433 183.048 105.993 182.74C105.575 182.41 105.245 181.97 105.003 181.42C104.761 180.87 104.607 180.375 104.541 179.935C104.497 179.495 104.475 178.945 104.475 178.285V173.368ZM137.864 190H135.059V182.674H125.852V190H123.047V173.368H125.852V180.232H135.059V173.368H137.864V190ZM146.684 190H142.724V173.368H145.463V186.238H146.189L153.482 173.368H157.574V190H154.835V177.13H154.109L146.684 190ZM173.917 190L170.221 182.674H165.238V190H162.433V173.368H165.238V180.232H170.287L173.752 173.368H176.689L172.63 181.387L176.92 190H173.917ZM184.298 190H180.338V173.368H183.077V186.238H183.803L191.096 173.368H195.188V190H192.449V177.13H191.723L184.298 190Z" fill="black"/>
</g>
<defs>
<clipPath id="clip0_1526_5081">
<rect width="595" height="842" fill="white" transform="translate(0.408203)"/>
</clipPath>
</defs>
</svg>
