<svg width="868" height="47" viewBox="0 0 868 47" fill="none" xmlns="http://www.w3.org/2000/svg">
<path d="M4.35355 46.0157C4.15829 46.2109 3.84171 46.2109 3.64645 46.0157L0.464466 42.8337C0.269204 42.6384 0.269204 42.3218 0.464466 42.1266C0.659728 41.9313 0.976311 41.9313 1.17157 42.1266L4 44.955L6.82843 42.1266C7.02369 41.9313 7.34027 41.9313 7.53553 42.1266C7.7308 42.3218 7.7308 42.6384 7.53553 42.8337L4.35355 46.0157ZM864.353 46.0157C864.158 46.2109 863.841 46.2109 863.646 46.0157L860.464 42.8337C860.269 42.6384 860.269 42.3218 860.464 42.1266C860.66 41.9313 860.976 41.9313 861.171 42.1266L864 44.955L866.828 42.1266C867.023 41.9313 867.34 41.9313 867.535 42.1266C867.731 42.3218 867.731 42.6384 867.535 42.8337L864.353 46.0157ZM3.5 45.6621V41H4.5V45.6621H3.5ZM44 0.5H824V1.5H44V0.5ZM864.5 41V45.6621H863.5V41H864.5ZM824 0.5C846.367 0.5 864.5 18.6325 864.5 41H863.5C863.5 19.1848 845.815 1.5 824 1.5V0.5ZM3.5 41C3.5 18.6325 21.6325 0.5 44 0.5V1.5C22.1848 1.5 4.5 19.1848 4.5 41H3.5Z" fill="black"/>
</svg>
