<svg width="34" height="38" viewBox="0 0 34 38" fill="none" xmlns="http://www.w3.org/2000/svg">
<path d="M4.04105 0.307579C3.84579 0.112317 3.52921 0.112317 3.33395 0.307579L0.151966 3.48956C-0.0432961 3.68482 -0.0432961 4.0014 0.151966 4.19667C0.347228 4.39193 0.663811 4.39193 0.859073 4.19667L3.6875 1.36824L6.51593 4.19667C6.71119 4.39193 7.02777 4.39193 7.22303 4.19667C7.4183 4.0014 7.4183 3.68482 7.22303 3.48956L4.04105 0.307579ZM29.7911 0.307579C29.5958 0.112317 29.2792 0.112317 29.0839 0.307579L25.902 3.48956C25.7067 3.68482 25.7067 4.0014 25.902 4.19667C26.0972 4.39193 26.4138 4.39193 26.6091 4.19667L29.4375 1.36824L32.2659 4.19667C32.4612 4.39193 32.7778 4.39193 32.973 4.19667C33.1683 4.0014 33.1683 3.68482 32.973 3.48956L29.7911 0.307579ZM3.1875 0.661133L3.1875 24.125H4.1875L4.1875 0.661133H3.1875ZM29.9375 24.125V0.661133H28.9375V24.125H29.9375ZM16.5625 37.5C23.9493 37.5 29.9375 31.5118 29.9375 24.125H28.9375C28.9375 30.9595 23.397 36.5 16.5625 36.5V37.5ZM3.1875 24.125C3.1875 31.5118 9.17569 37.5 16.5625 37.5V36.5C9.72798 36.5 4.1875 30.9595 4.1875 24.125H3.1875Z" fill="black"/>
</svg>
