<svg width="843" height="595" viewBox="0 0 843 595" fill="none" xmlns="http://www.w3.org/2000/svg">
<rect width="842" height="595" transform="translate(0.566406)" fill="white"/>
<rect x="25.5664" y="25" width="77" height="545" fill="#8EA5EB" fill-opacity="0.2"/>
<rect x="127.566" y="25" width="77" height="545" fill="#8EA5EB" fill-opacity="0.2"/>
<rect x="229.566" y="25" width="77" height="545" fill="#8EA5EB" fill-opacity="0.2"/>
<rect x="331.566" y="25" width="78" height="545" fill="#8EA5EB" fill-opacity="0.2"/>
<rect x="536.566" y="25" width="77" height="545" fill="#8EA5EB" fill-opacity="0.2"/>
<rect x="638.566" y="25" width="77" height="545" fill="#8EA5EB" fill-opacity="0.2"/>
<rect x="434.566" y="25" width="77" height="545" fill="#8EA5EB" fill-opacity="0.2"/>
<rect x="740.566" y="25" width="77" height="545" fill="#8EA5EB" fill-opacity="0.2"/>
<path d="M25.5664 48H817.566" stroke="#8EA5EB"/>
<path d="M25.5664 70H817.566" stroke="#8EA5EB"/>
<path d="M25.5664 93H817.566" stroke="#8EA5EB"/>
<path d="M25.5664 116H817.566" stroke="#8EA5EB"/>
<path d="M25.5664 139H817.566" stroke="#8EA5EB"/>
<path d="M25.5664 161H817.566" stroke="#8EA5EB"/>
<path d="M25.5664 184H817.566" stroke="#8EA5EB"/>
<path d="M25.5664 207H817.566" stroke="#8EA5EB"/>
<path d="M25.5664 229H817.566" stroke="#8EA5EB"/>
<path d="M25.5664 252H817.566" stroke="#8EA5EB"/>
<path d="M25.5664 275H817.566" stroke="#8EA5EB"/>
<path d="M25.5664 297.938H817.566" stroke="#8EA5EB"/>
<path d="M25.5664 320H817.566" stroke="#8EA5EB"/>
<path d="M25.5664 343H817.566" stroke="#8EA5EB"/>
<path d="M25.5664 366H817.566" stroke="#8EA5EB"/>
<path d="M25.5664 388H817.566" stroke="#8EA5EB"/>
<path d="M25.5664 411H817.566" stroke="#8EA5EB"/>
<path d="M25.5664 434H817.566" stroke="#8EA5EB"/>
<path d="M25.5664 456H817.566" stroke="#8EA5EB"/>
<path d="M25.5664 479H817.566" stroke="#8EA5EB"/>
<path d="M25.5664 502H817.566" stroke="#8EA5EB"/>
<path d="M25.5664 525H817.566" stroke="#8EA5EB"/>
<path d="M25.5664 547H817.566" stroke="#8EA5EB"/>
</svg>
