<svg width="596" height="842" viewBox="0 0 596 842" fill="none" xmlns="http://www.w3.org/2000/svg">
<rect width="595" height="842" transform="translate(0.699219)" fill="white"/>
<rect x="25.1992" y="25" width="46" height="792" fill="#8EA5EB" fill-opacity="0.2"/>
<rect x="96.1992" y="25" width="47" height="792" fill="#8EA5EB" fill-opacity="0.2"/>
<rect x="168.199" y="25" width="46" height="792" fill="#8EA5EB" fill-opacity="0.2"/>
<rect x="239.199" y="25" width="46" height="792" fill="#8EA5EB" fill-opacity="0.2"/>
<rect x="381.199" y="25" width="47" height="792" fill="#8EA5EB" fill-opacity="0.2"/>
<rect x="453.199" y="25" width="46" height="792" fill="#8EA5EB" fill-opacity="0.2"/>
<rect x="310.199" y="25" width="46" height="792" fill="#8EA5EB" fill-opacity="0.2"/>
<rect x="524.199" y="25" width="46" height="792" fill="#8EA5EB" fill-opacity="0.2"/>
<path d="M25.1992 58H570.199" stroke="#8EA5EB"/>
<path d="M25.1992 91H570.199" stroke="#8EA5EB"/>
<path d="M25.1992 124H570.199" stroke="#8EA5EB"/>
<path d="M25.1992 157H570.199" stroke="#8EA5EB"/>
<path d="M25.1992 190H570.199" stroke="#8EA5EB"/>
<path d="M25.1992 223H570.199" stroke="#8EA5EB"/>
<path d="M25.1992 256H570.199" stroke="#8EA5EB"/>
<path d="M25.1992 289H570.199" stroke="#8EA5EB"/>
<path d="M25.1992 322H570.199" stroke="#8EA5EB"/>
<path d="M25.1992 355H570.199" stroke="#8EA5EB"/>
<path d="M25.1992 388H570.199" stroke="#8EA5EB"/>
<path d="M25.1992 421H570.199" stroke="#8EA5EB"/>
<path d="M25.1992 454H570.199" stroke="#8EA5EB"/>
<path d="M25.1992 487H570.199" stroke="#8EA5EB"/>
<path d="M25.1992 520H570.199" stroke="#8EA5EB"/>
<path d="M25.1992 553H570.199" stroke="#8EA5EB"/>
<path d="M25.1992 586H570.199" stroke="#8EA5EB"/>
<path d="M25.1992 619H570.199" stroke="#8EA5EB"/>
<path d="M25.1992 652H570.199" stroke="#8EA5EB"/>
<path d="M25.1992 684.909H570.199" stroke="#8EA5EB"/>
<path d="M25.1992 718.341H570.199" stroke="#8EA5EB"/>
<path d="M25.1992 751H570.199" stroke="#8EA5EB"/>
<path d="M25.1992 784H570.199" stroke="#8EA5EB"/>
</svg>
