<svg width="600" height="600" viewBox="0 0 600 600" fill="none" xmlns="http://www.w3.org/2000/svg">
<rect width="600" height="600" fill="white"/>
<rect x="17.5664" y="18" width="46" height="564" fill="#8EA5EB" fill-opacity="0.2"/>
<rect x="91.5664" y="18" width="46" height="564" fill="#8EA5EB" fill-opacity="0.2"/>
<rect x="165.566" y="18" width="46" height="564" fill="#8EA5EB" fill-opacity="0.2"/>
<rect x="239.566" y="18" width="46" height="564" fill="#8EA5EB" fill-opacity="0.2"/>
<rect x="313.566" y="18" width="46" height="564" fill="#8EA5EB" fill-opacity="0.2"/>
<rect x="387.566" y="18" width="46" height="564" fill="#8EA5EB" fill-opacity="0.2"/>
<rect x="461.566" y="18" width="46" height="564" fill="#8EA5EB" fill-opacity="0.2"/>
<rect x="535.566" y="18" width="46" height="564" fill="#8EA5EB" fill-opacity="0.2"/>
<path d="M17.8008 42H581.331" stroke="#8EA5EB"/>
<path d="M17.8008 65.5H581.331" stroke="#8EA5EB"/>
<path d="M17.8008 89H581.331" stroke="#8EA5EB"/>
<path d="M17.8008 112.5H581.331" stroke="#8EA5EB"/>
<path d="M17.8008 136H581.331" stroke="#8EA5EB"/>
<path d="M17.8008 159.5H581.331" stroke="#8EA5EB"/>
<path d="M17.8008 183H581.331" stroke="#8EA5EB"/>
<path d="M17.8008 206.5H581.331" stroke="#8EA5EB"/>
<path d="M17.8008 230H581.331" stroke="#8EA5EB"/>
<path d="M17.8008 253.5H581.331" stroke="#8EA5EB"/>
<path d="M17.8008 277H581.331" stroke="#8EA5EB"/>
<path d="M17.8008 300.5H581.331" stroke="#8EA5EB"/>
<path d="M17.8008 324H581.331" stroke="#8EA5EB"/>
<path d="M17.8008 347.5H581.331" stroke="#8EA5EB"/>
<path d="M17.8008 371H581.331" stroke="#8EA5EB"/>
<path d="M17.8008 394.5H581.331" stroke="#8EA5EB"/>
<path d="M17.8008 418H581.331" stroke="#8EA5EB"/>
<path d="M17.8008 441.5H581.331" stroke="#8EA5EB"/>
<path d="M17.8008 465H581.331" stroke="#8EA5EB"/>
<path d="M17.8008 488.5H581.331" stroke="#8EA5EB"/>
<path d="M17.8008 512H581.331" stroke="#8EA5EB"/>
<path d="M17.8008 535.5H581.331" stroke="#8EA5EB"/>
<path d="M17.8008 559H581.331" stroke="#8EA5EB"/>
</svg>
