<svg width="587" height="731" viewBox="0 0 587 731" fill="none" xmlns="http://www.w3.org/2000/svg">
<path fill-rule="evenodd" clip-rule="evenodd" d="M473.973 45.5265C444.173 23.7011 408.194 11.9383 371.256 11.9445H162.787L15.4765 719.056H186.634L204.524 633.119L212.448 642.974C238.878 675.845 274.858 699.704 315.423 711.259C355.988 722.814 399.139 721.495 438.923 707.485C478.706 693.475 513.162 667.464 537.535 633.04C561.908 598.617 574.998 557.478 574.999 515.299C575.009 479.251 565.452 443.844 547.304 412.697C529.155 381.55 503.066 355.778 471.699 338.012L463.482 333.359L471.208 327.929C501.43 306.692 524.099 276.377 535.927 241.384C547.754 206.391 548.125 168.54 536.985 133.322C525.845 98.1043 503.773 67.3518 473.973 45.5265ZM586.943 515.301C586.942 559.951 573.085 603.501 547.283 639.942C521.481 676.384 485.006 703.92 442.89 718.751C400.774 733.583 355.093 734.979 312.15 722.746C273.178 711.645 238.205 689.817 211.157 659.865L196.348 731H0.787231L153.075 1.87601e-06L371.254 2.44556e-06C371.254 2.44556e-06 371.254 2.44556e-06 371.254 2.44556e-06C410.73 -0.00640164 449.183 12.5649 481.031 35.8901C512.879 59.2154 536.467 92.0814 548.373 129.72C560.279 167.358 559.883 207.811 547.242 245.209C535.578 279.719 514.047 309.972 485.412 332.273C515.138 350.809 539.942 376.336 557.624 406.684C576.836 439.656 586.954 477.139 586.943 515.301Z" fill="black"/>
<path fill-rule="evenodd" clip-rule="evenodd" d="M197.463 185.741C197.436 213.631 204.132 241.116 216.985 265.867C229.838 290.618 248.469 311.906 271.298 327.926L279.034 333.355L270.81 338.012C239.441 355.775 213.348 381.546 195.197 412.693C177.046 443.84 167.488 479.247 167.498 515.297L155.554 515.3C155.543 477.136 165.661 439.653 184.877 406.679C202.561 376.333 227.365 350.808 257.092 332.275C236.027 315.887 218.717 295.121 206.385 271.372C192.647 244.917 185.489 215.539 185.519 185.729L197.463 185.741Z" fill="black"/>
</svg>
