<svg width="842" height="595" viewBox="0 0 842 595" fill="none" xmlns="http://www.w3.org/2000/svg">
<g clip-path="url(#clip0_1654_2634)">
<rect width="842" height="595" fill="white"/>
<rect x="25" y="25" width="77" height="544.875" fill="#8EA5EB" fill-opacity="0.2"/>
<rect x="127" y="25" width="77" height="544.875" fill="#8EA5EB" fill-opacity="0.2"/>
<rect x="229" y="25" width="77" height="544.875" fill="#8EA5EB" fill-opacity="0.2"/>
<rect x="331" y="25" width="78" height="544.875" fill="#8EA5EB" fill-opacity="0.2"/>
<rect x="536" y="25" width="77" height="544.875" fill="#8EA5EB" fill-opacity="0.2"/>
<rect x="638" y="25" width="77" height="544.875" fill="#8EA5EB" fill-opacity="0.2"/>
<rect x="434" y="25" width="77" height="544.875" fill="#8EA5EB" fill-opacity="0.2"/>
<rect x="740" y="25" width="77" height="544.875" fill="#8EA5EB" fill-opacity="0.2"/>
<path d="M25 48H817" stroke="#8EA5EB"/>
<path d="M25 70H817" stroke="#8EA5EB"/>
<path d="M25 93H817" stroke="#8EA5EB"/>
<path d="M25 116H817" stroke="#8EA5EB"/>
<path d="M25 139H817" stroke="#8EA5EB"/>
<path d="M25 161H817" stroke="#8EA5EB"/>
<path d="M25 184H817" stroke="#8EA5EB"/>
<path d="M25 207H817" stroke="#8EA5EB"/>
<path d="M25 229H817" stroke="#8EA5EB"/>
<path d="M25 252H817" stroke="#8EA5EB"/>
<path d="M25 275H817" stroke="#8EA5EB"/>
<path d="M25 297.938H817" stroke="#8EA5EB"/>
<path d="M25 320H817" stroke="#8EA5EB"/>
<path d="M25 343H817" stroke="#8EA5EB"/>
<path d="M25 366H817" stroke="#8EA5EB"/>
<path d="M25 388H817" stroke="#8EA5EB"/>
<path d="M25 411H817" stroke="#8EA5EB"/>
<path d="M25 434H817" stroke="#8EA5EB"/>
<path d="M25 456H817" stroke="#8EA5EB"/>
<path d="M25 479H817" stroke="#8EA5EB"/>
<path d="M25 502H817" stroke="#8EA5EB"/>
<path d="M25 525H817" stroke="#8EA5EB"/>
<path d="M25 547H817" stroke="#8EA5EB"/>
<path d="M269.614 162V129.87H276.364L284.464 144.945H285.454L293.419 129.87H300.214V162H296.254V134.46H295.264L287.029 149.715H282.799L274.564 134.46H273.574V162H269.614ZM326.913 149.31V150.615H309.633C309.693 153.345 310.338 155.475 311.568 157.005C312.798 158.505 314.568 159.255 316.878 159.255C319.998 159.255 321.918 158.085 322.638 155.745H326.508C326.118 157.785 325.083 159.435 323.403 160.695C321.753 161.955 319.578 162.585 316.878 162.585C313.428 162.585 310.728 161.46 308.778 159.21C306.828 156.96 305.853 154.035 305.853 150.435C305.853 146.895 306.828 144.06 308.778 141.93C310.728 139.8 313.398 138.735 316.788 138.735C319.998 138.735 322.473 139.755 324.213 141.795C325.953 143.805 326.853 146.31 326.913 149.31ZM316.698 142.065C314.748 142.065 313.188 142.575 312.018 143.595C310.848 144.585 310.128 145.86 309.858 147.42H322.953C322.833 145.89 322.218 144.615 321.108 143.595C319.998 142.575 318.528 142.065 316.698 142.065ZM352.308 158.67H356.493V168.435H352.758V162H333.138V168.435H329.403V158.67H332.418C334.278 154.71 335.208 150.33 335.208 145.53V139.32H352.308V158.67ZM348.483 158.67V142.65H338.763V145.53C338.763 150.66 337.938 155.04 336.288 158.67H348.483ZM366.093 162H360.693V139.32H364.428V156.87H365.418L375.363 139.32H380.943V162H377.208V144.45H376.218L366.093 162ZM402.015 162V159.615H401.025C399.465 161.595 397.11 162.585 393.96 162.585C391.47 162.585 389.49 161.865 388.02 160.425C386.55 158.985 385.815 157.245 385.815 155.205C385.815 153.135 386.535 151.365 387.975 149.895C389.415 148.425 391.59 147.69 394.5 147.69H401.88V146.79C401.88 145.35 401.43 144.21 400.53 143.37C399.63 142.5 398.235 142.065 396.345 142.065C393.045 142.065 391.29 143.16 391.08 145.35H387.255C387.405 143.28 388.29 141.66 389.91 140.49C391.56 139.32 393.675 138.735 396.255 138.735C399.165 138.735 401.445 139.41 403.095 140.76C404.775 142.11 405.615 144.045 405.615 146.565V162H402.015ZM394.905 159.255C396.795 159.255 398.43 158.64 399.81 157.41C401.19 156.15 401.88 154.62 401.88 152.82V150.75H395.085C391.455 150.75 389.64 152.19 389.64 155.07C389.64 156.36 390.09 157.38 390.99 158.13C391.92 158.88 393.225 159.255 394.905 159.255ZM422.654 151.2H410.369V147.825H422.654V151.2ZM443.792 155.16H447.617C447.167 157.44 446.102 159.255 444.422 160.605C442.772 161.925 440.657 162.585 438.077 162.585C434.657 162.585 431.957 161.475 429.977 159.255C428.027 157.005 427.052 154.14 427.052 150.66C427.052 147.15 428.027 144.285 429.977 142.065C431.927 139.845 434.627 138.735 438.077 138.735C440.687 138.735 442.802 139.395 444.422 140.715C446.072 142.005 447.092 143.73 447.482 145.89H443.657C442.847 143.34 440.987 142.065 438.077 142.065C435.647 142.065 433.832 142.875 432.632 144.495C431.462 146.085 430.877 148.11 430.877 150.57C430.877 153.06 431.477 155.13 432.677 156.78C433.877 158.43 435.677 159.255 438.077 159.255C441.257 159.255 443.162 157.89 443.792 155.16ZM472.22 149.31V150.615H454.94C455 153.345 455.645 155.475 456.875 157.005C458.105 158.505 459.875 159.255 462.185 159.255C465.305 159.255 467.225 158.085 467.945 155.745H471.815C471.425 157.785 470.39 159.435 468.71 160.695C467.06 161.955 464.885 162.585 462.185 162.585C458.735 162.585 456.035 161.46 454.085 159.21C452.135 156.96 451.16 154.035 451.16 150.435C451.16 146.895 452.135 144.06 454.085 141.93C456.035 139.8 458.705 138.735 462.095 138.735C465.305 138.735 467.78 139.755 469.52 141.795C471.26 143.805 472.16 146.31 472.22 149.31ZM462.005 142.065C460.055 142.065 458.495 142.575 457.325 143.595C456.155 144.585 455.435 145.86 455.165 147.42H468.26C468.14 145.89 467.525 144.615 466.415 143.595C465.305 142.575 463.835 142.065 462.005 142.065ZM488.3 142.065C485.93 142.065 484.145 142.89 482.945 144.54C481.775 146.19 481.19 148.23 481.19 150.66C481.19 153.09 481.775 155.13 482.945 156.78C484.145 158.43 485.93 159.255 488.3 159.255C490.52 159.255 492.23 158.475 493.43 156.915C494.66 155.325 495.275 153.24 495.275 150.66C495.275 148.08 494.66 146.01 493.43 144.45C492.23 142.86 490.52 142.065 488.3 142.065ZM477.41 139.32H481.1V141.75H482.09C483.71 139.74 486.065 138.735 489.155 138.735C492.215 138.735 494.63 139.86 496.4 142.11C498.2 144.36 499.1 147.21 499.1 150.66C499.1 154.17 498.2 157.035 496.4 159.255C494.63 161.475 492.215 162.585 489.155 162.585C486.035 162.585 483.725 161.58 482.225 159.57H481.235V171H477.41V139.32ZM520.306 149.49V150.48C521.416 150.75 522.301 151.35 522.961 152.28C523.651 153.21 523.996 154.38 523.996 155.79C523.996 159.93 521.326 162 515.986 162H504.331V139.32H515.581C517.861 139.32 519.616 139.83 520.846 140.85C522.106 141.84 522.736 143.235 522.736 145.035C522.736 146.085 522.496 147 522.016 147.78C521.566 148.56 520.996 149.13 520.306 149.49ZM508.111 158.76H515.761C518.701 158.76 520.171 157.635 520.171 155.385C520.171 153.105 518.701 151.965 515.761 151.965H508.111V158.76ZM508.111 142.56V148.725H515.221C516.511 148.725 517.441 148.44 518.011 147.87C518.611 147.3 518.911 146.565 518.911 145.665C518.911 143.595 517.681 142.56 515.221 142.56H508.111ZM534.586 162H529.186V139.32H532.921V156.87H533.911L543.856 139.32H549.436V162H545.701V144.45H544.711L534.586 162ZM571.408 155.16H575.233C574.783 157.44 573.718 159.255 572.038 160.605C570.388 161.925 568.273 162.585 565.693 162.585C562.273 162.585 559.573 161.475 557.593 159.255C555.643 157.005 554.668 154.14 554.668 150.66C554.668 147.15 555.643 144.285 557.593 142.065C559.543 139.845 562.243 138.735 565.693 138.735C568.303 138.735 570.418 139.395 572.038 140.715C573.688 142.005 574.708 143.73 575.098 145.89H571.273C570.463 143.34 568.603 142.065 565.693 142.065C563.263 142.065 561.448 142.875 560.248 144.495C559.078 146.085 558.493 148.11 558.493 150.57C558.493 153.06 559.093 155.13 560.293 156.78C561.493 158.43 563.293 159.255 565.693 159.255C568.873 159.255 570.778 157.89 571.408 155.16ZM217.889 189.855C217.889 187.11 215.414 185.76 211.859 185.76C209.564 185.76 207.449 186.48 205.559 187.965C203.714 189.405 202.274 191.16 201.329 193.275C200.384 195.345 199.934 197.46 199.934 199.575C199.934 204.3 202.229 207.63 207.089 207.63C209.924 207.63 212.219 206.955 213.884 205.605C215.549 204.255 216.404 202.59 216.404 200.565C216.404 198.225 215.054 196.065 211.679 195.84C213.749 195.3 215.279 194.445 216.314 193.23C217.349 192.015 217.889 190.89 217.889 189.855ZM212.489 200.34C212.489 202.095 211.994 203.535 210.959 204.66C209.969 205.785 208.889 206.325 207.674 206.325C205.289 206.325 204.074 204.48 204.074 200.745C204.074 199.62 204.164 198.54 204.299 197.505C206.009 196.83 207.674 196.515 209.339 196.515C211.274 196.515 212.489 198.18 212.489 200.34ZM211.409 187.02C213.029 187.02 214.244 188.055 214.244 189.855C214.244 191.79 212.669 194.13 209.744 195.255C207.764 195.435 206.009 195.795 204.479 196.29C204.884 193.725 205.739 191.565 207.044 189.765C208.349 187.92 209.789 187.02 211.409 187.02ZM234.405 204.84C234.405 206.64 235.125 207.63 237.15 207.63C239.58 207.63 241.92 205.245 244.215 200.52L243.225 199.935C241.515 203.715 240.075 205.605 238.905 205.605C238.32 205.605 238.005 205.245 238.005 204.525C238.005 203.76 238.23 202.545 238.725 200.88L242.73 186.39H238.365L236.385 193.95C235.71 196.515 234.495 199.035 232.695 201.6C230.94 204.165 229.32 205.425 227.925 205.425C226.71 205.425 226.125 204.66 226.125 203.085C226.125 202.185 226.35 200.88 226.8 199.215L228.105 194.31C228.87 191.475 229.23 189.63 229.23 188.775C229.23 186.75 228.15 185.76 226.035 185.76C223.56 185.76 221.22 188.145 218.97 192.915L219.96 193.5C221.67 189.72 223.065 187.83 224.19 187.83C224.775 187.83 225.09 188.19 225.09 188.91C225.045 190.035 224.775 191.34 224.37 192.825L222.39 199.71C221.985 201.105 221.76 202.455 221.76 203.67C221.76 206.325 223.155 207.63 225.9 207.63C227.7 207.63 229.455 206.775 231.165 205.065C232.92 203.31 234.405 201.105 235.62 198.405C234.81 201.195 234.405 203.355 234.405 204.84ZM280.756 199.89C279.271 203.13 277.516 205.56 276.481 205.56C275.896 205.56 275.581 205.2 275.581 204.48C275.581 203.535 275.806 202.275 276.301 200.61L278.281 193.68C278.731 192.15 278.956 190.8 278.956 189.63C278.956 187.065 277.651 185.76 274.996 185.76C273.331 185.76 271.531 186.66 269.686 188.415C267.841 190.17 266.311 192.375 265.096 195.03C265.771 192.555 266.086 190.71 266.086 189.495C266.086 187.02 264.961 185.76 262.666 185.76C260.956 185.76 259.156 186.615 257.311 188.325C255.466 190.035 253.936 192.285 252.721 195.03C253.531 191.925 253.936 189.765 253.936 188.595C253.936 186.75 253.261 185.76 251.236 185.76C248.536 185.76 246.331 188.415 244.171 192.915L245.161 193.5C246.556 190.26 248.311 187.83 249.436 187.83C250.021 187.83 250.336 188.19 250.336 188.91C250.336 189.495 250.111 190.71 249.616 192.555L245.746 207H249.976L252.136 198.99C252.811 196.605 254.026 194.175 255.781 191.7C257.536 189.225 259.066 188.01 260.281 188.01C261.721 188.01 262.216 188.64 262.216 190.26C262.216 191.16 261.991 192.465 261.541 194.22L258.031 207H262.261L264.466 198.99C265.096 196.695 266.311 194.31 268.066 191.79C269.866 189.27 271.396 188.01 272.611 188.01C274.096 188.01 274.591 188.64 274.591 190.26C274.591 191.115 274.366 192.465 273.871 194.22L272.566 199.125C271.846 201.69 271.486 203.535 271.486 204.66C271.486 206.64 272.521 207.63 274.636 207.63C277.336 207.63 279.541 204.975 281.701 200.475L280.756 199.89ZM304.589 199.89C303.914 201.465 303.149 202.815 302.339 203.94C301.574 205.02 300.944 205.56 300.449 205.56C299.774 205.56 299.459 205.2 299.459 204.435C299.459 203.49 299.819 201.825 300.494 199.35L304.049 186.39H299.819L298.559 191.16C298.244 187.74 296.399 185.76 293.654 185.76C287.894 185.58 282.404 193.68 282.584 200.7C282.584 204.975 284.609 207.63 288.209 207.63C291.404 207.63 294.509 205.245 296.264 201.15C295.949 202.455 295.769 203.4 295.769 204.03C295.769 206.415 296.669 207.63 298.424 207.63C300.899 207.63 303.284 205.245 305.579 200.475L304.589 199.89ZM289.784 205.965C287.849 205.965 286.679 204.435 286.679 201.375C286.679 199.62 286.994 197.64 287.669 195.525C288.344 193.41 289.289 191.52 290.504 189.9C291.764 188.235 293.114 187.425 294.509 187.425C296.264 187.425 297.614 188.955 297.614 192.24C297.614 193.995 297.299 195.93 296.624 198.045C295.949 200.16 295.004 202.005 293.744 203.58C292.529 205.155 291.179 205.965 289.784 205.965ZM307.197 206.595C306.477 206.595 306.117 206.37 306.117 205.875C307.332 205.875 307.962 205.02 307.962 203.94C307.962 202.905 307.242 202.095 306.387 202.095C305.172 202.095 304.272 203.31 304.272 204.705C304.272 206.325 305.577 207.585 307.152 207.585C308.637 207.585 309.807 206.595 310.797 205.2C311.472 204.3 312.192 202.455 312.597 201.24C312.822 200.61 313.137 199.755 313.452 198.675L314.262 195.93C314.487 195.165 314.757 194.13 315.072 192.825L315.972 189.63C316.782 192.105 317.277 198 317.412 207.315H318.582L329.877 188.775L326.862 199.98C326.277 202.095 325.962 203.67 325.962 204.705C325.962 206.46 326.997 207.63 329.112 207.63C331.677 207.63 334.107 205.245 336.357 200.52L335.412 199.935C333.927 203.22 332.262 205.605 331.137 205.605C330.507 205.605 330.192 205.2 330.192 204.435C330.192 203.85 330.417 202.635 330.912 200.79L334.827 186.39H329.877L321.192 201.15C320.922 190.89 319.212 185.76 316.017 185.76C313.362 185.76 310.842 188.19 308.502 193.005L309.537 193.455C311.022 189.9 312.822 187.965 314.217 187.965C314.487 187.965 314.757 188.055 314.982 188.235C313.092 195.57 311.652 200.43 310.707 202.905C309.762 205.38 308.592 206.595 307.197 206.595ZM352.195 204.84C352.195 206.64 352.915 207.63 354.94 207.63C357.37 207.63 359.71 205.245 362.005 200.52L361.015 199.935C359.305 203.715 357.865 205.605 356.695 205.605C356.11 205.605 355.795 205.245 355.795 204.525C355.795 203.76 356.02 202.545 356.515 200.88L360.52 186.39H356.155L354.175 193.95C353.5 196.515 352.285 199.035 350.485 201.6C348.73 204.165 347.11 205.425 345.715 205.425C344.5 205.425 343.915 204.66 343.915 203.085C343.915 202.185 344.14 200.88 344.59 199.215L345.895 194.31C346.66 191.475 347.02 189.63 347.02 188.775C347.02 186.75 345.94 185.76 343.825 185.76C341.35 185.76 339.01 188.145 336.76 192.915L337.75 193.5C339.46 189.72 340.855 187.83 341.98 187.83C342.565 187.83 342.88 188.19 342.88 188.91C342.835 190.035 342.565 191.34 342.16 192.825L340.18 199.71C339.775 201.105 339.55 202.455 339.55 203.67C339.55 206.325 340.945 207.63 343.69 207.63C345.49 207.63 347.245 206.775 348.955 205.065C350.71 203.31 352.195 201.105 353.41 198.405C352.6 201.195 352.195 203.355 352.195 204.84ZM386.621 199.89C384.866 203.67 383.471 205.56 382.346 205.56C381.716 205.56 381.401 205.2 381.401 204.435C381.401 203.67 381.671 202.41 382.166 200.7L386.171 186.39H381.851L379.421 195.345H371.096L371.546 193.815C372.131 191.7 372.446 189.945 372.446 188.64C372.446 186.885 371.366 185.76 369.251 185.76C366.776 185.76 364.391 188.145 362.186 192.915L363.131 193.5C364.886 189.72 366.326 187.83 367.451 187.83C368.081 187.83 368.396 188.19 368.396 188.91C368.486 189.675 367.811 191.88 367.676 192.555L363.671 207H367.991L370.691 196.92H378.971L378.386 199.125C377.666 201.78 377.306 203.625 377.306 204.66C377.306 206.64 378.386 207.63 380.546 207.63C382.931 207.63 385.271 205.245 387.566 200.475L386.621 199.89ZM412.399 199.89C410.644 203.67 409.249 205.56 408.124 205.56C407.494 205.56 407.179 205.2 407.179 204.435C407.179 203.67 407.449 202.41 407.944 200.7L411.949 186.39H407.629L405.199 195.345H396.874L397.324 193.815C397.909 191.7 398.224 189.945 398.224 188.64C398.224 186.885 397.144 185.76 395.029 185.76C392.554 185.76 390.169 188.145 387.964 192.915L388.909 193.5C390.664 189.72 392.104 187.83 393.229 187.83C393.859 187.83 394.174 188.19 394.174 188.91C394.264 189.675 393.589 191.88 393.454 192.555L389.449 207H393.769L396.469 196.92H404.749L404.164 199.125C403.444 201.78 403.084 203.625 403.084 204.66C403.084 206.64 404.164 207.63 406.324 207.63C408.709 207.63 411.049 205.245 413.344 200.475L412.399 199.89ZM422.157 206.37C419.637 206.37 418.602 204.12 418.602 199.305C418.467 194.04 421.842 186.975 425.937 187.065C428.322 187.065 429.492 189.225 429.492 193.59C429.492 197.01 428.502 201.105 426.162 204.12C424.992 205.605 423.642 206.37 422.157 206.37ZM433.632 194.175C433.632 189.27 430.887 185.76 426.207 185.76C422.832 185.76 420.042 187.065 417.837 189.72C415.632 192.33 414.507 195.525 414.507 199.35C414.507 204.255 417.252 207.63 421.977 207.63C425.262 207.63 428.007 206.28 430.257 203.535C432.507 200.79 433.632 197.64 433.632 194.175ZM451.152 190.8C451.152 187.74 448.857 185.76 444.852 185.76C441.252 185.76 437.697 187.47 435.762 191.565L436.527 192.15C438.372 189.045 440.802 187.47 443.862 187.47C445.797 187.47 447.372 188.55 447.372 190.395C447.372 194.265 442.872 194.94 439.317 196.245C436.932 197.145 434.952 199.17 434.952 202.545C434.952 205.56 437.382 207.63 441.657 207.63C444.672 207.63 448.137 205.605 449.982 201.87L449.172 201.42C447.552 204.165 444.762 206.01 442.422 206.01C440.217 206.01 438.687 205.02 438.687 203.085C438.687 199.395 443.187 198.675 446.742 197.28C449.217 196.335 451.152 194.175 451.152 190.8ZM460.09 206.37C457.57 206.37 456.535 204.12 456.535 199.305C456.4 194.04 459.775 186.975 463.87 187.065C466.255 187.065 467.425 189.225 467.425 193.59C467.425 197.01 466.435 201.105 464.095 204.12C462.925 205.605 461.575 206.37 460.09 206.37ZM471.565 194.175C471.565 189.27 468.82 185.76 464.14 185.76C460.765 185.76 457.975 187.065 455.77 189.72C453.565 192.33 452.44 195.525 452.44 199.35C452.44 204.255 455.185 207.63 459.91 207.63C463.195 207.63 465.94 206.28 468.19 203.535C470.44 200.79 471.565 197.64 471.565 194.175ZM504.611 174.51C504.206 175.365 503.621 175.995 502.856 176.355C502.361 176.58 500.291 177.075 496.646 177.84C492.506 178.74 489.626 180.81 487.691 184.365C486.746 186.12 486.026 187.965 485.486 189.855C484.946 191.7 484.451 193.995 484.001 196.74C483.866 197.505 483.776 198.495 483.776 199.62C483.776 204.3 486.026 207.45 490.166 207.45C493.631 207.45 496.646 206.145 499.166 203.58C501.731 201.015 502.991 197.955 502.991 194.445C502.991 192.15 502.361 190.215 501.101 188.685C499.841 187.11 498.131 186.345 496.016 186.345C491.696 186.345 488.006 189.225 485.891 194.04C486.206 192.6 486.476 191.475 486.701 190.62C486.926 189.765 487.286 188.775 487.736 187.74C488.231 186.705 488.771 185.85 489.356 185.22C490.616 183.96 492.596 182.7 495.251 182.115C498.086 181.44 500.111 180.9 501.236 180.405C502.406 179.91 503.261 179.28 503.801 178.515C504.386 177.75 504.971 176.4 505.556 174.51H504.611ZM498.806 193.725C498.806 196.29 498.131 199.35 496.916 201.915C495.701 204.48 493.631 206.37 491.426 206.37C489.041 206.37 487.781 204.165 487.781 200.43C487.781 197.415 488.456 194.535 489.806 191.79C491.201 189.045 492.956 187.695 495.071 187.695C497.456 187.695 498.806 190.17 498.806 193.725ZM526.949 199.89C526.274 201.465 525.509 202.815 524.699 203.94C523.934 205.02 523.304 205.56 522.809 205.56C522.134 205.56 521.819 205.2 521.819 204.435C521.819 203.49 522.179 201.825 522.854 199.35L526.409 186.39H522.179L520.919 191.16C520.604 187.74 518.759 185.76 516.014 185.76C510.254 185.58 504.764 193.68 504.944 200.7C504.944 204.975 506.969 207.63 510.569 207.63C513.764 207.63 516.869 205.245 518.624 201.15C518.309 202.455 518.129 203.4 518.129 204.03C518.129 206.415 519.029 207.63 520.784 207.63C523.259 207.63 525.644 205.245 527.939 200.475L526.949 199.89ZM512.144 205.965C510.209 205.965 509.039 204.435 509.039 201.375C509.039 199.62 509.354 197.64 510.029 195.525C510.704 193.41 511.649 191.52 512.864 189.9C514.124 188.235 515.474 187.425 516.869 187.425C518.624 187.425 519.974 188.955 519.974 192.24C519.974 193.995 519.659 195.93 518.984 198.045C518.309 200.16 517.364 202.005 516.104 203.58C514.889 205.155 513.539 205.965 512.144 205.965ZM529.512 207.495C530.772 207.495 531.807 206.955 532.707 205.56C533.607 204.165 534.237 202.995 535.002 200.52C535.407 199.305 535.722 198.225 535.947 197.28L536.982 193.455L538.107 189.495C538.467 188.19 538.962 187.65 540.087 187.65H541.842C543.282 187.65 544.002 188.46 544.002 190.08C544.002 190.62 543.867 191.34 543.642 192.195L541.212 200.88C540.807 202.275 540.582 203.67 540.582 204.975C540.582 206.55 541.797 207.63 543.822 207.63C546.387 207.63 548.772 205.245 551.067 200.52L550.077 199.935C548.322 203.715 546.927 205.605 545.802 205.605C545.217 205.605 544.902 205.2 544.902 204.39C544.902 203.625 545.172 202.365 545.667 200.565L547.872 192.69C548.142 191.745 548.277 190.8 548.277 189.9C548.277 187.56 546.927 186.39 544.272 186.39H534.417L534.057 187.65H535.857C536.622 187.65 537.027 187.92 537.027 188.505C537.027 188.55 536.982 188.91 536.847 189.495C535.137 196.2 533.787 200.7 532.797 203.04C531.852 205.335 530.727 206.505 529.422 206.505C528.792 206.505 528.477 206.28 528.477 205.785C529.692 205.785 530.322 204.93 530.322 203.85C530.322 202.815 529.602 202.005 528.747 202.005C527.532 202.005 526.632 203.22 526.632 204.615C526.632 206.235 527.937 207.495 529.512 207.495ZM574.198 199.89C573.523 201.465 572.758 202.815 571.948 203.94C571.183 205.02 570.553 205.56 570.058 205.56C569.383 205.56 569.068 205.2 569.068 204.435C569.068 203.49 569.428 201.825 570.103 199.35L573.658 186.39H569.428L568.168 191.16C567.853 187.74 566.008 185.76 563.263 185.76C557.503 185.58 552.013 193.68 552.193 200.7C552.193 204.975 554.218 207.63 557.818 207.63C561.013 207.63 564.118 205.245 565.873 201.15C565.558 202.455 565.378 203.4 565.378 204.03C565.378 206.415 566.278 207.63 568.033 207.63C570.508 207.63 572.893 205.245 575.188 200.475L574.198 199.89ZM559.393 205.965C557.458 205.965 556.288 204.435 556.288 201.375C556.288 199.62 556.603 197.64 557.278 195.525C557.953 193.41 558.898 191.52 560.113 189.9C561.373 188.235 562.723 187.425 564.118 187.425C565.873 187.425 567.223 188.955 567.223 192.24C567.223 193.995 566.908 195.93 566.233 198.045C565.558 200.16 564.613 202.005 563.353 203.58C562.138 205.155 560.788 205.965 559.393 205.965ZM600.016 199.89C598.261 203.67 596.866 205.56 595.741 205.56C595.111 205.56 594.796 205.2 594.796 204.435C594.796 203.67 595.066 202.41 595.561 200.7L599.566 186.39H595.246L592.816 195.345H584.491L584.941 193.815C585.526 191.7 585.841 189.945 585.841 188.64C585.841 186.885 584.761 185.76 582.646 185.76C580.171 185.76 577.786 188.145 575.581 192.915L576.526 193.5C578.281 189.72 579.721 187.83 580.846 187.83C581.476 187.83 581.791 188.19 581.791 188.91C581.881 189.675 581.206 191.88 581.071 192.555L577.066 207H581.386L584.086 196.92H592.366L591.781 199.125C591.061 201.78 590.701 203.625 590.701 204.66C590.701 206.64 591.781 207.63 593.941 207.63C596.326 207.63 598.666 205.245 600.961 200.475L600.016 199.89ZM619.539 190.215C619.539 187.335 617.064 185.76 613.779 185.76C610.494 185.76 607.749 187.11 605.499 189.855C603.249 192.6 602.124 195.75 602.124 199.35C602.124 201.825 602.844 203.805 604.284 205.335C605.769 206.865 607.659 207.63 609.954 207.63C613.329 207.63 616.299 205.2 618.324 200.88L617.379 200.43C615.624 204.075 613.464 205.875 610.899 205.875C608.244 205.875 606.444 203.31 606.444 199.395C606.444 195.66 607.209 192.69 608.739 190.395C610.269 188.1 612.024 186.93 614.049 186.93C616.524 186.93 618.189 188.28 618.189 190.035C617.784 189.63 617.244 189.405 616.614 189.405C615.489 189.405 614.544 190.71 614.544 191.97C614.544 193.05 615.129 194.13 616.614 194.13C618.414 194.13 619.539 192.015 619.539 190.215ZM642.303 199.89C641.628 201.465 640.863 202.815 640.053 203.94C639.288 205.02 638.658 205.56 638.163 205.56C637.488 205.56 637.173 205.2 637.173 204.435C637.173 203.49 637.533 201.825 638.208 199.35L641.763 186.39H637.533L636.273 191.16C635.958 187.74 634.113 185.76 631.368 185.76C625.608 185.58 620.118 193.68 620.298 200.7C620.298 204.975 622.323 207.63 625.923 207.63C629.118 207.63 632.223 205.245 633.978 201.15C633.663 202.455 633.483 203.4 633.483 204.03C633.483 206.415 634.383 207.63 636.138 207.63C638.613 207.63 640.998 205.245 643.293 200.475L642.303 199.89ZM627.498 205.965C625.563 205.965 624.393 204.435 624.393 201.375C624.393 199.62 624.708 197.64 625.383 195.525C626.058 193.41 627.003 191.52 628.218 189.9C629.478 188.235 630.828 187.425 632.223 187.425C633.978 187.425 635.328 188.955 635.328 192.24C635.328 193.995 635.013 195.93 634.338 198.045C633.663 200.16 632.718 202.005 631.458 203.58C630.243 205.155 628.893 205.965 627.498 205.965Z" fill="black"/>
<path fill-rule="evenodd" clip-rule="evenodd" d="M54.1291 27.8026C52.2946 26.459 50.0797 25.7349 47.8059 25.7353H34.9726L25.9043 69.2647H36.4406L37.542 63.9745L38.0298 64.5812C39.6568 66.6047 41.8716 68.0734 44.3688 68.7847C46.8659 69.496 49.5223 69.4149 51.9714 68.5524C54.4205 67.69 56.5415 66.0887 58.0419 63.9696C59.5423 61.8505 60.3481 59.318 60.3482 56.7215C60.3488 54.5024 59.7605 52.3228 58.6433 50.4054C57.5261 48.488 55.92 46.9015 53.9891 45.8079L53.4833 45.5214L53.9589 45.1872C55.8193 43.8798 57.2148 42.0136 57.9429 39.8595C58.671 37.7053 58.6938 35.3752 58.008 33.2072C57.3223 31.0392 55.9636 29.1461 54.1291 27.8026ZM61.0835 56.7217C61.0834 59.4703 60.2304 62.1512 58.642 64.3945C57.0537 66.6378 54.8083 68.3329 52.2156 69.246C49.623 70.159 46.8109 70.2449 44.1674 69.4919C41.7683 68.8085 39.6153 67.4648 37.9503 65.6209L37.0386 70H25L34.3747 25L47.8057 25C47.8058 25 47.8057 25 47.8057 25C50.2359 24.9996 52.603 25.7735 54.5635 27.2094C56.5241 28.6453 57.9762 30.6685 58.7091 32.9855C59.442 35.3025 59.4176 37.7927 58.6395 40.0949C57.9215 42.2194 56.596 44.0817 54.8333 45.4546C56.6632 46.5956 58.1901 48.1671 59.2786 50.0352C60.4613 52.065 61.0841 54.3724 61.0835 56.7217Z" fill="black"/>
<path fill-rule="evenodd" clip-rule="evenodd" d="M37.1073 36.4343C37.1056 38.1512 37.5178 39.8432 38.309 41.3668C39.1003 42.8905 40.2472 44.201 41.6525 45.1872L42.1288 45.5213L41.6225 45.808C39.6914 46.9015 38.0851 48.488 36.9678 50.4054C35.8504 52.3227 35.262 54.5024 35.2626 56.7216L34.5273 56.7218C34.5267 54.3724 35.1496 52.065 36.3325 50.0351C37.4211 48.1671 38.948 46.5957 40.778 45.4548C39.4812 44.446 38.4157 43.1677 37.6565 41.7057C36.8108 40.0771 36.3702 38.2687 36.372 36.4336L37.1073 36.4343Z" fill="black"/>
<rect y="297.5" width="842" height="300.154" fill="#FC4A27" fill-opacity="0.5"/>
</g>
<defs>
<clipPath id="clip0_1654_2634">
<rect width="842" height="595" fill="white"/>
</clipPath>
</defs>
</svg>
