<svg width="842" height="596" viewBox="0 0 842 596" fill="none" xmlns="http://www.w3.org/2000/svg">
<g clip-path="url(#clip0_1654_2710)">
<rect width="842" height="595" transform="translate(0 0.5)" fill="white"/>
<rect x="25" y="25.5" width="77" height="544.875" fill="#8EA5EB" fill-opacity="0.2"/>
<rect x="127" y="25.5" width="77" height="544.875" fill="#8EA5EB" fill-opacity="0.2"/>
<rect x="229" y="25.5" width="77" height="544.875" fill="#8EA5EB" fill-opacity="0.2"/>
<rect x="331" y="25.5" width="78" height="544.875" fill="#8EA5EB" fill-opacity="0.2"/>
<rect x="536" y="25.5" width="77" height="544.875" fill="#8EA5EB" fill-opacity="0.2"/>
<rect x="638" y="25.5" width="77" height="544.875" fill="#8EA5EB" fill-opacity="0.2"/>
<rect x="434" y="25.5" width="77" height="544.875" fill="#8EA5EB" fill-opacity="0.2"/>
<rect x="740" y="25.5" width="77" height="544.875" fill="#8EA5EB" fill-opacity="0.2"/>
<path d="M25 48.5H817" stroke="#8EA5EB"/>
<path d="M25 70.5H817" stroke="#8EA5EB"/>
<path d="M25 93.5H817" stroke="#8EA5EB"/>
<path d="M25 116.5H817" stroke="#8EA5EB"/>
<path d="M25 139.5H817" stroke="#8EA5EB"/>
<path d="M25 161.5H817" stroke="#8EA5EB"/>
<path d="M25 184.5H817" stroke="#8EA5EB"/>
<path d="M25 207.5H817" stroke="#8EA5EB"/>
<path d="M25 229.5H817" stroke="#8EA5EB"/>
<path d="M25 252.5H817" stroke="#8EA5EB"/>
<path d="M25 275.5H817" stroke="#8EA5EB"/>
<path d="M25 298.438H817" stroke="#8EA5EB"/>
<path d="M25 320.5H817" stroke="#8EA5EB"/>
<path d="M25 343.5H817" stroke="#8EA5EB"/>
<path d="M25 366.5H817" stroke="#8EA5EB"/>
<path d="M25 388.5H817" stroke="#8EA5EB"/>
<path d="M25 411.5H817" stroke="#8EA5EB"/>
<path d="M25 434.5H817" stroke="#8EA5EB"/>
<path d="M25 456.5H817" stroke="#8EA5EB"/>
<path d="M25 479.5H817" stroke="#8EA5EB"/>
<path d="M25 502.5H817" stroke="#8EA5EB"/>
<path d="M25 525.5H817" stroke="#8EA5EB"/>
<path d="M25 547.5H817" stroke="#8EA5EB"/>
<path d="M65.1142 252.5V220.37H71.8642L79.9642 235.445H80.9542L88.9192 220.37H95.7142V252.5H91.7542V224.96H90.7642L82.5292 240.215H78.2992L70.0642 224.96H69.0742V252.5H65.1142ZM122.413 239.81V241.115H105.133C105.193 243.845 105.838 245.975 107.068 247.505C108.298 249.005 110.068 249.755 112.378 249.755C115.498 249.755 117.418 248.585 118.138 246.245H122.008C121.618 248.285 120.583 249.935 118.903 251.195C117.253 252.455 115.078 253.085 112.378 253.085C108.928 253.085 106.228 251.96 104.278 249.71C102.328 247.46 101.353 244.535 101.353 240.935C101.353 237.395 102.328 234.56 104.278 232.43C106.228 230.3 108.898 229.235 112.288 229.235C115.498 229.235 117.973 230.255 119.713 232.295C121.453 234.305 122.353 236.81 122.413 239.81ZM112.198 232.565C110.248 232.565 108.688 233.075 107.518 234.095C106.348 235.085 105.628 236.36 105.358 237.92H118.453C118.333 236.39 117.718 235.115 116.608 234.095C115.498 233.075 114.028 232.565 112.198 232.565ZM147.808 249.17H151.993V258.935H148.258V252.5H128.638V258.935H124.903V249.17H127.918C129.778 245.21 130.708 240.83 130.708 236.03V229.82H147.808V249.17ZM143.983 249.17V233.15H134.263V236.03C134.263 241.16 133.438 245.54 131.788 249.17H143.983ZM161.593 252.5H156.193V229.82H159.928V247.37H160.918L170.863 229.82H176.443V252.5H172.708V234.95H171.718L161.593 252.5ZM197.515 252.5V250.115H196.525C194.965 252.095 192.61 253.085 189.46 253.085C186.97 253.085 184.99 252.365 183.52 250.925C182.05 249.485 181.315 247.745 181.315 245.705C181.315 243.635 182.035 241.865 183.475 240.395C184.915 238.925 187.09 238.19 190 238.19H197.38V237.29C197.38 235.85 196.93 234.71 196.03 233.87C195.13 233 193.735 232.565 191.845 232.565C188.545 232.565 186.79 233.66 186.58 235.85H182.755C182.905 233.78 183.79 232.16 185.41 230.99C187.06 229.82 189.175 229.235 191.755 229.235C194.665 229.235 196.945 229.91 198.595 231.26C200.275 232.61 201.115 234.545 201.115 237.065V252.5H197.515ZM190.405 249.755C192.295 249.755 193.93 249.14 195.31 247.91C196.69 246.65 197.38 245.12 197.38 243.32V241.25H190.585C186.955 241.25 185.14 242.69 185.14 245.57C185.14 246.86 185.59 247.88 186.49 248.63C187.42 249.38 188.725 249.755 190.405 249.755ZM218.154 241.7H205.869V238.325H218.154V241.7ZM239.292 245.66H243.117C242.667 247.94 241.602 249.755 239.922 251.105C238.272 252.425 236.157 253.085 233.577 253.085C230.157 253.085 227.457 251.975 225.477 249.755C223.527 247.505 222.552 244.64 222.552 241.16C222.552 237.65 223.527 234.785 225.477 232.565C227.427 230.345 230.127 229.235 233.577 229.235C236.187 229.235 238.302 229.895 239.922 231.215C241.572 232.505 242.592 234.23 242.982 236.39H239.157C238.347 233.84 236.487 232.565 233.577 232.565C231.147 232.565 229.332 233.375 228.132 234.995C226.962 236.585 226.377 238.61 226.377 241.07C226.377 243.56 226.977 245.63 228.177 247.28C229.377 248.93 231.177 249.755 233.577 249.755C236.757 249.755 238.662 248.39 239.292 245.66ZM267.72 239.81V241.115H250.44C250.5 243.845 251.145 245.975 252.375 247.505C253.605 249.005 255.375 249.755 257.685 249.755C260.805 249.755 262.725 248.585 263.445 246.245H267.315C266.925 248.285 265.89 249.935 264.21 251.195C262.56 252.455 260.385 253.085 257.685 253.085C254.235 253.085 251.535 251.96 249.585 249.71C247.635 247.46 246.66 244.535 246.66 240.935C246.66 237.395 247.635 234.56 249.585 232.43C251.535 230.3 254.205 229.235 257.595 229.235C260.805 229.235 263.28 230.255 265.02 232.295C266.76 234.305 267.66 236.81 267.72 239.81ZM257.505 232.565C255.555 232.565 253.995 233.075 252.825 234.095C251.655 235.085 250.935 236.36 250.665 237.92H263.76C263.64 236.39 263.025 235.115 261.915 234.095C260.805 233.075 259.335 232.565 257.505 232.565ZM283.8 232.565C281.43 232.565 279.645 233.39 278.445 235.04C277.275 236.69 276.69 238.73 276.69 241.16C276.69 243.59 277.275 245.63 278.445 247.28C279.645 248.93 281.43 249.755 283.8 249.755C286.02 249.755 287.73 248.975 288.93 247.415C290.16 245.825 290.775 243.74 290.775 241.16C290.775 238.58 290.16 236.51 288.93 234.95C287.73 233.36 286.02 232.565 283.8 232.565ZM272.91 229.82H276.6V232.25H277.59C279.21 230.24 281.565 229.235 284.655 229.235C287.715 229.235 290.13 230.36 291.9 232.61C293.7 234.86 294.6 237.71 294.6 241.16C294.6 244.67 293.7 247.535 291.9 249.755C290.13 251.975 287.715 253.085 284.655 253.085C281.535 253.085 279.225 252.08 277.725 250.07H276.735V261.5H272.91V229.82ZM315.806 239.99V240.98C316.916 241.25 317.801 241.85 318.461 242.78C319.151 243.71 319.496 244.88 319.496 246.29C319.496 250.43 316.826 252.5 311.486 252.5H299.831V229.82H311.081C313.361 229.82 315.116 230.33 316.346 231.35C317.606 232.34 318.236 233.735 318.236 235.535C318.236 236.585 317.996 237.5 317.516 238.28C317.066 239.06 316.496 239.63 315.806 239.99ZM303.611 249.26H311.261C314.201 249.26 315.671 248.135 315.671 245.885C315.671 243.605 314.201 242.465 311.261 242.465H303.611V249.26ZM303.611 233.06V239.225H310.721C312.011 239.225 312.941 238.94 313.511 238.37C314.111 237.8 314.411 237.065 314.411 236.165C314.411 234.095 313.181 233.06 310.721 233.06H303.611ZM330.086 252.5H324.686V229.82H328.421V247.37H329.411L339.356 229.82H344.936V252.5H341.201V234.95H340.211L330.086 252.5ZM366.908 245.66H370.733C370.283 247.94 369.218 249.755 367.538 251.105C365.888 252.425 363.773 253.085 361.193 253.085C357.773 253.085 355.073 251.975 353.093 249.755C351.143 247.505 350.168 244.64 350.168 241.16C350.168 237.65 351.143 234.785 353.093 232.565C355.043 230.345 357.743 229.235 361.193 229.235C363.803 229.235 365.918 229.895 367.538 231.215C369.188 232.505 370.208 234.23 370.598 236.39H366.773C365.963 233.84 364.103 232.565 361.193 232.565C358.763 232.565 356.948 233.375 355.748 234.995C354.578 236.585 353.993 238.61 353.993 241.07C353.993 243.56 354.593 245.63 355.793 247.28C356.993 248.93 358.793 249.755 361.193 249.755C364.373 249.755 366.278 248.39 366.908 245.66ZM99.217 280.355C99.217 277.61 96.742 276.26 93.187 276.26C90.892 276.26 88.777 276.98 86.887 278.465C85.042 279.905 83.602 281.66 82.657 283.775C81.712 285.845 81.262 287.96 81.262 290.075C81.262 294.8 83.557 298.13 88.417 298.13C91.252 298.13 93.547 297.455 95.212 296.105C96.877 294.755 97.732 293.09 97.732 291.065C97.732 288.725 96.382 286.565 93.007 286.34C95.077 285.8 96.607 284.945 97.642 283.73C98.677 282.515 99.217 281.39 99.217 280.355ZM93.817 290.84C93.817 292.595 93.322 294.035 92.287 295.16C91.297 296.285 90.217 296.825 89.002 296.825C86.617 296.825 85.402 294.98 85.402 291.245C85.402 290.12 85.492 289.04 85.627 288.005C87.337 287.33 89.002 287.015 90.667 287.015C92.602 287.015 93.817 288.68 93.817 290.84ZM92.737 277.52C94.357 277.52 95.572 278.555 95.572 280.355C95.572 282.29 93.997 284.63 91.072 285.755C89.092 285.935 87.337 286.295 85.807 286.79C86.212 284.225 87.067 282.065 88.372 280.265C89.677 278.42 91.117 277.52 92.737 277.52ZM115.733 295.34C115.733 297.14 116.453 298.13 118.478 298.13C120.908 298.13 123.248 295.745 125.543 291.02L124.553 290.435C122.843 294.215 121.403 296.105 120.233 296.105C119.648 296.105 119.333 295.745 119.333 295.025C119.333 294.26 119.558 293.045 120.053 291.38L124.058 276.89H119.693L117.713 284.45C117.038 287.015 115.823 289.535 114.023 292.1C112.268 294.665 110.648 295.925 109.253 295.925C108.038 295.925 107.453 295.16 107.453 293.585C107.453 292.685 107.678 291.38 108.128 289.715L109.433 284.81C110.198 281.975 110.558 280.13 110.558 279.275C110.558 277.25 109.478 276.26 107.363 276.26C104.888 276.26 102.548 278.645 100.298 283.415L101.288 284C102.998 280.22 104.393 278.33 105.518 278.33C106.103 278.33 106.418 278.69 106.418 279.41C106.373 280.535 106.103 281.84 105.698 283.325L103.718 290.21C103.313 291.605 103.088 292.955 103.088 294.17C103.088 296.825 104.483 298.13 107.228 298.13C109.028 298.13 110.783 297.275 112.493 295.565C114.248 293.81 115.733 291.605 116.948 288.905C116.138 291.695 115.733 293.855 115.733 295.34ZM162.085 290.39C160.6 293.63 158.845 296.06 157.81 296.06C157.225 296.06 156.91 295.7 156.91 294.98C156.91 294.035 157.135 292.775 157.63 291.11L159.61 284.18C160.06 282.65 160.285 281.3 160.285 280.13C160.285 277.565 158.98 276.26 156.325 276.26C154.66 276.26 152.86 277.16 151.015 278.915C149.17 280.67 147.64 282.875 146.425 285.53C147.1 283.055 147.415 281.21 147.415 279.995C147.415 277.52 146.29 276.26 143.995 276.26C142.285 276.26 140.485 277.115 138.64 278.825C136.795 280.535 135.265 282.785 134.05 285.53C134.86 282.425 135.265 280.265 135.265 279.095C135.265 277.25 134.59 276.26 132.565 276.26C129.865 276.26 127.66 278.915 125.5 283.415L126.49 284C127.885 280.76 129.64 278.33 130.765 278.33C131.35 278.33 131.665 278.69 131.665 279.41C131.665 279.995 131.44 281.21 130.945 283.055L127.075 297.5H131.305L133.465 289.49C134.14 287.105 135.355 284.675 137.11 282.2C138.865 279.725 140.395 278.51 141.61 278.51C143.05 278.51 143.545 279.14 143.545 280.76C143.545 281.66 143.32 282.965 142.87 284.72L139.36 297.5H143.59L145.795 289.49C146.425 287.195 147.64 284.81 149.395 282.29C151.195 279.77 152.725 278.51 153.94 278.51C155.425 278.51 155.92 279.14 155.92 280.76C155.92 281.615 155.695 282.965 155.2 284.72L153.895 289.625C153.175 292.19 152.815 294.035 152.815 295.16C152.815 297.14 153.85 298.13 155.965 298.13C158.665 298.13 160.87 295.475 163.03 290.975L162.085 290.39ZM185.917 290.39C185.242 291.965 184.477 293.315 183.667 294.44C182.902 295.52 182.272 296.06 181.777 296.06C181.102 296.06 180.787 295.7 180.787 294.935C180.787 293.99 181.147 292.325 181.822 289.85L185.377 276.89H181.147L179.887 281.66C179.572 278.24 177.727 276.26 174.982 276.26C169.222 276.08 163.732 284.18 163.912 291.2C163.912 295.475 165.937 298.13 169.537 298.13C172.732 298.13 175.837 295.745 177.592 291.65C177.277 292.955 177.097 293.9 177.097 294.53C177.097 296.915 177.997 298.13 179.752 298.13C182.227 298.13 184.612 295.745 186.907 290.975L185.917 290.39ZM171.112 296.465C169.177 296.465 168.007 294.935 168.007 291.875C168.007 290.12 168.322 288.14 168.997 286.025C169.672 283.91 170.617 282.02 171.832 280.4C173.092 278.735 174.442 277.925 175.837 277.925C177.592 277.925 178.942 279.455 178.942 282.74C178.942 284.495 178.627 286.43 177.952 288.545C177.277 290.66 176.332 292.505 175.072 294.08C173.857 295.655 172.507 296.465 171.112 296.465ZM188.526 297.095C187.806 297.095 187.446 296.87 187.446 296.375C188.661 296.375 189.291 295.52 189.291 294.44C189.291 293.405 188.571 292.595 187.716 292.595C186.501 292.595 185.601 293.81 185.601 295.205C185.601 296.825 186.906 298.085 188.481 298.085C189.966 298.085 191.136 297.095 192.126 295.7C192.801 294.8 193.521 292.955 193.926 291.74C194.151 291.11 194.466 290.255 194.781 289.175L195.591 286.43C195.816 285.665 196.086 284.63 196.401 283.325L197.301 280.13C198.111 282.605 198.606 288.5 198.741 297.815H199.911L211.206 279.275L208.191 290.48C207.606 292.595 207.291 294.17 207.291 295.205C207.291 296.96 208.326 298.13 210.441 298.13C213.006 298.13 215.436 295.745 217.686 291.02L216.741 290.435C215.256 293.72 213.591 296.105 212.466 296.105C211.836 296.105 211.521 295.7 211.521 294.935C211.521 294.35 211.746 293.135 212.241 291.29L216.156 276.89H211.206L202.521 291.65C202.251 281.39 200.541 276.26 197.346 276.26C194.691 276.26 192.171 278.69 189.831 283.505L190.866 283.955C192.351 280.4 194.151 278.465 195.546 278.465C195.816 278.465 196.086 278.555 196.311 278.735C194.421 286.07 192.981 290.93 192.036 293.405C191.091 295.88 189.921 297.095 188.526 297.095ZM233.523 295.34C233.523 297.14 234.243 298.13 236.268 298.13C238.698 298.13 241.038 295.745 243.333 291.02L242.343 290.435C240.633 294.215 239.193 296.105 238.023 296.105C237.438 296.105 237.123 295.745 237.123 295.025C237.123 294.26 237.348 293.045 237.843 291.38L241.848 276.89H237.483L235.503 284.45C234.828 287.015 233.613 289.535 231.813 292.1C230.058 294.665 228.438 295.925 227.043 295.925C225.828 295.925 225.243 295.16 225.243 293.585C225.243 292.685 225.468 291.38 225.918 289.715L227.223 284.81C227.988 281.975 228.348 280.13 228.348 279.275C228.348 277.25 227.268 276.26 225.153 276.26C222.678 276.26 220.338 278.645 218.088 283.415L219.078 284C220.788 280.22 222.183 278.33 223.308 278.33C223.893 278.33 224.208 278.69 224.208 279.41C224.163 280.535 223.893 281.84 223.488 283.325L221.508 290.21C221.103 291.605 220.878 292.955 220.878 294.17C220.878 296.825 222.273 298.13 225.018 298.13C226.818 298.13 228.573 297.275 230.283 295.565C232.038 293.81 233.523 291.605 234.738 288.905C233.928 291.695 233.523 293.855 233.523 295.34ZM267.949 290.39C266.194 294.17 264.799 296.06 263.674 296.06C263.044 296.06 262.729 295.7 262.729 294.935C262.729 294.17 262.999 292.91 263.494 291.2L267.499 276.89H263.179L260.749 285.845H252.424L252.874 284.315C253.459 282.2 253.774 280.445 253.774 279.14C253.774 277.385 252.694 276.26 250.579 276.26C248.104 276.26 245.719 278.645 243.514 283.415L244.459 284C246.214 280.22 247.654 278.33 248.779 278.33C249.409 278.33 249.724 278.69 249.724 279.41C249.814 280.175 249.139 282.38 249.004 283.055L244.999 297.5H249.319L252.019 287.42H260.299L259.714 289.625C258.994 292.28 258.634 294.125 258.634 295.16C258.634 297.14 259.714 298.13 261.874 298.13C264.259 298.13 266.599 295.745 268.894 290.975L267.949 290.39ZM293.727 290.39C291.972 294.17 290.577 296.06 289.452 296.06C288.822 296.06 288.507 295.7 288.507 294.935C288.507 294.17 288.777 292.91 289.272 291.2L293.277 276.89H288.957L286.527 285.845H278.202L278.652 284.315C279.237 282.2 279.552 280.445 279.552 279.14C279.552 277.385 278.472 276.26 276.357 276.26C273.882 276.26 271.497 278.645 269.292 283.415L270.237 284C271.992 280.22 273.432 278.33 274.557 278.33C275.187 278.33 275.502 278.69 275.502 279.41C275.592 280.175 274.917 282.38 274.782 283.055L270.777 297.5H275.097L277.797 287.42H286.077L285.492 289.625C284.772 292.28 284.412 294.125 284.412 295.16C284.412 297.14 285.492 298.13 287.652 298.13C290.037 298.13 292.377 295.745 294.672 290.975L293.727 290.39ZM303.485 296.87C300.965 296.87 299.93 294.62 299.93 289.805C299.795 284.54 303.17 277.475 307.265 277.565C309.65 277.565 310.82 279.725 310.82 284.09C310.82 287.51 309.83 291.605 307.49 294.62C306.32 296.105 304.97 296.87 303.485 296.87ZM314.96 284.675C314.96 279.77 312.215 276.26 307.535 276.26C304.16 276.26 301.37 277.565 299.165 280.22C296.96 282.83 295.835 286.025 295.835 289.85C295.835 294.755 298.58 298.13 303.305 298.13C306.59 298.13 309.335 296.78 311.585 294.035C313.835 291.29 314.96 288.14 314.96 284.675ZM332.48 281.3C332.48 278.24 330.185 276.26 326.18 276.26C322.58 276.26 319.025 277.97 317.09 282.065L317.855 282.65C319.7 279.545 322.13 277.97 325.19 277.97C327.125 277.97 328.7 279.05 328.7 280.895C328.7 284.765 324.2 285.44 320.645 286.745C318.26 287.645 316.28 289.67 316.28 293.045C316.28 296.06 318.71 298.13 322.985 298.13C326 298.13 329.465 296.105 331.31 292.37L330.5 291.92C328.88 294.665 326.09 296.51 323.75 296.51C321.545 296.51 320.015 295.52 320.015 293.585C320.015 289.895 324.515 289.175 328.07 287.78C330.545 286.835 332.48 284.675 332.48 281.3ZM341.418 296.87C338.898 296.87 337.863 294.62 337.863 289.805C337.728 284.54 341.103 277.475 345.198 277.565C347.583 277.565 348.753 279.725 348.753 284.09C348.753 287.51 347.763 291.605 345.423 294.62C344.253 296.105 342.903 296.87 341.418 296.87ZM352.893 284.675C352.893 279.77 350.148 276.26 345.468 276.26C342.093 276.26 339.303 277.565 337.098 280.22C334.893 282.83 333.768 286.025 333.768 289.85C333.768 294.755 336.513 298.13 341.238 298.13C344.523 298.13 347.268 296.78 349.518 294.035C351.768 291.29 352.893 288.14 352.893 284.675ZM158.077 310.01C157.672 310.865 157.087 311.495 156.322 311.855C155.827 312.08 153.757 312.575 150.112 313.34C145.972 314.24 143.092 316.31 141.157 319.865C140.212 321.62 139.492 323.465 138.952 325.355C138.412 327.2 137.917 329.495 137.467 332.24C137.332 333.005 137.242 333.995 137.242 335.12C137.242 339.8 139.492 342.95 143.632 342.95C147.097 342.95 150.112 341.645 152.632 339.08C155.197 336.515 156.457 333.455 156.457 329.945C156.457 327.65 155.827 325.715 154.567 324.185C153.307 322.61 151.597 321.845 149.482 321.845C145.162 321.845 141.472 324.725 139.357 329.54C139.672 328.1 139.942 326.975 140.167 326.12C140.392 325.265 140.752 324.275 141.202 323.24C141.697 322.205 142.237 321.35 142.822 320.72C144.082 319.46 146.062 318.2 148.717 317.615C151.552 316.94 153.577 316.4 154.702 315.905C155.872 315.41 156.727 314.78 157.267 314.015C157.852 313.25 158.437 311.9 159.022 310.01H158.077ZM152.272 329.225C152.272 331.79 151.597 334.85 150.382 337.415C149.167 339.98 147.097 341.87 144.892 341.87C142.507 341.87 141.247 339.665 141.247 335.93C141.247 332.915 141.922 330.035 143.272 327.29C144.667 324.545 146.422 323.195 148.537 323.195C150.922 323.195 152.272 325.67 152.272 329.225ZM180.415 335.39C179.74 336.965 178.975 338.315 178.165 339.44C177.4 340.52 176.77 341.06 176.275 341.06C175.6 341.06 175.285 340.7 175.285 339.935C175.285 338.99 175.645 337.325 176.32 334.85L179.875 321.89H175.645L174.385 326.66C174.07 323.24 172.225 321.26 169.48 321.26C163.72 321.08 158.23 329.18 158.41 336.2C158.41 340.475 160.435 343.13 164.035 343.13C167.23 343.13 170.335 340.745 172.09 336.65C171.775 337.955 171.595 338.9 171.595 339.53C171.595 341.915 172.495 343.13 174.25 343.13C176.725 343.13 179.11 340.745 181.405 335.975L180.415 335.39ZM165.61 341.465C163.675 341.465 162.505 339.935 162.505 336.875C162.505 335.12 162.82 333.14 163.495 331.025C164.17 328.91 165.115 327.02 166.33 325.4C167.59 323.735 168.94 322.925 170.335 322.925C172.09 322.925 173.44 324.455 173.44 327.74C173.44 329.495 173.125 331.43 172.45 333.545C171.775 335.66 170.83 337.505 169.57 339.08C168.355 340.655 167.005 341.465 165.61 341.465ZM182.979 342.995C184.239 342.995 185.274 342.455 186.174 341.06C187.074 339.665 187.704 338.495 188.469 336.02C188.874 334.805 189.189 333.725 189.414 332.78L190.449 328.955L191.574 324.995C191.934 323.69 192.429 323.15 193.554 323.15H195.309C196.749 323.15 197.469 323.96 197.469 325.58C197.469 326.12 197.334 326.84 197.109 327.695L194.679 336.38C194.274 337.775 194.049 339.17 194.049 340.475C194.049 342.05 195.264 343.13 197.289 343.13C199.854 343.13 202.239 340.745 204.534 336.02L203.544 335.435C201.789 339.215 200.394 341.105 199.269 341.105C198.684 341.105 198.369 340.7 198.369 339.89C198.369 339.125 198.639 337.865 199.134 336.065L201.339 328.19C201.609 327.245 201.744 326.3 201.744 325.4C201.744 323.06 200.394 321.89 197.739 321.89H187.884L187.524 323.15H189.324C190.089 323.15 190.494 323.42 190.494 324.005C190.494 324.05 190.449 324.41 190.314 324.995C188.604 331.7 187.254 336.2 186.264 338.54C185.319 340.835 184.194 342.005 182.889 342.005C182.259 342.005 181.944 341.78 181.944 341.285C183.159 341.285 183.789 340.43 183.789 339.35C183.789 338.315 183.069 337.505 182.214 337.505C180.999 337.505 180.099 338.72 180.099 340.115C180.099 341.735 181.404 342.995 182.979 342.995ZM227.664 335.39C226.989 336.965 226.224 338.315 225.414 339.44C224.649 340.52 224.019 341.06 223.524 341.06C222.849 341.06 222.534 340.7 222.534 339.935C222.534 338.99 222.894 337.325 223.569 334.85L227.124 321.89H222.894L221.634 326.66C221.319 323.24 219.474 321.26 216.729 321.26C210.969 321.08 205.479 329.18 205.659 336.2C205.659 340.475 207.684 343.13 211.284 343.13C214.479 343.13 217.584 340.745 219.339 336.65C219.024 337.955 218.844 338.9 218.844 339.53C218.844 341.915 219.744 343.13 221.499 343.13C223.974 343.13 226.359 340.745 228.654 335.975L227.664 335.39ZM212.859 341.465C210.924 341.465 209.754 339.935 209.754 336.875C209.754 335.12 210.069 333.14 210.744 331.025C211.419 328.91 212.364 327.02 213.579 325.4C214.839 323.735 216.189 322.925 217.584 322.925C219.339 322.925 220.689 324.455 220.689 327.74C220.689 329.495 220.374 331.43 219.699 333.545C219.024 335.66 218.079 337.505 216.819 339.08C215.604 340.655 214.254 341.465 212.859 341.465ZM253.482 335.39C251.727 339.17 250.332 341.06 249.207 341.06C248.577 341.06 248.262 340.7 248.262 339.935C248.262 339.17 248.532 337.91 249.027 336.2L253.032 321.89H248.712L246.282 330.845H237.957L238.407 329.315C238.992 327.2 239.307 325.445 239.307 324.14C239.307 322.385 238.227 321.26 236.112 321.26C233.637 321.26 231.252 323.645 229.047 328.415L229.992 329C231.747 325.22 233.187 323.33 234.312 323.33C234.942 323.33 235.257 323.69 235.257 324.41C235.347 325.175 234.672 327.38 234.537 328.055L230.532 342.5H234.852L237.552 332.42H245.832L245.247 334.625C244.527 337.28 244.167 339.125 244.167 340.16C244.167 342.14 245.247 343.13 247.407 343.13C249.792 343.13 252.132 340.745 254.427 335.975L253.482 335.39ZM273.005 325.715C273.005 322.835 270.53 321.26 267.245 321.26C263.96 321.26 261.215 322.61 258.965 325.355C256.715 328.1 255.59 331.25 255.59 334.85C255.59 337.325 256.31 339.305 257.75 340.835C259.235 342.365 261.125 343.13 263.42 343.13C266.795 343.13 269.765 340.7 271.79 336.38L270.845 335.93C269.09 339.575 266.93 341.375 264.365 341.375C261.71 341.375 259.91 338.81 259.91 334.895C259.91 331.16 260.675 328.19 262.205 325.895C263.735 323.6 265.49 322.43 267.515 322.43C269.99 322.43 271.655 323.78 271.655 325.535C271.25 325.13 270.71 324.905 270.08 324.905C268.955 324.905 268.01 326.21 268.01 327.47C268.01 328.55 268.595 329.63 270.08 329.63C271.88 329.63 273.005 327.515 273.005 325.715ZM295.77 335.39C295.095 336.965 294.33 338.315 293.52 339.44C292.755 340.52 292.125 341.06 291.63 341.06C290.955 341.06 290.64 340.7 290.64 339.935C290.64 338.99 291 337.325 291.675 334.85L295.23 321.89H291L289.74 326.66C289.425 323.24 287.58 321.26 284.835 321.26C279.075 321.08 273.585 329.18 273.765 336.2C273.765 340.475 275.79 343.13 279.39 343.13C282.585 343.13 285.69 340.745 287.445 336.65C287.13 337.955 286.95 338.9 286.95 339.53C286.95 341.915 287.85 343.13 289.605 343.13C292.08 343.13 294.465 340.745 296.76 335.975L295.77 335.39ZM280.965 341.465C279.03 341.465 277.86 339.935 277.86 336.875C277.86 335.12 278.175 333.14 278.85 331.025C279.525 328.91 280.47 327.02 281.685 325.4C282.945 323.735 284.295 322.925 285.69 322.925C287.445 322.925 288.795 324.455 288.795 327.74C288.795 329.495 288.48 331.43 287.805 333.545C287.13 335.66 286.185 337.505 284.925 339.08C283.71 340.655 282.36 341.465 280.965 341.465Z" fill="black"/>
<path fill-rule="evenodd" clip-rule="evenodd" d="M54.1291 528.303C52.2946 526.959 50.0797 526.235 47.8059 526.235H34.9726L25.9043 569.765H36.4406L37.542 564.474L38.0298 565.081C39.6568 567.105 41.8716 568.573 44.3688 569.285C46.8659 569.996 49.5223 569.915 51.9714 569.052C54.4205 568.19 56.5415 566.589 58.0419 564.47C59.5423 562.351 60.3481 559.818 60.3482 557.222C60.3488 555.002 59.7605 552.823 58.6433 550.905C57.5261 548.988 55.92 547.402 53.9891 546.308L53.4833 546.021L53.9589 545.687C55.8193 544.38 57.2148 542.514 57.9429 540.359C58.671 538.205 58.6938 535.875 58.008 533.707C57.3223 531.539 55.9636 529.646 54.1291 528.303ZM61.0835 557.222C61.0834 559.97 60.2304 562.651 58.642 564.895C57.0537 567.138 54.8083 568.833 52.2156 569.746C49.623 570.659 46.8109 570.745 44.1674 569.992C41.7683 569.309 39.6153 567.965 37.9503 566.121L37.0386 570.5H25L34.3747 525.5L47.8057 525.5C47.8058 525.5 47.8057 525.5 47.8057 525.5C50.2359 525.5 52.603 526.273 54.5635 527.709C56.5241 529.145 57.9762 531.168 58.7091 533.485C59.442 535.802 59.4176 538.293 58.6395 540.595C57.9215 542.719 56.596 544.582 54.8333 545.955C56.6632 547.096 58.1901 548.667 59.2786 550.535C60.4613 552.565 61.0841 554.872 61.0835 557.222Z" fill="black"/>
<path fill-rule="evenodd" clip-rule="evenodd" d="M37.1073 536.934C37.1056 538.651 37.5178 540.343 38.309 541.867C39.1003 543.39 40.2472 544.701 41.6525 545.687L42.1288 546.021L41.6225 546.308C39.6914 547.402 38.0851 548.988 36.9678 550.905C35.8504 552.823 35.262 555.002 35.2626 557.222L34.5273 557.222C34.5267 554.872 35.1496 552.565 36.3325 550.535C37.4211 548.667 38.948 547.096 40.778 545.955C39.4812 544.946 38.4157 543.668 37.6565 542.206C36.8108 540.577 36.3702 538.769 36.372 536.934L37.1073 536.934Z" fill="black"/>
<rect x="433" y="0.5" width="409" height="595" fill="#FC4A27" fill-opacity="0.5"/>
</g>
<defs>
<clipPath id="clip0_1654_2710">
<rect width="842" height="595" fill="white" transform="translate(0 0.5)"/>
</clipPath>
</defs>
</svg>
