<svg width="842" height="596" viewBox="0 0 842 596" fill="none" xmlns="http://www.w3.org/2000/svg">
<rect width="842" height="595" transform="translate(0 0.5)" fill="white"/>
<rect x="25" y="25.5" width="77" height="544.875" fill="#8EA5EB" fill-opacity="0.2"/>
<rect x="127" y="25.5" width="77" height="544.875" fill="#8EA5EB" fill-opacity="0.2"/>
<rect x="229" y="25.5" width="77" height="544.875" fill="#8EA5EB" fill-opacity="0.2"/>
<rect x="331" y="25.5" width="78" height="544.875" fill="#8EA5EB" fill-opacity="0.2"/>
<rect x="536" y="25.5" width="77" height="544.875" fill="#8EA5EB" fill-opacity="0.2"/>
<rect x="638" y="25.5" width="77" height="544.875" fill="#8EA5EB" fill-opacity="0.2"/>
<rect x="434" y="25.5" width="77" height="544.875" fill="#8EA5EB" fill-opacity="0.2"/>
<rect x="740" y="25.5" width="77" height="544.875" fill="#8EA5EB" fill-opacity="0.2"/>
<path d="M25 48.5H817" stroke="#8EA5EB"/>
<path d="M25 70.5H817" stroke="#8EA5EB"/>
<path d="M25 93.5H817" stroke="#8EA5EB"/>
<path d="M25 116.5H817" stroke="#8EA5EB"/>
<path d="M25 139.5H817" stroke="#8EA5EB"/>
<path d="M25 161.5H817" stroke="#8EA5EB"/>
<path d="M25 184.5H817" stroke="#8EA5EB"/>
<path d="M25 207.5H817" stroke="#8EA5EB"/>
<path d="M25 229.5H817" stroke="#8EA5EB"/>
<path d="M25 252.5H817" stroke="#8EA5EB"/>
<path d="M25 275.5H817" stroke="#8EA5EB"/>
<path d="M25 298.438H817" stroke="#8EA5EB"/>
<path d="M25 320.5H817" stroke="#8EA5EB"/>
<path d="M25 343.5H817" stroke="#8EA5EB"/>
<path d="M25 366.5H817" stroke="#8EA5EB"/>
<path d="M25 388.5H817" stroke="#8EA5EB"/>
<path d="M25 411.5H817" stroke="#8EA5EB"/>
<path d="M25 434.5H817" stroke="#8EA5EB"/>
<path d="M25 456.5H817" stroke="#8EA5EB"/>
<path d="M25 479.5H817" stroke="#8EA5EB"/>
<path d="M25 502.5H817" stroke="#8EA5EB"/>
<path d="M25 525.5H817" stroke="#8EA5EB"/>
<path d="M25 547.5H817" stroke="#8EA5EB"/>
<path d="M59.2704 220.37H63.3204V252.5H59.2704V237.83H41.3154V252.5H37.2654V220.37H41.3154V234.05H59.2704V220.37ZM89.9938 239.81V241.115H72.7138C72.7738 243.845 73.4188 245.975 74.6488 247.505C75.8788 249.005 77.6488 249.755 79.9588 249.755C83.0788 249.755 84.9988 248.585 85.7188 246.245H89.5888C89.1988 248.285 88.1638 249.935 86.4838 251.195C84.8338 252.455 82.6588 253.085 79.9588 253.085C76.5088 253.085 73.8088 251.96 71.8588 249.71C69.9088 247.46 68.9338 244.535 68.9338 240.935C68.9338 237.395 69.9088 234.56 71.8588 232.43C73.8088 230.3 76.4788 229.235 79.8688 229.235C83.0788 229.235 85.5538 230.255 87.2938 232.295C89.0338 234.305 89.9338 236.81 89.9938 239.81ZM79.7788 232.565C77.8288 232.565 76.2688 233.075 75.0988 234.095C73.9288 235.085 73.2088 236.36 72.9388 237.92H86.0338C85.9138 236.39 85.2988 235.115 84.1888 234.095C83.0788 233.075 81.6088 232.565 79.7788 232.565ZM113.063 261.5H109.193L113.873 250.385L104.198 229.82H108.293L115.223 244.76H116.348L122.648 229.82H126.653L113.063 261.5ZM150.417 252.5H146.592V233.15H134.217V252.5H130.392V229.82H150.417V252.5ZM158.624 232.61C160.634 230.36 163.364 229.235 166.814 229.235C170.264 229.235 172.979 230.36 174.959 232.61C176.969 234.86 177.974 237.71 177.974 241.16C177.974 244.61 176.969 247.46 174.959 249.71C172.979 251.96 170.264 253.085 166.814 253.085C163.364 253.085 160.634 251.96 158.624 249.71C156.644 247.46 155.654 244.61 155.654 241.16C155.654 237.71 156.644 234.86 158.624 232.61ZM161.369 247.28C162.629 248.93 164.444 249.755 166.814 249.755C169.184 249.755 170.999 248.93 172.259 247.28C173.519 245.6 174.149 243.56 174.149 241.16C174.149 238.76 173.519 236.735 172.259 235.085C170.999 233.405 169.184 232.565 166.814 232.565C164.444 232.565 162.629 233.405 161.369 235.085C160.109 236.735 159.479 238.76 159.479 241.16C159.479 243.56 160.109 245.6 161.369 247.28ZM180.399 233.15V229.82H199.929V233.15H192.099V252.5H188.274V233.15H180.399ZM215.101 232.565C212.731 232.565 210.946 233.39 209.746 235.04C208.576 236.69 207.991 238.73 207.991 241.16C207.991 243.59 208.576 245.63 209.746 247.28C210.946 248.93 212.731 249.755 215.101 249.755C217.321 249.755 219.031 248.975 220.231 247.415C221.461 245.825 222.076 243.74 222.076 241.16C222.076 238.58 221.461 236.51 220.231 234.95C219.031 233.36 217.321 232.565 215.101 232.565ZM204.211 229.82H207.901V232.25H208.891C210.511 230.24 212.866 229.235 215.956 229.235C219.016 229.235 221.431 230.36 223.201 232.61C225.001 234.86 225.901 237.71 225.901 241.16C225.901 244.67 225.001 247.535 223.201 249.755C221.431 251.975 219.016 253.085 215.956 253.085C212.836 253.085 210.526 252.08 209.026 250.07H208.036V261.5H204.211V229.82ZM250.796 239.81V241.115H233.516C233.576 243.845 234.221 245.975 235.451 247.505C236.681 249.005 238.451 249.755 240.761 249.755C243.881 249.755 245.801 248.585 246.521 246.245H250.391C250.001 248.285 248.966 249.935 247.286 251.195C245.636 252.455 243.461 253.085 240.761 253.085C237.311 253.085 234.611 251.96 232.661 249.71C230.711 247.46 229.736 244.535 229.736 240.935C229.736 237.395 230.711 234.56 232.661 232.43C234.611 230.3 237.281 229.235 240.671 229.235C243.881 229.235 246.356 230.255 248.096 232.295C249.836 234.305 250.736 236.81 250.796 239.81ZM240.581 232.565C238.631 232.565 237.071 233.075 235.901 234.095C234.731 235.085 234.011 236.36 233.741 237.92H246.836C246.716 236.39 246.101 235.115 244.991 234.095C243.881 233.075 242.411 232.565 240.581 232.565ZM266.336 230.045C269.666 230.045 272.291 231.14 274.211 233.33C276.131 235.49 277.091 238.235 277.091 241.565C277.091 244.865 276.071 247.61 274.031 249.8C272.021 251.99 269.306 253.085 265.886 253.085C262.286 253.085 259.496 251.9 257.516 249.53C255.566 247.16 254.591 243.77 254.591 239.36C254.591 237.65 254.636 236.12 254.726 234.77C254.846 233.42 255.086 232.01 255.446 230.54C255.836 229.07 256.346 227.825 256.976 226.805C257.606 225.755 258.476 224.84 259.586 224.06C260.696 223.28 262.016 222.77 263.546 222.53L269.576 221.54C270.416 221.42 270.971 221.255 271.241 221.045C271.541 220.835 271.721 220.415 271.781 219.785H275.336C275.276 221.195 274.931 222.32 274.301 223.16C273.671 223.97 272.531 224.525 270.881 224.825L263.906 225.995C262.016 226.325 260.621 227.12 259.721 228.38C258.851 229.61 258.281 231.26 258.011 233.33H259.001C259.931 232.1 260.966 231.245 262.106 230.765C263.276 230.285 264.686 230.045 266.336 230.045ZM260.306 247.37C261.596 248.96 263.426 249.755 265.796 249.755C268.166 249.755 269.981 248.96 271.241 247.37C272.531 245.75 273.176 243.8 273.176 241.52C273.176 239.24 272.531 237.305 271.241 235.715C269.981 234.125 268.166 233.33 265.796 233.33C263.426 233.33 261.596 234.125 260.306 235.715C259.046 237.305 258.416 239.24 258.416 241.52C258.416 243.8 259.046 245.75 260.306 247.37ZM279.287 252.5V248.9H280.052C281.642 248.9 282.782 248.165 283.472 246.695C284.162 245.195 284.507 242.495 284.507 238.595V229.82H301.877V252.5H298.007V233.15H288.062V238.685C288.062 243.815 287.432 247.4 286.172 249.44C284.942 251.48 282.902 252.5 280.052 252.5H279.287ZM315.8 229.82H327.095V252.5H323.225V243.545H316.34C315.74 243.545 315.275 243.53 314.945 243.5L311.525 252.5H307.52L311.345 242.645C309.005 241.535 307.835 239.555 307.835 236.705C307.835 234.515 308.51 232.82 309.86 231.62C311.24 230.42 313.22 229.82 315.8 229.82ZM323.225 233.06H316.205C314.555 233.06 313.385 233.375 312.695 234.005C312.005 234.635 311.66 235.55 311.66 236.75C311.66 237.92 312.005 238.805 312.695 239.405C313.385 240.005 314.555 240.305 316.205 240.305H323.225V233.06ZM353.337 239.81V241.115H336.057C336.117 243.845 336.762 245.975 337.992 247.505C339.222 249.005 340.992 249.755 343.302 249.755C346.422 249.755 348.342 248.585 349.062 246.245H352.932C352.542 248.285 351.507 249.935 349.827 251.195C348.177 252.455 346.002 253.085 343.302 253.085C339.852 253.085 337.152 251.96 335.202 249.71C333.252 247.46 332.277 244.535 332.277 240.935C332.277 237.395 333.252 234.56 335.202 232.43C337.152 230.3 339.822 229.235 343.212 229.235C346.422 229.235 348.897 230.255 350.637 232.295C352.377 234.305 353.277 236.81 353.337 239.81ZM343.122 232.565C341.172 232.565 339.612 233.075 338.442 234.095C337.272 235.085 336.552 236.36 336.282 237.92H349.377C349.257 236.39 348.642 235.115 347.532 234.095C346.422 233.075 344.952 232.565 343.122 232.565ZM355.44 233.15V229.82H374.97V233.15H367.14V252.5H363.315V233.15H355.44ZM398.564 239.81V241.115H381.284C381.344 243.845 381.989 245.975 383.219 247.505C384.449 249.005 386.219 249.755 388.529 249.755C391.649 249.755 393.569 248.585 394.289 246.245H398.159C397.769 248.285 396.734 249.935 395.054 251.195C393.404 252.455 391.229 253.085 388.529 253.085C385.079 253.085 382.379 251.96 380.429 249.71C378.479 247.46 377.504 244.535 377.504 240.935C377.504 237.395 378.479 234.56 380.429 232.43C382.379 230.3 385.049 229.235 388.439 229.235C391.649 229.235 394.124 230.255 395.864 232.295C397.604 234.305 398.504 236.81 398.564 239.81ZM388.349 232.565C386.399 232.565 384.839 233.075 383.669 234.095C382.499 235.085 381.779 236.36 381.509 237.92H394.604C394.484 236.39 393.869 235.115 392.759 234.095C391.649 233.075 390.179 232.565 388.349 232.565ZM113.129 297.5L108.089 287.51H101.294V297.5H97.4691V274.82H101.294V284.18H108.179L112.904 274.82H116.909L111.374 285.755L117.224 297.5H113.129ZM136.33 297.5V295.115H135.34C133.78 297.095 131.425 298.085 128.275 298.085C125.785 298.085 123.805 297.365 122.335 295.925C120.865 294.485 120.13 292.745 120.13 290.705C120.13 288.635 120.85 286.865 122.29 285.395C123.73 283.925 125.905 283.19 128.815 283.19H136.195V282.29C136.195 280.85 135.745 279.71 134.845 278.87C133.945 278 132.55 277.565 130.66 277.565C127.36 277.565 125.605 278.66 125.395 280.85H121.57C121.72 278.78 122.605 277.16 124.225 275.99C125.875 274.82 127.99 274.235 130.57 274.235C133.48 274.235 135.76 274.91 137.41 276.26C139.09 277.61 139.93 279.545 139.93 282.065V297.5H136.33ZM129.22 294.755C131.11 294.755 132.745 294.14 134.125 292.91C135.505 291.65 136.195 290.12 136.195 288.32V286.25H129.4C125.77 286.25 123.955 287.69 123.955 290.57C123.955 291.86 124.405 292.88 125.305 293.63C126.235 294.38 127.54 294.755 129.22 294.755ZM161.829 297.5L156.789 287.51H149.994V297.5H146.169V274.82H149.994V284.18H156.879L161.604 274.82H165.609L160.074 285.755L165.924 297.5H161.829ZM171.5 277.61C173.51 275.36 176.24 274.235 179.69 274.235C183.14 274.235 185.855 275.36 187.835 277.61C189.845 279.86 190.85 282.71 190.85 286.16C190.85 289.61 189.845 292.46 187.835 294.71C185.855 296.96 183.14 298.085 179.69 298.085C176.24 298.085 173.51 296.96 171.5 294.71C169.52 292.46 168.53 289.61 168.53 286.16C168.53 282.71 169.52 279.86 171.5 277.61ZM174.245 292.28C175.505 293.93 177.32 294.755 179.69 294.755C182.06 294.755 183.875 293.93 185.135 292.28C186.395 290.6 187.025 288.56 187.025 286.16C187.025 283.76 186.395 281.735 185.135 280.085C183.875 278.405 182.06 277.565 179.69 277.565C177.32 277.565 175.505 278.405 174.245 280.085C172.985 281.735 172.355 283.76 172.355 286.16C172.355 288.56 172.985 290.6 174.245 292.28ZM201.455 297.5H196.055V274.82H199.79V292.37H200.78L210.725 274.82H216.305V297.5H212.57V279.95H211.58L201.455 297.5ZM210.005 264.92H213.11C213.05 267.02 212.405 268.64 211.175 269.78C209.945 270.92 208.25 271.49 206.09 271.49C203.96 271.49 202.28 270.92 201.05 269.78C199.82 268.64 199.175 267.02 199.115 264.92H202.22C202.28 267.47 203.57 268.745 206.09 268.745C208.55 268.745 209.855 267.47 210.005 264.92ZM233.731 286.7H221.446V283.325H233.731V286.7ZM235.422 297.5V293.9H236.187C237.777 293.9 238.917 293.165 239.607 291.695C240.297 290.195 240.642 287.495 240.642 283.595V274.82H258.012V297.5H254.142V278.15H244.197V283.685C244.197 288.815 243.567 292.4 242.307 294.44C241.077 296.48 239.037 297.5 236.187 297.5H235.422ZM269.999 297.5H264.599V274.82H268.334V292.37H269.324L279.269 274.82H284.849V297.5H281.114V279.95H280.124L269.999 297.5ZM301.826 275.045C305.156 275.045 307.781 276.14 309.701 278.33C311.621 280.49 312.581 283.235 312.581 286.565C312.581 289.865 311.561 292.61 309.521 294.8C307.511 296.99 304.796 298.085 301.376 298.085C297.776 298.085 294.986 296.9 293.006 294.53C291.056 292.16 290.081 288.77 290.081 284.36C290.081 282.65 290.126 281.12 290.216 279.77C290.336 278.42 290.576 277.01 290.936 275.54C291.326 274.07 291.836 272.825 292.466 271.805C293.096 270.755 293.966 269.84 295.076 269.06C296.186 268.28 297.506 267.77 299.036 267.53L305.066 266.54C305.906 266.42 306.461 266.255 306.731 266.045C307.031 265.835 307.211 265.415 307.271 264.785H310.826C310.766 266.195 310.421 267.32 309.791 268.16C309.161 268.97 308.021 269.525 306.371 269.825L299.396 270.995C297.506 271.325 296.111 272.12 295.211 273.38C294.341 274.61 293.771 276.26 293.501 278.33H294.491C295.421 277.1 296.456 276.245 297.596 275.765C298.766 275.285 300.176 275.045 301.826 275.045ZM295.796 292.37C297.086 293.96 298.916 294.755 301.286 294.755C303.656 294.755 305.471 293.96 306.731 292.37C308.021 290.75 308.666 288.8 308.666 286.52C308.666 284.24 308.021 282.305 306.731 280.715C305.471 279.125 303.656 278.33 301.286 278.33C298.916 278.33 297.086 279.125 295.796 280.715C294.536 282.305 293.906 284.24 293.906 286.52C293.906 288.8 294.536 290.75 295.796 292.37ZM319.356 277.61C321.366 275.36 324.096 274.235 327.546 274.235C330.996 274.235 333.711 275.36 335.691 277.61C337.701 279.86 338.706 282.71 338.706 286.16C338.706 289.61 337.701 292.46 335.691 294.71C333.711 296.96 330.996 298.085 327.546 298.085C324.096 298.085 321.366 296.96 319.356 294.71C317.376 292.46 316.386 289.61 316.386 286.16C316.386 282.71 317.376 279.86 319.356 277.61ZM322.101 292.28C323.361 293.93 325.176 294.755 327.546 294.755C329.916 294.755 331.731 293.93 332.991 292.28C334.251 290.6 334.881 288.56 334.881 286.16C334.881 283.76 334.251 281.735 332.991 280.085C331.731 278.405 329.916 277.565 327.546 277.565C325.176 277.565 323.361 278.405 322.101 280.085C320.841 281.735 320.211 283.76 320.211 286.16C320.211 288.56 320.841 290.6 322.101 292.28ZM139.976 342.5H136.151V323.15H123.776V342.5H119.951V319.82H139.976V342.5ZM157.498 322.565C155.128 322.565 153.343 323.39 152.143 325.04C150.973 326.69 150.388 328.73 150.388 331.16C150.388 333.59 150.973 335.63 152.143 337.28C153.343 338.93 155.128 339.755 157.498 339.755C159.718 339.755 161.428 338.975 162.628 337.415C163.858 335.825 164.473 333.74 164.473 331.16C164.473 328.58 163.858 326.51 162.628 324.95C161.428 323.36 159.718 322.565 157.498 322.565ZM146.608 319.82H150.298V322.25H151.288C152.908 320.24 155.263 319.235 158.353 319.235C161.413 319.235 163.828 320.36 165.598 322.61C167.398 324.86 168.298 327.71 168.298 331.16C168.298 334.67 167.398 337.535 165.598 339.755C163.828 341.975 161.413 343.085 158.353 343.085C155.233 343.085 152.923 342.08 151.423 340.07H150.433V351.5H146.608V319.82ZM175.104 322.61C177.114 320.36 179.844 319.235 183.294 319.235C186.744 319.235 189.459 320.36 191.439 322.61C193.449 324.86 194.454 327.71 194.454 331.16C194.454 334.61 193.449 337.46 191.439 339.71C189.459 341.96 186.744 343.085 183.294 343.085C179.844 343.085 177.114 341.96 175.104 339.71C173.124 337.46 172.134 334.61 172.134 331.16C172.134 327.71 173.124 324.86 175.104 322.61ZM177.849 337.28C179.109 338.93 180.924 339.755 183.294 339.755C185.664 339.755 187.479 338.93 188.739 337.28C189.999 335.6 190.629 333.56 190.629 331.16C190.629 328.76 189.999 326.735 188.739 325.085C187.479 323.405 185.664 322.565 183.294 322.565C180.924 322.565 179.109 323.405 177.849 325.085C176.589 326.735 175.959 328.76 175.959 331.16C175.959 333.56 176.589 335.6 177.849 337.28ZM219.863 339.17H224.048V348.935H220.313V342.5H200.693V348.935H196.958V339.17H199.973C201.833 335.21 202.763 330.83 202.763 326.03V319.82H219.863V339.17ZM216.038 339.17V323.15H206.318V326.03C206.318 331.16 205.493 335.54 203.843 339.17H216.038ZM234.369 351.5H230.499L235.179 340.385L225.504 319.82H229.599L236.529 334.76H237.654L243.954 319.82H247.959L234.369 351.5ZM267.357 342.5L262.317 332.51H255.522V342.5H251.697V319.82H255.522V329.18H262.407L267.132 319.82H271.137L265.602 330.755L271.452 342.5H267.357ZM273.773 323.15V319.82H293.303V323.15H285.473V342.5H281.648V323.15H273.773ZM305.909 309.785C308.849 309.785 311.189 310.58 312.929 312.17C314.699 313.73 315.584 315.83 315.584 318.47C315.584 319.61 315.464 320.6 315.224 321.44C315.014 322.28 314.579 323.09 313.919 323.87C313.289 324.65 312.764 325.235 312.344 325.625C311.924 326.015 311.174 326.645 310.094 327.515C308.894 328.445 308.099 329.21 307.709 329.81C307.349 330.38 307.169 331.355 307.169 332.735V333.995H303.299V332.735C303.299 331.445 303.464 330.365 303.794 329.495C304.154 328.595 304.589 327.875 305.099 327.335C305.639 326.765 306.479 326.015 307.619 325.085C308.609 324.275 309.344 323.645 309.824 323.195C310.304 322.715 310.739 322.07 311.129 321.26C311.519 320.45 311.714 319.52 311.714 318.47C311.714 317 311.189 315.74 310.139 314.69C309.119 313.64 307.724 313.115 305.954 313.115C302.084 313.115 300.044 315.11 299.834 319.1H295.964C296.084 316.19 297.014 313.91 298.754 312.26C300.524 310.61 302.909 309.785 305.909 309.785ZM307.574 342.5H302.894V337.28H307.574V342.5Z" fill="black"/>
<path fill-rule="evenodd" clip-rule="evenodd" d="M54.1291 528.303C52.2946 526.959 50.0797 526.235 47.8059 526.235H34.9726L25.9043 569.765H36.4406L37.542 564.474L38.0298 565.081C39.6568 567.105 41.8716 568.573 44.3688 569.285C46.8659 569.996 49.5223 569.915 51.9714 569.052C54.4205 568.19 56.5415 566.589 58.0419 564.47C59.5423 562.351 60.3481 559.818 60.3482 557.222C60.3488 555.002 59.7605 552.823 58.6433 550.905C57.5261 548.988 55.92 547.402 53.9891 546.308L53.4833 546.021L53.9589 545.687C55.8193 544.38 57.2148 542.514 57.9429 540.359C58.671 538.205 58.6938 535.875 58.008 533.707C57.3223 531.539 55.9636 529.646 54.1291 528.303ZM61.0835 557.222C61.0834 559.97 60.2304 562.651 58.642 564.895C57.0537 567.138 54.8083 568.833 52.2156 569.746C49.623 570.659 46.8109 570.745 44.1674 569.992C41.7683 569.309 39.6153 567.965 37.9503 566.121L37.0386 570.5H25L34.3747 525.5L47.8057 525.5C47.8058 525.5 47.8057 525.5 47.8057 525.5C50.2359 525.5 52.603 526.273 54.5635 527.709C56.5241 529.145 57.9762 531.168 58.7091 533.485C59.442 535.802 59.4176 538.293 58.6395 540.595C57.9215 542.719 56.596 544.582 54.8333 545.955C56.6632 547.096 58.1901 548.667 59.2786 550.535C60.4613 552.565 61.0841 554.872 61.0835 557.222Z" fill="black"/>
<path fill-rule="evenodd" clip-rule="evenodd" d="M37.1073 536.934C37.1056 538.651 37.5178 540.343 38.309 541.867C39.1003 543.39 40.2472 544.701 41.6525 545.687L42.1288 546.021L41.6225 546.308C39.6914 547.402 38.0851 548.988 36.9678 550.905C35.8504 552.823 35.262 555.002 35.2626 557.222L34.5273 557.222C34.5267 554.872 35.1496 552.565 36.3325 550.535C37.4211 548.667 38.948 547.096 40.778 545.955C39.4812 544.946 38.4157 543.668 37.6565 542.206C36.8108 540.577 36.3702 538.769 36.372 536.934L37.1073 536.934Z" fill="black"/>
<path d="M501.864 233.42H511.539C514.959 233.42 517.599 234.26 519.459 235.94C521.349 237.62 522.294 239.96 522.294 242.96C522.294 245.96 521.349 248.3 519.459 249.98C517.599 251.66 514.959 252.5 511.539 252.5H497.814V220.37H519.819V224.06H501.864V233.42ZM501.864 248.9H510.864C513.474 248.9 515.349 248.39 516.489 247.37C517.659 246.35 518.244 244.865 518.244 242.915C518.244 238.955 515.784 236.975 510.864 236.975H501.864V248.9ZM526.449 245.93H530.184C530.814 248.48 532.839 249.755 536.259 249.755C538.329 249.755 539.964 249.095 541.164 247.775C542.394 246.455 543.069 244.73 543.189 242.6H532.974V239.36H543.144C542.964 237.29 542.289 235.64 541.119 234.41C539.979 233.18 538.359 232.565 536.259 232.565C533.019 232.565 531.054 233.75 530.364 236.12H526.629C527.079 234.02 528.144 232.355 529.824 231.125C531.504 229.865 533.634 229.235 536.214 229.235C539.574 229.235 542.229 230.345 544.179 232.565C546.129 234.755 547.104 237.62 547.104 241.16C547.104 244.73 546.129 247.61 544.179 249.8C542.229 251.99 539.559 253.085 536.169 253.085C533.619 253.085 531.459 252.425 529.689 251.105C527.949 249.785 526.869 248.06 526.449 245.93ZM557.705 252.5H552.305V229.82H556.04V247.37H557.03L566.975 229.82H572.555V252.5H568.82V234.95H567.83L557.705 252.5ZM566.255 219.92H569.36C569.3 222.02 568.655 223.64 567.425 224.78C566.195 225.92 564.5 226.49 562.34 226.49C560.21 226.49 558.53 225.92 557.3 224.78C556.07 223.64 555.425 222.02 555.365 219.92H558.47C558.53 222.47 559.82 223.745 562.34 223.745C564.8 223.745 566.105 222.47 566.255 219.92ZM576.841 233.15V229.82H596.371V233.15H588.541V252.5H584.716V233.15H576.841ZM630.815 252.5H626.99V242.51H614.435V252.5H610.61V229.82H614.435V239.18H626.99V229.82H630.815V252.5ZM651.888 252.5V250.115H650.898C649.338 252.095 646.983 253.085 643.833 253.085C641.343 253.085 639.363 252.365 637.893 250.925C636.423 249.485 635.688 247.745 635.688 245.705C635.688 243.635 636.408 241.865 637.848 240.395C639.288 238.925 641.463 238.19 644.373 238.19H651.753V237.29C651.753 235.85 651.303 234.71 650.403 233.87C649.503 233 648.108 232.565 646.218 232.565C642.918 232.565 641.163 233.66 640.953 235.85H637.128C637.278 233.78 638.163 232.16 639.783 230.99C641.433 229.82 643.548 229.235 646.128 229.235C649.038 229.235 651.318 229.91 652.968 231.26C654.648 232.61 655.488 234.545 655.488 237.065V252.5H651.888ZM644.778 249.755C646.668 249.755 648.303 249.14 649.683 247.91C651.063 246.65 651.753 245.12 651.753 243.32V241.25H644.958C641.328 241.25 639.513 242.69 639.513 245.57C639.513 246.86 639.963 247.88 640.863 248.63C641.793 249.38 643.098 249.755 644.778 249.755ZM667.127 252.5H661.727V229.82H665.462V247.37H666.452L676.397 229.82H681.977V252.5H678.242V234.95H677.252L667.127 252.5ZM675.677 219.92H678.782C678.722 222.02 678.077 223.64 676.847 224.78C675.617 225.92 673.922 226.49 671.762 226.49C669.632 226.49 667.952 225.92 666.722 224.78C665.492 223.64 664.847 222.02 664.787 219.92H667.892C667.952 222.47 669.242 223.745 671.762 223.745C674.222 223.745 675.527 222.47 675.677 219.92ZM708.808 249.17H712.993V258.935H709.258V252.5H689.638V258.935H685.903V249.17H688.918C690.778 245.21 691.708 240.83 691.708 236.03V229.82H708.808V249.17ZM704.983 249.17V233.15H695.263V236.03C695.263 241.16 694.438 245.54 692.788 249.17H704.983ZM736.859 239.81V241.115H719.579C719.639 243.845 720.284 245.975 721.514 247.505C722.744 249.005 724.514 249.755 726.824 249.755C729.944 249.755 731.864 248.585 732.584 246.245H736.454C736.064 248.285 735.029 249.935 733.349 251.195C731.699 252.455 729.524 253.085 726.824 253.085C723.374 253.085 720.674 251.96 718.724 249.71C716.774 247.46 715.799 244.535 715.799 240.935C715.799 237.395 716.774 234.56 718.724 232.43C720.674 230.3 723.344 229.235 726.734 229.235C729.944 229.235 732.419 230.255 734.159 232.295C735.899 234.305 736.799 236.81 736.859 239.81ZM726.644 232.565C724.694 232.565 723.134 233.075 721.964 234.095C720.794 235.085 720.074 236.36 719.804 237.92H732.899C732.779 236.39 732.164 235.115 731.054 234.095C729.944 233.075 728.474 232.565 726.644 232.565ZM738.962 233.15V229.82H758.492V233.15H750.662V252.5H746.837V233.15H738.962ZM511.416 280.355C511.416 277.61 508.941 276.26 505.386 276.26C503.091 276.26 500.976 276.98 499.086 278.465C497.241 279.905 495.801 281.66 494.856 283.775C493.911 285.845 493.461 287.96 493.461 290.075C493.461 294.8 495.756 298.13 500.616 298.13C503.451 298.13 505.746 297.455 507.411 296.105C509.076 294.755 509.931 293.09 509.931 291.065C509.931 288.725 508.581 286.565 505.206 286.34C507.276 285.8 508.806 284.945 509.841 283.73C510.876 282.515 511.416 281.39 511.416 280.355ZM506.016 290.84C506.016 292.595 505.521 294.035 504.486 295.16C503.496 296.285 502.416 296.825 501.201 296.825C498.816 296.825 497.601 294.98 497.601 291.245C497.601 290.12 497.691 289.04 497.826 288.005C499.536 287.33 501.201 287.015 502.866 287.015C504.801 287.015 506.016 288.68 506.016 290.84ZM504.936 277.52C506.556 277.52 507.771 278.555 507.771 280.355C507.771 282.29 506.196 284.63 503.271 285.755C501.291 285.935 499.536 286.295 498.006 286.79C498.411 284.225 499.266 282.065 500.571 280.265C501.876 278.42 503.316 277.52 504.936 277.52ZM527.932 295.34C527.932 297.14 528.652 298.13 530.677 298.13C533.107 298.13 535.447 295.745 537.742 291.02L536.752 290.435C535.042 294.215 533.602 296.105 532.432 296.105C531.847 296.105 531.532 295.745 531.532 295.025C531.532 294.26 531.757 293.045 532.252 291.38L536.257 276.89H531.892L529.912 284.45C529.237 287.015 528.022 289.535 526.222 292.1C524.467 294.665 522.847 295.925 521.452 295.925C520.237 295.925 519.652 295.16 519.652 293.585C519.652 292.685 519.877 291.38 520.327 289.715L521.632 284.81C522.397 281.975 522.757 280.13 522.757 279.275C522.757 277.25 521.677 276.26 519.562 276.26C517.087 276.26 514.747 278.645 512.497 283.415L513.487 284C515.197 280.22 516.592 278.33 517.717 278.33C518.302 278.33 518.617 278.69 518.617 279.41C518.572 280.535 518.302 281.84 517.897 283.325L515.917 290.21C515.512 291.605 515.287 292.955 515.287 294.17C515.287 296.825 516.682 298.13 519.427 298.13C521.227 298.13 522.982 297.275 524.692 295.565C526.447 293.81 527.932 291.605 529.147 288.905C528.337 291.695 527.932 293.855 527.932 295.34ZM574.284 290.39C572.799 293.63 571.044 296.06 570.009 296.06C569.424 296.06 569.109 295.7 569.109 294.98C569.109 294.035 569.334 292.775 569.829 291.11L571.809 284.18C572.259 282.65 572.484 281.3 572.484 280.13C572.484 277.565 571.179 276.26 568.524 276.26C566.859 276.26 565.059 277.16 563.214 278.915C561.369 280.67 559.839 282.875 558.624 285.53C559.299 283.055 559.614 281.21 559.614 279.995C559.614 277.52 558.489 276.26 556.194 276.26C554.484 276.26 552.684 277.115 550.839 278.825C548.994 280.535 547.464 282.785 546.249 285.53C547.059 282.425 547.464 280.265 547.464 279.095C547.464 277.25 546.789 276.26 544.764 276.26C542.064 276.26 539.859 278.915 537.699 283.415L538.689 284C540.084 280.76 541.839 278.33 542.964 278.33C543.549 278.33 543.864 278.69 543.864 279.41C543.864 279.995 543.639 281.21 543.144 283.055L539.274 297.5H543.504L545.664 289.49C546.339 287.105 547.554 284.675 549.309 282.2C551.064 279.725 552.594 278.51 553.809 278.51C555.249 278.51 555.744 279.14 555.744 280.76C555.744 281.66 555.519 282.965 555.069 284.72L551.559 297.5H555.789L557.994 289.49C558.624 287.195 559.839 284.81 561.594 282.29C563.394 279.77 564.924 278.51 566.139 278.51C567.624 278.51 568.119 279.14 568.119 280.76C568.119 281.615 567.894 282.965 567.399 284.72L566.094 289.625C565.374 292.19 565.014 294.035 565.014 295.16C565.014 297.14 566.049 298.13 568.164 298.13C570.864 298.13 573.069 295.475 575.229 290.975L574.284 290.39ZM598.116 290.39C597.441 291.965 596.676 293.315 595.866 294.44C595.101 295.52 594.471 296.06 593.976 296.06C593.301 296.06 592.986 295.7 592.986 294.935C592.986 293.99 593.346 292.325 594.021 289.85L597.576 276.89H593.346L592.086 281.66C591.771 278.24 589.926 276.26 587.181 276.26C581.421 276.08 575.931 284.18 576.111 291.2C576.111 295.475 578.136 298.13 581.736 298.13C584.931 298.13 588.036 295.745 589.791 291.65C589.476 292.955 589.296 293.9 589.296 294.53C589.296 296.915 590.196 298.13 591.951 298.13C594.426 298.13 596.811 295.745 599.106 290.975L598.116 290.39ZM583.311 296.465C581.376 296.465 580.206 294.935 580.206 291.875C580.206 290.12 580.521 288.14 581.196 286.025C581.871 283.91 582.816 282.02 584.031 280.4C585.291 278.735 586.641 277.925 588.036 277.925C589.791 277.925 591.141 279.455 591.141 282.74C591.141 284.495 590.826 286.43 590.151 288.545C589.476 290.66 588.531 292.505 587.271 294.08C586.056 295.655 584.706 296.465 583.311 296.465ZM600.725 297.095C600.005 297.095 599.645 296.87 599.645 296.375C600.86 296.375 601.49 295.52 601.49 294.44C601.49 293.405 600.77 292.595 599.915 292.595C598.7 292.595 597.8 293.81 597.8 295.205C597.8 296.825 599.105 298.085 600.68 298.085C602.165 298.085 603.335 297.095 604.325 295.7C605 294.8 605.72 292.955 606.125 291.74C606.35 291.11 606.665 290.255 606.98 289.175L607.79 286.43C608.015 285.665 608.285 284.63 608.6 283.325L609.5 280.13C610.31 282.605 610.805 288.5 610.94 297.815H612.11L623.405 279.275L620.39 290.48C619.805 292.595 619.49 294.17 619.49 295.205C619.49 296.96 620.525 298.13 622.64 298.13C625.205 298.13 627.635 295.745 629.885 291.02L628.94 290.435C627.455 293.72 625.79 296.105 624.665 296.105C624.035 296.105 623.72 295.7 623.72 294.935C623.72 294.35 623.945 293.135 624.44 291.29L628.355 276.89H623.405L614.72 291.65C614.45 281.39 612.74 276.26 609.545 276.26C606.89 276.26 604.37 278.69 602.03 283.505L603.065 283.955C604.55 280.4 606.35 278.465 607.745 278.465C608.015 278.465 608.285 278.555 608.51 278.735C606.62 286.07 605.18 290.93 604.235 293.405C603.29 295.88 602.12 297.095 600.725 297.095ZM645.722 295.34C645.722 297.14 646.442 298.13 648.467 298.13C650.897 298.13 653.237 295.745 655.532 291.02L654.542 290.435C652.832 294.215 651.392 296.105 650.222 296.105C649.637 296.105 649.322 295.745 649.322 295.025C649.322 294.26 649.547 293.045 650.042 291.38L654.047 276.89H649.682L647.702 284.45C647.027 287.015 645.812 289.535 644.012 292.1C642.257 294.665 640.637 295.925 639.242 295.925C638.027 295.925 637.442 295.16 637.442 293.585C637.442 292.685 637.667 291.38 638.117 289.715L639.422 284.81C640.187 281.975 640.547 280.13 640.547 279.275C640.547 277.25 639.467 276.26 637.352 276.26C634.877 276.26 632.537 278.645 630.287 283.415L631.277 284C632.987 280.22 634.382 278.33 635.507 278.33C636.092 278.33 636.407 278.69 636.407 279.41C636.362 280.535 636.092 281.84 635.687 283.325L633.707 290.21C633.302 291.605 633.077 292.955 633.077 294.17C633.077 296.825 634.472 298.13 637.217 298.13C639.017 298.13 640.772 297.275 642.482 295.565C644.237 293.81 645.722 291.605 646.937 288.905C646.127 291.695 645.722 293.855 645.722 295.34ZM680.148 290.39C678.393 294.17 676.998 296.06 675.873 296.06C675.243 296.06 674.928 295.7 674.928 294.935C674.928 294.17 675.198 292.91 675.693 291.2L679.698 276.89H675.378L672.948 285.845H664.623L665.073 284.315C665.658 282.2 665.973 280.445 665.973 279.14C665.973 277.385 664.893 276.26 662.778 276.26C660.303 276.26 657.918 278.645 655.713 283.415L656.658 284C658.413 280.22 659.853 278.33 660.978 278.33C661.608 278.33 661.923 278.69 661.923 279.41C662.013 280.175 661.338 282.38 661.203 283.055L657.198 297.5H661.518L664.218 287.42H672.498L671.913 289.625C671.193 292.28 670.833 294.125 670.833 295.16C670.833 297.14 671.913 298.13 674.073 298.13C676.458 298.13 678.798 295.745 681.093 290.975L680.148 290.39ZM705.926 290.39C704.171 294.17 702.776 296.06 701.651 296.06C701.021 296.06 700.706 295.7 700.706 294.935C700.706 294.17 700.976 292.91 701.471 291.2L705.476 276.89H701.156L698.726 285.845H690.401L690.851 284.315C691.436 282.2 691.751 280.445 691.751 279.14C691.751 277.385 690.671 276.26 688.556 276.26C686.081 276.26 683.696 278.645 681.491 283.415L682.436 284C684.191 280.22 685.631 278.33 686.756 278.33C687.386 278.33 687.701 278.69 687.701 279.41C687.791 280.175 687.116 282.38 686.981 283.055L682.976 297.5H687.296L689.996 287.42H698.276L697.691 289.625C696.971 292.28 696.611 294.125 696.611 295.16C696.611 297.14 697.691 298.13 699.851 298.13C702.236 298.13 704.576 295.745 706.871 290.975L705.926 290.39ZM727.879 278.915C727.879 277.655 727.114 276.35 725.989 276.35C725.044 276.35 724.279 277.16 724.279 278.24C724.279 279.185 724.909 280.13 726.124 281.075C725.719 284.18 724.099 288.5 721.219 293.945C720.094 287.465 719.059 282.92 718.069 280.265C717.124 277.61 715.684 276.26 713.794 276.26C711.094 276.26 709.474 278.87 707.854 283.505L708.844 283.955C710.239 280.4 711.094 278.87 712.129 278.87C713.074 278.87 713.929 280.265 714.739 283.01C715.549 285.755 716.674 290.75 718.069 298.04C715.234 302.495 712.174 305.24 709.969 305.24C709.069 305.24 708.529 305.105 708.304 304.79C709.384 304.79 710.419 303.98 710.419 302.72C710.419 301.595 709.564 300.515 708.439 300.515C707.359 300.515 706.099 301.325 706.099 303.26C706.099 304.925 707.359 306.455 709.879 306.455C712.894 306.455 716.809 302.9 720.364 297.5C722.704 293.945 724.549 290.48 725.854 287.195C727.204 283.91 727.879 281.12 727.879 278.915ZM758.774 284.63C758.774 279.725 756.074 276.26 751.349 276.26C748.649 276.26 746.309 277.16 744.284 278.96C742.304 280.76 740.954 283.1 740.234 285.98H736.904L737.939 282.155C738.254 281.03 738.389 279.95 738.389 278.96C738.389 277.385 737.219 276.26 735.194 276.26C733.799 276.26 732.404 276.98 731.009 278.465C729.659 279.905 728.669 281.57 727.994 283.415L728.939 284C730.424 280.715 732.224 278.33 733.349 278.33C733.934 278.33 734.204 278.69 734.204 279.455C734.204 279.86 734.024 280.76 733.709 282.065L729.479 297.5H733.799L736.499 287.51H739.964C739.829 288.14 739.784 288.95 739.784 289.895C739.784 294.8 742.439 298.13 747.119 298.13C750.404 298.13 753.194 296.78 755.399 294.035C757.649 291.29 758.774 288.14 758.774 284.63ZM754.589 283.28C754.589 287.87 752.339 296.87 747.344 296.87C745.364 296.87 743.834 294.845 743.834 291.245C743.834 288.95 744.374 285.89 745.454 282.875C746.534 279.86 748.649 277.565 751.124 277.565C753.419 277.565 754.589 279.455 754.589 283.28ZM492.399 335.39C491.724 336.965 490.959 338.315 490.149 339.44C489.384 340.52 488.754 341.06 488.259 341.06C487.584 341.06 487.269 340.7 487.269 339.935C487.269 338.99 487.629 337.325 488.304 334.85L491.859 321.89H487.629L486.369 326.66C486.054 323.24 484.209 321.26 481.464 321.26C475.704 321.08 470.214 329.18 470.394 336.2C470.394 340.475 472.419 343.13 476.019 343.13C479.214 343.13 482.319 340.745 484.074 336.65C483.759 337.955 483.579 338.9 483.579 339.53C483.579 341.915 484.479 343.13 486.234 343.13C488.709 343.13 491.094 340.745 493.389 335.975L492.399 335.39ZM477.594 341.465C475.659 341.465 474.489 339.935 474.489 336.875C474.489 335.12 474.804 333.14 475.479 331.025C476.154 328.91 477.099 327.02 478.314 325.4C479.574 323.735 480.924 322.925 482.319 322.925C484.074 322.925 485.424 324.455 485.424 327.74C485.424 329.495 485.109 331.43 484.434 333.545C483.759 335.66 482.814 337.505 481.554 339.08C480.339 340.655 478.989 341.465 477.594 341.465ZM494.962 342.995C496.222 342.995 497.257 342.455 498.157 341.06C499.057 339.665 499.687 338.495 500.452 336.02C500.857 334.805 501.172 333.725 501.397 332.78L502.432 328.955L503.557 324.995C503.917 323.69 504.412 323.15 505.537 323.15H507.292C508.732 323.15 509.452 323.96 509.452 325.58C509.452 326.12 509.317 326.84 509.092 327.695L506.662 336.38C506.257 337.775 506.032 339.17 506.032 340.475C506.032 342.05 507.247 343.13 509.272 343.13C511.837 343.13 514.222 340.745 516.517 336.02L515.527 335.435C513.772 339.215 512.377 341.105 511.252 341.105C510.667 341.105 510.352 340.7 510.352 339.89C510.352 339.125 510.622 337.865 511.117 336.065L513.322 328.19C513.592 327.245 513.727 326.3 513.727 325.4C513.727 323.06 512.377 321.89 509.722 321.89H499.867L499.507 323.15H501.307C502.072 323.15 502.477 323.42 502.477 324.005C502.477 324.05 502.432 324.41 502.297 324.995C500.587 331.7 499.237 336.2 498.247 338.54C497.302 340.835 496.177 342.005 494.872 342.005C494.242 342.005 493.927 341.78 493.927 341.285C495.142 341.285 495.772 340.43 495.772 339.35C495.772 338.315 495.052 337.505 494.197 337.505C492.982 337.505 492.082 338.72 492.082 340.115C492.082 341.735 493.387 342.995 494.962 342.995ZM535.688 333.995C535.688 332.51 535.283 331.16 534.518 330.035C533.753 328.865 532.403 328.28 530.468 328.28C528.623 328.28 527.003 329.09 525.608 330.71L526.328 328.415C526.913 326.39 527.228 325.04 527.228 324.275C527.228 322.43 526.103 321.305 523.988 321.305C521.423 321.305 518.993 323.69 516.743 328.415L517.688 329C519.173 325.76 521.063 323.33 522.188 323.33C522.773 323.33 523.088 323.69 523.088 324.455C523.088 325.04 522.818 326.255 522.233 328.01L520.298 334.355C519.983 335.39 519.848 336.335 519.848 337.19C519.848 340.745 522.233 343.13 526.328 343.13C529.118 343.13 531.368 342.185 533.078 340.25C534.833 338.315 535.688 336.2 535.688 333.995ZM531.818 333.995C531.818 335.975 531.323 337.82 530.333 339.485C529.343 341.15 528.218 342.005 526.958 342.005C524.933 342.005 523.898 340.655 523.898 337.955C523.898 335.75 524.438 333.86 525.518 332.285C526.643 330.71 527.723 329.9 528.848 329.9C530.828 329.9 531.818 331.25 531.818 333.995ZM573.128 335.39C571.643 338.63 569.888 341.06 568.853 341.06C568.268 341.06 567.953 340.7 567.953 339.98C567.953 339.035 568.178 337.775 568.673 336.11L570.653 329.18C571.103 327.65 571.328 326.3 571.328 325.13C571.328 322.565 570.023 321.26 567.368 321.26C565.703 321.26 563.903 322.16 562.058 323.915C560.213 325.67 558.683 327.875 557.468 330.53C558.143 328.055 558.458 326.21 558.458 324.995C558.458 322.52 557.333 321.26 555.038 321.26C553.328 321.26 551.528 322.115 549.683 323.825C547.838 325.535 546.308 327.785 545.093 330.53C545.903 327.425 546.308 325.265 546.308 324.095C546.308 322.25 545.633 321.26 543.608 321.26C540.908 321.26 538.703 323.915 536.543 328.415L537.533 329C538.928 325.76 540.683 323.33 541.808 323.33C542.393 323.33 542.708 323.69 542.708 324.41C542.708 324.995 542.483 326.21 541.988 328.055L538.118 342.5H542.348L544.508 334.49C545.183 332.105 546.398 329.675 548.153 327.2C549.908 324.725 551.438 323.51 552.653 323.51C554.093 323.51 554.588 324.14 554.588 325.76C554.588 326.66 554.363 327.965 553.913 329.72L550.403 342.5H554.633L556.838 334.49C557.468 332.195 558.683 329.81 560.438 327.29C562.238 324.77 563.768 323.51 564.983 323.51C566.468 323.51 566.963 324.14 566.963 325.76C566.963 326.615 566.738 327.965 566.243 329.72L564.938 334.625C564.218 337.19 563.858 339.035 563.858 340.16C563.858 342.14 564.893 343.13 567.008 343.13C569.708 343.13 571.913 340.475 574.073 335.975L573.128 335.39ZM592.731 325.67C592.731 322.745 590.796 321.26 586.881 321.26C584.586 321.26 582.516 321.98 580.626 323.465C578.781 324.905 577.341 326.66 576.396 328.775C575.451 330.845 575.001 332.915 575.001 335.03C575.001 339.71 577.566 343.13 582.201 343.13C583.866 343.13 585.531 342.545 587.196 341.375C588.906 340.16 590.301 338.54 591.336 336.47L590.436 335.885C588.501 339.44 585.801 341.33 583.281 341.33C580.626 341.33 579.186 339.44 579.141 335.975C579.141 335.48 579.186 334.94 579.276 334.4C583.551 333.725 586.836 332.555 589.176 330.8C591.561 329.045 592.731 327.335 592.731 325.67ZM589.131 325.49C589.131 327.065 588.411 328.55 587.016 330.035C585.621 331.475 583.101 332.51 579.456 333.14C579.771 330.575 580.581 328.145 581.886 325.94C583.191 323.69 584.721 322.565 586.476 322.565C588.231 322.565 589.131 323.555 589.131 325.49ZM616.594 328.145C616.594 324.05 614.659 321.26 611.194 321.26C607.954 321.26 604.804 323.825 602.689 328.145C603.094 326.3 603.319 324.95 603.319 324.14C603.319 322.205 602.374 321.26 600.529 321.26C598.054 321.26 595.669 323.645 593.464 328.415L594.409 329C596.164 325.22 597.604 323.33 598.774 323.33C599.899 323.33 599.854 324.5 598.909 328.055L593.554 347.9C593.194 349.295 592.744 349.7 591.619 349.7H589.999L589.684 350.96H600.979L601.294 349.7H598.774C598.009 349.7 597.604 349.43 597.604 348.89C597.604 348.575 597.649 348.26 597.784 347.9L600.619 337.235C600.664 340.79 602.644 343.13 605.704 343.13C607.684 343.13 609.529 342.365 611.239 340.835C612.949 339.26 614.254 337.37 615.199 335.075C616.144 332.78 616.594 330.44 616.594 328.145ZM612.499 327.47C612.499 329.27 612.184 331.25 611.554 333.41C610.924 335.525 609.979 337.415 608.764 339.08C607.549 340.7 606.199 341.51 604.804 341.51C602.599 341.51 601.474 339.305 601.474 335.93C601.474 333.365 602.329 330.575 604.039 327.56C605.749 324.5 607.549 322.97 609.394 322.97C611.329 322.97 612.499 324.545 612.499 327.47ZM642.053 335.39C640.298 339.17 638.903 341.06 637.778 341.06C637.148 341.06 636.833 340.7 636.833 339.935C636.833 339.17 637.103 337.91 637.598 336.2L641.603 321.89H637.283L634.853 330.845H626.528L626.978 329.315C627.563 327.2 627.878 325.445 627.878 324.14C627.878 322.385 626.798 321.26 624.683 321.26C622.208 321.26 619.823 323.645 617.618 328.415L618.563 329C620.318 325.22 621.758 323.33 622.883 323.33C623.513 323.33 623.828 323.69 623.828 324.41C623.918 325.175 623.243 327.38 623.108 328.055L619.103 342.5H623.423L626.123 332.42H634.403L633.818 334.625C633.098 337.28 632.738 339.125 632.738 340.16C632.738 342.14 633.818 343.13 635.978 343.13C638.363 343.13 640.703 340.745 642.998 335.975L642.053 335.39ZM666.121 335.39C665.446 336.965 664.681 338.315 663.871 339.44C663.106 340.52 662.476 341.06 661.981 341.06C661.306 341.06 660.991 340.7 660.991 339.935C660.991 338.99 661.351 337.325 662.026 334.85L665.581 321.89H661.351L660.091 326.66C659.776 323.24 657.931 321.26 655.186 321.26C649.426 321.08 643.936 329.18 644.116 336.2C644.116 340.475 646.141 343.13 649.741 343.13C652.936 343.13 656.041 340.745 657.796 336.65C657.481 337.955 657.301 338.9 657.301 339.53C657.301 341.915 658.201 343.13 659.956 343.13C662.431 343.13 664.816 340.745 667.111 335.975L666.121 335.39ZM651.316 341.465C649.381 341.465 648.211 339.935 648.211 336.875C648.211 335.12 648.526 333.14 649.201 331.025C649.876 328.91 650.821 327.02 652.036 325.4C653.296 323.735 654.646 322.925 656.041 322.925C657.796 322.925 659.146 324.455 659.146 327.74C659.146 329.495 658.831 331.43 658.156 333.545C657.481 335.66 656.536 337.505 655.276 339.08C654.061 340.655 652.711 341.465 651.316 341.465ZM703.864 335.39C702.379 338.63 700.624 341.06 699.589 341.06C699.004 341.06 698.689 340.7 698.689 339.98C698.689 339.035 698.914 337.775 699.409 336.11L701.389 329.18C701.839 327.65 702.064 326.3 702.064 325.13C702.064 322.565 700.759 321.26 698.104 321.26C696.439 321.26 694.639 322.16 692.794 323.915C690.949 325.67 689.419 327.875 688.204 330.53C688.879 328.055 689.194 326.21 689.194 324.995C689.194 322.52 688.069 321.26 685.774 321.26C684.064 321.26 682.264 322.115 680.419 323.825C678.574 325.535 677.044 327.785 675.829 330.53C676.639 327.425 677.044 325.265 677.044 324.095C677.044 322.25 676.369 321.26 674.344 321.26C671.644 321.26 669.439 323.915 667.279 328.415L668.269 329C669.664 325.76 671.419 323.33 672.544 323.33C673.129 323.33 673.444 323.69 673.444 324.41C673.444 324.995 673.219 326.21 672.724 328.055L668.854 342.5H673.084L675.244 334.49C675.919 332.105 677.134 329.675 678.889 327.2C680.644 324.725 682.174 323.51 683.389 323.51C684.829 323.51 685.324 324.14 685.324 325.76C685.324 326.66 685.099 327.965 684.649 329.72L681.139 342.5H685.369L687.574 334.49C688.204 332.195 689.419 329.81 691.174 327.29C692.974 324.77 694.504 323.51 695.719 323.51C697.204 323.51 697.699 324.14 697.699 325.76C697.699 326.615 697.474 327.965 696.979 329.72L695.674 334.625C694.954 337.19 694.594 339.035 694.594 340.16C694.594 342.14 695.629 343.13 697.744 343.13C700.444 343.13 702.649 340.475 704.809 335.975L703.864 335.39ZM720.406 340.34C720.406 342.14 721.126 343.13 723.151 343.13C725.581 343.13 727.921 340.745 730.216 336.02L729.226 335.435C727.516 339.215 726.076 341.105 724.906 341.105C724.321 341.105 724.006 340.745 724.006 340.025C724.006 339.26 724.231 338.045 724.726 336.38L728.731 321.89H724.366L722.386 329.45C721.711 332.015 720.496 334.535 718.696 337.1C716.941 339.665 715.321 340.925 713.926 340.925C712.711 340.925 712.126 340.16 712.126 338.585C712.126 337.685 712.351 336.38 712.801 334.715L714.106 329.81C714.871 326.975 715.231 325.13 715.231 324.275C715.231 322.25 714.151 321.26 712.036 321.26C709.561 321.26 707.221 323.645 704.971 328.415L705.961 329C707.671 325.22 709.066 323.33 710.191 323.33C710.776 323.33 711.091 323.69 711.091 324.41C711.046 325.535 710.776 326.84 710.371 328.325L708.391 335.21C707.986 336.605 707.761 337.955 707.761 339.17C707.761 341.825 709.156 343.13 711.901 343.13C713.701 343.13 715.456 342.275 717.166 340.565C718.921 338.81 720.406 336.605 721.621 333.905C720.811 336.695 720.406 338.855 720.406 340.34ZM749.118 325.355C749.118 322.61 746.643 321.26 743.088 321.26C740.793 321.26 738.678 321.98 736.788 323.465C734.943 324.905 733.503 326.66 732.558 328.775C731.613 330.845 731.163 332.96 731.163 335.075C731.163 339.8 733.458 343.13 738.318 343.13C741.153 343.13 743.448 342.455 745.113 341.105C746.778 339.755 747.633 338.09 747.633 336.065C747.633 333.725 746.283 331.565 742.908 331.34C744.978 330.8 746.508 329.945 747.543 328.73C748.578 327.515 749.118 326.39 749.118 325.355ZM743.718 335.84C743.718 337.595 743.223 339.035 742.188 340.16C741.198 341.285 740.118 341.825 738.903 341.825C736.518 341.825 735.303 339.98 735.303 336.245C735.303 335.12 735.393 334.04 735.528 333.005C737.238 332.33 738.903 332.015 740.568 332.015C742.503 332.015 743.718 333.68 743.718 335.84ZM742.638 322.52C744.258 322.52 745.473 323.555 745.473 325.355C745.473 327.29 743.898 329.63 740.973 330.755C738.993 330.935 737.238 331.295 735.708 331.79C736.113 329.225 736.968 327.065 738.273 325.265C739.578 323.42 741.018 322.52 742.638 322.52ZM770.37 323.915C770.37 322.655 769.605 321.35 768.48 321.35C767.535 321.35 766.77 322.16 766.77 323.24C766.77 324.185 767.4 325.13 768.615 326.075C768.21 329.18 766.59 333.5 763.71 338.945C762.585 332.465 761.55 327.92 760.56 325.265C759.615 322.61 758.175 321.26 756.285 321.26C753.585 321.26 751.965 323.87 750.345 328.505L751.335 328.955C752.73 325.4 753.585 323.87 754.62 323.87C755.565 323.87 756.42 325.265 757.23 328.01C758.04 330.755 759.165 335.75 760.56 343.04C757.725 347.495 754.665 350.24 752.46 350.24C751.56 350.24 751.02 350.105 750.795 349.79C751.875 349.79 752.91 348.98 752.91 347.72C752.91 346.595 752.055 345.515 750.93 345.515C749.85 345.515 748.59 346.325 748.59 348.26C748.59 349.925 749.85 351.455 752.37 351.455C755.385 351.455 759.3 347.9 762.855 342.5C765.195 338.945 767.04 335.48 768.345 332.195C769.695 328.91 770.37 326.12 770.37 323.915ZM776.289 333.185C776.874 330.845 777.864 328.235 779.259 325.4C780.654 322.52 781.869 319.91 782.904 317.615C783.939 315.275 784.434 313.25 784.434 311.495C784.434 310.235 783.444 309.56 782.409 309.56C780.204 309.56 778.719 311.72 777.864 315.455C777.459 317.3 777.144 319.145 776.919 321.035C776.694 322.925 776.379 325.04 776.064 327.425C775.749 329.81 775.434 331.7 775.074 333.185H776.289ZM776.154 340.34C776.154 338.9 775.074 337.73 773.769 337.73C772.374 337.73 771.339 338.99 771.339 340.43C771.339 341.825 772.374 342.905 773.679 342.905C775.074 342.905 776.154 341.735 776.154 340.34Z" fill="black"/>
</svg>
