<svg width="842" height="596" viewBox="0 0 842 596" fill="none" xmlns="http://www.w3.org/2000/svg">
<rect width="842" height="595" transform="translate(0 0.5)" fill="white"/>
<rect x="25" y="25.5" width="77" height="544.875" fill="#8EA5EB" fill-opacity="0.2"/>
<rect x="127" y="25.5" width="77" height="544.875" fill="#8EA5EB" fill-opacity="0.2"/>
<rect x="229" y="25.5" width="77" height="544.875" fill="#8EA5EB" fill-opacity="0.2"/>
<rect x="331" y="25.5" width="78" height="544.875" fill="#8EA5EB" fill-opacity="0.2"/>
<rect x="536" y="25.5" width="77" height="544.875" fill="#8EA5EB" fill-opacity="0.2"/>
<rect x="638" y="25.5" width="77" height="544.875" fill="#8EA5EB" fill-opacity="0.2"/>
<rect x="434" y="25.5" width="77" height="544.875" fill="#8EA5EB" fill-opacity="0.2"/>
<rect x="740" y="25.5" width="77" height="544.875" fill="#8EA5EB" fill-opacity="0.2"/>
<path d="M25 48.5H817" stroke="#8EA5EB"/>
<path d="M25 70.5H817" stroke="#8EA5EB"/>
<path d="M25 93.5H817" stroke="#8EA5EB"/>
<path d="M25 116.5H817" stroke="#8EA5EB"/>
<path d="M25 139.5H817" stroke="#8EA5EB"/>
<path d="M25 161.5H817" stroke="#8EA5EB"/>
<path d="M25 184.5H817" stroke="#8EA5EB"/>
<path d="M25 207.5H817" stroke="#8EA5EB"/>
<path d="M25 229.5H817" stroke="#8EA5EB"/>
<path d="M25 252.5H817" stroke="#8EA5EB"/>
<path d="M25 275.5H817" stroke="#8EA5EB"/>
<path d="M25 298.438H817" stroke="#8EA5EB"/>
<path d="M25 320.5H817" stroke="#8EA5EB"/>
<path d="M25 343.5H817" stroke="#8EA5EB"/>
<path d="M25 366.5H817" stroke="#8EA5EB"/>
<path d="M25 388.5H817" stroke="#8EA5EB"/>
<path d="M25 411.5H817" stroke="#8EA5EB"/>
<path d="M25 434.5H817" stroke="#8EA5EB"/>
<path d="M25 456.5H817" stroke="#8EA5EB"/>
<path d="M25 479.5H817" stroke="#8EA5EB"/>
<path d="M25 502.5H817" stroke="#8EA5EB"/>
<path d="M25 525.5H817" stroke="#8EA5EB"/>
<path d="M25 547.5H817" stroke="#8EA5EB"/>
<path d="M263.27 175.37H267.32V207.5H263.27V192.83H245.315V207.5H241.265V175.37H245.315V189.05H263.27V175.37ZM293.994 194.81V196.115H276.714C276.774 198.845 277.419 200.975 278.649 202.505C279.879 204.005 281.649 204.755 283.959 204.755C287.079 204.755 288.999 203.585 289.719 201.245H293.589C293.199 203.285 292.164 204.935 290.484 206.195C288.834 207.455 286.659 208.085 283.959 208.085C280.509 208.085 277.809 206.96 275.859 204.71C273.909 202.46 272.934 199.535 272.934 195.935C272.934 192.395 273.909 189.56 275.859 187.43C277.809 185.3 280.479 184.235 283.869 184.235C287.079 184.235 289.554 185.255 291.294 187.295C293.034 189.305 293.934 191.81 293.994 194.81ZM283.779 187.565C281.829 187.565 280.269 188.075 279.099 189.095C277.929 190.085 277.209 191.36 276.939 192.92H290.034C289.914 191.39 289.299 190.115 288.189 189.095C287.079 188.075 285.609 187.565 283.779 187.565ZM317.063 216.5H313.193L317.873 205.385L308.198 184.82H312.293L319.223 199.76H320.348L326.648 184.82H330.653L317.063 216.5ZM354.417 207.5H350.592V188.15H338.217V207.5H334.392V184.82H354.417V207.5ZM362.624 187.61C364.634 185.36 367.364 184.235 370.814 184.235C374.264 184.235 376.979 185.36 378.959 187.61C380.969 189.86 381.974 192.71 381.974 196.16C381.974 199.61 380.969 202.46 378.959 204.71C376.979 206.96 374.264 208.085 370.814 208.085C367.364 208.085 364.634 206.96 362.624 204.71C360.644 202.46 359.654 199.61 359.654 196.16C359.654 192.71 360.644 189.86 362.624 187.61ZM365.369 202.28C366.629 203.93 368.444 204.755 370.814 204.755C373.184 204.755 374.999 203.93 376.259 202.28C377.519 200.6 378.149 198.56 378.149 196.16C378.149 193.76 377.519 191.735 376.259 190.085C374.999 188.405 373.184 187.565 370.814 187.565C368.444 187.565 366.629 188.405 365.369 190.085C364.109 191.735 363.479 193.76 363.479 196.16C363.479 198.56 364.109 200.6 365.369 202.28ZM384.399 188.15V184.82H403.929V188.15H396.099V207.5H392.274V188.15H384.399ZM419.101 187.565C416.731 187.565 414.946 188.39 413.746 190.04C412.576 191.69 411.991 193.73 411.991 196.16C411.991 198.59 412.576 200.63 413.746 202.28C414.946 203.93 416.731 204.755 419.101 204.755C421.321 204.755 423.031 203.975 424.231 202.415C425.461 200.825 426.076 198.74 426.076 196.16C426.076 193.58 425.461 191.51 424.231 189.95C423.031 188.36 421.321 187.565 419.101 187.565ZM408.211 184.82H411.901V187.25H412.891C414.511 185.24 416.866 184.235 419.956 184.235C423.016 184.235 425.431 185.36 427.201 187.61C429.001 189.86 429.901 192.71 429.901 196.16C429.901 199.67 429.001 202.535 427.201 204.755C425.431 206.975 423.016 208.085 419.956 208.085C416.836 208.085 414.526 207.08 413.026 205.07H412.036V216.5H408.211V184.82ZM454.796 194.81V196.115H437.516C437.576 198.845 438.221 200.975 439.451 202.505C440.681 204.005 442.451 204.755 444.761 204.755C447.881 204.755 449.801 203.585 450.521 201.245H454.391C454.001 203.285 452.966 204.935 451.286 206.195C449.636 207.455 447.461 208.085 444.761 208.085C441.311 208.085 438.611 206.96 436.661 204.71C434.711 202.46 433.736 199.535 433.736 195.935C433.736 192.395 434.711 189.56 436.661 187.43C438.611 185.3 441.281 184.235 444.671 184.235C447.881 184.235 450.356 185.255 452.096 187.295C453.836 189.305 454.736 191.81 454.796 194.81ZM444.581 187.565C442.631 187.565 441.071 188.075 439.901 189.095C438.731 190.085 438.011 191.36 437.741 192.92H450.836C450.716 191.39 450.101 190.115 448.991 189.095C447.881 188.075 446.411 187.565 444.581 187.565ZM470.336 185.045C473.666 185.045 476.291 186.14 478.211 188.33C480.131 190.49 481.091 193.235 481.091 196.565C481.091 199.865 480.071 202.61 478.031 204.8C476.021 206.99 473.306 208.085 469.886 208.085C466.286 208.085 463.496 206.9 461.516 204.53C459.566 202.16 458.591 198.77 458.591 194.36C458.591 192.65 458.636 191.12 458.726 189.77C458.846 188.42 459.086 187.01 459.446 185.54C459.836 184.07 460.346 182.825 460.976 181.805C461.606 180.755 462.476 179.84 463.586 179.06C464.696 178.28 466.016 177.77 467.546 177.53L473.576 176.54C474.416 176.42 474.971 176.255 475.241 176.045C475.541 175.835 475.721 175.415 475.781 174.785H479.336C479.276 176.195 478.931 177.32 478.301 178.16C477.671 178.97 476.531 179.525 474.881 179.825L467.906 180.995C466.016 181.325 464.621 182.12 463.721 183.38C462.851 184.61 462.281 186.26 462.011 188.33H463.001C463.931 187.1 464.966 186.245 466.106 185.765C467.276 185.285 468.686 185.045 470.336 185.045ZM464.306 202.37C465.596 203.96 467.426 204.755 469.796 204.755C472.166 204.755 473.981 203.96 475.241 202.37C476.531 200.75 477.176 198.8 477.176 196.52C477.176 194.24 476.531 192.305 475.241 190.715C473.981 189.125 472.166 188.33 469.796 188.33C467.426 188.33 465.596 189.125 464.306 190.715C463.046 192.305 462.416 194.24 462.416 196.52C462.416 198.8 463.046 200.75 464.306 202.37ZM483.287 207.5V203.9H484.052C485.642 203.9 486.782 203.165 487.472 201.695C488.162 200.195 488.507 197.495 488.507 193.595V184.82H505.877V207.5H502.007V188.15H492.062V193.685C492.062 198.815 491.432 202.4 490.172 204.44C488.942 206.48 486.902 207.5 484.052 207.5H483.287ZM519.8 184.82H531.095V207.5H527.225V198.545H520.34C519.74 198.545 519.275 198.53 518.945 198.5L515.525 207.5H511.52L515.345 197.645C513.005 196.535 511.835 194.555 511.835 191.705C511.835 189.515 512.51 187.82 513.86 186.62C515.24 185.42 517.22 184.82 519.8 184.82ZM527.225 188.06H520.205C518.555 188.06 517.385 188.375 516.695 189.005C516.005 189.635 515.66 190.55 515.66 191.75C515.66 192.92 516.005 193.805 516.695 194.405C517.385 195.005 518.555 195.305 520.205 195.305H527.225V188.06ZM557.337 194.81V196.115H540.057C540.117 198.845 540.762 200.975 541.992 202.505C543.222 204.005 544.992 204.755 547.302 204.755C550.422 204.755 552.342 203.585 553.062 201.245H556.932C556.542 203.285 555.507 204.935 553.827 206.195C552.177 207.455 550.002 208.085 547.302 208.085C543.852 208.085 541.152 206.96 539.202 204.71C537.252 202.46 536.277 199.535 536.277 195.935C536.277 192.395 537.252 189.56 539.202 187.43C541.152 185.3 543.822 184.235 547.212 184.235C550.422 184.235 552.897 185.255 554.637 187.295C556.377 189.305 557.277 191.81 557.337 194.81ZM547.122 187.565C545.172 187.565 543.612 188.075 542.442 189.095C541.272 190.085 540.552 191.36 540.282 192.92H553.377C553.257 191.39 552.642 190.115 551.532 189.095C550.422 188.075 548.952 187.565 547.122 187.565ZM559.44 188.15V184.82H578.97V188.15H571.14V207.5H567.315V188.15H559.44ZM602.564 194.81V196.115H585.284C585.344 198.845 585.989 200.975 587.219 202.505C588.449 204.005 590.219 204.755 592.529 204.755C595.649 204.755 597.569 203.585 598.289 201.245H602.159C601.769 203.285 600.734 204.935 599.054 206.195C597.404 207.455 595.229 208.085 592.529 208.085C589.079 208.085 586.379 206.96 584.429 204.71C582.479 202.46 581.504 199.535 581.504 195.935C581.504 192.395 582.479 189.56 584.429 187.43C586.379 185.3 589.049 184.235 592.439 184.235C595.649 184.235 598.124 185.255 599.864 187.295C601.604 189.305 602.504 191.81 602.564 194.81ZM592.349 187.565C590.399 187.565 588.839 188.075 587.669 189.095C586.499 190.085 585.779 191.36 585.509 192.92H598.604C598.484 191.39 597.869 190.115 596.759 189.095C595.649 188.075 594.179 187.565 592.349 187.565ZM210.511 252.5L205.471 242.51H198.676V252.5H194.851V229.82H198.676V239.18H205.561L210.286 229.82H214.291L208.756 240.755L214.606 252.5H210.511ZM233.711 252.5V250.115H232.721C231.161 252.095 228.806 253.085 225.656 253.085C223.166 253.085 221.186 252.365 219.716 250.925C218.246 249.485 217.511 247.745 217.511 245.705C217.511 243.635 218.231 241.865 219.671 240.395C221.111 238.925 223.286 238.19 226.196 238.19H233.576V237.29C233.576 235.85 233.126 234.71 232.226 233.87C231.326 233 229.931 232.565 228.041 232.565C224.741 232.565 222.986 233.66 222.776 235.85H218.951C219.101 233.78 219.986 232.16 221.606 230.99C223.256 229.82 225.371 229.235 227.951 229.235C230.861 229.235 233.141 229.91 234.791 231.26C236.471 232.61 237.311 234.545 237.311 237.065V252.5H233.711ZM226.601 249.755C228.491 249.755 230.126 249.14 231.506 247.91C232.886 246.65 233.576 245.12 233.576 243.32V241.25H226.781C223.151 241.25 221.336 242.69 221.336 245.57C221.336 246.86 221.786 247.88 222.686 248.63C223.616 249.38 224.921 249.755 226.601 249.755ZM259.21 252.5L254.17 242.51H247.375V252.5H243.55V229.82H247.375V239.18H254.26L258.985 229.82H262.99L257.455 240.755L263.305 252.5H259.21ZM268.882 232.61C270.892 230.36 273.622 229.235 277.072 229.235C280.522 229.235 283.237 230.36 285.217 232.61C287.227 234.86 288.232 237.71 288.232 241.16C288.232 244.61 287.227 247.46 285.217 249.71C283.237 251.96 280.522 253.085 277.072 253.085C273.622 253.085 270.892 251.96 268.882 249.71C266.902 247.46 265.912 244.61 265.912 241.16C265.912 237.71 266.902 234.86 268.882 232.61ZM271.627 247.28C272.887 248.93 274.702 249.755 277.072 249.755C279.442 249.755 281.257 248.93 282.517 247.28C283.777 245.6 284.407 243.56 284.407 241.16C284.407 238.76 283.777 236.735 282.517 235.085C281.257 233.405 279.442 232.565 277.072 232.565C274.702 232.565 272.887 233.405 271.627 235.085C270.367 236.735 269.737 238.76 269.737 241.16C269.737 243.56 270.367 245.6 271.627 247.28ZM298.836 252.5H293.436V229.82H297.171V247.37H298.161L308.106 229.82H313.686V252.5H309.951V234.95H308.961L298.836 252.5ZM307.386 219.92H310.491C310.431 222.02 309.786 223.64 308.556 224.78C307.326 225.92 305.631 226.49 303.471 226.49C301.341 226.49 299.661 225.92 298.431 224.78C297.201 223.64 296.556 222.02 296.496 219.92H299.601C299.661 222.47 300.951 223.745 303.471 223.745C305.931 223.745 307.236 222.47 307.386 219.92ZM331.113 241.7H318.828V238.325H331.113V241.7ZM332.803 252.5V248.9H333.568C335.158 248.9 336.298 248.165 336.988 246.695C337.678 245.195 338.023 242.495 338.023 238.595V229.82H355.393V252.5H351.523V233.15H341.578V238.685C341.578 243.815 340.948 247.4 339.688 249.44C338.458 251.48 336.418 252.5 333.568 252.5H332.803ZM367.381 252.5H361.981V229.82H365.716V247.37H366.706L376.651 229.82H382.231V252.5H378.496V234.95H377.506L367.381 252.5ZM399.208 230.045C402.538 230.045 405.163 231.14 407.083 233.33C409.003 235.49 409.963 238.235 409.963 241.565C409.963 244.865 408.943 247.61 406.903 249.8C404.893 251.99 402.178 253.085 398.758 253.085C395.158 253.085 392.368 251.9 390.388 249.53C388.438 247.16 387.463 243.77 387.463 239.36C387.463 237.65 387.508 236.12 387.598 234.77C387.718 233.42 387.958 232.01 388.318 230.54C388.708 229.07 389.218 227.825 389.848 226.805C390.478 225.755 391.348 224.84 392.458 224.06C393.568 223.28 394.888 222.77 396.418 222.53L402.448 221.54C403.288 221.42 403.843 221.255 404.113 221.045C404.413 220.835 404.593 220.415 404.653 219.785H408.208C408.148 221.195 407.803 222.32 407.173 223.16C406.543 223.97 405.403 224.525 403.753 224.825L396.778 225.995C394.888 226.325 393.493 227.12 392.593 228.38C391.723 229.61 391.153 231.26 390.883 233.33H391.873C392.803 232.1 393.838 231.245 394.978 230.765C396.148 230.285 397.558 230.045 399.208 230.045ZM393.178 247.37C394.468 248.96 396.298 249.755 398.668 249.755C401.038 249.755 402.853 248.96 404.113 247.37C405.403 245.75 406.048 243.8 406.048 241.52C406.048 239.24 405.403 237.305 404.113 235.715C402.853 234.125 401.038 233.33 398.668 233.33C396.298 233.33 394.468 234.125 393.178 235.715C391.918 237.305 391.288 239.24 391.288 241.52C391.288 243.8 391.918 245.75 393.178 247.37ZM416.738 232.61C418.748 230.36 421.478 229.235 424.928 229.235C428.378 229.235 431.093 230.36 433.073 232.61C435.083 234.86 436.088 237.71 436.088 241.16C436.088 244.61 435.083 247.46 433.073 249.71C431.093 251.96 428.378 253.085 424.928 253.085C421.478 253.085 418.748 251.96 416.738 249.71C414.758 247.46 413.768 244.61 413.768 241.16C413.768 237.71 414.758 234.86 416.738 232.61ZM419.483 247.28C420.743 248.93 422.558 249.755 424.928 249.755C427.298 249.755 429.113 248.93 430.373 247.28C431.633 245.6 432.263 243.56 432.263 241.16C432.263 238.76 431.633 236.735 430.373 235.085C429.113 233.405 427.298 232.565 424.928 232.565C422.558 232.565 420.743 233.405 419.483 235.085C418.223 236.735 417.593 238.76 417.593 241.16C417.593 243.56 418.223 245.6 419.483 247.28ZM473.077 252.5H469.252V233.15H456.877V252.5H453.052V229.82H473.077V252.5ZM490.599 232.565C488.229 232.565 486.444 233.39 485.244 235.04C484.074 236.69 483.489 238.73 483.489 241.16C483.489 243.59 484.074 245.63 485.244 247.28C486.444 248.93 488.229 249.755 490.599 249.755C492.819 249.755 494.529 248.975 495.729 247.415C496.959 245.825 497.574 243.74 497.574 241.16C497.574 238.58 496.959 236.51 495.729 234.95C494.529 233.36 492.819 232.565 490.599 232.565ZM479.709 229.82H483.399V232.25H484.389C486.009 230.24 488.364 229.235 491.454 229.235C494.514 229.235 496.929 230.36 498.699 232.61C500.499 234.86 501.399 237.71 501.399 241.16C501.399 244.67 500.499 247.535 498.699 249.755C496.929 251.975 494.514 253.085 491.454 253.085C488.334 253.085 486.024 252.08 484.524 250.07H483.534V261.5H479.709V229.82ZM508.204 232.61C510.214 230.36 512.944 229.235 516.394 229.235C519.844 229.235 522.559 230.36 524.539 232.61C526.549 234.86 527.554 237.71 527.554 241.16C527.554 244.61 526.549 247.46 524.539 249.71C522.559 251.96 519.844 253.085 516.394 253.085C512.944 253.085 510.214 251.96 508.204 249.71C506.224 247.46 505.234 244.61 505.234 241.16C505.234 237.71 506.224 234.86 508.204 232.61ZM510.949 247.28C512.209 248.93 514.024 249.755 516.394 249.755C518.764 249.755 520.579 248.93 521.839 247.28C523.099 245.6 523.729 243.56 523.729 241.16C523.729 238.76 523.099 236.735 521.839 235.085C520.579 233.405 518.764 232.565 516.394 232.565C514.024 232.565 512.209 233.405 510.949 235.085C509.689 236.735 509.059 238.76 509.059 241.16C509.059 243.56 509.689 245.6 510.949 247.28ZM552.964 249.17H557.149V258.935H553.414V252.5H533.794V258.935H530.059V249.17H533.074C534.934 245.21 535.864 240.83 535.864 236.03V229.82H552.964V249.17ZM549.139 249.17V233.15H539.419V236.03C539.419 241.16 538.594 245.54 536.944 249.17H549.139ZM567.469 261.5H563.599L568.279 250.385L558.604 229.82H562.699L569.629 244.76H570.754L577.054 229.82H581.059L567.469 261.5ZM600.458 252.5L595.418 242.51H588.623V252.5H584.798V229.82H588.623V239.18H595.508L600.233 229.82H604.238L598.703 240.755L604.553 252.5H600.458ZM606.874 233.15V229.82H626.404V233.15H618.574V252.5H614.749V233.15H606.874ZM639.01 219.785C641.95 219.785 644.29 220.58 646.03 222.17C647.8 223.73 648.685 225.83 648.685 228.47C648.685 229.61 648.565 230.6 648.325 231.44C648.115 232.28 647.68 233.09 647.02 233.87C646.39 234.65 645.865 235.235 645.445 235.625C645.025 236.015 644.275 236.645 643.195 237.515C641.995 238.445 641.2 239.21 640.81 239.81C640.45 240.38 640.27 241.355 640.27 242.735V243.995H636.4V242.735C636.4 241.445 636.565 240.365 636.895 239.495C637.255 238.595 637.69 237.875 638.2 237.335C638.74 236.765 639.58 236.015 640.72 235.085C641.71 234.275 642.445 233.645 642.925 233.195C643.405 232.715 643.84 232.07 644.23 231.26C644.62 230.45 644.815 229.52 644.815 228.47C644.815 227 644.29 225.74 643.24 224.69C642.22 223.64 640.825 223.115 639.055 223.115C635.185 223.115 633.145 225.11 632.935 229.1H629.065C629.185 226.19 630.115 223.91 631.855 222.26C633.625 220.61 636.01 219.785 639.01 219.785ZM640.675 252.5H635.995V247.28H640.675V252.5Z" fill="black"/>
<path fill-rule="evenodd" clip-rule="evenodd" d="M54.1291 528.303C52.2946 526.959 50.0797 526.235 47.8059 526.235H34.9726L25.9043 569.765H36.4406L37.542 564.474L38.0298 565.081C39.6568 567.105 41.8716 568.573 44.3688 569.285C46.8659 569.996 49.5223 569.915 51.9714 569.052C54.4205 568.19 56.5415 566.589 58.0419 564.47C59.5423 562.351 60.3481 559.818 60.3482 557.222C60.3488 555.002 59.7605 552.823 58.6433 550.905C57.5261 548.988 55.92 547.402 53.9891 546.308L53.4833 546.021L53.9589 545.687C55.8193 544.38 57.2148 542.514 57.9429 540.359C58.671 538.205 58.6938 535.875 58.008 533.707C57.3223 531.539 55.9636 529.646 54.1291 528.303ZM61.0835 557.222C61.0834 559.97 60.2304 562.651 58.642 564.895C57.0537 567.138 54.8083 568.833 52.2156 569.746C49.623 570.659 46.8109 570.745 44.1674 569.992C41.7683 569.309 39.6153 567.965 37.9503 566.121L37.0386 570.5H25L34.3747 525.5L47.8057 525.5C47.8058 525.5 47.8057 525.5 47.8057 525.5C50.2359 525.5 52.603 526.273 54.5635 527.709C56.5241 529.145 57.9762 531.168 58.7091 533.485C59.442 535.802 59.4176 538.293 58.6395 540.595C57.9215 542.719 56.596 544.582 54.8333 545.955C56.6632 547.096 58.1901 548.667 59.2786 550.535C60.4613 552.565 61.0841 554.872 61.0835 557.222Z" fill="black"/>
<path fill-rule="evenodd" clip-rule="evenodd" d="M37.1073 536.934C37.1056 538.651 37.5178 540.343 38.309 541.867C39.1003 543.39 40.2472 544.701 41.6525 545.687L42.1288 546.021L41.6225 546.308C39.6914 547.402 38.0851 548.988 36.9678 550.905C35.8504 552.823 35.262 555.002 35.2626 557.222L34.5273 557.222C34.5267 554.872 35.1496 552.565 36.3325 550.535C37.4211 548.667 38.948 547.096 40.778 545.955C39.4812 544.946 38.4157 543.668 37.6565 542.206C36.8108 540.577 36.3702 538.769 36.372 536.934L37.1073 536.934Z" fill="black"/>
<path d="M209.668 347.42H219.343C222.763 347.42 225.403 348.26 227.263 349.94C229.153 351.62 230.098 353.96 230.098 356.96C230.098 359.96 229.153 362.3 227.263 363.98C225.403 365.66 222.763 366.5 219.343 366.5H205.618V334.37H227.623V338.06H209.668V347.42ZM209.668 362.9H218.668C221.278 362.9 223.153 362.39 224.293 361.37C225.463 360.35 226.048 358.865 226.048 356.915C226.048 352.955 223.588 350.975 218.668 350.975H209.668V362.9ZM234.253 359.93H237.988C238.618 362.48 240.643 363.755 244.063 363.755C246.133 363.755 247.768 363.095 248.968 361.775C250.198 360.455 250.873 358.73 250.993 356.6H240.778V353.36H250.948C250.768 351.29 250.093 349.64 248.923 348.41C247.783 347.18 246.163 346.565 244.063 346.565C240.823 346.565 238.858 347.75 238.168 350.12H234.433C234.883 348.02 235.948 346.355 237.628 345.125C239.308 343.865 241.438 343.235 244.018 343.235C247.378 343.235 250.033 344.345 251.983 346.565C253.933 348.755 254.908 351.62 254.908 355.16C254.908 358.73 253.933 361.61 251.983 363.8C250.033 365.99 247.363 367.085 243.973 367.085C241.423 367.085 239.263 366.425 237.493 365.105C235.753 363.785 234.673 362.06 234.253 359.93ZM265.508 366.5H260.108V343.82H263.843V361.37H264.833L274.778 343.82H280.358V366.5H276.623V348.95H275.633L265.508 366.5ZM274.058 333.92H277.163C277.103 336.02 276.458 337.64 275.228 338.78C273.998 339.92 272.303 340.49 270.143 340.49C268.013 340.49 266.333 339.92 265.103 338.78C263.873 337.64 263.228 336.02 263.168 333.92H266.273C266.333 336.47 267.623 337.745 270.143 337.745C272.603 337.745 273.908 336.47 274.058 333.92ZM284.645 347.15V343.82H304.175V347.15H296.345V366.5H292.52V347.15H284.645ZM338.439 366.5H334.614V347.15H322.239V366.5H318.414V343.82H338.439V366.5ZM346.646 346.61C348.656 344.36 351.386 343.235 354.836 343.235C358.286 343.235 361.001 344.36 362.981 346.61C364.991 348.86 365.996 351.71 365.996 355.16C365.996 358.61 364.991 361.46 362.981 363.71C361.001 365.96 358.286 367.085 354.836 367.085C351.386 367.085 348.656 365.96 346.646 363.71C344.666 361.46 343.676 358.61 343.676 355.16C343.676 351.71 344.666 348.86 346.646 346.61ZM349.391 361.28C350.651 362.93 352.466 363.755 354.836 363.755C357.206 363.755 359.021 362.93 360.281 361.28C361.541 359.6 362.171 357.56 362.171 355.16C362.171 352.76 361.541 350.735 360.281 349.085C359.021 347.405 357.206 346.565 354.836 346.565C352.466 346.565 350.651 347.405 349.391 349.085C348.131 350.735 347.501 352.76 347.501 355.16C347.501 357.56 348.131 359.6 349.391 361.28ZM371.2 366.5V343.82H377.275L382.855 354.17H383.845L389.425 343.82H395.41V366.5H391.675V348.275H390.685L385.42 357.995H381.19L375.925 348.275H374.935V366.5H371.2ZM403.607 346.61C405.617 344.36 408.347 343.235 411.797 343.235C415.247 343.235 417.962 344.36 419.942 346.61C421.952 348.86 422.957 351.71 422.957 355.16C422.957 358.61 421.952 361.46 419.942 363.71C417.962 365.96 415.247 367.085 411.797 367.085C408.347 367.085 405.617 365.96 403.607 363.71C401.627 361.46 400.637 358.61 400.637 355.16C400.637 351.71 401.627 348.86 403.607 346.61ZM406.352 361.28C407.612 362.93 409.427 363.755 411.797 363.755C414.167 363.755 415.982 362.93 417.242 361.28C418.502 359.6 419.132 357.56 419.132 355.16C419.132 352.76 418.502 350.735 417.242 349.085C415.982 347.405 414.167 346.565 411.797 346.565C409.427 346.565 407.612 347.405 406.352 349.085C405.092 350.735 404.462 352.76 404.462 355.16C404.462 357.56 405.092 359.6 406.352 361.28ZM434.597 356.555L430.232 366.5H426.227L431.357 354.845L426.542 343.82H430.502L434.597 353.225H440.402V343.82H444.092V353.225H449.897L453.992 343.82H457.952L453.137 354.845L458.312 366.5H454.262L449.897 356.555H444.092V366.5H440.402V356.555H434.597ZM481.954 353.81V355.115H464.674C464.734 357.845 465.379 359.975 466.609 361.505C467.839 363.005 469.609 363.755 471.919 363.755C475.039 363.755 476.959 362.585 477.679 360.245H481.549C481.159 362.285 480.124 363.935 478.444 365.195C476.794 366.455 474.619 367.085 471.919 367.085C468.469 367.085 465.769 365.96 463.819 363.71C461.869 361.46 460.894 358.535 460.894 354.935C460.894 351.395 461.869 348.56 463.819 346.43C465.769 344.3 468.439 343.235 471.829 343.235C475.039 343.235 477.514 344.255 479.254 346.295C480.994 348.305 481.894 350.81 481.954 353.81ZM471.739 346.565C469.789 346.565 468.229 347.075 467.059 348.095C465.889 349.085 465.169 350.36 464.899 351.92H477.994C477.874 350.39 477.259 349.115 476.149 348.095C475.039 347.075 473.569 346.565 471.739 346.565ZM484.057 347.15V343.82H503.587V347.15H495.757V366.5H491.932V347.15H484.057ZM538.031 366.5H534.206V356.51H521.651V366.5H517.826V343.82H521.651V353.18H534.206V343.82H538.031V366.5ZM559.104 366.5V364.115H558.114C556.554 366.095 554.199 367.085 551.049 367.085C548.559 367.085 546.579 366.365 545.109 364.925C543.639 363.485 542.904 361.745 542.904 359.705C542.904 357.635 543.624 355.865 545.064 354.395C546.504 352.925 548.679 352.19 551.589 352.19H558.969V351.29C558.969 349.85 558.519 348.71 557.619 347.87C556.719 347 555.324 346.565 553.434 346.565C550.134 346.565 548.379 347.66 548.169 349.85H544.344C544.494 347.78 545.379 346.16 546.999 344.99C548.649 343.82 550.764 343.235 553.344 343.235C556.254 343.235 558.534 343.91 560.184 345.26C561.864 346.61 562.704 348.545 562.704 351.065V366.5H559.104ZM551.994 363.755C553.884 363.755 555.519 363.14 556.899 361.91C558.279 360.65 558.969 359.12 558.969 357.32V355.25H552.174C548.544 355.25 546.729 356.69 546.729 359.57C546.729 360.86 547.179 361.88 548.079 362.63C549.009 363.38 550.314 363.755 551.994 363.755ZM574.343 366.5H568.943V343.82H572.678V361.37H573.668L583.613 343.82H589.193V366.5H585.458V348.95H584.468L574.343 366.5ZM582.893 333.92H585.998C585.938 336.02 585.293 337.64 584.063 338.78C582.833 339.92 581.138 340.49 578.978 340.49C576.848 340.49 575.168 339.92 573.938 338.78C572.708 337.64 572.063 336.02 572.003 333.92H575.108C575.168 336.47 576.458 337.745 578.978 337.745C581.438 337.745 582.743 336.47 582.893 333.92ZM593.479 347.15V343.82H613.009V347.15H605.179V366.5H601.354V347.15H593.479ZM622.691 366.5H617.291V343.82H621.026V361.37H622.016L631.961 343.82H637.541V366.5H633.806V348.95H632.816L622.691 366.5ZM306.916 394.355C306.916 391.61 304.441 390.26 300.886 390.26C298.591 390.26 296.476 390.98 294.586 392.465C292.741 393.905 291.301 395.66 290.356 397.775C289.411 399.845 288.961 401.96 288.961 404.075C288.961 408.8 291.256 412.13 296.116 412.13C298.951 412.13 301.246 411.455 302.911 410.105C304.576 408.755 305.431 407.09 305.431 405.065C305.431 402.725 304.081 400.565 300.706 400.34C302.776 399.8 304.306 398.945 305.341 397.73C306.376 396.515 306.916 395.39 306.916 394.355ZM301.516 404.84C301.516 406.595 301.021 408.035 299.986 409.16C298.996 410.285 297.916 410.825 296.701 410.825C294.316 410.825 293.101 408.98 293.101 405.245C293.101 404.12 293.191 403.04 293.326 402.005C295.036 401.33 296.701 401.015 298.366 401.015C300.301 401.015 301.516 402.68 301.516 404.84ZM300.436 391.52C302.056 391.52 303.271 392.555 303.271 394.355C303.271 396.29 301.696 398.63 298.771 399.755C296.791 399.935 295.036 400.295 293.506 400.79C293.911 398.225 294.766 396.065 296.071 394.265C297.376 392.42 298.816 391.52 300.436 391.52ZM323.432 409.34C323.432 411.14 324.152 412.13 326.177 412.13C328.607 412.13 330.947 409.745 333.242 405.02L332.252 404.435C330.542 408.215 329.102 410.105 327.932 410.105C327.347 410.105 327.032 409.745 327.032 409.025C327.032 408.26 327.257 407.045 327.752 405.38L331.757 390.89H327.392L325.412 398.45C324.737 401.015 323.522 403.535 321.722 406.1C319.967 408.665 318.347 409.925 316.952 409.925C315.737 409.925 315.152 409.16 315.152 407.585C315.152 406.685 315.377 405.38 315.827 403.715L317.132 398.81C317.897 395.975 318.257 394.13 318.257 393.275C318.257 391.25 317.177 390.26 315.062 390.26C312.587 390.26 310.247 392.645 307.997 397.415L308.987 398C310.697 394.22 312.092 392.33 313.217 392.33C313.802 392.33 314.117 392.69 314.117 393.41C314.072 394.535 313.802 395.84 313.397 397.325L311.417 404.21C311.012 405.605 310.787 406.955 310.787 408.17C310.787 410.825 312.182 412.13 314.927 412.13C316.727 412.13 318.482 411.275 320.192 409.565C321.947 407.81 323.432 405.605 324.647 402.905C323.837 405.695 323.432 407.855 323.432 409.34ZM369.784 404.39C368.299 407.63 366.544 410.06 365.509 410.06C364.924 410.06 364.609 409.7 364.609 408.98C364.609 408.035 364.834 406.775 365.329 405.11L367.309 398.18C367.759 396.65 367.984 395.3 367.984 394.13C367.984 391.565 366.679 390.26 364.024 390.26C362.359 390.26 360.559 391.16 358.714 392.915C356.869 394.67 355.339 396.875 354.124 399.53C354.799 397.055 355.114 395.21 355.114 393.995C355.114 391.52 353.989 390.26 351.694 390.26C349.984 390.26 348.184 391.115 346.339 392.825C344.494 394.535 342.964 396.785 341.749 399.53C342.559 396.425 342.964 394.265 342.964 393.095C342.964 391.25 342.289 390.26 340.264 390.26C337.564 390.26 335.359 392.915 333.199 397.415L334.189 398C335.584 394.76 337.339 392.33 338.464 392.33C339.049 392.33 339.364 392.69 339.364 393.41C339.364 393.995 339.139 395.21 338.644 397.055L334.774 411.5H339.004L341.164 403.49C341.839 401.105 343.054 398.675 344.809 396.2C346.564 393.725 348.094 392.51 349.309 392.51C350.749 392.51 351.244 393.14 351.244 394.76C351.244 395.66 351.019 396.965 350.569 398.72L347.059 411.5H351.289L353.494 403.49C354.124 401.195 355.339 398.81 357.094 396.29C358.894 393.77 360.424 392.51 361.639 392.51C363.124 392.51 363.619 393.14 363.619 394.76C363.619 395.615 363.394 396.965 362.899 398.72L361.594 403.625C360.874 406.19 360.514 408.035 360.514 409.16C360.514 411.14 361.549 412.13 363.664 412.13C366.364 412.13 368.569 409.475 370.729 404.975L369.784 404.39ZM393.616 404.39C392.941 405.965 392.176 407.315 391.366 408.44C390.601 409.52 389.971 410.06 389.476 410.06C388.801 410.06 388.486 409.7 388.486 408.935C388.486 407.99 388.846 406.325 389.521 403.85L393.076 390.89H388.846L387.586 395.66C387.271 392.24 385.426 390.26 382.681 390.26C376.921 390.08 371.431 398.18 371.611 405.2C371.611 409.475 373.636 412.13 377.236 412.13C380.431 412.13 383.536 409.745 385.291 405.65C384.976 406.955 384.796 407.9 384.796 408.53C384.796 410.915 385.696 412.13 387.451 412.13C389.926 412.13 392.311 409.745 394.606 404.975L393.616 404.39ZM378.811 410.465C376.876 410.465 375.706 408.935 375.706 405.875C375.706 404.12 376.021 402.14 376.696 400.025C377.371 397.91 378.316 396.02 379.531 394.4C380.791 392.735 382.141 391.925 383.536 391.925C385.291 391.925 386.641 393.455 386.641 396.74C386.641 398.495 386.326 400.43 385.651 402.545C384.976 404.66 384.031 406.505 382.771 408.08C381.556 409.655 380.206 410.465 378.811 410.465ZM396.225 411.095C395.505 411.095 395.145 410.87 395.145 410.375C396.36 410.375 396.99 409.52 396.99 408.44C396.99 407.405 396.27 406.595 395.415 406.595C394.2 406.595 393.3 407.81 393.3 409.205C393.3 410.825 394.605 412.085 396.18 412.085C397.665 412.085 398.835 411.095 399.825 409.7C400.5 408.8 401.22 406.955 401.625 405.74C401.85 405.11 402.165 404.255 402.48 403.175L403.29 400.43C403.515 399.665 403.785 398.63 404.1 397.325L405 394.13C405.81 396.605 406.305 402.5 406.44 411.815H407.61L418.905 393.275L415.89 404.48C415.305 406.595 414.99 408.17 414.99 409.205C414.99 410.96 416.025 412.13 418.14 412.13C420.705 412.13 423.135 409.745 425.385 405.02L424.44 404.435C422.955 407.72 421.29 410.105 420.165 410.105C419.535 410.105 419.22 409.7 419.22 408.935C419.22 408.35 419.445 407.135 419.94 405.29L423.855 390.89H418.905L410.22 405.65C409.95 395.39 408.24 390.26 405.045 390.26C402.39 390.26 399.87 392.69 397.53 397.505L398.565 397.955C400.05 394.4 401.85 392.465 403.245 392.465C403.515 392.465 403.785 392.555 404.01 392.735C402.12 400.07 400.68 404.93 399.735 407.405C398.79 409.88 397.62 411.095 396.225 411.095ZM441.222 409.34C441.222 411.14 441.942 412.13 443.967 412.13C446.397 412.13 448.737 409.745 451.032 405.02L450.042 404.435C448.332 408.215 446.892 410.105 445.722 410.105C445.137 410.105 444.822 409.745 444.822 409.025C444.822 408.26 445.047 407.045 445.542 405.38L449.547 390.89H445.182L443.202 398.45C442.527 401.015 441.312 403.535 439.512 406.1C437.757 408.665 436.137 409.925 434.742 409.925C433.527 409.925 432.942 409.16 432.942 407.585C432.942 406.685 433.167 405.38 433.617 403.715L434.922 398.81C435.687 395.975 436.047 394.13 436.047 393.275C436.047 391.25 434.967 390.26 432.852 390.26C430.377 390.26 428.037 392.645 425.787 397.415L426.777 398C428.487 394.22 429.882 392.33 431.007 392.33C431.592 392.33 431.907 392.69 431.907 393.41C431.862 394.535 431.592 395.84 431.187 397.325L429.207 404.21C428.802 405.605 428.577 406.955 428.577 408.17C428.577 410.825 429.972 412.13 432.717 412.13C434.517 412.13 436.272 411.275 437.982 409.565C439.737 407.81 441.222 405.605 442.437 402.905C441.627 405.695 441.222 407.855 441.222 409.34ZM475.648 404.39C473.893 408.17 472.498 410.06 471.373 410.06C470.743 410.06 470.428 409.7 470.428 408.935C470.428 408.17 470.698 406.91 471.193 405.2L475.198 390.89H470.878L468.448 399.845H460.123L460.573 398.315C461.158 396.2 461.473 394.445 461.473 393.14C461.473 391.385 460.393 390.26 458.278 390.26C455.803 390.26 453.418 392.645 451.213 397.415L452.158 398C453.913 394.22 455.353 392.33 456.478 392.33C457.108 392.33 457.423 392.69 457.423 393.41C457.513 394.175 456.838 396.38 456.703 397.055L452.698 411.5H457.018L459.718 401.42H467.998L467.413 403.625C466.693 406.28 466.333 408.125 466.333 409.16C466.333 411.14 467.413 412.13 469.573 412.13C471.958 412.13 474.298 409.745 476.593 404.975L475.648 404.39ZM501.426 404.39C499.671 408.17 498.276 410.06 497.151 410.06C496.521 410.06 496.206 409.7 496.206 408.935C496.206 408.17 496.476 406.91 496.971 405.2L500.976 390.89H496.656L494.226 399.845H485.901L486.351 398.315C486.936 396.2 487.251 394.445 487.251 393.14C487.251 391.385 486.171 390.26 484.056 390.26C481.581 390.26 479.196 392.645 476.991 397.415L477.936 398C479.691 394.22 481.131 392.33 482.256 392.33C482.886 392.33 483.201 392.69 483.201 393.41C483.291 394.175 482.616 396.38 482.481 397.055L478.476 411.5H482.796L485.496 401.42H493.776L493.191 403.625C492.471 406.28 492.111 408.125 492.111 409.16C492.111 411.14 493.191 412.13 495.351 412.13C497.736 412.13 500.076 409.745 502.371 404.975L501.426 404.39ZM523.379 392.915C523.379 391.655 522.614 390.35 521.489 390.35C520.544 390.35 519.779 391.16 519.779 392.24C519.779 393.185 520.409 394.13 521.624 395.075C521.219 398.18 519.599 402.5 516.719 407.945C515.594 401.465 514.559 396.92 513.569 394.265C512.624 391.61 511.184 390.26 509.294 390.26C506.594 390.26 504.974 392.87 503.354 397.505L504.344 397.955C505.739 394.4 506.594 392.87 507.629 392.87C508.574 392.87 509.429 394.265 510.239 397.01C511.049 399.755 512.174 404.75 513.569 412.04C510.734 416.495 507.674 419.24 505.469 419.24C504.569 419.24 504.029 419.105 503.804 418.79C504.884 418.79 505.919 417.98 505.919 416.72C505.919 415.595 505.064 414.515 503.939 414.515C502.859 414.515 501.599 415.325 501.599 417.26C501.599 418.925 502.859 420.455 505.379 420.455C508.394 420.455 512.309 416.9 515.864 411.5C518.204 407.945 520.049 404.48 521.354 401.195C522.704 397.91 523.379 395.12 523.379 392.915ZM554.274 398.63C554.274 393.725 551.574 390.26 546.849 390.26C544.149 390.26 541.809 391.16 539.784 392.96C537.804 394.76 536.454 397.1 535.734 399.98H532.404L533.439 396.155C533.754 395.03 533.889 393.95 533.889 392.96C533.889 391.385 532.719 390.26 530.694 390.26C529.299 390.26 527.904 390.98 526.509 392.465C525.159 393.905 524.169 395.57 523.494 397.415L524.439 398C525.924 394.715 527.724 392.33 528.849 392.33C529.434 392.33 529.704 392.69 529.704 393.455C529.704 393.86 529.524 394.76 529.209 396.065L524.979 411.5H529.299L531.999 401.51H535.464C535.329 402.14 535.284 402.95 535.284 403.895C535.284 408.8 537.939 412.13 542.619 412.13C545.904 412.13 548.694 410.78 550.899 408.035C553.149 405.29 554.274 402.14 554.274 398.63ZM550.089 397.28C550.089 401.87 547.839 410.87 542.844 410.87C540.864 410.87 539.334 408.845 539.334 405.245C539.334 402.95 539.874 399.89 540.954 396.875C542.034 393.86 544.149 391.565 546.624 391.565C548.919 391.565 550.089 393.455 550.089 397.28ZM287.899 449.39C287.224 450.965 286.459 452.315 285.649 453.44C284.884 454.52 284.254 455.06 283.759 455.06C283.084 455.06 282.769 454.7 282.769 453.935C282.769 452.99 283.129 451.325 283.804 448.85L287.359 435.89H283.129L281.869 440.66C281.554 437.24 279.709 435.26 276.964 435.26C271.204 435.08 265.714 443.18 265.894 450.2C265.894 454.475 267.919 457.13 271.519 457.13C274.714 457.13 277.819 454.745 279.574 450.65C279.259 451.955 279.079 452.9 279.079 453.53C279.079 455.915 279.979 457.13 281.734 457.13C284.209 457.13 286.594 454.745 288.889 449.975L287.899 449.39ZM273.094 455.465C271.159 455.465 269.989 453.935 269.989 450.875C269.989 449.12 270.304 447.14 270.979 445.025C271.654 442.91 272.599 441.02 273.814 439.4C275.074 437.735 276.424 436.925 277.819 436.925C279.574 436.925 280.924 438.455 280.924 441.74C280.924 443.495 280.609 445.43 279.934 447.545C279.259 449.66 278.314 451.505 277.054 453.08C275.839 454.655 274.489 455.465 273.094 455.465ZM290.462 456.995C291.722 456.995 292.757 456.455 293.657 455.06C294.557 453.665 295.187 452.495 295.952 450.02C296.357 448.805 296.672 447.725 296.897 446.78L297.932 442.955L299.057 438.995C299.417 437.69 299.912 437.15 301.037 437.15H302.792C304.232 437.15 304.952 437.96 304.952 439.58C304.952 440.12 304.817 440.84 304.592 441.695L302.162 450.38C301.757 451.775 301.532 453.17 301.532 454.475C301.532 456.05 302.747 457.13 304.772 457.13C307.337 457.13 309.722 454.745 312.017 450.02L311.027 449.435C309.272 453.215 307.877 455.105 306.752 455.105C306.167 455.105 305.852 454.7 305.852 453.89C305.852 453.125 306.122 451.865 306.617 450.065L308.822 442.19C309.092 441.245 309.227 440.3 309.227 439.4C309.227 437.06 307.877 435.89 305.222 435.89H295.367L295.007 437.15H296.807C297.572 437.15 297.977 437.42 297.977 438.005C297.977 438.05 297.932 438.41 297.797 438.995C296.087 445.7 294.737 450.2 293.747 452.54C292.802 454.835 291.677 456.005 290.372 456.005C289.742 456.005 289.427 455.78 289.427 455.285C290.642 455.285 291.272 454.43 291.272 453.35C291.272 452.315 290.552 451.505 289.697 451.505C288.482 451.505 287.582 452.72 287.582 454.115C287.582 455.735 288.887 456.995 290.462 456.995ZM331.188 447.995C331.188 446.51 330.783 445.16 330.018 444.035C329.253 442.865 327.903 442.28 325.968 442.28C324.123 442.28 322.503 443.09 321.108 444.71L321.828 442.415C322.413 440.39 322.728 439.04 322.728 438.275C322.728 436.43 321.603 435.305 319.488 435.305C316.923 435.305 314.493 437.69 312.243 442.415L313.188 443C314.673 439.76 316.563 437.33 317.688 437.33C318.273 437.33 318.588 437.69 318.588 438.455C318.588 439.04 318.318 440.255 317.733 442.01L315.798 448.355C315.483 449.39 315.348 450.335 315.348 451.19C315.348 454.745 317.733 457.13 321.828 457.13C324.618 457.13 326.868 456.185 328.578 454.25C330.333 452.315 331.188 450.2 331.188 447.995ZM327.318 447.995C327.318 449.975 326.823 451.82 325.833 453.485C324.843 455.15 323.718 456.005 322.458 456.005C320.433 456.005 319.398 454.655 319.398 451.955C319.398 449.75 319.938 447.86 321.018 446.285C322.143 444.71 323.223 443.9 324.348 443.9C326.328 443.9 327.318 445.25 327.318 447.995ZM368.628 449.39C367.143 452.63 365.388 455.06 364.353 455.06C363.768 455.06 363.453 454.7 363.453 453.98C363.453 453.035 363.678 451.775 364.173 450.11L366.153 443.18C366.603 441.65 366.828 440.3 366.828 439.13C366.828 436.565 365.523 435.26 362.868 435.26C361.203 435.26 359.403 436.16 357.558 437.915C355.713 439.67 354.183 441.875 352.968 444.53C353.643 442.055 353.958 440.21 353.958 438.995C353.958 436.52 352.833 435.26 350.538 435.26C348.828 435.26 347.028 436.115 345.183 437.825C343.338 439.535 341.808 441.785 340.593 444.53C341.403 441.425 341.808 439.265 341.808 438.095C341.808 436.25 341.133 435.26 339.108 435.26C336.408 435.26 334.203 437.915 332.043 442.415L333.033 443C334.428 439.76 336.183 437.33 337.308 437.33C337.893 437.33 338.208 437.69 338.208 438.41C338.208 438.995 337.983 440.21 337.488 442.055L333.618 456.5H337.848L340.008 448.49C340.683 446.105 341.898 443.675 343.653 441.2C345.408 438.725 346.938 437.51 348.153 437.51C349.593 437.51 350.088 438.14 350.088 439.76C350.088 440.66 349.863 441.965 349.413 443.72L345.903 456.5H350.133L352.338 448.49C352.968 446.195 354.183 443.81 355.938 441.29C357.738 438.77 359.268 437.51 360.483 437.51C361.968 437.51 362.463 438.14 362.463 439.76C362.463 440.615 362.238 441.965 361.743 443.72L360.438 448.625C359.718 451.19 359.358 453.035 359.358 454.16C359.358 456.14 360.393 457.13 362.508 457.13C365.208 457.13 367.413 454.475 369.573 449.975L368.628 449.39ZM388.231 439.67C388.231 436.745 386.296 435.26 382.381 435.26C380.086 435.26 378.016 435.98 376.126 437.465C374.281 438.905 372.841 440.66 371.896 442.775C370.951 444.845 370.501 446.915 370.501 449.03C370.501 453.71 373.066 457.13 377.701 457.13C379.366 457.13 381.031 456.545 382.696 455.375C384.406 454.16 385.801 452.54 386.836 450.47L385.936 449.885C384.001 453.44 381.301 455.33 378.781 455.33C376.126 455.33 374.686 453.44 374.641 449.975C374.641 449.48 374.686 448.94 374.776 448.4C379.051 447.725 382.336 446.555 384.676 444.8C387.061 443.045 388.231 441.335 388.231 439.67ZM384.631 439.49C384.631 441.065 383.911 442.55 382.516 444.035C381.121 445.475 378.601 446.51 374.956 447.14C375.271 444.575 376.081 442.145 377.386 439.94C378.691 437.69 380.221 436.565 381.976 436.565C383.731 436.565 384.631 437.555 384.631 439.49ZM412.094 442.145C412.094 438.05 410.159 435.26 406.694 435.26C403.454 435.26 400.304 437.825 398.189 442.145C398.594 440.3 398.819 438.95 398.819 438.14C398.819 436.205 397.874 435.26 396.029 435.26C393.554 435.26 391.169 437.645 388.964 442.415L389.909 443C391.664 439.22 393.104 437.33 394.274 437.33C395.399 437.33 395.354 438.5 394.409 442.055L389.054 461.9C388.694 463.295 388.244 463.7 387.119 463.7H385.499L385.184 464.96H396.479L396.794 463.7H394.274C393.509 463.7 393.104 463.43 393.104 462.89C393.104 462.575 393.149 462.26 393.284 461.9L396.119 451.235C396.164 454.79 398.144 457.13 401.204 457.13C403.184 457.13 405.029 456.365 406.739 454.835C408.449 453.26 409.754 451.37 410.699 449.075C411.644 446.78 412.094 444.44 412.094 442.145ZM407.999 441.47C407.999 443.27 407.684 445.25 407.054 447.41C406.424 449.525 405.479 451.415 404.264 453.08C403.049 454.7 401.699 455.51 400.304 455.51C398.099 455.51 396.974 453.305 396.974 449.93C396.974 447.365 397.829 444.575 399.539 441.56C401.249 438.5 403.049 436.97 404.894 436.97C406.829 436.97 407.999 438.545 407.999 441.47ZM437.553 449.39C435.798 453.17 434.403 455.06 433.278 455.06C432.648 455.06 432.333 454.7 432.333 453.935C432.333 453.17 432.603 451.91 433.098 450.2L437.103 435.89H432.783L430.353 444.845H422.028L422.478 443.315C423.063 441.2 423.378 439.445 423.378 438.14C423.378 436.385 422.298 435.26 420.183 435.26C417.708 435.26 415.323 437.645 413.118 442.415L414.063 443C415.818 439.22 417.258 437.33 418.383 437.33C419.013 437.33 419.328 437.69 419.328 438.41C419.418 439.175 418.743 441.38 418.608 442.055L414.603 456.5H418.923L421.623 446.42H429.903L429.318 448.625C428.598 451.28 428.238 453.125 428.238 454.16C428.238 456.14 429.318 457.13 431.478 457.13C433.863 457.13 436.203 454.745 438.498 449.975L437.553 449.39ZM461.621 449.39C460.946 450.965 460.181 452.315 459.371 453.44C458.606 454.52 457.976 455.06 457.481 455.06C456.806 455.06 456.491 454.7 456.491 453.935C456.491 452.99 456.851 451.325 457.526 448.85L461.081 435.89H456.851L455.591 440.66C455.276 437.24 453.431 435.26 450.686 435.26C444.926 435.08 439.436 443.18 439.616 450.2C439.616 454.475 441.641 457.13 445.241 457.13C448.436 457.13 451.541 454.745 453.296 450.65C452.981 451.955 452.801 452.9 452.801 453.53C452.801 455.915 453.701 457.13 455.456 457.13C457.931 457.13 460.316 454.745 462.611 449.975L461.621 449.39ZM446.816 455.465C444.881 455.465 443.711 453.935 443.711 450.875C443.711 449.12 444.026 447.14 444.701 445.025C445.376 442.91 446.321 441.02 447.536 439.4C448.796 437.735 450.146 436.925 451.541 436.925C453.296 436.925 454.646 438.455 454.646 441.74C454.646 443.495 454.331 445.43 453.656 447.545C452.981 449.66 452.036 451.505 450.776 453.08C449.561 454.655 448.211 455.465 446.816 455.465ZM499.364 449.39C497.879 452.63 496.124 455.06 495.089 455.06C494.504 455.06 494.189 454.7 494.189 453.98C494.189 453.035 494.414 451.775 494.909 450.11L496.889 443.18C497.339 441.65 497.564 440.3 497.564 439.13C497.564 436.565 496.259 435.26 493.604 435.26C491.939 435.26 490.139 436.16 488.294 437.915C486.449 439.67 484.919 441.875 483.704 444.53C484.379 442.055 484.694 440.21 484.694 438.995C484.694 436.52 483.569 435.26 481.274 435.26C479.564 435.26 477.764 436.115 475.919 437.825C474.074 439.535 472.544 441.785 471.329 444.53C472.139 441.425 472.544 439.265 472.544 438.095C472.544 436.25 471.869 435.26 469.844 435.26C467.144 435.26 464.939 437.915 462.779 442.415L463.769 443C465.164 439.76 466.919 437.33 468.044 437.33C468.629 437.33 468.944 437.69 468.944 438.41C468.944 438.995 468.719 440.21 468.224 442.055L464.354 456.5H468.584L470.744 448.49C471.419 446.105 472.634 443.675 474.389 441.2C476.144 438.725 477.674 437.51 478.889 437.51C480.329 437.51 480.824 438.14 480.824 439.76C480.824 440.66 480.599 441.965 480.149 443.72L476.639 456.5H480.869L483.074 448.49C483.704 446.195 484.919 443.81 486.674 441.29C488.474 438.77 490.004 437.51 491.219 437.51C492.704 437.51 493.199 438.14 493.199 439.76C493.199 440.615 492.974 441.965 492.479 443.72L491.174 448.625C490.454 451.19 490.094 453.035 490.094 454.16C490.094 456.14 491.129 457.13 493.244 457.13C495.944 457.13 498.149 454.475 500.309 449.975L499.364 449.39ZM515.906 454.34C515.906 456.14 516.626 457.13 518.651 457.13C521.081 457.13 523.421 454.745 525.716 450.02L524.726 449.435C523.016 453.215 521.576 455.105 520.406 455.105C519.821 455.105 519.506 454.745 519.506 454.025C519.506 453.26 519.731 452.045 520.226 450.38L524.231 435.89H519.866L517.886 443.45C517.211 446.015 515.996 448.535 514.196 451.1C512.441 453.665 510.821 454.925 509.426 454.925C508.211 454.925 507.626 454.16 507.626 452.585C507.626 451.685 507.851 450.38 508.301 448.715L509.606 443.81C510.371 440.975 510.731 439.13 510.731 438.275C510.731 436.25 509.651 435.26 507.536 435.26C505.061 435.26 502.721 437.645 500.471 442.415L501.461 443C503.171 439.22 504.566 437.33 505.691 437.33C506.276 437.33 506.591 437.69 506.591 438.41C506.546 439.535 506.276 440.84 505.871 442.325L503.891 449.21C503.486 450.605 503.261 451.955 503.261 453.17C503.261 455.825 504.656 457.13 507.401 457.13C509.201 457.13 510.956 456.275 512.666 454.565C514.421 452.81 515.906 450.605 517.121 447.905C516.311 450.695 515.906 452.855 515.906 454.34ZM544.618 439.355C544.618 436.61 542.143 435.26 538.588 435.26C536.293 435.26 534.178 435.98 532.288 437.465C530.443 438.905 529.003 440.66 528.058 442.775C527.113 444.845 526.663 446.96 526.663 449.075C526.663 453.8 528.958 457.13 533.818 457.13C536.653 457.13 538.948 456.455 540.613 455.105C542.278 453.755 543.133 452.09 543.133 450.065C543.133 447.725 541.783 445.565 538.408 445.34C540.478 444.8 542.008 443.945 543.043 442.73C544.078 441.515 544.618 440.39 544.618 439.355ZM539.218 449.84C539.218 451.595 538.723 453.035 537.688 454.16C536.698 455.285 535.618 455.825 534.403 455.825C532.018 455.825 530.803 453.98 530.803 450.245C530.803 449.12 530.893 448.04 531.028 447.005C532.738 446.33 534.403 446.015 536.068 446.015C538.003 446.015 539.218 447.68 539.218 449.84ZM538.138 436.52C539.758 436.52 540.973 437.555 540.973 439.355C540.973 441.29 539.398 443.63 536.473 444.755C534.493 444.935 532.738 445.295 531.208 445.79C531.613 443.225 532.468 441.065 533.773 439.265C535.078 437.42 536.518 436.52 538.138 436.52ZM565.87 437.915C565.87 436.655 565.105 435.35 563.98 435.35C563.035 435.35 562.27 436.16 562.27 437.24C562.27 438.185 562.9 439.13 564.115 440.075C563.71 443.18 562.09 447.5 559.21 452.945C558.085 446.465 557.05 441.92 556.06 439.265C555.115 436.61 553.675 435.26 551.785 435.26C549.085 435.26 547.465 437.87 545.845 442.505L546.835 442.955C548.23 439.4 549.085 437.87 550.12 437.87C551.065 437.87 551.92 439.265 552.73 442.01C553.54 444.755 554.665 449.75 556.06 457.04C553.225 461.495 550.165 464.24 547.96 464.24C547.06 464.24 546.52 464.105 546.295 463.79C547.375 463.79 548.41 462.98 548.41 461.72C548.41 460.595 547.555 459.515 546.43 459.515C545.35 459.515 544.09 460.325 544.09 462.26C544.09 463.925 545.35 465.455 547.87 465.455C550.885 465.455 554.8 461.9 558.355 456.5C560.695 452.945 562.54 449.48 563.845 446.195C565.195 442.91 565.87 440.12 565.87 437.915ZM571.789 447.185C572.374 444.845 573.364 442.235 574.759 439.4C576.154 436.52 577.369 433.91 578.404 431.615C579.439 429.275 579.934 427.25 579.934 425.495C579.934 424.235 578.944 423.56 577.909 423.56C575.704 423.56 574.219 425.72 573.364 429.455C572.959 431.3 572.644 433.145 572.419 435.035C572.194 436.925 571.879 439.04 571.564 441.425C571.249 443.81 570.934 445.7 570.574 447.185H571.789ZM571.654 454.34C571.654 452.9 570.574 451.73 569.269 451.73C567.874 451.73 566.839 452.99 566.839 454.43C566.839 455.825 567.874 456.905 569.179 456.905C570.574 456.905 571.654 455.735 571.654 454.34Z" fill="black"/>
</svg>
