<svg width="596" height="842" viewBox="0 0 596 842" fill="none" xmlns="http://www.w3.org/2000/svg">
<g clip-path="url(#clip0_1654_2793)">
<rect width="595" height="842" transform="translate(0.0664062)" fill="white"/>
<rect x="25.0664" y="25" width="46" height="792" fill="#8EA5EB" fill-opacity="0.2"/>
<rect x="96.0664" y="25" width="47" height="792" fill="#8EA5EB" fill-opacity="0.2"/>
<rect x="168.066" y="25" width="46" height="792" fill="#8EA5EB" fill-opacity="0.2"/>
<rect x="239.066" y="25" width="46" height="792" fill="#8EA5EB" fill-opacity="0.2"/>
<rect x="381.066" y="25" width="47" height="792" fill="#8EA5EB" fill-opacity="0.2"/>
<rect x="453.066" y="25" width="46" height="792" fill="#8EA5EB" fill-opacity="0.2"/>
<rect x="310.066" y="25" width="46" height="792" fill="#8EA5EB" fill-opacity="0.2"/>
<rect x="524.066" y="25" width="46" height="792" fill="#8EA5EB" fill-opacity="0.2"/>
<path d="M25.0664 58H570.066" stroke="#8EA5EB"/>
<path d="M25.0664 91H570.066" stroke="#8EA5EB"/>
<path d="M25.0664 124H570.066" stroke="#8EA5EB"/>
<path d="M25.0664 157H570.066" stroke="#8EA5EB"/>
<path d="M25.0664 190H570.066" stroke="#8EA5EB"/>
<path d="M25.0664 223H570.066" stroke="#8EA5EB"/>
<path d="M25.0664 256H570.066" stroke="#8EA5EB"/>
<path d="M25.0664 289H570.066" stroke="#8EA5EB"/>
<path d="M25.0664 322H570.066" stroke="#8EA5EB"/>
<path d="M25.0664 355H570.066" stroke="#8EA5EB"/>
<path d="M25.0664 388H570.066" stroke="#8EA5EB"/>
<path d="M25.0664 421H570.066" stroke="#8EA5EB"/>
<path d="M25.0664 454H570.066" stroke="#8EA5EB"/>
<path d="M25.0664 487H570.066" stroke="#8EA5EB"/>
<path d="M25.0664 520H570.066" stroke="#8EA5EB"/>
<path d="M25.0664 553H570.066" stroke="#8EA5EB"/>
<path d="M25.0664 586H570.066" stroke="#8EA5EB"/>
<path d="M25.0664 619H570.066" stroke="#8EA5EB"/>
<path d="M25.0664 652H570.066" stroke="#8EA5EB"/>
<path d="M25.0664 684.909H570.066" stroke="#8EA5EB"/>
<path d="M25.0664 718.341H570.066" stroke="#8EA5EB"/>
<path d="M25.0664 751H570.066" stroke="#8EA5EB"/>
<path d="M25.0664 784H570.066" stroke="#8EA5EB"/>
<path d="M75.5339 191V143.876H85.4339L97.3139 165.986H98.7659L110.448 143.876H120.414V191H114.606V150.608H113.154L101.076 172.982H94.8719L82.7939 150.608H81.3419V191H75.5339ZM159.572 172.388V174.302H134.228C134.316 178.306 135.262 181.43 137.066 183.674C138.87 185.874 141.466 186.974 144.854 186.974C149.43 186.974 152.246 185.258 153.302 181.826H158.978C158.406 184.818 156.888 187.238 154.424 189.086C152.004 190.934 148.814 191.858 144.854 191.858C139.794 191.858 135.834 190.208 132.974 186.908C130.114 183.608 128.684 179.318 128.684 174.038C128.684 168.846 130.114 164.688 132.974 161.564C135.834 158.44 139.75 156.878 144.722 156.878C149.43 156.878 153.06 158.374 155.612 161.366C158.164 164.314 159.484 167.988 159.572 172.388ZM144.59 161.762C141.73 161.762 139.442 162.51 137.726 164.006C136.01 165.458 134.954 167.328 134.558 169.616H153.764C153.588 167.372 152.686 165.502 151.058 164.006C149.43 162.51 147.274 161.762 144.59 161.762ZM196.818 186.116H202.956V200.438H197.478V191H168.702V200.438H163.224V186.116H167.646C170.374 180.308 171.738 173.884 171.738 166.844V157.736H196.818V186.116ZM191.208 186.116V162.62H176.952V166.844C176.952 174.368 175.742 180.792 173.322 186.116H191.208ZM217.037 191H209.117V157.736H214.595V183.476H216.047L230.633 157.736H238.817V191H233.339V165.26H231.887L217.037 191ZM269.722 191V187.502H268.27C265.982 190.406 262.528 191.858 257.908 191.858C254.256 191.858 251.352 190.802 249.196 188.69C247.04 186.578 245.962 184.026 245.962 181.034C245.962 177.998 247.018 175.402 249.13 173.246C251.242 171.09 254.432 170.012 258.7 170.012H269.524V168.692C269.524 166.58 268.864 164.908 267.544 163.676C266.224 162.4 264.178 161.762 261.406 161.762C256.566 161.762 253.992 163.368 253.684 166.58H248.074C248.294 163.544 249.592 161.168 251.968 159.452C254.388 157.736 257.49 156.878 261.274 156.878C265.542 156.878 268.886 157.868 271.306 159.848C273.77 161.828 275.002 164.666 275.002 168.362V191H269.722ZM259.294 186.974C262.066 186.974 264.464 186.072 266.488 184.268C268.512 182.42 269.524 180.176 269.524 177.536V174.5H259.558C254.234 174.5 251.572 176.612 251.572 180.836C251.572 182.728 252.232 184.224 253.552 185.324C254.916 186.424 256.83 186.974 259.294 186.974ZM299.992 175.16H281.974V170.21H299.992V175.16ZM330.995 180.968H336.605C335.945 184.312 334.383 186.974 331.919 188.954C329.499 190.89 326.397 191.858 322.613 191.858C317.597 191.858 313.637 190.23 310.733 186.974C307.873 183.674 306.443 179.472 306.443 174.368C306.443 169.22 307.873 165.018 310.733 161.762C313.593 158.506 317.553 156.878 322.613 156.878C326.441 156.878 329.543 157.846 331.919 159.782C334.339 161.674 335.835 164.204 336.407 167.372H330.797C329.609 163.632 326.881 161.762 322.613 161.762C319.049 161.762 316.387 162.95 314.627 165.326C312.911 167.658 312.053 170.628 312.053 174.236C312.053 177.888 312.933 180.924 314.693 183.344C316.453 185.764 319.093 186.974 322.613 186.974C327.277 186.974 330.071 184.972 330.995 180.968ZM372.69 172.388V174.302H347.346C347.434 178.306 348.38 181.43 350.184 183.674C351.988 185.874 354.584 186.974 357.972 186.974C362.548 186.974 365.364 185.258 366.42 181.826H372.096C371.524 184.818 370.006 187.238 367.542 189.086C365.122 190.934 361.932 191.858 357.972 191.858C352.912 191.858 348.952 190.208 346.092 186.908C343.232 183.608 341.802 179.318 341.802 174.038C341.802 168.846 343.232 164.688 346.092 161.564C348.952 158.44 352.868 156.878 357.84 156.878C362.548 156.878 366.178 158.374 368.73 161.366C371.282 164.314 372.602 167.988 372.69 172.388ZM357.708 161.762C354.848 161.762 352.56 162.51 350.844 164.006C349.128 165.458 348.072 167.328 347.676 169.616H366.882C366.706 167.372 365.804 165.502 364.176 164.006C362.548 162.51 360.392 161.762 357.708 161.762ZM396.274 161.762C392.798 161.762 390.18 162.972 388.42 165.392C386.704 167.812 385.846 170.804 385.846 174.368C385.846 177.932 386.704 180.924 388.42 183.344C390.18 185.764 392.798 186.974 396.274 186.974C399.53 186.974 402.038 185.83 403.798 183.542C405.602 181.21 406.504 178.152 406.504 174.368C406.504 170.584 405.602 167.548 403.798 165.26C402.038 162.928 399.53 161.762 396.274 161.762ZM380.302 157.736H385.714V161.3H387.166C389.542 158.352 392.996 156.878 397.528 156.878C402.016 156.878 405.558 158.528 408.154 161.828C410.794 165.128 412.114 169.308 412.114 174.368C412.114 179.516 410.794 183.718 408.154 186.974C405.558 190.23 402.016 191.858 397.528 191.858C392.952 191.858 389.564 190.384 387.364 187.436H385.912V204.2H380.302V157.736ZM443.215 172.652V174.104C444.843 174.5 446.141 175.38 447.109 176.744C448.121 178.108 448.627 179.824 448.627 181.892C448.627 187.964 444.711 191 436.879 191H419.785V157.736H436.285C439.629 157.736 442.203 158.484 444.007 159.98C445.855 161.432 446.779 163.478 446.779 166.118C446.779 167.658 446.427 169 445.723 170.144C445.063 171.288 444.227 172.124 443.215 172.652ZM425.329 186.248H436.549C440.861 186.248 443.017 184.598 443.017 181.298C443.017 177.954 440.861 176.282 436.549 176.282H425.329V186.248ZM425.329 162.488V171.53H435.757C437.649 171.53 439.013 171.112 439.849 170.276C440.729 169.44 441.169 168.362 441.169 167.042C441.169 164.006 439.365 162.488 435.757 162.488H425.329ZM464.159 191H456.239V157.736H461.717V183.476H463.169L477.755 157.736H485.939V191H480.461V165.26H479.009L464.159 191ZM518.164 180.968H523.774C523.114 184.312 521.552 186.974 519.088 188.954C516.668 190.89 513.566 191.858 509.782 191.858C504.766 191.858 500.806 190.23 497.902 186.974C495.042 183.674 493.612 179.472 493.612 174.368C493.612 169.22 495.042 165.018 497.902 161.762C500.762 158.506 504.722 156.878 509.782 156.878C513.61 156.878 516.712 157.846 519.088 159.782C521.508 161.674 523.004 164.204 523.576 167.372H517.966C516.778 163.632 514.05 161.762 509.782 161.762C506.218 161.762 503.556 162.95 501.796 165.326C500.08 167.658 499.222 170.628 499.222 174.236C499.222 177.888 500.102 180.924 501.862 183.344C503.622 185.764 506.262 186.974 509.782 186.974C514.446 186.974 517.24 184.972 518.164 180.968ZM125.551 231.854C125.551 227.828 121.921 225.848 116.707 225.848C113.341 225.848 110.239 226.904 107.467 229.082C104.761 231.194 102.649 233.768 101.263 236.87C99.8773 239.906 99.2173 243.008 99.2173 246.11C99.2173 253.04 102.583 257.924 109.711 257.924C113.869 257.924 117.235 256.934 119.677 254.954C122.119 252.974 123.373 250.532 123.373 247.562C123.373 244.13 121.393 240.962 116.443 240.632C119.479 239.84 121.723 238.586 123.241 236.804C124.759 235.022 125.551 233.372 125.551 231.854ZM117.631 247.232C117.631 249.806 116.905 251.918 115.387 253.568C113.935 255.218 112.351 256.01 110.569 256.01C107.071 256.01 105.289 253.304 105.289 247.826C105.289 246.176 105.421 244.592 105.619 243.074C108.127 242.084 110.569 241.622 113.011 241.622C115.849 241.622 117.631 244.064 117.631 247.232ZM116.047 227.696C118.423 227.696 120.205 229.214 120.205 231.854C120.205 234.692 117.895 238.124 113.605 239.774C110.701 240.038 108.127 240.566 105.883 241.292C106.477 237.53 107.731 234.362 109.645 231.722C111.559 229.016 113.671 227.696 116.047 227.696ZM149.775 253.832C149.775 256.472 150.831 257.924 153.801 257.924C157.365 257.924 160.797 254.426 164.163 247.496L162.711 246.638C160.203 252.182 158.091 254.954 156.375 254.954C155.517 254.954 155.055 254.426 155.055 253.37C155.055 252.248 155.385 250.466 156.111 248.024L161.985 226.772H155.583L152.679 237.86C151.689 241.622 149.907 245.318 147.267 249.08C144.693 252.842 142.317 254.69 140.271 254.69C138.489 254.69 137.631 253.568 137.631 251.258C137.631 249.938 137.961 248.024 138.621 245.582L140.535 238.388C141.657 234.23 142.185 231.524 142.185 230.27C142.185 227.3 140.601 225.848 137.499 225.848C133.869 225.848 130.437 229.346 127.137 236.342L128.589 237.2C131.097 231.656 133.143 228.884 134.793 228.884C135.651 228.884 136.113 229.412 136.113 230.468C136.047 232.118 135.651 234.032 135.057 236.21L132.153 246.308C131.559 248.354 131.229 250.334 131.229 252.116C131.229 256.01 133.275 257.924 137.301 257.924C139.941 257.924 142.515 256.67 145.023 254.162C147.597 251.588 149.775 248.354 151.557 244.394C150.369 248.486 149.775 251.654 149.775 253.832ZM217.757 246.572C215.579 251.324 213.005 254.888 211.487 254.888C210.629 254.888 210.167 254.36 210.167 253.304C210.167 251.918 210.497 250.07 211.223 247.628L214.127 237.464C214.787 235.22 215.117 233.24 215.117 231.524C215.117 227.762 213.203 225.848 209.309 225.848C206.867 225.848 204.227 227.168 201.521 229.742C198.815 232.316 196.571 235.55 194.789 239.444C195.779 235.814 196.241 233.108 196.241 231.326C196.241 227.696 194.591 225.848 191.225 225.848C188.717 225.848 186.077 227.102 183.371 229.61C180.665 232.118 178.421 235.418 176.639 239.444C177.827 234.89 178.421 231.722 178.421 230.006C178.421 227.3 177.431 225.848 174.461 225.848C170.501 225.848 167.267 229.742 164.099 236.342L165.551 237.2C167.597 232.448 170.171 228.884 171.821 228.884C172.679 228.884 173.141 229.412 173.141 230.468C173.141 231.326 172.811 233.108 172.085 235.814L166.409 257H172.613L175.781 245.252C176.771 241.754 178.553 238.19 181.127 234.56C183.701 230.93 185.945 229.148 187.727 229.148C189.839 229.148 190.565 230.072 190.565 232.448C190.565 233.768 190.235 235.682 189.575 238.256L184.427 257H190.631L193.865 245.252C194.789 241.886 196.571 238.388 199.145 234.692C201.785 230.996 204.029 229.148 205.811 229.148C207.989 229.148 208.715 230.072 208.715 232.448C208.715 233.702 208.385 235.682 207.659 238.256L205.745 245.45C204.689 249.212 204.161 251.918 204.161 253.568C204.161 256.472 205.679 257.924 208.781 257.924C212.741 257.924 215.975 254.03 219.143 247.43L217.757 246.572ZM252.712 246.572C251.722 248.882 250.6 250.862 249.412 252.512C248.29 254.096 247.366 254.888 246.64 254.888C245.65 254.888 245.188 254.36 245.188 253.238C245.188 251.852 245.716 249.41 246.706 245.78L251.92 226.772H245.716L243.868 233.768C243.406 228.752 240.7 225.848 236.674 225.848C228.226 225.584 220.174 237.464 220.438 247.76C220.438 254.03 223.408 257.924 228.688 257.924C233.374 257.924 237.928 254.426 240.502 248.42C240.04 250.334 239.776 251.72 239.776 252.644C239.776 256.142 241.096 257.924 243.67 257.924C247.3 257.924 250.798 254.426 254.164 247.43L252.712 246.572ZM230.998 255.482C228.16 255.482 226.444 253.238 226.444 248.75C226.444 246.176 226.906 243.272 227.896 240.17C228.886 237.068 230.272 234.296 232.054 231.92C233.902 229.478 235.882 228.29 237.928 228.29C240.502 228.29 242.482 230.534 242.482 235.352C242.482 237.926 242.02 240.764 241.03 243.866C240.04 246.968 238.654 249.674 236.806 251.984C235.024 254.294 233.044 255.482 230.998 255.482ZM256.538 256.406C255.482 256.406 254.954 256.076 254.954 255.35C256.736 255.35 257.66 254.096 257.66 252.512C257.66 250.994 256.604 249.806 255.35 249.806C253.568 249.806 252.248 251.588 252.248 253.634C252.248 256.01 254.162 257.858 256.472 257.858C258.65 257.858 260.366 256.406 261.818 254.36C262.808 253.04 263.864 250.334 264.458 248.552C264.788 247.628 265.25 246.374 265.712 244.79L266.9 240.764C267.23 239.642 267.626 238.124 268.088 236.21L269.408 231.524C270.596 235.154 271.322 243.8 271.52 257.462H273.236L289.802 230.27L285.38 246.704C284.522 249.806 284.06 252.116 284.06 253.634C284.06 256.208 285.578 257.924 288.68 257.924C292.442 257.924 296.006 254.426 299.306 247.496L297.92 246.638C295.742 251.456 293.3 254.954 291.65 254.954C290.726 254.954 290.264 254.36 290.264 253.238C290.264 252.38 290.594 250.598 291.32 247.892L297.062 226.772H289.802L277.064 248.42C276.668 233.372 274.16 225.848 269.474 225.848C265.58 225.848 261.884 229.412 258.452 236.474L259.97 237.134C262.148 231.92 264.788 229.082 266.834 229.082C267.23 229.082 267.626 229.214 267.956 229.478C265.184 240.236 263.072 247.364 261.686 250.994C260.3 254.624 258.584 256.406 256.538 256.406ZM322.533 253.832C322.533 256.472 323.589 257.924 326.559 257.924C330.123 257.924 333.555 254.426 336.921 247.496L335.469 246.638C332.961 252.182 330.849 254.954 329.133 254.954C328.275 254.954 327.813 254.426 327.813 253.37C327.813 252.248 328.143 250.466 328.869 248.024L334.743 226.772H328.341L325.437 237.86C324.447 241.622 322.665 245.318 320.025 249.08C317.451 252.842 315.075 254.69 313.029 254.69C311.247 254.69 310.389 253.568 310.389 251.258C310.389 249.938 310.719 248.024 311.379 245.582L313.293 238.388C314.415 234.23 314.943 231.524 314.943 230.27C314.943 227.3 313.359 225.848 310.257 225.848C306.627 225.848 303.195 229.346 299.895 236.342L301.347 237.2C303.855 231.656 305.901 228.884 307.551 228.884C308.409 228.884 308.871 229.412 308.871 230.468C308.805 232.118 308.409 234.032 307.815 236.21L304.911 246.308C304.317 248.354 303.987 250.334 303.987 252.116C303.987 256.01 306.033 257.924 310.059 257.924C312.699 257.924 315.273 256.67 317.781 254.162C320.355 251.588 322.533 248.354 324.315 244.394C323.127 248.486 322.533 251.654 322.533 253.832ZM373.026 246.572C370.452 252.116 368.406 254.888 366.756 254.888C365.832 254.888 365.37 254.36 365.37 253.238C365.37 252.116 365.766 250.268 366.492 247.76L372.366 226.772H366.03L362.466 239.906H350.256L350.916 237.662C351.774 234.56 352.236 231.986 352.236 230.072C352.236 227.498 350.652 225.848 347.55 225.848C343.92 225.848 340.422 229.346 337.188 236.342L338.574 237.2C341.148 231.656 343.26 228.884 344.91 228.884C345.834 228.884 346.296 229.412 346.296 230.468C346.428 231.59 345.438 234.824 345.24 235.814L339.366 257H345.702L349.662 242.216H361.806L360.948 245.45C359.892 249.344 359.364 252.05 359.364 253.568C359.364 256.472 360.948 257.924 364.116 257.924C367.614 257.924 371.046 254.426 374.412 247.43L373.026 246.572ZM410.833 246.572C408.259 252.116 406.213 254.888 404.563 254.888C403.639 254.888 403.177 254.36 403.177 253.238C403.177 252.116 403.573 250.268 404.299 247.76L410.173 226.772H403.837L400.273 239.906H388.063L388.723 237.662C389.581 234.56 390.043 231.986 390.043 230.072C390.043 227.498 388.459 225.848 385.357 225.848C381.727 225.848 378.229 229.346 374.995 236.342L376.381 237.2C378.955 231.656 381.067 228.884 382.717 228.884C383.641 228.884 384.103 229.412 384.103 230.468C384.235 231.59 383.245 234.824 383.047 235.814L377.173 257H383.509L387.469 242.216H399.613L398.755 245.45C397.699 249.344 397.171 252.05 397.171 253.568C397.171 256.472 398.755 257.924 401.923 257.924C405.421 257.924 408.853 254.426 412.219 247.43L410.833 246.572ZM425.145 256.076C421.449 256.076 419.931 252.776 419.931 245.714C419.733 237.992 424.683 227.63 430.689 227.762C434.187 227.762 435.903 230.93 435.903 237.332C435.903 242.348 434.451 248.354 431.019 252.776C429.303 254.954 427.323 256.076 425.145 256.076ZM441.975 238.19C441.975 230.996 437.949 225.848 431.085 225.848C426.135 225.848 422.043 227.762 418.809 231.656C415.575 235.484 413.925 240.17 413.925 245.78C413.925 252.974 417.951 257.924 424.881 257.924C429.699 257.924 433.725 255.944 437.025 251.918C440.325 247.892 441.975 243.272 441.975 238.19ZM467.671 233.24C467.671 228.752 464.305 225.848 458.431 225.848C453.151 225.848 447.937 228.356 445.099 234.362L446.221 235.22C448.927 230.666 452.491 228.356 456.979 228.356C459.817 228.356 462.127 229.94 462.127 232.646C462.127 238.322 455.527 239.312 450.313 241.226C446.815 242.546 443.911 245.516 443.911 250.466C443.911 254.888 447.475 257.924 453.745 257.924C458.167 257.924 463.249 254.954 465.955 249.476L464.767 248.816C462.391 252.842 458.299 255.548 454.867 255.548C451.633 255.548 449.389 254.096 449.389 251.258C449.389 245.846 455.989 244.79 461.203 242.744C464.833 241.358 467.671 238.19 467.671 233.24ZM480.78 256.076C477.084 256.076 475.566 252.776 475.566 245.714C475.368 237.992 480.318 227.63 486.324 227.762C489.822 227.762 491.538 230.93 491.538 237.332C491.538 242.348 490.086 248.354 486.654 252.776C484.938 254.954 482.958 256.076 480.78 256.076ZM497.61 238.19C497.61 230.996 493.584 225.848 486.72 225.848C481.77 225.848 477.678 227.762 474.444 231.656C471.21 235.484 469.56 240.17 469.56 245.78C469.56 252.974 473.586 257.924 480.516 257.924C485.334 257.924 489.36 255.944 492.66 251.918C495.96 247.892 497.61 243.272 497.61 238.19ZM211.88 275.348C211.286 276.602 210.428 277.526 209.306 278.054C208.58 278.384 205.544 279.11 200.198 280.232C194.126 281.552 189.902 284.588 187.064 289.802C185.678 292.376 184.622 295.082 183.83 297.854C183.038 300.56 182.312 303.926 181.652 307.952C181.454 309.074 181.322 310.526 181.322 312.176C181.322 319.04 184.622 323.66 190.694 323.66C195.776 323.66 200.198 321.746 203.894 317.984C207.656 314.222 209.504 309.734 209.504 304.586C209.504 301.22 208.58 298.382 206.732 296.138C204.884 293.828 202.376 292.706 199.274 292.706C192.938 292.706 187.526 296.93 184.424 303.992C184.886 301.88 185.282 300.23 185.612 298.976C185.942 297.722 186.47 296.27 187.13 294.752C187.856 293.234 188.648 291.98 189.506 291.056C191.354 289.208 194.258 287.36 198.152 286.502C202.31 285.512 205.28 284.72 206.93 283.994C208.646 283.268 209.9 282.344 210.692 281.222C211.55 280.1 212.408 278.12 213.266 275.348H211.88ZM203.366 303.53C203.366 307.292 202.376 311.78 200.594 315.542C198.812 319.304 195.776 322.076 192.542 322.076C189.044 322.076 187.196 318.842 187.196 313.364C187.196 308.942 188.186 304.718 190.166 300.692C192.212 296.666 194.786 294.686 197.888 294.686C201.386 294.686 203.366 298.316 203.366 303.53ZM244.642 312.572C243.652 314.882 242.53 316.862 241.342 318.512C240.22 320.096 239.296 320.888 238.57 320.888C237.58 320.888 237.118 320.36 237.118 319.238C237.118 317.852 237.646 315.41 238.636 311.78L243.85 292.772H237.646L235.798 299.768C235.336 294.752 232.63 291.848 228.604 291.848C220.156 291.584 212.104 303.464 212.368 313.76C212.368 320.03 215.338 323.924 220.618 323.924C225.304 323.924 229.858 320.426 232.432 314.42C231.97 316.334 231.706 317.72 231.706 318.644C231.706 322.142 233.026 323.924 235.6 323.924C239.23 323.924 242.728 320.426 246.094 313.43L244.642 312.572ZM222.928 321.482C220.09 321.482 218.374 319.238 218.374 314.75C218.374 312.176 218.836 309.272 219.826 306.17C220.816 303.068 222.202 300.296 223.984 297.92C225.832 295.478 227.812 294.29 229.858 294.29C232.432 294.29 234.412 296.534 234.412 301.352C234.412 303.926 233.95 306.764 232.96 309.866C231.97 312.968 230.584 315.674 228.736 317.984C226.954 320.294 224.974 321.482 222.928 321.482ZM248.402 323.726C250.25 323.726 251.768 322.934 253.088 320.888C254.408 318.842 255.332 317.126 256.454 313.496C257.048 311.714 257.51 310.13 257.84 308.744L259.358 303.134L261.008 297.326C261.536 295.412 262.262 294.62 263.912 294.62H266.486C268.598 294.62 269.654 295.808 269.654 298.184C269.654 298.976 269.456 300.032 269.126 301.286L265.562 314.024C264.968 316.07 264.638 318.116 264.638 320.03C264.638 322.34 266.42 323.924 269.39 323.924C273.152 323.924 276.65 320.426 280.016 313.496L278.564 312.638C275.99 318.182 273.944 320.954 272.294 320.954C271.436 320.954 270.974 320.36 270.974 319.172C270.974 318.05 271.37 316.202 272.096 313.562L275.33 302.012C275.726 300.626 275.924 299.24 275.924 297.92C275.924 294.488 273.944 292.772 270.05 292.772H255.596L255.068 294.62H257.708C258.83 294.62 259.424 295.016 259.424 295.874C259.424 295.94 259.358 296.468 259.16 297.326C256.652 307.16 254.672 313.76 253.22 317.192C251.834 320.558 250.184 322.274 248.27 322.274C247.346 322.274 246.884 321.944 246.884 321.218C248.666 321.218 249.59 319.964 249.59 318.38C249.59 316.862 248.534 315.674 247.28 315.674C245.498 315.674 244.178 317.456 244.178 319.502C244.178 321.878 246.092 323.726 248.402 323.726ZM313.941 312.572C312.951 314.882 311.829 316.862 310.641 318.512C309.519 320.096 308.595 320.888 307.869 320.888C306.879 320.888 306.417 320.36 306.417 319.238C306.417 317.852 306.945 315.41 307.935 311.78L313.149 292.772H306.945L305.097 299.768C304.635 294.752 301.929 291.848 297.903 291.848C289.455 291.584 281.403 303.464 281.667 313.76C281.667 320.03 284.637 323.924 289.917 323.924C294.603 323.924 299.157 320.426 301.731 314.42C301.269 316.334 301.005 317.72 301.005 318.644C301.005 322.142 302.325 323.924 304.899 323.924C308.529 323.924 312.027 320.426 315.393 313.43L313.941 312.572ZM292.227 321.482C289.389 321.482 287.673 319.238 287.673 314.75C287.673 312.176 288.135 309.272 289.125 306.17C290.115 303.068 291.501 300.296 293.283 297.92C295.131 295.478 297.111 294.29 299.157 294.29C301.731 294.29 303.711 296.534 303.711 301.352C303.711 303.926 303.249 306.764 302.259 309.866C301.269 312.968 299.883 315.674 298.035 317.984C296.253 320.294 294.273 321.482 292.227 321.482ZM351.807 312.572C349.233 318.116 347.187 320.888 345.537 320.888C344.613 320.888 344.151 320.36 344.151 319.238C344.151 318.116 344.547 316.268 345.273 313.76L351.147 292.772H344.811L341.247 305.906H329.037L329.697 303.662C330.555 300.56 331.017 297.986 331.017 296.072C331.017 293.498 329.433 291.848 326.331 291.848C322.701 291.848 319.203 295.346 315.969 302.342L317.355 303.2C319.929 297.656 322.041 294.884 323.691 294.884C324.615 294.884 325.077 295.412 325.077 296.468C325.209 297.59 324.219 300.824 324.021 301.814L318.147 323H324.483L328.443 308.216H340.587L339.729 311.45C338.673 315.344 338.145 318.05 338.145 319.568C338.145 322.472 339.729 323.924 342.897 323.924C346.395 323.924 349.827 320.426 353.193 313.43L351.807 312.572ZM380.441 298.382C380.441 294.158 376.811 291.848 371.993 291.848C367.175 291.848 363.149 293.828 359.849 297.854C356.549 301.88 354.899 306.5 354.899 311.78C354.899 315.41 355.955 318.314 358.067 320.558C360.245 322.802 363.017 323.924 366.383 323.924C371.333 323.924 375.689 320.36 378.659 314.024L377.273 313.364C374.699 318.71 371.531 321.35 367.769 321.35C363.875 321.35 361.235 317.588 361.235 311.846C361.235 306.368 362.357 302.012 364.601 298.646C366.845 295.28 369.419 293.564 372.389 293.564C376.019 293.564 378.461 295.544 378.461 298.118C377.867 297.524 377.075 297.194 376.151 297.194C374.501 297.194 373.115 299.108 373.115 300.956C373.115 302.54 373.973 304.124 376.151 304.124C378.791 304.124 380.441 301.022 380.441 298.382ZM413.829 312.572C412.839 314.882 411.717 316.862 410.529 318.512C409.407 320.096 408.483 320.888 407.757 320.888C406.767 320.888 406.305 320.36 406.305 319.238C406.305 317.852 406.833 315.41 407.823 311.78L413.037 292.772H406.833L404.985 299.768C404.523 294.752 401.817 291.848 397.791 291.848C389.343 291.584 381.291 303.464 381.555 313.76C381.555 320.03 384.525 323.924 389.805 323.924C394.491 323.924 399.045 320.426 401.619 314.42C401.157 316.334 400.893 317.72 400.893 318.644C400.893 322.142 402.213 323.924 404.787 323.924C408.417 323.924 411.915 320.426 415.281 313.43L413.829 312.572ZM392.115 321.482C389.277 321.482 387.561 319.238 387.561 314.75C387.561 312.176 388.023 309.272 389.013 306.17C390.003 303.068 391.389 300.296 393.171 297.92C395.019 295.478 396.999 294.29 399.045 294.29C401.619 294.29 403.599 296.534 403.599 301.352C403.599 303.926 403.137 306.764 402.147 309.866C401.157 312.968 399.771 315.674 397.923 317.984C396.141 320.294 394.161 321.482 392.115 321.482Z" fill="black"/>
<path fill-rule="evenodd" clip-rule="evenodd" d="M67.7891 29.1105C65.0985 27.1399 61.85 26.0779 58.515 26.0784H39.6929L26.3927 89.9216H41.846L43.4613 82.1626L44.1767 83.0524C46.563 86.0202 49.8115 88.1743 53.474 89.2176C57.1365 90.2609 61.0325 90.1418 64.6244 88.8769C68.2164 87.6119 71.3273 85.2634 73.5279 82.1554C75.7285 79.0474 76.9104 75.3331 76.9104 71.5249C76.9113 68.2702 76.0485 65.0734 74.4099 62.2613C72.7713 59.4491 70.4157 57.1222 67.5837 55.5182L66.8419 55.098L67.5394 54.6078C70.2681 52.6903 72.3148 49.9533 73.3827 46.7939C74.4506 43.6345 74.484 40.217 73.4782 37.0373C72.4724 33.8576 70.4796 31.081 67.7891 29.1105ZM77.9888 71.5251C77.9887 75.5565 76.7376 79.4885 74.408 82.7786C72.0784 86.0688 68.7852 88.555 64.9827 89.8941C61.1801 91.2332 57.0557 91.3592 53.1785 90.2548C49.6599 89.2525 46.5022 87.2816 44.0601 84.5774L42.7231 91H25.0664L38.816 25L58.5148 25C58.5149 25 58.5148 25 58.5148 25C62.079 24.9994 65.5508 26.1345 68.4263 28.2404C71.3018 30.3464 73.4315 33.3138 74.5064 36.712C75.5814 40.1103 75.5456 43.7627 74.4043 47.1392C73.3512 50.2551 71.4072 52.9865 68.8219 55C71.5057 56.6736 73.7452 58.9784 75.3417 61.7183C77.0763 64.6954 77.9898 68.0796 77.9888 71.5251Z" fill="black"/>
<path fill-rule="evenodd" clip-rule="evenodd" d="M42.8239 41.7706C42.8214 44.2887 43.4261 46.7702 44.5865 49.0049C45.747 51.2397 47.4291 53.1617 49.4903 54.6081L50.1888 55.0982L49.4463 55.5187C46.614 57.1225 44.2581 59.4493 42.6193 62.2614C40.9805 65.0736 40.1175 68.2704 40.1185 71.5252L39.04 71.5255C39.039 68.0798 39.9526 64.6956 41.6875 61.7185C43.2842 58.9786 45.5237 56.674 48.2077 55.0007C46.3058 53.5211 44.7429 51.6462 43.6294 49.5019C42.3891 47.1134 41.7428 44.461 41.7455 41.7695L42.8239 41.7706Z" fill="black"/>
<rect x="0.0664062" y="421" width="595" height="421" fill="#FC4A27" fill-opacity="0.5"/>
</g>
<defs>
<clipPath id="clip0_1654_2793">
<rect width="595" height="842" fill="white" transform="translate(0.0664062)"/>
</clipPath>
</defs>
</svg>
