<svg width="596" height="842" viewBox="0 0 596 842" fill="none" xmlns="http://www.w3.org/2000/svg">
<g clip-path="url(#clip0_1654_2831)">
<rect width="595" height="842" transform="translate(0.0664062)" fill="white"/>
<rect x="25.0664" y="25" width="46" height="792" fill="#8EA5EB" fill-opacity="0.2"/>
<rect x="96.0664" y="25" width="47" height="792" fill="#8EA5EB" fill-opacity="0.2"/>
<rect x="168.066" y="25" width="46" height="792" fill="#8EA5EB" fill-opacity="0.2"/>
<rect x="239.066" y="25" width="46" height="792" fill="#8EA5EB" fill-opacity="0.2"/>
<rect x="381.066" y="25" width="47" height="792" fill="#8EA5EB" fill-opacity="0.2"/>
<rect x="453.066" y="25" width="46" height="792" fill="#8EA5EB" fill-opacity="0.2"/>
<rect x="310.066" y="25" width="46" height="792" fill="#8EA5EB" fill-opacity="0.2"/>
<rect x="524.066" y="25" width="46" height="792" fill="#8EA5EB" fill-opacity="0.2"/>
<path d="M25.0664 58H570.066" stroke="#8EA5EB"/>
<path d="M25.0664 91H570.066" stroke="#8EA5EB"/>
<path d="M25.0664 124H570.066" stroke="#8EA5EB"/>
<path d="M25.0664 157H570.066" stroke="#8EA5EB"/>
<path d="M25.0664 190H570.066" stroke="#8EA5EB"/>
<path d="M25.0664 223H570.066" stroke="#8EA5EB"/>
<path d="M25.0664 256H570.066" stroke="#8EA5EB"/>
<path d="M25.0664 289H570.066" stroke="#8EA5EB"/>
<path d="M25.0664 322H570.066" stroke="#8EA5EB"/>
<path d="M25.0664 355H570.066" stroke="#8EA5EB"/>
<path d="M25.0664 388H570.066" stroke="#8EA5EB"/>
<path d="M25.0664 421H570.066" stroke="#8EA5EB"/>
<path d="M25.0664 454H570.066" stroke="#8EA5EB"/>
<path d="M25.0664 487H570.066" stroke="#8EA5EB"/>
<path d="M25.0664 520H570.066" stroke="#8EA5EB"/>
<path d="M25.0664 553H570.066" stroke="#8EA5EB"/>
<path d="M25.0664 586H570.066" stroke="#8EA5EB"/>
<path d="M25.0664 619H570.066" stroke="#8EA5EB"/>
<path d="M25.0664 652H570.066" stroke="#8EA5EB"/>
<path d="M25.0664 684.909H570.066" stroke="#8EA5EB"/>
<path d="M25.0664 718.341H570.066" stroke="#8EA5EB"/>
<path d="M25.0664 751H570.066" stroke="#8EA5EB"/>
<path d="M25.0664 784H570.066" stroke="#8EA5EB"/>
<path d="M44.0501 388V364.438H49.0002L54.9402 375.493H55.6662L61.5071 364.438H66.4902V388H63.5862V367.804H62.8602L56.8212 378.991H53.7191L47.6801 367.804H46.9541V388H44.0501ZM86.0692 378.694V379.651H73.3972C73.4412 381.653 73.9142 383.215 74.8162 384.337C75.7182 385.437 77.0162 385.987 78.7102 385.987C80.9982 385.987 82.4062 385.129 82.9342 383.413H85.7722C85.4862 384.909 84.7272 386.119 83.4952 387.043C82.2852 387.967 80.6902 388.429 78.7102 388.429C76.1802 388.429 74.2002 387.604 72.7702 385.954C71.3402 384.304 70.6252 382.159 70.6252 379.519C70.6252 376.923 71.3402 374.844 72.7702 373.282C74.2002 371.72 76.1582 370.939 78.6442 370.939C80.9982 370.939 82.8132 371.687 84.0892 373.183C85.3652 374.657 86.0252 376.494 86.0692 378.694ZM78.5782 373.381C77.1482 373.381 76.0042 373.755 75.1462 374.503C74.2882 375.229 73.7602 376.164 73.5622 377.308H83.1652C83.0772 376.186 82.6262 375.251 81.8122 374.503C80.9982 373.755 79.9202 373.381 78.5782 373.381ZM104.692 385.558H107.761V392.719H105.022V388H90.6343V392.719H87.8953V385.558H90.1063C91.4703 382.654 92.1523 379.442 92.1523 375.922V371.368H104.692V385.558ZM101.887 385.558V373.81H94.7593V375.922C94.7593 379.684 94.1543 382.896 92.9443 385.558H101.887ZM114.802 388H110.842V371.368H113.581V384.238H114.307L121.6 371.368H125.692V388H122.953V375.13H122.227L114.802 388ZM141.144 388V386.251H140.418C139.274 387.703 137.547 388.429 135.237 388.429C133.411 388.429 131.959 387.901 130.881 386.845C129.803 385.789 129.264 384.513 129.264 383.017C129.264 381.499 129.792 380.201 130.848 379.123C131.904 378.045 133.499 377.506 135.633 377.506H141.045V376.846C141.045 375.79 140.715 374.954 140.055 374.338C139.395 373.7 138.372 373.381 136.986 373.381C134.566 373.381 133.279 374.184 133.125 375.79H130.32C130.43 374.272 131.079 373.084 132.267 372.226C133.477 371.368 135.028 370.939 136.92 370.939C139.054 370.939 140.726 371.434 141.936 372.424C143.168 373.414 143.784 374.833 143.784 376.681V388H141.144ZM135.93 385.987C137.316 385.987 138.515 385.536 139.527 384.634C140.539 383.71 141.045 382.588 141.045 381.268V379.75H136.062C133.4 379.75 132.069 380.806 132.069 382.918C132.069 383.864 132.399 384.612 133.059 385.162C133.741 385.712 134.698 385.987 135.93 385.987ZM156.279 380.08H147.27V377.605H156.279V380.08ZM171.781 382.984H174.586C174.256 384.656 173.475 385.987 172.243 386.977C171.033 387.945 169.482 388.429 167.59 388.429C165.082 388.429 163.102 387.615 161.65 385.987C160.22 384.337 159.505 382.236 159.505 379.684C159.505 377.11 160.22 375.009 161.65 373.381C163.08 371.753 165.06 370.939 167.59 370.939C169.504 370.939 171.055 371.423 172.243 372.391C173.453 373.337 174.201 374.602 174.487 376.186H171.682C171.088 374.316 169.724 373.381 167.59 373.381C165.808 373.381 164.477 373.975 163.597 375.163C162.739 376.329 162.31 377.814 162.31 379.618C162.31 381.444 162.75 382.962 163.63 384.172C164.51 385.382 165.83 385.987 167.59 385.987C169.922 385.987 171.319 384.986 171.781 382.984ZM192.628 378.694V379.651H179.956C180 381.653 180.473 383.215 181.375 384.337C182.277 385.437 183.575 385.987 185.269 385.987C187.557 385.987 188.965 385.129 189.493 383.413H192.331C192.045 384.909 191.286 386.119 190.054 387.043C188.844 387.967 187.249 388.429 185.269 388.429C182.739 388.429 180.759 387.604 179.329 385.954C177.899 384.304 177.184 382.159 177.184 379.519C177.184 376.923 177.899 374.844 179.329 373.282C180.759 371.72 182.717 370.939 185.203 370.939C187.557 370.939 189.372 371.687 190.648 373.183C191.924 374.657 192.584 376.494 192.628 378.694ZM185.137 373.381C183.707 373.381 182.563 373.755 181.705 374.503C180.847 375.229 180.319 376.164 180.121 377.308H189.724C189.636 376.186 189.185 375.251 188.371 374.503C187.557 373.755 186.479 373.381 185.137 373.381ZM204.42 373.381C202.682 373.381 201.373 373.986 200.493 375.196C199.635 376.406 199.206 377.902 199.206 379.684C199.206 381.466 199.635 382.962 200.493 384.172C201.373 385.382 202.682 385.987 204.42 385.987C206.048 385.987 207.302 385.415 208.182 384.271C209.084 383.105 209.535 381.576 209.535 379.684C209.535 377.792 209.084 376.274 208.182 375.13C207.302 373.964 206.048 373.381 204.42 373.381ZM196.434 371.368H199.14V373.15H199.866C201.054 371.676 202.781 370.939 205.047 370.939C207.291 370.939 209.062 371.764 210.36 373.414C211.68 375.064 212.34 377.154 212.34 379.684C212.34 382.258 211.68 384.359 210.36 385.987C209.062 387.615 207.291 388.429 205.047 388.429C202.759 388.429 201.065 387.692 199.965 386.218H199.239V394.6H196.434V371.368ZM227.891 378.826V379.552C228.705 379.75 229.354 380.19 229.838 380.872C230.344 381.554 230.597 382.412 230.597 383.446C230.597 386.482 228.639 388 224.723 388H216.176V371.368H224.426C226.098 371.368 227.385 371.742 228.287 372.49C229.211 373.216 229.673 374.239 229.673 375.559C229.673 376.329 229.497 377 229.145 377.572C228.815 378.144 228.397 378.562 227.891 378.826ZM218.948 385.624H224.558C226.714 385.624 227.792 384.799 227.792 383.149C227.792 381.477 226.714 380.641 224.558 380.641H218.948V385.624ZM218.948 373.744V378.265H224.162C225.108 378.265 225.79 378.056 226.208 377.638C226.648 377.22 226.868 376.681 226.868 376.021C226.868 374.503 225.966 373.744 224.162 373.744H218.948ZM238.363 388H234.403V371.368H237.142V384.238H237.868L245.161 371.368H249.253V388H246.514V375.13H245.788L238.363 388ZM265.365 382.984H268.17C267.84 384.656 267.059 385.987 265.827 386.977C264.617 387.945 263.066 388.429 261.174 388.429C258.666 388.429 256.686 387.615 255.234 385.987C253.804 384.337 253.089 382.236 253.089 379.684C253.089 377.11 253.804 375.009 255.234 373.381C256.664 371.753 258.644 370.939 261.174 370.939C263.088 370.939 264.639 371.423 265.827 372.391C267.037 373.337 267.785 374.602 268.071 376.186H265.266C264.672 374.316 263.308 373.381 261.174 373.381C259.392 373.381 258.061 373.975 257.181 375.163C256.323 376.329 255.894 377.814 255.894 379.618C255.894 381.444 256.334 382.962 257.214 384.172C258.094 385.382 259.414 385.987 261.174 385.987C263.506 385.987 264.903 384.986 265.365 382.984ZM69.0589 408.427C69.0589 406.414 67.2439 405.424 64.6369 405.424C62.9539 405.424 61.4029 405.952 60.0169 407.041C58.6639 408.097 57.6079 409.384 56.9149 410.935C56.2219 412.453 55.8919 414.004 55.8919 415.555C55.8919 419.02 57.5749 421.462 61.1389 421.462C63.2179 421.462 64.9009 420.967 66.1219 419.977C67.3429 418.987 67.9699 417.766 67.9699 416.281C67.9699 414.565 66.9799 412.981 64.5049 412.816C66.0229 412.42 67.1449 411.793 67.9039 410.902C68.6629 410.011 69.0589 409.186 69.0589 408.427ZM65.0989 416.116C65.0989 417.403 64.7359 418.459 63.9769 419.284C63.2509 420.109 62.4589 420.505 61.5679 420.505C59.8189 420.505 58.9279 419.152 58.9279 416.413C58.9279 415.588 58.9939 414.796 59.0929 414.037C60.3469 413.542 61.5679 413.311 62.7889 413.311C64.2079 413.311 65.0989 414.532 65.0989 416.116ZM64.3069 406.348C65.4949 406.348 66.3859 407.107 66.3859 408.427C66.3859 409.846 65.2309 411.562 63.0859 412.387C61.6339 412.519 60.3469 412.783 59.2249 413.146C59.5219 411.265 60.1489 409.681 61.1059 408.361C62.0629 407.008 63.1189 406.348 64.3069 406.348ZM81.1709 419.416C81.1709 420.736 81.6989 421.462 83.1839 421.462C84.9659 421.462 86.6819 419.713 88.3649 416.248L87.6389 415.819C86.3849 418.591 85.3289 419.977 84.4709 419.977C84.0419 419.977 83.8109 419.713 83.8109 419.185C83.8109 418.624 83.9759 417.733 84.3389 416.512L87.2759 405.886H84.0749L82.6229 411.43C82.1279 413.311 81.2369 415.159 79.9169 417.04C78.6299 418.921 77.4419 419.845 76.4189 419.845C75.5279 419.845 75.0989 419.284 75.0989 418.129C75.0989 417.469 75.2639 416.512 75.5939 415.291L76.5509 411.694C77.1119 409.615 77.3759 408.262 77.3759 407.635C77.3759 406.15 76.5839 405.424 75.0329 405.424C73.2179 405.424 71.5019 407.173 69.8519 410.671L70.5779 411.1C71.8319 408.328 72.8549 406.942 73.6799 406.942C74.1089 406.942 74.3399 407.206 74.3399 407.734C74.3069 408.559 74.1089 409.516 73.8119 410.605L72.3599 415.654C72.0629 416.677 71.8979 417.667 71.8979 418.558C71.8979 420.505 72.9209 421.462 74.9339 421.462C76.2539 421.462 77.5409 420.835 78.7949 419.581C80.0819 418.294 81.1709 416.677 82.0619 414.697C81.4679 416.743 81.1709 418.327 81.1709 419.416ZM115.162 415.786C114.073 418.162 112.786 419.944 112.027 419.944C111.598 419.944 111.367 419.68 111.367 419.152C111.367 418.459 111.532 417.535 111.895 416.314L113.347 411.232C113.677 410.11 113.842 409.12 113.842 408.262C113.842 406.381 112.885 405.424 110.938 405.424C109.717 405.424 108.397 406.084 107.044 407.371C105.691 408.658 104.569 410.275 103.678 412.222C104.173 410.407 104.404 409.054 104.404 408.163C104.404 406.348 103.579 405.424 101.896 405.424C100.642 405.424 99.3219 406.051 97.9689 407.305C96.6159 408.559 95.4939 410.209 94.6029 412.222C95.1969 409.945 95.4939 408.361 95.4939 407.503C95.4939 406.15 94.9989 405.424 93.5139 405.424C91.5339 405.424 89.9169 407.371 88.3329 410.671L89.0589 411.1C90.0819 408.724 91.3689 406.942 92.1939 406.942C92.6229 406.942 92.8539 407.206 92.8539 407.734C92.8539 408.163 92.6889 409.054 92.3259 410.407L89.4879 421H92.5899L94.1739 415.126C94.6689 413.377 95.5599 411.595 96.8469 409.78C98.1339 407.965 99.2559 407.074 100.147 407.074C101.203 407.074 101.566 407.536 101.566 408.724C101.566 409.384 101.401 410.341 101.071 411.628L98.4969 421H101.599L103.216 415.126C103.678 413.443 104.569 411.694 105.856 409.846C107.176 407.998 108.298 407.074 109.189 407.074C110.278 407.074 110.641 407.536 110.641 408.724C110.641 409.351 110.476 410.341 110.113 411.628L109.156 415.225C108.628 417.106 108.364 418.459 108.364 419.284C108.364 420.736 109.123 421.462 110.674 421.462C112.654 421.462 114.271 419.515 115.855 416.215L115.162 415.786ZM132.639 415.786C132.144 416.941 131.583 417.931 130.989 418.756C130.428 419.548 129.966 419.944 129.603 419.944C129.108 419.944 128.877 419.68 128.877 419.119C128.877 418.426 129.141 417.205 129.636 415.39L132.243 405.886H129.141L128.217 409.384C127.986 406.876 126.633 405.424 124.62 405.424C120.396 405.292 116.37 411.232 116.502 416.38C116.502 419.515 117.987 421.462 120.627 421.462C122.97 421.462 125.247 419.713 126.534 416.71C126.303 417.667 126.171 418.36 126.171 418.822C126.171 420.571 126.831 421.462 128.118 421.462C129.933 421.462 131.682 419.713 133.365 416.215L132.639 415.786ZM121.782 420.241C120.363 420.241 119.505 419.119 119.505 416.875C119.505 415.588 119.736 414.136 120.231 412.585C120.726 411.034 121.419 409.648 122.31 408.46C123.234 407.239 124.224 406.645 125.247 406.645C126.534 406.645 127.524 407.767 127.524 410.176C127.524 411.463 127.293 412.882 126.798 414.433C126.303 415.984 125.61 417.337 124.686 418.492C123.795 419.647 122.805 420.241 121.782 420.241ZM134.552 420.703C134.024 420.703 133.76 420.538 133.76 420.175C134.651 420.175 135.113 419.548 135.113 418.756C135.113 417.997 134.585 417.403 133.958 417.403C133.067 417.403 132.407 418.294 132.407 419.317C132.407 420.505 133.364 421.429 134.519 421.429C135.608 421.429 136.466 420.703 137.192 419.68C137.687 419.02 138.215 417.667 138.512 416.776C138.677 416.314 138.908 415.687 139.139 414.895L139.733 412.882C139.898 412.321 140.096 411.562 140.327 410.605L140.987 408.262C141.581 410.077 141.944 414.4 142.043 421.231H142.901L151.184 407.635L148.973 415.852C148.544 417.403 148.313 418.558 148.313 419.317C148.313 420.604 149.072 421.462 150.623 421.462C152.504 421.462 154.286 419.713 155.936 416.248L155.243 415.819C154.154 418.228 152.933 419.977 152.108 419.977C151.646 419.977 151.415 419.68 151.415 419.119C151.415 418.69 151.58 417.799 151.943 416.446L154.814 405.886H151.184L144.815 416.71C144.617 409.186 143.363 405.424 141.02 405.424C139.073 405.424 137.225 407.206 135.509 410.737L136.268 411.067C137.357 408.46 138.677 407.041 139.7 407.041C139.898 407.041 140.096 407.107 140.261 407.239C138.875 412.618 137.819 416.182 137.126 417.997C136.433 419.812 135.575 420.703 134.552 420.703ZM167.55 419.416C167.55 420.736 168.078 421.462 169.563 421.462C171.345 421.462 173.061 419.713 174.744 416.248L174.018 415.819C172.764 418.591 171.708 419.977 170.85 419.977C170.421 419.977 170.19 419.713 170.19 419.185C170.19 418.624 170.355 417.733 170.718 416.512L173.655 405.886H170.454L169.002 411.43C168.507 413.311 167.616 415.159 166.296 417.04C165.009 418.921 163.821 419.845 162.798 419.845C161.907 419.845 161.478 419.284 161.478 418.129C161.478 417.469 161.643 416.512 161.973 415.291L162.93 411.694C163.491 409.615 163.755 408.262 163.755 407.635C163.755 406.15 162.963 405.424 161.412 405.424C159.597 405.424 157.881 407.173 156.231 410.671L156.957 411.1C158.211 408.328 159.234 406.942 160.059 406.942C160.488 406.942 160.719 407.206 160.719 407.734C160.686 408.559 160.488 409.516 160.191 410.605L158.739 415.654C158.442 416.677 158.277 417.667 158.277 418.558C158.277 420.505 159.3 421.462 161.313 421.462C162.633 421.462 163.92 420.835 165.174 419.581C166.461 418.294 167.55 416.677 168.441 414.697C167.847 416.743 167.55 418.327 167.55 419.416ZM192.796 415.786C191.509 418.558 190.486 419.944 189.661 419.944C189.199 419.944 188.968 419.68 188.968 419.119C188.968 418.558 189.166 417.634 189.529 416.38L192.466 405.886H189.298L187.516 412.453H181.411L181.741 411.331C182.17 409.78 182.401 408.493 182.401 407.536C182.401 406.249 181.609 405.424 180.058 405.424C178.243 405.424 176.494 407.173 174.877 410.671L175.57 411.1C176.857 408.328 177.913 406.942 178.738 406.942C179.2 406.942 179.431 407.206 179.431 407.734C179.497 408.295 179.002 409.912 178.903 410.407L175.966 421H179.134L181.114 413.608H187.186L186.757 415.225C186.229 417.172 185.965 418.525 185.965 419.284C185.965 420.736 186.757 421.462 188.341 421.462C190.09 421.462 191.806 419.713 193.489 416.215L192.796 415.786ZM211.7 415.786C210.413 418.558 209.39 419.944 208.565 419.944C208.103 419.944 207.872 419.68 207.872 419.119C207.872 418.558 208.07 417.634 208.433 416.38L211.37 405.886H208.202L206.42 412.453H200.315L200.645 411.331C201.074 409.78 201.305 408.493 201.305 407.536C201.305 406.249 200.513 405.424 198.962 405.424C197.147 405.424 195.398 407.173 193.781 410.671L194.474 411.1C195.761 408.328 196.817 406.942 197.642 406.942C198.104 406.942 198.335 407.206 198.335 407.734C198.401 408.295 197.906 409.912 197.807 410.407L194.87 421H198.038L200.018 413.608H206.09L205.661 415.225C205.133 417.172 204.869 418.525 204.869 419.284C204.869 420.736 205.661 421.462 207.245 421.462C208.994 421.462 210.71 419.713 212.393 416.215L211.7 415.786ZM218.856 420.538C217.008 420.538 216.249 418.888 216.249 415.357C216.15 411.496 218.625 406.315 221.628 406.381C223.377 406.381 224.235 407.965 224.235 411.166C224.235 413.674 223.509 416.677 221.793 418.888C220.935 419.977 219.945 420.538 218.856 420.538ZM227.271 411.595C227.271 407.998 225.258 405.424 221.826 405.424C219.351 405.424 217.305 406.381 215.688 408.328C214.071 410.242 213.246 412.585 213.246 415.39C213.246 418.987 215.259 421.462 218.724 421.462C221.133 421.462 223.146 420.472 224.796 418.459C226.446 416.446 227.271 414.136 227.271 411.595ZM240.118 409.12C240.118 406.876 238.435 405.424 235.498 405.424C232.858 405.424 230.251 406.678 228.832 409.681L229.393 410.11C230.746 407.833 232.528 406.678 234.772 406.678C236.191 406.678 237.346 407.47 237.346 408.823C237.346 411.661 234.046 412.156 231.439 413.113C229.69 413.773 228.238 415.258 228.238 417.733C228.238 419.944 230.02 421.462 233.155 421.462C235.366 421.462 237.907 419.977 239.26 417.238L238.666 416.908C237.478 418.921 235.432 420.274 233.716 420.274C232.099 420.274 230.977 419.548 230.977 418.129C230.977 415.423 234.277 414.895 236.884 413.872C238.699 413.179 240.118 411.595 240.118 409.12ZM246.673 420.538C244.825 420.538 244.066 418.888 244.066 415.357C243.967 411.496 246.442 406.315 249.445 406.381C251.194 406.381 252.052 407.965 252.052 411.166C252.052 413.674 251.326 416.677 249.61 418.888C248.752 419.977 247.762 420.538 246.673 420.538ZM255.088 411.595C255.088 407.998 253.075 405.424 249.643 405.424C247.168 405.424 245.122 406.381 243.505 408.328C241.888 410.242 241.063 412.585 241.063 415.39C241.063 418.987 243.076 421.462 246.541 421.462C248.95 421.462 250.963 420.472 252.613 418.459C254.263 416.446 255.088 414.136 255.088 411.595ZM112.223 430.174C111.926 430.801 111.497 431.263 110.936 431.527C110.573 431.692 109.055 432.055 106.382 432.616C103.346 433.276 101.234 434.794 99.815 437.401C99.122 438.688 98.594 440.041 98.198 441.427C97.802 442.78 97.439 444.463 97.109 446.476C97.01 447.037 96.944 447.763 96.944 448.588C96.944 452.02 98.594 454.33 101.63 454.33C104.171 454.33 106.382 453.373 108.23 451.492C110.111 449.611 111.035 447.367 111.035 444.793C111.035 443.11 110.573 441.691 109.649 440.569C108.725 439.414 107.471 438.853 105.92 438.853C102.752 438.853 100.046 440.965 98.495 444.496C98.726 443.44 98.924 442.615 99.089 441.988C99.254 441.361 99.518 440.635 99.848 439.876C100.211 439.117 100.607 438.49 101.036 438.028C101.96 437.104 103.412 436.18 105.359 435.751C107.438 435.256 108.923 434.86 109.748 434.497C110.606 434.134 111.233 433.672 111.629 433.111C112.058 432.55 112.487 431.56 112.916 430.174H112.223ZM107.966 444.265C107.966 446.146 107.471 448.39 106.58 450.271C105.689 452.152 104.171 453.538 102.554 453.538C100.805 453.538 99.881 451.921 99.881 449.182C99.881 446.971 100.376 444.859 101.366 442.846C102.389 440.833 103.676 439.843 105.227 439.843C106.976 439.843 107.966 441.658 107.966 444.265ZM128.604 448.786C128.109 449.941 127.548 450.931 126.954 451.756C126.393 452.548 125.931 452.944 125.568 452.944C125.073 452.944 124.842 452.68 124.842 452.119C124.842 451.426 125.106 450.205 125.601 448.39L128.208 438.886H125.106L124.182 442.384C123.951 439.876 122.598 438.424 120.585 438.424C116.361 438.292 112.335 444.232 112.467 449.38C112.467 452.515 113.952 454.462 116.592 454.462C118.935 454.462 121.212 452.713 122.499 449.71C122.268 450.667 122.136 451.36 122.136 451.822C122.136 453.571 122.796 454.462 124.083 454.462C125.898 454.462 127.647 452.713 129.33 449.215L128.604 448.786ZM117.747 453.241C116.328 453.241 115.47 452.119 115.47 449.875C115.47 448.588 115.701 447.136 116.196 445.585C116.691 444.034 117.384 442.648 118.275 441.46C119.199 440.239 120.189 439.645 121.212 439.645C122.499 439.645 123.489 440.767 123.489 443.176C123.489 444.463 123.258 445.882 122.763 447.433C122.268 448.984 121.575 450.337 120.651 451.492C119.76 452.647 118.77 453.241 117.747 453.241ZM130.484 454.363C131.408 454.363 132.167 453.967 132.827 452.944C133.487 451.921 133.949 451.063 134.51 449.248C134.807 448.357 135.038 447.565 135.203 446.872L135.962 444.067L136.787 441.163C137.051 440.206 137.414 439.81 138.239 439.81H139.526C140.582 439.81 141.11 440.404 141.11 441.592C141.11 441.988 141.011 442.516 140.846 443.143L139.064 449.512C138.767 450.535 138.602 451.558 138.602 452.515C138.602 453.67 139.493 454.462 140.978 454.462C142.859 454.462 144.608 452.713 146.291 449.248L145.565 448.819C144.278 451.591 143.255 452.977 142.43 452.977C142.001 452.977 141.77 452.68 141.77 452.086C141.77 451.525 141.968 450.601 142.331 449.281L143.948 443.506C144.146 442.813 144.245 442.12 144.245 441.46C144.245 439.744 143.255 438.886 141.308 438.886H134.081L133.817 439.81H135.137C135.698 439.81 135.995 440.008 135.995 440.437C135.995 440.47 135.962 440.734 135.863 441.163C134.609 446.08 133.619 449.38 132.893 451.096C132.2 452.779 131.375 453.637 130.418 453.637C129.956 453.637 129.725 453.472 129.725 453.109C130.616 453.109 131.078 452.482 131.078 451.69C131.078 450.931 130.55 450.337 129.923 450.337C129.032 450.337 128.372 451.228 128.372 452.251C128.372 453.439 129.329 454.363 130.484 454.363ZM163.254 448.786C162.759 449.941 162.198 450.931 161.604 451.756C161.043 452.548 160.581 452.944 160.218 452.944C159.723 452.944 159.492 452.68 159.492 452.119C159.492 451.426 159.756 450.205 160.251 448.39L162.858 438.886H159.756L158.832 442.384C158.601 439.876 157.248 438.424 155.235 438.424C151.011 438.292 146.985 444.232 147.117 449.38C147.117 452.515 148.602 454.462 151.242 454.462C153.585 454.462 155.862 452.713 157.149 449.71C156.918 450.667 156.786 451.36 156.786 451.822C156.786 453.571 157.446 454.462 158.733 454.462C160.548 454.462 162.297 452.713 163.98 449.215L163.254 448.786ZM152.397 453.241C150.978 453.241 150.12 452.119 150.12 449.875C150.12 448.588 150.351 447.136 150.846 445.585C151.341 444.034 152.034 442.648 152.925 441.46C153.849 440.239 154.839 439.645 155.862 439.645C157.149 439.645 158.139 440.767 158.139 443.176C158.139 444.463 157.908 445.882 157.413 447.433C156.918 448.984 156.225 450.337 155.301 451.492C154.41 452.647 153.42 453.241 152.397 453.241ZM182.187 448.786C180.9 451.558 179.877 452.944 179.052 452.944C178.59 452.944 178.359 452.68 178.359 452.119C178.359 451.558 178.557 450.634 178.92 449.38L181.857 438.886H178.689L176.907 445.453H170.802L171.132 444.331C171.561 442.78 171.792 441.493 171.792 440.536C171.792 439.249 171 438.424 169.449 438.424C167.634 438.424 165.885 440.173 164.268 443.671L164.961 444.1C166.248 441.328 167.304 439.942 168.129 439.942C168.591 439.942 168.822 440.206 168.822 440.734C168.888 441.295 168.393 442.912 168.294 443.407L165.357 454H168.525L170.505 446.608H176.577L176.148 448.225C175.62 450.172 175.356 451.525 175.356 452.284C175.356 453.736 176.148 454.462 177.732 454.462C179.481 454.462 181.197 452.713 182.88 449.215L182.187 448.786ZM196.504 441.691C196.504 439.579 194.689 438.424 192.28 438.424C189.871 438.424 187.858 439.414 186.208 441.427C184.558 443.44 183.733 445.75 183.733 448.39C183.733 450.205 184.261 451.657 185.317 452.779C186.406 453.901 187.792 454.462 189.475 454.462C191.95 454.462 194.128 452.68 195.613 449.512L194.92 449.182C193.633 451.855 192.049 453.175 190.168 453.175C188.221 453.175 186.901 451.294 186.901 448.423C186.901 445.684 187.462 443.506 188.584 441.823C189.706 440.14 190.993 439.282 192.478 439.282C194.293 439.282 195.514 440.272 195.514 441.559C195.217 441.262 194.821 441.097 194.359 441.097C193.534 441.097 192.841 442.054 192.841 442.978C192.841 443.77 193.27 444.562 194.359 444.562C195.679 444.562 196.504 443.011 196.504 441.691ZM213.198 448.786C212.703 449.941 212.142 450.931 211.548 451.756C210.987 452.548 210.525 452.944 210.162 452.944C209.667 452.944 209.436 452.68 209.436 452.119C209.436 451.426 209.7 450.205 210.195 448.39L212.802 438.886H209.7L208.776 442.384C208.545 439.876 207.192 438.424 205.179 438.424C200.955 438.292 196.929 444.232 197.061 449.38C197.061 452.515 198.546 454.462 201.186 454.462C203.529 454.462 205.806 452.713 207.093 449.71C206.862 450.667 206.73 451.36 206.73 451.822C206.73 453.571 207.39 454.462 208.677 454.462C210.492 454.462 212.241 452.713 213.924 449.215L213.198 448.786ZM202.341 453.241C200.922 453.241 200.064 452.119 200.064 449.875C200.064 448.588 200.295 447.136 200.79 445.585C201.285 444.034 201.978 442.648 202.869 441.46C203.793 440.239 204.783 439.645 205.806 439.645C207.093 439.645 208.083 440.767 208.083 443.176C208.083 444.463 207.852 445.882 207.357 447.433C206.862 448.984 206.169 450.337 205.245 451.492C204.354 452.647 203.364 453.241 202.341 453.241Z" fill="black"/>
<path fill-rule="evenodd" clip-rule="evenodd" d="M67.7891 755.11C65.0985 753.14 61.85 752.078 58.515 752.078H39.6929L26.3927 815.922H41.846L43.4613 808.163L44.1767 809.052C46.563 812.02 49.8115 814.174 53.474 815.218C57.1365 816.261 61.0325 816.142 64.6244 814.877C68.2164 813.612 71.3273 811.263 73.5279 808.155C75.7285 805.047 76.9104 801.333 76.9104 797.525C76.9113 794.27 76.0485 791.073 74.4099 788.261C72.7713 785.449 70.4157 783.122 67.5837 781.518L66.8419 781.098L67.5394 780.608C70.2681 778.69 72.3148 775.953 73.3827 772.794C74.4506 769.634 74.484 766.217 73.4782 763.037C72.4724 759.858 70.4796 757.081 67.7891 755.11ZM77.9888 797.525C77.9887 801.556 76.7376 805.488 74.408 808.779C72.0784 812.069 68.7852 814.555 64.9827 815.894C61.1801 817.233 57.0557 817.359 53.1785 816.255C49.6599 815.252 46.5022 813.282 44.0601 810.577L42.7231 817H25.0664L38.816 751L58.5148 751C58.5149 751 58.5148 751 58.5148 751C62.079 750.999 65.5508 752.134 68.4263 754.24C71.3018 756.346 73.4315 759.314 74.5064 762.712C75.5814 766.11 75.5456 769.763 74.4043 773.139C73.3512 776.255 71.4072 778.986 68.8219 781C71.5057 782.674 73.7452 784.978 75.3417 787.718C77.0763 790.695 77.9898 794.08 77.9888 797.525Z" fill="black"/>
<path fill-rule="evenodd" clip-rule="evenodd" d="M42.8237 767.77C42.8212 770.288 43.4258 772.77 44.5863 775.004C45.7467 777.239 47.4289 779.161 49.4901 780.608L50.1885 781.098L49.446 781.518C46.6137 783.122 44.2579 785.449 42.6191 788.261C40.9803 791.073 40.1173 794.27 40.1182 797.525L39.0398 797.525C39.0388 794.079 39.9524 790.695 41.6873 787.718C43.2839 784.978 45.5235 782.674 48.2074 781C46.3055 779.521 44.7427 777.646 43.6292 775.501C42.3888 773.113 41.7426 770.46 41.7453 767.769L42.8237 767.77Z" fill="black"/>
<rect x="310.566" width="284.5" height="842" fill="#FC4A27" fill-opacity="0.5"/>
</g>
<defs>
<clipPath id="clip0_1654_2831">
<rect width="595" height="842" fill="white" transform="translate(0.0664062)"/>
</clipPath>
</defs>
</svg>
