<svg width="596" height="842" viewBox="0 0 596 842" fill="none" xmlns="http://www.w3.org/2000/svg">
<rect width="595" height="842" transform="translate(0.566406)" fill="white"/>
<rect x="25.0664" y="25" width="46" height="792" fill="#8EA5EB" fill-opacity="0.2"/>
<rect x="96.0664" y="25" width="47" height="792" fill="#8EA5EB" fill-opacity="0.2"/>
<rect x="168.066" y="25" width="46" height="792" fill="#8EA5EB" fill-opacity="0.2"/>
<rect x="239.066" y="25" width="46" height="792" fill="#8EA5EB" fill-opacity="0.2"/>
<rect x="381.066" y="25" width="47" height="792" fill="#8EA5EB" fill-opacity="0.2"/>
<rect x="453.066" y="25" width="46" height="792" fill="#8EA5EB" fill-opacity="0.2"/>
<rect x="310.066" y="25" width="46" height="792" fill="#8EA5EB" fill-opacity="0.2"/>
<rect x="524.066" y="25" width="46" height="792" fill="#8EA5EB" fill-opacity="0.2"/>
<path d="M25.0664 58H570.066" stroke="#8EA5EB"/>
<path d="M25.0664 91H570.066" stroke="#8EA5EB"/>
<path d="M25.0664 124H570.066" stroke="#8EA5EB"/>
<path d="M25.0664 157H570.066" stroke="#8EA5EB"/>
<path d="M25.0664 190H570.066" stroke="#8EA5EB"/>
<path d="M25.0664 223H570.066" stroke="#8EA5EB"/>
<path d="M25.0664 256H570.066" stroke="#8EA5EB"/>
<path d="M25.0664 289H570.066" stroke="#8EA5EB"/>
<path d="M25.0664 322H570.066" stroke="#8EA5EB"/>
<path d="M25.0664 355H570.066" stroke="#8EA5EB"/>
<path d="M25.0664 388H570.066" stroke="#8EA5EB"/>
<path d="M25.0664 421H570.066" stroke="#8EA5EB"/>
<path d="M25.0664 454H570.066" stroke="#8EA5EB"/>
<path d="M25.0664 487H570.066" stroke="#8EA5EB"/>
<path d="M25.0664 520H570.066" stroke="#8EA5EB"/>
<path d="M25.0664 553H570.066" stroke="#8EA5EB"/>
<path d="M25.0664 586H570.066" stroke="#8EA5EB"/>
<path d="M25.0664 619H570.066" stroke="#8EA5EB"/>
<path d="M25.0664 652H570.066" stroke="#8EA5EB"/>
<path d="M25.0664 684.909H570.066" stroke="#8EA5EB"/>
<path d="M25.0664 718.341H570.066" stroke="#8EA5EB"/>
<path d="M25.0664 751H570.066" stroke="#8EA5EB"/>
<path d="M25.0664 784H570.066" stroke="#8EA5EB"/>
<path d="M102.42 364.438H105.39V388H102.42V377.242H89.2529V388H86.2829V364.438H89.2529V374.47H102.42V364.438ZM124.95 378.694V379.651H112.278C112.322 381.653 112.795 383.215 113.697 384.337C114.599 385.437 115.897 385.987 117.591 385.987C119.879 385.987 121.287 385.129 121.815 383.413H124.653C124.367 384.909 123.608 386.119 122.376 387.043C121.166 387.967 119.571 388.429 117.591 388.429C115.061 388.429 113.081 387.604 111.651 385.954C110.221 384.304 109.506 382.159 109.506 379.519C109.506 376.923 110.221 374.844 111.651 373.282C113.081 371.72 115.039 370.939 117.525 370.939C119.879 370.939 121.694 371.687 122.97 373.183C124.246 374.657 124.906 376.494 124.95 378.694ZM117.459 373.381C116.029 373.381 114.885 373.755 114.027 374.503C113.169 375.229 112.641 376.164 112.443 377.308H122.046C121.958 376.186 121.507 375.251 120.693 374.503C119.879 373.755 118.801 373.381 117.459 373.381ZM151.801 378.694V379.651H139.129C139.173 381.653 139.646 383.215 140.548 384.337C141.45 385.437 142.748 385.987 144.442 385.987C146.73 385.987 148.138 385.129 148.666 383.413H151.504C151.218 384.909 150.459 386.119 149.227 387.043C148.017 387.967 146.422 388.429 144.442 388.429C141.912 388.429 139.932 387.604 138.502 385.954C137.072 384.304 136.357 382.159 136.357 379.519C136.357 376.923 137.072 374.844 138.502 373.282C139.932 371.72 141.89 370.939 144.376 370.939C146.73 370.939 148.545 371.687 149.821 373.183C151.097 374.657 151.757 376.494 151.801 378.694ZM144.31 373.381C142.88 373.381 141.736 373.755 140.878 374.503C140.02 375.229 139.492 376.164 139.294 377.308H148.897C148.809 376.186 148.358 375.251 147.544 374.503C146.73 373.755 145.652 373.381 144.31 373.381ZM170.424 385.558H173.493V392.719H170.754V388H156.366V392.719H153.627V385.558H155.838C157.202 382.654 157.884 379.442 157.884 375.922V371.368H170.424V385.558ZM167.619 385.558V373.81H160.491V375.922C160.491 379.684 159.886 382.896 158.676 385.558H167.619ZM180.533 388H176.573V371.368H179.312V384.238H180.038L187.331 371.368H191.423V388H188.684V375.13H187.958L180.533 388ZM194.567 373.81V371.368H208.889V373.81H203.147V388H200.342V373.81H194.567ZM226.192 378.694V379.651H213.52C213.564 381.653 214.037 383.215 214.939 384.337C215.841 385.437 217.139 385.987 218.833 385.987C221.121 385.987 222.529 385.129 223.057 383.413H225.895C225.609 384.909 224.85 386.119 223.618 387.043C222.408 387.967 220.813 388.429 218.833 388.429C216.303 388.429 214.323 387.604 212.893 385.954C211.463 384.304 210.748 382.159 210.748 379.519C210.748 376.923 211.463 374.844 212.893 373.282C214.323 371.72 216.281 370.939 218.767 370.939C221.121 370.939 222.936 371.687 224.212 373.183C225.488 374.657 226.148 376.494 226.192 378.694ZM218.701 373.381C217.271 373.381 216.127 373.755 215.269 374.503C214.411 375.229 213.883 376.164 213.685 377.308H223.288C223.2 376.186 222.749 375.251 221.935 374.503C221.121 373.755 220.043 373.381 218.701 373.381ZM79.3944 421L75.6984 413.674H70.7154V421H67.9104V404.368H70.7154V411.232H75.7644L79.2294 404.368H82.1664L78.1074 412.387L82.3974 421H79.3944ZM96.4082 421V419.251H95.6822C94.5382 420.703 92.8112 421.429 90.5012 421.429C88.6752 421.429 87.2232 420.901 86.1452 419.845C85.0672 418.789 84.5282 417.513 84.5282 416.017C84.5282 414.499 85.0562 413.201 86.1122 412.123C87.1682 411.045 88.7632 410.506 90.8972 410.506H96.3092V409.846C96.3092 408.79 95.9792 407.954 95.3192 407.338C94.6592 406.7 93.6362 406.381 92.2502 406.381C89.8302 406.381 88.5432 407.184 88.3892 408.79H85.5842C85.6942 407.272 86.3432 406.084 87.5312 405.226C88.7412 404.368 90.2922 403.939 92.1842 403.939C94.3182 403.939 95.9902 404.434 97.2002 405.424C98.4322 406.414 99.0482 407.833 99.0482 409.681V421H96.4082ZM91.1942 418.987C92.5802 418.987 93.7792 418.536 94.7912 417.634C95.8032 416.71 96.3092 415.588 96.3092 414.268V412.75H91.3262C88.6642 412.75 87.3332 413.806 87.3332 415.918C87.3332 416.864 87.6632 417.612 88.3232 418.162C89.0052 418.712 89.9622 418.987 91.1942 418.987ZM115.107 421L111.411 413.674H106.428V421H103.623V404.368H106.428V411.232H111.477L114.942 404.368H117.879L113.82 412.387L118.11 421H115.107ZM122.2 406.414C123.674 404.764 125.676 403.939 128.206 403.939C130.736 403.939 132.727 404.764 134.179 406.414C135.653 408.064 136.39 410.154 136.39 412.684C136.39 415.214 135.653 417.304 134.179 418.954C132.727 420.604 130.736 421.429 128.206 421.429C125.676 421.429 123.674 420.604 122.2 418.954C120.748 417.304 120.022 415.214 120.022 412.684C120.022 410.154 120.748 408.064 122.2 406.414ZM124.213 417.172C125.137 418.382 126.468 418.987 128.206 418.987C129.944 418.987 131.275 418.382 132.199 417.172C133.123 415.94 133.585 414.444 133.585 412.684C133.585 410.924 133.123 409.439 132.199 408.229C131.275 406.997 129.944 406.381 128.206 406.381C126.468 406.381 125.137 406.997 124.213 408.229C123.289 409.439 122.827 410.924 122.827 412.684C122.827 414.444 123.289 415.94 124.213 417.172ZM144.166 421H140.206V404.368H142.945V417.238H143.671L150.964 404.368H155.056V421H152.317V408.13H151.591L144.166 421ZM150.436 397.108H152.713C152.669 398.648 152.196 399.836 151.294 400.672C150.392 401.508 149.149 401.926 147.565 401.926C146.003 401.926 144.771 401.508 143.869 400.672C142.967 399.836 142.494 398.648 142.45 397.108H144.727C144.771 398.978 145.717 399.913 147.565 399.913C149.369 399.913 150.326 398.978 150.436 397.108ZM167.836 413.08H158.827V410.605H167.836V413.08ZM169.076 421V418.36H169.637C170.803 418.36 171.639 417.821 172.145 416.743C172.651 415.643 172.904 413.663 172.904 410.803V404.368H185.642V421H182.804V406.81H175.511V410.869C175.511 414.631 175.049 417.26 174.125 418.756C173.223 420.252 171.727 421 169.637 421H169.076ZM194.433 421H190.473V404.368H193.212V417.238H193.938L201.231 404.368H205.323V421H202.584V408.13H201.858L194.433 421ZM217.772 404.533C220.214 404.533 222.139 405.336 223.547 406.942C224.955 408.526 225.659 410.539 225.659 412.981C225.659 415.401 224.911 417.414 223.415 419.02C221.941 420.626 219.95 421.429 217.442 421.429C214.802 421.429 212.756 420.56 211.304 418.822C209.874 417.084 209.159 414.598 209.159 411.364C209.159 410.11 209.192 408.988 209.258 407.998C209.346 407.008 209.522 405.974 209.786 404.896C210.072 403.818 210.446 402.905 210.908 402.157C211.37 401.387 212.008 400.716 212.822 400.144C213.636 399.572 214.604 399.198 215.726 399.022L220.148 398.296C220.764 398.208 221.171 398.087 221.369 397.933C221.589 397.779 221.721 397.471 221.765 397.009H224.372C224.328 398.043 224.075 398.868 223.613 399.484C223.151 400.078 222.315 400.485 221.105 400.705L215.99 401.563C214.604 401.805 213.581 402.388 212.921 403.312C212.283 404.214 211.865 405.424 211.667 406.942H212.393C213.075 406.04 213.834 405.413 214.67 405.061C215.528 404.709 216.562 404.533 217.772 404.533ZM213.35 417.238C214.296 418.404 215.638 418.987 217.376 418.987C219.114 418.987 220.445 418.404 221.369 417.238C222.315 416.05 222.788 414.62 222.788 412.948C222.788 411.276 222.315 409.857 221.369 408.691C220.445 407.525 219.114 406.942 217.376 406.942C215.638 406.942 214.296 407.525 213.35 408.691C212.426 409.857 211.964 411.276 211.964 412.948C211.964 414.62 212.426 416.05 213.35 417.238ZM230.628 406.414C232.102 404.764 234.104 403.939 236.634 403.939C239.164 403.939 241.155 404.764 242.607 406.414C244.081 408.064 244.818 410.154 244.818 412.684C244.818 415.214 244.081 417.304 242.607 418.954C241.155 420.604 239.164 421.429 236.634 421.429C234.104 421.429 232.102 420.604 230.628 418.954C229.176 417.304 228.45 415.214 228.45 412.684C228.45 410.154 229.176 408.064 230.628 406.414ZM232.641 417.172C233.565 418.382 234.896 418.987 236.634 418.987C238.372 418.987 239.703 418.382 240.627 417.172C241.551 415.94 242.013 414.444 242.013 412.684C242.013 410.924 241.551 409.439 240.627 408.229C239.703 406.997 238.372 406.381 236.634 406.381C234.896 406.381 233.565 406.997 232.641 408.229C231.717 409.439 231.255 410.924 231.255 412.684C231.255 414.444 231.717 415.94 232.641 417.172ZM99.0823 454H96.2773V439.81H87.2023V454H84.3973V437.368H99.0823V454ZM111.932 439.381C110.194 439.381 108.885 439.986 108.005 441.196C107.147 442.406 106.718 443.902 106.718 445.684C106.718 447.466 107.147 448.962 108.005 450.172C108.885 451.382 110.194 451.987 111.932 451.987C113.56 451.987 114.814 451.415 115.694 450.271C116.596 449.105 117.047 447.576 117.047 445.684C117.047 443.792 116.596 442.274 115.694 441.13C114.814 439.964 113.56 439.381 111.932 439.381ZM103.946 437.368H106.652V439.15H107.378C108.566 437.676 110.293 436.939 112.559 436.939C114.803 436.939 116.574 437.764 117.872 439.414C119.192 441.064 119.852 443.154 119.852 445.684C119.852 448.258 119.192 450.359 117.872 451.987C116.574 453.615 114.803 454.429 112.559 454.429C110.271 454.429 108.577 453.692 107.477 452.218H106.751V460.6H103.946V437.368ZM124.842 439.414C126.316 437.764 128.318 436.939 130.848 436.939C133.378 436.939 135.369 437.764 136.821 439.414C138.295 441.064 139.032 443.154 139.032 445.684C139.032 448.214 138.295 450.304 136.821 451.954C135.369 453.604 133.378 454.429 130.848 454.429C128.318 454.429 126.316 453.604 124.842 451.954C123.39 450.304 122.664 448.214 122.664 445.684C122.664 443.154 123.39 441.064 124.842 439.414ZM126.855 450.172C127.779 451.382 129.11 451.987 130.848 451.987C132.586 451.987 133.917 451.382 134.841 450.172C135.765 448.94 136.227 447.444 136.227 445.684C136.227 443.924 135.765 442.439 134.841 441.229C133.917 439.997 132.586 439.381 130.848 439.381C129.11 439.381 127.779 439.997 126.855 441.229C125.931 442.439 125.469 443.924 125.469 445.684C125.469 447.444 125.931 448.94 126.855 450.172ZM157.666 451.558H160.735V458.719H157.996V454H143.608V458.719H140.869V451.558H143.08C144.444 448.654 145.126 445.442 145.126 441.922V437.368H157.666V451.558ZM154.861 451.558V439.81H147.733V441.922C147.733 445.684 147.128 448.896 145.918 451.558H154.861ZM168.303 460.6H165.465L168.897 452.449L161.802 437.368H164.805L169.887 448.324H170.712L175.332 437.368H178.269L168.303 460.6ZM192.495 454L188.799 446.674H183.816V454H181.011V437.368H183.816V444.232H188.865L192.33 437.368H195.267L191.208 445.387L195.498 454H192.495ZM197.2 439.81V437.368H211.522V439.81H205.78V454H202.975V439.81H197.2ZM220.767 430.009C222.923 430.009 224.639 430.592 225.915 431.758C227.213 432.902 227.862 434.442 227.862 436.378C227.862 437.214 227.774 437.94 227.598 438.556C227.444 439.172 227.125 439.766 226.641 440.338C226.179 440.91 225.794 441.339 225.486 441.625C225.178 441.911 224.628 442.373 223.836 443.011C222.956 443.693 222.373 444.254 222.087 444.694C221.823 445.112 221.691 445.827 221.691 446.839V447.763H218.853V446.839C218.853 445.893 218.974 445.101 219.216 444.463C219.48 443.803 219.799 443.275 220.173 442.879C220.569 442.461 221.185 441.911 222.021 441.229C222.747 440.635 223.286 440.173 223.638 439.843C223.99 439.491 224.309 439.018 224.595 438.424C224.881 437.83 225.024 437.148 225.024 436.378C225.024 435.3 224.639 434.376 223.869 433.606C223.121 432.836 222.098 432.451 220.8 432.451C217.962 432.451 216.466 433.914 216.312 436.84H213.474C213.562 434.706 214.244 433.034 215.52 431.824C216.818 430.614 218.567 430.009 220.767 430.009ZM221.988 454H218.556V450.172H221.988V454Z" fill="black"/>
<path d="M349.9 374.008H356.995C359.503 374.008 361.439 374.624 362.803 375.856C364.189 377.088 364.882 378.804 364.882 381.004C364.882 383.204 364.189 384.92 362.803 386.152C361.439 387.384 359.503 388 356.995 388H346.93V364.438H363.067V367.144H349.9V374.008ZM349.9 385.36H356.5C358.414 385.36 359.789 384.986 360.625 384.238C361.483 383.49 361.912 382.401 361.912 380.971C361.912 378.067 360.108 376.615 356.5 376.615H349.9V385.36ZM367.929 383.182H370.668C371.13 385.052 372.615 385.987 375.123 385.987C376.641 385.987 377.84 385.503 378.72 384.535C379.622 383.567 380.117 382.302 380.205 380.74H372.714V378.364H380.172C380.04 376.846 379.545 375.636 378.687 374.734C377.851 373.832 376.663 373.381 375.123 373.381C372.747 373.381 371.306 374.25 370.8 375.988H368.061C368.391 374.448 369.172 373.227 370.404 372.325C371.636 371.401 373.198 370.939 375.09 370.939C377.554 370.939 379.501 371.753 380.931 373.381C382.361 374.987 383.076 377.088 383.076 379.684C383.076 382.302 382.361 384.414 380.931 386.02C379.501 387.626 377.543 388.429 375.057 388.429C373.187 388.429 371.603 387.945 370.305 386.977C369.029 386.009 368.237 384.744 367.929 383.182ZM390.85 388H386.89V371.368H389.629V384.238H390.355L397.648 371.368H401.74V388H399.001V375.13H398.275L390.85 388ZM397.12 364.108H399.397C399.353 365.648 398.88 366.836 397.978 367.672C397.076 368.508 395.833 368.926 394.249 368.926C392.687 368.926 391.455 368.508 390.553 367.672C389.651 366.836 389.178 365.648 389.134 364.108H391.411C391.455 365.978 392.401 366.913 394.249 366.913C396.053 366.913 397.01 365.978 397.12 364.108ZM404.883 373.81V371.368H419.205V373.81H413.463V388H410.658V373.81H404.883ZM444.464 388H441.659V380.674H432.452V388H429.647V371.368H432.452V378.232H441.659V371.368H444.464V388ZM459.917 388V386.251H459.191C458.047 387.703 456.32 388.429 454.01 388.429C452.184 388.429 450.732 387.901 449.654 386.845C448.576 385.789 448.037 384.513 448.037 383.017C448.037 381.499 448.565 380.201 449.621 379.123C450.677 378.045 452.272 377.506 454.406 377.506H459.818V376.846C459.818 375.79 459.488 374.954 458.828 374.338C458.168 373.7 457.145 373.381 455.759 373.381C453.339 373.381 452.052 374.184 451.898 375.79H449.093C449.203 374.272 449.852 373.084 451.04 372.226C452.25 371.368 453.801 370.939 455.693 370.939C457.827 370.939 459.499 371.434 460.709 372.424C461.941 373.414 462.557 374.833 462.557 376.681V388H459.917ZM454.703 385.987C456.089 385.987 457.288 385.536 458.3 384.634C459.312 383.71 459.818 382.588 459.818 381.268V379.75H454.835C452.173 379.75 450.842 380.806 450.842 382.918C450.842 383.864 451.172 384.612 451.832 385.162C452.514 385.712 453.471 385.987 454.703 385.987ZM471.093 388H467.133V371.368H469.872V384.238H470.598L477.891 371.368H481.983V388H479.244V375.13H478.518L471.093 388ZM477.363 364.108H479.64C479.596 365.648 479.123 366.836 478.221 367.672C477.319 368.508 476.076 368.926 474.492 368.926C472.93 368.926 471.698 368.508 470.796 367.672C469.894 366.836 469.421 365.648 469.377 364.108H471.654C471.698 365.978 472.644 366.913 474.492 366.913C476.296 366.913 477.253 365.978 477.363 364.108ZM501.659 385.558H504.728V392.719H501.989V388H487.601V392.719H484.862V385.558H487.073C488.437 382.654 489.119 379.442 489.119 375.922V371.368H501.659V385.558ZM498.854 385.558V373.81H491.726V375.922C491.726 379.684 491.121 382.896 489.911 385.558H498.854ZM522.229 378.694V379.651H509.557C509.601 381.653 510.074 383.215 510.976 384.337C511.878 385.437 513.176 385.987 514.87 385.987C517.158 385.987 518.566 385.129 519.094 383.413H521.932C521.646 384.909 520.887 386.119 519.655 387.043C518.445 387.967 516.85 388.429 514.87 388.429C512.34 388.429 510.36 387.604 508.93 385.954C507.5 384.304 506.785 382.159 506.785 379.519C506.785 376.923 507.5 374.844 508.93 373.282C510.36 371.72 512.318 370.939 514.804 370.939C517.158 370.939 518.973 371.687 520.249 373.183C521.525 374.657 522.185 376.494 522.229 378.694ZM514.738 373.381C513.308 373.381 512.164 373.755 511.306 374.503C510.448 375.229 509.92 376.164 509.722 377.308H519.325C519.237 376.186 518.786 375.251 517.972 374.503C517.158 373.755 516.08 373.381 514.738 373.381ZM523.772 373.81V371.368H538.094V373.81H532.352V388H529.547V373.81H523.772ZM356.905 408.427C356.905 406.414 355.09 405.424 352.483 405.424C350.8 405.424 349.249 405.952 347.863 407.041C346.51 408.097 345.454 409.384 344.761 410.935C344.068 412.453 343.738 414.004 343.738 415.555C343.738 419.02 345.421 421.462 348.985 421.462C351.064 421.462 352.747 420.967 353.968 419.977C355.189 418.987 355.816 417.766 355.816 416.281C355.816 414.565 354.826 412.981 352.351 412.816C353.869 412.42 354.991 411.793 355.75 410.902C356.509 410.011 356.905 409.186 356.905 408.427ZM352.945 416.116C352.945 417.403 352.582 418.459 351.823 419.284C351.097 420.109 350.305 420.505 349.414 420.505C347.665 420.505 346.774 419.152 346.774 416.413C346.774 415.588 346.84 414.796 346.939 414.037C348.193 413.542 349.414 413.311 350.635 413.311C352.054 413.311 352.945 414.532 352.945 416.116ZM352.153 406.348C353.341 406.348 354.232 407.107 354.232 408.427C354.232 409.846 353.077 411.562 350.932 412.387C349.48 412.519 348.193 412.783 347.071 413.146C347.368 411.265 347.995 409.681 348.952 408.361C349.909 407.008 350.965 406.348 352.153 406.348ZM369.017 419.416C369.017 420.736 369.545 421.462 371.03 421.462C372.812 421.462 374.528 419.713 376.211 416.248L375.485 415.819C374.231 418.591 373.175 419.977 372.317 419.977C371.888 419.977 371.657 419.713 371.657 419.185C371.657 418.624 371.822 417.733 372.185 416.512L375.122 405.886H371.921L370.469 411.43C369.974 413.311 369.083 415.159 367.763 417.04C366.476 418.921 365.288 419.845 364.265 419.845C363.374 419.845 362.945 419.284 362.945 418.129C362.945 417.469 363.11 416.512 363.44 415.291L364.397 411.694C364.958 409.615 365.222 408.262 365.222 407.635C365.222 406.15 364.43 405.424 362.879 405.424C361.064 405.424 359.348 407.173 357.698 410.671L358.424 411.1C359.678 408.328 360.701 406.942 361.526 406.942C361.955 406.942 362.186 407.206 362.186 407.734C362.153 408.559 361.955 409.516 361.658 410.605L360.206 415.654C359.909 416.677 359.744 417.667 359.744 418.558C359.744 420.505 360.767 421.462 362.78 421.462C364.1 421.462 365.387 420.835 366.641 419.581C367.928 418.294 369.017 416.677 369.908 414.697C369.314 416.743 369.017 418.327 369.017 419.416ZM403.008 415.786C401.919 418.162 400.632 419.944 399.873 419.944C399.444 419.944 399.213 419.68 399.213 419.152C399.213 418.459 399.378 417.535 399.741 416.314L401.193 411.232C401.523 410.11 401.688 409.12 401.688 408.262C401.688 406.381 400.731 405.424 398.784 405.424C397.563 405.424 396.243 406.084 394.89 407.371C393.537 408.658 392.415 410.275 391.524 412.222C392.019 410.407 392.25 409.054 392.25 408.163C392.25 406.348 391.425 405.424 389.742 405.424C388.488 405.424 387.168 406.051 385.815 407.305C384.462 408.559 383.34 410.209 382.449 412.222C383.043 409.945 383.34 408.361 383.34 407.503C383.34 406.15 382.845 405.424 381.36 405.424C379.38 405.424 377.763 407.371 376.179 410.671L376.905 411.1C377.928 408.724 379.215 406.942 380.04 406.942C380.469 406.942 380.7 407.206 380.7 407.734C380.7 408.163 380.535 409.054 380.172 410.407L377.334 421H380.436L382.02 415.126C382.515 413.377 383.406 411.595 384.693 409.78C385.98 407.965 387.102 407.074 387.993 407.074C389.049 407.074 389.412 407.536 389.412 408.724C389.412 409.384 389.247 410.341 388.917 411.628L386.343 421H389.445L391.062 415.126C391.524 413.443 392.415 411.694 393.702 409.846C395.022 407.998 396.144 407.074 397.035 407.074C398.124 407.074 398.487 407.536 398.487 408.724C398.487 409.351 398.322 410.341 397.959 411.628L397.002 415.225C396.474 417.106 396.21 418.459 396.21 419.284C396.21 420.736 396.969 421.462 398.52 421.462C400.5 421.462 402.117 419.515 403.701 416.215L403.008 415.786ZM420.485 415.786C419.99 416.941 419.429 417.931 418.835 418.756C418.274 419.548 417.812 419.944 417.449 419.944C416.954 419.944 416.723 419.68 416.723 419.119C416.723 418.426 416.987 417.205 417.482 415.39L420.089 405.886H416.987L416.063 409.384C415.832 406.876 414.479 405.424 412.466 405.424C408.242 405.292 404.216 411.232 404.348 416.38C404.348 419.515 405.833 421.462 408.473 421.462C410.816 421.462 413.093 419.713 414.38 416.71C414.149 417.667 414.017 418.36 414.017 418.822C414.017 420.571 414.677 421.462 415.964 421.462C417.779 421.462 419.528 419.713 421.211 416.215L420.485 415.786ZM409.628 420.241C408.209 420.241 407.351 419.119 407.351 416.875C407.351 415.588 407.582 414.136 408.077 412.585C408.572 411.034 409.265 409.648 410.156 408.46C411.08 407.239 412.07 406.645 413.093 406.645C414.38 406.645 415.37 407.767 415.37 410.176C415.37 411.463 415.139 412.882 414.644 414.433C414.149 415.984 413.456 417.337 412.532 418.492C411.641 419.647 410.651 420.241 409.628 420.241ZM422.398 420.703C421.87 420.703 421.606 420.538 421.606 420.175C422.497 420.175 422.959 419.548 422.959 418.756C422.959 417.997 422.431 417.403 421.804 417.403C420.913 417.403 420.253 418.294 420.253 419.317C420.253 420.505 421.21 421.429 422.365 421.429C423.454 421.429 424.312 420.703 425.038 419.68C425.533 419.02 426.061 417.667 426.358 416.776C426.523 416.314 426.754 415.687 426.985 414.895L427.579 412.882C427.744 412.321 427.942 411.562 428.173 410.605L428.833 408.262C429.427 410.077 429.79 414.4 429.889 421.231H430.747L439.03 407.635L436.819 415.852C436.39 417.403 436.159 418.558 436.159 419.317C436.159 420.604 436.918 421.462 438.469 421.462C440.35 421.462 442.132 419.713 443.782 416.248L443.089 415.819C442 418.228 440.779 419.977 439.954 419.977C439.492 419.977 439.261 419.68 439.261 419.119C439.261 418.69 439.426 417.799 439.789 416.446L442.66 405.886H439.03L432.661 416.71C432.463 409.186 431.209 405.424 428.866 405.424C426.919 405.424 425.071 407.206 423.355 410.737L424.114 411.067C425.203 408.46 426.523 407.041 427.546 407.041C427.744 407.041 427.942 407.107 428.107 407.239C426.721 412.618 425.665 416.182 424.972 417.997C424.279 419.812 423.421 420.703 422.398 420.703ZM455.396 419.416C455.396 420.736 455.924 421.462 457.409 421.462C459.191 421.462 460.907 419.713 462.59 416.248L461.864 415.819C460.61 418.591 459.554 419.977 458.696 419.977C458.267 419.977 458.036 419.713 458.036 419.185C458.036 418.624 458.201 417.733 458.564 416.512L461.501 405.886H458.3L456.848 411.43C456.353 413.311 455.462 415.159 454.142 417.04C452.855 418.921 451.667 419.845 450.644 419.845C449.753 419.845 449.324 419.284 449.324 418.129C449.324 417.469 449.489 416.512 449.819 415.291L450.776 411.694C451.337 409.615 451.601 408.262 451.601 407.635C451.601 406.15 450.809 405.424 449.258 405.424C447.443 405.424 445.727 407.173 444.077 410.671L444.803 411.1C446.057 408.328 447.08 406.942 447.905 406.942C448.334 406.942 448.565 407.206 448.565 407.734C448.532 408.559 448.334 409.516 448.037 410.605L446.585 415.654C446.288 416.677 446.123 417.667 446.123 418.558C446.123 420.505 447.146 421.462 449.159 421.462C450.479 421.462 451.766 420.835 453.02 419.581C454.307 418.294 455.396 416.677 456.287 414.697C455.693 416.743 455.396 418.327 455.396 419.416ZM480.642 415.786C479.355 418.558 478.332 419.944 477.507 419.944C477.045 419.944 476.814 419.68 476.814 419.119C476.814 418.558 477.012 417.634 477.375 416.38L480.312 405.886H477.144L475.362 412.453H469.257L469.587 411.331C470.016 409.78 470.247 408.493 470.247 407.536C470.247 406.249 469.455 405.424 467.904 405.424C466.089 405.424 464.34 407.173 462.723 410.671L463.416 411.1C464.703 408.328 465.759 406.942 466.584 406.942C467.046 406.942 467.277 407.206 467.277 407.734C467.343 408.295 466.848 409.912 466.749 410.407L463.812 421H466.98L468.96 413.608H475.032L474.603 415.225C474.075 417.172 473.811 418.525 473.811 419.284C473.811 420.736 474.603 421.462 476.187 421.462C477.936 421.462 479.652 419.713 481.335 416.215L480.642 415.786ZM499.546 415.786C498.259 418.558 497.236 419.944 496.411 419.944C495.949 419.944 495.718 419.68 495.718 419.119C495.718 418.558 495.916 417.634 496.279 416.38L499.216 405.886H496.048L494.266 412.453H488.161L488.491 411.331C488.92 409.78 489.151 408.493 489.151 407.536C489.151 406.249 488.359 405.424 486.808 405.424C484.993 405.424 483.244 407.173 481.627 410.671L482.32 411.1C483.607 408.328 484.663 406.942 485.488 406.942C485.95 406.942 486.181 407.206 486.181 407.734C486.247 408.295 485.752 409.912 485.653 410.407L482.716 421H485.884L487.864 413.608H493.936L493.507 415.225C492.979 417.172 492.715 418.525 492.715 419.284C492.715 420.736 493.507 421.462 495.091 421.462C496.84 421.462 498.556 419.713 500.239 416.215L499.546 415.786ZM515.645 407.371C515.645 406.447 515.084 405.49 514.259 405.49C513.566 405.49 513.005 406.084 513.005 406.876C513.005 407.569 513.467 408.262 514.358 408.955C514.061 411.232 512.873 414.4 510.761 418.393C509.936 413.641 509.177 410.308 508.451 408.361C507.758 406.414 506.702 405.424 505.316 405.424C503.336 405.424 502.148 407.338 500.96 410.737L501.686 411.067C502.709 408.46 503.336 407.338 504.095 407.338C504.788 407.338 505.415 408.361 506.009 410.374C506.603 412.387 507.428 416.05 508.451 421.396C506.372 424.663 504.128 426.676 502.511 426.676C501.851 426.676 501.455 426.577 501.29 426.346C502.082 426.346 502.841 425.752 502.841 424.828C502.841 424.003 502.214 423.211 501.389 423.211C500.597 423.211 499.673 423.805 499.673 425.224C499.673 426.445 500.597 427.567 502.445 427.567C504.656 427.567 507.527 424.96 510.134 421C511.85 418.393 513.203 415.852 514.16 413.443C515.15 411.034 515.645 408.988 515.645 407.371ZM538.3 411.562C538.3 407.965 536.32 405.424 532.855 405.424C530.875 405.424 529.159 406.084 527.674 407.404C526.222 408.724 525.232 410.44 524.704 412.552H522.262L523.021 409.747C523.252 408.922 523.351 408.13 523.351 407.404C523.351 406.249 522.493 405.424 521.008 405.424C519.985 405.424 518.962 405.952 517.939 407.041C516.949 408.097 516.223 409.318 515.728 410.671L516.421 411.1C517.51 408.691 518.83 406.942 519.655 406.942C520.084 406.942 520.282 407.206 520.282 407.767C520.282 408.064 520.15 408.724 519.919 409.681L516.817 421H519.985L521.965 413.674H524.506C524.407 414.136 524.374 414.73 524.374 415.423C524.374 419.02 526.321 421.462 529.753 421.462C532.162 421.462 534.208 420.472 535.825 418.459C537.475 416.446 538.3 414.136 538.3 411.562ZM535.231 410.572C535.231 413.938 533.581 420.538 529.918 420.538C528.466 420.538 527.344 419.053 527.344 416.413C527.344 414.73 527.74 412.486 528.532 410.275C529.324 408.064 530.875 406.381 532.69 406.381C534.373 406.381 535.231 407.767 535.231 410.572ZM342.959 448.786C342.464 449.941 341.903 450.931 341.309 451.756C340.748 452.548 340.286 452.944 339.923 452.944C339.428 452.944 339.197 452.68 339.197 452.119C339.197 451.426 339.461 450.205 339.956 448.39L342.563 438.886H339.461L338.537 442.384C338.306 439.876 336.953 438.424 334.94 438.424C330.716 438.292 326.69 444.232 326.822 449.38C326.822 452.515 328.307 454.462 330.947 454.462C333.29 454.462 335.567 452.713 336.854 449.71C336.623 450.667 336.491 451.36 336.491 451.822C336.491 453.571 337.151 454.462 338.438 454.462C340.253 454.462 342.002 452.713 343.685 449.215L342.959 448.786ZM332.102 453.241C330.683 453.241 329.825 452.119 329.825 449.875C329.825 448.588 330.056 447.136 330.551 445.585C331.046 444.034 331.739 442.648 332.63 441.46C333.554 440.239 334.544 439.645 335.567 439.645C336.854 439.645 337.844 440.767 337.844 443.176C337.844 444.463 337.613 445.882 337.118 447.433C336.623 448.984 335.93 450.337 335.006 451.492C334.115 452.647 333.125 453.241 332.102 453.241ZM344.839 454.363C345.763 454.363 346.522 453.967 347.182 452.944C347.842 451.921 348.304 451.063 348.865 449.248C349.162 448.357 349.393 447.565 349.558 446.872L350.317 444.067L351.142 441.163C351.406 440.206 351.769 439.81 352.594 439.81H353.881C354.937 439.81 355.465 440.404 355.465 441.592C355.465 441.988 355.366 442.516 355.201 443.143L353.419 449.512C353.122 450.535 352.957 451.558 352.957 452.515C352.957 453.67 353.848 454.462 355.333 454.462C357.214 454.462 358.963 452.713 360.646 449.248L359.92 448.819C358.633 451.591 357.61 452.977 356.785 452.977C356.356 452.977 356.125 452.68 356.125 452.086C356.125 451.525 356.323 450.601 356.686 449.281L358.303 443.506C358.501 442.813 358.6 442.12 358.6 441.46C358.6 439.744 357.61 438.886 355.663 438.886H348.436L348.172 439.81H349.492C350.053 439.81 350.35 440.008 350.35 440.437C350.35 440.47 350.317 440.734 350.218 441.163C348.964 446.08 347.974 449.38 347.248 451.096C346.555 452.779 345.73 453.637 344.773 453.637C344.311 453.637 344.08 453.472 344.08 453.109C344.971 453.109 345.433 452.482 345.433 451.69C345.433 450.931 344.905 450.337 344.278 450.337C343.387 450.337 342.727 451.228 342.727 452.251C342.727 453.439 343.684 454.363 344.839 454.363ZM374.704 447.763C374.704 446.674 374.407 445.684 373.846 444.859C373.285 444.001 372.295 443.572 370.876 443.572C369.523 443.572 368.335 444.166 367.312 445.354L367.84 443.671C368.269 442.186 368.5 441.196 368.5 440.635C368.5 439.282 367.675 438.457 366.124 438.457C364.243 438.457 362.461 440.206 360.811 443.671L361.504 444.1C362.593 441.724 363.979 439.942 364.804 439.942C365.233 439.942 365.464 440.206 365.464 440.767C365.464 441.196 365.266 442.087 364.837 443.374L363.418 448.027C363.187 448.786 363.088 449.479 363.088 450.106C363.088 452.713 364.837 454.462 367.84 454.462C369.886 454.462 371.536 453.769 372.79 452.35C374.077 450.931 374.704 449.38 374.704 447.763ZM371.866 447.763C371.866 449.215 371.503 450.568 370.777 451.789C370.051 453.01 369.226 453.637 368.302 453.637C366.817 453.637 366.058 452.647 366.058 450.667C366.058 449.05 366.454 447.664 367.246 446.509C368.071 445.354 368.863 444.76 369.688 444.76C371.14 444.76 371.866 445.75 371.866 447.763ZM402.16 448.786C401.071 451.162 399.784 452.944 399.025 452.944C398.596 452.944 398.365 452.68 398.365 452.152C398.365 451.459 398.53 450.535 398.893 449.314L400.345 444.232C400.675 443.11 400.84 442.12 400.84 441.262C400.84 439.381 399.883 438.424 397.936 438.424C396.715 438.424 395.395 439.084 394.042 440.371C392.689 441.658 391.567 443.275 390.676 445.222C391.171 443.407 391.402 442.054 391.402 441.163C391.402 439.348 390.577 438.424 388.894 438.424C387.64 438.424 386.32 439.051 384.967 440.305C383.614 441.559 382.492 443.209 381.601 445.222C382.195 442.945 382.492 441.361 382.492 440.503C382.492 439.15 381.997 438.424 380.512 438.424C378.532 438.424 376.915 440.371 375.331 443.671L376.057 444.1C377.08 441.724 378.367 439.942 379.192 439.942C379.621 439.942 379.852 440.206 379.852 440.734C379.852 441.163 379.687 442.054 379.324 443.407L376.486 454H379.588L381.172 448.126C381.667 446.377 382.558 444.595 383.845 442.78C385.132 440.965 386.254 440.074 387.145 440.074C388.201 440.074 388.564 440.536 388.564 441.724C388.564 442.384 388.399 443.341 388.069 444.628L385.495 454H388.597L390.214 448.126C390.676 446.443 391.567 444.694 392.854 442.846C394.174 440.998 395.296 440.074 396.187 440.074C397.276 440.074 397.639 440.536 397.639 441.724C397.639 442.351 397.474 443.341 397.111 444.628L396.154 448.225C395.626 450.106 395.362 451.459 395.362 452.284C395.362 453.736 396.121 454.462 397.672 454.462C399.652 454.462 401.269 452.515 402.853 449.215L402.16 448.786ZM416.536 441.658C416.536 439.513 415.117 438.424 412.246 438.424C410.563 438.424 409.045 438.952 407.659 440.041C406.306 441.097 405.25 442.384 404.557 443.935C403.864 445.453 403.534 446.971 403.534 448.522C403.534 451.954 405.415 454.462 408.814 454.462C410.035 454.462 411.256 454.033 412.477 453.175C413.731 452.284 414.754 451.096 415.513 449.578L414.853 449.149C413.434 451.756 411.454 453.142 409.606 453.142C407.659 453.142 406.603 451.756 406.57 449.215C406.57 448.852 406.603 448.456 406.669 448.06C409.804 447.565 412.213 446.707 413.929 445.42C415.678 444.133 416.536 442.879 416.536 441.658ZM413.896 441.526C413.896 442.681 413.368 443.77 412.345 444.859C411.322 445.915 409.474 446.674 406.801 447.136C407.032 445.255 407.626 443.473 408.583 441.856C409.54 440.206 410.662 439.381 411.949 439.381C413.236 439.381 413.896 440.107 413.896 441.526ZM434.035 443.473C434.035 440.47 432.616 438.424 430.075 438.424C427.699 438.424 425.389 440.305 423.838 443.473C424.135 442.12 424.3 441.13 424.3 440.536C424.3 439.117 423.607 438.424 422.254 438.424C420.439 438.424 418.69 440.173 417.073 443.671L417.766 444.1C419.053 441.328 420.109 439.942 420.967 439.942C421.792 439.942 421.759 440.8 421.066 443.407L417.139 457.96C416.875 458.983 416.545 459.28 415.72 459.28H414.532L414.301 460.204H422.584L422.815 459.28H420.967C420.406 459.28 420.109 459.082 420.109 458.686C420.109 458.455 420.142 458.224 420.241 457.96L422.32 450.139C422.353 452.746 423.805 454.462 426.049 454.462C427.501 454.462 428.854 453.901 430.108 452.779C431.362 451.624 432.319 450.238 433.012 448.555C433.705 446.872 434.035 445.156 434.035 443.473ZM431.032 442.978C431.032 444.298 430.801 445.75 430.339 447.334C429.877 448.885 429.184 450.271 428.293 451.492C427.402 452.68 426.412 453.274 425.389 453.274C423.772 453.274 422.947 451.657 422.947 449.182C422.947 447.301 423.574 445.255 424.828 443.044C426.082 440.8 427.402 439.678 428.755 439.678C430.174 439.678 431.032 440.833 431.032 442.978ZM452.705 448.786C451.418 451.558 450.395 452.944 449.57 452.944C449.108 452.944 448.877 452.68 448.877 452.119C448.877 451.558 449.075 450.634 449.438 449.38L452.375 438.886H449.207L447.425 445.453H441.32L441.65 444.331C442.079 442.78 442.31 441.493 442.31 440.536C442.31 439.249 441.518 438.424 439.967 438.424C438.152 438.424 436.403 440.173 434.786 443.671L435.479 444.1C436.766 441.328 437.822 439.942 438.647 439.942C439.109 439.942 439.34 440.206 439.34 440.734C439.406 441.295 438.911 442.912 438.812 443.407L435.875 454H439.043L441.023 446.608H447.095L446.666 448.225C446.138 450.172 445.874 451.525 445.874 452.284C445.874 453.736 446.666 454.462 448.25 454.462C449.999 454.462 451.715 452.713 453.398 449.215L452.705 448.786ZM470.355 448.786C469.86 449.941 469.299 450.931 468.705 451.756C468.144 452.548 467.682 452.944 467.319 452.944C466.824 452.944 466.593 452.68 466.593 452.119C466.593 451.426 466.857 450.205 467.352 448.39L469.959 438.886H466.857L465.933 442.384C465.702 439.876 464.349 438.424 462.336 438.424C458.112 438.292 454.086 444.232 454.218 449.38C454.218 452.515 455.703 454.462 458.343 454.462C460.686 454.462 462.963 452.713 464.25 449.71C464.019 450.667 463.887 451.36 463.887 451.822C463.887 453.571 464.547 454.462 465.834 454.462C467.649 454.462 469.398 452.713 471.081 449.215L470.355 448.786ZM459.498 453.241C458.079 453.241 457.221 452.119 457.221 449.875C457.221 448.588 457.452 447.136 457.947 445.585C458.442 444.034 459.135 442.648 460.026 441.46C460.95 440.239 461.94 439.645 462.963 439.645C464.25 439.645 465.24 440.767 465.24 443.176C465.24 444.463 465.009 445.882 464.514 447.433C464.019 448.984 463.326 450.337 462.402 451.492C461.511 452.647 460.521 453.241 459.498 453.241ZM498.033 448.786C496.944 451.162 495.657 452.944 494.898 452.944C494.469 452.944 494.238 452.68 494.238 452.152C494.238 451.459 494.403 450.535 494.766 449.314L496.218 444.232C496.548 443.11 496.713 442.12 496.713 441.262C496.713 439.381 495.756 438.424 493.809 438.424C492.588 438.424 491.268 439.084 489.915 440.371C488.562 441.658 487.44 443.275 486.549 445.222C487.044 443.407 487.275 442.054 487.275 441.163C487.275 439.348 486.45 438.424 484.767 438.424C483.513 438.424 482.193 439.051 480.84 440.305C479.487 441.559 478.365 443.209 477.474 445.222C478.068 442.945 478.365 441.361 478.365 440.503C478.365 439.15 477.87 438.424 476.385 438.424C474.405 438.424 472.788 440.371 471.204 443.671L471.93 444.1C472.953 441.724 474.24 439.942 475.065 439.942C475.494 439.942 475.725 440.206 475.725 440.734C475.725 441.163 475.56 442.054 475.197 443.407L472.359 454H475.461L477.045 448.126C477.54 446.377 478.431 444.595 479.718 442.78C481.005 440.965 482.127 440.074 483.018 440.074C484.074 440.074 484.437 440.536 484.437 441.724C484.437 442.384 484.272 443.341 483.942 444.628L481.368 454H484.47L486.087 448.126C486.549 446.443 487.44 444.694 488.727 442.846C490.047 440.998 491.169 440.074 492.06 440.074C493.149 440.074 493.512 440.536 493.512 441.724C493.512 442.351 493.347 443.341 492.984 444.628L492.027 448.225C491.499 450.106 491.235 451.459 491.235 452.284C491.235 453.736 491.994 454.462 493.545 454.462C495.525 454.462 497.142 452.515 498.726 449.215L498.033 448.786ZM510.164 452.416C510.164 453.736 510.692 454.462 512.177 454.462C513.959 454.462 515.675 452.713 517.358 449.248L516.632 448.819C515.378 451.591 514.322 452.977 513.464 452.977C513.035 452.977 512.804 452.713 512.804 452.185C512.804 451.624 512.969 450.733 513.332 449.512L516.269 438.886H513.068L511.616 444.43C511.121 446.311 510.23 448.159 508.91 450.04C507.623 451.921 506.435 452.845 505.412 452.845C504.521 452.845 504.092 452.284 504.092 451.129C504.092 450.469 504.257 449.512 504.587 448.291L505.544 444.694C506.105 442.615 506.369 441.262 506.369 440.635C506.369 439.15 505.577 438.424 504.026 438.424C502.211 438.424 500.495 440.173 498.845 443.671L499.571 444.1C500.825 441.328 501.848 439.942 502.673 439.942C503.102 439.942 503.333 440.206 503.333 440.734C503.3 441.559 503.102 442.516 502.805 443.605L501.353 448.654C501.056 449.677 500.891 450.667 500.891 451.558C500.891 453.505 501.914 454.462 503.927 454.462C505.247 454.462 506.534 453.835 507.788 452.581C509.075 451.294 510.164 449.677 511.055 447.697C510.461 449.743 510.164 451.327 510.164 452.416ZM531.219 441.427C531.219 439.414 529.404 438.424 526.797 438.424C525.114 438.424 523.563 438.952 522.177 440.041C520.824 441.097 519.768 442.384 519.075 443.935C518.382 445.453 518.052 447.004 518.052 448.555C518.052 452.02 519.735 454.462 523.299 454.462C525.378 454.462 527.061 453.967 528.282 452.977C529.503 451.987 530.13 450.766 530.13 449.281C530.13 447.565 529.14 445.981 526.665 445.816C528.183 445.42 529.305 444.793 530.064 443.902C530.823 443.011 531.219 442.186 531.219 441.427ZM527.259 449.116C527.259 450.403 526.896 451.459 526.137 452.284C525.411 453.109 524.619 453.505 523.728 453.505C521.979 453.505 521.088 452.152 521.088 449.413C521.088 448.588 521.154 447.796 521.253 447.037C522.507 446.542 523.728 446.311 524.949 446.311C526.368 446.311 527.259 447.532 527.259 449.116ZM526.467 439.348C527.655 439.348 528.546 440.107 528.546 441.427C528.546 442.846 527.391 444.562 525.246 445.387C523.794 445.519 522.507 445.783 521.385 446.146C521.682 444.265 522.309 442.681 523.266 441.361C524.223 440.008 525.279 439.348 526.467 439.348ZM546.804 440.371C546.804 439.447 546.243 438.49 545.418 438.49C544.725 438.49 544.164 439.084 544.164 439.876C544.164 440.569 544.626 441.262 545.517 441.955C545.22 444.232 544.032 447.4 541.92 451.393C541.095 446.641 540.336 443.308 539.61 441.361C538.917 439.414 537.861 438.424 536.475 438.424C534.495 438.424 533.307 440.338 532.119 443.737L532.845 444.067C533.868 441.46 534.495 440.338 535.254 440.338C535.947 440.338 536.574 441.361 537.168 443.374C537.762 445.387 538.587 449.05 539.61 454.396C537.531 457.663 535.287 459.676 533.67 459.676C533.01 459.676 532.614 459.577 532.449 459.346C533.241 459.346 534 458.752 534 457.828C534 457.003 533.373 456.211 532.548 456.211C531.756 456.211 530.832 456.805 530.832 458.224C530.832 459.445 531.756 460.567 533.604 460.567C535.815 460.567 538.686 457.96 541.293 454C543.009 451.393 544.362 448.852 545.319 446.443C546.309 444.034 546.804 441.988 546.804 440.371ZM551.145 447.169C551.574 445.453 552.3 443.539 553.323 441.46C554.346 439.348 555.237 437.434 555.996 435.751C556.755 434.035 557.118 432.55 557.118 431.263C557.118 430.339 556.392 429.844 555.633 429.844C554.016 429.844 552.927 431.428 552.3 434.167C552.003 435.52 551.772 436.873 551.607 438.259C551.442 439.645 551.211 441.196 550.98 442.945C550.749 444.694 550.518 446.08 550.254 447.169H551.145ZM551.046 452.416C551.046 451.36 550.254 450.502 549.297 450.502C548.274 450.502 547.515 451.426 547.515 452.482C547.515 453.505 548.274 454.297 549.231 454.297C550.254 454.297 551.046 453.439 551.046 452.416Z" fill="black"/>
<path fill-rule="evenodd" clip-rule="evenodd" d="M68.0987 755.835C65.4396 753.887 62.2292 752.838 58.9332 752.838H40.3314L27.1868 815.934H42.4593L44.0557 808.266L44.7627 809.145C47.1211 812.078 50.3315 814.207 53.9512 815.238C57.5708 816.27 61.4212 816.152 64.9711 814.902C68.5211 813.652 71.5956 811.331 73.7704 808.259C75.9452 805.187 77.1133 801.516 77.1133 797.753C77.1142 794.536 76.2615 791.377 74.6421 788.598C73.0227 785.818 70.6947 783.519 67.8958 781.933L67.1626 781.518L67.852 781.034C70.5487 779.139 72.5715 776.434 73.6269 773.311C74.6823 770.189 74.7153 766.811 73.7213 763.669C72.7272 760.526 70.7578 757.782 68.0987 755.835ZM78.1791 797.753C78.179 801.737 76.9425 805.623 74.6402 808.875C72.3379 812.127 69.0832 814.584 65.3252 815.907C61.5671 817.23 57.491 817.355 53.6592 816.263C50.1817 815.273 47.061 813.325 44.6475 810.653L43.3261 817H25.8761L39.4648 751.772L58.9331 751.772C58.9331 751.772 58.933 751.772 58.9331 751.772C62.4555 751.772 65.8867 752.894 68.7285 754.975C71.5703 757.056 73.6751 759.989 74.7375 763.347C75.7998 766.706 75.7645 770.316 74.6366 773.653C73.5958 776.732 71.6746 779.431 69.1194 781.421C71.7719 783.075 73.9851 785.353 75.5629 788.061C77.2773 791.003 78.1801 794.348 78.1791 797.753Z" fill="black"/>
<path fill-rule="evenodd" clip-rule="evenodd" d="M43.4255 768.346C43.4231 770.835 44.0206 773.287 45.1675 775.496C46.3144 777.705 47.9768 779.604 50.0139 781.034L50.7042 781.518L49.9703 781.933C47.1712 783.518 44.8429 785.818 43.2233 788.597C41.6037 791.377 40.7508 794.536 40.7517 797.753L39.6859 797.753C39.6849 794.348 40.5878 791.003 42.3024 788.061C43.8804 785.353 46.0937 783.075 48.7462 781.422C46.8666 779.959 45.3221 778.106 44.2216 775.987C42.9958 773.627 42.3571 771.005 42.3597 768.345L43.4255 768.346Z" fill="black"/>
</svg>
