<svg width="596" height="842" viewBox="0 0 596 842" fill="none" xmlns="http://www.w3.org/2000/svg">
<rect width="595" height="842" transform="translate(0.566406)" fill="white"/>
<rect x="25.0664" y="25" width="46" height="792" fill="#8EA5EB" fill-opacity="0.2"/>
<rect x="96.0664" y="25" width="47" height="792" fill="#8EA5EB" fill-opacity="0.2"/>
<rect x="168.066" y="25" width="46" height="792" fill="#8EA5EB" fill-opacity="0.2"/>
<rect x="239.066" y="25" width="46" height="792" fill="#8EA5EB" fill-opacity="0.2"/>
<rect x="381.066" y="25" width="47" height="792" fill="#8EA5EB" fill-opacity="0.2"/>
<rect x="453.066" y="25" width="46" height="792" fill="#8EA5EB" fill-opacity="0.2"/>
<rect x="310.066" y="25" width="46" height="792" fill="#8EA5EB" fill-opacity="0.2"/>
<rect x="524.066" y="25" width="46" height="792" fill="#8EA5EB" fill-opacity="0.2"/>
<path d="M25.0664 58H570.066" stroke="#8EA5EB"/>
<path d="M25.0664 91H570.066" stroke="#8EA5EB"/>
<path d="M25.0664 124H570.066" stroke="#8EA5EB"/>
<path d="M25.0664 157H570.066" stroke="#8EA5EB"/>
<path d="M25.0664 190H570.066" stroke="#8EA5EB"/>
<path d="M25.0664 223H570.066" stroke="#8EA5EB"/>
<path d="M25.0664 256H570.066" stroke="#8EA5EB"/>
<path d="M25.0664 289H570.066" stroke="#8EA5EB"/>
<path d="M25.0664 322H570.066" stroke="#8EA5EB"/>
<path d="M25.0664 355H570.066" stroke="#8EA5EB"/>
<path d="M25.0664 388H570.066" stroke="#8EA5EB"/>
<path d="M25.0664 421H570.066" stroke="#8EA5EB"/>
<path d="M25.0664 454H570.066" stroke="#8EA5EB"/>
<path d="M25.0664 487H570.066" stroke="#8EA5EB"/>
<path d="M25.0664 520H570.066" stroke="#8EA5EB"/>
<path d="M25.0664 553H570.066" stroke="#8EA5EB"/>
<path d="M25.0664 586H570.066" stroke="#8EA5EB"/>
<path d="M25.0664 619H570.066" stroke="#8EA5EB"/>
<path d="M25.0664 652H570.066" stroke="#8EA5EB"/>
<path d="M25.0664 684.909H570.066" stroke="#8EA5EB"/>
<path d="M25.0664 718.341H570.066" stroke="#8EA5EB"/>
<path d="M25.0664 751H570.066" stroke="#8EA5EB"/>
<path d="M25.0664 784H570.066" stroke="#8EA5EB"/>
<path d="M191.773 175.535H197.713V222.659H191.773V201.143H165.439V222.659H159.499V175.535H165.439V195.599H191.773V175.535ZM236.834 204.047V205.961H211.49C211.578 209.965 212.524 213.089 214.328 215.333C216.132 217.533 218.728 218.633 222.116 218.633C226.692 218.633 229.508 216.917 230.564 213.485H236.24C235.668 216.477 234.15 218.897 231.686 220.745C229.266 222.593 226.076 223.517 222.116 223.517C217.056 223.517 213.096 221.867 210.236 218.567C207.376 215.267 205.946 210.977 205.946 205.697C205.946 200.505 207.376 196.347 210.236 193.223C213.096 190.099 217.012 188.537 221.984 188.537C226.692 188.537 230.322 190.033 232.874 193.025C235.426 195.973 236.746 199.647 236.834 204.047ZM221.852 193.421C218.992 193.421 216.704 194.169 214.988 195.665C213.272 197.117 212.216 198.987 211.82 201.275H231.026C230.85 199.031 229.948 197.161 228.32 195.665C226.692 194.169 224.536 193.421 221.852 193.421ZM290.536 204.047V205.961H265.192C265.28 209.965 266.226 213.089 268.03 215.333C269.834 217.533 272.43 218.633 275.818 218.633C280.394 218.633 283.21 216.917 284.266 213.485H289.942C289.37 216.477 287.852 218.897 285.388 220.745C282.968 222.593 279.778 223.517 275.818 223.517C270.758 223.517 266.798 221.867 263.938 218.567C261.078 215.267 259.648 210.977 259.648 205.697C259.648 200.505 261.078 196.347 263.938 193.223C266.798 190.099 270.714 188.537 275.686 188.537C280.394 188.537 284.024 190.033 286.576 193.025C289.128 195.973 290.448 199.647 290.536 204.047ZM275.554 193.421C272.694 193.421 270.406 194.169 268.69 195.665C266.974 197.117 265.918 198.987 265.522 201.275H284.728C284.552 199.031 283.65 197.161 282.022 195.665C280.394 194.169 278.238 193.421 275.554 193.421ZM327.782 217.775H333.92V232.097H328.442V222.659H299.666V232.097H294.188V217.775H298.61C301.338 211.967 302.702 205.543 302.702 198.503V189.395H327.782V217.775ZM322.172 217.775V194.279H307.916V198.503C307.916 206.027 306.706 212.451 304.286 217.775H322.172ZM348.001 222.659H340.081V189.395H345.559V215.135H347.011L361.597 189.395H369.781V222.659H364.303V196.919H362.851L348.001 222.659ZM376.068 194.279V189.395H404.712V194.279H393.228V222.659H387.618V194.279H376.068ZM439.317 204.047V205.961H413.973C414.061 209.965 415.007 213.089 416.811 215.333C418.615 217.533 421.211 218.633 424.599 218.633C429.175 218.633 431.991 216.917 433.047 213.485H438.723C438.151 216.477 436.633 218.897 434.169 220.745C431.749 222.593 428.559 223.517 424.599 223.517C419.539 223.517 415.579 221.867 412.719 218.567C409.859 215.267 408.429 210.977 408.429 205.697C408.429 200.505 409.859 196.347 412.719 193.223C415.579 190.099 419.495 188.537 424.467 188.537C429.175 188.537 432.805 190.033 435.357 193.025C437.909 195.973 439.229 199.647 439.317 204.047ZM424.335 193.421C421.475 193.421 419.187 194.169 417.471 195.665C415.755 197.117 414.699 198.987 414.303 201.275H433.509C433.333 199.031 432.431 197.161 430.803 195.665C429.175 194.169 427.019 193.421 424.335 193.421ZM145.722 288.659L138.33 274.007H128.364V288.659H122.754V255.395H128.364V269.123H138.462L145.392 255.395H151.266L143.148 271.433L151.728 288.659H145.722ZM179.75 288.659V285.161H178.298C176.01 288.065 172.556 289.517 167.936 289.517C164.284 289.517 161.38 288.461 159.224 286.349C157.068 284.237 155.99 281.685 155.99 278.693C155.99 275.657 157.046 273.061 159.158 270.905C161.27 268.749 164.46 267.671 168.728 267.671H179.552V266.351C179.552 264.239 178.892 262.567 177.572 261.335C176.252 260.059 174.206 259.421 171.434 259.421C166.594 259.421 164.02 261.027 163.712 264.239H158.102C158.322 261.203 159.62 258.827 161.996 257.111C164.416 255.395 167.518 254.537 171.302 254.537C175.57 254.537 178.914 255.527 181.334 257.507C183.798 259.487 185.03 262.325 185.03 266.021V288.659H179.75ZM169.322 284.633C172.094 284.633 174.492 283.731 176.516 281.927C178.54 280.079 179.552 277.835 179.552 275.195V272.159H169.586C164.262 272.159 161.6 274.271 161.6 278.495C161.6 280.387 162.26 281.883 163.58 282.983C164.944 284.083 166.858 284.633 169.322 284.633ZM217.148 288.659L209.756 274.007H199.79V288.659H194.18V255.395H199.79V269.123H209.888L216.818 255.395H222.692L214.574 271.433L223.154 288.659H217.148ZM231.333 259.487C234.281 256.187 238.285 254.537 243.345 254.537C248.405 254.537 252.387 256.187 255.291 259.487C258.239 262.787 259.713 266.967 259.713 272.027C259.713 277.087 258.239 281.267 255.291 284.567C252.387 287.867 248.405 289.517 243.345 289.517C238.285 289.517 234.281 287.867 231.333 284.567C228.429 281.267 226.977 277.087 226.977 272.027C226.977 266.967 228.429 262.787 231.333 259.487ZM235.359 281.003C237.207 283.423 239.869 284.633 243.345 284.633C246.821 284.633 249.483 283.423 251.331 281.003C253.179 278.539 254.103 275.547 254.103 272.027C254.103 268.507 253.179 265.537 251.331 263.117C249.483 260.653 246.821 259.421 243.345 259.421C239.869 259.421 237.207 260.653 235.359 263.117C233.511 265.537 232.587 268.507 232.587 272.027C232.587 275.547 233.511 278.539 235.359 281.003ZM275.266 288.659H267.346V255.395H272.824V281.135H274.276L288.862 255.395H297.046V288.659H291.568V262.919H290.116L275.266 288.659ZM287.806 240.875H292.36C292.272 243.955 291.326 246.331 289.522 248.003C287.718 249.675 285.232 250.511 282.064 250.511C278.94 250.511 276.476 249.675 274.672 248.003C272.868 246.331 271.922 243.955 271.834 240.875H276.388C276.476 244.615 278.368 246.485 282.064 246.485C285.672 246.485 287.586 244.615 287.806 240.875ZM322.606 272.819H304.588V267.869H322.606V272.819ZM325.085 288.659V283.379H326.207C328.539 283.379 330.211 282.301 331.223 280.145C332.235 277.945 332.741 273.985 332.741 268.265V255.395H358.217V288.659H352.541V260.279H337.955V268.397C337.955 275.921 337.031 281.179 335.183 284.171C333.379 287.163 330.387 288.659 326.207 288.659H325.085ZM375.799 288.659H367.879V255.395H373.357V281.135H374.809L389.395 255.395H397.579V288.659H392.101V262.919H390.649L375.799 288.659ZM422.478 255.725C427.362 255.725 431.212 257.331 434.028 260.543C436.844 263.711 438.252 267.737 438.252 272.621C438.252 277.461 436.756 281.487 433.764 284.699C430.816 287.911 426.834 289.517 421.818 289.517C416.538 289.517 412.446 287.779 409.542 284.303C406.682 280.827 405.252 275.855 405.252 269.387C405.252 266.879 405.318 264.635 405.45 262.655C405.626 260.675 405.978 258.607 406.506 256.451C407.078 254.295 407.826 252.469 408.75 250.973C409.674 249.433 410.95 248.091 412.578 246.947C414.206 245.803 416.142 245.055 418.386 244.703L427.23 243.251C428.462 243.075 429.276 242.833 429.672 242.525C430.112 242.217 430.376 241.601 430.464 240.677H435.678C435.59 242.745 435.084 244.395 434.16 245.627C433.236 246.815 431.564 247.629 429.144 248.069L418.914 249.785C416.142 250.269 414.096 251.435 412.776 253.283C411.5 255.087 410.664 257.507 410.268 260.543H411.72C413.084 258.739 414.602 257.485 416.274 256.781C417.99 256.077 420.058 255.725 422.478 255.725ZM413.634 281.135C415.526 283.467 418.21 284.633 421.686 284.633C425.162 284.633 427.824 283.467 429.672 281.135C431.564 278.759 432.51 275.899 432.51 272.555C432.51 269.211 431.564 266.373 429.672 264.041C427.824 261.709 425.162 260.543 421.686 260.543C418.21 260.543 415.526 261.709 413.634 264.041C411.786 266.373 410.862 269.211 410.862 272.555C410.862 275.899 411.786 278.759 413.634 281.135ZM448.189 259.487C451.137 256.187 455.141 254.537 460.201 254.537C465.261 254.537 469.243 256.187 472.147 259.487C475.095 262.787 476.569 266.967 476.569 272.027C476.569 277.087 475.095 281.267 472.147 284.567C469.243 287.867 465.261 289.517 460.201 289.517C455.141 289.517 451.137 287.867 448.189 284.567C445.285 281.267 443.833 277.087 443.833 272.027C443.833 266.967 445.285 262.787 448.189 259.487ZM452.215 281.003C454.063 283.423 456.725 284.633 460.201 284.633C463.677 284.633 466.339 283.423 468.187 281.003C470.035 278.539 470.959 275.547 470.959 272.027C470.959 268.507 470.035 265.537 468.187 263.117C466.339 260.653 463.677 259.421 460.201 259.421C456.725 259.421 454.063 260.653 452.215 263.117C450.367 265.537 449.443 268.507 449.443 272.027C449.443 275.547 450.367 278.539 452.215 281.003ZM185.098 354.659H179.488V326.279H161.338V354.659H155.728V321.395H185.098V354.659ZM210.797 325.421C207.321 325.421 204.703 326.631 202.943 329.051C201.227 331.471 200.369 334.463 200.369 338.027C200.369 341.591 201.227 344.583 202.943 347.003C204.703 349.423 207.321 350.633 210.797 350.633C214.053 350.633 216.561 349.489 218.321 347.201C220.125 344.869 221.027 341.811 221.027 338.027C221.027 334.243 220.125 331.207 218.321 328.919C216.561 326.587 214.053 325.421 210.797 325.421ZM194.825 321.395H200.237V324.959H201.689C204.065 322.011 207.519 320.537 212.051 320.537C216.539 320.537 220.081 322.187 222.677 325.487C225.317 328.787 226.637 332.967 226.637 338.027C226.637 343.175 225.317 347.377 222.677 350.633C220.081 353.889 216.539 355.517 212.051 355.517C207.475 355.517 204.087 354.043 201.887 351.095H200.435V367.859H194.825V321.395ZM236.618 325.487C239.566 322.187 243.57 320.537 248.63 320.537C253.69 320.537 257.672 322.187 260.576 325.487C263.524 328.787 264.998 332.967 264.998 338.027C264.998 343.087 263.524 347.267 260.576 350.567C257.672 353.867 253.69 355.517 248.63 355.517C243.57 355.517 239.566 353.867 236.618 350.567C233.714 347.267 232.262 343.087 232.262 338.027C232.262 332.967 233.714 328.787 236.618 325.487ZM240.644 347.003C242.492 349.423 245.154 350.633 248.63 350.633C252.106 350.633 254.768 349.423 256.616 347.003C258.464 344.539 259.388 341.547 259.388 338.027C259.388 334.507 258.464 331.537 256.616 329.117C254.768 326.653 252.106 325.421 248.63 325.421C245.154 325.421 242.492 326.653 240.644 329.117C238.796 331.537 237.872 334.507 237.872 338.027C237.872 341.547 238.796 344.539 240.644 347.003ZM302.266 349.775H308.404V364.097H302.926V354.659H274.15V364.097H268.672V349.775H273.094C275.822 343.967 277.186 337.543 277.186 330.503V321.395H302.266V349.775ZM296.656 349.775V326.279H282.4V330.503C282.4 338.027 281.19 344.451 278.77 349.775H296.656ZM323.54 367.859H317.864L324.728 351.557L310.538 321.395H316.544L326.708 343.307H328.358L337.598 321.395H343.472L323.54 367.859ZM371.924 354.659L364.532 340.007H354.566V354.659H348.956V321.395H354.566V335.123H364.664L371.594 321.395H377.468L369.35 337.433L377.93 354.659H371.924ZM381.334 326.279V321.395H409.978V326.279H398.494V354.659H392.884V326.279H381.334ZM428.467 306.677C432.779 306.677 436.211 307.843 438.763 310.175C441.359 312.463 442.657 315.543 442.657 319.415C442.657 321.087 442.481 322.539 442.129 323.771C441.821 325.003 441.183 326.191 440.215 327.335C439.291 328.479 438.521 329.337 437.905 329.909C437.289 330.481 436.189 331.405 434.605 332.681C432.845 334.045 431.679 335.167 431.107 336.047C430.579 336.883 430.315 338.313 430.315 340.337V342.185H424.639V340.337C424.639 338.445 424.881 336.861 425.365 335.585C425.893 334.265 426.531 333.209 427.279 332.417C428.071 331.581 429.303 330.481 430.975 329.117C432.427 327.929 433.505 327.005 434.209 326.345C434.913 325.641 435.551 324.695 436.123 323.507C436.695 322.319 436.981 320.955 436.981 319.415C436.981 317.259 436.211 315.411 434.671 313.871C433.175 312.331 431.129 311.561 428.533 311.561C422.857 311.561 419.865 314.487 419.557 320.339H413.881C414.057 316.071 415.421 312.727 417.973 310.307C420.569 307.887 424.067 306.677 428.467 306.677ZM430.909 354.659H424.045V347.003H430.909V354.659Z" fill="black"/>
<path d="M116.733 492.675H130.923C135.939 492.675 139.811 493.907 142.539 496.371C145.311 498.835 146.697 502.267 146.697 506.667C146.697 511.067 145.311 514.499 142.539 516.963C139.811 519.427 135.939 520.659 130.923 520.659H110.793V473.535H143.067V478.947H116.733V492.675ZM116.733 515.379H129.933C133.761 515.379 136.511 514.631 138.183 513.135C139.899 511.639 140.757 509.461 140.757 506.601C140.757 500.793 137.149 497.889 129.933 497.889H116.733V515.379ZM152.791 511.023H158.269C159.193 514.763 162.163 516.633 167.179 516.633C170.215 516.633 172.613 515.665 174.373 513.729C176.177 511.793 177.167 509.263 177.343 506.139H162.361V501.387H177.277C177.013 498.351 176.023 495.931 174.307 494.127C172.635 492.323 170.259 491.421 167.179 491.421C162.427 491.421 159.545 493.159 158.533 496.635H153.055C153.715 493.555 155.277 491.113 157.741 489.309C160.205 487.461 163.329 486.537 167.113 486.537C172.041 486.537 175.935 488.165 178.795 491.421C181.655 494.633 183.085 498.835 183.085 504.027C183.085 509.263 181.655 513.487 178.795 516.699C175.935 519.911 172.019 521.517 167.047 521.517C163.307 521.517 160.139 520.549 157.543 518.613C154.991 516.677 153.407 514.147 152.791 511.023ZM198.633 520.659H190.713V487.395H196.191V513.135H197.643L212.229 487.395H220.413V520.659H214.935V494.919H213.483L198.633 520.659ZM211.173 472.875H215.727C215.639 475.955 214.693 478.331 212.889 480.003C211.085 481.675 208.599 482.511 205.431 482.511C202.307 482.511 199.843 481.675 198.039 480.003C196.235 478.331 195.289 475.955 195.201 472.875H199.755C199.843 476.615 201.735 478.485 205.431 478.485C209.039 478.485 210.953 476.615 211.173 472.875ZM226.7 492.279V487.395H255.344V492.279H243.86V520.659H238.25V492.279H226.7ZM305.862 520.659H300.252V506.007H281.838V520.659H276.228V487.395H281.838V501.123H300.252V487.395H305.862V520.659ZM336.768 520.659V517.161H335.316C333.028 520.065 329.574 521.517 324.954 521.517C321.302 521.517 318.398 520.461 316.242 518.349C314.086 516.237 313.008 513.685 313.008 510.693C313.008 507.657 314.064 505.061 316.176 502.905C318.288 500.749 321.478 499.671 325.746 499.671H336.57V498.351C336.57 496.239 335.91 494.567 334.59 493.335C333.27 492.059 331.224 491.421 328.452 491.421C323.612 491.421 321.038 493.027 320.73 496.239H315.12C315.34 493.203 316.638 490.827 319.014 489.111C321.434 487.395 324.536 486.537 328.32 486.537C332.588 486.537 335.932 487.527 338.352 489.507C340.816 491.487 342.048 494.325 342.048 498.021V520.659H336.768ZM326.34 516.633C329.112 516.633 331.51 515.731 333.534 513.927C335.558 512.079 336.57 509.835 336.57 507.195V504.159H326.604C321.28 504.159 318.618 506.271 318.618 510.495C318.618 512.387 319.278 513.883 320.598 514.983C321.962 516.083 323.876 516.633 326.34 516.633ZM359.119 520.659H351.199V487.395H356.677V513.135H358.129L372.715 487.395H380.899V520.659H375.421V494.919H373.969L359.119 520.659ZM371.659 472.875H376.213C376.125 475.955 375.179 478.331 373.375 480.003C371.571 481.675 369.085 482.511 365.917 482.511C362.793 482.511 360.329 481.675 358.525 480.003C356.721 478.331 355.775 475.955 355.687 472.875H360.241C360.329 476.615 362.221 478.485 365.917 478.485C369.525 478.485 371.439 476.615 371.659 472.875ZM420.252 515.775H426.39V530.097H420.912V520.659H392.136V530.097H386.658V515.775H391.08C393.808 509.967 395.172 503.543 395.172 496.503V487.395H420.252V515.775ZM414.642 515.775V492.279H400.386V496.503C400.386 504.027 399.176 510.451 396.756 515.775H414.642ZM461.392 502.047V503.961H436.048C436.136 507.965 437.082 511.089 438.886 513.333C440.69 515.533 443.286 516.633 446.674 516.633C451.25 516.633 454.066 514.917 455.122 511.485H460.798C460.226 514.477 458.708 516.897 456.244 518.745C453.824 520.593 450.634 521.517 446.674 521.517C441.614 521.517 437.654 519.867 434.794 516.567C431.934 513.267 430.504 508.977 430.504 503.697C430.504 498.505 431.934 494.347 434.794 491.223C437.654 488.099 441.57 486.537 446.542 486.537C451.25 486.537 454.88 488.033 457.432 491.025C459.984 493.973 461.304 497.647 461.392 502.047ZM446.41 491.421C443.55 491.421 441.262 492.169 439.546 493.665C437.83 495.117 436.774 496.987 436.378 499.275H455.584C455.408 497.031 454.506 495.161 452.878 493.665C451.25 492.169 449.094 491.421 446.41 491.421ZM464.477 492.279V487.395H493.121V492.279H481.637V520.659H476.027V492.279H464.477ZM130.743 561.513C130.743 557.487 127.113 555.507 121.899 555.507C118.533 555.507 115.431 556.563 112.659 558.741C109.953 560.853 107.841 563.427 106.455 566.529C105.069 569.565 104.409 572.667 104.409 575.769C104.409 582.699 107.775 587.583 114.903 587.583C119.061 587.583 122.427 586.593 124.869 584.613C127.311 582.633 128.565 580.191 128.565 577.221C128.565 573.789 126.585 570.621 121.635 570.291C124.671 569.499 126.915 568.245 128.433 566.463C129.951 564.681 130.743 563.031 130.743 561.513ZM122.823 576.891C122.823 579.465 122.097 581.577 120.579 583.227C119.127 584.877 117.543 585.669 115.761 585.669C112.263 585.669 110.481 582.963 110.481 577.485C110.481 575.835 110.613 574.251 110.811 572.733C113.319 571.743 115.761 571.281 118.203 571.281C121.041 571.281 122.823 573.723 122.823 576.891ZM121.239 557.355C123.615 557.355 125.397 558.873 125.397 561.513C125.397 564.351 123.087 567.783 118.797 569.433C115.893 569.697 113.319 570.225 111.075 570.951C111.669 567.189 112.923 564.021 114.837 561.381C116.751 558.675 118.863 557.355 121.239 557.355ZM154.967 583.491C154.967 586.131 156.023 587.583 158.993 587.583C162.557 587.583 165.989 584.085 169.355 577.155L167.903 576.297C165.395 581.841 163.283 584.613 161.567 584.613C160.709 584.613 160.247 584.085 160.247 583.029C160.247 581.907 160.577 580.125 161.303 577.683L167.177 556.431H160.775L157.871 567.519C156.881 571.281 155.099 574.977 152.459 578.739C149.885 582.501 147.509 584.349 145.463 584.349C143.681 584.349 142.823 583.227 142.823 580.917C142.823 579.597 143.153 577.683 143.813 575.241L145.727 568.047C146.849 563.889 147.377 561.183 147.377 559.929C147.377 556.959 145.793 555.507 142.691 555.507C139.061 555.507 135.629 559.005 132.329 566.001L133.781 566.859C136.289 561.315 138.335 558.543 139.985 558.543C140.843 558.543 141.305 559.071 141.305 560.127C141.239 561.777 140.843 563.691 140.249 565.869L137.345 575.967C136.751 578.013 136.421 579.993 136.421 581.775C136.421 585.669 138.467 587.583 142.493 587.583C145.133 587.583 147.707 586.329 150.215 583.821C152.789 581.247 154.967 578.013 156.749 574.053C155.561 578.145 154.967 581.313 154.967 583.491ZM222.949 576.231C220.771 580.983 218.197 584.547 216.679 584.547C215.821 584.547 215.359 584.019 215.359 582.963C215.359 581.577 215.689 579.729 216.415 577.287L219.319 567.123C219.979 564.879 220.309 562.899 220.309 561.183C220.309 557.421 218.395 555.507 214.501 555.507C212.059 555.507 209.419 556.827 206.713 559.401C204.007 561.975 201.763 565.209 199.981 569.103C200.971 565.473 201.433 562.767 201.433 560.985C201.433 557.355 199.783 555.507 196.417 555.507C193.909 555.507 191.269 556.761 188.563 559.269C185.857 561.777 183.613 565.077 181.831 569.103C183.019 564.549 183.613 561.381 183.613 559.665C183.613 556.959 182.623 555.507 179.653 555.507C175.693 555.507 172.459 559.401 169.291 566.001L170.743 566.859C172.789 562.107 175.363 558.543 177.013 558.543C177.871 558.543 178.333 559.071 178.333 560.127C178.333 560.985 178.003 562.767 177.277 565.473L171.601 586.659H177.805L180.973 574.911C181.963 571.413 183.745 567.849 186.319 564.219C188.893 560.589 191.137 558.807 192.919 558.807C195.031 558.807 195.757 559.731 195.757 562.107C195.757 563.427 195.427 565.341 194.767 567.915L189.619 586.659H195.823L199.057 574.911C199.981 571.545 201.763 568.047 204.337 564.351C206.977 560.655 209.221 558.807 211.003 558.807C213.181 558.807 213.907 559.731 213.907 562.107C213.907 563.361 213.577 565.341 212.851 567.915L210.937 575.109C209.881 578.871 209.353 581.577 209.353 583.227C209.353 586.131 210.871 587.583 213.973 587.583C217.933 587.583 221.167 583.689 224.335 577.089L222.949 576.231ZM257.904 576.231C256.914 578.541 255.792 580.521 254.604 582.171C253.482 583.755 252.558 584.547 251.832 584.547C250.842 584.547 250.38 584.019 250.38 582.897C250.38 581.511 250.908 579.069 251.898 575.439L257.112 556.431H250.908L249.06 563.427C248.598 558.411 245.892 555.507 241.866 555.507C233.418 555.243 225.366 567.123 225.63 577.419C225.63 583.689 228.6 587.583 233.88 587.583C238.566 587.583 243.12 584.085 245.694 578.079C245.232 579.993 244.968 581.379 244.968 582.303C244.968 585.801 246.288 587.583 248.862 587.583C252.492 587.583 255.99 584.085 259.356 577.089L257.904 576.231ZM236.19 585.141C233.352 585.141 231.636 582.897 231.636 578.409C231.636 575.835 232.098 572.931 233.088 569.829C234.078 566.727 235.464 563.955 237.246 561.579C239.094 559.137 241.074 557.949 243.12 557.949C245.694 557.949 247.674 560.193 247.674 565.011C247.674 567.585 247.212 570.423 246.222 573.525C245.232 576.627 243.846 579.333 241.998 581.643C240.216 583.953 238.236 585.141 236.19 585.141ZM261.73 586.065C260.674 586.065 260.146 585.735 260.146 585.009C261.928 585.009 262.852 583.755 262.852 582.171C262.852 580.653 261.796 579.465 260.542 579.465C258.76 579.465 257.44 581.247 257.44 583.293C257.44 585.669 259.354 587.517 261.664 587.517C263.842 587.517 265.558 586.065 267.01 584.019C268 582.699 269.056 579.993 269.65 578.211C269.98 577.287 270.442 576.033 270.904 574.449L272.092 570.423C272.422 569.301 272.818 567.783 273.28 565.869L274.6 561.183C275.788 564.813 276.514 573.459 276.712 587.121H278.428L294.994 559.929L290.572 576.363C289.714 579.465 289.252 581.775 289.252 583.293C289.252 585.867 290.77 587.583 293.872 587.583C297.634 587.583 301.198 584.085 304.498 577.155L303.112 576.297C300.934 581.115 298.492 584.613 296.842 584.613C295.918 584.613 295.456 584.019 295.456 582.897C295.456 582.039 295.786 580.257 296.512 577.551L302.254 556.431H294.994L282.256 578.079C281.86 563.031 279.352 555.507 274.666 555.507C270.772 555.507 267.076 559.071 263.644 566.133L265.162 566.793C267.34 561.579 269.98 558.741 272.026 558.741C272.422 558.741 272.818 558.873 273.148 559.137C270.376 569.895 268.264 577.023 266.878 580.653C265.492 584.283 263.776 586.065 261.73 586.065ZM327.725 583.491C327.725 586.131 328.781 587.583 331.751 587.583C335.315 587.583 338.747 584.085 342.113 577.155L340.661 576.297C338.153 581.841 336.041 584.613 334.325 584.613C333.467 584.613 333.005 584.085 333.005 583.029C333.005 581.907 333.335 580.125 334.061 577.683L339.935 556.431H333.533L330.629 567.519C329.639 571.281 327.857 574.977 325.217 578.739C322.643 582.501 320.267 584.349 318.221 584.349C316.439 584.349 315.581 583.227 315.581 580.917C315.581 579.597 315.911 577.683 316.571 575.241L318.485 568.047C319.607 563.889 320.135 561.183 320.135 559.929C320.135 556.959 318.551 555.507 315.449 555.507C311.819 555.507 308.387 559.005 305.087 566.001L306.539 566.859C309.047 561.315 311.093 558.543 312.743 558.543C313.601 558.543 314.063 559.071 314.063 560.127C313.997 561.777 313.601 563.691 313.007 565.869L310.103 575.967C309.509 578.013 309.179 579.993 309.179 581.775C309.179 585.669 311.225 587.583 315.251 587.583C317.891 587.583 320.465 586.329 322.973 583.821C325.547 581.247 327.725 578.013 329.507 574.053C328.319 578.145 327.725 581.313 327.725 583.491ZM378.217 576.231C375.643 581.775 373.597 584.547 371.947 584.547C371.023 584.547 370.561 584.019 370.561 582.897C370.561 581.775 370.957 579.927 371.683 577.419L377.557 556.431H371.221L367.657 569.565H355.447L356.107 567.321C356.965 564.219 357.427 561.645 357.427 559.731C357.427 557.157 355.843 555.507 352.741 555.507C349.111 555.507 345.613 559.005 342.379 566.001L343.765 566.859C346.339 561.315 348.451 558.543 350.101 558.543C351.025 558.543 351.487 559.071 351.487 560.127C351.619 561.249 350.629 564.483 350.431 565.473L344.557 586.659H350.893L354.853 571.875H366.997L366.139 575.109C365.083 579.003 364.555 581.709 364.555 583.227C364.555 586.131 366.139 587.583 369.307 587.583C372.805 587.583 376.237 584.085 379.603 577.089L378.217 576.231ZM416.025 576.231C413.451 581.775 411.405 584.547 409.755 584.547C408.831 584.547 408.369 584.019 408.369 582.897C408.369 581.775 408.765 579.927 409.491 577.419L415.365 556.431H409.029L405.465 569.565H393.255L393.915 567.321C394.773 564.219 395.235 561.645 395.235 559.731C395.235 557.157 393.651 555.507 390.549 555.507C386.919 555.507 383.421 559.005 380.187 566.001L381.573 566.859C384.147 561.315 386.259 558.543 387.909 558.543C388.833 558.543 389.295 559.071 389.295 560.127C389.427 561.249 388.437 564.483 388.239 565.473L382.365 586.659H388.701L392.661 571.875H404.805L403.947 575.109C402.891 579.003 402.363 581.709 402.363 583.227C402.363 586.131 403.947 587.583 407.115 587.583C410.613 587.583 414.045 584.085 417.411 577.089L416.025 576.231ZM448.223 559.401C448.223 557.553 447.101 555.639 445.451 555.639C444.065 555.639 442.943 556.827 442.943 558.411C442.943 559.797 443.867 561.183 445.649 562.569C445.055 567.123 442.679 573.459 438.455 581.445C436.805 571.941 435.287 565.275 433.835 561.381C432.449 557.487 430.337 555.507 427.565 555.507C423.605 555.507 421.229 559.335 418.853 566.133L420.305 566.793C422.351 561.579 423.605 559.335 425.123 559.335C426.509 559.335 427.763 561.381 428.951 565.407C430.139 569.433 431.789 576.759 433.835 587.451C429.677 593.985 425.189 598.011 421.955 598.011C420.635 598.011 419.843 597.813 419.513 597.351C421.097 597.351 422.615 596.163 422.615 594.315C422.615 592.665 421.361 591.081 419.711 591.081C418.127 591.081 416.279 592.269 416.279 595.107C416.279 597.549 418.127 599.793 421.823 599.793C426.245 599.793 431.987 594.579 437.201 586.659C440.633 581.445 443.339 576.363 445.253 571.545C447.233 566.727 448.223 562.635 448.223 559.401ZM493.534 567.783C493.534 560.589 489.574 555.507 482.644 555.507C478.684 555.507 475.252 556.827 472.282 559.467C469.378 562.107 467.398 565.539 466.342 569.763H461.458L462.976 564.153C463.438 562.503 463.636 560.919 463.636 559.467C463.636 557.157 461.92 555.507 458.95 555.507C456.904 555.507 454.858 556.563 452.812 558.741C450.832 560.853 449.38 563.295 448.39 566.001L449.776 566.859C451.954 562.041 454.594 558.543 456.244 558.543C457.102 558.543 457.498 559.071 457.498 560.193C457.498 560.787 457.234 562.107 456.772 564.021L450.568 586.659H456.904L460.864 572.007H465.946C465.748 572.931 465.682 574.119 465.682 575.505C465.682 582.699 469.576 587.583 476.44 587.583C481.258 587.583 485.35 585.603 488.584 581.577C491.884 577.551 493.534 572.931 493.534 567.783ZM487.396 565.803C487.396 572.535 484.096 585.735 476.77 585.735C473.866 585.735 471.622 582.765 471.622 577.485C471.622 574.119 472.414 569.631 473.998 565.209C475.582 560.787 478.684 557.421 482.314 557.421C485.68 557.421 487.396 560.193 487.396 565.803ZM102.851 642.231C101.861 644.541 100.739 646.521 99.551 648.171C98.429 649.755 97.505 650.547 96.779 650.547C95.789 650.547 95.327 650.019 95.327 648.897C95.327 647.511 95.855 645.069 96.845 641.439L102.059 622.431H95.855L94.007 629.427C93.545 624.411 90.839 621.507 86.813 621.507C78.365 621.243 70.313 633.123 70.577 643.419C70.577 649.689 73.547 653.583 78.827 653.583C83.513 653.583 88.067 650.085 90.641 644.079C90.179 645.993 89.915 647.379 89.915 648.303C89.915 651.801 91.235 653.583 93.809 653.583C97.439 653.583 100.937 650.085 104.303 643.089L102.851 642.231ZM81.137 651.141C78.299 651.141 76.583 648.897 76.583 644.409C76.583 641.835 77.045 638.931 78.035 635.829C79.025 632.727 80.411 629.955 82.193 627.579C84.041 625.137 86.021 623.949 88.067 623.949C90.641 623.949 92.621 626.193 92.621 631.011C92.621 633.585 92.159 636.423 91.169 639.525C90.179 642.627 88.793 645.333 86.945 647.643C85.163 649.953 83.183 651.141 81.137 651.141ZM106.611 653.385C108.459 653.385 109.977 652.593 111.297 650.547C112.617 648.501 113.541 646.785 114.663 643.155C115.257 641.373 115.719 639.789 116.049 638.403L117.567 632.793L119.217 626.985C119.745 625.071 120.471 624.279 122.121 624.279H124.695C126.807 624.279 127.863 625.467 127.863 627.843C127.863 628.635 127.665 629.691 127.335 630.945L123.771 643.683C123.177 645.729 122.847 647.775 122.847 649.689C122.847 651.999 124.629 653.583 127.599 653.583C131.361 653.583 134.859 650.085 138.225 643.155L136.773 642.297C134.199 647.841 132.153 650.613 130.503 650.613C129.645 650.613 129.183 650.019 129.183 648.831C129.183 647.709 129.579 645.861 130.305 643.221L133.539 631.671C133.935 630.285 134.133 628.899 134.133 627.579C134.133 624.147 132.153 622.431 128.259 622.431H113.805L113.277 624.279H115.917C117.039 624.279 117.633 624.675 117.633 625.533C117.633 625.599 117.567 626.127 117.369 626.985C114.861 636.819 112.881 643.419 111.429 646.851C110.043 650.217 108.393 651.933 106.479 651.933C105.555 651.933 105.093 651.603 105.093 650.877C106.875 650.877 107.799 649.623 107.799 648.039C107.799 646.521 106.743 645.333 105.489 645.333C103.707 645.333 102.387 647.115 102.387 649.161C102.387 651.537 104.301 653.385 106.611 653.385ZM166.342 640.185C166.342 638.007 165.748 636.027 164.626 634.377C163.504 632.661 161.524 631.803 158.686 631.803C155.98 631.803 153.604 632.991 151.558 635.367L152.614 632.001C153.472 629.031 153.934 627.051 153.934 625.929C153.934 623.223 152.284 621.573 149.182 621.573C145.42 621.573 141.856 625.071 138.556 632.001L139.942 632.859C142.12 628.107 144.892 624.543 146.542 624.543C147.4 624.543 147.862 625.071 147.862 626.193C147.862 627.051 147.466 628.833 146.608 631.407L143.77 640.713C143.308 642.231 143.11 643.617 143.11 644.871C143.11 650.085 146.608 653.583 152.614 653.583C156.706 653.583 160.006 652.197 162.514 649.359C165.088 646.521 166.342 643.419 166.342 640.185ZM160.666 640.185C160.666 643.089 159.94 645.795 158.488 648.237C157.036 650.679 155.386 651.933 153.538 651.933C150.568 651.933 149.05 649.953 149.05 645.993C149.05 642.759 149.842 639.987 151.426 637.677C153.076 635.367 154.66 634.179 156.31 634.179C159.214 634.179 160.666 636.159 160.666 640.185ZM221.255 642.231C219.077 646.983 216.503 650.547 214.985 650.547C214.127 650.547 213.665 650.019 213.665 648.963C213.665 647.577 213.995 645.729 214.721 643.287L217.625 633.123C218.285 630.879 218.615 628.899 218.615 627.183C218.615 623.421 216.701 621.507 212.807 621.507C210.365 621.507 207.725 622.827 205.019 625.401C202.313 627.975 200.069 631.209 198.287 635.103C199.277 631.473 199.739 628.767 199.739 626.985C199.739 623.355 198.089 621.507 194.723 621.507C192.215 621.507 189.575 622.761 186.869 625.269C184.163 627.777 181.919 631.077 180.137 635.103C181.325 630.549 181.919 627.381 181.919 625.665C181.919 622.959 180.929 621.507 177.959 621.507C173.999 621.507 170.765 625.401 167.597 632.001L169.049 632.859C171.095 628.107 173.669 624.543 175.319 624.543C176.177 624.543 176.639 625.071 176.639 626.127C176.639 626.985 176.309 628.767 175.583 631.473L169.907 652.659H176.111L179.279 640.911C180.269 637.413 182.051 633.849 184.625 630.219C187.199 626.589 189.443 624.807 191.225 624.807C193.337 624.807 194.063 625.731 194.063 628.107C194.063 629.427 193.733 631.341 193.073 633.915L187.925 652.659H194.129L197.363 640.911C198.287 637.545 200.069 634.047 202.643 630.351C205.283 626.655 207.527 624.807 209.309 624.807C211.487 624.807 212.213 625.731 212.213 628.107C212.213 629.361 211.883 631.341 211.157 633.915L209.243 641.109C208.187 644.871 207.659 647.577 207.659 649.227C207.659 652.131 209.177 653.583 212.279 653.583C216.239 653.583 219.473 649.689 222.641 643.089L221.255 642.231ZM250.005 627.975C250.005 623.685 247.167 621.507 241.425 621.507C238.059 621.507 235.023 622.563 232.251 624.741C229.545 626.853 227.433 629.427 226.047 632.529C224.661 635.565 224.001 638.601 224.001 641.703C224.001 648.567 227.763 653.583 234.561 653.583C237.003 653.583 239.445 652.725 241.887 651.009C244.395 649.227 246.441 646.851 247.959 643.815L246.639 642.957C243.801 648.171 239.841 650.943 236.145 650.943C232.251 650.943 230.139 648.171 230.073 643.089C230.073 642.363 230.139 641.571 230.271 640.779C236.541 639.789 241.359 638.073 244.791 635.499C248.289 632.925 250.005 630.417 250.005 627.975ZM244.725 627.711C244.725 630.021 243.669 632.199 241.623 634.377C239.577 636.489 235.881 638.007 230.535 638.931C230.997 635.169 232.185 631.605 234.099 628.371C236.013 625.071 238.257 623.421 240.831 623.421C243.405 623.421 244.725 624.873 244.725 627.711ZM285.004 631.605C285.004 625.599 282.166 621.507 277.084 621.507C272.332 621.507 267.712 625.269 264.61 631.605C265.204 628.899 265.534 626.919 265.534 625.731C265.534 622.893 264.148 621.507 261.442 621.507C257.812 621.507 254.314 625.005 251.08 632.001L252.466 632.859C255.04 627.315 257.152 624.543 258.868 624.543C260.518 624.543 260.452 626.259 259.066 631.473L251.212 660.579C250.684 662.625 250.024 663.219 248.374 663.219H245.998L245.536 665.067H262.102L262.564 663.219H258.868C257.746 663.219 257.152 662.823 257.152 662.031C257.152 661.569 257.218 661.107 257.416 660.579L261.574 644.937C261.64 650.151 264.544 653.583 269.032 653.583C271.936 653.583 274.642 652.461 277.15 650.217C279.658 647.907 281.572 645.135 282.958 641.769C284.344 638.403 285.004 634.971 285.004 631.605ZM278.998 630.615C278.998 633.255 278.536 636.159 277.612 639.327C276.688 642.429 275.302 645.201 273.52 647.643C271.738 650.019 269.758 651.207 267.712 651.207C264.478 651.207 262.828 647.973 262.828 643.023C262.828 639.261 264.082 635.169 266.59 630.747C269.098 626.259 271.738 624.015 274.444 624.015C277.282 624.015 278.998 626.325 278.998 630.615ZM322.344 642.231C319.77 647.775 317.724 650.547 316.074 650.547C315.15 650.547 314.688 650.019 314.688 648.897C314.688 647.775 315.084 645.927 315.81 643.419L321.684 622.431H315.348L311.784 635.565H299.574L300.234 633.321C301.092 630.219 301.554 627.645 301.554 625.731C301.554 623.157 299.97 621.507 296.868 621.507C293.238 621.507 289.74 625.005 286.506 632.001L287.892 632.859C290.466 627.315 292.578 624.543 294.228 624.543C295.152 624.543 295.614 625.071 295.614 626.127C295.746 627.249 294.756 630.483 294.558 631.473L288.684 652.659H295.02L298.98 637.875H311.124L310.266 641.109C309.21 645.003 308.682 647.709 308.682 649.227C308.682 652.131 310.266 653.583 313.434 653.583C316.932 653.583 320.364 650.085 323.73 643.089L322.344 642.231ZM357.644 642.231C356.654 644.541 355.532 646.521 354.344 648.171C353.222 649.755 352.298 650.547 351.572 650.547C350.582 650.547 350.12 650.019 350.12 648.897C350.12 647.511 350.648 645.069 351.638 641.439L356.852 622.431H350.648L348.8 629.427C348.338 624.411 345.632 621.507 341.606 621.507C333.158 621.243 325.106 633.123 325.37 643.419C325.37 649.689 328.34 653.583 333.62 653.583C338.306 653.583 342.86 650.085 345.434 644.079C344.972 645.993 344.708 647.379 344.708 648.303C344.708 651.801 346.028 653.583 348.602 653.583C352.232 653.583 355.73 650.085 359.096 643.089L357.644 642.231ZM335.93 651.141C333.092 651.141 331.376 648.897 331.376 644.409C331.376 641.835 331.838 638.931 332.828 635.829C333.818 632.727 335.204 629.955 336.986 627.579C338.834 625.137 340.814 623.949 342.86 623.949C345.434 623.949 347.414 626.193 347.414 631.011C347.414 633.585 346.952 636.423 345.962 639.525C344.972 642.627 343.586 645.333 341.738 647.643C339.956 649.953 337.976 651.141 335.93 651.141ZM413 642.231C410.822 646.983 408.248 650.547 406.73 650.547C405.872 650.547 405.41 650.019 405.41 648.963C405.41 647.577 405.74 645.729 406.466 643.287L409.37 633.123C410.03 630.879 410.36 628.899 410.36 627.183C410.36 623.421 408.446 621.507 404.552 621.507C402.11 621.507 399.47 622.827 396.764 625.401C394.058 627.975 391.814 631.209 390.032 635.103C391.022 631.473 391.484 628.767 391.484 626.985C391.484 623.355 389.834 621.507 386.468 621.507C383.96 621.507 381.32 622.761 378.614 625.269C375.908 627.777 373.664 631.077 371.882 635.103C373.07 630.549 373.664 627.381 373.664 625.665C373.664 622.959 372.674 621.507 369.704 621.507C365.744 621.507 362.51 625.401 359.342 632.001L360.794 632.859C362.84 628.107 365.414 624.543 367.064 624.543C367.922 624.543 368.384 625.071 368.384 626.127C368.384 626.985 368.054 628.767 367.328 631.473L361.652 652.659H367.856L371.024 640.911C372.014 637.413 373.796 633.849 376.37 630.219C378.944 626.589 381.188 624.807 382.97 624.807C385.082 624.807 385.808 625.731 385.808 628.107C385.808 629.427 385.478 631.341 384.818 633.915L379.67 652.659H385.874L389.108 640.911C390.032 637.545 391.814 634.047 394.388 630.351C397.028 626.655 399.272 624.807 401.054 624.807C403.232 624.807 403.958 625.731 403.958 628.107C403.958 629.361 403.628 631.341 402.902 633.915L400.988 641.109C399.932 644.871 399.404 647.577 399.404 649.227C399.404 652.131 400.922 653.583 404.024 653.583C407.984 653.583 411.218 649.689 414.386 643.089L413 642.231ZM437.262 649.491C437.262 652.131 438.318 653.583 441.288 653.583C444.852 653.583 448.284 650.085 451.65 643.155L450.198 642.297C447.69 647.841 445.578 650.613 443.862 650.613C443.004 650.613 442.542 650.085 442.542 649.029C442.542 647.907 442.872 646.125 443.598 643.683L449.472 622.431H443.07L440.166 633.519C439.176 637.281 437.394 640.977 434.754 644.739C432.18 648.501 429.804 650.349 427.758 650.349C425.976 650.349 425.118 649.227 425.118 646.917C425.118 645.597 425.448 643.683 426.108 641.241L428.022 634.047C429.144 629.889 429.672 627.183 429.672 625.929C429.672 622.959 428.088 621.507 424.986 621.507C421.356 621.507 417.924 625.005 414.624 632.001L416.076 632.859C418.584 627.315 420.63 624.543 422.28 624.543C423.138 624.543 423.6 625.071 423.6 626.127C423.534 627.777 423.138 629.691 422.544 631.869L419.64 641.967C419.046 644.013 418.716 645.993 418.716 647.775C418.716 651.669 420.762 653.583 424.788 653.583C427.428 653.583 430.002 652.329 432.51 649.821C435.084 647.247 437.262 644.013 439.044 640.053C437.856 644.145 437.262 647.313 437.262 649.491ZM479.372 627.513C479.372 623.487 475.742 621.507 470.528 621.507C467.162 621.507 464.06 622.563 461.288 624.741C458.582 626.853 456.47 629.427 455.084 632.529C453.698 635.565 453.038 638.667 453.038 641.769C453.038 648.699 456.404 653.583 463.532 653.583C467.69 653.583 471.056 652.593 473.498 650.613C475.94 648.633 477.194 646.191 477.194 643.221C477.194 639.789 475.214 636.621 470.264 636.291C473.3 635.499 475.544 634.245 477.062 632.463C478.58 630.681 479.372 629.031 479.372 627.513ZM471.452 642.891C471.452 645.465 470.726 647.577 469.208 649.227C467.756 650.877 466.172 651.669 464.39 651.669C460.892 651.669 459.11 648.963 459.11 643.485C459.11 641.835 459.242 640.251 459.44 638.733C461.948 637.743 464.39 637.281 466.832 637.281C469.67 637.281 471.452 639.723 471.452 642.891ZM469.868 623.355C472.244 623.355 474.026 624.873 474.026 627.513C474.026 630.351 471.716 633.783 467.426 635.433C464.522 635.697 461.948 636.225 459.704 636.951C460.298 633.189 461.552 630.021 463.466 627.381C465.38 624.675 467.492 623.355 469.868 623.355ZM510.542 625.401C510.542 623.553 509.42 621.639 507.77 621.639C506.384 621.639 505.262 622.827 505.262 624.411C505.262 625.797 506.186 627.183 507.968 628.569C507.374 633.123 504.998 639.459 500.774 647.445C499.124 637.941 497.606 631.275 496.154 627.381C494.768 623.487 492.656 621.507 489.884 621.507C485.924 621.507 483.548 625.335 481.172 632.133L482.624 632.793C484.67 627.579 485.924 625.335 487.442 625.335C488.828 625.335 490.082 627.381 491.27 631.407C492.458 635.433 494.108 642.759 496.154 653.451C491.996 659.985 487.508 664.011 484.274 664.011C482.954 664.011 482.162 663.813 481.832 663.351C483.416 663.351 484.934 662.163 484.934 660.315C484.934 658.665 483.68 657.081 482.03 657.081C480.446 657.081 478.598 658.269 478.598 661.107C478.598 663.549 480.446 665.793 484.142 665.793C488.564 665.793 494.306 660.579 499.52 652.659C502.952 647.445 505.658 642.363 507.572 637.545C509.552 632.727 510.542 628.635 510.542 625.401ZM519.223 638.997C520.081 635.565 521.533 631.737 523.579 627.579C525.625 623.355 527.407 619.527 528.925 616.161C530.443 612.729 531.169 609.759 531.169 607.185C531.169 605.337 529.717 604.347 528.199 604.347C524.965 604.347 522.787 607.515 521.533 612.993C520.939 615.699 520.477 618.405 520.147 621.177C519.817 623.949 519.355 627.051 518.893 630.549C518.431 634.047 517.969 636.819 517.441 638.997H519.223ZM519.025 649.491C519.025 647.379 517.441 645.663 515.527 645.663C513.481 645.663 511.963 647.511 511.963 649.623C511.963 651.669 513.481 653.253 515.395 653.253C517.441 653.253 519.025 651.537 519.025 649.491Z" fill="black"/>
<path fill-rule="evenodd" clip-rule="evenodd" d="M68.0987 755.835C65.4396 753.887 62.2292 752.838 58.9332 752.838H40.3314L27.1868 815.934H42.4593L44.0557 808.266L44.7627 809.145C47.1211 812.078 50.3315 814.207 53.9512 815.238C57.5708 816.27 61.4212 816.152 64.9711 814.902C68.5211 813.652 71.5956 811.331 73.7704 808.259C75.9452 805.187 77.1133 801.516 77.1133 797.753C77.1142 794.536 76.2615 791.377 74.6421 788.598C73.0227 785.818 70.6947 783.519 67.8958 781.933L67.1626 781.518L67.852 781.034C70.5487 779.139 72.5715 776.434 73.6269 773.311C74.6823 770.189 74.7153 766.811 73.7213 763.669C72.7272 760.526 70.7578 757.782 68.0987 755.835ZM78.1791 797.753C78.179 801.737 76.9425 805.623 74.6402 808.875C72.3379 812.127 69.0832 814.584 65.3252 815.907C61.5671 817.23 57.491 817.355 53.6592 816.263C50.1817 815.273 47.061 813.325 44.6475 810.653L43.3261 817H25.8761L39.4648 751.772L58.9331 751.772C58.9331 751.772 58.933 751.772 58.9331 751.772C62.4555 751.772 65.8867 752.894 68.7285 754.975C71.5703 757.056 73.6751 759.989 74.7375 763.347C75.7998 766.706 75.7645 770.316 74.6366 773.653C73.5958 776.732 71.6746 779.431 69.1194 781.421C71.7719 783.075 73.9851 785.353 75.5629 788.061C77.2773 791.003 78.1801 794.348 78.1791 797.753Z" fill="black"/>
<path fill-rule="evenodd" clip-rule="evenodd" d="M43.4258 768.347C43.4233 770.835 44.0208 773.288 45.1677 775.496C46.3146 777.705 47.977 779.605 50.0141 781.034L50.7044 781.518L49.9706 781.934C47.1714 783.519 44.8431 785.819 43.2235 788.598C41.6039 791.377 40.751 794.536 40.752 797.753L39.6862 797.753C39.6852 794.348 40.5881 791.003 42.3027 788.061C43.8806 785.353 46.094 783.076 48.7465 781.422C46.8668 779.96 45.3223 778.107 44.2218 775.988C42.996 773.627 42.3573 771.006 42.36 768.346L43.4258 768.347Z" fill="black"/>
</svg>
