<svg width="600" height="600" viewBox="0 0 600 600" fill="none" xmlns="http://www.w3.org/2000/svg">
<g clip-path="url(#clip0_1654_3059)">
<rect width="600" height="600" fill="white"/>
<rect x="18" y="18" width="46" height="564" fill="#8EA5EB" fill-opacity="0.2"/>
<rect x="92" y="18" width="46" height="564" fill="#8EA5EB" fill-opacity="0.2"/>
<rect x="166" y="18" width="46" height="564" fill="#8EA5EB" fill-opacity="0.2"/>
<rect x="240" y="18" width="46" height="564" fill="#8EA5EB" fill-opacity="0.2"/>
<rect x="314" y="18" width="46" height="564" fill="#8EA5EB" fill-opacity="0.2"/>
<rect x="388" y="18" width="46" height="564" fill="#8EA5EB" fill-opacity="0.2"/>
<rect x="462" y="18" width="46" height="564" fill="#8EA5EB" fill-opacity="0.2"/>
<rect x="536" y="18" width="46" height="564" fill="#8EA5EB" fill-opacity="0.2"/>
<path d="M18.2349 42H581.765" stroke="#8EA5EB"/>
<path d="M18.2349 65.5H581.765" stroke="#8EA5EB"/>
<path d="M18.2349 89H581.765" stroke="#8EA5EB"/>
<path d="M18.2349 112.5H581.765" stroke="#8EA5EB"/>
<path d="M18.2349 136H581.765" stroke="#8EA5EB"/>
<path d="M18.2349 159.5H581.765" stroke="#8EA5EB"/>
<path d="M18.2349 183H581.765" stroke="#8EA5EB"/>
<path d="M18.2349 206.5H581.765" stroke="#8EA5EB"/>
<path d="M18.2349 230H581.765" stroke="#8EA5EB"/>
<path d="M18.2349 253.5H581.765" stroke="#8EA5EB"/>
<path d="M18.2349 277H581.765" stroke="#8EA5EB"/>
<path d="M18.2349 300.5H581.765" stroke="#8EA5EB"/>
<path d="M18.2349 324H581.765" stroke="#8EA5EB"/>
<path d="M18.2349 347.5H581.765" stroke="#8EA5EB"/>
<path d="M18.2349 371H581.765" stroke="#8EA5EB"/>
<path d="M18.2349 394.5H581.765" stroke="#8EA5EB"/>
<path d="M18.2349 418H581.765" stroke="#8EA5EB"/>
<path d="M18.2349 441.5H581.765" stroke="#8EA5EB"/>
<path d="M18.2349 465H581.765" stroke="#8EA5EB"/>
<path d="M18.2349 488.5H581.765" stroke="#8EA5EB"/>
<path d="M18.2349 512H581.765" stroke="#8EA5EB"/>
<path d="M18.2349 535.5H581.765" stroke="#8EA5EB"/>
<path d="M18.2349 559H581.765" stroke="#8EA5EB"/>
<path fill-rule="evenodd" clip-rule="evenodd" d="M48.9822 20.9583C47.0458 19.5401 44.7079 18.7757 42.3077 18.7761H28.7615L19.1894 64.7239H30.3111L31.4736 59.1397L31.9885 59.7801C33.7059 61.916 36.0438 63.4664 38.6797 64.2172C41.3156 64.968 44.1195 64.8824 46.7047 63.972C49.2898 63.0616 51.5287 61.3714 53.1124 59.1346C54.6962 56.8978 55.5468 54.2246 55.5468 51.4839C55.5475 49.1414 54.9265 46.8407 53.7472 44.8168C52.5679 42.7929 50.8726 41.1183 48.8345 39.9639L48.3005 39.6615L48.8026 39.3087C50.7664 37.9287 52.2394 35.9588 53.0079 33.685C53.7765 31.4112 53.8006 28.9516 53.0767 26.6632C52.3528 24.3748 50.9186 22.3765 48.9822 20.9583ZM56.323 51.484C56.3229 54.3853 55.4225 57.2152 53.7459 59.5831C52.0693 61.951 49.6991 63.7403 46.9625 64.7041C44.2258 65.6678 41.2575 65.7585 38.4671 64.9637C35.9347 64.2423 33.6621 62.8239 31.9046 60.8777L30.9423 65.5H18.2349L28.1304 18L42.3076 18C42.3076 18 42.3076 18 42.3076 18C44.8727 17.9996 47.3714 18.8165 49.4408 20.3321C51.5103 21.8478 53.0431 23.9834 53.8167 26.4291C54.5903 28.8748 54.5646 31.5034 53.7432 33.9335C52.9853 36.176 51.5862 38.1418 49.7255 39.5909C51.6571 40.7954 53.2688 42.4541 54.4178 44.4261C55.6662 46.5686 56.3237 49.0042 56.323 51.484Z" fill="black"/>
<path fill-rule="evenodd" clip-rule="evenodd" d="M31.015 30.0696C31.0132 31.8819 31.4483 33.6678 32.2835 35.2761C33.1187 36.8845 34.3293 38.2677 35.8128 39.3087L36.3155 39.6615L35.7811 39.9641C33.7427 41.1183 32.0472 42.7929 30.8677 44.8168C29.6883 46.8407 29.0672 49.1414 29.0679 51.4839L28.2917 51.4842C28.291 49.0043 28.9485 46.5686 30.1972 44.426C31.3462 42.4542 32.958 40.7956 34.8897 39.5913C33.5209 38.5264 32.3961 37.1771 31.5947 35.6338C30.702 33.9148 30.2369 32.0059 30.2389 30.0688L31.015 30.0696Z" fill="black"/>
<path d="M141.486 136V102.442H148.536L156.996 118.187H158.03L166.349 102.442H173.446V136H169.31V107.236H168.276L159.675 123.169H155.257L146.656 107.236H145.622V136H141.486ZM201.332 122.746V124.109H183.284C183.346 126.96 184.02 129.185 185.305 130.783C186.589 132.35 188.438 133.133 190.851 133.133C194.109 133.133 196.115 131.911 196.867 129.467H200.909C200.501 131.598 199.42 133.321 197.666 134.637C195.942 135.953 193.671 136.611 190.851 136.611C187.247 136.611 184.427 135.436 182.391 133.086C180.354 130.736 179.336 127.681 179.336 123.921C179.336 120.224 180.354 117.263 182.391 115.038C184.427 112.813 187.216 111.701 190.757 111.701C194.109 111.701 196.694 112.766 198.512 114.897C200.329 116.996 201.269 119.613 201.332 122.746ZM190.663 115.179C188.626 115.179 186.997 115.712 185.775 116.777C184.553 117.811 183.801 119.143 183.519 120.772H197.196C197.07 119.174 196.428 117.842 195.269 116.777C194.109 115.712 192.574 115.179 190.663 115.179ZM227.856 132.522H232.227V142.721H228.326V136H207.834V142.721H203.933V132.522H207.082C209.024 128.386 209.996 123.811 209.996 118.798V112.312H227.856V132.522ZM223.861 132.522V115.79H213.709V118.798C213.709 124.156 212.847 128.731 211.124 132.522H223.861ZM242.254 136H236.614V112.312H240.515V130.642H241.549L251.936 112.312H257.764V136H253.863V117.67H252.829L242.254 136ZM279.772 136V133.509H278.738C277.108 135.577 274.649 136.611 271.359 136.611C268.758 136.611 266.69 135.859 265.155 134.355C263.619 132.851 262.852 131.034 262.852 128.903C262.852 126.741 263.604 124.892 265.108 123.357C266.612 121.822 268.883 121.054 271.923 121.054H279.631V120.114C279.631 118.61 279.161 117.419 278.221 116.542C277.281 115.633 275.824 115.179 273.85 115.179C270.403 115.179 268.57 116.323 268.351 118.61H264.356C264.512 116.448 265.437 114.756 267.129 113.534C268.852 112.312 271.061 111.701 273.756 111.701C276.795 111.701 279.176 112.406 280.9 113.816C282.654 115.226 283.532 117.247 283.532 119.879V136H279.772ZM272.346 133.133C274.32 133.133 276.027 132.491 277.469 131.206C278.91 129.89 279.631 128.292 279.631 126.412V124.25H272.534C268.742 124.25 266.847 125.754 266.847 128.762C266.847 130.109 267.317 131.175 268.257 131.958C269.228 132.741 270.591 133.133 272.346 133.133ZM301.328 124.72H288.497V121.195H301.328V124.72ZM323.406 128.856H327.401C326.931 131.237 325.818 133.133 324.064 134.543C322.34 135.922 320.131 136.611 317.437 136.611C313.865 136.611 311.045 135.452 308.977 133.133C306.94 130.783 305.922 127.791 305.922 124.156C305.922 120.49 306.94 117.498 308.977 115.179C311.013 112.86 313.833 111.701 317.437 111.701C320.163 111.701 322.372 112.39 324.064 113.769C325.787 115.116 326.852 116.918 327.26 119.174H323.265C322.419 116.511 320.476 115.179 317.437 115.179C314.899 115.179 313.003 116.025 311.75 117.717C310.528 119.378 309.917 121.493 309.917 124.062C309.917 126.663 310.543 128.825 311.797 130.548C313.05 132.271 314.93 133.133 317.437 133.133C320.758 133.133 322.748 131.707 323.406 128.856ZM353.097 122.746V124.109H335.049C335.112 126.96 335.786 129.185 337.07 130.783C338.355 132.35 340.204 133.133 342.616 133.133C345.875 133.133 347.88 131.911 348.632 129.467H352.674C352.267 131.598 351.186 133.321 349.431 134.637C347.708 135.953 345.436 136.611 342.616 136.611C339.013 136.611 336.193 135.436 334.156 133.086C332.12 130.736 331.101 127.681 331.101 123.921C331.101 120.224 332.12 117.263 334.156 115.038C336.193 112.813 338.982 111.701 342.522 111.701C345.875 111.701 348.46 112.766 350.277 114.897C352.095 116.996 353.035 119.613 353.097 122.746ZM342.428 115.179C340.392 115.179 338.762 115.712 337.54 116.777C336.318 117.811 335.566 119.143 335.284 120.772H348.961C348.836 119.174 348.194 117.842 347.034 116.777C345.875 115.712 344.34 115.179 342.428 115.179ZM369.892 115.179C367.417 115.179 365.552 116.041 364.299 117.764C363.077 119.487 362.466 121.618 362.466 124.156C362.466 126.694 363.077 128.825 364.299 130.548C365.552 132.271 367.417 133.133 369.892 133.133C372.211 133.133 373.997 132.318 375.25 130.689C376.535 129.028 377.177 126.851 377.177 124.156C377.177 121.461 376.535 119.299 375.25 117.67C373.997 116.009 372.211 115.179 369.892 115.179ZM358.518 112.312H362.372V114.85H363.406C365.098 112.751 367.558 111.701 370.785 111.701C373.981 111.701 376.503 112.876 378.352 115.226C380.232 117.576 381.172 120.553 381.172 124.156C381.172 127.822 380.232 130.814 378.352 133.133C376.503 135.452 373.981 136.611 370.785 136.611C367.526 136.611 365.114 135.561 363.547 133.462H362.513V145.4H358.518V112.312ZM403.32 122.934V123.968C404.479 124.25 405.404 124.877 406.093 125.848C406.814 126.819 407.174 128.041 407.174 129.514C407.174 133.838 404.385 136 398.808 136H386.635V112.312H398.385C400.766 112.312 402.599 112.845 403.884 113.91C405.2 114.944 405.858 116.401 405.858 118.281C405.858 119.378 405.607 120.333 405.106 121.148C404.636 121.963 404.041 122.558 403.32 122.934ZM390.583 132.616H398.573C401.644 132.616 403.179 131.441 403.179 129.091C403.179 126.71 401.644 125.519 398.573 125.519H390.583V132.616ZM390.583 115.696V122.135H398.009C399.356 122.135 400.328 121.837 400.923 121.242C401.55 120.647 401.863 119.879 401.863 118.939C401.863 116.777 400.578 115.696 398.009 115.696H390.583ZM418.235 136H412.595V112.312H416.496V130.642H417.53L427.917 112.312H433.745V136H429.844V117.67H428.81L418.235 136ZM456.693 128.856H460.688C460.218 131.237 459.106 133.133 457.351 134.543C455.628 135.922 453.419 136.611 450.724 136.611C447.152 136.611 444.332 135.452 442.264 133.133C440.227 130.783 439.209 127.791 439.209 124.156C439.209 120.49 440.227 117.498 442.264 115.179C444.301 112.86 447.121 111.701 450.724 111.701C453.45 111.701 455.659 112.39 457.351 113.769C459.074 115.116 460.14 116.918 460.547 119.174H456.552C455.706 116.511 453.763 115.179 450.724 115.179C448.186 115.179 446.29 116.025 445.037 117.717C443.815 119.378 443.204 121.493 443.204 124.062C443.204 126.663 443.831 128.825 445.084 130.548C446.337 132.271 448.217 133.133 450.724 133.133C454.045 133.133 456.035 131.707 456.693 128.856ZM171.652 165.093C171.652 162.226 169.067 160.816 165.354 160.816C162.957 160.816 160.748 161.568 158.774 163.119C156.847 164.623 155.343 166.456 154.356 168.665C153.369 170.827 152.899 173.036 152.899 175.245C152.899 180.18 155.296 183.658 160.372 183.658C163.333 183.658 165.73 182.953 167.469 181.543C169.208 180.133 170.101 178.394 170.101 176.279C170.101 173.835 168.691 171.579 165.166 171.344C167.328 170.78 168.926 169.887 170.007 168.618C171.088 167.349 171.652 166.174 171.652 165.093ZM166.012 176.044C166.012 177.877 165.495 179.381 164.414 180.556C163.38 181.731 162.252 182.295 160.983 182.295C158.492 182.295 157.223 180.368 157.223 176.467C157.223 175.292 157.317 174.164 157.458 173.083C159.244 172.378 160.983 172.049 162.722 172.049C164.743 172.049 166.012 173.788 166.012 176.044ZM164.884 162.132C166.576 162.132 167.845 163.213 167.845 165.093C167.845 167.114 166.2 169.558 163.145 170.733C161.077 170.921 159.244 171.297 157.646 171.814C158.069 169.135 158.962 166.879 160.325 164.999C161.688 163.072 163.192 162.132 164.884 162.132ZM188.903 180.744C188.903 182.624 189.655 183.658 191.77 183.658C194.308 183.658 196.752 181.167 199.149 176.232L198.115 175.621C196.329 179.569 194.825 181.543 193.603 181.543C192.992 181.543 192.663 181.167 192.663 180.415C192.663 179.616 192.898 178.347 193.415 176.608L197.598 161.474H193.039L190.971 169.37C190.266 172.049 188.997 174.681 187.117 177.36C185.284 180.039 183.592 181.355 182.135 181.355C180.866 181.355 180.255 180.556 180.255 178.911C180.255 177.971 180.49 176.608 180.96 174.869L182.323 169.746C183.122 166.785 183.498 164.858 183.498 163.965C183.498 161.85 182.37 160.816 180.161 160.816C177.576 160.816 175.132 163.307 172.782 168.289L173.816 168.9C175.602 164.952 177.059 162.978 178.234 162.978C178.845 162.978 179.174 163.354 179.174 164.106C179.127 165.281 178.845 166.644 178.422 168.195L176.354 175.386C175.931 176.843 175.696 178.253 175.696 179.522C175.696 182.295 177.153 183.658 180.02 183.658C181.9 183.658 183.733 182.765 185.519 180.979C187.352 179.146 188.903 176.843 190.172 174.023C189.326 176.937 188.903 179.193 188.903 180.744ZM237.314 175.574C235.763 178.958 233.93 181.496 232.849 181.496C232.238 181.496 231.909 181.12 231.909 180.368C231.909 179.381 232.144 178.065 232.661 176.326L234.729 169.088C235.199 167.49 235.434 166.08 235.434 164.858C235.434 162.179 234.071 160.816 231.298 160.816C229.559 160.816 227.679 161.756 225.752 163.589C223.825 165.422 222.227 167.725 220.958 170.498C221.663 167.913 221.992 165.986 221.992 164.717C221.992 162.132 220.817 160.816 218.42 160.816C216.634 160.816 214.754 161.709 212.827 163.495C210.9 165.281 209.302 167.631 208.033 170.498C208.879 167.255 209.302 164.999 209.302 163.777C209.302 161.85 208.597 160.816 206.482 160.816C203.662 160.816 201.359 163.589 199.103 168.289L200.137 168.9C201.594 165.516 203.427 162.978 204.602 162.978C205.213 162.978 205.542 163.354 205.542 164.106C205.542 164.717 205.307 165.986 204.79 167.913L200.748 183H205.166L207.422 174.634C208.127 172.143 209.396 169.605 211.229 167.02C213.062 164.435 214.66 163.166 215.929 163.166C217.433 163.166 217.95 163.824 217.95 165.516C217.95 166.456 217.715 167.819 217.245 169.652L213.579 183H217.997L220.3 174.634C220.958 172.237 222.227 169.746 224.06 167.114C225.94 164.482 227.538 163.166 228.807 163.166C230.358 163.166 230.875 163.824 230.875 165.516C230.875 166.409 230.64 167.819 230.123 169.652L228.76 174.775C228.008 177.454 227.632 179.381 227.632 180.556C227.632 182.624 228.713 183.658 230.922 183.658C233.742 183.658 236.045 180.885 238.301 176.185L237.314 175.574ZM262.206 175.574C261.501 177.219 260.702 178.629 259.856 179.804C259.057 180.932 258.399 181.496 257.882 181.496C257.177 181.496 256.848 181.12 256.848 180.321C256.848 179.334 257.224 177.595 257.929 175.01L261.642 161.474H257.224L255.908 166.456C255.579 162.884 253.652 160.816 250.785 160.816C244.769 160.628 239.035 169.088 239.223 176.42C239.223 180.885 241.338 183.658 245.098 183.658C248.435 183.658 251.678 181.167 253.511 176.89C253.182 178.253 252.994 179.24 252.994 179.898C252.994 182.389 253.934 183.658 255.767 183.658C258.352 183.658 260.843 181.167 263.24 176.185L262.206 175.574ZM246.743 181.919C244.722 181.919 243.5 180.321 243.5 177.125C243.5 175.292 243.829 173.224 244.534 171.015C245.239 168.806 246.226 166.832 247.495 165.14C248.811 163.401 250.221 162.555 251.678 162.555C253.511 162.555 254.921 164.153 254.921 167.584C254.921 169.417 254.592 171.438 253.887 173.647C253.182 175.856 252.195 177.783 250.879 179.428C249.61 181.073 248.2 181.919 246.743 181.919ZM264.93 182.577C264.178 182.577 263.802 182.342 263.802 181.825C265.071 181.825 265.729 180.932 265.729 179.804C265.729 178.723 264.977 177.877 264.084 177.877C262.815 177.877 261.875 179.146 261.875 180.603C261.875 182.295 263.238 183.611 264.883 183.611C266.434 183.611 267.656 182.577 268.69 181.12C269.395 180.18 270.147 178.253 270.57 176.984C270.805 176.326 271.134 175.433 271.463 174.305L272.309 171.438C272.544 170.639 272.826 169.558 273.155 168.195L274.095 164.858C274.941 167.443 275.458 173.6 275.599 183.329H276.821L288.618 163.965L285.469 175.668C284.858 177.877 284.529 179.522 284.529 180.603C284.529 182.436 285.61 183.658 287.819 183.658C290.498 183.658 293.036 181.167 295.386 176.232L294.399 175.621C292.848 179.052 291.109 181.543 289.934 181.543C289.276 181.543 288.947 181.12 288.947 180.321C288.947 179.71 289.182 178.441 289.699 176.514L293.788 161.474H288.618L279.547 176.89C279.265 166.174 277.479 160.816 274.142 160.816C271.369 160.816 268.737 163.354 266.293 168.383L267.374 168.853C268.925 165.14 270.805 163.119 272.262 163.119C272.544 163.119 272.826 163.213 273.061 163.401C271.087 171.062 269.583 176.138 268.596 178.723C267.609 181.308 266.387 182.577 264.93 182.577ZM311.928 180.744C311.928 182.624 312.68 183.658 314.795 183.658C317.333 183.658 319.777 181.167 322.174 176.232L321.14 175.621C319.354 179.569 317.85 181.543 316.628 181.543C316.017 181.543 315.688 181.167 315.688 180.415C315.688 179.616 315.923 178.347 316.44 176.608L320.623 161.474H316.064L313.996 169.37C313.291 172.049 312.022 174.681 310.142 177.36C308.309 180.039 306.617 181.355 305.16 181.355C303.891 181.355 303.28 180.556 303.28 178.911C303.28 177.971 303.515 176.608 303.985 174.869L305.348 169.746C306.147 166.785 306.523 164.858 306.523 163.965C306.523 161.85 305.395 160.816 303.186 160.816C300.601 160.816 298.157 163.307 295.807 168.289L296.841 168.9C298.627 164.952 300.084 162.978 301.259 162.978C301.87 162.978 302.199 163.354 302.199 164.106C302.152 165.281 301.87 166.644 301.447 168.195L299.379 175.386C298.956 176.843 298.721 178.253 298.721 179.522C298.721 182.295 300.178 183.658 303.045 183.658C304.925 183.658 306.758 182.765 308.544 180.979C310.377 179.146 311.928 176.843 313.197 174.023C312.351 176.937 311.928 179.193 311.928 180.744ZM347.884 175.574C346.051 179.522 344.594 181.496 343.419 181.496C342.761 181.496 342.432 181.12 342.432 180.321C342.432 179.522 342.714 178.206 343.231 176.42L347.414 161.474H342.902L340.364 170.827H331.669L332.139 169.229C332.75 167.02 333.079 165.187 333.079 163.824C333.079 161.991 331.951 160.816 329.742 160.816C327.157 160.816 324.666 163.307 322.363 168.289L323.35 168.9C325.183 164.952 326.687 162.978 327.862 162.978C328.52 162.978 328.849 163.354 328.849 164.106C328.943 164.905 328.238 167.208 328.097 167.913L323.914 183H328.426L331.246 172.472H339.894L339.283 174.775C338.531 177.548 338.155 179.475 338.155 180.556C338.155 182.624 339.283 183.658 341.539 183.658C344.03 183.658 346.474 181.167 348.871 176.185L347.884 175.574ZM374.808 175.574C372.975 179.522 371.518 181.496 370.343 181.496C369.685 181.496 369.356 181.12 369.356 180.321C369.356 179.522 369.638 178.206 370.155 176.42L374.338 161.474H369.826L367.288 170.827H358.593L359.063 169.229C359.674 167.02 360.003 165.187 360.003 163.824C360.003 161.991 358.875 160.816 356.666 160.816C354.081 160.816 351.59 163.307 349.287 168.289L350.274 168.9C352.107 164.952 353.611 162.978 354.786 162.978C355.444 162.978 355.773 163.354 355.773 164.106C355.867 164.905 355.162 167.208 355.021 167.913L350.838 183H355.35L358.17 172.472H366.818L366.207 174.775C365.455 177.548 365.079 179.475 365.079 180.556C365.079 182.624 366.207 183.658 368.463 183.658C370.954 183.658 373.398 181.167 375.795 176.185L374.808 175.574ZM384.999 182.342C382.367 182.342 381.286 179.992 381.286 174.963C381.145 169.464 384.67 162.085 388.947 162.179C391.438 162.179 392.66 164.435 392.66 168.994C392.66 172.566 391.626 176.843 389.182 179.992C387.96 181.543 386.55 182.342 384.999 182.342ZM396.984 169.605C396.984 164.482 394.117 160.816 389.229 160.816C385.704 160.816 382.79 162.179 380.487 164.952C378.184 167.678 377.009 171.015 377.009 175.01C377.009 180.133 379.876 183.658 384.811 183.658C388.242 183.658 391.109 182.248 393.459 179.381C395.809 176.514 396.984 173.224 396.984 169.605ZM415.283 166.08C415.283 162.884 412.886 160.816 408.703 160.816C404.943 160.816 401.23 162.602 399.209 166.879L400.008 167.49C401.935 164.247 404.473 162.602 407.669 162.602C409.69 162.602 411.335 163.73 411.335 165.657C411.335 169.699 406.635 170.404 402.922 171.767C400.431 172.707 398.363 174.822 398.363 178.347C398.363 181.496 400.901 183.658 405.366 183.658C408.515 183.658 412.134 181.543 414.061 177.642L413.215 177.172C411.523 180.039 408.609 181.966 406.165 181.966C403.862 181.966 402.264 180.932 402.264 178.911C402.264 175.057 406.964 174.305 410.677 172.848C413.262 171.861 415.283 169.605 415.283 166.08ZM424.618 182.342C421.986 182.342 420.905 179.992 420.905 174.963C420.764 169.464 424.289 162.085 428.566 162.179C431.057 162.179 432.279 164.435 432.279 168.994C432.279 172.566 431.245 176.843 428.801 179.992C427.579 181.543 426.169 182.342 424.618 182.342ZM436.603 169.605C436.603 164.482 433.736 160.816 428.848 160.816C425.323 160.816 422.409 162.179 420.106 164.952C417.803 167.678 416.628 171.015 416.628 175.01C416.628 180.133 419.495 183.658 424.43 183.658C427.861 183.658 430.728 182.248 433.078 179.381C435.428 176.514 436.603 173.224 436.603 169.605ZM238.981 196.066C238.558 196.959 237.947 197.617 237.148 197.993C236.631 198.228 234.469 198.745 230.662 199.544C226.338 200.484 223.33 202.646 221.309 206.359C220.322 208.192 219.57 210.119 219.006 212.093C218.442 214.02 217.925 216.417 217.455 219.284C217.314 220.083 217.22 221.117 217.22 222.292C217.22 227.18 219.57 230.47 223.894 230.47C227.513 230.47 230.662 229.107 233.294 226.428C235.973 223.749 237.289 220.553 237.289 216.887C237.289 214.49 236.631 212.469 235.315 210.871C233.999 209.226 232.213 208.427 230.004 208.427C225.492 208.427 221.638 211.435 219.429 216.464C219.758 214.96 220.04 213.785 220.275 212.892C220.51 211.999 220.886 210.965 221.356 209.884C221.873 208.803 222.437 207.91 223.048 207.252C224.364 205.936 226.432 204.62 229.205 204.009C232.166 203.304 234.281 202.74 235.456 202.223C236.678 201.706 237.571 201.048 238.135 200.249C238.746 199.45 239.357 198.04 239.968 196.066H238.981ZM232.918 216.135C232.918 218.814 232.213 222.01 230.944 224.689C229.675 227.368 227.513 229.342 225.21 229.342C222.719 229.342 221.403 227.039 221.403 223.138C221.403 219.989 222.108 216.981 223.518 214.114C224.975 211.247 226.808 209.837 229.017 209.837C231.508 209.837 232.918 212.422 232.918 216.135ZM262.311 222.574C261.606 224.219 260.807 225.629 259.961 226.804C259.162 227.932 258.504 228.496 257.987 228.496C257.282 228.496 256.953 228.12 256.953 227.321C256.953 226.334 257.329 224.595 258.034 222.01L261.747 208.474H257.329L256.013 213.456C255.684 209.884 253.757 207.816 250.89 207.816C244.874 207.628 239.14 216.088 239.328 223.42C239.328 227.885 241.443 230.658 245.203 230.658C248.54 230.658 251.783 228.167 253.616 223.89C253.287 225.253 253.099 226.24 253.099 226.898C253.099 229.389 254.039 230.658 255.872 230.658C258.457 230.658 260.948 228.167 263.345 223.185L262.311 222.574ZM246.848 228.919C244.827 228.919 243.605 227.321 243.605 224.125C243.605 222.292 243.934 220.224 244.639 218.015C245.344 215.806 246.331 213.832 247.6 212.14C248.916 210.401 250.326 209.555 251.783 209.555C253.616 209.555 255.026 211.153 255.026 214.584C255.026 216.417 254.697 218.438 253.992 220.647C253.287 222.856 252.3 224.783 250.984 226.428C249.715 228.073 248.305 228.919 246.848 228.919ZM264.989 230.517C266.305 230.517 267.386 229.953 268.326 228.496C269.266 227.039 269.924 225.817 270.723 223.232C271.146 221.963 271.475 220.835 271.71 219.848L272.791 215.853L273.966 211.717C274.342 210.354 274.859 209.79 276.034 209.79H277.867C279.371 209.79 280.123 210.636 280.123 212.328C280.123 212.892 279.982 213.644 279.747 214.537L277.209 223.608C276.786 225.065 276.551 226.522 276.551 227.885C276.551 229.53 277.82 230.658 279.935 230.658C282.614 230.658 285.105 228.167 287.502 223.232L286.468 222.621C284.635 226.569 283.178 228.543 282.003 228.543C281.392 228.543 281.063 228.12 281.063 227.274C281.063 226.475 281.345 225.159 281.862 223.279L284.165 215.054C284.447 214.067 284.588 213.08 284.588 212.14C284.588 209.696 283.178 208.474 280.405 208.474H270.112L269.736 209.79H271.616C272.415 209.79 272.838 210.072 272.838 210.683C272.838 210.73 272.791 211.106 272.65 211.717C270.864 218.72 269.454 223.42 268.42 225.864C267.433 228.261 266.258 229.483 264.895 229.483C264.237 229.483 263.908 229.248 263.908 228.731C265.177 228.731 265.835 227.838 265.835 226.71C265.835 225.629 265.083 224.783 264.19 224.783C262.921 224.783 261.981 226.052 261.981 227.509C261.981 229.201 263.344 230.517 264.989 230.517ZM311.661 222.574C310.956 224.219 310.157 225.629 309.311 226.804C308.512 227.932 307.854 228.496 307.337 228.496C306.632 228.496 306.303 228.12 306.303 227.321C306.303 226.334 306.679 224.595 307.384 222.01L311.097 208.474H306.679L305.363 213.456C305.034 209.884 303.107 207.816 300.24 207.816C294.224 207.628 288.49 216.088 288.678 223.42C288.678 227.885 290.793 230.658 294.553 230.658C297.89 230.658 301.133 228.167 302.966 223.89C302.637 225.253 302.449 226.24 302.449 226.898C302.449 229.389 303.389 230.658 305.222 230.658C307.807 230.658 310.298 228.167 312.695 223.185L311.661 222.574ZM296.198 228.919C294.177 228.919 292.955 227.321 292.955 224.125C292.955 222.292 293.284 220.224 293.989 218.015C294.694 215.806 295.681 213.832 296.95 212.14C298.266 210.401 299.676 209.555 301.133 209.555C302.966 209.555 304.376 211.153 304.376 214.584C304.376 216.417 304.047 218.438 303.342 220.647C302.637 222.856 301.65 224.783 300.334 226.428C299.065 228.073 297.655 228.919 296.198 228.919ZM338.626 222.574C336.793 226.522 335.336 228.496 334.161 228.496C333.503 228.496 333.174 228.12 333.174 227.321C333.174 226.522 333.456 225.206 333.973 223.42L338.156 208.474H333.644L331.106 217.827H322.411L322.881 216.229C323.492 214.02 323.821 212.187 323.821 210.824C323.821 208.991 322.693 207.816 320.484 207.816C317.899 207.816 315.408 210.307 313.105 215.289L314.092 215.9C315.925 211.952 317.429 209.978 318.604 209.978C319.262 209.978 319.591 210.354 319.591 211.106C319.685 211.905 318.98 214.208 318.839 214.913L314.656 230H319.168L321.988 219.472H330.636L330.025 221.775C329.273 224.548 328.897 226.475 328.897 227.556C328.897 229.624 330.025 230.658 332.281 230.658C334.772 230.658 337.216 228.167 339.613 223.185L338.626 222.574ZM359.017 212.469C359.017 209.461 356.432 207.816 353.001 207.816C349.57 207.816 346.703 209.226 344.353 212.093C342.003 214.96 340.828 218.25 340.828 222.01C340.828 224.595 341.58 226.663 343.084 228.261C344.635 229.859 346.609 230.658 349.006 230.658C352.531 230.658 355.633 228.12 357.748 223.608L356.761 223.138C354.928 226.945 352.672 228.825 349.993 228.825C347.22 228.825 345.34 226.146 345.34 222.057C345.34 218.156 346.139 215.054 347.737 212.657C349.335 210.26 351.168 209.038 353.283 209.038C355.868 209.038 357.607 210.448 357.607 212.281C357.184 211.858 356.62 211.623 355.962 211.623C354.787 211.623 353.8 212.986 353.8 214.302C353.8 215.43 354.411 216.558 355.962 216.558C357.842 216.558 359.017 214.349 359.017 212.469ZM382.793 222.574C382.088 224.219 381.289 225.629 380.443 226.804C379.644 227.932 378.986 228.496 378.469 228.496C377.764 228.496 377.435 228.12 377.435 227.321C377.435 226.334 377.811 224.595 378.516 222.01L382.229 208.474H377.811L376.495 213.456C376.166 209.884 374.239 207.816 371.372 207.816C365.356 207.628 359.622 216.088 359.81 223.42C359.81 227.885 361.925 230.658 365.685 230.658C369.022 230.658 372.265 228.167 374.098 223.89C373.769 225.253 373.581 226.24 373.581 226.898C373.581 229.389 374.521 230.658 376.354 230.658C378.939 230.658 381.43 228.167 383.827 223.185L382.793 222.574ZM367.33 228.919C365.309 228.919 364.087 227.321 364.087 224.125C364.087 222.292 364.416 220.224 365.121 218.015C365.826 215.806 366.813 213.832 368.082 212.14C369.398 210.401 370.808 209.555 372.265 209.555C374.098 209.555 375.508 211.153 375.508 214.584C375.508 216.417 375.179 218.438 374.474 220.647C373.769 222.856 372.782 224.783 371.466 226.428C370.197 228.073 368.787 228.919 367.33 228.919Z" fill="black"/>
<rect x="0.00012207" y="300.5" width="600" height="299.5" fill="#FC4A27" fill-opacity="0.5"/>
</g>
<defs>
<clipPath id="clip0_1654_3059">
<rect width="600" height="600" fill="white"/>
</clipPath>
</defs>
</svg>
