<svg width="600" height="600" viewBox="0 0 600 600" fill="none" xmlns="http://www.w3.org/2000/svg">
<g clip-path="url(#clip0_1654_2945)">
<rect width="600" height="600" fill="white"/>
<path d="M74.547 277V260.578H77.997L82.137 268.283H82.643L86.714 260.578H90.187V277H88.163V262.924H87.657L83.448 270.721H81.286L77.077 262.924H76.571V277H74.547ZM103.833 270.514V271.181H95.001C95.0316 272.576 95.3613 273.665 95.99 274.447C96.6186 275.214 97.5233 275.597 98.704 275.597C100.299 275.597 101.28 274.999 101.648 273.803H103.626C103.427 274.846 102.898 275.689 102.039 276.333C101.196 276.977 100.084 277.299 98.704 277.299C96.9406 277.299 95.5606 276.724 94.564 275.574C93.5673 274.424 93.069 272.929 93.069 271.089C93.069 269.28 93.5673 267.831 94.564 266.742C95.5606 265.653 96.9253 265.109 98.658 265.109C100.299 265.109 101.564 265.63 102.453 266.673C103.342 267.7 103.802 268.981 103.833 270.514ZM98.612 266.811C97.6153 266.811 96.818 267.072 96.22 267.593C95.622 268.099 95.254 268.751 95.116 269.548H101.809C101.748 268.766 101.433 268.114 100.866 267.593C100.299 267.072 99.5473 266.811 98.612 266.811ZM116.813 275.298H118.952V280.289H117.043V277H107.015V280.289H105.106V275.298H106.647C107.597 273.274 108.073 271.035 108.073 268.582V265.408H116.813V275.298ZM114.858 275.298V267.11H109.89V268.582C109.89 271.204 109.468 273.443 108.625 275.298H114.858ZM123.859 277H121.099V265.408H123.008V274.378H123.514L128.597 265.408H131.449V277H129.54V268.03H129.034L123.859 277ZM142.219 277V275.781H141.713C140.915 276.793 139.712 277.299 138.102 277.299C136.829 277.299 135.817 276.931 135.066 276.195C134.314 275.459 133.939 274.57 133.939 273.527C133.939 272.469 134.307 271.564 135.043 270.813C135.779 270.062 136.89 269.686 138.378 269.686H142.15V269.226C142.15 268.49 141.92 267.907 141.46 267.478C141 267.033 140.287 266.811 139.321 266.811C137.634 266.811 136.737 267.371 136.63 268.49H134.675C134.751 267.432 135.204 266.604 136.032 266.006C136.875 265.408 137.956 265.109 139.275 265.109C140.762 265.109 141.927 265.454 142.771 266.144C143.629 266.834 144.059 267.823 144.059 269.111V277H142.219ZM138.585 275.597C139.551 275.597 140.386 275.283 141.092 274.654C141.797 274.01 142.15 273.228 142.15 272.308V271.25H138.677C136.821 271.25 135.894 271.986 135.894 273.458C135.894 274.117 136.124 274.639 136.584 275.022C137.059 275.405 137.726 275.597 138.585 275.597ZM152.767 271.48H146.488V269.755H152.767V271.48ZM163.571 273.504H165.526C165.296 274.669 164.752 275.597 163.893 276.287C163.05 276.962 161.969 277.299 160.65 277.299C158.902 277.299 157.522 276.732 156.51 275.597C155.514 274.447 155.015 272.983 155.015 271.204C155.015 269.41 155.514 267.946 156.51 266.811C157.507 265.676 158.887 265.109 160.65 265.109C161.984 265.109 163.065 265.446 163.893 266.121C164.737 266.78 165.258 267.662 165.457 268.766H163.502C163.088 267.463 162.138 266.811 160.65 266.811C159.408 266.811 158.481 267.225 157.867 268.053C157.269 268.866 156.97 269.901 156.97 271.158C156.97 272.431 157.277 273.489 157.89 274.332C158.504 275.175 159.424 275.597 160.65 275.597C162.276 275.597 163.249 274.899 163.571 273.504ZM178.101 270.514V271.181H169.269C169.3 272.576 169.63 273.665 170.258 274.447C170.887 275.214 171.792 275.597 172.972 275.597C174.567 275.597 175.548 274.999 175.916 273.803H177.894C177.695 274.846 177.166 275.689 176.307 276.333C175.464 276.977 174.352 277.299 172.972 277.299C171.209 277.299 169.829 276.724 168.832 275.574C167.836 274.424 167.337 272.929 167.337 271.089C167.337 269.28 167.836 267.831 168.832 266.742C169.829 265.653 171.194 265.109 172.926 265.109C174.567 265.109 175.832 265.63 176.721 266.673C177.611 267.7 178.071 268.981 178.101 270.514ZM172.88 266.811C171.884 266.811 171.086 267.072 170.488 267.593C169.89 268.099 169.522 268.751 169.384 269.548H176.077C176.016 268.766 175.702 268.114 175.134 267.593C174.567 267.072 173.816 266.811 172.88 266.811ZM186.32 266.811C185.109 266.811 184.196 267.233 183.583 268.076C182.985 268.919 182.686 269.962 182.686 271.204C182.686 272.446 182.985 273.489 183.583 274.332C184.196 275.175 185.109 275.597 186.32 275.597C187.455 275.597 188.329 275.198 188.942 274.401C189.571 273.588 189.885 272.523 189.885 271.204C189.885 269.885 189.571 268.827 188.942 268.03C188.329 267.217 187.455 266.811 186.32 266.811ZM180.754 265.408H182.64V266.65H183.146C183.974 265.623 185.178 265.109 186.757 265.109C188.321 265.109 189.555 265.684 190.46 266.834C191.38 267.984 191.84 269.441 191.84 271.204C191.84 272.998 191.38 274.462 190.46 275.597C189.555 276.732 188.321 277.299 186.757 277.299C185.162 277.299 183.982 276.785 183.215 275.758H182.709V281.6H180.754V265.408ZM202.678 270.606V271.112C203.246 271.25 203.698 271.557 204.035 272.032C204.388 272.507 204.564 273.105 204.564 273.826C204.564 275.942 203.2 277 200.47 277H194.513V265.408H200.263C201.429 265.408 202.326 265.669 202.954 266.19C203.598 266.696 203.92 267.409 203.92 268.329C203.92 268.866 203.798 269.333 203.552 269.732C203.322 270.131 203.031 270.422 202.678 270.606ZM196.445 275.344H200.355C201.858 275.344 202.609 274.769 202.609 273.619C202.609 272.454 201.858 271.871 200.355 271.871H196.445V275.344ZM196.445 267.064V270.215H200.079C200.739 270.215 201.214 270.069 201.505 269.778C201.812 269.487 201.965 269.111 201.965 268.651C201.965 267.593 201.337 267.064 200.079 267.064H196.445ZM209.977 277H207.217V265.408H209.126V274.378H209.632L214.715 265.408H217.567V277H215.658V268.03H215.152L209.977 277ZM228.797 273.504H230.752C230.522 274.669 229.978 275.597 229.119 276.287C228.276 276.962 227.195 277.299 225.876 277.299C224.128 277.299 222.748 276.732 221.736 275.597C220.739 274.447 220.241 272.983 220.241 271.204C220.241 269.41 220.739 267.946 221.736 266.811C222.733 265.676 224.113 265.109 225.876 265.109C227.21 265.109 228.291 265.446 229.119 266.121C229.962 266.78 230.484 267.662 230.683 268.766H228.728C228.314 267.463 227.363 266.811 225.876 266.811C224.634 266.811 223.706 267.225 223.093 268.053C222.495 268.866 222.196 269.901 222.196 271.158C222.196 272.431 222.503 273.489 223.116 274.332C223.729 275.175 224.649 275.597 225.876 275.597C227.501 275.597 228.475 274.899 228.797 273.504ZM89.309 291.237C89.309 289.834 88.044 289.144 86.227 289.144C85.054 289.144 83.973 289.512 83.007 290.271C82.064 291.007 81.328 291.904 80.845 292.985C80.362 294.043 80.132 295.124 80.132 296.205C80.132 298.62 81.305 300.322 83.789 300.322C85.238 300.322 86.411 299.977 87.262 299.287C88.113 298.597 88.55 297.746 88.55 296.711C88.55 295.515 87.86 294.411 86.135 294.296C87.193 294.02 87.975 293.583 88.504 292.962C89.033 292.341 89.309 291.766 89.309 291.237ZM86.549 296.596C86.549 297.493 86.296 298.229 85.767 298.804C85.261 299.379 84.709 299.655 84.088 299.655C82.869 299.655 82.248 298.712 82.248 296.803C82.248 296.228 82.294 295.676 82.363 295.147C83.237 294.802 84.088 294.641 84.939 294.641C85.928 294.641 86.549 295.492 86.549 296.596ZM85.997 289.788C86.825 289.788 87.446 290.317 87.446 291.237C87.446 292.226 86.641 293.422 85.146 293.997C84.134 294.089 83.237 294.273 82.455 294.526C82.662 293.215 83.099 292.111 83.766 291.191C84.433 290.248 85.169 289.788 85.997 289.788ZM97.7507 298.896C97.7507 299.816 98.1187 300.322 99.1537 300.322C100.396 300.322 101.592 299.103 102.765 296.688L102.259 296.389C101.385 298.321 100.649 299.287 100.051 299.287C99.7517 299.287 99.5907 299.103 99.5907 298.735C99.5907 298.344 99.7057 297.723 99.9587 296.872L102.006 289.466H99.7747L98.7627 293.33C98.4177 294.641 97.7967 295.929 96.8767 297.24C95.9797 298.551 95.1517 299.195 94.4387 299.195C93.8177 299.195 93.5187 298.804 93.5187 297.999C93.5187 297.539 93.6337 296.872 93.8637 296.021L94.5307 293.514C94.9217 292.065 95.1057 291.122 95.1057 290.685C95.1057 289.65 94.5537 289.144 93.4727 289.144C92.2077 289.144 91.0117 290.363 89.8617 292.801L90.3677 293.1C91.2417 291.168 91.9547 290.202 92.5297 290.202C92.8287 290.202 92.9897 290.386 92.9897 290.754C92.9667 291.329 92.8287 291.996 92.6217 292.755L91.6097 296.274C91.4027 296.987 91.2877 297.677 91.2877 298.298C91.2877 299.655 92.0007 300.322 93.4037 300.322C94.3237 300.322 95.2207 299.885 96.0947 299.011C96.9917 298.114 97.7507 296.987 98.3717 295.607C97.9577 297.033 97.7507 298.137 97.7507 298.896ZM121.441 296.366C120.682 298.022 119.785 299.264 119.256 299.264C118.957 299.264 118.796 299.08 118.796 298.712C118.796 298.229 118.911 297.585 119.164 296.734L120.176 293.192C120.406 292.41 120.521 291.72 120.521 291.122C120.521 289.811 119.854 289.144 118.497 289.144C117.646 289.144 116.726 289.604 115.783 290.501C114.84 291.398 114.058 292.525 113.437 293.882C113.782 292.617 113.943 291.674 113.943 291.053C113.943 289.788 113.368 289.144 112.195 289.144C111.321 289.144 110.401 289.581 109.458 290.455C108.515 291.329 107.733 292.479 107.112 293.882C107.526 292.295 107.733 291.191 107.733 290.593C107.733 289.65 107.388 289.144 106.353 289.144C104.973 289.144 103.846 290.501 102.742 292.801L103.248 293.1C103.961 291.444 104.858 290.202 105.433 290.202C105.732 290.202 105.893 290.386 105.893 290.754C105.893 291.053 105.778 291.674 105.525 292.617L103.547 300H105.709L106.813 295.906C107.158 294.687 107.779 293.445 108.676 292.18C109.573 290.915 110.355 290.294 110.976 290.294C111.712 290.294 111.965 290.616 111.965 291.444C111.965 291.904 111.85 292.571 111.62 293.468L109.826 300H111.988L113.115 295.906C113.437 294.733 114.058 293.514 114.955 292.226C115.875 290.938 116.657 290.294 117.278 290.294C118.037 290.294 118.29 290.616 118.29 291.444C118.29 291.881 118.175 292.571 117.922 293.468L117.255 295.975C116.887 297.286 116.703 298.229 116.703 298.804C116.703 299.816 117.232 300.322 118.313 300.322C119.693 300.322 120.82 298.965 121.924 296.665L121.441 296.366ZM133.622 296.366C133.277 297.171 132.886 297.861 132.472 298.436C132.081 298.988 131.759 299.264 131.506 299.264C131.161 299.264 131 299.08 131 298.689C131 298.206 131.184 297.355 131.529 296.09L133.346 289.466H131.184L130.54 291.904C130.379 290.156 129.436 289.144 128.033 289.144C125.089 289.052 122.283 293.192 122.375 296.78C122.375 298.965 123.41 300.322 125.25 300.322C126.883 300.322 128.47 299.103 129.367 297.01C129.206 297.677 129.114 298.16 129.114 298.482C129.114 299.701 129.574 300.322 130.471 300.322C131.736 300.322 132.955 299.103 134.128 296.665L133.622 296.366ZM126.055 299.471C125.066 299.471 124.468 298.689 124.468 297.125C124.468 296.228 124.629 295.216 124.974 294.135C125.319 293.054 125.802 292.088 126.423 291.26C127.067 290.409 127.757 289.995 128.47 289.995C129.367 289.995 130.057 290.777 130.057 292.456C130.057 293.353 129.896 294.342 129.551 295.423C129.206 296.504 128.723 297.447 128.079 298.252C127.458 299.057 126.768 299.471 126.055 299.471ZM134.956 299.793C134.588 299.793 134.404 299.678 134.404 299.425C135.025 299.425 135.347 298.988 135.347 298.436C135.347 297.907 134.979 297.493 134.542 297.493C133.921 297.493 133.461 298.114 133.461 298.827C133.461 299.655 134.128 300.299 134.933 300.299C135.692 300.299 136.29 299.793 136.796 299.08C137.141 298.62 137.509 297.677 137.716 297.056C137.831 296.734 137.992 296.297 138.153 295.745L138.567 294.342C138.682 293.951 138.82 293.422 138.981 292.755L139.441 291.122C139.855 292.387 140.108 295.4 140.177 300.161H140.775L146.548 290.685L145.007 296.412C144.708 297.493 144.547 298.298 144.547 298.827C144.547 299.724 145.076 300.322 146.157 300.322C147.468 300.322 148.71 299.103 149.86 296.688L149.377 296.389C148.618 298.068 147.767 299.287 147.192 299.287C146.87 299.287 146.709 299.08 146.709 298.689C146.709 298.39 146.824 297.769 147.077 296.826L149.078 289.466H146.548L142.109 297.01C141.971 291.766 141.097 289.144 139.464 289.144C138.107 289.144 136.819 290.386 135.623 292.847L136.152 293.077C136.911 291.26 137.831 290.271 138.544 290.271C138.682 290.271 138.82 290.317 138.935 290.409C137.969 294.158 137.233 296.642 136.75 297.907C136.267 299.172 135.669 299.793 134.956 299.793ZM157.954 298.896C157.954 299.816 158.322 300.322 159.357 300.322C160.599 300.322 161.795 299.103 162.968 296.688L162.462 296.389C161.588 298.321 160.852 299.287 160.254 299.287C159.955 299.287 159.794 299.103 159.794 298.735C159.794 298.344 159.909 297.723 160.162 296.872L162.209 289.466H159.978L158.966 293.33C158.621 294.641 158 295.929 157.08 297.24C156.183 298.551 155.355 299.195 154.642 299.195C154.021 299.195 153.722 298.804 153.722 297.999C153.722 297.539 153.837 296.872 154.067 296.021L154.734 293.514C155.125 292.065 155.309 291.122 155.309 290.685C155.309 289.65 154.757 289.144 153.676 289.144C152.411 289.144 151.215 290.363 150.065 292.801L150.571 293.1C151.445 291.168 152.158 290.202 152.733 290.202C153.032 290.202 153.193 290.386 153.193 290.754C153.17 291.329 153.032 291.996 152.825 292.755L151.813 296.274C151.606 296.987 151.491 297.677 151.491 298.298C151.491 299.655 152.204 300.322 153.607 300.322C154.527 300.322 155.424 299.885 156.298 299.011C157.195 298.114 157.954 296.987 158.575 295.607C158.161 297.033 157.954 298.137 157.954 298.896ZM175.55 296.366C174.653 298.298 173.94 299.264 173.365 299.264C173.043 299.264 172.882 299.08 172.882 298.689C172.882 298.298 173.02 297.654 173.273 296.78L175.32 289.466H173.112L171.87 294.043H167.615L167.845 293.261C168.144 292.18 168.305 291.283 168.305 290.616C168.305 289.719 167.753 289.144 166.672 289.144C165.407 289.144 164.188 290.363 163.061 292.801L163.544 293.1C164.441 291.168 165.177 290.202 165.752 290.202C166.074 290.202 166.235 290.386 166.235 290.754C166.281 291.145 165.936 292.272 165.867 292.617L163.82 300H166.028L167.408 294.848H171.64L171.341 295.975C170.973 297.332 170.789 298.275 170.789 298.804C170.789 299.816 171.341 300.322 172.445 300.322C173.664 300.322 174.86 299.103 176.033 296.665L175.55 296.366ZM188.725 296.366C187.828 298.298 187.115 299.264 186.54 299.264C186.218 299.264 186.057 299.08 186.057 298.689C186.057 298.298 186.195 297.654 186.448 296.78L188.495 289.466H186.287L185.045 294.043H180.79L181.02 293.261C181.319 292.18 181.48 291.283 181.48 290.616C181.48 289.719 180.928 289.144 179.847 289.144C178.582 289.144 177.363 290.363 176.236 292.801L176.719 293.1C177.616 291.168 178.352 290.202 178.927 290.202C179.249 290.202 179.41 290.386 179.41 290.754C179.456 291.145 179.111 292.272 179.042 292.617L176.995 300H179.203L180.583 294.848H184.815L184.516 295.975C184.148 297.332 183.964 298.275 183.964 298.804C183.964 299.816 184.516 300.322 185.62 300.322C186.839 300.322 188.035 299.103 189.208 296.665L188.725 296.366ZM193.713 299.678C192.425 299.678 191.896 298.528 191.896 296.067C191.827 293.376 193.552 289.765 195.645 289.811C196.864 289.811 197.462 290.915 197.462 293.146C197.462 294.894 196.956 296.987 195.76 298.528C195.162 299.287 194.472 299.678 193.713 299.678ZM199.578 293.445C199.578 290.938 198.175 289.144 195.783 289.144C194.058 289.144 192.632 289.811 191.505 291.168C190.378 292.502 189.803 294.135 189.803 296.09C189.803 298.597 191.206 300.322 193.621 300.322C195.3 300.322 196.703 299.632 197.853 298.229C199.003 296.826 199.578 295.216 199.578 293.445ZM208.532 291.72C208.532 290.156 207.359 289.144 205.312 289.144C203.472 289.144 201.655 290.018 200.666 292.111L201.057 292.41C202 290.823 203.242 290.018 204.806 290.018C205.795 290.018 206.6 290.57 206.6 291.513C206.6 293.491 204.3 293.836 202.483 294.503C201.264 294.963 200.252 295.998 200.252 297.723C200.252 299.264 201.494 300.322 203.679 300.322C205.22 300.322 206.991 299.287 207.934 297.378L207.52 297.148C206.692 298.551 205.266 299.494 204.07 299.494C202.943 299.494 202.161 298.988 202.161 297.999C202.161 296.113 204.461 295.745 206.278 295.032C207.543 294.549 208.532 293.445 208.532 291.72ZM213.101 299.678C211.813 299.678 211.284 298.528 211.284 296.067C211.215 293.376 212.94 289.765 215.033 289.811C216.252 289.811 216.85 290.915 216.85 293.146C216.85 294.894 216.344 296.987 215.148 298.528C214.55 299.287 213.86 299.678 213.101 299.678ZM218.966 293.445C218.966 290.938 217.563 289.144 215.171 289.144C213.446 289.144 212.02 289.811 210.893 291.168C209.766 292.502 209.191 294.135 209.191 296.09C209.191 298.597 210.594 300.322 213.009 300.322C214.688 300.322 216.091 299.632 217.241 298.229C218.391 296.826 218.966 295.216 218.966 293.445ZM122.257 306.394C122.05 306.831 121.751 307.153 121.36 307.337C121.107 307.452 120.049 307.705 118.186 308.096C116.07 308.556 114.598 309.614 113.609 311.431C113.126 312.328 112.758 313.271 112.482 314.237C112.206 315.18 111.953 316.353 111.723 317.756C111.654 318.147 111.608 318.653 111.608 319.228C111.608 321.62 112.758 323.23 114.874 323.23C116.645 323.23 118.186 322.563 119.474 321.252C120.785 319.941 121.429 318.377 121.429 316.583C121.429 315.41 121.107 314.421 120.463 313.639C119.819 312.834 118.945 312.443 117.864 312.443C115.656 312.443 113.77 313.915 112.689 316.376C112.85 315.64 112.988 315.065 113.103 314.628C113.218 314.191 113.402 313.685 113.632 313.156C113.885 312.627 114.161 312.19 114.46 311.868C115.104 311.224 116.116 310.58 117.473 310.281C118.922 309.936 119.957 309.66 120.532 309.407C121.13 309.154 121.567 308.832 121.843 308.441C122.142 308.05 122.441 307.36 122.74 306.394H122.257ZM119.29 316.215C119.29 317.526 118.945 319.09 118.324 320.401C117.703 321.712 116.645 322.678 115.518 322.678C114.299 322.678 113.655 321.551 113.655 319.642C113.655 318.101 114 316.629 114.69 315.226C115.403 313.823 116.3 313.133 117.381 313.133C118.6 313.133 119.29 314.398 119.29 316.215ZM133.674 319.366C133.329 320.171 132.938 320.861 132.524 321.436C132.133 321.988 131.811 322.264 131.558 322.264C131.213 322.264 131.052 322.08 131.052 321.689C131.052 321.206 131.236 320.355 131.581 319.09L133.398 312.466H131.236L130.592 314.904C130.431 313.156 129.488 312.144 128.085 312.144C125.141 312.052 122.335 316.192 122.427 319.78C122.427 321.965 123.462 323.322 125.302 323.322C126.935 323.322 128.522 322.103 129.419 320.01C129.258 320.677 129.166 321.16 129.166 321.482C129.166 322.701 129.626 323.322 130.523 323.322C131.788 323.322 133.007 322.103 134.18 319.665L133.674 319.366ZM126.107 322.471C125.118 322.471 124.52 321.689 124.52 320.125C124.52 319.228 124.681 318.216 125.026 317.135C125.371 316.054 125.854 315.088 126.475 314.26C127.119 313.409 127.809 312.995 128.522 312.995C129.419 312.995 130.109 313.777 130.109 315.456C130.109 316.353 129.948 317.342 129.603 318.423C129.258 319.504 128.775 320.447 128.131 321.252C127.51 322.057 126.82 322.471 126.107 322.471ZM134.984 323.253C135.628 323.253 136.157 322.977 136.617 322.264C137.077 321.551 137.399 320.953 137.79 319.688C137.997 319.067 138.158 318.515 138.273 318.032L138.802 316.077L139.377 314.053C139.561 313.386 139.814 313.11 140.389 313.11H141.286C142.022 313.11 142.39 313.524 142.39 314.352C142.39 314.628 142.321 314.996 142.206 315.433L140.964 319.872C140.757 320.585 140.642 321.298 140.642 321.965C140.642 322.77 141.263 323.322 142.298 323.322C143.609 323.322 144.828 322.103 146.001 319.688L145.495 319.389C144.598 321.321 143.885 322.287 143.31 322.287C143.011 322.287 142.85 322.08 142.85 321.666C142.85 321.275 142.988 320.631 143.241 319.711L144.368 315.686C144.506 315.203 144.575 314.72 144.575 314.26C144.575 313.064 143.885 312.466 142.528 312.466H137.491L137.307 313.11H138.227C138.618 313.11 138.825 313.248 138.825 313.547C138.825 313.57 138.802 313.754 138.733 314.053C137.859 317.48 137.169 319.78 136.663 320.976C136.18 322.149 135.605 322.747 134.938 322.747C134.616 322.747 134.455 322.632 134.455 322.379C135.076 322.379 135.398 321.942 135.398 321.39C135.398 320.861 135.03 320.447 134.593 320.447C133.972 320.447 133.512 321.068 133.512 321.781C133.512 322.609 134.179 323.253 134.984 323.253ZM157.824 319.366C157.479 320.171 157.088 320.861 156.674 321.436C156.283 321.988 155.961 322.264 155.708 322.264C155.363 322.264 155.202 322.08 155.202 321.689C155.202 321.206 155.386 320.355 155.731 319.09L157.548 312.466H155.386L154.742 314.904C154.581 313.156 153.638 312.144 152.235 312.144C149.291 312.052 146.485 316.192 146.577 319.78C146.577 321.965 147.612 323.322 149.452 323.322C151.085 323.322 152.672 322.103 153.569 320.01C153.408 320.677 153.316 321.16 153.316 321.482C153.316 322.701 153.776 323.322 154.673 323.322C155.938 323.322 157.157 322.103 158.33 319.665L157.824 319.366ZM150.257 322.471C149.268 322.471 148.67 321.689 148.67 320.125C148.67 319.228 148.831 318.216 149.176 317.135C149.521 316.054 150.004 315.088 150.625 314.26C151.269 313.409 151.959 312.995 152.672 312.995C153.569 312.995 154.259 313.777 154.259 315.456C154.259 316.353 154.098 317.342 153.753 318.423C153.408 319.504 152.925 320.447 152.281 321.252C151.66 322.057 150.97 322.471 150.257 322.471ZM171.02 319.366C170.123 321.298 169.41 322.264 168.835 322.264C168.513 322.264 168.352 322.08 168.352 321.689C168.352 321.298 168.49 320.654 168.743 319.78L170.79 312.466H168.582L167.34 317.043H163.085L163.315 316.261C163.614 315.18 163.775 314.283 163.775 313.616C163.775 312.719 163.223 312.144 162.142 312.144C160.877 312.144 159.658 313.363 158.531 315.801L159.014 316.1C159.911 314.168 160.647 313.202 161.222 313.202C161.544 313.202 161.705 313.386 161.705 313.754C161.751 314.145 161.406 315.272 161.337 315.617L159.29 323H161.498L162.878 317.848H167.11L166.811 318.975C166.443 320.332 166.259 321.275 166.259 321.804C166.259 322.816 166.811 323.322 167.915 323.322C169.134 323.322 170.33 322.103 171.503 319.665L171.02 319.366ZM180.998 314.421C180.998 312.949 179.733 312.144 178.054 312.144C176.375 312.144 174.972 312.834 173.822 314.237C172.672 315.64 172.097 317.25 172.097 319.09C172.097 320.355 172.465 321.367 173.201 322.149C173.96 322.931 174.926 323.322 176.099 323.322C177.824 323.322 179.342 322.08 180.377 319.872L179.894 319.642C178.997 321.505 177.893 322.425 176.582 322.425C175.225 322.425 174.305 321.114 174.305 319.113C174.305 317.204 174.696 315.686 175.478 314.513C176.26 313.34 177.157 312.742 178.192 312.742C179.457 312.742 180.308 313.432 180.308 314.329C180.101 314.122 179.825 314.007 179.503 314.007C178.928 314.007 178.445 314.674 178.445 315.318C178.445 315.87 178.744 316.422 179.503 316.422C180.423 316.422 180.998 315.341 180.998 314.421ZM192.633 319.366C192.288 320.171 191.897 320.861 191.483 321.436C191.092 321.988 190.77 322.264 190.517 322.264C190.172 322.264 190.011 322.08 190.011 321.689C190.011 321.206 190.195 320.355 190.54 319.09L192.357 312.466H190.195L189.551 314.904C189.39 313.156 188.447 312.144 187.044 312.144C184.1 312.052 181.294 316.192 181.386 319.78C181.386 321.965 182.421 323.322 184.261 323.322C185.894 323.322 187.481 322.103 188.378 320.01C188.217 320.677 188.125 321.16 188.125 321.482C188.125 322.701 188.585 323.322 189.482 323.322C190.747 323.322 191.966 322.103 193.139 319.665L192.633 319.366ZM185.066 322.471C184.077 322.471 183.479 321.689 183.479 320.125C183.479 319.228 183.64 318.216 183.985 317.135C184.33 316.054 184.813 315.088 185.434 314.26C186.078 313.409 186.768 312.995 187.481 312.995C188.378 312.995 189.068 313.777 189.068 315.456C189.068 316.353 188.907 317.342 188.562 318.423C188.217 319.504 187.734 320.447 187.09 321.252C186.469 322.057 185.779 322.471 185.066 322.471Z" fill="black"/>
<path fill-rule="evenodd" clip-rule="evenodd" d="M48.1001 538.396C46.2044 537.008 43.9157 536.259 41.5661 536.26H28.305L18.9344 581.24H29.822L30.96 575.774L31.4641 576.401C33.1453 578.491 35.434 580.009 38.0144 580.744C40.5948 581.479 43.3397 581.395 45.8704 580.504C48.4011 579.613 50.5929 577.958 52.1433 575.769C53.6937 573.579 54.5264 570.962 54.5264 568.279C54.5271 565.986 53.9192 563.734 52.7647 561.752C51.6103 559.771 49.9507 558.132 47.9554 557.001L47.4327 556.705L47.9242 556.36C49.8466 555.009 51.2887 553.081 52.041 550.855C52.7934 548.629 52.817 546.221 52.1083 543.981C51.3997 541.741 49.9957 539.784 48.1001 538.396ZM55.2862 568.279C55.2862 571.119 54.4047 573.89 52.7634 576.208C51.1221 578.526 48.8019 580.277 46.1228 581.221C43.4438 582.164 40.5379 582.253 37.8063 581.475C35.3272 580.769 33.1025 579.38 31.3819 577.475L30.4399 582H18L27.6872 535.5L41.5659 535.5C41.566 535.5 41.5659 535.5 41.5659 535.5C44.0771 535.5 46.5231 536.299 48.549 537.783C50.5749 539.267 52.0754 541.357 52.8327 543.752C53.5901 546.146 53.5649 548.719 52.7608 551.098C52.0188 553.293 50.6492 555.218 48.8277 556.636C50.7186 557.815 52.2964 559.439 53.4212 561.37C54.6433 563.467 55.2869 565.852 55.2862 568.279Z" fill="black"/>
<path fill-rule="evenodd" clip-rule="evenodd" d="M30.5111 547.316C30.5094 549.09 30.9354 550.839 31.753 552.413C32.5706 553.988 33.7557 555.342 35.2079 556.361L35.7 556.706L35.1769 557.002C33.1814 558.132 31.5216 559.772 30.367 561.753C29.2124 563.734 28.6044 565.986 28.605 568.28L27.8452 568.28C27.8445 565.852 28.4882 563.468 29.7105 561.37C30.8354 559.44 32.4133 557.816 34.3042 556.637C32.9642 555.595 31.8632 554.274 31.0787 552.763C30.2048 551.08 29.7495 549.212 29.7513 547.315L30.5111 547.316Z" fill="black"/>
<rect x="18" y="18" width="46" height="564" fill="#8EA5EB" fill-opacity="0.2"/>
<rect x="92" y="18" width="46" height="564" fill="#8EA5EB" fill-opacity="0.2"/>
<rect x="166" y="18" width="46" height="564" fill="#8EA5EB" fill-opacity="0.2"/>
<rect x="240" y="18" width="46" height="564" fill="#8EA5EB" fill-opacity="0.2"/>
<rect x="314" y="18" width="46" height="564" fill="#8EA5EB" fill-opacity="0.2"/>
<rect x="388" y="18" width="46" height="564" fill="#8EA5EB" fill-opacity="0.2"/>
<rect x="462" y="18" width="46" height="564" fill="#8EA5EB" fill-opacity="0.2"/>
<rect x="536" y="18" width="46" height="564" fill="#8EA5EB" fill-opacity="0.2"/>
<path d="M18.2349 42H581.765" stroke="#8EA5EB"/>
<path d="M18.2349 65.5H581.765" stroke="#8EA5EB"/>
<path d="M18.2349 89H581.765" stroke="#8EA5EB"/>
<path d="M18.2349 112.5H581.765" stroke="#8EA5EB"/>
<path d="M18.2349 136H581.765" stroke="#8EA5EB"/>
<path d="M18.2349 159.5H581.765" stroke="#8EA5EB"/>
<path d="M18.2349 183H581.765" stroke="#8EA5EB"/>
<path d="M18.2349 206.5H581.765" stroke="#8EA5EB"/>
<path d="M18.2349 230H581.765" stroke="#8EA5EB"/>
<path d="M18.2349 253.5H581.765" stroke="#8EA5EB"/>
<path d="M18.2349 277H581.765" stroke="#8EA5EB"/>
<path d="M18.2349 300.5H581.765" stroke="#8EA5EB"/>
<path d="M18.2349 324H581.765" stroke="#8EA5EB"/>
<path d="M18.2349 347.5H581.765" stroke="#8EA5EB"/>
<path d="M18.2349 371H581.765" stroke="#8EA5EB"/>
<path d="M18.2349 394.5H581.765" stroke="#8EA5EB"/>
<path d="M18.2349 418H581.765" stroke="#8EA5EB"/>
<path d="M18.2349 441.5H581.765" stroke="#8EA5EB"/>
<path d="M18.2349 465H581.765" stroke="#8EA5EB"/>
<path d="M18.2349 488.5H581.765" stroke="#8EA5EB"/>
<path d="M18.2349 512H581.765" stroke="#8EA5EB"/>
<path d="M18.2349 535.5H581.765" stroke="#8EA5EB"/>
<path d="M18.2349 559H581.765" stroke="#8EA5EB"/>
<rect x="314" width="286" height="600.154" fill="#FC4A27" fill-opacity="0.5"/>
</g>
<defs>
<clipPath id="clip0_1654_2945">
<rect width="600" height="600" fill="white"/>
</clipPath>
</defs>
</svg>
