<svg width="367" height="126" viewBox="0 0 367 126" fill="none" xmlns="http://www.w3.org/2000/svg">
<g filter="url(#filter0_d_1661_3146)">
<path fill-rule="evenodd" clip-rule="evenodd" d="M320.898 31H38.8976V31L31.8976 31L38.8976 38L31.8976 45L38.8976 52L31.8976 59L38.8976 66L31.8976 73L38.8976 80L31.8976 87L38.8976 87L45.875 87H314.125L320.898 87L327.898 87L320.898 80L327.898 73L320.898 66L327.898 59L320.898 52L327.898 45L320.898 38L327.898 31L320.898 31Z" fill="#F4ECE1"/>
<path d="M69.7436 66.865H74.0186C73.3286 69.835 71.8886 72.205 69.6986 73.975C67.5086 75.715 64.7036 76.585 61.2836 76.585C56.6036 76.585 52.9586 75.04 50.3486 71.95C47.7386 68.86 46.4336 64.855 46.4336 59.935C46.4336 55.015 47.7536 51.01 50.3936 47.92C53.0336 44.83 56.6786 43.285 61.3286 43.285C64.5686 43.285 67.2686 44.095 69.4286 45.715C71.5886 47.305 72.9986 49.495 73.6586 52.285H69.3836C68.1236 48.745 65.4386 46.975 61.3286 46.975C57.7886 46.975 55.1036 48.22 53.2736 50.71C51.4436 53.2 50.5286 56.275 50.5286 59.935C50.5286 63.625 51.4286 66.715 53.2286 69.205C55.0586 71.665 57.7436 72.895 61.2836 72.895C63.5036 72.895 65.3336 72.37 66.7736 71.32C68.2136 70.24 69.2036 68.755 69.7436 66.865ZM101.503 43.87V47.47H90.9734V76H86.9234V47.47H76.3035V43.87H101.503ZM125.123 76L121.793 66.145H107.708L104.378 76H100.238L111.353 43.87H118.193L129.353 76H125.123ZM113.828 48.01L108.923 62.455H120.533L115.628 48.01H113.828ZM133.561 43.87H137.521V71.095H138.511L153.451 43.87H159.796V76H155.836V48.775H154.846L139.906 76H133.561V43.87ZM151.246 35.32H154.531C154.471 37.51 153.721 39.22 152.281 40.45C150.841 41.68 148.966 42.295 146.656 42.295C144.406 42.295 142.561 41.68 141.121 40.45C139.681 39.22 138.931 37.51 138.871 35.32H142.156C142.186 36.58 142.606 37.57 143.416 38.29C144.226 39.01 145.306 39.37 146.656 39.37C148.006 39.37 149.101 39.01 149.941 38.29C150.781 37.57 151.216 36.58 151.246 35.32ZM163.696 71.995H164.551C166.051 71.995 167.206 71.605 168.016 70.825C168.826 70.045 169.456 68.47 169.906 66.1C170.356 63.7 170.581 60.22 170.581 55.66V43.87H191.686V76H187.636V47.56H174.406V56.425C174.406 61.645 174.046 65.695 173.326 68.575C172.636 71.425 171.601 73.375 170.221 74.425C168.871 75.475 166.996 76 164.596 76H163.696V71.995ZM221.052 47.56H203.142V76H199.092V43.87H221.052V47.56ZM243.747 76L240.417 66.145H226.332L223.002 76H218.862L229.977 43.87L236.817 43.87L247.977 76H243.747ZM232.452 48.01L227.547 62.455H239.157L234.252 48.01H232.452ZM252.186 43.87H256.146V71.095H257.136L272.076 43.87H278.421V76H274.461V48.775H273.471L258.531 76H252.186V43.87ZM269.871 35.32H273.156C273.096 37.51 272.346 39.22 270.906 40.45C269.466 41.68 267.591 42.295 265.281 42.295C263.031 42.295 261.186 41.68 259.746 40.45C258.306 39.22 257.556 37.51 257.496 35.32H260.781C260.811 36.58 261.231 37.57 262.041 38.29C262.851 39.01 263.931 39.37 265.281 39.37C266.631 39.37 267.726 39.01 268.566 38.29C269.406 37.57 269.841 36.58 269.871 35.32ZM309.995 72.31H314.63V83.875H310.625V76H286.28V83.875H282.275V72.31H285.605C288.305 66.61 289.655 59.29 289.655 50.35V43.87H309.995V72.31ZM305.99 72.31V47.56H293.525V51.025C293.525 59.785 292.325 66.88 289.925 72.31H305.99Z" fill="#FC4A27"/>
</g>
<defs>
<filter id="filter0_d_1661_3146" x="0.897644" y="0" width="366" height="126" filterUnits="userSpaceOnUse" color-interpolation-filters="sRGB">
<feFlood flood-opacity="0" result="BackgroundImageFix"/>
<feColorMatrix in="SourceAlpha" type="matrix" values="0 0 0 0 0 0 0 0 0 0 0 0 0 0 0 0 0 0 127 0" result="hardAlpha"/>
<feOffset dx="4" dy="4"/>
<feGaussianBlur stdDeviation="17.5"/>
<feComposite in2="hardAlpha" operator="out"/>
<feColorMatrix type="matrix" values="0 0 0 0 0.170718 0 0 0 0 0.108998 0 0 0 0 0.108998 0 0 0 0.1 0"/>
<feBlend mode="normal" in2="BackgroundImageFix" result="effect1_dropShadow_1661_3146"/>
<feBlend mode="normal" in="SourceGraphic" in2="effect1_dropShadow_1661_3146" result="shape"/>
</filter>
</defs>
</svg>
