<svg width="600" height="600" viewBox="0 0 600 600" fill="none" xmlns="http://www.w3.org/2000/svg">
<rect width="600" height="600" fill="white"/>
<rect x="18" y="18" width="46" height="564" fill="#8EA5EB" fill-opacity="0.2"/>
<rect x="92" y="18" width="46" height="564" fill="#8EA5EB" fill-opacity="0.2"/>
<rect x="166" y="18" width="46" height="564" fill="#8EA5EB" fill-opacity="0.2"/>
<rect x="240" y="18" width="46" height="564" fill="#8EA5EB" fill-opacity="0.2"/>
<rect x="314" y="18" width="46" height="564" fill="#8EA5EB" fill-opacity="0.2"/>
<rect x="388" y="18" width="46" height="564" fill="#8EA5EB" fill-opacity="0.2"/>
<rect x="462" y="18" width="46" height="564" fill="#8EA5EB" fill-opacity="0.2"/>
<rect x="536" y="18" width="46" height="564" fill="#8EA5EB" fill-opacity="0.2"/>
<path d="M18.2349 42H581.765" stroke="#8EA5EB"/>
<path d="M18.2349 65.5H581.765" stroke="#8EA5EB"/>
<path d="M18.2349 89H581.765" stroke="#8EA5EB"/>
<path d="M18.2349 112.5H581.765" stroke="#8EA5EB"/>
<path d="M18.2349 136H581.765" stroke="#8EA5EB"/>
<path d="M18.2349 159.5H581.765" stroke="#8EA5EB"/>
<path d="M18.2349 183H581.765" stroke="#8EA5EB"/>
<path d="M18.2349 206.5H581.765" stroke="#8EA5EB"/>
<path d="M18.2349 230H581.765" stroke="#8EA5EB"/>
<path d="M18.2349 253.5H581.765" stroke="#8EA5EB"/>
<path d="M18.2349 277H581.765" stroke="#8EA5EB"/>
<path d="M18.2349 300.5H581.765" stroke="#8EA5EB"/>
<path d="M18.2349 324H581.765" stroke="#8EA5EB"/>
<path d="M18.2349 347.5H581.765" stroke="#8EA5EB"/>
<path d="M18.2349 371H581.765" stroke="#8EA5EB"/>
<path d="M18.2349 394.5H581.765" stroke="#8EA5EB"/>
<path d="M18.2349 418H581.765" stroke="#8EA5EB"/>
<path d="M18.2349 441.5H581.765" stroke="#8EA5EB"/>
<path d="M18.2349 465H581.765" stroke="#8EA5EB"/>
<path d="M18.2349 488.5H581.765" stroke="#8EA5EB"/>
<path d="M18.2349 512H581.765" stroke="#8EA5EB"/>
<path d="M18.2349 535.5H581.765" stroke="#8EA5EB"/>
<path d="M18.2349 559H581.765" stroke="#8EA5EB"/>
<path d="M71.5001 260.578H73.5701V277H71.5001V269.502H62.3231V277H60.2531V260.578H62.3231V267.57H71.5001V260.578ZM87.2032 270.514V271.181H78.3712C78.4018 272.576 78.7315 273.665 79.3602 274.447C79.9888 275.214 80.8935 275.597 82.0742 275.597C83.6688 275.597 84.6502 274.999 85.0182 273.803H86.9962C86.7968 274.846 86.2678 275.689 85.4092 276.333C84.5658 276.977 83.4542 277.299 82.0742 277.299C80.3108 277.299 78.9308 276.724 77.9342 275.574C76.9375 274.424 76.4392 272.929 76.4392 271.089C76.4392 269.28 76.9375 267.831 77.9342 266.742C78.9308 265.653 80.2955 265.109 82.0282 265.109C83.6688 265.109 84.9338 265.63 85.8232 266.673C86.7125 267.7 87.1725 268.981 87.2032 270.514ZM81.9822 266.811C80.9855 266.811 80.1882 267.072 79.5902 267.593C78.9922 268.099 78.6242 268.751 78.4862 269.548H85.1792C85.1178 268.766 84.8035 268.114 84.2362 267.593C83.6688 267.072 82.9175 266.811 81.9822 266.811ZM98.9943 281.6H97.0163L99.4083 275.919L94.4633 265.408H96.5563L100.098 273.044H100.673L103.893 265.408H105.94L98.9943 281.6ZM118.086 277H116.131V267.11H109.806V277H107.851V265.408H118.086V277ZM122.281 266.834C123.308 265.684 124.704 265.109 126.467 265.109C128.23 265.109 129.618 265.684 130.63 266.834C131.657 267.984 132.171 269.441 132.171 271.204C132.171 272.967 131.657 274.424 130.63 275.574C129.618 276.724 128.23 277.299 126.467 277.299C124.704 277.299 123.308 276.724 122.281 275.574C121.269 274.424 120.763 272.967 120.763 271.204C120.763 269.441 121.269 267.984 122.281 266.834ZM123.684 274.332C124.328 275.175 125.256 275.597 126.467 275.597C127.678 275.597 128.606 275.175 129.25 274.332C129.894 273.473 130.216 272.431 130.216 271.204C130.216 269.977 129.894 268.942 129.25 268.099C128.606 267.24 127.678 266.811 126.467 266.811C125.256 266.811 124.328 267.24 123.684 268.099C123.04 268.942 122.718 269.977 122.718 271.204C122.718 272.431 123.04 273.473 123.684 274.332ZM133.41 267.11V265.408H143.392V267.11H139.39V277H137.435V267.11H133.41ZM151.147 266.811C149.935 266.811 149.023 267.233 148.41 268.076C147.812 268.919 147.513 269.962 147.513 271.204C147.513 272.446 147.812 273.489 148.41 274.332C149.023 275.175 149.935 275.597 151.147 275.597C152.281 275.597 153.155 275.198 153.769 274.401C154.397 273.588 154.712 272.523 154.712 271.204C154.712 269.885 154.397 268.827 153.769 268.03C153.155 267.217 152.281 266.811 151.147 266.811ZM145.581 265.408H147.467V266.65H147.973C148.801 265.623 150.004 265.109 151.584 265.109C153.148 265.109 154.382 265.684 155.287 266.834C156.207 267.984 156.667 269.441 156.667 271.204C156.667 272.998 156.207 274.462 155.287 275.597C154.382 276.732 153.148 277.299 151.584 277.299C149.989 277.299 148.808 276.785 148.042 275.758H147.536V281.6H145.581V265.408ZM169.391 270.514V271.181H160.559C160.59 272.576 160.919 273.665 161.548 274.447C162.177 275.214 163.081 275.597 164.262 275.597C165.857 275.597 166.838 274.999 167.206 273.803H169.184C168.985 274.846 168.456 275.689 167.597 276.333C166.754 276.977 165.642 277.299 164.262 277.299C162.499 277.299 161.119 276.724 160.122 275.574C159.125 274.424 158.627 272.929 158.627 271.089C158.627 269.28 159.125 267.831 160.122 266.742C161.119 265.653 162.483 265.109 164.216 265.109C165.857 265.109 167.122 265.63 168.011 266.673C168.9 267.7 169.36 268.981 169.391 270.514ZM164.17 266.811C163.173 266.811 162.376 267.072 161.778 267.593C161.18 268.099 160.812 268.751 160.674 269.548H167.367C167.306 268.766 166.991 268.114 166.424 267.593C165.857 267.072 165.105 266.811 164.17 266.811ZM177.334 265.523C179.036 265.523 180.377 266.083 181.359 267.202C182.34 268.306 182.831 269.709 182.831 271.411C182.831 273.098 182.309 274.501 181.267 275.62C180.239 276.739 178.852 277.299 177.104 277.299C175.264 277.299 173.838 276.693 172.826 275.482C171.829 274.271 171.331 272.538 171.331 270.284C171.331 269.41 171.354 268.628 171.4 267.938C171.461 267.248 171.584 266.527 171.768 265.776C171.967 265.025 172.228 264.388 172.55 263.867C172.872 263.33 173.316 262.863 173.884 262.464C174.451 262.065 175.126 261.805 175.908 261.682L178.99 261.176C179.419 261.115 179.703 261.03 179.841 260.923C179.994 260.816 180.086 260.601 180.117 260.279H181.934C181.903 261 181.727 261.575 181.405 262.004C181.083 262.418 180.5 262.702 179.657 262.855L176.092 263.453C175.126 263.622 174.413 264.028 173.953 264.672C173.508 265.301 173.217 266.144 173.079 267.202H173.585C174.06 266.573 174.589 266.136 175.172 265.891C175.77 265.646 176.49 265.523 177.334 265.523ZM174.252 274.378C174.911 275.191 175.846 275.597 177.058 275.597C178.269 275.597 179.197 275.191 179.841 274.378C180.5 273.55 180.83 272.553 180.83 271.388C180.83 270.223 180.5 269.234 179.841 268.421C179.197 267.608 178.269 267.202 177.058 267.202C175.846 267.202 174.911 267.608 174.252 268.421C173.608 269.234 173.286 270.223 173.286 271.388C173.286 272.553 173.608 273.55 174.252 274.378ZM183.953 277V275.16H184.344C185.157 275.16 185.739 274.784 186.092 274.033C186.445 273.266 186.621 271.886 186.621 269.893V265.408H195.499V277H193.521V267.11H188.438V269.939C188.438 272.561 188.116 274.393 187.472 275.436C186.843 276.479 185.801 277 184.344 277H183.953ZM202.615 265.408H208.388V277H206.41V272.423H202.891C202.585 272.423 202.347 272.415 202.178 272.4L200.43 277H198.383L200.338 271.963C199.142 271.396 198.544 270.384 198.544 268.927C198.544 267.808 198.889 266.941 199.579 266.328C200.285 265.715 201.297 265.408 202.615 265.408ZM206.41 267.064H202.822C201.979 267.064 201.381 267.225 201.028 267.547C200.676 267.869 200.499 268.337 200.499 268.95C200.499 269.548 200.676 270 201.028 270.307C201.381 270.614 201.979 270.767 202.822 270.767H206.41V267.064ZM221.801 270.514V271.181H212.969C212.999 272.576 213.329 273.665 213.958 274.447C214.586 275.214 215.491 275.597 216.672 275.597C218.266 275.597 219.248 274.999 219.616 273.803H221.594C221.394 274.846 220.865 275.689 220.007 276.333C219.163 276.977 218.052 277.299 216.672 277.299C214.908 277.299 213.528 276.724 212.532 275.574C211.535 274.424 211.037 272.929 211.037 271.089C211.037 269.28 211.535 267.831 212.532 266.742C213.528 265.653 214.893 265.109 216.626 265.109C218.266 265.109 219.531 265.63 220.421 266.673C221.31 267.7 221.77 268.981 221.801 270.514ZM216.58 266.811C215.583 266.811 214.786 267.072 214.188 267.593C213.59 268.099 213.222 268.751 213.084 269.548H219.777C219.715 268.766 219.401 268.114 218.834 267.593C218.266 267.072 217.515 266.811 216.58 266.811ZM222.876 267.11V265.408H232.858V267.11H228.856V277H226.901V267.11H222.876ZM244.917 270.514V271.181H236.085C236.116 272.576 236.445 273.665 237.074 274.447C237.703 275.214 238.607 275.597 239.788 275.597C241.383 275.597 242.364 274.999 242.732 273.803H244.71C244.511 274.846 243.982 275.689 243.123 276.333C242.28 276.977 241.168 277.299 239.788 277.299C238.025 277.299 236.645 276.724 235.648 275.574C234.651 274.424 234.153 272.929 234.153 271.089C234.153 269.28 234.651 267.831 235.648 266.742C236.645 265.653 238.009 265.109 239.742 265.109C241.383 265.109 242.648 265.63 243.537 266.673C244.426 267.7 244.886 268.981 244.917 270.514ZM239.696 266.811C238.699 266.811 237.902 267.072 237.304 267.593C236.706 268.099 236.338 268.751 236.2 269.548H242.893C242.832 268.766 242.517 268.114 241.95 267.593C241.383 267.072 240.631 266.811 239.696 266.811ZM44.5339 300L41.9579 294.894H38.4849V300H36.5299V288.408H38.4849V293.192H42.0039L44.4189 288.408H46.4659L43.6369 293.997L46.6269 300H44.5339ZM56.3921 300V298.781H55.8861C55.0887 299.793 53.8851 300.299 52.2751 300.299C51.0024 300.299 49.9904 299.931 49.2391 299.195C48.4877 298.459 48.1121 297.57 48.1121 296.527C48.1121 295.469 48.4801 294.564 49.2161 293.813C49.9521 293.062 51.0637 292.686 52.5511 292.686H56.3231V292.226C56.3231 291.49 56.0931 290.907 55.6331 290.478C55.1731 290.033 54.4601 289.811 53.4941 289.811C51.8074 289.811 50.9104 290.371 50.8031 291.49H48.8481C48.9247 290.432 49.3771 289.604 50.2051 289.006C51.0484 288.408 52.1294 288.109 53.4481 288.109C54.9354 288.109 56.1007 288.454 56.9441 289.144C57.8027 289.834 58.2321 290.823 58.2321 292.111V300H56.3921ZM52.7581 298.597C53.7241 298.597 54.5597 298.283 55.2651 297.654C55.9704 297.01 56.3231 296.228 56.3231 295.308V294.25H52.8501C50.9947 294.25 50.0671 294.986 50.0671 296.458C50.0671 297.117 50.2971 297.639 50.7571 298.022C51.2324 298.405 51.8994 298.597 52.7581 298.597ZM69.4248 300L66.8488 294.894H63.3758V300H61.4208V288.408H63.3758V293.192H66.8948L69.3098 288.408H71.3568L68.5278 293.997L71.5178 300H69.4248ZM74.368 289.834C75.3953 288.684 76.7907 288.109 78.554 288.109C80.3173 288.109 81.705 288.684 82.717 289.834C83.7443 290.984 84.258 292.441 84.258 294.204C84.258 295.967 83.7443 297.424 82.717 298.574C81.705 299.724 80.3173 300.299 78.554 300.299C76.7907 300.299 75.3953 299.724 74.368 298.574C73.356 297.424 72.85 295.967 72.85 294.204C72.85 292.441 73.356 290.984 74.368 289.834ZM75.771 297.332C76.415 298.175 77.3427 298.597 78.554 298.597C79.7653 298.597 80.693 298.175 81.337 297.332C81.981 296.473 82.303 295.431 82.303 294.204C82.303 292.977 81.981 291.942 81.337 291.099C80.693 290.24 79.7653 289.811 78.554 289.811C77.3427 289.811 76.415 290.24 75.771 291.099C75.127 291.942 74.805 292.977 74.805 294.204C74.805 295.431 75.127 296.473 75.771 297.332ZM89.6781 300H86.9181V288.408H88.8271V297.378H89.3331L94.4161 288.408H97.2681V300H95.3591V291.03H94.8531L89.6781 300ZM94.0481 283.348H95.6351C95.6044 284.421 95.2748 285.249 94.6461 285.832C94.0174 286.415 93.1511 286.706 92.0471 286.706C90.9584 286.706 90.0998 286.415 89.4711 285.832C88.8424 285.249 88.5128 284.421 88.4821 283.348H90.0691C90.0998 284.651 90.7591 285.303 92.0471 285.303C93.3044 285.303 93.9714 284.651 94.0481 283.348ZM106.175 294.48H99.896V292.755H106.175V294.48ZM107.039 300V298.16H107.43C108.243 298.16 108.825 297.784 109.178 297.033C109.531 296.266 109.707 294.886 109.707 292.893V288.408H118.585V300H116.607V290.11H111.524V292.939C111.524 295.561 111.202 297.393 110.558 298.436C109.929 299.479 108.887 300 107.43 300H107.039ZM124.712 300H121.952V288.408H123.861V297.378H124.367L129.45 288.408H132.302V300H130.393V291.03H129.887L124.712 300ZM140.979 288.523C142.681 288.523 144.023 289.083 145.004 290.202C145.985 291.306 146.476 292.709 146.476 294.411C146.476 296.098 145.955 297.501 144.912 298.62C143.885 299.739 142.497 300.299 140.749 300.299C138.909 300.299 137.483 299.693 136.471 298.482C135.474 297.271 134.976 295.538 134.976 293.284C134.976 292.41 134.999 291.628 135.045 290.938C135.106 290.248 135.229 289.527 135.413 288.776C135.612 288.025 135.873 287.388 136.195 286.867C136.517 286.33 136.962 285.863 137.529 285.464C138.096 285.065 138.771 284.805 139.553 284.682L142.635 284.176C143.064 284.115 143.348 284.03 143.486 283.923C143.639 283.816 143.731 283.601 143.762 283.279H145.579C145.548 284 145.372 284.575 145.05 285.004C144.728 285.418 144.145 285.702 143.302 285.855L139.737 286.453C138.771 286.622 138.058 287.028 137.598 287.672C137.153 288.301 136.862 289.144 136.724 290.202H137.23C137.705 289.573 138.234 289.136 138.817 288.891C139.415 288.646 140.136 288.523 140.979 288.523ZM137.897 297.378C138.556 298.191 139.492 298.597 140.703 298.597C141.914 298.597 142.842 298.191 143.486 297.378C144.145 296.55 144.475 295.553 144.475 294.388C144.475 293.223 144.145 292.234 143.486 291.421C142.842 290.608 141.914 290.202 140.703 290.202C139.492 290.202 138.556 290.608 137.897 291.421C137.253 292.234 136.931 293.223 136.931 294.388C136.931 295.553 137.253 296.55 137.897 297.378ZM149.939 289.834C150.966 288.684 152.362 288.109 154.125 288.109C155.888 288.109 157.276 288.684 158.288 289.834C159.315 290.984 159.829 292.441 159.829 294.204C159.829 295.967 159.315 297.424 158.288 298.574C157.276 299.724 155.888 300.299 154.125 300.299C152.362 300.299 150.966 299.724 149.939 298.574C148.927 297.424 148.421 295.967 148.421 294.204C148.421 292.441 148.927 290.984 149.939 289.834ZM151.342 297.332C151.986 298.175 152.914 298.597 154.125 298.597C155.336 298.597 156.264 298.175 156.908 297.332C157.552 296.473 157.874 295.431 157.874 294.204C157.874 292.977 157.552 291.942 156.908 291.099C156.264 290.24 155.336 289.811 154.125 289.811C152.914 289.811 151.986 290.24 151.342 291.099C150.698 291.942 150.376 292.977 150.376 294.204C150.376 295.431 150.698 296.473 151.342 297.332ZM178.734 300H176.779V290.11H170.454V300H168.499V288.408H178.734V300ZM187.69 289.811C186.479 289.811 185.566 290.233 184.953 291.076C184.355 291.919 184.056 292.962 184.056 294.204C184.056 295.446 184.355 296.489 184.953 297.332C185.566 298.175 186.479 298.597 187.69 298.597C188.825 298.597 189.699 298.198 190.312 297.401C190.941 296.588 191.255 295.523 191.255 294.204C191.255 292.885 190.941 291.827 190.312 291.03C189.699 290.217 188.825 289.811 187.69 289.811ZM182.124 288.408H184.01V289.65H184.516C185.344 288.623 186.548 288.109 188.127 288.109C189.691 288.109 190.925 288.684 191.83 289.834C192.75 290.984 193.21 292.441 193.21 294.204C193.21 295.998 192.75 297.462 191.83 298.597C190.925 299.732 189.691 300.299 188.127 300.299C186.532 300.299 185.352 299.785 184.585 298.758H184.079V304.6H182.124V288.408ZM196.688 289.834C197.716 288.684 199.111 288.109 200.874 288.109C202.638 288.109 204.025 288.684 205.037 289.834C206.065 290.984 206.578 292.441 206.578 294.204C206.578 295.967 206.065 297.424 205.037 298.574C204.025 299.724 202.638 300.299 200.874 300.299C199.111 300.299 197.716 299.724 196.688 298.574C195.676 297.424 195.17 295.967 195.17 294.204C195.17 292.441 195.676 290.984 196.688 289.834ZM198.091 297.332C198.735 298.175 199.663 298.597 200.874 298.597C202.086 298.597 203.013 298.175 203.657 297.332C204.301 296.473 204.623 295.431 204.623 294.204C204.623 292.977 204.301 291.942 203.657 291.099C203.013 290.24 202.086 289.811 200.874 289.811C199.663 289.811 198.735 290.24 198.091 291.099C197.447 291.942 197.125 292.977 197.125 294.204C197.125 295.431 197.447 296.473 198.091 297.332ZM219.566 298.298H221.705V303.289H219.796V300H209.768V303.289H207.859V298.298H209.4C210.35 296.274 210.826 294.035 210.826 291.582V288.408H219.566V298.298ZM217.611 298.298V290.11H212.643V291.582C212.643 294.204 212.221 296.443 211.378 298.298H217.611ZM226.979 304.6H225.001L227.393 298.919L222.448 288.408H224.541L228.083 296.044H228.658L231.878 288.408H233.925L226.979 304.6ZM243.84 300L241.264 294.894H237.791V300H235.836V288.408H237.791V293.192H241.31L243.725 288.408H245.772L242.943 293.997L245.933 300H243.84ZM247.12 290.11V288.408H257.102V290.11H253.1V300H251.145V290.11H247.12ZM263.545 283.279C265.047 283.279 266.243 283.685 267.133 284.498C268.037 285.295 268.49 286.369 268.49 287.718C268.49 288.301 268.428 288.807 268.306 289.236C268.198 289.665 267.976 290.079 267.639 290.478C267.317 290.877 267.048 291.176 266.834 291.375C266.619 291.574 266.236 291.896 265.684 292.341C265.07 292.816 264.664 293.207 264.465 293.514C264.281 293.805 264.189 294.304 264.189 295.009V295.653H262.211V295.009C262.211 294.35 262.295 293.798 262.464 293.353C262.648 292.893 262.87 292.525 263.131 292.249C263.407 291.958 263.836 291.574 264.419 291.099C264.925 290.685 265.3 290.363 265.546 290.133C265.791 289.888 266.013 289.558 266.213 289.144C266.412 288.73 266.512 288.255 266.512 287.718C266.512 286.967 266.243 286.323 265.707 285.786C265.185 285.249 264.472 284.981 263.568 284.981C261.59 284.981 260.547 286.001 260.44 288.04H258.462C258.523 286.553 258.998 285.387 259.888 284.544C260.792 283.701 262.011 283.279 263.545 283.279ZM264.396 300H262.004V297.332H264.396V300Z" fill="black"/>
<path d="M374.505 267.248H379.45C381.198 267.248 382.547 267.677 383.498 268.536C384.464 269.395 384.947 270.591 384.947 272.124C384.947 273.657 384.464 274.853 383.498 275.712C382.547 276.571 381.198 277 379.45 277H372.435V260.578H383.682V262.464H374.505V267.248ZM374.505 275.16H379.105C380.439 275.16 381.397 274.899 381.98 274.378C382.578 273.857 382.877 273.098 382.877 272.101C382.877 270.077 381.619 269.065 379.105 269.065H374.505V275.16ZM387.07 273.642H388.979C389.301 274.945 390.336 275.597 392.084 275.597C393.142 275.597 393.978 275.26 394.591 274.585C395.22 273.91 395.565 273.029 395.626 271.94H390.405V270.284H395.603C395.511 269.226 395.166 268.383 394.568 267.754C393.986 267.125 393.158 266.811 392.084 266.811C390.428 266.811 389.424 267.417 389.071 268.628H387.162C387.392 267.555 387.937 266.704 388.795 266.075C389.654 265.431 390.743 265.109 392.061 265.109C393.779 265.109 395.136 265.676 396.132 266.811C397.129 267.93 397.627 269.395 397.627 271.204C397.627 273.029 397.129 274.501 396.132 275.62C395.136 276.739 393.771 277.299 392.038 277.299C390.735 277.299 389.631 276.962 388.726 276.287C387.837 275.612 387.285 274.731 387.07 273.642ZM403.045 277H400.285V265.408H402.194V274.378H402.7L407.783 265.408H410.635V277H408.726V268.03H408.22L403.045 277ZM407.415 260.348H409.002C408.972 261.421 408.642 262.249 408.013 262.832C407.385 263.415 406.518 263.706 405.414 263.706C404.326 263.706 403.467 263.415 402.838 262.832C402.21 262.249 401.88 261.421 401.849 260.348H403.436C403.467 261.651 404.126 262.303 405.414 262.303C406.672 262.303 407.339 261.651 407.415 260.348ZM412.826 267.11V265.408H422.808V267.11H418.806V277H416.851V267.11H412.826ZM440.321 277H438.366V267.11H432.041V277H430.086V265.408H440.321V277ZM444.516 266.834C445.543 265.684 446.938 265.109 448.702 265.109C450.465 265.109 451.853 265.684 452.865 266.834C453.892 267.984 454.406 269.441 454.406 271.204C454.406 272.967 453.892 274.424 452.865 275.574C451.853 276.724 450.465 277.299 448.702 277.299C446.938 277.299 445.543 276.724 444.516 275.574C443.504 274.424 442.998 272.967 442.998 271.204C442.998 269.441 443.504 267.984 444.516 266.834ZM445.919 274.332C446.563 275.175 447.49 275.597 448.702 275.597C449.913 275.597 450.841 275.175 451.485 274.332C452.129 273.473 452.451 272.431 452.451 271.204C452.451 269.977 452.129 268.942 451.485 268.099C450.841 267.24 449.913 266.811 448.702 266.811C447.49 266.811 446.563 267.24 445.919 268.099C445.275 268.942 444.953 269.977 444.953 271.204C444.953 272.431 445.275 273.473 445.919 274.332ZM457.066 277V265.408H460.171L463.023 270.698H463.529L466.381 265.408H469.44V277H467.531V267.685H467.025L464.334 272.653H462.172L459.481 267.685H458.975V277H457.066ZM473.629 266.834C474.656 265.684 476.052 265.109 477.815 265.109C479.578 265.109 480.966 265.684 481.978 266.834C483.005 267.984 483.519 269.441 483.519 271.204C483.519 272.967 483.005 274.424 481.978 275.574C480.966 276.724 479.578 277.299 477.815 277.299C476.052 277.299 474.656 276.724 473.629 275.574C472.617 274.424 472.111 272.967 472.111 271.204C472.111 269.441 472.617 267.984 473.629 266.834ZM475.032 274.332C475.676 275.175 476.604 275.597 477.815 275.597C479.026 275.597 479.954 275.175 480.598 274.332C481.242 273.473 481.564 272.431 481.564 271.204C481.564 269.977 481.242 268.942 480.598 268.099C479.954 267.24 479.026 266.811 477.815 266.811C476.604 266.811 475.676 267.24 475.032 268.099C474.388 268.942 474.066 269.977 474.066 271.204C474.066 272.431 474.388 273.473 475.032 274.332ZM489.468 271.917L487.237 277H485.19L487.812 271.043L485.351 265.408H487.375L489.468 270.215H492.435V265.408H494.321V270.215H497.288L499.381 265.408H501.405L498.944 271.043L501.589 277H499.519L497.288 271.917H494.321V277H492.435V271.917H489.468ZM513.673 270.514V271.181H504.841C504.872 272.576 505.202 273.665 505.83 274.447C506.459 275.214 507.364 275.597 508.544 275.597C510.139 275.597 511.12 274.999 511.488 273.803H513.466C513.267 274.846 512.738 275.689 511.879 276.333C511.036 276.977 509.924 277.299 508.544 277.299C506.781 277.299 505.401 276.724 504.404 275.574C503.408 274.424 502.909 272.929 502.909 271.089C502.909 269.28 503.408 267.831 504.404 266.742C505.401 265.653 506.766 265.109 508.498 265.109C510.139 265.109 511.404 265.63 512.293 266.673C513.183 267.7 513.643 268.981 513.673 270.514ZM508.452 266.811C507.456 266.811 506.658 267.072 506.06 267.593C505.462 268.099 505.094 268.751 504.956 269.548H511.649C511.588 268.766 511.274 268.114 510.706 267.593C510.139 267.072 509.388 266.811 508.452 266.811ZM514.748 267.11V265.408H524.73V267.11H520.728V277H518.773V267.11H514.748ZM356.024 300H354.069V294.894H347.652V300H345.697V288.408H347.652V293.192H354.069V288.408H356.024V300ZM366.795 300V298.781H366.289C365.491 299.793 364.288 300.299 362.678 300.299C361.405 300.299 360.393 299.931 359.642 299.195C358.89 298.459 358.515 297.57 358.515 296.527C358.515 295.469 358.883 294.564 359.619 293.813C360.355 293.062 361.466 292.686 362.954 292.686H366.726V292.226C366.726 291.49 366.496 290.907 366.036 290.478C365.576 290.033 364.863 289.811 363.897 289.811C362.21 289.811 361.313 290.371 361.206 291.49H359.251C359.327 290.432 359.78 289.604 360.608 289.006C361.451 288.408 362.532 288.109 363.851 288.109C365.338 288.109 366.503 288.454 367.347 289.144C368.205 289.834 368.635 290.823 368.635 292.111V300H366.795ZM363.161 298.597C364.127 298.597 364.962 298.283 365.668 297.654C366.373 297.01 366.726 296.228 366.726 295.308V294.25H363.253C361.397 294.25 360.47 294.986 360.47 296.458C360.47 297.117 360.7 297.639 361.16 298.022C361.635 298.405 362.302 298.597 363.161 298.597ZM374.583 300H371.823V288.408H373.732V297.378H374.238L379.321 288.408H382.173V300H380.264V291.03H379.758L374.583 300ZM378.953 283.348H380.54C380.51 284.421 380.18 285.249 379.551 285.832C378.923 286.415 378.056 286.706 376.952 286.706C375.864 286.706 375.005 286.415 374.376 285.832C373.748 285.249 373.418 284.421 373.387 283.348H374.974C375.005 284.651 375.664 285.303 376.952 285.303C378.21 285.303 378.877 284.651 378.953 283.348ZM384.364 290.11V288.408H394.346V290.11H390.344V300H388.389V290.11H384.364ZM399.294 300H396.534V288.408H398.443V297.378H398.949L404.032 288.408H406.884V300H404.975V291.03H404.469L399.294 300ZM424.447 293.606V294.112C425.014 294.25 425.466 294.557 425.804 295.032C426.156 295.507 426.333 296.105 426.333 296.826C426.333 298.942 424.968 300 422.239 300H416.282V288.408H422.032C423.197 288.408 424.094 288.669 424.723 289.19C425.367 289.696 425.689 290.409 425.689 291.329C425.689 291.866 425.566 292.333 425.321 292.732C425.091 293.131 424.799 293.422 424.447 293.606ZM418.214 298.344H422.124C423.626 298.344 424.378 297.769 424.378 296.619C424.378 295.454 423.626 294.871 422.124 294.871H418.214V298.344ZM418.214 290.064V293.215H421.848C422.507 293.215 422.982 293.069 423.274 292.778C423.58 292.487 423.734 292.111 423.734 291.651C423.734 290.593 423.105 290.064 421.848 290.064H418.214ZM431.745 300H428.985V288.408H430.894V297.378H431.4L436.483 288.408H439.335V300H437.426V291.03H436.92L431.745 300ZM441.526 290.11V288.408H451.508V290.11H447.506V300H445.551V290.11H441.526ZM461.08 300V298.781H460.574C459.776 299.793 458.573 300.299 456.963 300.299C455.69 300.299 454.678 299.931 453.927 299.195C453.175 298.459 452.8 297.57 452.8 296.527C452.8 295.469 453.168 294.564 453.904 293.813C454.64 293.062 455.751 292.686 457.239 292.686H461.011V292.226C461.011 291.49 460.781 290.907 460.321 290.478C459.861 290.033 459.148 289.811 458.182 289.811C456.495 289.811 455.598 290.371 455.491 291.49H453.536C453.612 290.432 454.065 289.604 454.893 289.006C455.736 288.408 456.817 288.109 458.136 288.109C459.623 288.109 460.788 288.454 461.632 289.144C462.49 289.834 462.92 290.823 462.92 292.111V300H461.08ZM457.446 298.597C458.412 298.597 459.247 298.283 459.953 297.654C460.658 297.01 461.011 296.228 461.011 295.308V294.25H457.538C455.682 294.25 454.755 294.986 454.755 296.458C454.755 297.117 454.985 297.639 455.445 298.022C455.92 298.405 456.587 298.597 457.446 298.597ZM466.108 300V288.408H469.213L472.065 293.698H472.571L475.423 288.408H478.482V300H476.573V290.685H476.067L473.376 295.653H471.214L468.523 290.685H468.017V300H466.108ZM484.627 300H481.867V288.408H483.776V297.378H484.282L489.365 288.408H492.217V300H490.308V291.03H489.802L484.627 300ZM505.931 300H503.976V294.894H497.559V300H495.604V288.408H497.559V293.192H503.976V288.408H505.931V300ZM519.645 300H517.69V294.894H511.273V300H509.318V288.408H511.273V293.192H517.69V288.408H519.645V300ZM526.161 304.6H524.183L526.575 298.919L521.63 288.408H523.723L527.265 296.044H527.84L531.06 288.408H533.107L526.161 304.6ZM545.161 288.109C546.878 288.109 548.243 288.692 549.255 289.857C550.267 291.007 550.773 292.456 550.773 294.204C550.773 295.952 550.267 297.409 549.255 298.574C548.243 299.724 546.878 300.299 545.161 300.299C543.566 300.299 542.27 299.793 541.274 298.781C540.292 297.769 539.733 296.473 539.595 294.894H536.95V300H535.018V288.408H536.95V293.192H539.664C539.848 291.674 540.423 290.447 541.389 289.512C542.37 288.577 543.627 288.109 545.161 288.109ZM542.447 297.332C543.075 298.175 543.98 298.597 545.161 298.597C546.341 298.597 547.246 298.175 547.875 297.332C548.503 296.473 548.818 295.431 548.818 294.204C548.818 292.977 548.503 291.942 547.875 291.099C547.246 290.24 546.341 289.811 545.161 289.811C543.98 289.811 543.075 290.24 542.447 291.099C541.818 291.942 541.504 292.977 541.504 294.204C541.504 295.431 541.818 296.473 542.447 297.332ZM376.06 323V321.781H375.554C374.756 322.793 373.553 323.299 371.943 323.299C370.67 323.299 369.658 322.931 368.907 322.195C368.155 321.459 367.78 320.57 367.78 319.527C367.78 318.469 368.148 317.564 368.884 316.813C369.62 316.062 370.731 315.686 372.219 315.686H375.991V315.226C375.991 314.49 375.761 313.907 375.301 313.478C374.841 313.033 374.128 312.811 373.162 312.811C371.475 312.811 370.578 313.371 370.471 314.49H368.516C368.592 313.432 369.045 312.604 369.873 312.006C370.716 311.408 371.797 311.109 373.116 311.109C374.603 311.109 375.768 311.454 376.612 312.144C377.47 312.834 377.9 313.823 377.9 315.111V323H376.06ZM372.426 321.597C373.392 321.597 374.227 321.283 374.933 320.654C375.638 320.01 375.991 319.228 375.991 318.308V317.25H372.518C370.662 317.25 369.735 317.986 369.735 319.458C369.735 320.117 369.965 320.639 370.425 321.022C370.9 321.405 371.567 321.597 372.426 321.597ZM379.777 323V321.16H380.168C380.981 321.16 381.564 320.784 381.916 320.033C382.269 319.266 382.445 317.886 382.445 315.893V311.408H391.323V323H389.345V313.11H384.262V315.939C384.262 318.561 383.94 320.393 383.296 321.436C382.668 322.479 381.625 323 380.168 323H379.777ZM396.646 311.408V315.272H400.073C401.468 315.272 402.541 315.609 403.293 316.284C404.059 316.959 404.443 317.902 404.443 319.113C404.443 320.34 404.059 321.298 403.293 321.988C402.541 322.663 401.468 323 400.073 323H394.691V311.408H396.646ZM396.646 321.298H399.797C400.763 321.298 401.453 321.114 401.867 320.746C402.281 320.378 402.488 319.834 402.488 319.113C402.488 318.392 402.281 317.848 401.867 317.48C401.453 317.112 400.763 316.928 399.797 316.928H396.646V321.298ZM404.222 313.11V311.408H414.204V313.11H410.202V323H408.247V313.11H404.222ZM426.263 316.514V317.181H417.431C417.462 318.576 417.792 319.665 418.42 320.447C419.049 321.214 419.954 321.597 421.134 321.597C422.729 321.597 423.71 320.999 424.078 319.803H426.056C425.857 320.846 425.328 321.689 424.469 322.333C423.626 322.977 422.514 323.299 421.134 323.299C419.371 323.299 417.991 322.724 416.994 321.574C415.998 320.424 415.499 318.929 415.499 317.089C415.499 315.28 415.998 313.831 416.994 312.742C417.991 311.653 419.356 311.109 421.088 311.109C422.729 311.109 423.994 311.63 424.883 312.673C425.773 313.7 426.233 314.981 426.263 316.514ZM421.042 312.811C420.046 312.811 419.248 313.072 418.65 313.593C418.052 314.099 417.684 314.751 417.546 315.548H424.239C424.178 314.766 423.864 314.114 423.296 313.593C422.729 313.072 421.978 312.811 421.042 312.811ZM434.482 312.811C433.271 312.811 432.358 313.233 431.745 314.076C431.147 314.919 430.848 315.962 430.848 317.204C430.848 318.446 431.147 319.489 431.745 320.332C432.358 321.175 433.271 321.597 434.482 321.597C435.617 321.597 436.491 321.198 437.104 320.401C437.733 319.588 438.047 318.523 438.047 317.204C438.047 315.885 437.733 314.827 437.104 314.03C436.491 313.217 435.617 312.811 434.482 312.811ZM428.916 311.408H430.802V312.65H431.308C432.136 311.623 433.34 311.109 434.919 311.109C436.483 311.109 437.717 311.684 438.622 312.834C439.542 313.984 440.002 315.441 440.002 317.204C440.002 318.998 439.542 320.462 438.622 321.597C437.717 322.732 436.483 323.299 434.919 323.299C433.324 323.299 432.144 322.785 431.377 321.758H430.871V327.6H428.916V311.408ZM453.002 323H451.047V317.894H444.63V323H442.675V311.408H444.63V316.192H451.047V311.408H453.002V323ZM463.773 323V321.781H463.267C462.47 322.793 461.266 323.299 459.656 323.299C458.383 323.299 457.371 322.931 456.62 322.195C455.869 321.459 455.493 320.57 455.493 319.527C455.493 318.469 455.861 317.564 456.597 316.813C457.333 316.062 458.445 315.686 459.932 315.686H463.704V315.226C463.704 314.49 463.474 313.907 463.014 313.478C462.554 313.033 461.841 312.811 460.875 312.811C459.188 312.811 458.291 313.371 458.184 314.49H456.229C456.306 313.432 456.758 312.604 457.586 312.006C458.429 311.408 459.51 311.109 460.829 311.109C462.316 311.109 463.482 311.454 464.325 312.144C465.184 312.834 465.613 313.823 465.613 315.111V323H463.773ZM460.139 321.597C461.105 321.597 461.941 321.283 462.646 320.654C463.351 320.01 463.704 319.228 463.704 318.308V317.25H460.231C458.376 317.25 457.448 317.986 457.448 319.458C457.448 320.117 457.678 320.639 458.138 321.022C458.613 321.405 459.28 321.597 460.139 321.597ZM467.471 313.11V311.408H477.453V313.11H473.451V323H471.496V313.11H467.471ZM482.401 323H479.641V311.408H481.55V320.378H482.056L487.139 311.408H489.991V323H488.082V314.03H487.576L482.401 323ZM501.543 316.606V317.112C502.11 317.25 502.563 317.557 502.9 318.032C503.253 318.507 503.429 319.105 503.429 319.826C503.429 321.942 502.064 323 499.335 323H493.378V311.408H499.128C500.293 311.408 501.19 311.669 501.819 312.19C502.463 312.696 502.785 313.409 502.785 314.329C502.785 314.866 502.662 315.333 502.417 315.732C502.187 316.131 501.896 316.422 501.543 316.606ZM495.31 321.344H499.22C500.723 321.344 501.474 320.769 501.474 319.619C501.474 318.454 500.723 317.871 499.22 317.871H495.31V321.344ZM495.31 313.064V316.215H498.944C499.603 316.215 500.079 316.069 500.37 315.778C500.677 315.487 500.83 315.111 500.83 314.651C500.83 313.593 500.201 313.064 498.944 313.064H495.31ZM508.76 327.6H506.782L509.174 321.919L504.229 311.408H506.322L509.864 319.044H510.439L513.659 311.408H515.706L508.76 327.6ZM518.33 306.578H520.354V313.363L519.963 318.653H518.698L518.33 313.363V306.578ZM520.538 323H518.146V320.332H520.538V323Z" fill="black"/>
<path fill-rule="evenodd" clip-rule="evenodd" d="M48.1001 538.396C46.2044 537.008 43.9157 536.259 41.5661 536.26H28.305L18.9344 581.24H29.822L30.96 575.774L31.4641 576.401C33.1453 578.491 35.434 580.009 38.0144 580.744C40.5948 581.479 43.3397 581.395 45.8704 580.504C48.4011 579.613 50.5929 577.958 52.1433 575.769C53.6937 573.579 54.5264 570.962 54.5264 568.279C54.5271 565.986 53.9192 563.734 52.7647 561.752C51.6103 559.771 49.9507 558.132 47.9554 557.001L47.4327 556.705L47.9242 556.36C49.8466 555.009 51.2887 553.081 52.041 550.855C52.7934 548.629 52.817 546.221 52.1083 543.981C51.3997 541.741 49.9957 539.784 48.1001 538.396ZM55.2862 568.279C55.2862 571.119 54.4047 573.89 52.7634 576.208C51.1221 578.526 48.8019 580.277 46.1228 581.221C43.4438 582.164 40.5379 582.253 37.8063 581.475C35.3272 580.769 33.1025 579.38 31.3819 577.475L30.4399 582H18L27.6872 535.5L41.5659 535.5C41.566 535.5 41.5659 535.5 41.5659 535.5C44.0771 535.5 46.5231 536.299 48.549 537.783C50.5749 539.267 52.0754 541.357 52.8327 543.752C53.5901 546.146 53.5649 548.719 52.7608 551.098C52.0188 553.293 50.6492 555.218 48.8277 556.636C50.7186 557.815 52.2964 559.439 53.4212 561.37C54.6433 563.467 55.2869 565.852 55.2862 568.279Z" fill="black"/>
<path fill-rule="evenodd" clip-rule="evenodd" d="M30.5111 547.316C30.5094 549.09 30.9354 550.839 31.753 552.413C32.5706 553.988 33.7557 555.342 35.2079 556.361L35.7 556.706L35.1769 557.002C33.1814 558.132 31.5216 559.772 30.367 561.753C29.2124 563.734 28.6044 565.986 28.605 568.28L27.8452 568.28C27.8445 565.852 28.4882 563.468 29.7105 561.37C30.8354 559.44 32.4133 557.816 34.3042 556.637C32.9642 555.595 31.8632 554.274 31.0787 552.763C30.2048 551.08 29.7495 549.212 29.7513 547.315L30.5111 547.316Z" fill="black"/>
</svg>
