<svg width="600" height="600" viewBox="0 0 600 600" fill="none" xmlns="http://www.w3.org/2000/svg">
<rect width="600" height="600" fill="white"/>
<rect x="18" y="18" width="46" height="564" fill="#8EA5EB" fill-opacity="0.2"/>
<rect x="92" y="18" width="46" height="564" fill="#8EA5EB" fill-opacity="0.2"/>
<rect x="166" y="18" width="46" height="564" fill="#8EA5EB" fill-opacity="0.2"/>
<rect x="240" y="18" width="46" height="564" fill="#8EA5EB" fill-opacity="0.2"/>
<rect x="314" y="18" width="46" height="564" fill="#8EA5EB" fill-opacity="0.2"/>
<rect x="388" y="18" width="46" height="564" fill="#8EA5EB" fill-opacity="0.2"/>
<rect x="462" y="18" width="46" height="564" fill="#8EA5EB" fill-opacity="0.2"/>
<rect x="536" y="18" width="46" height="564" fill="#8EA5EB" fill-opacity="0.2"/>
<path d="M18.2349 42H581.765" stroke="#8EA5EB"/>
<path d="M18.2349 65.5H581.765" stroke="#8EA5EB"/>
<path d="M18.2349 89H581.765" stroke="#8EA5EB"/>
<path d="M18.2349 112.5H581.765" stroke="#8EA5EB"/>
<path d="M18.2349 136H581.765" stroke="#8EA5EB"/>
<path d="M18.2349 159.5H581.765" stroke="#8EA5EB"/>
<path d="M18.2349 183H581.765" stroke="#8EA5EB"/>
<path d="M18.2349 206.5H581.765" stroke="#8EA5EB"/>
<path d="M18.2349 230H581.765" stroke="#8EA5EB"/>
<path d="M18.2349 253.5H581.765" stroke="#8EA5EB"/>
<path d="M18.2349 277H581.765" stroke="#8EA5EB"/>
<path d="M18.2349 300.5H581.765" stroke="#8EA5EB"/>
<path d="M18.2349 324H581.765" stroke="#8EA5EB"/>
<path d="M18.2349 347.5H581.765" stroke="#8EA5EB"/>
<path d="M18.2349 371H581.765" stroke="#8EA5EB"/>
<path d="M18.2349 394.5H581.765" stroke="#8EA5EB"/>
<path d="M18.2349 418H581.765" stroke="#8EA5EB"/>
<path d="M18.2349 441.5H581.765" stroke="#8EA5EB"/>
<path d="M18.2349 465H581.765" stroke="#8EA5EB"/>
<path d="M18.2349 488.5H581.765" stroke="#8EA5EB"/>
<path d="M18.2349 512H581.765" stroke="#8EA5EB"/>
<path d="M18.2349 535.5H581.765" stroke="#8EA5EB"/>
<path d="M18.2349 559H581.765" stroke="#8EA5EB"/>
<path fill-rule="evenodd" clip-rule="evenodd" d="M48.9822 20.9583C47.0458 19.5401 44.7079 18.7757 42.3077 18.7761H28.7615L19.1894 64.7239H30.3111L31.4736 59.1397L31.9885 59.7801C33.7059 61.916 36.0438 63.4664 38.6797 64.2172C41.3156 64.968 44.1195 64.8824 46.7047 63.972C49.2898 63.0616 51.5287 61.3714 53.1124 59.1346C54.6962 56.8978 55.5468 54.2246 55.5468 51.4839C55.5475 49.1414 54.9265 46.8407 53.7472 44.8168C52.5679 42.7929 50.8726 41.1183 48.8345 39.9639L48.3005 39.6615L48.8026 39.3087C50.7664 37.9287 52.2394 35.9588 53.0079 33.685C53.7765 31.4112 53.8006 28.9516 53.0767 26.6632C52.3528 24.3748 50.9186 22.3765 48.9822 20.9583ZM56.323 51.484C56.3229 54.3853 55.4225 57.2152 53.7459 59.5831C52.0693 61.951 49.6991 63.7403 46.9625 64.7041C44.2258 65.6678 41.2575 65.7585 38.4671 64.9637C35.9347 64.2423 33.6621 62.8239 31.9046 60.8777L30.9423 65.5H18.2349L28.1304 18L42.3076 18C42.3076 18 42.3076 18 42.3076 18C44.8727 17.9996 47.3714 18.8165 49.4408 20.3321C51.5103 21.8478 53.0431 23.9834 53.8167 26.4291C54.5903 28.8748 54.5646 31.5034 53.7432 33.9335C52.9853 36.176 51.5862 38.1418 49.7255 39.5909C51.6571 40.7954 53.2688 42.4541 54.4178 44.4261C55.6662 46.5686 56.3237 49.0042 56.323 51.484Z" fill="black"/>
<path fill-rule="evenodd" clip-rule="evenodd" d="M31.0149 30.0696C31.0132 31.8819 31.4483 33.6678 32.2835 35.2761C33.1187 36.8845 34.3293 38.2677 35.8127 39.3087L36.3154 39.6615L35.781 39.9641C33.7426 41.1183 32.0471 42.7929 30.8677 44.8168C29.6882 46.8407 29.0671 49.1414 29.0678 51.4839L28.2917 51.4842C28.291 49.0043 28.9485 46.5686 30.1971 44.426C31.3462 42.4542 32.958 40.7956 34.8896 39.5913C33.5208 38.5264 32.396 37.1771 31.5947 35.6338C30.702 33.9148 30.2369 32.0059 30.2388 30.0688L31.0149 30.0696Z" fill="black"/>
<path d="M135.66 102.442H139.89V136H135.66V120.678H116.907V136H112.677V102.442H116.907V116.73H135.66V102.442ZM167.749 122.746V124.109H149.701C149.763 126.96 150.437 129.185 151.722 130.783C153.006 132.35 154.855 133.133 157.268 133.133C160.526 133.133 162.532 131.911 163.284 129.467H167.326C166.918 131.598 165.837 133.321 164.083 134.637C162.359 135.953 160.088 136.611 157.268 136.611C153.664 136.611 150.844 135.436 148.808 133.086C146.771 130.736 145.753 127.681 145.753 123.921C145.753 120.224 146.771 117.263 148.808 115.038C150.844 112.813 153.633 111.701 157.174 111.701C160.526 111.701 163.111 112.766 164.929 114.897C166.746 116.996 167.686 119.613 167.749 122.746ZM157.08 115.179C155.043 115.179 153.414 115.712 152.192 116.777C150.97 117.811 150.218 119.143 149.936 120.772H163.613C163.487 119.174 162.845 117.842 161.686 116.777C160.526 115.712 158.991 115.179 157.08 115.179ZM191.843 145.4H187.801L192.689 133.791L182.584 112.312H186.861L194.099 127.916H195.274L201.854 112.312H206.037L191.843 145.4ZM230.857 136H226.862V115.79H213.937V136H209.942V112.312H230.857V136ZM239.429 115.226C241.528 112.876 244.38 111.701 247.983 111.701C251.586 111.701 254.422 112.876 256.49 115.226C258.589 117.576 259.639 120.553 259.639 124.156C259.639 127.759 258.589 130.736 256.49 133.086C254.422 135.436 251.586 136.611 247.983 136.611C244.38 136.611 241.528 135.436 239.429 133.086C237.361 130.736 236.327 127.759 236.327 124.156C236.327 120.553 237.361 117.576 239.429 115.226ZM242.296 130.548C243.612 132.271 245.508 133.133 247.983 133.133C250.458 133.133 252.354 132.271 253.67 130.548C254.986 128.793 255.644 126.663 255.644 124.156C255.644 121.649 254.986 119.534 253.67 117.811C252.354 116.056 250.458 115.179 247.983 115.179C245.508 115.179 243.612 116.056 242.296 117.811C240.98 119.534 240.322 121.649 240.322 124.156C240.322 126.663 240.98 128.793 242.296 130.548ZM262.172 115.79V112.312H282.57V115.79H274.392V136H270.397V115.79H262.172ZM298.416 115.179C295.94 115.179 294.076 116.041 292.823 117.764C291.601 119.487 290.99 121.618 290.99 124.156C290.99 126.694 291.601 128.825 292.823 130.548C294.076 132.271 295.94 133.133 298.416 133.133C300.734 133.133 302.52 132.318 303.774 130.689C305.058 129.028 305.701 126.851 305.701 124.156C305.701 121.461 305.058 119.299 303.774 117.67C302.52 116.009 300.734 115.179 298.416 115.179ZM287.042 112.312H290.896V114.85H291.93C293.622 112.751 296.081 111.701 299.309 111.701C302.505 111.701 305.027 112.876 306.876 115.226C308.756 117.576 309.696 120.553 309.696 124.156C309.696 127.822 308.756 130.814 306.876 133.133C305.027 135.452 302.505 136.611 299.309 136.611C296.05 136.611 293.637 135.561 292.071 133.462H291.037V145.4H287.042V112.312ZM335.698 122.746V124.109H317.65C317.712 126.96 318.386 129.185 319.671 130.783C320.955 132.35 322.804 133.133 325.217 133.133C328.475 133.133 330.481 131.911 331.233 129.467H335.275C334.867 131.598 333.786 133.321 332.032 134.637C330.308 135.953 328.037 136.611 325.217 136.611C321.613 136.611 318.793 135.436 316.757 133.086C314.72 130.736 313.702 127.681 313.702 123.921C313.702 120.224 314.72 117.263 316.757 115.038C318.793 112.813 321.582 111.701 325.123 111.701C328.475 111.701 331.06 112.766 332.878 114.897C334.695 116.996 335.635 119.613 335.698 122.746ZM325.029 115.179C322.992 115.179 321.363 115.712 320.141 116.777C318.919 117.811 318.167 119.143 317.885 120.772H331.562C331.436 119.174 330.794 117.842 329.635 116.777C328.475 115.712 326.94 115.179 325.029 115.179ZM351.928 112.547C355.406 112.547 358.148 113.691 360.153 115.978C362.159 118.234 363.161 121.101 363.161 124.579C363.161 128.026 362.096 130.893 359.965 133.18C357.866 135.467 355.03 136.611 351.458 136.611C347.698 136.611 344.784 135.373 342.716 132.898C340.68 130.423 339.661 126.882 339.661 122.276C339.661 120.49 339.708 118.892 339.802 117.482C339.928 116.072 340.178 114.599 340.554 113.064C340.962 111.529 341.494 110.228 342.152 109.163C342.81 108.066 343.719 107.111 344.878 106.296C346.038 105.481 347.416 104.949 349.014 104.698L355.312 103.664C356.19 103.539 356.769 103.366 357.051 103.147C357.365 102.928 357.553 102.489 357.615 101.831H361.328C361.266 103.304 360.905 104.479 360.247 105.356C359.589 106.202 358.399 106.782 356.675 107.095L349.39 108.317C347.416 108.662 345.959 109.492 345.019 110.808C344.111 112.093 343.515 113.816 343.233 115.978H344.267C345.239 114.693 346.32 113.8 347.51 113.299C348.732 112.798 350.205 112.547 351.928 112.547ZM345.63 130.642C346.978 132.303 348.889 133.133 351.364 133.133C353.84 133.133 355.735 132.303 357.051 130.642C358.399 128.95 359.072 126.913 359.072 124.532C359.072 122.151 358.399 120.13 357.051 118.469C355.735 116.808 353.84 115.978 351.364 115.978C348.889 115.978 346.978 116.808 345.63 118.469C344.314 120.13 343.656 122.151 343.656 124.532C343.656 126.913 344.314 128.95 345.63 130.642ZM365.455 136V132.24H366.254C367.915 132.24 369.105 131.472 369.826 129.937C370.547 128.37 370.907 125.55 370.907 121.477V112.312H389.049V136H385.007V115.79H374.62V121.571C374.62 126.929 373.962 130.673 372.646 132.804C371.361 134.935 369.231 136 366.254 136H365.455ZM403.591 112.312H415.388V136H411.346V126.647H404.155C403.528 126.647 403.042 126.631 402.698 126.6L399.126 136H394.943L398.938 125.707C396.494 124.548 395.272 122.48 395.272 119.503C395.272 117.216 395.977 115.445 397.387 114.192C398.828 112.939 400.896 112.312 403.591 112.312ZM411.346 115.696H404.014C402.29 115.696 401.068 116.025 400.348 116.683C399.627 117.341 399.267 118.297 399.267 119.55C399.267 120.772 399.627 121.696 400.348 122.323C401.068 122.95 402.29 123.263 404.014 123.263H411.346V115.696ZM442.796 122.746V124.109H424.748C424.81 126.96 425.484 129.185 426.769 130.783C428.053 132.35 429.902 133.133 432.315 133.133C435.573 133.133 437.579 131.911 438.331 129.467H442.373C441.965 131.598 440.884 133.321 439.13 134.637C437.406 135.953 435.135 136.611 432.315 136.611C428.711 136.611 425.891 135.436 423.855 133.086C421.818 130.736 420.8 127.681 420.8 123.921C420.8 120.224 421.818 117.263 423.855 115.038C425.891 112.813 428.68 111.701 432.221 111.701C435.573 111.701 438.158 112.766 439.976 114.897C441.793 116.996 442.733 119.613 442.796 122.746ZM432.127 115.179C430.09 115.179 428.461 115.712 427.239 116.777C426.017 117.811 425.265 119.143 424.983 120.772H438.66C438.534 119.174 437.892 117.842 436.733 116.777C435.573 115.712 434.038 115.179 432.127 115.179ZM444.992 115.79V112.312H465.39V115.79H457.212V136H453.217V115.79H444.992ZM490.033 122.746V124.109H471.985C472.048 126.96 472.722 129.185 474.006 130.783C475.291 132.35 477.14 133.133 479.552 133.133C482.811 133.133 484.816 131.911 485.568 129.467H489.61C489.203 131.598 488.122 133.321 486.367 134.637C484.644 135.953 482.372 136.611 479.552 136.611C475.949 136.611 473.129 135.436 471.092 133.086C469.056 130.736 468.037 127.681 468.037 123.921C468.037 120.224 469.056 117.263 471.092 115.038C473.129 112.813 475.918 111.701 479.458 111.701C482.811 111.701 485.396 112.766 487.213 114.897C489.031 116.996 489.971 119.613 490.033 122.746ZM479.364 115.179C477.328 115.179 475.698 115.712 474.476 116.777C473.254 117.811 472.502 119.143 472.22 120.772H485.897C485.772 119.174 485.13 117.842 483.97 116.777C482.811 115.712 481.276 115.179 479.364 115.179ZM191.513 183L186.249 172.566H179.152V183H175.157V159.312H179.152V169.088H186.343L191.278 159.312H195.461L189.68 170.733L195.79 183H191.513ZM215.744 183V180.509H214.71C213.081 182.577 210.621 183.611 207.331 183.611C204.731 183.611 202.663 182.859 201.127 181.355C199.592 179.851 198.824 178.034 198.824 175.903C198.824 173.741 199.576 171.892 201.08 170.357C202.584 168.822 204.856 168.054 207.895 168.054H215.603V167.114C215.603 165.61 215.133 164.419 214.193 163.542C213.253 162.633 211.796 162.179 209.822 162.179C206.376 162.179 204.543 163.323 204.323 165.61H200.328C200.485 163.448 201.409 161.756 203.101 160.534C204.825 159.312 207.034 158.701 209.728 158.701C212.768 158.701 215.149 159.406 216.872 160.816C218.627 162.226 219.504 164.247 219.504 166.879V183H215.744ZM208.318 180.133C210.292 180.133 212 179.491 213.441 178.206C214.883 176.89 215.603 175.292 215.603 173.412V171.25H208.506C204.715 171.25 202.819 172.754 202.819 175.762C202.819 177.109 203.289 178.175 204.229 178.958C205.201 179.741 206.564 180.133 208.318 180.133ZM242.377 183L237.113 172.566H230.016V183H226.021V159.312H230.016V169.088H237.207L242.142 159.312H246.325L240.544 170.733L246.654 183H242.377ZM252.478 162.226C254.577 159.876 257.429 158.701 261.032 158.701C264.635 158.701 267.471 159.876 269.539 162.226C271.638 164.576 272.688 167.553 272.688 171.156C272.688 174.759 271.638 177.736 269.539 180.086C267.471 182.436 264.635 183.611 261.032 183.611C257.429 183.611 254.577 182.436 252.478 180.086C250.41 177.736 249.376 174.759 249.376 171.156C249.376 167.553 250.41 164.576 252.478 162.226ZM255.345 177.548C256.661 179.271 258.557 180.133 261.032 180.133C263.507 180.133 265.403 179.271 266.719 177.548C268.035 175.793 268.693 173.663 268.693 171.156C268.693 168.649 268.035 166.534 266.719 164.811C265.403 163.056 263.507 162.179 261.032 162.179C258.557 162.179 256.661 163.056 255.345 164.811C254.029 166.534 253.371 168.649 253.371 171.156C253.371 173.663 254.029 175.793 255.345 177.548ZM283.764 183H278.124V159.312H282.025V177.642H283.059L293.446 159.312H299.274V183H295.373V164.67H294.339L283.764 183ZM292.694 148.972H295.937C295.874 151.165 295.2 152.857 293.916 154.048C292.631 155.239 290.861 155.834 288.605 155.834C286.38 155.834 284.625 155.239 283.341 154.048C282.056 152.857 281.382 151.165 281.32 148.972H284.563C284.625 151.635 285.973 152.967 288.605 152.967C291.174 152.967 292.537 151.635 292.694 148.972ZM317.475 171.72H304.644V168.195H317.475V171.72ZM319.24 183V179.24H320.039C321.7 179.24 322.891 178.472 323.611 176.937C324.332 175.37 324.692 172.55 324.692 168.477V159.312H342.834V183H338.792V162.79H328.405V168.571C328.405 173.929 327.747 177.673 326.431 179.804C325.147 181.935 323.016 183 320.039 183H319.24ZM355.355 183H349.715V159.312H353.616V177.642H354.65L365.037 159.312H370.865V183H366.964V164.67H365.93L355.355 183ZM388.596 159.547C392.074 159.547 394.816 160.691 396.821 162.978C398.826 165.234 399.829 168.101 399.829 171.579C399.829 175.026 398.764 177.893 396.633 180.18C394.534 182.467 391.698 183.611 388.126 183.611C384.366 183.611 381.452 182.373 379.384 179.898C377.347 177.423 376.329 173.882 376.329 169.276C376.329 167.49 376.376 165.892 376.47 164.482C376.595 163.072 376.846 161.599 377.222 160.064C377.629 158.529 378.162 157.228 378.82 156.163C379.478 155.066 380.387 154.111 381.546 153.296C382.705 152.481 384.084 151.949 385.682 151.698L391.98 150.664C392.857 150.539 393.437 150.366 393.719 150.147C394.032 149.928 394.22 149.489 394.283 148.831H397.996C397.933 150.304 397.573 151.479 396.915 152.356C396.257 153.202 395.066 153.782 393.343 154.095L386.058 155.317C384.084 155.662 382.627 156.492 381.687 157.808C380.778 159.093 380.183 160.816 379.901 162.978H380.935C381.906 161.693 382.987 160.8 384.178 160.299C385.4 159.798 386.873 159.547 388.596 159.547ZM382.298 177.642C383.645 179.303 385.557 180.133 388.032 180.133C390.507 180.133 392.403 179.303 393.719 177.642C395.066 175.95 395.74 173.913 395.74 171.532C395.74 169.151 395.066 167.13 393.719 165.469C392.403 163.808 390.507 162.978 388.032 162.978C385.557 162.978 383.645 163.808 382.298 165.469C380.982 167.13 380.324 169.151 380.324 171.532C380.324 173.913 380.982 175.95 382.298 177.642ZM406.906 162.226C409.005 159.876 411.856 158.701 415.46 158.701C419.063 158.701 421.899 159.876 423.967 162.226C426.066 164.576 427.116 167.553 427.116 171.156C427.116 174.759 426.066 177.736 423.967 180.086C421.899 182.436 419.063 183.611 415.46 183.611C411.856 183.611 409.005 182.436 406.906 180.086C404.838 177.736 403.804 174.759 403.804 171.156C403.804 167.553 404.838 164.576 406.906 162.226ZM409.773 177.548C411.089 179.271 412.984 180.133 415.46 180.133C417.935 180.133 419.831 179.271 421.147 177.548C422.463 175.793 423.121 173.663 423.121 171.156C423.121 168.649 422.463 166.534 421.147 164.811C419.831 163.056 417.935 162.179 415.46 162.179C412.984 162.179 411.089 163.056 409.773 164.811C408.457 166.534 407.799 168.649 407.799 171.156C407.799 173.663 408.457 175.793 409.773 177.548ZM219.553 230H215.558V209.79H202.633V230H198.638V206.312H219.553V230ZM237.854 209.179C235.378 209.179 233.514 210.041 232.261 211.764C231.039 213.487 230.428 215.618 230.428 218.156C230.428 220.694 231.039 222.825 232.261 224.548C233.514 226.271 235.378 227.133 237.854 227.133C240.172 227.133 241.958 226.318 243.212 224.689C244.496 223.028 245.139 220.851 245.139 218.156C245.139 215.461 244.496 213.299 243.212 211.67C241.958 210.009 240.172 209.179 237.854 209.179ZM226.48 206.312H230.334V208.85H231.368C233.06 206.751 235.519 205.701 238.747 205.701C241.943 205.701 244.465 206.876 246.314 209.226C248.194 211.576 249.134 214.553 249.134 218.156C249.134 221.822 248.194 224.814 246.314 227.133C244.465 229.452 241.943 230.611 238.747 230.611C235.488 230.611 233.075 229.561 231.509 227.462H230.475V239.4H226.48V206.312ZM256.242 209.226C258.341 206.876 261.192 205.701 264.796 205.701C268.399 205.701 271.235 206.876 273.303 209.226C275.402 211.576 276.452 214.553 276.452 218.156C276.452 221.759 275.402 224.736 273.303 227.086C271.235 229.436 268.399 230.611 264.796 230.611C261.192 230.611 258.341 229.436 256.242 227.086C254.174 224.736 253.14 221.759 253.14 218.156C253.14 214.553 254.174 211.576 256.242 209.226ZM259.109 224.548C260.425 226.271 262.32 227.133 264.796 227.133C267.271 227.133 269.167 226.271 270.483 224.548C271.799 222.793 272.457 220.663 272.457 218.156C272.457 215.649 271.799 213.534 270.483 211.811C269.167 210.056 267.271 209.179 264.796 209.179C262.32 209.179 260.425 210.056 259.109 211.811C257.793 213.534 257.135 215.649 257.135 218.156C257.135 220.663 257.793 222.793 259.109 224.548ZM302.99 226.522H307.361V236.721H303.46V230H282.968V236.721H279.067V226.522H282.216C284.159 222.386 285.13 217.811 285.13 212.798V206.312H302.99V226.522ZM298.995 226.522V209.79H288.843V212.798C288.843 218.156 287.982 222.731 286.258 226.522H298.995ZM318.141 239.4H314.099L318.987 227.791L308.882 206.312H313.159L320.397 221.916H321.572L328.152 206.312H332.335L318.141 239.4ZM352.596 230L347.332 219.566H340.235V230H336.24V206.312H340.235V216.088H347.426L352.361 206.312H356.544L350.763 217.733L356.873 230H352.596ZM359.296 209.79V206.312H379.694V209.79H371.516V230H367.521V209.79H359.296ZM392.861 195.831C395.932 195.831 398.376 196.661 400.193 198.322C402.042 199.951 402.966 202.145 402.966 204.902C402.966 206.093 402.841 207.127 402.59 208.004C402.371 208.881 401.916 209.727 401.227 210.542C400.569 211.357 400.021 211.968 399.582 212.375C399.143 212.782 398.36 213.44 397.232 214.349C395.979 215.32 395.148 216.119 394.741 216.746C394.365 217.341 394.177 218.36 394.177 219.801V221.117H390.135V219.801C390.135 218.454 390.307 217.326 390.652 216.417C391.028 215.477 391.482 214.725 392.015 214.161C392.579 213.566 393.456 212.782 394.647 211.811C395.681 210.965 396.449 210.307 396.95 209.837C397.451 209.336 397.906 208.662 398.313 207.816C398.72 206.97 398.924 205.999 398.924 204.902C398.924 203.367 398.376 202.051 397.279 200.954C396.214 199.857 394.757 199.309 392.908 199.309C388.866 199.309 386.735 201.393 386.516 205.56H382.474C382.599 202.521 383.571 200.139 385.388 198.416C387.237 196.693 389.728 195.831 392.861 195.831ZM394.6 230H389.712V224.548H394.6V230Z" fill="black"/>
<path d="M151.394 374.572H161.499C165.071 374.572 167.829 375.449 169.771 377.204C171.745 378.959 172.732 381.403 172.732 384.536C172.732 387.669 171.745 390.113 169.771 391.868C167.829 393.623 165.071 394.5 161.499 394.5H147.164V360.942H170.147V364.796H151.394V374.572ZM151.394 390.74H160.794C163.52 390.74 165.479 390.207 166.669 389.142C167.891 388.077 168.502 386.526 168.502 384.489C168.502 380.353 165.933 378.285 160.794 378.285H151.394V390.74ZM177.072 387.638H180.973C181.631 390.301 183.746 391.633 187.318 391.633C189.48 391.633 191.188 390.944 192.441 389.565C193.726 388.186 194.431 386.385 194.556 384.16H183.887V380.776H194.509C194.321 378.614 193.616 376.891 192.394 375.606C191.203 374.321 189.511 373.679 187.318 373.679C183.934 373.679 181.882 374.917 181.161 377.392H177.26C177.73 375.199 178.842 373.46 180.597 372.175C182.352 370.859 184.576 370.201 187.271 370.201C190.78 370.201 193.553 371.36 195.59 373.679C197.627 375.966 198.645 378.959 198.645 382.656C198.645 386.385 197.627 389.393 195.59 391.68C193.553 393.967 190.765 395.111 187.224 395.111C184.561 395.111 182.305 394.422 180.456 393.043C178.639 391.664 177.511 389.863 177.072 387.638ZM209.717 394.5H204.077V370.812H207.978V389.142H209.012L219.399 370.812H225.227V394.5H221.326V376.17H220.292L209.717 394.5ZM218.647 360.472H221.89C221.827 362.665 221.154 364.357 219.869 365.548C218.584 366.739 216.814 367.334 214.558 367.334C212.333 367.334 210.579 366.739 209.294 365.548C208.009 364.357 207.336 362.665 207.273 360.472H210.516C210.579 363.135 211.926 364.467 214.558 364.467C217.127 364.467 218.49 363.135 218.647 360.472ZM229.704 374.29V370.812H250.102V374.29H241.924V394.5H237.929V374.29H229.704ZM285.889 394.5H281.894V374.29H268.969V394.5H264.974V370.812H285.889V394.5ZM294.46 373.726C296.56 371.376 299.411 370.201 303.014 370.201C306.618 370.201 309.453 371.376 311.521 373.726C313.621 376.076 314.67 379.053 314.67 382.656C314.67 386.259 313.621 389.236 311.521 391.586C309.453 393.936 306.618 395.111 303.014 395.111C299.411 395.111 296.56 393.936 294.46 391.586C292.392 389.236 291.358 386.259 291.358 382.656C291.358 379.053 292.392 376.076 294.46 373.726ZM297.327 389.048C298.643 390.771 300.539 391.633 303.014 391.633C305.49 391.633 307.385 390.771 308.701 389.048C310.017 387.293 310.675 385.163 310.675 382.656C310.675 380.149 310.017 378.034 308.701 376.311C307.385 374.556 305.49 373.679 303.014 373.679C300.539 373.679 298.643 374.556 297.327 376.311C296.011 378.034 295.353 380.149 295.353 382.656C295.353 385.163 296.011 387.293 297.327 389.048ZM320.106 394.5V370.812H326.451L332.279 381.622H333.313L339.141 370.812H345.392V394.5H341.491V375.465H340.457L334.958 385.617H330.54L325.041 375.465H324.007V394.5H320.106ZM353.953 373.726C356.053 371.376 358.904 370.201 362.507 370.201C366.111 370.201 368.946 371.376 371.014 373.726C373.114 376.076 374.163 379.053 374.163 382.656C374.163 386.259 373.114 389.236 371.014 391.586C368.946 393.936 366.111 395.111 362.507 395.111C358.904 395.111 356.053 393.936 353.953 391.586C351.885 389.236 350.851 386.259 350.851 382.656C350.851 379.053 351.885 376.076 353.953 373.726ZM356.82 389.048C358.136 390.771 360.032 391.633 362.507 391.633C364.983 391.633 366.878 390.771 368.194 389.048C369.51 387.293 370.168 385.163 370.168 382.656C370.168 380.149 369.51 378.034 368.194 376.311C366.878 374.556 364.983 373.679 362.507 373.679C360.032 373.679 358.136 374.556 356.82 376.311C355.504 378.034 354.846 380.149 354.846 382.656C354.846 385.163 355.504 387.293 356.82 389.048ZM386.32 384.113L381.761 394.5H377.578L382.936 382.327L377.907 370.812H382.043L386.32 380.635H392.383V370.812H396.237V380.635H402.3L406.577 370.812H410.713L405.684 382.327L411.089 394.5H406.859L402.3 384.113H396.237V394.5H392.383V384.113H386.32ZM435.782 381.246V382.609H417.734C417.797 385.46 418.471 387.685 419.755 389.283C421.04 390.85 422.889 391.633 425.301 391.633C428.56 391.633 430.565 390.411 431.317 387.967H435.359C434.952 390.098 433.871 391.821 432.116 393.137C430.393 394.453 428.121 395.111 425.301 395.111C421.698 395.111 418.878 393.936 416.841 391.586C414.805 389.236 413.786 386.181 413.786 382.421C413.786 378.724 414.805 375.763 416.841 373.538C418.878 371.313 421.667 370.201 425.207 370.201C428.56 370.201 431.145 371.266 432.962 373.397C434.78 375.496 435.72 378.113 435.782 381.246ZM425.113 373.679C423.077 373.679 421.447 374.212 420.225 375.277C419.003 376.311 418.251 377.643 417.969 379.272H431.646C431.521 377.674 430.879 376.342 429.719 375.277C428.56 374.212 427.025 373.679 425.113 373.679ZM437.979 374.29V370.812H458.377V374.29H450.199V394.5H446.204V374.29H437.979ZM113.286 441.5H109.291V431.066H96.1775V441.5H92.1825V417.812H96.1775V427.588H109.291V417.812H113.286V441.5ZM135.295 441.5V439.009H134.261C132.631 441.077 130.172 442.111 126.882 442.111C124.281 442.111 122.213 441.359 120.678 439.855C119.142 438.351 118.375 436.534 118.375 434.403C118.375 432.241 119.127 430.392 120.631 428.857C122.135 427.322 124.406 426.554 127.446 426.554H135.154V425.614C135.154 424.11 134.684 422.919 133.744 422.042C132.804 421.133 131.347 420.679 129.373 420.679C125.926 420.679 124.093 421.823 123.874 424.11H119.879C120.035 421.948 120.96 420.256 122.652 419.034C124.375 417.812 126.584 417.201 129.279 417.201C132.318 417.201 134.699 417.906 136.423 419.316C138.177 420.726 139.055 422.747 139.055 425.379V441.5H135.295ZM127.869 438.633C129.843 438.633 131.55 437.991 132.992 436.706C134.433 435.39 135.154 433.792 135.154 431.912V429.75H128.057C124.265 429.75 122.37 431.254 122.37 434.262C122.37 435.609 122.84 436.675 123.78 437.458C124.751 438.241 126.114 438.633 127.869 438.633ZM151.211 441.5H145.571V417.812H149.472V436.142H150.506L160.893 417.812H166.721V441.5H162.82V423.17H161.786L151.211 441.5ZM160.141 407.472H163.384C163.321 409.665 162.648 411.357 161.363 412.548C160.078 413.739 158.308 414.334 156.052 414.334C153.827 414.334 152.073 413.739 150.788 412.548C149.503 411.357 148.83 409.665 148.767 407.472H152.01C152.073 410.135 153.42 411.467 156.052 411.467C158.621 411.467 159.984 410.135 160.141 407.472ZM171.198 421.29V417.812H191.596V421.29H183.418V441.5H179.423V421.29H171.198ZM201.708 441.5H196.068V417.812H199.969V436.142H201.003L211.39 417.812H217.218V441.5H213.317V423.17H212.283L201.708 441.5ZM252.965 423.593C252.965 420.726 250.38 419.316 246.667 419.316C244.27 419.316 242.061 420.068 240.087 421.619C238.16 423.123 236.656 424.956 235.669 427.165C234.682 429.327 234.212 431.536 234.212 433.745C234.212 438.68 236.609 442.158 241.685 442.158C244.646 442.158 247.043 441.453 248.782 440.043C250.521 438.633 251.414 436.894 251.414 434.779C251.414 432.335 250.004 430.079 246.479 429.844C248.641 429.28 250.239 428.387 251.32 427.118C252.401 425.849 252.965 424.674 252.965 423.593ZM247.325 434.544C247.325 436.377 246.808 437.881 245.727 439.056C244.693 440.231 243.565 440.795 242.296 440.795C239.805 440.795 238.536 438.868 238.536 434.967C238.536 433.792 238.63 432.664 238.771 431.583C240.557 430.878 242.296 430.549 244.035 430.549C246.056 430.549 247.325 432.288 247.325 434.544ZM246.197 420.632C247.889 420.632 249.158 421.713 249.158 423.593C249.158 425.614 247.513 428.058 244.458 429.233C242.39 429.421 240.557 429.797 238.959 430.314C239.382 427.635 240.275 425.379 241.638 423.499C243.001 421.572 244.505 420.632 246.197 420.632ZM270.215 439.244C270.215 441.124 270.967 442.158 273.082 442.158C275.62 442.158 278.064 439.667 280.461 434.732L279.427 434.121C277.641 438.069 276.137 440.043 274.915 440.043C274.304 440.043 273.975 439.667 273.975 438.915C273.975 438.116 274.21 436.847 274.727 435.108L278.91 419.974H274.351L272.283 427.87C271.578 430.549 270.309 433.181 268.429 435.86C266.596 438.539 264.904 439.855 263.447 439.855C262.178 439.855 261.567 439.056 261.567 437.411C261.567 436.471 261.802 435.108 262.272 433.369L263.635 428.246C264.434 425.285 264.81 423.358 264.81 422.465C264.81 420.35 263.682 419.316 261.473 419.316C258.888 419.316 256.444 421.807 254.094 426.789L255.128 427.4C256.914 423.452 258.371 421.478 259.546 421.478C260.157 421.478 260.486 421.854 260.486 422.606C260.439 423.781 260.157 425.144 259.734 426.695L257.666 433.886C257.243 435.343 257.008 436.753 257.008 438.022C257.008 440.795 258.465 442.158 261.332 442.158C263.212 442.158 265.045 441.265 266.831 439.479C268.664 437.646 270.215 435.343 271.484 432.523C270.638 435.437 270.215 437.693 270.215 439.244ZM318.627 434.074C317.076 437.458 315.243 439.996 314.162 439.996C313.551 439.996 313.222 439.62 313.222 438.868C313.222 437.881 313.457 436.565 313.974 434.826L316.042 427.588C316.512 425.99 316.747 424.58 316.747 423.358C316.747 420.679 315.384 419.316 312.611 419.316C310.872 419.316 308.992 420.256 307.065 422.089C305.138 423.922 303.54 426.225 302.271 428.998C302.976 426.413 303.305 424.486 303.305 423.217C303.305 420.632 302.13 419.316 299.733 419.316C297.947 419.316 296.067 420.209 294.14 421.995C292.213 423.781 290.615 426.131 289.346 428.998C290.192 425.755 290.615 423.499 290.615 422.277C290.615 420.35 289.91 419.316 287.795 419.316C284.975 419.316 282.672 422.089 280.416 426.789L281.45 427.4C282.907 424.016 284.74 421.478 285.915 421.478C286.526 421.478 286.855 421.854 286.855 422.606C286.855 423.217 286.62 424.486 286.103 426.413L282.061 441.5H286.479L288.735 433.134C289.44 430.643 290.709 428.105 292.542 425.52C294.375 422.935 295.973 421.666 297.242 421.666C298.746 421.666 299.263 422.324 299.263 424.016C299.263 424.956 299.028 426.319 298.558 428.152L294.892 441.5H299.31L301.613 433.134C302.271 430.737 303.54 428.246 305.373 425.614C307.253 422.982 308.851 421.666 310.12 421.666C311.671 421.666 312.188 422.324 312.188 424.016C312.188 424.909 311.953 426.319 311.436 428.152L310.073 433.275C309.321 435.954 308.945 437.881 308.945 439.056C308.945 441.124 310.026 442.158 312.235 442.158C315.055 442.158 317.358 439.385 319.614 434.685L318.627 434.074ZM343.518 434.074C342.813 435.719 342.014 437.129 341.168 438.304C340.369 439.432 339.711 439.996 339.194 439.996C338.489 439.996 338.16 439.62 338.16 438.821C338.16 437.834 338.536 436.095 339.241 433.51L342.954 419.974H338.536L337.22 424.956C336.891 421.384 334.964 419.316 332.097 419.316C326.081 419.128 320.347 427.588 320.535 434.92C320.535 439.385 322.65 442.158 326.41 442.158C329.747 442.158 332.99 439.667 334.823 435.39C334.494 436.753 334.306 437.74 334.306 438.398C334.306 440.889 335.246 442.158 337.079 442.158C339.664 442.158 342.155 439.667 344.552 434.685L343.518 434.074ZM328.055 440.419C326.034 440.419 324.812 438.821 324.812 435.625C324.812 433.792 325.141 431.724 325.846 429.515C326.551 427.306 327.538 425.332 328.807 423.64C330.123 421.901 331.533 421.055 332.99 421.055C334.823 421.055 336.233 422.653 336.233 426.084C336.233 427.917 335.904 429.938 335.199 432.147C334.494 434.356 333.507 436.283 332.191 437.928C330.922 439.573 329.512 440.419 328.055 440.419ZM346.243 441.077C345.491 441.077 345.115 440.842 345.115 440.325C346.384 440.325 347.042 439.432 347.042 438.304C347.042 437.223 346.29 436.377 345.397 436.377C344.128 436.377 343.188 437.646 343.188 439.103C343.188 440.795 344.551 442.111 346.196 442.111C347.747 442.111 348.969 441.077 350.003 439.62C350.708 438.68 351.46 436.753 351.883 435.484C352.118 434.826 352.447 433.933 352.776 432.805L353.622 429.938C353.857 429.139 354.139 428.058 354.468 426.695L355.408 423.358C356.254 425.943 356.771 432.1 356.912 441.829H358.134L369.931 422.465L366.782 434.168C366.171 436.377 365.842 438.022 365.842 439.103C365.842 440.936 366.923 442.158 369.132 442.158C371.811 442.158 374.349 439.667 376.699 434.732L375.712 434.121C374.161 437.552 372.422 440.043 371.247 440.043C370.589 440.043 370.26 439.62 370.26 438.821C370.26 438.21 370.495 436.941 371.012 435.014L375.101 419.974H369.931L360.86 435.39C360.578 424.674 358.792 419.316 355.455 419.316C352.682 419.316 350.05 421.854 347.606 426.883L348.687 427.353C350.238 423.64 352.118 421.619 353.575 421.619C353.857 421.619 354.139 421.713 354.374 421.901C352.4 429.562 350.896 434.638 349.909 437.223C348.922 439.808 347.7 441.077 346.243 441.077ZM393.24 439.244C393.24 441.124 393.992 442.158 396.107 442.158C398.645 442.158 401.089 439.667 403.486 434.732L402.452 434.121C400.666 438.069 399.162 440.043 397.94 440.043C397.329 440.043 397 439.667 397 438.915C397 438.116 397.235 436.847 397.752 435.108L401.935 419.974H397.376L395.308 427.87C394.603 430.549 393.334 433.181 391.454 435.86C389.621 438.539 387.929 439.855 386.472 439.855C385.203 439.855 384.592 439.056 384.592 437.411C384.592 436.471 384.827 435.108 385.297 433.369L386.66 428.246C387.459 425.285 387.835 423.358 387.835 422.465C387.835 420.35 386.707 419.316 384.498 419.316C381.913 419.316 379.469 421.807 377.119 426.789L378.153 427.4C379.939 423.452 381.396 421.478 382.571 421.478C383.182 421.478 383.511 421.854 383.511 422.606C383.464 423.781 383.182 425.144 382.759 426.695L380.691 433.886C380.268 435.343 380.033 436.753 380.033 438.022C380.033 440.795 381.49 442.158 384.357 442.158C386.237 442.158 388.07 441.265 389.856 439.479C391.689 437.646 393.24 435.343 394.509 432.523C393.663 435.437 393.24 437.693 393.24 439.244ZM429.196 434.074C427.363 438.022 425.906 439.996 424.731 439.996C424.073 439.996 423.744 439.62 423.744 438.821C423.744 438.022 424.026 436.706 424.543 434.92L428.726 419.974H424.214L421.676 429.327H412.981L413.451 427.729C414.062 425.52 414.391 423.687 414.391 422.324C414.391 420.491 413.263 419.316 411.054 419.316C408.469 419.316 405.978 421.807 403.675 426.789L404.662 427.4C406.495 423.452 407.999 421.478 409.174 421.478C409.832 421.478 410.161 421.854 410.161 422.606C410.255 423.405 409.55 425.708 409.409 426.413L405.226 441.5H409.738L412.558 430.972H421.206L420.595 433.275C419.843 436.048 419.467 437.975 419.467 439.056C419.467 441.124 420.595 442.158 422.851 442.158C425.342 442.158 427.786 439.667 430.183 434.685L429.196 434.074ZM456.12 434.074C454.287 438.022 452.83 439.996 451.655 439.996C450.997 439.996 450.668 439.62 450.668 438.821C450.668 438.022 450.95 436.706 451.467 434.92L455.65 419.974H451.138L448.6 429.327H439.905L440.375 427.729C440.986 425.52 441.315 423.687 441.315 422.324C441.315 420.491 440.187 419.316 437.978 419.316C435.393 419.316 432.902 421.807 430.599 426.789L431.586 427.4C433.419 423.452 434.923 421.478 436.098 421.478C436.756 421.478 437.085 421.854 437.085 422.606C437.179 423.405 436.474 425.708 436.333 426.413L432.15 441.5H436.662L439.482 430.972H448.13L447.519 433.275C446.767 436.048 446.391 437.975 446.391 439.056C446.391 441.124 447.519 442.158 449.775 442.158C452.266 442.158 454.71 439.667 457.107 434.685L456.12 434.074ZM479.049 422.089C479.049 420.773 478.25 419.41 477.075 419.41C476.088 419.41 475.289 420.256 475.289 421.384C475.289 422.371 475.947 423.358 477.216 424.345C476.793 427.588 475.101 432.1 472.093 437.787C470.918 431.019 469.837 426.272 468.803 423.499C467.816 420.726 466.312 419.316 464.338 419.316C461.518 419.316 459.826 422.042 458.134 426.883L459.168 427.353C460.625 423.64 461.518 422.042 462.599 422.042C463.586 422.042 464.479 423.499 465.325 426.366C466.171 429.233 467.346 434.45 468.803 442.064C465.842 446.717 462.646 449.584 460.343 449.584C459.403 449.584 458.839 449.443 458.604 449.114C459.732 449.114 460.813 448.268 460.813 446.952C460.813 445.777 459.92 444.649 458.745 444.649C457.617 444.649 456.301 445.495 456.301 447.516C456.301 449.255 457.617 450.853 460.249 450.853C463.398 450.853 467.487 447.14 471.2 441.5C473.644 437.787 475.571 434.168 476.934 430.737C478.344 427.306 479.049 424.392 479.049 422.089ZM511.316 428.058C511.316 422.935 508.496 419.316 503.561 419.316C500.741 419.316 498.297 420.256 496.182 422.136C494.114 424.016 492.704 426.46 491.952 429.468H488.474L489.555 425.473C489.884 424.298 490.025 423.17 490.025 422.136C490.025 420.491 488.803 419.316 486.688 419.316C485.231 419.316 483.774 420.068 482.317 421.619C480.907 423.123 479.873 424.862 479.168 426.789L480.155 427.4C481.706 423.969 483.586 421.478 484.761 421.478C485.372 421.478 485.654 421.854 485.654 422.653C485.654 423.076 485.466 424.016 485.137 425.379L480.719 441.5H485.231L488.051 431.066H491.67C491.529 431.724 491.482 432.57 491.482 433.557C491.482 438.68 494.255 442.158 499.143 442.158C502.574 442.158 505.488 440.748 507.791 437.881C510.141 435.014 511.316 431.724 511.316 428.058ZM506.945 426.648C506.945 431.442 504.595 440.842 499.378 440.842C497.31 440.842 495.712 438.727 495.712 434.967C495.712 432.57 496.276 429.374 497.404 426.225C498.532 423.076 500.741 420.679 503.326 420.679C505.723 420.679 506.945 422.653 506.945 426.648ZM160.983 481.074C160.278 482.719 159.479 484.129 158.633 485.304C157.834 486.432 157.176 486.996 156.659 486.996C155.954 486.996 155.625 486.62 155.625 485.821C155.625 484.834 156.001 483.095 156.706 480.51L160.419 466.974H156.001L154.685 471.956C154.356 468.384 152.429 466.316 149.562 466.316C143.546 466.128 137.812 474.588 138 481.92C138 486.385 140.115 489.158 143.875 489.158C147.212 489.158 150.455 486.667 152.288 482.39C151.959 483.753 151.771 484.74 151.771 485.398C151.771 487.889 152.711 489.158 154.544 489.158C157.129 489.158 159.62 486.667 162.017 481.685L160.983 481.074ZM145.52 487.419C143.499 487.419 142.277 485.821 142.277 482.625C142.277 480.792 142.606 478.724 143.311 476.515C144.016 474.306 145.003 472.332 146.272 470.64C147.588 468.901 148.998 468.055 150.455 468.055C152.288 468.055 153.698 469.653 153.698 473.084C153.698 474.917 153.369 476.938 152.664 479.147C151.959 481.356 150.972 483.283 149.656 484.928C148.387 486.573 146.977 487.419 145.52 487.419ZM163.661 489.017C164.977 489.017 166.058 488.453 166.998 486.996C167.938 485.539 168.596 484.317 169.395 481.732C169.818 480.463 170.147 479.335 170.382 478.348L171.463 474.353L172.638 470.217C173.014 468.854 173.531 468.29 174.706 468.29H176.539C178.043 468.29 178.795 469.136 178.795 470.828C178.795 471.392 178.654 472.144 178.419 473.037L175.881 482.108C175.458 483.565 175.223 485.022 175.223 486.385C175.223 488.03 176.492 489.158 178.607 489.158C181.286 489.158 183.777 486.667 186.174 481.732L185.14 481.121C183.307 485.069 181.85 487.043 180.675 487.043C180.064 487.043 179.735 486.62 179.735 485.774C179.735 484.975 180.017 483.659 180.534 481.779L182.837 473.554C183.119 472.567 183.26 471.58 183.26 470.64C183.26 468.196 181.85 466.974 179.077 466.974H168.784L168.408 468.29H170.288C171.087 468.29 171.51 468.572 171.51 469.183C171.51 469.23 171.463 469.606 171.322 470.217C169.536 477.22 168.126 481.92 167.092 484.364C166.105 486.761 164.93 487.983 163.567 487.983C162.909 487.983 162.58 487.748 162.58 487.231C163.849 487.231 164.507 486.338 164.507 485.21C164.507 484.129 163.755 483.283 162.862 483.283C161.593 483.283 160.653 484.552 160.653 486.009C160.653 487.701 162.016 489.017 163.661 489.017ZM206.196 479.617C206.196 478.066 205.773 476.656 204.974 475.481C204.175 474.259 202.765 473.648 200.744 473.648C198.817 473.648 197.125 474.494 195.668 476.186L196.42 473.789C197.031 471.674 197.36 470.264 197.36 469.465C197.36 467.538 196.185 466.363 193.976 466.363C191.297 466.363 188.759 468.854 186.409 473.789L187.396 474.4C188.947 471.016 190.921 468.478 192.096 468.478C192.707 468.478 193.036 468.854 193.036 469.653C193.036 470.264 192.754 471.533 192.143 473.366L190.122 479.993C189.793 481.074 189.652 482.061 189.652 482.954C189.652 486.667 192.143 489.158 196.42 489.158C199.334 489.158 201.684 488.171 203.47 486.15C205.303 484.129 206.196 481.92 206.196 479.617ZM202.154 479.617C202.154 481.685 201.637 483.612 200.603 485.351C199.569 487.09 198.394 487.983 197.078 487.983C194.963 487.983 193.882 486.573 193.882 483.753C193.882 481.45 194.446 479.476 195.574 477.831C196.749 476.186 197.877 475.34 199.052 475.34C201.12 475.34 202.154 476.75 202.154 479.617ZM245.301 481.074C243.75 484.458 241.917 486.996 240.836 486.996C240.225 486.996 239.896 486.62 239.896 485.868C239.896 484.881 240.131 483.565 240.648 481.826L242.716 474.588C243.186 472.99 243.421 471.58 243.421 470.358C243.421 467.679 242.058 466.316 239.285 466.316C237.546 466.316 235.666 467.256 233.739 469.089C231.812 470.922 230.214 473.225 228.945 475.998C229.65 473.413 229.979 471.486 229.979 470.217C229.979 467.632 228.804 466.316 226.407 466.316C224.621 466.316 222.741 467.209 220.814 468.995C218.887 470.781 217.289 473.131 216.02 475.998C216.866 472.755 217.289 470.499 217.289 469.277C217.289 467.35 216.584 466.316 214.469 466.316C211.649 466.316 209.346 469.089 207.09 473.789L208.124 474.4C209.581 471.016 211.414 468.478 212.589 468.478C213.2 468.478 213.529 468.854 213.529 469.606C213.529 470.217 213.294 471.486 212.777 473.413L208.735 488.5H213.153L215.409 480.134C216.114 477.643 217.383 475.105 219.216 472.52C221.049 469.935 222.647 468.666 223.916 468.666C225.42 468.666 225.937 469.324 225.937 471.016C225.937 471.956 225.702 473.319 225.232 475.152L221.566 488.5H225.984L228.287 480.134C228.945 477.737 230.214 475.246 232.047 472.614C233.927 469.982 235.525 468.666 236.794 468.666C238.345 468.666 238.862 469.324 238.862 471.016C238.862 471.909 238.627 473.319 238.11 475.152L236.747 480.275C235.995 482.954 235.619 484.881 235.619 486.056C235.619 488.124 236.7 489.158 238.909 489.158C241.729 489.158 244.032 486.385 246.288 481.685L245.301 481.074ZM265.774 470.922C265.774 467.867 263.753 466.316 259.664 466.316C257.267 466.316 255.105 467.068 253.131 468.619C251.204 470.123 249.7 471.956 248.713 474.165C247.726 476.327 247.256 478.489 247.256 480.698C247.256 485.586 249.935 489.158 254.776 489.158C256.515 489.158 258.254 488.547 259.993 487.325C261.779 486.056 263.236 484.364 264.317 482.202L263.377 481.591C261.356 485.304 258.536 487.278 255.904 487.278C253.131 487.278 251.627 485.304 251.58 481.685C251.58 481.168 251.627 480.604 251.721 480.04C256.186 479.335 259.617 478.113 262.061 476.28C264.552 474.447 265.774 472.661 265.774 470.922ZM262.014 470.734C262.014 472.379 261.262 473.93 259.805 475.481C258.348 476.985 255.716 478.066 251.909 478.724C252.238 476.045 253.084 473.507 254.447 471.204C255.81 468.854 257.408 467.679 259.241 467.679C261.074 467.679 262.014 468.713 262.014 470.734ZM290.698 473.507C290.698 469.23 288.677 466.316 285.058 466.316C281.674 466.316 278.384 468.995 276.175 473.507C276.598 471.58 276.833 470.17 276.833 469.324C276.833 467.303 275.846 466.316 273.919 466.316C271.334 466.316 268.843 468.807 266.54 473.789L267.527 474.4C269.36 470.452 270.864 468.478 272.086 468.478C273.261 468.478 273.214 469.7 272.227 473.413L266.634 494.14C266.258 495.597 265.788 496.02 264.613 496.02H262.921L262.592 497.336H274.389L274.718 496.02H272.086C271.287 496.02 270.864 495.738 270.864 495.174C270.864 494.845 270.911 494.516 271.052 494.14L274.013 483.001C274.06 486.714 276.128 489.158 279.324 489.158C281.392 489.158 283.319 488.359 285.105 486.761C286.891 485.116 288.254 483.142 289.241 480.745C290.228 478.348 290.698 475.904 290.698 473.507ZM286.421 472.802C286.421 474.682 286.092 476.75 285.434 479.006C284.776 481.215 283.789 483.189 282.52 484.928C281.251 486.62 279.841 487.466 278.384 487.466C276.081 487.466 274.906 485.163 274.906 481.638C274.906 478.959 275.799 476.045 277.585 472.896C279.371 469.7 281.251 468.102 283.178 468.102C285.199 468.102 286.421 469.747 286.421 472.802ZM317.288 481.074C315.455 485.022 313.998 486.996 312.823 486.996C312.165 486.996 311.836 486.62 311.836 485.821C311.836 485.022 312.118 483.706 312.635 481.92L316.818 466.974H312.306L309.768 476.327H301.073L301.543 474.729C302.154 472.52 302.483 470.687 302.483 469.324C302.483 467.491 301.355 466.316 299.146 466.316C296.561 466.316 294.07 468.807 291.767 473.789L292.754 474.4C294.587 470.452 296.091 468.478 297.266 468.478C297.924 468.478 298.253 468.854 298.253 469.606C298.347 470.405 297.642 472.708 297.501 473.413L293.318 488.5H297.83L300.65 477.972H309.298L308.687 480.275C307.935 483.048 307.559 484.975 307.559 486.056C307.559 488.124 308.687 489.158 310.943 489.158C313.434 489.158 315.878 486.667 318.275 481.685L317.288 481.074ZM342.426 481.074C341.721 482.719 340.922 484.129 340.076 485.304C339.277 486.432 338.619 486.996 338.102 486.996C337.397 486.996 337.068 486.62 337.068 485.821C337.068 484.834 337.444 483.095 338.149 480.51L341.862 466.974H337.444L336.128 471.956C335.799 468.384 333.872 466.316 331.005 466.316C324.989 466.128 319.255 474.588 319.443 481.92C319.443 486.385 321.558 489.158 325.318 489.158C328.655 489.158 331.898 486.667 333.731 482.39C333.402 483.753 333.214 484.74 333.214 485.398C333.214 487.889 334.154 489.158 335.987 489.158C338.572 489.158 341.063 486.667 343.46 481.685L342.426 481.074ZM326.963 487.419C324.942 487.419 323.72 485.821 323.72 482.625C323.72 480.792 324.049 478.724 324.754 476.515C325.459 474.306 326.446 472.332 327.715 470.64C329.031 468.901 330.441 468.055 331.898 468.055C333.731 468.055 335.141 469.653 335.141 473.084C335.141 474.917 334.812 476.938 334.107 479.147C333.402 481.356 332.415 483.283 331.099 484.928C329.83 486.573 328.42 487.419 326.963 487.419ZM381.847 481.074C380.296 484.458 378.463 486.996 377.382 486.996C376.771 486.996 376.442 486.62 376.442 485.868C376.442 484.881 376.677 483.565 377.194 481.826L379.262 474.588C379.732 472.99 379.967 471.58 379.967 470.358C379.967 467.679 378.604 466.316 375.831 466.316C374.092 466.316 372.212 467.256 370.285 469.089C368.358 470.922 366.76 473.225 365.491 475.998C366.196 473.413 366.525 471.486 366.525 470.217C366.525 467.632 365.35 466.316 362.953 466.316C361.167 466.316 359.287 467.209 357.36 468.995C355.433 470.781 353.835 473.131 352.566 475.998C353.412 472.755 353.835 470.499 353.835 469.277C353.835 467.35 353.13 466.316 351.015 466.316C348.195 466.316 345.892 469.089 343.636 473.789L344.67 474.4C346.127 471.016 347.96 468.478 349.135 468.478C349.746 468.478 350.075 468.854 350.075 469.606C350.075 470.217 349.84 471.486 349.323 473.413L345.281 488.5H349.699L351.955 480.134C352.66 477.643 353.929 475.105 355.762 472.52C357.595 469.935 359.193 468.666 360.462 468.666C361.966 468.666 362.483 469.324 362.483 471.016C362.483 471.956 362.248 473.319 361.778 475.152L358.112 488.5H362.53L364.833 480.134C365.491 477.737 366.76 475.246 368.593 472.614C370.473 469.982 372.071 468.666 373.34 468.666C374.891 468.666 375.408 469.324 375.408 471.016C375.408 471.909 375.173 473.319 374.656 475.152L373.293 480.275C372.541 482.954 372.165 484.881 372.165 486.056C372.165 488.124 373.246 489.158 375.455 489.158C378.275 489.158 380.578 486.385 382.834 481.685L381.847 481.074ZM399.124 486.244C399.124 488.124 399.876 489.158 401.991 489.158C404.529 489.158 406.973 486.667 409.37 481.732L408.336 481.121C406.55 485.069 405.046 487.043 403.824 487.043C403.213 487.043 402.884 486.667 402.884 485.915C402.884 485.116 403.119 483.847 403.636 482.108L407.819 466.974H403.26L401.192 474.87C400.487 477.549 399.218 480.181 397.338 482.86C395.505 485.539 393.813 486.855 392.356 486.855C391.087 486.855 390.476 486.056 390.476 484.411C390.476 483.471 390.711 482.108 391.181 480.369L392.544 475.246C393.343 472.285 393.719 470.358 393.719 469.465C393.719 467.35 392.591 466.316 390.382 466.316C387.797 466.316 385.353 468.807 383.003 473.789L384.037 474.4C385.823 470.452 387.28 468.478 388.455 468.478C389.066 468.478 389.395 468.854 389.395 469.606C389.348 470.781 389.066 472.144 388.643 473.695L386.575 480.886C386.152 482.343 385.917 483.753 385.917 485.022C385.917 487.795 387.374 489.158 390.241 489.158C392.121 489.158 393.954 488.265 395.74 486.479C397.573 484.646 399.124 482.343 400.393 479.523C399.547 482.437 399.124 484.693 399.124 486.244ZM429.112 470.593C429.112 467.726 426.527 466.316 422.814 466.316C420.417 466.316 418.208 467.068 416.234 468.619C414.307 470.123 412.803 471.956 411.816 474.165C410.829 476.327 410.359 478.536 410.359 480.745C410.359 485.68 412.756 489.158 417.832 489.158C420.793 489.158 423.19 488.453 424.929 487.043C426.668 485.633 427.561 483.894 427.561 481.779C427.561 479.335 426.151 477.079 422.626 476.844C424.788 476.28 426.386 475.387 427.467 474.118C428.548 472.849 429.112 471.674 429.112 470.593ZM423.472 481.544C423.472 483.377 422.955 484.881 421.874 486.056C420.84 487.231 419.712 487.795 418.443 487.795C415.952 487.795 414.683 485.868 414.683 481.967C414.683 480.792 414.777 479.664 414.918 478.583C416.704 477.878 418.443 477.549 420.182 477.549C422.203 477.549 423.472 479.288 423.472 481.544ZM422.344 467.632C424.036 467.632 425.305 468.713 425.305 470.593C425.305 472.614 423.66 475.058 420.605 476.233C418.537 476.421 416.704 476.797 415.106 477.314C415.529 474.635 416.422 472.379 417.785 470.499C419.148 468.572 420.652 467.632 422.344 467.632ZM451.308 469.089C451.308 467.773 450.509 466.41 449.334 466.41C448.347 466.41 447.548 467.256 447.548 468.384C447.548 469.371 448.206 470.358 449.475 471.345C449.052 474.588 447.36 479.1 444.352 484.787C443.177 478.019 442.096 473.272 441.062 470.499C440.075 467.726 438.571 466.316 436.597 466.316C433.777 466.316 432.085 469.042 430.393 473.883L431.427 474.353C432.884 470.64 433.777 469.042 434.858 469.042C435.845 469.042 436.738 470.499 437.584 473.366C438.43 476.233 439.605 481.45 441.062 489.064C438.101 493.717 434.905 496.584 432.602 496.584C431.662 496.584 431.098 496.443 430.863 496.114C431.991 496.114 433.072 495.268 433.072 493.952C433.072 492.777 432.179 491.649 431.004 491.649C429.876 491.649 428.56 492.495 428.56 494.516C428.56 496.255 429.876 497.853 432.508 497.853C435.657 497.853 439.746 494.14 443.459 488.5C445.903 484.787 447.83 481.168 449.193 477.737C450.603 474.306 451.308 471.392 451.308 469.089ZM457.491 478.771C458.102 476.327 459.136 473.601 460.593 470.64C462.05 467.632 463.319 464.906 464.4 462.509C465.481 460.065 465.998 457.95 465.998 456.117C465.998 454.801 464.964 454.096 463.883 454.096C461.58 454.096 460.029 456.352 459.136 460.253C458.713 462.18 458.384 464.107 458.149 466.081C457.914 468.055 457.585 470.264 457.256 472.755C456.927 475.246 456.598 477.22 456.222 478.771H457.491ZM457.35 486.244C457.35 484.74 456.222 483.518 454.859 483.518C453.402 483.518 452.321 484.834 452.321 486.338C452.321 487.795 453.402 488.923 454.765 488.923C456.222 488.923 457.35 487.701 457.35 486.244Z" fill="black"/>
</svg>
