<svg width="600" height="601" viewBox="0 0 600 601" fill="none" xmlns="http://www.w3.org/2000/svg">
<g clip-path="url(#clip0_1529_8524)">
<rect width="600" height="600" transform="translate(0 0.792969)" fill="white"/>
<rect x="582" y="0.792969" width="18" height="600" fill="#8EA5EB" fill-opacity="0.2"/>
<rect y="0.792969" width="18" height="600" fill="#8EA5EB" fill-opacity="0.2"/>
<rect x="582" y="0.792969" width="18" height="564" transform="rotate(90 582 0.792969)" fill="#8EA5EB" fill-opacity="0.2"/>
<rect x="582" y="582.586" width="18" height="564" transform="rotate(90 582 582.586)" fill="#8EA5EB" fill-opacity="0.2"/>
<mask id="path-5-inside-1_1529_8524" fill="white">
<path fill-rule="evenodd" clip-rule="evenodd" d="M-74 20.793C-74 9.74728 -65.0457 0.792969 -54 0.792969H582C591.941 0.792969 600 8.85184 600 18.793V150.793C600 155.764 595.971 159.793 591 159.793C586.029 159.793 582 163.822 582 168.793V580.793C582 591.839 573.046 600.793 562 600.793H-54C-65.0457 600.793 -74 591.839 -74 580.793V20.793Z"/>
</mask>
<path d="M582 -0.207031H-54V1.79297H582V-0.207031ZM601 150.793V18.793H599V150.793H601ZM583 580.793V168.793H581V580.793H583ZM-54 601.793H562V599.793H-54V601.793ZM-75 20.793V580.793H-73V20.793H-75ZM-54 599.793C-64.4934 599.793 -73 591.286 -73 580.793H-75C-75 592.391 -65.598 601.793 -54 601.793V599.793ZM581 580.793C581 591.286 572.493 599.793 562 599.793V601.793C573.598 601.793 583 592.391 583 580.793H581ZM591 158.793C585.477 158.793 581 163.27 581 168.793H583C583 164.375 586.582 160.793 591 160.793V158.793ZM599 150.793C599 155.211 595.418 158.793 591 158.793V160.793C596.523 160.793 601 156.316 601 150.793H599ZM582 1.79297C591.389 1.79297 599 9.40412 599 18.793H601C601 8.29955 592.493 -0.207031 582 -0.207031V1.79297ZM-54 -0.207031C-65.598 -0.207031 -75 9.19499 -75 20.793H-73C-73 10.2996 -64.4934 1.79297 -54 1.79297V-0.207031Z" fill="black" mask="url(#path-5-inside-1_1529_8524)"/>
<path d="M141.486 277.793V244.235H148.536L156.996 259.98H158.03L166.349 244.235H173.446V277.793H169.31V249.029H168.276L159.675 264.962H155.257L146.656 249.029H145.622V277.793H141.486ZM201.332 264.539V265.902H183.284C183.346 268.753 184.02 270.978 185.305 272.576C186.589 274.143 188.438 274.926 190.851 274.926C194.109 274.926 196.115 273.704 196.867 271.26H200.909C200.501 273.391 199.42 275.114 197.666 276.43C195.942 277.746 193.671 278.404 190.851 278.404C187.247 278.404 184.427 277.229 182.391 274.879C180.354 272.529 179.336 269.474 179.336 265.714C179.336 262.017 180.354 259.056 182.391 256.831C184.427 254.606 187.216 253.494 190.757 253.494C194.109 253.494 196.694 254.559 198.512 256.69C200.329 258.789 201.269 261.406 201.332 264.539ZM190.663 256.972C188.626 256.972 186.997 257.505 185.775 258.57C184.553 259.604 183.801 260.936 183.519 262.565H197.196C197.07 260.967 196.428 259.635 195.269 258.57C194.109 257.505 192.574 256.972 190.663 256.972ZM227.856 274.315H232.227V284.514H228.326V277.793H207.834V284.514H203.933V274.315H207.082C209.024 270.179 209.996 265.604 209.996 260.591V254.105H227.856V274.315ZM223.861 274.315V257.583H213.709V260.591C213.709 265.949 212.847 270.524 211.124 274.315H223.861ZM242.254 277.793H236.614V254.105H240.515V272.435H241.549L251.936 254.105H257.764V277.793H253.863V259.463H252.829L242.254 277.793ZM279.772 277.793V275.302H278.738C277.108 277.37 274.649 278.404 271.359 278.404C268.758 278.404 266.69 277.652 265.155 276.148C263.619 274.644 262.852 272.827 262.852 270.696C262.852 268.534 263.604 266.685 265.108 265.15C266.612 263.615 268.883 262.847 271.923 262.847H279.631V261.907C279.631 260.403 279.161 259.212 278.221 258.335C277.281 257.426 275.824 256.972 273.85 256.972C270.403 256.972 268.57 258.116 268.351 260.403H264.356C264.512 258.241 265.437 256.549 267.129 255.327C268.852 254.105 271.061 253.494 273.756 253.494C276.795 253.494 279.176 254.199 280.9 255.609C282.654 257.019 283.532 259.04 283.532 261.672V277.793H279.772ZM272.346 274.926C274.32 274.926 276.027 274.284 277.469 272.999C278.91 271.683 279.631 270.085 279.631 268.205V266.043H272.534C268.742 266.043 266.847 267.547 266.847 270.555C266.847 271.902 267.317 272.968 268.257 273.751C269.228 274.534 270.591 274.926 272.346 274.926ZM301.328 266.513H288.497V262.988H301.328V266.513ZM323.406 270.649H327.401C326.931 273.03 325.818 274.926 324.064 276.336C322.34 277.715 320.131 278.404 317.437 278.404C313.865 278.404 311.045 277.245 308.977 274.926C306.94 272.576 305.922 269.584 305.922 265.949C305.922 262.283 306.94 259.291 308.977 256.972C311.013 254.653 313.833 253.494 317.437 253.494C320.163 253.494 322.372 254.183 324.064 255.562C325.787 256.909 326.852 258.711 327.26 260.967H323.265C322.419 258.304 320.476 256.972 317.437 256.972C314.899 256.972 313.003 257.818 311.75 259.51C310.528 261.171 309.917 263.286 309.917 265.855C309.917 268.456 310.543 270.618 311.797 272.341C313.05 274.064 314.93 274.926 317.437 274.926C320.758 274.926 322.748 273.5 323.406 270.649ZM353.097 264.539V265.902H335.049C335.112 268.753 335.786 270.978 337.07 272.576C338.355 274.143 340.204 274.926 342.616 274.926C345.875 274.926 347.88 273.704 348.632 271.26H352.674C352.267 273.391 351.186 275.114 349.431 276.43C347.708 277.746 345.436 278.404 342.616 278.404C339.013 278.404 336.193 277.229 334.156 274.879C332.12 272.529 331.101 269.474 331.101 265.714C331.101 262.017 332.12 259.056 334.156 256.831C336.193 254.606 338.982 253.494 342.522 253.494C345.875 253.494 348.46 254.559 350.277 256.69C352.095 258.789 353.035 261.406 353.097 264.539ZM342.428 256.972C340.392 256.972 338.762 257.505 337.54 258.57C336.318 259.604 335.566 260.936 335.284 262.565H348.961C348.836 260.967 348.194 259.635 347.034 258.57C345.875 257.505 344.34 256.972 342.428 256.972ZM369.892 256.972C367.417 256.972 365.552 257.834 364.299 259.557C363.077 261.28 362.466 263.411 362.466 265.949C362.466 268.487 363.077 270.618 364.299 272.341C365.552 274.064 367.417 274.926 369.892 274.926C372.211 274.926 373.997 274.111 375.25 272.482C376.535 270.821 377.177 268.644 377.177 265.949C377.177 263.254 376.535 261.092 375.25 259.463C373.997 257.802 372.211 256.972 369.892 256.972ZM358.518 254.105H362.372V256.643H363.406C365.098 254.544 367.558 253.494 370.785 253.494C373.981 253.494 376.503 254.669 378.352 257.019C380.232 259.369 381.172 262.346 381.172 265.949C381.172 269.615 380.232 272.607 378.352 274.926C376.503 277.245 373.981 278.404 370.785 278.404C367.526 278.404 365.114 277.354 363.547 275.255H362.513V287.193H358.518V254.105ZM403.32 264.727V265.761C404.479 266.043 405.404 266.67 406.093 267.641C406.814 268.612 407.174 269.834 407.174 271.307C407.174 275.631 404.385 277.793 398.808 277.793H386.635V254.105H398.385C400.766 254.105 402.599 254.638 403.884 255.703C405.2 256.737 405.858 258.194 405.858 260.074C405.858 261.171 405.607 262.126 405.106 262.941C404.636 263.756 404.041 264.351 403.32 264.727ZM390.583 274.409H398.573C401.644 274.409 403.179 273.234 403.179 270.884C403.179 268.503 401.644 267.312 398.573 267.312H390.583V274.409ZM390.583 257.489V263.928H398.009C399.356 263.928 400.328 263.63 400.923 263.035C401.55 262.44 401.863 261.672 401.863 260.732C401.863 258.57 400.578 257.489 398.009 257.489H390.583ZM418.235 277.793H412.595V254.105H416.496V272.435H417.53L427.917 254.105H433.745V277.793H429.844V259.463H428.81L418.235 277.793ZM456.693 270.649H460.688C460.218 273.03 459.106 274.926 457.351 276.336C455.628 277.715 453.419 278.404 450.724 278.404C447.152 278.404 444.332 277.245 442.264 274.926C440.227 272.576 439.209 269.584 439.209 265.949C439.209 262.283 440.227 259.291 442.264 256.972C444.301 254.653 447.121 253.494 450.724 253.494C453.45 253.494 455.659 254.183 457.351 255.562C459.074 256.909 460.14 258.711 460.547 260.967H456.552C455.706 258.304 453.763 256.972 450.724 256.972C448.186 256.972 446.29 257.818 445.037 259.51C443.815 261.171 443.204 263.286 443.204 265.855C443.204 268.456 443.831 270.618 445.084 272.341C446.337 274.064 448.217 274.926 450.724 274.926C454.045 274.926 456.035 273.5 456.693 270.649ZM171.652 306.886C171.652 304.019 169.067 302.609 165.354 302.609C162.957 302.609 160.748 303.361 158.774 304.912C156.847 306.416 155.343 308.249 154.356 310.458C153.369 312.62 152.899 314.829 152.899 317.038C152.899 321.973 155.296 325.451 160.372 325.451C163.333 325.451 165.73 324.746 167.469 323.336C169.208 321.926 170.101 320.187 170.101 318.072C170.101 315.628 168.691 313.372 165.166 313.137C167.328 312.573 168.926 311.68 170.007 310.411C171.088 309.142 171.652 307.967 171.652 306.886ZM166.012 317.837C166.012 319.67 165.495 321.174 164.414 322.349C163.38 323.524 162.252 324.088 160.983 324.088C158.492 324.088 157.223 322.161 157.223 318.26C157.223 317.085 157.317 315.957 157.458 314.876C159.244 314.171 160.983 313.842 162.722 313.842C164.743 313.842 166.012 315.581 166.012 317.837ZM164.884 303.925C166.576 303.925 167.845 305.006 167.845 306.886C167.845 308.907 166.2 311.351 163.145 312.526C161.077 312.714 159.244 313.09 157.646 313.607C158.069 310.928 158.962 308.672 160.325 306.792C161.688 304.865 163.192 303.925 164.884 303.925ZM188.903 322.537C188.903 324.417 189.655 325.451 191.77 325.451C194.308 325.451 196.752 322.96 199.149 318.025L198.115 317.414C196.329 321.362 194.825 323.336 193.603 323.336C192.992 323.336 192.663 322.96 192.663 322.208C192.663 321.409 192.898 320.14 193.415 318.401L197.598 303.267H193.039L190.971 311.163C190.266 313.842 188.997 316.474 187.117 319.153C185.284 321.832 183.592 323.148 182.135 323.148C180.866 323.148 180.255 322.349 180.255 320.704C180.255 319.764 180.49 318.401 180.96 316.662L182.323 311.539C183.122 308.578 183.498 306.651 183.498 305.758C183.498 303.643 182.37 302.609 180.161 302.609C177.576 302.609 175.132 305.1 172.782 310.082L173.816 310.693C175.602 306.745 177.059 304.771 178.234 304.771C178.845 304.771 179.174 305.147 179.174 305.899C179.127 307.074 178.845 308.437 178.422 309.988L176.354 317.179C175.931 318.636 175.696 320.046 175.696 321.315C175.696 324.088 177.153 325.451 180.02 325.451C181.9 325.451 183.733 324.558 185.519 322.772C187.352 320.939 188.903 318.636 190.172 315.816C189.326 318.73 188.903 320.986 188.903 322.537ZM237.314 317.367C235.763 320.751 233.93 323.289 232.849 323.289C232.238 323.289 231.909 322.913 231.909 322.161C231.909 321.174 232.144 319.858 232.661 318.119L234.729 310.881C235.199 309.283 235.434 307.873 235.434 306.651C235.434 303.972 234.071 302.609 231.298 302.609C229.559 302.609 227.679 303.549 225.752 305.382C223.825 307.215 222.227 309.518 220.958 312.291C221.663 309.706 221.992 307.779 221.992 306.51C221.992 303.925 220.817 302.609 218.42 302.609C216.634 302.609 214.754 303.502 212.827 305.288C210.9 307.074 209.302 309.424 208.033 312.291C208.879 309.048 209.302 306.792 209.302 305.57C209.302 303.643 208.597 302.609 206.482 302.609C203.662 302.609 201.359 305.382 199.103 310.082L200.137 310.693C201.594 307.309 203.427 304.771 204.602 304.771C205.213 304.771 205.542 305.147 205.542 305.899C205.542 306.51 205.307 307.779 204.79 309.706L200.748 324.793H205.166L207.422 316.427C208.127 313.936 209.396 311.398 211.229 308.813C213.062 306.228 214.66 304.959 215.929 304.959C217.433 304.959 217.95 305.617 217.95 307.309C217.95 308.249 217.715 309.612 217.245 311.445L213.579 324.793H217.997L220.3 316.427C220.958 314.03 222.227 311.539 224.06 308.907C225.94 306.275 227.538 304.959 228.807 304.959C230.358 304.959 230.875 305.617 230.875 307.309C230.875 308.202 230.64 309.612 230.123 311.445L228.76 316.568C228.008 319.247 227.632 321.174 227.632 322.349C227.632 324.417 228.713 325.451 230.922 325.451C233.742 325.451 236.045 322.678 238.301 317.978L237.314 317.367ZM262.206 317.367C261.501 319.012 260.702 320.422 259.856 321.597C259.057 322.725 258.399 323.289 257.882 323.289C257.177 323.289 256.848 322.913 256.848 322.114C256.848 321.127 257.224 319.388 257.929 316.803L261.642 303.267H257.224L255.908 308.249C255.579 304.677 253.652 302.609 250.785 302.609C244.769 302.421 239.035 310.881 239.223 318.213C239.223 322.678 241.338 325.451 245.098 325.451C248.435 325.451 251.678 322.96 253.511 318.683C253.182 320.046 252.994 321.033 252.994 321.691C252.994 324.182 253.934 325.451 255.767 325.451C258.352 325.451 260.843 322.96 263.24 317.978L262.206 317.367ZM246.743 323.712C244.722 323.712 243.5 322.114 243.5 318.918C243.5 317.085 243.829 315.017 244.534 312.808C245.239 310.599 246.226 308.625 247.495 306.933C248.811 305.194 250.221 304.348 251.678 304.348C253.511 304.348 254.921 305.946 254.921 309.377C254.921 311.21 254.592 313.231 253.887 315.44C253.182 317.649 252.195 319.576 250.879 321.221C249.61 322.866 248.2 323.712 246.743 323.712ZM264.93 324.37C264.178 324.37 263.802 324.135 263.802 323.618C265.071 323.618 265.729 322.725 265.729 321.597C265.729 320.516 264.977 319.67 264.084 319.67C262.815 319.67 261.875 320.939 261.875 322.396C261.875 324.088 263.238 325.404 264.883 325.404C266.434 325.404 267.656 324.37 268.69 322.913C269.395 321.973 270.147 320.046 270.57 318.777C270.805 318.119 271.134 317.226 271.463 316.098L272.309 313.231C272.544 312.432 272.826 311.351 273.155 309.988L274.095 306.651C274.941 309.236 275.458 315.393 275.599 325.122H276.821L288.618 305.758L285.469 317.461C284.858 319.67 284.529 321.315 284.529 322.396C284.529 324.229 285.61 325.451 287.819 325.451C290.498 325.451 293.036 322.96 295.386 318.025L294.399 317.414C292.848 320.845 291.109 323.336 289.934 323.336C289.276 323.336 288.947 322.913 288.947 322.114C288.947 321.503 289.182 320.234 289.699 318.307L293.788 303.267H288.618L279.547 318.683C279.265 307.967 277.479 302.609 274.142 302.609C271.369 302.609 268.737 305.147 266.293 310.176L267.374 310.646C268.925 306.933 270.805 304.912 272.262 304.912C272.544 304.912 272.826 305.006 273.061 305.194C271.087 312.855 269.583 317.931 268.596 320.516C267.609 323.101 266.387 324.37 264.93 324.37ZM311.928 322.537C311.928 324.417 312.68 325.451 314.795 325.451C317.333 325.451 319.777 322.96 322.174 318.025L321.14 317.414C319.354 321.362 317.85 323.336 316.628 323.336C316.017 323.336 315.688 322.96 315.688 322.208C315.688 321.409 315.923 320.14 316.44 318.401L320.623 303.267H316.064L313.996 311.163C313.291 313.842 312.022 316.474 310.142 319.153C308.309 321.832 306.617 323.148 305.16 323.148C303.891 323.148 303.28 322.349 303.28 320.704C303.28 319.764 303.515 318.401 303.985 316.662L305.348 311.539C306.147 308.578 306.523 306.651 306.523 305.758C306.523 303.643 305.395 302.609 303.186 302.609C300.601 302.609 298.157 305.1 295.807 310.082L296.841 310.693C298.627 306.745 300.084 304.771 301.259 304.771C301.87 304.771 302.199 305.147 302.199 305.899C302.152 307.074 301.87 308.437 301.447 309.988L299.379 317.179C298.956 318.636 298.721 320.046 298.721 321.315C298.721 324.088 300.178 325.451 303.045 325.451C304.925 325.451 306.758 324.558 308.544 322.772C310.377 320.939 311.928 318.636 313.197 315.816C312.351 318.73 311.928 320.986 311.928 322.537ZM347.884 317.367C346.051 321.315 344.594 323.289 343.419 323.289C342.761 323.289 342.432 322.913 342.432 322.114C342.432 321.315 342.714 319.999 343.231 318.213L347.414 303.267H342.902L340.364 312.62H331.669L332.139 311.022C332.75 308.813 333.079 306.98 333.079 305.617C333.079 303.784 331.951 302.609 329.742 302.609C327.157 302.609 324.666 305.1 322.363 310.082L323.35 310.693C325.183 306.745 326.687 304.771 327.862 304.771C328.52 304.771 328.849 305.147 328.849 305.899C328.943 306.698 328.238 309.001 328.097 309.706L323.914 324.793H328.426L331.246 314.265H339.894L339.283 316.568C338.531 319.341 338.155 321.268 338.155 322.349C338.155 324.417 339.283 325.451 341.539 325.451C344.03 325.451 346.474 322.96 348.871 317.978L347.884 317.367ZM374.808 317.367C372.975 321.315 371.518 323.289 370.343 323.289C369.685 323.289 369.356 322.913 369.356 322.114C369.356 321.315 369.638 319.999 370.155 318.213L374.338 303.267H369.826L367.288 312.62H358.593L359.063 311.022C359.674 308.813 360.003 306.98 360.003 305.617C360.003 303.784 358.875 302.609 356.666 302.609C354.081 302.609 351.59 305.1 349.287 310.082L350.274 310.693C352.107 306.745 353.611 304.771 354.786 304.771C355.444 304.771 355.773 305.147 355.773 305.899C355.867 306.698 355.162 309.001 355.021 309.706L350.838 324.793H355.35L358.17 314.265H366.818L366.207 316.568C365.455 319.341 365.079 321.268 365.079 322.349C365.079 324.417 366.207 325.451 368.463 325.451C370.954 325.451 373.398 322.96 375.795 317.978L374.808 317.367ZM384.999 324.135C382.367 324.135 381.286 321.785 381.286 316.756C381.145 311.257 384.67 303.878 388.947 303.972C391.438 303.972 392.66 306.228 392.66 310.787C392.66 314.359 391.626 318.636 389.182 321.785C387.96 323.336 386.55 324.135 384.999 324.135ZM396.984 311.398C396.984 306.275 394.117 302.609 389.229 302.609C385.704 302.609 382.79 303.972 380.487 306.745C378.184 309.471 377.009 312.808 377.009 316.803C377.009 321.926 379.876 325.451 384.811 325.451C388.242 325.451 391.109 324.041 393.459 321.174C395.809 318.307 396.984 315.017 396.984 311.398ZM415.283 307.873C415.283 304.677 412.886 302.609 408.703 302.609C404.943 302.609 401.23 304.395 399.209 308.672L400.008 309.283C401.935 306.04 404.473 304.395 407.669 304.395C409.69 304.395 411.335 305.523 411.335 307.45C411.335 311.492 406.635 312.197 402.922 313.56C400.431 314.5 398.363 316.615 398.363 320.14C398.363 323.289 400.901 325.451 405.366 325.451C408.515 325.451 412.134 323.336 414.061 319.435L413.215 318.965C411.523 321.832 408.609 323.759 406.165 323.759C403.862 323.759 402.264 322.725 402.264 320.704C402.264 316.85 406.964 316.098 410.677 314.641C413.262 313.654 415.283 311.398 415.283 307.873ZM424.618 324.135C421.986 324.135 420.905 321.785 420.905 316.756C420.764 311.257 424.289 303.878 428.566 303.972C431.057 303.972 432.279 306.228 432.279 310.787C432.279 314.359 431.245 318.636 428.801 321.785C427.579 323.336 426.169 324.135 424.618 324.135ZM436.603 311.398C436.603 306.275 433.736 302.609 428.848 302.609C425.323 302.609 422.409 303.972 420.106 306.745C417.803 309.471 416.628 312.808 416.628 316.803C416.628 321.926 419.495 325.451 424.43 325.451C427.861 325.451 430.728 324.041 433.078 321.174C435.428 318.307 436.603 315.017 436.603 311.398ZM238.981 337.859C238.558 338.752 237.947 339.41 237.148 339.786C236.631 340.021 234.469 340.538 230.662 341.337C226.338 342.277 223.33 344.439 221.309 348.152C220.322 349.985 219.57 351.912 219.006 353.886C218.442 355.813 217.925 358.21 217.455 361.077C217.314 361.876 217.22 362.91 217.22 364.085C217.22 368.973 219.57 372.263 223.894 372.263C227.513 372.263 230.662 370.9 233.294 368.221C235.973 365.542 237.289 362.346 237.289 358.68C237.289 356.283 236.631 354.262 235.315 352.664C233.999 351.019 232.213 350.22 230.004 350.22C225.492 350.22 221.638 353.228 219.429 358.257C219.758 356.753 220.04 355.578 220.275 354.685C220.51 353.792 220.886 352.758 221.356 351.677C221.873 350.596 222.437 349.703 223.048 349.045C224.364 347.729 226.432 346.413 229.205 345.802C232.166 345.097 234.281 344.533 235.456 344.016C236.678 343.499 237.571 342.841 238.135 342.042C238.746 341.243 239.357 339.833 239.968 337.859H238.981ZM232.918 357.928C232.918 360.607 232.213 363.803 230.944 366.482C229.675 369.161 227.513 371.135 225.21 371.135C222.719 371.135 221.403 368.832 221.403 364.931C221.403 361.782 222.108 358.774 223.518 355.907C224.975 353.04 226.808 351.63 229.017 351.63C231.508 351.63 232.918 354.215 232.918 357.928ZM262.311 364.367C261.606 366.012 260.807 367.422 259.961 368.597C259.162 369.725 258.504 370.289 257.987 370.289C257.282 370.289 256.953 369.913 256.953 369.114C256.953 368.127 257.329 366.388 258.034 363.803L261.747 350.267H257.329L256.013 355.249C255.684 351.677 253.757 349.609 250.89 349.609C244.874 349.421 239.14 357.881 239.328 365.213C239.328 369.678 241.443 372.451 245.203 372.451C248.54 372.451 251.783 369.96 253.616 365.683C253.287 367.046 253.099 368.033 253.099 368.691C253.099 371.182 254.039 372.451 255.872 372.451C258.457 372.451 260.948 369.96 263.345 364.978L262.311 364.367ZM246.848 370.712C244.827 370.712 243.605 369.114 243.605 365.918C243.605 364.085 243.934 362.017 244.639 359.808C245.344 357.599 246.331 355.625 247.6 353.933C248.916 352.194 250.326 351.348 251.783 351.348C253.616 351.348 255.026 352.946 255.026 356.377C255.026 358.21 254.697 360.231 253.992 362.44C253.287 364.649 252.3 366.576 250.984 368.221C249.715 369.866 248.305 370.712 246.848 370.712ZM264.989 372.31C266.305 372.31 267.386 371.746 268.326 370.289C269.266 368.832 269.924 367.61 270.723 365.025C271.146 363.756 271.475 362.628 271.71 361.641L272.791 357.646L273.966 353.51C274.342 352.147 274.859 351.583 276.034 351.583H277.867C279.371 351.583 280.123 352.429 280.123 354.121C280.123 354.685 279.982 355.437 279.747 356.33L277.209 365.401C276.786 366.858 276.551 368.315 276.551 369.678C276.551 371.323 277.82 372.451 279.935 372.451C282.614 372.451 285.105 369.96 287.502 365.025L286.468 364.414C284.635 368.362 283.178 370.336 282.003 370.336C281.392 370.336 281.063 369.913 281.063 369.067C281.063 368.268 281.345 366.952 281.862 365.072L284.165 356.847C284.447 355.86 284.588 354.873 284.588 353.933C284.588 351.489 283.178 350.267 280.405 350.267H270.112L269.736 351.583H271.616C272.415 351.583 272.838 351.865 272.838 352.476C272.838 352.523 272.791 352.899 272.65 353.51C270.864 360.513 269.454 365.213 268.42 367.657C267.433 370.054 266.258 371.276 264.895 371.276C264.237 371.276 263.908 371.041 263.908 370.524C265.177 370.524 265.835 369.631 265.835 368.503C265.835 367.422 265.083 366.576 264.19 366.576C262.921 366.576 261.981 367.845 261.981 369.302C261.981 370.994 263.344 372.31 264.989 372.31ZM311.661 364.367C310.956 366.012 310.157 367.422 309.311 368.597C308.512 369.725 307.854 370.289 307.337 370.289C306.632 370.289 306.303 369.913 306.303 369.114C306.303 368.127 306.679 366.388 307.384 363.803L311.097 350.267H306.679L305.363 355.249C305.034 351.677 303.107 349.609 300.24 349.609C294.224 349.421 288.49 357.881 288.678 365.213C288.678 369.678 290.793 372.451 294.553 372.451C297.89 372.451 301.133 369.96 302.966 365.683C302.637 367.046 302.449 368.033 302.449 368.691C302.449 371.182 303.389 372.451 305.222 372.451C307.807 372.451 310.298 369.96 312.695 364.978L311.661 364.367ZM296.198 370.712C294.177 370.712 292.955 369.114 292.955 365.918C292.955 364.085 293.284 362.017 293.989 359.808C294.694 357.599 295.681 355.625 296.95 353.933C298.266 352.194 299.676 351.348 301.133 351.348C302.966 351.348 304.376 352.946 304.376 356.377C304.376 358.21 304.047 360.231 303.342 362.44C302.637 364.649 301.65 366.576 300.334 368.221C299.065 369.866 297.655 370.712 296.198 370.712ZM338.626 364.367C336.793 368.315 335.336 370.289 334.161 370.289C333.503 370.289 333.174 369.913 333.174 369.114C333.174 368.315 333.456 366.999 333.973 365.213L338.156 350.267H333.644L331.106 359.62H322.411L322.881 358.022C323.492 355.813 323.821 353.98 323.821 352.617C323.821 350.784 322.693 349.609 320.484 349.609C317.899 349.609 315.408 352.1 313.105 357.082L314.092 357.693C315.925 353.745 317.429 351.771 318.604 351.771C319.262 351.771 319.591 352.147 319.591 352.899C319.685 353.698 318.98 356.001 318.839 356.706L314.656 371.793H319.168L321.988 361.265H330.636L330.025 363.568C329.273 366.341 328.897 368.268 328.897 369.349C328.897 371.417 330.025 372.451 332.281 372.451C334.772 372.451 337.216 369.96 339.613 364.978L338.626 364.367ZM359.017 354.262C359.017 351.254 356.432 349.609 353.001 349.609C349.57 349.609 346.703 351.019 344.353 353.886C342.003 356.753 340.828 360.043 340.828 363.803C340.828 366.388 341.58 368.456 343.084 370.054C344.635 371.652 346.609 372.451 349.006 372.451C352.531 372.451 355.633 369.913 357.748 365.401L356.761 364.931C354.928 368.738 352.672 370.618 349.993 370.618C347.22 370.618 345.34 367.939 345.34 363.85C345.34 359.949 346.139 356.847 347.737 354.45C349.335 352.053 351.168 350.831 353.283 350.831C355.868 350.831 357.607 352.241 357.607 354.074C357.184 353.651 356.62 353.416 355.962 353.416C354.787 353.416 353.8 354.779 353.8 356.095C353.8 357.223 354.411 358.351 355.962 358.351C357.842 358.351 359.017 356.142 359.017 354.262ZM382.793 364.367C382.088 366.012 381.289 367.422 380.443 368.597C379.644 369.725 378.986 370.289 378.469 370.289C377.764 370.289 377.435 369.913 377.435 369.114C377.435 368.127 377.811 366.388 378.516 363.803L382.229 350.267H377.811L376.495 355.249C376.166 351.677 374.239 349.609 371.372 349.609C365.356 349.421 359.622 357.881 359.81 365.213C359.81 369.678 361.925 372.451 365.685 372.451C369.022 372.451 372.265 369.96 374.098 365.683C373.769 367.046 373.581 368.033 373.581 368.691C373.581 371.182 374.521 372.451 376.354 372.451C378.939 372.451 381.43 369.96 383.827 364.978L382.793 364.367ZM367.33 370.712C365.309 370.712 364.087 369.114 364.087 365.918C364.087 364.085 364.416 362.017 365.121 359.808C365.826 357.599 366.813 355.625 368.082 353.933C369.398 352.194 370.808 351.348 372.265 351.348C374.098 351.348 375.508 352.946 375.508 356.377C375.508 358.21 375.179 360.231 374.474 362.44C373.769 364.649 372.782 366.576 371.466 368.221C370.197 369.866 368.787 370.712 367.33 370.712Z" fill="black"/>
<path fill-rule="evenodd" clip-rule="evenodd" d="M48.4237 538.513C46.5077 537.11 44.1944 536.354 41.8195 536.354H28.4159L18.9445 581.818H29.9491L31.0994 576.293L31.6089 576.926C33.3082 579.04 35.6215 580.574 38.2296 581.317C40.8378 582.06 43.6122 581.975 46.1701 581.074C48.728 580.173 50.9434 578.501 52.5105 576.288C54.0775 574.074 54.9192 571.429 54.9192 568.717C54.9199 566.4 54.3054 564.123 53.1385 562.12C51.9717 560.118 50.2942 558.461 48.2775 557.319L47.7492 557.019L48.246 556.67C50.1891 555.305 51.6466 553.356 52.407 551.106C53.1675 548.856 53.1913 546.422 52.4751 544.158C51.7588 541.894 50.3397 539.916 48.4237 538.513ZM55.6872 568.717C55.6871 571.588 54.7962 574.388 53.1372 576.731C51.4783 579.074 49.1331 580.845 46.4252 581.798C43.7173 582.752 40.7803 582.842 38.0192 582.055C35.5135 581.342 33.2649 579.938 31.5258 578.012L30.5737 582.586H18L27.7914 535.586L41.8193 535.586C41.8194 535.586 41.8193 535.586 41.8193 535.586C44.3575 535.586 46.8298 536.394 48.8775 537.894C50.9252 539.393 52.4418 541.506 53.2073 543.926C53.9728 546.346 53.9473 548.947 53.1346 551.352C52.3846 553.571 51.0003 555.516 49.1592 556.95C51.0704 558.141 52.6652 559.783 53.8021 561.734C55.0374 563.854 55.6879 566.264 55.6872 568.717Z" fill="black"/>
<path fill-rule="evenodd" clip-rule="evenodd" d="M30.6453 547.528C30.6435 549.321 31.0741 551.088 31.9004 552.68C32.7268 554.271 33.9247 555.64 35.3925 556.67L35.8899 557.019L35.3612 557.318C33.3442 558.46 31.6666 560.117 30.4996 562.12C29.3325 564.123 28.718 566.399 28.7187 568.717L27.9507 568.717C27.95 566.263 28.6006 563.853 29.836 561.733C30.973 559.782 32.5679 558.141 34.4791 556.95C33.1248 555.896 32.0118 554.561 31.2189 553.034C30.3356 551.333 29.8754 549.444 29.8773 547.527L30.6453 547.528Z" fill="black"/>
</g>
<defs>
<clipPath id="clip0_1529_8524">
<rect width="600" height="600" fill="white" transform="translate(0 0.792969)"/>
</clipPath>
</defs>
</svg>
