<svg width="600" height="601" viewBox="0 0 600 601" fill="none" xmlns="http://www.w3.org/2000/svg">
<g clip-path="url(#clip0_1543_3085)">
<rect width="600" height="600" transform="translate(0 0.792969)" fill="white"/>
<rect x="582" y="0.792969" width="18" height="600" fill="#8EA5EB" fill-opacity="0.2"/>
<rect y="0.792969" width="18" height="600" fill="#8EA5EB" fill-opacity="0.2"/>
<rect x="582" y="0.792969" width="18" height="564" transform="rotate(90 582 0.792969)" fill="#8EA5EB" fill-opacity="0.2"/>
<rect x="582" y="582.586" width="18" height="564" transform="rotate(90 582 582.586)" fill="#8EA5EB" fill-opacity="0.2"/>
<mask id="path-5-inside-1_1543_3085" fill="white">
<path fill-rule="evenodd" clip-rule="evenodd" d="M-74 20.793C-74 9.74728 -65.0457 0.792969 -54 0.792969H582C591.941 0.792969 600 8.85184 600 18.793V150.793C600 155.764 595.971 159.793 591 159.793C586.029 159.793 582 163.822 582 168.793V580.793C582 591.839 573.046 600.793 562 600.793H-54C-65.0457 600.793 -74 591.839 -74 580.793V20.793Z"/>
</mask>
<path d="M582 -0.207031H-54V1.79297H582V-0.207031ZM601 150.793V18.793H599V150.793H601ZM583 580.793V168.793H581V580.793H583ZM-54 601.793H562V599.793H-54V601.793ZM-75 20.793V580.793H-73V20.793H-75ZM-54 599.793C-64.4934 599.793 -73 591.286 -73 580.793H-75C-75 592.391 -65.598 601.793 -54 601.793V599.793ZM581 580.793C581 591.286 572.493 599.793 562 599.793V601.793C573.598 601.793 583 592.391 583 580.793H581ZM591 158.793C585.477 158.793 581 163.27 581 168.793H583C583 164.375 586.582 160.793 591 160.793V158.793ZM599 150.793C599 155.211 595.418 158.793 591 158.793V160.793C596.523 160.793 601 156.316 601 150.793H599ZM582 1.79297C591.389 1.79297 599 9.40412 599 18.793H601C601 8.29955 592.493 -0.207031 582 -0.207031V1.79297ZM-54 -0.207031C-65.598 -0.207031 -75 9.19499 -75 20.793H-73C-73 10.2996 -64.4934 1.79297 -54 1.79297V-0.207031Z" fill="black" mask="url(#path-5-inside-1_1543_3085)"/>
<mask id="path-7-inside-2_1543_3085" fill="white">
<path fill-rule="evenodd" clip-rule="evenodd" d="M-370 20.793C-370 9.74728 -361.046 0.792969 -350 0.792969H286H294C305.045 0.792969 314 9.74728 314 20.793V145.793C314 153.525 307.732 159.793 300 159.793C292.268 159.793 286 166.061 286 173.793V580.793C286 591.839 277.046 600.793 266 600.793H-350C-361.046 600.793 -370 591.839 -370 580.793V20.793Z"/>
</mask>
<path d="M286 -0.207031H-350V1.79297H286V-0.207031ZM294 -0.207031H286V1.79297H294V-0.207031ZM315 145.793V20.793H313V145.793H315ZM287 580.793V173.793H285V580.793H287ZM-350 601.793H266V599.793H-350V601.793ZM-371 20.793V580.793H-369V20.793H-371ZM-350 599.793C-360.493 599.793 -369 591.286 -369 580.793H-371C-371 592.391 -361.598 601.793 -350 601.793V599.793ZM285 580.793C285 591.286 276.493 599.793 266 599.793V601.793C277.598 601.793 287 592.391 287 580.793H285ZM300 158.793C291.716 158.793 285 165.509 285 173.793H287C287 166.613 292.82 160.793 300 160.793V158.793ZM313 145.793C313 152.973 307.179 158.793 300 158.793V160.793C308.284 160.793 315 154.077 315 145.793H313ZM294 1.79297C304.493 1.79297 313 10.2996 313 20.793H315C315 9.19499 305.598 -0.207031 294 -0.207031V1.79297ZM-350 -0.207031C-361.598 -0.207031 -371 9.19499 -371 20.793H-369C-369 10.2996 -360.493 1.79297 -350 1.79297V-0.207031Z" fill="black" mask="url(#path-7-inside-2_1543_3085)"/>
<path fill-rule="evenodd" clip-rule="evenodd" d="M48.4237 538.513C46.5077 537.11 44.1944 536.354 41.8195 536.354H28.4159L18.9445 581.818H29.9491L31.0994 576.293L31.6089 576.926C33.3082 579.04 35.6215 580.574 38.2296 581.317C40.8378 582.06 43.6122 581.975 46.1701 581.074C48.728 580.173 50.9434 578.501 52.5105 576.288C54.0775 574.074 54.9192 571.429 54.9192 568.717C54.9199 566.4 54.3054 564.123 53.1385 562.12C51.9717 560.118 50.2942 558.461 48.2775 557.319L47.7492 557.019L48.246 556.67C50.1891 555.305 51.6466 553.356 52.407 551.106C53.1675 548.856 53.1913 546.422 52.4751 544.158C51.7588 541.894 50.3397 539.916 48.4237 538.513ZM55.6872 568.717C55.6871 571.588 54.7962 574.388 53.1372 576.731C51.4783 579.074 49.1331 580.845 46.4252 581.798C43.7173 582.752 40.7803 582.842 38.0192 582.055C35.5135 581.342 33.2649 579.938 31.5258 578.012L30.5737 582.586H18L27.7914 535.586L41.8193 535.586C41.8194 535.586 41.8193 535.586 41.8193 535.586C44.3575 535.586 46.8298 536.394 48.8775 537.894C50.9252 539.393 52.4418 541.506 53.2073 543.926C53.9728 546.346 53.9473 548.947 53.1346 551.352C52.3846 553.571 51.0003 555.516 49.1592 556.95C51.0704 558.141 52.6652 559.783 53.8021 561.734C55.0374 563.854 55.6879 566.264 55.6872 568.717Z" fill="black"/>
<path fill-rule="evenodd" clip-rule="evenodd" d="M30.6453 547.528C30.6435 549.321 31.0741 551.088 31.9004 552.68C32.7268 554.271 33.9247 555.64 35.3925 556.67L35.8899 557.019L35.3612 557.318C33.3442 558.46 31.6666 560.117 30.4996 562.12C29.3325 564.123 28.718 566.399 28.7187 568.717L27.9507 568.717C27.95 566.263 28.6006 563.853 29.836 561.733C30.973 559.782 32.5679 558.141 34.4791 556.95C33.1248 555.896 32.0118 554.561 31.2189 553.034C30.3356 551.333 29.8754 549.444 29.8773 547.527L30.6453 547.528Z" fill="black"/>
<path d="M71.066 261.371H73.136V277.793H71.066V270.295H61.889V277.793H59.819V261.371H61.889V268.363H71.066V261.371ZM86.7691 271.307V271.974H77.9371C77.9678 273.369 78.2974 274.458 78.9261 275.24C79.5548 276.007 80.4594 276.39 81.6401 276.39C83.2348 276.39 84.2161 275.792 84.5841 274.596H86.5621C86.3628 275.639 85.8338 276.482 84.9751 277.126C84.1318 277.77 83.0201 278.092 81.6401 278.092C79.8768 278.092 78.4968 277.517 77.5001 276.367C76.5034 275.217 76.0051 273.722 76.0051 271.882C76.0051 270.073 76.5034 268.624 77.5001 267.535C78.4968 266.446 79.8614 265.902 81.5941 265.902C83.2348 265.902 84.4998 266.423 85.3891 267.466C86.2784 268.493 86.7384 269.774 86.7691 271.307ZM81.5481 267.604C80.5514 267.604 79.7541 267.865 79.1561 268.386C78.5581 268.892 78.1901 269.544 78.0521 270.341H84.7451C84.6838 269.559 84.3694 268.907 83.8021 268.386C83.2348 267.865 82.4834 267.604 81.5481 267.604ZM98.5602 282.393H96.5822L98.9742 276.712L94.0292 266.201H96.1222L99.6642 273.837H100.239L103.459 266.201H105.506L98.5602 282.393ZM117.652 277.793H115.697V267.903H109.372V277.793H107.417V266.201H117.652V277.793ZM121.847 267.627C122.874 266.477 124.269 265.902 126.033 265.902C127.796 265.902 129.184 266.477 130.196 267.627C131.223 268.777 131.737 270.234 131.737 271.997C131.737 273.76 131.223 275.217 130.196 276.367C129.184 277.517 127.796 278.092 126.033 278.092C124.269 278.092 122.874 277.517 121.847 276.367C120.835 275.217 120.329 273.76 120.329 271.997C120.329 270.234 120.835 268.777 121.847 267.627ZM123.25 275.125C123.894 275.968 124.821 276.39 126.033 276.39C127.244 276.39 128.172 275.968 128.816 275.125C129.46 274.266 129.782 273.224 129.782 271.997C129.782 270.77 129.46 269.735 128.816 268.892C128.172 268.033 127.244 267.604 126.033 267.604C124.821 267.604 123.894 268.033 123.25 268.892C122.606 269.735 122.284 270.77 122.284 271.997C122.284 273.224 122.606 274.266 123.25 275.125ZM132.976 267.903V266.201H142.958V267.903H138.956V277.793H137.001V267.903H132.976ZM150.712 267.604C149.501 267.604 148.589 268.026 147.975 268.869C147.377 269.712 147.078 270.755 147.078 271.997C147.078 273.239 147.377 274.282 147.975 275.125C148.589 275.968 149.501 276.39 150.712 276.39C151.847 276.39 152.721 275.991 153.334 275.194C153.963 274.381 154.277 273.316 154.277 271.997C154.277 270.678 153.963 269.62 153.334 268.823C152.721 268.01 151.847 267.604 150.712 267.604ZM145.146 266.201H147.032V267.443H147.538C148.366 266.416 149.57 265.902 151.149 265.902C152.713 265.902 153.948 266.477 154.852 267.627C155.772 268.777 156.232 270.234 156.232 271.997C156.232 273.791 155.772 275.255 154.852 276.39C153.948 277.525 152.713 278.092 151.149 278.092C149.555 278.092 148.374 277.578 147.607 276.551H147.101V282.393H145.146V266.201ZM168.957 271.307V271.974H160.125C160.156 273.369 160.485 274.458 161.114 275.24C161.743 276.007 162.647 276.39 163.828 276.39C165.423 276.39 166.404 275.792 166.772 274.596H168.75C168.551 275.639 168.022 276.482 167.163 277.126C166.32 277.77 165.208 278.092 163.828 278.092C162.065 278.092 160.685 277.517 159.688 276.367C158.691 275.217 158.193 273.722 158.193 271.882C158.193 270.073 158.691 268.624 159.688 267.535C160.685 266.446 162.049 265.902 163.782 265.902C165.423 265.902 166.688 266.423 167.577 267.466C168.466 268.493 168.926 269.774 168.957 271.307ZM163.736 267.604C162.739 267.604 161.942 267.865 161.344 268.386C160.746 268.892 160.378 269.544 160.24 270.341H166.933C166.872 269.559 166.557 268.907 165.99 268.386C165.423 267.865 164.671 267.604 163.736 267.604ZM176.9 266.316C178.602 266.316 179.943 266.876 180.925 267.995C181.906 269.099 182.397 270.502 182.397 272.204C182.397 273.891 181.875 275.294 180.833 276.413C179.805 277.532 178.418 278.092 176.67 278.092C174.83 278.092 173.404 277.486 172.392 276.275C171.395 275.064 170.897 273.331 170.897 271.077C170.897 270.203 170.92 269.421 170.966 268.731C171.027 268.041 171.15 267.32 171.334 266.569C171.533 265.818 171.794 265.181 172.116 264.66C172.438 264.123 172.882 263.656 173.45 263.257C174.017 262.858 174.692 262.598 175.474 262.475L178.556 261.969C178.985 261.908 179.269 261.823 179.407 261.716C179.56 261.609 179.652 261.394 179.683 261.072H181.5C181.469 261.793 181.293 262.368 180.971 262.797C180.649 263.211 180.066 263.495 179.223 263.648L175.658 264.246C174.692 264.415 173.979 264.821 173.519 265.465C173.074 266.094 172.783 266.937 172.645 267.995H173.151C173.626 267.366 174.155 266.929 174.738 266.684C175.336 266.439 176.056 266.316 176.9 266.316ZM173.818 275.171C174.477 275.984 175.412 276.39 176.624 276.39C177.835 276.39 178.763 275.984 179.407 275.171C180.066 274.343 180.396 273.346 180.396 272.181C180.396 271.016 180.066 270.027 179.407 269.214C178.763 268.401 177.835 267.995 176.624 267.995C175.412 267.995 174.477 268.401 173.818 269.214C173.174 270.027 172.852 271.016 172.852 272.181C172.852 273.346 173.174 274.343 173.818 275.171ZM183.519 277.793V275.953H183.91C184.723 275.953 185.305 275.577 185.658 274.826C186.011 274.059 186.187 272.679 186.187 270.686V266.201H195.065V277.793H193.087V267.903H188.004V270.732C188.004 273.354 187.682 275.186 187.038 276.229C186.409 277.272 185.367 277.793 183.91 277.793H183.519ZM202.181 266.201H207.954V277.793H205.976V273.216H202.457C202.15 273.216 201.913 273.208 201.744 273.193L199.996 277.793H197.949L199.904 272.756C198.708 272.189 198.11 271.177 198.11 269.72C198.11 268.601 198.455 267.734 199.145 267.121C199.85 266.508 200.862 266.201 202.181 266.201ZM205.976 267.857H202.388C201.545 267.857 200.947 268.018 200.594 268.34C200.241 268.662 200.065 269.13 200.065 269.743C200.065 270.341 200.241 270.793 200.594 271.1C200.947 271.407 201.545 271.56 202.388 271.56H205.976V267.857ZM221.367 271.307V271.974H212.535C212.565 273.369 212.895 274.458 213.524 275.24C214.152 276.007 215.057 276.39 216.238 276.39C217.832 276.39 218.814 275.792 219.182 274.596H221.16C220.96 275.639 220.431 276.482 219.573 277.126C218.729 277.77 217.618 278.092 216.238 278.092C214.474 278.092 213.094 277.517 212.098 276.367C211.101 275.217 210.603 273.722 210.603 271.882C210.603 270.073 211.101 268.624 212.098 267.535C213.094 266.446 214.459 265.902 216.192 265.902C217.832 265.902 219.097 266.423 219.987 267.466C220.876 268.493 221.336 269.774 221.367 271.307ZM216.146 267.604C215.149 267.604 214.352 267.865 213.754 268.386C213.156 268.892 212.788 269.544 212.65 270.341H219.343C219.281 269.559 218.967 268.907 218.4 268.386C217.832 267.865 217.081 267.604 216.146 267.604ZM222.441 267.903V266.201H232.423V267.903H228.421V277.793H226.466V267.903H222.441ZM244.483 271.307V271.974H235.651C235.682 273.369 236.011 274.458 236.64 275.24C237.269 276.007 238.173 276.39 239.354 276.39C240.949 276.39 241.93 275.792 242.298 274.596H244.276C244.077 275.639 243.548 276.482 242.689 277.126C241.846 277.77 240.734 278.092 239.354 278.092C237.591 278.092 236.211 277.517 235.214 276.367C234.217 275.217 233.719 273.722 233.719 271.882C233.719 270.073 234.217 268.624 235.214 267.535C236.211 266.446 237.575 265.902 239.308 265.902C240.949 265.902 242.214 266.423 243.103 267.466C243.992 268.493 244.452 269.774 244.483 271.307ZM239.262 267.604C238.265 267.604 237.468 267.865 236.87 268.386C236.272 268.892 235.904 269.544 235.766 270.341H242.459C242.398 269.559 242.083 268.907 241.516 268.386C240.949 267.865 240.197 267.604 239.262 267.604ZM44.0999 300.793L41.5239 295.687H38.0509V300.793H36.0959V289.201H38.0509V293.985H41.5699L43.9849 289.201H46.0319L43.2029 294.79L46.1929 300.793H44.0999ZM55.958 300.793V299.574H55.452C54.6546 300.586 53.451 301.092 51.841 301.092C50.5683 301.092 49.5563 300.724 48.805 299.988C48.0536 299.252 47.678 298.363 47.678 297.32C47.678 296.262 48.046 295.357 48.782 294.606C49.518 293.855 50.6296 293.479 52.117 293.479H55.889V293.019C55.889 292.283 55.659 291.7 55.199 291.271C54.739 290.826 54.026 290.604 53.06 290.604C51.3733 290.604 50.4763 291.164 50.369 292.283H48.414C48.4906 291.225 48.943 290.397 49.771 289.799C50.6143 289.201 51.6953 288.902 53.014 288.902C54.5013 288.902 55.6666 289.247 56.51 289.937C57.3686 290.627 57.798 291.616 57.798 292.904V300.793H55.958ZM52.324 299.39C53.29 299.39 54.1256 299.076 54.831 298.447C55.5363 297.803 55.889 297.021 55.889 296.101V295.043H52.416C50.5606 295.043 49.633 295.779 49.633 297.251C49.633 297.91 49.863 298.432 50.323 298.815C50.7983 299.198 51.4653 299.39 52.324 299.39ZM68.9907 300.793L66.4147 295.687H62.9417V300.793H60.9867V289.201H62.9417V293.985H66.4607L68.8757 289.201H70.9227L68.0937 294.79L71.0837 300.793H68.9907ZM73.9339 290.627C74.9612 289.477 76.3566 288.902 78.1199 288.902C79.8833 288.902 81.2709 289.477 82.2829 290.627C83.3103 291.777 83.8239 293.234 83.8239 294.997C83.8239 296.76 83.3103 298.217 82.2829 299.367C81.2709 300.517 79.8833 301.092 78.1199 301.092C76.3566 301.092 74.9612 300.517 73.9339 299.367C72.9219 298.217 72.4159 296.76 72.4159 294.997C72.4159 293.234 72.9219 291.777 73.9339 290.627ZM75.3369 298.125C75.9809 298.968 76.9086 299.39 78.1199 299.39C79.3312 299.39 80.2589 298.968 80.9029 298.125C81.5469 297.266 81.8689 296.224 81.8689 294.997C81.8689 293.77 81.5469 292.735 80.9029 291.892C80.2589 291.033 79.3312 290.604 78.1199 290.604C76.9086 290.604 75.9809 291.033 75.3369 291.892C74.6929 292.735 74.3709 293.77 74.3709 294.997C74.3709 296.224 74.6929 297.266 75.3369 298.125ZM89.244 300.793H86.484V289.201H88.393V298.171H88.899L93.982 289.201H96.834V300.793H94.925V291.823H94.419L89.244 300.793ZM93.614 284.141H95.201C95.1703 285.214 94.8407 286.042 94.212 286.625C93.5833 287.208 92.717 287.499 91.613 287.499C90.5243 287.499 89.6657 287.208 89.037 286.625C88.4083 286.042 88.0787 285.214 88.048 284.141H89.635C89.6657 285.444 90.325 286.096 91.613 286.096C92.8703 286.096 93.5373 285.444 93.614 284.141ZM105.741 295.273H99.4619V293.548H105.741V295.273ZM106.605 300.793V298.953H106.996C107.809 298.953 108.391 298.577 108.744 297.826C109.097 297.059 109.273 295.679 109.273 293.686V289.201H118.151V300.793H116.173V290.903H111.09V293.732C111.09 296.354 110.768 298.186 110.124 299.229C109.495 300.272 108.453 300.793 106.996 300.793H106.605ZM124.278 300.793H121.518V289.201H123.427V298.171H123.933L129.016 289.201H131.868V300.793H129.959V291.823H129.453L124.278 300.793ZM140.545 289.316C142.247 289.316 143.589 289.876 144.57 290.995C145.551 292.099 146.042 293.502 146.042 295.204C146.042 296.891 145.521 298.294 144.478 299.413C143.451 300.532 142.063 301.092 140.315 301.092C138.475 301.092 137.049 300.486 136.037 299.275C135.04 298.064 134.542 296.331 134.542 294.077C134.542 293.203 134.565 292.421 134.611 291.731C134.672 291.041 134.795 290.32 134.979 289.569C135.178 288.818 135.439 288.181 135.761 287.66C136.083 287.123 136.528 286.656 137.095 286.257C137.662 285.858 138.337 285.598 139.119 285.475L142.201 284.969C142.63 284.908 142.914 284.823 143.052 284.716C143.205 284.609 143.297 284.394 143.328 284.072H145.145C145.114 284.793 144.938 285.368 144.616 285.797C144.294 286.211 143.711 286.495 142.868 286.648L139.303 287.246C138.337 287.415 137.624 287.821 137.164 288.465C136.719 289.094 136.428 289.937 136.29 290.995H136.796C137.271 290.366 137.8 289.929 138.383 289.684C138.981 289.439 139.702 289.316 140.545 289.316ZM137.463 298.171C138.122 298.984 139.058 299.39 140.269 299.39C141.48 299.39 142.408 298.984 143.052 298.171C143.711 297.343 144.041 296.346 144.041 295.181C144.041 294.016 143.711 293.027 143.052 292.214C142.408 291.401 141.48 290.995 140.269 290.995C139.058 290.995 138.122 291.401 137.463 292.214C136.819 293.027 136.497 294.016 136.497 295.181C136.497 296.346 136.819 297.343 137.463 298.171ZM149.505 290.627C150.532 289.477 151.928 288.902 153.691 288.902C155.454 288.902 156.842 289.477 157.854 290.627C158.881 291.777 159.395 293.234 159.395 294.997C159.395 296.76 158.881 298.217 157.854 299.367C156.842 300.517 155.454 301.092 153.691 301.092C151.928 301.092 150.532 300.517 149.505 299.367C148.493 298.217 147.987 296.76 147.987 294.997C147.987 293.234 148.493 291.777 149.505 290.627ZM150.908 298.125C151.552 298.968 152.48 299.39 153.691 299.39C154.902 299.39 155.83 298.968 156.474 298.125C157.118 297.266 157.44 296.224 157.44 294.997C157.44 293.77 157.118 292.735 156.474 291.892C155.83 291.033 154.902 290.604 153.691 290.604C152.48 290.604 151.552 291.033 150.908 291.892C150.264 292.735 149.942 293.77 149.942 294.997C149.942 296.224 150.264 297.266 150.908 298.125ZM178.3 300.793H176.345V290.903H170.02V300.793H168.065V289.201H178.3V300.793ZM187.256 290.604C186.045 290.604 185.132 291.026 184.519 291.869C183.921 292.712 183.622 293.755 183.622 294.997C183.622 296.239 183.921 297.282 184.519 298.125C185.132 298.968 186.045 299.39 187.256 299.39C188.391 299.39 189.265 298.991 189.878 298.194C190.507 297.381 190.821 296.316 190.821 294.997C190.821 293.678 190.507 292.62 189.878 291.823C189.265 291.01 188.391 290.604 187.256 290.604ZM181.69 289.201H183.576V290.443H184.082C184.91 289.416 186.114 288.902 187.693 288.902C189.257 288.902 190.491 289.477 191.396 290.627C192.316 291.777 192.776 293.234 192.776 294.997C192.776 296.791 192.316 298.255 191.396 299.39C190.491 300.525 189.257 301.092 187.693 301.092C186.098 301.092 184.918 300.578 184.151 299.551H183.645V305.393H181.69V289.201ZM196.254 290.627C197.282 289.477 198.677 288.902 200.44 288.902C202.204 288.902 203.591 289.477 204.603 290.627C205.631 291.777 206.144 293.234 206.144 294.997C206.144 296.76 205.631 298.217 204.603 299.367C203.591 300.517 202.204 301.092 200.44 301.092C198.677 301.092 197.282 300.517 196.254 299.367C195.242 298.217 194.736 296.76 194.736 294.997C194.736 293.234 195.242 291.777 196.254 290.627ZM197.657 298.125C198.301 298.968 199.229 299.39 200.44 299.39C201.652 299.39 202.579 298.968 203.223 298.125C203.867 297.266 204.189 296.224 204.189 294.997C204.189 293.77 203.867 292.735 203.223 291.892C202.579 291.033 201.652 290.604 200.44 290.604C199.229 290.604 198.301 291.033 197.657 291.892C197.013 292.735 196.691 293.77 196.691 294.997C196.691 296.224 197.013 297.266 197.657 298.125ZM219.131 299.091H221.27V304.082H219.361V300.793H209.333V304.082H207.424V299.091H208.965C209.916 297.067 210.391 294.828 210.391 292.375V289.201H219.131V299.091ZM217.176 299.091V290.903H212.208V292.375C212.208 294.997 211.787 297.236 210.943 299.091H217.176ZM226.545 305.393H224.567L226.959 299.712L222.014 289.201H224.107L227.649 296.837H228.224L231.444 289.201H233.491L226.545 305.393ZM243.406 300.793L240.83 295.687H237.357V300.793H235.402V289.201H237.357V293.985H240.876L243.291 289.201H245.338L242.509 294.79L245.499 300.793H243.406ZM246.685 290.903V289.201H256.667V290.903H252.665V300.793H250.71V290.903H246.685ZM263.111 284.072C264.613 284.072 265.809 284.478 266.699 285.291C267.603 286.088 268.056 287.162 268.056 288.511C268.056 289.094 267.994 289.6 267.872 290.029C267.764 290.458 267.542 290.872 267.205 291.271C266.883 291.67 266.614 291.969 266.4 292.168C266.185 292.367 265.802 292.689 265.25 293.134C264.636 293.609 264.23 294 264.031 294.307C263.847 294.598 263.755 295.097 263.755 295.802V296.446H261.777V295.802C261.777 295.143 261.861 294.591 262.03 294.146C262.214 293.686 262.436 293.318 262.697 293.042C262.973 292.751 263.402 292.367 263.985 291.892C264.491 291.478 264.866 291.156 265.112 290.926C265.357 290.681 265.579 290.351 265.779 289.937C265.978 289.523 266.078 289.048 266.078 288.511C266.078 287.76 265.809 287.116 265.273 286.579C264.751 286.042 264.038 285.774 263.134 285.774C261.156 285.774 260.113 286.794 260.006 288.833H258.028C258.089 287.346 258.564 286.18 259.454 285.337C260.358 284.494 261.577 284.072 263.111 284.072ZM263.962 300.793H261.57V298.125H263.962V300.793Z" fill="black"/>
<path d="M374.071 268.041H379.016C380.764 268.041 382.113 268.47 383.064 269.329C384.03 270.188 384.513 271.384 384.513 272.917C384.513 274.45 384.03 275.646 383.064 276.505C382.113 277.364 380.764 277.793 379.016 277.793H372.001V261.371H383.248V263.257H374.071V268.041ZM374.071 275.953H378.671C380.005 275.953 380.963 275.692 381.546 275.171C382.144 274.65 382.443 273.891 382.443 272.894C382.443 270.87 381.186 269.858 378.671 269.858H374.071V275.953ZM386.637 274.435H388.546C388.868 275.738 389.903 276.39 391.651 276.39C392.709 276.39 393.544 276.053 394.158 275.378C394.786 274.703 395.131 273.822 395.193 272.733H389.972V271.077H395.17C395.078 270.019 394.733 269.176 394.135 268.547C393.552 267.918 392.724 267.604 391.651 267.604C389.995 267.604 388.99 268.21 388.638 269.421H386.729C386.959 268.348 387.503 267.497 388.362 266.868C389.22 266.224 390.309 265.902 391.628 265.902C393.345 265.902 394.702 266.469 395.699 267.604C396.695 268.723 397.194 270.188 397.194 271.997C397.194 273.822 396.695 275.294 395.699 276.413C394.702 277.532 393.337 278.092 391.605 278.092C390.301 278.092 389.197 277.755 388.293 277.08C387.403 276.405 386.851 275.524 386.637 274.435ZM402.612 277.793H399.852V266.201H401.761V275.171H402.267L407.35 266.201H410.202V277.793H408.293V268.823H407.787L402.612 277.793ZM406.982 261.141H408.569C408.538 262.214 408.208 263.042 407.58 263.625C406.951 264.208 406.085 264.499 404.981 264.499C403.892 264.499 403.033 264.208 402.405 263.625C401.776 263.042 401.446 262.214 401.416 261.141H403.003C403.033 262.444 403.693 263.096 404.981 263.096C406.238 263.096 406.905 262.444 406.982 261.141ZM412.393 267.903V266.201H422.375V267.903H418.373V277.793H416.418V267.903H412.393ZM439.887 277.793H437.932V267.903H431.607V277.793H429.652V266.201H439.887V277.793ZM444.082 267.627C445.109 266.477 446.505 265.902 448.268 265.902C450.031 265.902 451.419 266.477 452.431 267.627C453.458 268.777 453.972 270.234 453.972 271.997C453.972 273.76 453.458 275.217 452.431 276.367C451.419 277.517 450.031 278.092 448.268 278.092C446.505 278.092 445.109 277.517 444.082 276.367C443.07 275.217 442.564 273.76 442.564 271.997C442.564 270.234 443.07 268.777 444.082 267.627ZM445.485 275.125C446.129 275.968 447.057 276.39 448.268 276.39C449.479 276.39 450.407 275.968 451.051 275.125C451.695 274.266 452.017 273.224 452.017 271.997C452.017 270.77 451.695 269.735 451.051 268.892C450.407 268.033 449.479 267.604 448.268 267.604C447.057 267.604 446.129 268.033 445.485 268.892C444.841 269.735 444.519 270.77 444.519 271.997C444.519 273.224 444.841 274.266 445.485 275.125ZM456.632 277.793V266.201H459.737L462.589 271.491H463.095L465.947 266.201H469.006V277.793H467.097V268.478H466.591L463.9 273.446H461.738L459.047 268.478H458.541V277.793H456.632ZM473.196 267.627C474.223 266.477 475.618 265.902 477.382 265.902C479.145 265.902 480.533 266.477 481.545 267.627C482.572 268.777 483.086 270.234 483.086 271.997C483.086 273.76 482.572 275.217 481.545 276.367C480.533 277.517 479.145 278.092 477.382 278.092C475.618 278.092 474.223 277.517 473.196 276.367C472.184 275.217 471.678 273.76 471.678 271.997C471.678 270.234 472.184 268.777 473.196 267.627ZM474.599 275.125C475.243 275.968 476.17 276.39 477.382 276.39C478.593 276.39 479.521 275.968 480.165 275.125C480.809 274.266 481.131 273.224 481.131 271.997C481.131 270.77 480.809 269.735 480.165 268.892C479.521 268.033 478.593 267.604 477.382 267.604C476.17 267.604 475.243 268.033 474.599 268.892C473.955 269.735 473.633 270.77 473.633 271.997C473.633 273.224 473.955 274.266 474.599 275.125ZM489.035 272.71L486.804 277.793H484.757L487.379 271.836L484.918 266.201H486.942L489.035 271.008H492.002V266.201H493.888V271.008H496.855L498.948 266.201H500.972L498.511 271.836L501.156 277.793H499.086L496.855 272.71H493.888V277.793H492.002V272.71H489.035ZM513.24 271.307V271.974H504.408C504.438 273.369 504.768 274.458 505.397 275.24C506.025 276.007 506.93 276.39 508.111 276.39C509.705 276.39 510.687 275.792 511.055 274.596H513.033C512.833 275.639 512.304 276.482 511.446 277.126C510.602 277.77 509.491 278.092 508.111 278.092C506.347 278.092 504.967 277.517 503.971 276.367C502.974 275.217 502.476 273.722 502.476 271.882C502.476 270.073 502.974 268.624 503.971 267.535C504.967 266.446 506.332 265.902 508.065 265.902C509.705 265.902 510.97 266.423 511.86 267.466C512.749 268.493 513.209 269.774 513.24 271.307ZM508.019 267.604C507.022 267.604 506.225 267.865 505.627 268.386C505.029 268.892 504.661 269.544 504.523 270.341H511.216C511.154 269.559 510.84 268.907 510.273 268.386C509.705 267.865 508.954 267.604 508.019 267.604ZM514.315 267.903V266.201H524.297V267.903H520.295V277.793H518.34V267.903H514.315ZM355.882 300.793H353.927V295.687H347.51V300.793H345.555V289.201H347.51V293.985H353.927V289.201H355.882V300.793ZM366.653 300.793V299.574H366.147C365.35 300.586 364.146 301.092 362.536 301.092C361.263 301.092 360.251 300.724 359.5 299.988C358.749 299.252 358.373 298.363 358.373 297.32C358.373 296.262 358.741 295.357 359.477 294.606C360.213 293.855 361.325 293.479 362.812 293.479H366.584V293.019C366.584 292.283 366.354 291.7 365.894 291.271C365.434 290.826 364.721 290.604 363.755 290.604C362.068 290.604 361.171 291.164 361.064 292.283H359.109C359.186 291.225 359.638 290.397 360.466 289.799C361.309 289.201 362.39 288.902 363.709 288.902C365.196 288.902 366.362 289.247 367.205 289.937C368.064 290.627 368.493 291.616 368.493 292.904V300.793H366.653ZM363.019 299.39C363.985 299.39 364.821 299.076 365.526 298.447C366.231 297.803 366.584 297.021 366.584 296.101V295.043H363.111C361.256 295.043 360.328 295.779 360.328 297.251C360.328 297.91 360.558 298.432 361.018 298.815C361.493 299.198 362.16 299.39 363.019 299.39ZM374.442 300.793H371.682V289.201H373.591V298.171H374.097L379.18 289.201H382.032V300.793H380.123V291.823H379.617L374.442 300.793ZM378.812 284.141H380.399C380.368 285.214 380.038 286.042 379.41 286.625C378.781 287.208 377.915 287.499 376.811 287.499C375.722 287.499 374.863 287.208 374.235 286.625C373.606 286.042 373.276 285.214 373.246 284.141H374.833C374.863 285.444 375.523 286.096 376.811 286.096C378.068 286.096 378.735 285.444 378.812 284.141ZM384.223 290.903V289.201H394.205V290.903H390.203V300.793H388.248V290.903H384.223ZM399.153 300.793H396.393V289.201H398.302V298.171H398.808L403.891 289.201H406.743V300.793H404.834V291.823H404.328L399.153 300.793ZM424.236 292.03C424.236 290.627 422.971 289.937 421.154 289.937C419.981 289.937 418.9 290.305 417.934 291.064C416.991 291.8 416.255 292.697 415.772 293.778C415.289 294.836 415.059 295.917 415.059 296.998C415.059 299.413 416.232 301.115 418.716 301.115C420.165 301.115 421.338 300.77 422.189 300.08C423.04 299.39 423.477 298.539 423.477 297.504C423.477 296.308 422.787 295.204 421.062 295.089C422.12 294.813 422.902 294.376 423.431 293.755C423.96 293.134 424.236 292.559 424.236 292.03ZM421.476 297.389C421.476 298.286 421.223 299.022 420.694 299.597C420.188 300.172 419.636 300.448 419.015 300.448C417.796 300.448 417.175 299.505 417.175 297.596C417.175 297.021 417.221 296.469 417.29 295.94C418.164 295.595 419.015 295.434 419.866 295.434C420.855 295.434 421.476 296.285 421.476 297.389ZM420.924 290.581C421.752 290.581 422.373 291.11 422.373 292.03C422.373 293.019 421.568 294.215 420.073 294.79C419.061 294.882 418.164 295.066 417.382 295.319C417.589 294.008 418.026 292.904 418.693 291.984C419.36 291.041 420.096 290.581 420.924 290.581ZM432.678 299.689C432.678 300.609 433.046 301.115 434.081 301.115C435.323 301.115 436.519 299.896 437.692 297.481L437.186 297.182C436.312 299.114 435.576 300.08 434.978 300.08C434.679 300.08 434.518 299.896 434.518 299.528C434.518 299.137 434.633 298.516 434.886 297.665L436.933 290.259H434.702L433.69 294.123C433.345 295.434 432.724 296.722 431.804 298.033C430.907 299.344 430.079 299.988 429.366 299.988C428.745 299.988 428.446 299.597 428.446 298.792C428.446 298.332 428.561 297.665 428.791 296.814L429.458 294.307C429.849 292.858 430.033 291.915 430.033 291.478C430.033 290.443 429.481 289.937 428.4 289.937C427.135 289.937 425.939 291.156 424.789 293.594L425.295 293.893C426.169 291.961 426.882 290.995 427.457 290.995C427.756 290.995 427.917 291.179 427.917 291.547C427.894 292.122 427.756 292.789 427.549 293.548L426.537 297.067C426.33 297.78 426.215 298.47 426.215 299.091C426.215 300.448 426.928 301.115 428.331 301.115C429.251 301.115 430.148 300.678 431.022 299.804C431.919 298.907 432.678 297.78 433.299 296.4C432.885 297.826 432.678 298.93 432.678 299.689ZM456.369 297.159C455.61 298.815 454.713 300.057 454.184 300.057C453.885 300.057 453.724 299.873 453.724 299.505C453.724 299.022 453.839 298.378 454.092 297.527L455.104 293.985C455.334 293.203 455.449 292.513 455.449 291.915C455.449 290.604 454.782 289.937 453.425 289.937C452.574 289.937 451.654 290.397 450.711 291.294C449.768 292.191 448.986 293.318 448.365 294.675C448.71 293.41 448.871 292.467 448.871 291.846C448.871 290.581 448.296 289.937 447.123 289.937C446.249 289.937 445.329 290.374 444.386 291.248C443.443 292.122 442.661 293.272 442.04 294.675C442.454 293.088 442.661 291.984 442.661 291.386C442.661 290.443 442.316 289.937 441.281 289.937C439.901 289.937 438.774 291.294 437.67 293.594L438.176 293.893C438.889 292.237 439.786 290.995 440.361 290.995C440.66 290.995 440.821 291.179 440.821 291.547C440.821 291.846 440.706 292.467 440.453 293.41L438.475 300.793H440.637L441.741 296.699C442.086 295.48 442.707 294.238 443.604 292.973C444.501 291.708 445.283 291.087 445.904 291.087C446.64 291.087 446.893 291.409 446.893 292.237C446.893 292.697 446.778 293.364 446.548 294.261L444.754 300.793H446.916L448.043 296.699C448.365 295.526 448.986 294.307 449.883 293.019C450.803 291.731 451.585 291.087 452.206 291.087C452.965 291.087 453.218 291.409 453.218 292.237C453.218 292.674 453.103 293.364 452.85 294.261L452.183 296.768C451.815 298.079 451.631 299.022 451.631 299.597C451.631 300.609 452.16 301.115 453.241 301.115C454.621 301.115 455.748 299.758 456.852 297.458L456.369 297.159ZM468.55 297.159C468.205 297.964 467.814 298.654 467.4 299.229C467.009 299.781 466.687 300.057 466.434 300.057C466.089 300.057 465.928 299.873 465.928 299.482C465.928 298.999 466.112 298.148 466.457 296.883L468.274 290.259H466.112L465.468 292.697C465.307 290.949 464.364 289.937 462.961 289.937C460.017 289.845 457.211 293.985 457.303 297.573C457.303 299.758 458.338 301.115 460.178 301.115C461.811 301.115 463.398 299.896 464.295 297.803C464.134 298.47 464.042 298.953 464.042 299.275C464.042 300.494 464.502 301.115 465.399 301.115C466.664 301.115 467.883 299.896 469.056 297.458L468.55 297.159ZM460.983 300.264C459.994 300.264 459.396 299.482 459.396 297.918C459.396 297.021 459.557 296.009 459.902 294.928C460.247 293.847 460.73 292.881 461.351 292.053C461.995 291.202 462.685 290.788 463.398 290.788C464.295 290.788 464.985 291.57 464.985 293.249C464.985 294.146 464.824 295.135 464.479 296.216C464.134 297.297 463.651 298.24 463.007 299.045C462.386 299.85 461.696 300.264 460.983 300.264ZM469.883 300.586C469.515 300.586 469.331 300.471 469.331 300.218C469.952 300.218 470.274 299.781 470.274 299.229C470.274 298.7 469.906 298.286 469.469 298.286C468.848 298.286 468.388 298.907 468.388 299.62C468.388 300.448 469.055 301.092 469.86 301.092C470.619 301.092 471.217 300.586 471.723 299.873C472.068 299.413 472.436 298.47 472.643 297.849C472.758 297.527 472.919 297.09 473.08 296.538L473.494 295.135C473.609 294.744 473.747 294.215 473.908 293.548L474.368 291.915C474.782 293.18 475.035 296.193 475.104 300.954H475.702L481.475 291.478L479.934 297.205C479.635 298.286 479.474 299.091 479.474 299.62C479.474 300.517 480.003 301.115 481.084 301.115C482.395 301.115 483.637 299.896 484.787 297.481L484.304 297.182C483.545 298.861 482.694 300.08 482.119 300.08C481.797 300.08 481.636 299.873 481.636 299.482C481.636 299.183 481.751 298.562 482.004 297.619L484.005 290.259H481.475L477.036 297.803C476.898 292.559 476.024 289.937 474.391 289.937C473.034 289.937 471.746 291.179 470.55 293.64L471.079 293.87C471.838 292.053 472.758 291.064 473.471 291.064C473.609 291.064 473.747 291.11 473.862 291.202C472.896 294.951 472.16 297.435 471.677 298.7C471.194 299.965 470.596 300.586 469.883 300.586ZM492.881 299.689C492.881 300.609 493.249 301.115 494.284 301.115C495.526 301.115 496.722 299.896 497.895 297.481L497.389 297.182C496.515 299.114 495.779 300.08 495.181 300.08C494.882 300.08 494.721 299.896 494.721 299.528C494.721 299.137 494.836 298.516 495.089 297.665L497.136 290.259H494.905L493.893 294.123C493.548 295.434 492.927 296.722 492.007 298.033C491.11 299.344 490.282 299.988 489.569 299.988C488.948 299.988 488.649 299.597 488.649 298.792C488.649 298.332 488.764 297.665 488.994 296.814L489.661 294.307C490.052 292.858 490.236 291.915 490.236 291.478C490.236 290.443 489.684 289.937 488.603 289.937C487.338 289.937 486.142 291.156 484.992 293.594L485.498 293.893C486.372 291.961 487.085 290.995 487.66 290.995C487.959 290.995 488.12 291.179 488.12 291.547C488.097 292.122 487.959 292.789 487.752 293.548L486.74 297.067C486.533 297.78 486.418 298.47 486.418 299.091C486.418 300.448 487.131 301.115 488.534 301.115C489.454 301.115 490.351 300.678 491.225 299.804C492.122 298.907 492.881 297.78 493.502 296.4C493.088 297.826 492.881 298.93 492.881 299.689ZM510.477 297.159C509.58 299.091 508.867 300.057 508.292 300.057C507.97 300.057 507.809 299.873 507.809 299.482C507.809 299.091 507.947 298.447 508.2 297.573L510.247 290.259H508.039L506.797 294.836H502.542L502.772 294.054C503.071 292.973 503.232 292.076 503.232 291.409C503.232 290.512 502.68 289.937 501.599 289.937C500.334 289.937 499.115 291.156 497.988 293.594L498.471 293.893C499.368 291.961 500.104 290.995 500.679 290.995C501.001 290.995 501.162 291.179 501.162 291.547C501.208 291.938 500.863 293.065 500.794 293.41L498.747 300.793H500.955L502.335 295.641H506.567L506.268 296.768C505.9 298.125 505.716 299.068 505.716 299.597C505.716 300.609 506.268 301.115 507.372 301.115C508.591 301.115 509.787 299.896 510.96 297.458L510.477 297.159ZM523.653 297.159C522.756 299.091 522.043 300.057 521.468 300.057C521.146 300.057 520.985 299.873 520.985 299.482C520.985 299.091 521.123 298.447 521.376 297.573L523.423 290.259H521.215L519.973 294.836H515.718L515.948 294.054C516.247 292.973 516.408 292.076 516.408 291.409C516.408 290.512 515.856 289.937 514.775 289.937C513.51 289.937 512.291 291.156 511.164 293.594L511.647 293.893C512.544 291.961 513.28 290.995 513.855 290.995C514.177 290.995 514.338 291.179 514.338 291.547C514.384 291.938 514.039 293.065 513.97 293.41L511.923 300.793H514.131L515.511 295.641H519.743L519.444 296.768C519.076 298.125 518.892 299.068 518.892 299.597C518.892 300.609 519.444 301.115 520.548 301.115C521.767 301.115 522.963 299.896 524.136 297.458L523.653 297.159ZM534.873 291.294C534.873 290.65 534.482 289.983 533.907 289.983C533.424 289.983 533.033 290.397 533.033 290.949C533.033 291.432 533.355 291.915 533.976 292.398C533.769 293.985 532.941 296.193 531.469 298.976C530.894 295.664 530.365 293.341 529.859 291.984C529.376 290.627 528.64 289.937 527.674 289.937C526.294 289.937 525.466 291.271 524.638 293.64L525.144 293.87C525.857 292.053 526.294 291.271 526.823 291.271C527.306 291.271 527.743 291.984 528.157 293.387C528.571 294.79 529.146 297.343 529.859 301.069C528.41 303.346 526.846 304.749 525.719 304.749C525.259 304.749 524.983 304.68 524.868 304.519C525.42 304.519 525.949 304.105 525.949 303.461C525.949 302.886 525.512 302.334 524.937 302.334C524.385 302.334 523.741 302.748 523.741 303.737C523.741 304.588 524.385 305.37 525.673 305.37C527.214 305.37 529.215 303.553 531.032 300.793C532.228 298.976 533.171 297.205 533.838 295.526C534.528 293.847 534.873 292.421 534.873 291.294ZM550.663 294.215C550.663 291.708 549.283 289.937 546.868 289.937C545.488 289.937 544.292 290.397 543.257 291.317C542.245 292.237 541.555 293.433 541.187 294.905H539.485L540.014 292.95C540.175 292.375 540.244 291.823 540.244 291.317C540.244 290.512 539.646 289.937 538.611 289.937C537.898 289.937 537.185 290.305 536.472 291.064C535.782 291.8 535.276 292.651 534.931 293.594L535.414 293.893C536.173 292.214 537.093 290.995 537.668 290.995C537.967 290.995 538.105 291.179 538.105 291.57C538.105 291.777 538.013 292.237 537.852 292.904L535.69 300.793H537.898L539.278 295.687H541.049C540.98 296.009 540.957 296.423 540.957 296.906C540.957 299.413 542.314 301.115 544.706 301.115C546.385 301.115 547.811 300.425 548.938 299.022C550.088 297.619 550.663 296.009 550.663 294.215ZM548.524 293.525C548.524 295.871 547.374 300.471 544.821 300.471C543.809 300.471 543.027 299.436 543.027 297.596C543.027 296.423 543.303 294.859 543.855 293.318C544.407 291.777 545.488 290.604 546.753 290.604C547.926 290.604 548.524 291.57 548.524 293.525ZM379.419 320.159C379.074 320.964 378.683 321.654 378.269 322.229C377.878 322.781 377.556 323.057 377.303 323.057C376.958 323.057 376.797 322.873 376.797 322.482C376.797 321.999 376.981 321.148 377.326 319.883L379.143 313.259H376.981L376.337 315.697C376.176 313.949 375.233 312.937 373.83 312.937C370.886 312.845 368.08 316.985 368.172 320.573C368.172 322.758 369.207 324.115 371.047 324.115C372.68 324.115 374.267 322.896 375.164 320.803C375.003 321.47 374.911 321.953 374.911 322.275C374.911 323.494 375.371 324.115 376.268 324.115C377.533 324.115 378.752 322.896 379.925 320.458L379.419 320.159ZM371.852 323.264C370.863 323.264 370.265 322.482 370.265 320.918C370.265 320.021 370.426 319.009 370.771 317.928C371.116 316.847 371.599 315.881 372.22 315.053C372.864 314.202 373.554 313.788 374.267 313.788C375.164 313.788 375.854 314.57 375.854 316.249C375.854 317.146 375.693 318.135 375.348 319.216C375.003 320.297 374.52 321.24 373.876 322.045C373.255 322.85 372.565 323.264 371.852 323.264ZM380.73 324.046C381.374 324.046 381.903 323.77 382.363 323.057C382.823 322.344 383.145 321.746 383.536 320.481C383.743 319.86 383.904 319.308 384.019 318.825L384.548 316.87L385.123 314.846C385.307 314.179 385.56 313.903 386.135 313.903H387.032C387.768 313.903 388.136 314.317 388.136 315.145C388.136 315.421 388.067 315.789 387.952 316.226L386.71 320.665C386.503 321.378 386.388 322.091 386.388 322.758C386.388 323.563 387.009 324.115 388.044 324.115C389.355 324.115 390.574 322.896 391.747 320.481L391.241 320.182C390.344 322.114 389.631 323.08 389.056 323.08C388.757 323.08 388.596 322.873 388.596 322.459C388.596 322.068 388.734 321.424 388.987 320.504L390.114 316.479C390.252 315.996 390.321 315.513 390.321 315.053C390.321 313.857 389.631 313.259 388.274 313.259H383.237L383.053 313.903H383.973C384.364 313.903 384.571 314.041 384.571 314.34C384.571 314.363 384.548 314.547 384.479 314.846C383.605 318.273 382.915 320.573 382.409 321.769C381.926 322.942 381.351 323.54 380.684 323.54C380.362 323.54 380.201 323.425 380.201 323.172C380.822 323.172 381.144 322.735 381.144 322.183C381.144 321.654 380.776 321.24 380.339 321.24C379.718 321.24 379.258 321.861 379.258 322.574C379.258 323.402 379.925 324.046 380.73 324.046ZM401.545 319.446C401.545 318.687 401.338 317.997 400.947 317.422C400.556 316.824 399.866 316.525 398.877 316.525C397.934 316.525 397.106 316.939 396.393 317.767L396.761 316.594C397.06 315.559 397.221 314.869 397.221 314.478C397.221 313.535 396.646 312.96 395.565 312.96C394.254 312.96 393.012 314.179 391.862 316.594L392.345 316.893C393.104 315.237 394.07 313.995 394.645 313.995C394.944 313.995 395.105 314.179 395.105 314.57C395.105 314.869 394.967 315.49 394.668 316.387L393.679 319.63C393.518 320.159 393.449 320.642 393.449 321.079C393.449 322.896 394.668 324.115 396.761 324.115C398.187 324.115 399.337 323.632 400.211 322.643C401.108 321.654 401.545 320.573 401.545 319.446ZM399.567 319.446C399.567 320.458 399.314 321.401 398.808 322.252C398.302 323.103 397.727 323.54 397.083 323.54C396.048 323.54 395.519 322.85 395.519 321.47C395.519 320.343 395.795 319.377 396.347 318.572C396.922 317.767 397.474 317.353 398.049 317.353C399.061 317.353 399.567 318.043 399.567 319.446ZM420.681 320.159C419.922 321.815 419.025 323.057 418.496 323.057C418.197 323.057 418.036 322.873 418.036 322.505C418.036 322.022 418.151 321.378 418.404 320.527L419.416 316.985C419.646 316.203 419.761 315.513 419.761 314.915C419.761 313.604 419.094 312.937 417.737 312.937C416.886 312.937 415.966 313.397 415.023 314.294C414.08 315.191 413.298 316.318 412.677 317.675C413.022 316.41 413.183 315.467 413.183 314.846C413.183 313.581 412.608 312.937 411.435 312.937C410.561 312.937 409.641 313.374 408.698 314.248C407.755 315.122 406.973 316.272 406.352 317.675C406.766 316.088 406.973 314.984 406.973 314.386C406.973 313.443 406.628 312.937 405.593 312.937C404.213 312.937 403.086 314.294 401.982 316.594L402.488 316.893C403.201 315.237 404.098 313.995 404.673 313.995C404.972 313.995 405.133 314.179 405.133 314.547C405.133 314.846 405.018 315.467 404.765 316.41L402.787 323.793H404.949L406.053 319.699C406.398 318.48 407.019 317.238 407.916 315.973C408.813 314.708 409.595 314.087 410.216 314.087C410.952 314.087 411.205 314.409 411.205 315.237C411.205 315.697 411.09 316.364 410.86 317.261L409.066 323.793H411.228L412.355 319.699C412.677 318.526 413.298 317.307 414.195 316.019C415.115 314.731 415.897 314.087 416.518 314.087C417.277 314.087 417.53 314.409 417.53 315.237C417.53 315.674 417.415 316.364 417.162 317.261L416.495 319.768C416.127 321.079 415.943 322.022 415.943 322.597C415.943 323.609 416.472 324.115 417.553 324.115C418.933 324.115 420.06 322.758 421.164 320.458L420.681 320.159ZM430.7 315.191C430.7 313.696 429.711 312.937 427.71 312.937C426.537 312.937 425.479 313.305 424.513 314.064C423.57 314.8 422.834 315.697 422.351 316.778C421.868 317.836 421.638 318.894 421.638 319.975C421.638 322.367 422.949 324.115 425.318 324.115C426.169 324.115 427.02 323.816 427.871 323.218C428.745 322.597 429.458 321.769 429.987 320.711L429.527 320.412C428.538 322.229 427.158 323.195 425.87 323.195C424.513 323.195 423.777 322.229 423.754 320.458C423.754 320.205 423.777 319.929 423.823 319.653C426.008 319.308 427.687 318.71 428.883 317.813C430.102 316.916 430.7 316.042 430.7 315.191ZM428.86 315.099C428.86 315.904 428.492 316.663 427.779 317.422C427.066 318.158 425.778 318.687 423.915 319.009C424.076 317.698 424.49 316.456 425.157 315.329C425.824 314.179 426.606 313.604 427.503 313.604C428.4 313.604 428.86 314.11 428.86 315.099ZM442.897 316.456C442.897 314.363 441.908 312.937 440.137 312.937C438.481 312.937 436.871 314.248 435.79 316.456C435.997 315.513 436.112 314.823 436.112 314.409C436.112 313.42 435.629 312.937 434.686 312.937C433.421 312.937 432.202 314.156 431.075 316.594L431.558 316.893C432.455 314.961 433.191 313.995 433.789 313.995C434.364 313.995 434.341 314.593 433.858 316.41L431.121 326.553C430.937 327.266 430.707 327.473 430.132 327.473H429.304L429.143 328.117H434.916L435.077 327.473H433.789C433.398 327.473 433.191 327.335 433.191 327.059C433.191 326.898 433.214 326.737 433.283 326.553L434.732 321.102C434.755 322.919 435.767 324.115 437.331 324.115C438.343 324.115 439.286 323.724 440.16 322.942C441.034 322.137 441.701 321.171 442.184 319.998C442.667 318.825 442.897 317.629 442.897 316.456ZM440.804 316.111C440.804 317.031 440.643 318.043 440.321 319.147C439.999 320.228 439.516 321.194 438.895 322.045C438.274 322.873 437.584 323.287 436.871 323.287C435.744 323.287 435.169 322.16 435.169 320.435C435.169 319.124 435.606 317.698 436.48 316.157C437.354 314.593 438.274 313.811 439.217 313.811C440.206 313.811 440.804 314.616 440.804 316.111ZM455.909 320.159C455.012 322.091 454.299 323.057 453.724 323.057C453.402 323.057 453.241 322.873 453.241 322.482C453.241 322.091 453.379 321.447 453.632 320.573L455.679 313.259H453.471L452.229 317.836H447.974L448.204 317.054C448.503 315.973 448.664 315.076 448.664 314.409C448.664 313.512 448.112 312.937 447.031 312.937C445.766 312.937 444.547 314.156 443.42 316.594L443.903 316.893C444.8 314.961 445.536 313.995 446.111 313.995C446.433 313.995 446.594 314.179 446.594 314.547C446.64 314.938 446.295 316.065 446.226 316.41L444.179 323.793H446.387L447.767 318.641H451.999L451.7 319.768C451.332 321.125 451.148 322.068 451.148 322.597C451.148 323.609 451.7 324.115 452.804 324.115C454.023 324.115 455.219 322.896 456.392 320.458L455.909 320.159ZM468.211 320.159C467.866 320.964 467.475 321.654 467.061 322.229C466.67 322.781 466.348 323.057 466.095 323.057C465.75 323.057 465.589 322.873 465.589 322.482C465.589 321.999 465.773 321.148 466.118 319.883L467.935 313.259H465.773L465.129 315.697C464.968 313.949 464.025 312.937 462.622 312.937C459.678 312.845 456.872 316.985 456.964 320.573C456.964 322.758 457.999 324.115 459.839 324.115C461.472 324.115 463.059 322.896 463.956 320.803C463.795 321.47 463.703 321.953 463.703 322.275C463.703 323.494 464.163 324.115 465.06 324.115C466.325 324.115 467.544 322.896 468.717 320.458L468.211 320.159ZM460.644 323.264C459.655 323.264 459.057 322.482 459.057 320.918C459.057 320.021 459.218 319.009 459.563 317.928C459.908 316.847 460.391 315.881 461.012 315.053C461.656 314.202 462.346 313.788 463.059 313.788C463.956 313.788 464.646 314.57 464.646 316.249C464.646 317.146 464.485 318.135 464.14 319.216C463.795 320.297 463.312 321.24 462.668 322.045C462.047 322.85 461.357 323.264 460.644 323.264ZM487.501 320.159C486.742 321.815 485.845 323.057 485.316 323.057C485.017 323.057 484.856 322.873 484.856 322.505C484.856 322.022 484.971 321.378 485.224 320.527L486.236 316.985C486.466 316.203 486.581 315.513 486.581 314.915C486.581 313.604 485.914 312.937 484.557 312.937C483.706 312.937 482.786 313.397 481.843 314.294C480.9 315.191 480.118 316.318 479.497 317.675C479.842 316.41 480.003 315.467 480.003 314.846C480.003 313.581 479.428 312.937 478.255 312.937C477.381 312.937 476.461 313.374 475.518 314.248C474.575 315.122 473.793 316.272 473.172 317.675C473.586 316.088 473.793 314.984 473.793 314.386C473.793 313.443 473.448 312.937 472.413 312.937C471.033 312.937 469.906 314.294 468.802 316.594L469.308 316.893C470.021 315.237 470.918 313.995 471.493 313.995C471.792 313.995 471.953 314.179 471.953 314.547C471.953 314.846 471.838 315.467 471.585 316.41L469.607 323.793H471.769L472.873 319.699C473.218 318.48 473.839 317.238 474.736 315.973C475.633 314.708 476.415 314.087 477.036 314.087C477.772 314.087 478.025 314.409 478.025 315.237C478.025 315.697 477.91 316.364 477.68 317.261L475.886 323.793H478.048L479.175 319.699C479.497 318.526 480.118 317.307 481.015 316.019C481.935 314.731 482.717 314.087 483.338 314.087C484.097 314.087 484.35 314.409 484.35 315.237C484.35 315.674 484.235 316.364 483.982 317.261L483.315 319.768C482.947 321.079 482.763 322.022 482.763 322.597C482.763 323.609 483.292 324.115 484.373 324.115C485.753 324.115 486.88 322.758 487.984 320.458L487.501 320.159ZM495.956 322.689C495.956 323.609 496.324 324.115 497.359 324.115C498.601 324.115 499.797 322.896 500.97 320.481L500.464 320.182C499.59 322.114 498.854 323.08 498.256 323.08C497.957 323.08 497.796 322.896 497.796 322.528C497.796 322.137 497.911 321.516 498.164 320.665L500.211 313.259H497.98L496.968 317.123C496.623 318.434 496.002 319.722 495.082 321.033C494.185 322.344 493.357 322.988 492.644 322.988C492.023 322.988 491.724 322.597 491.724 321.792C491.724 321.332 491.839 320.665 492.069 319.814L492.736 317.307C493.127 315.858 493.311 314.915 493.311 314.478C493.311 313.443 492.759 312.937 491.678 312.937C490.413 312.937 489.217 314.156 488.067 316.594L488.573 316.893C489.447 314.961 490.16 313.995 490.735 313.995C491.034 313.995 491.195 314.179 491.195 314.547C491.172 315.122 491.034 315.789 490.827 316.548L489.815 320.067C489.608 320.78 489.493 321.47 489.493 322.091C489.493 323.448 490.206 324.115 491.609 324.115C492.529 324.115 493.426 323.678 494.3 322.804C495.197 321.907 495.956 320.78 496.577 319.4C496.163 320.826 495.956 321.93 495.956 322.689ZM510.631 315.03C510.631 313.627 509.366 312.937 507.549 312.937C506.376 312.937 505.295 313.305 504.329 314.064C503.386 314.8 502.65 315.697 502.167 316.778C501.684 317.836 501.454 318.917 501.454 319.998C501.454 322.413 502.627 324.115 505.111 324.115C506.56 324.115 507.733 323.77 508.584 323.08C509.435 322.39 509.872 321.539 509.872 320.504C509.872 319.308 509.182 318.204 507.457 318.089C508.515 317.813 509.297 317.376 509.826 316.755C510.355 316.134 510.631 315.559 510.631 315.03ZM507.871 320.389C507.871 321.286 507.618 322.022 507.089 322.597C506.583 323.172 506.031 323.448 505.41 323.448C504.191 323.448 503.57 322.505 503.57 320.596C503.57 320.021 503.616 319.469 503.685 318.94C504.559 318.595 505.41 318.434 506.261 318.434C507.25 318.434 507.871 319.285 507.871 320.389ZM507.319 313.581C508.147 313.581 508.768 314.11 508.768 315.03C508.768 316.019 507.963 317.215 506.468 317.79C505.456 317.882 504.559 318.066 503.777 318.319C503.984 317.008 504.421 315.904 505.088 314.984C505.755 314.041 506.491 313.581 507.319 313.581ZM521.493 314.294C521.493 313.65 521.102 312.983 520.527 312.983C520.044 312.983 519.653 313.397 519.653 313.949C519.653 314.432 519.975 314.915 520.596 315.398C520.389 316.985 519.561 319.193 518.089 321.976C517.514 318.664 516.985 316.341 516.479 314.984C515.996 313.627 515.26 312.937 514.294 312.937C512.914 312.937 512.086 314.271 511.258 316.64L511.764 316.87C512.477 315.053 512.914 314.271 513.443 314.271C513.926 314.271 514.363 314.984 514.777 316.387C515.191 317.79 515.766 320.343 516.479 324.069C515.03 326.346 513.466 327.749 512.339 327.749C511.879 327.749 511.603 327.68 511.488 327.519C512.04 327.519 512.569 327.105 512.569 326.461C512.569 325.886 512.132 325.334 511.557 325.334C511.005 325.334 510.361 325.748 510.361 326.737C510.361 327.588 511.005 328.37 512.293 328.37C513.834 328.37 515.835 326.553 517.652 323.793C518.848 321.976 519.791 320.205 520.458 318.526C521.148 316.847 521.493 315.421 521.493 314.294ZM524.519 319.032C524.818 317.836 525.324 316.502 526.037 315.053C526.75 313.581 527.371 312.247 527.9 311.074C528.429 309.878 528.682 308.843 528.682 307.946C528.682 307.302 528.176 306.957 527.647 306.957C526.52 306.957 525.761 308.061 525.324 309.97C525.117 310.913 524.956 311.856 524.841 312.822C524.726 313.788 524.565 314.869 524.404 316.088C524.243 317.307 524.082 318.273 523.898 319.032H524.519ZM524.45 322.689C524.45 321.953 523.898 321.355 523.231 321.355C522.518 321.355 521.989 321.999 521.989 322.735C521.989 323.448 522.518 324 523.185 324C523.898 324 524.45 323.402 524.45 322.689Z" fill="black"/>
</g>
<defs>
<clipPath id="clip0_1543_3085">
<rect width="600" height="600" fill="white" transform="translate(0 0.792969)"/>
</clipPath>
</defs>
</svg>
