<svg width="154" height="127" viewBox="0 0 154 127" fill="none" xmlns="http://www.w3.org/2000/svg">
<g filter="url(#filter0_d_1661_3136)">
<path fill-rule="evenodd" clip-rule="evenodd" d="M38.9266 31.1677L31.9266 31.167L38.9266 38.167L31.9266 45.167L38.9266 52.167L31.9266 59.167L38.9266 66.167L31.9266 73.167L38.9266 80.167L31.9266 87.167L42.3125 87.168V87.167H107.927L114.927 87.167L107.927 80.167L114.927 73.167L107.927 66.167L114.927 59.167L107.927 52.167L114.927 45.167L107.927 38.167L114.927 31.167H107.927H103.188H38.9266V31.1677Z" fill="#E8FF4C"/>
<path d="M68.2429 58.707V59.697C69.5929 60.327 70.6729 61.317 71.4829 62.667C72.3229 64.017 72.7429 65.502 72.7429 67.122C72.7429 69.822 71.8129 72.012 69.9529 73.692C68.0929 75.342 65.3929 76.167 61.8529 76.167H47.4979V44.037H61.4929C64.7629 44.037 67.2829 44.817 69.0529 46.377C70.8529 47.907 71.7529 49.842 71.7529 52.182C71.7529 55.272 70.5829 57.447 68.2429 58.707ZM51.5479 47.637V57.672H61.4029C65.5729 57.672 67.6579 55.962 67.6579 52.542C67.6579 50.862 67.0579 49.632 65.8579 48.852C64.6579 48.042 63.1429 47.637 61.3129 47.637H51.5479ZM51.5479 72.567H61.5829C63.6529 72.567 65.3479 72.132 66.6679 71.262C67.9879 70.362 68.6479 68.877 68.6479 66.807C68.6479 64.857 67.9879 63.447 66.6679 62.577C65.3779 61.677 63.6979 61.227 61.6279 61.227H51.5479V72.567ZM94.3956 59.067V60.057C95.6256 60.477 96.7506 61.362 97.7706 62.712C98.7906 64.032 99.3006 65.652 99.3006 67.572C99.3006 70.212 98.2506 72.402 96.1506 74.142C94.0806 75.882 91.3356 76.752 87.9156 76.752C84.4956 76.752 81.7356 75.882 79.6356 74.142C77.5656 72.402 76.5306 70.212 76.5306 67.572C76.5306 65.682 77.0406 64.062 78.0606 62.712C79.0806 61.362 80.2056 60.477 81.4356 60.057V59.067C80.4456 58.647 79.5306 57.852 78.6906 56.682C77.8806 55.512 77.4756 54.102 77.4756 52.452C77.4756 49.962 78.4506 47.937 80.4006 46.377C82.3506 44.817 84.8556 44.037 87.9156 44.037C90.9756 44.037 93.4806 44.817 95.4306 46.377C97.3806 47.937 98.3556 49.962 98.3556 52.452C98.3556 54.042 97.9356 55.437 97.0956 56.637C96.2556 57.837 95.3556 58.647 94.3956 59.067ZM92.5956 48.852C91.3656 47.922 89.8056 47.457 87.9156 47.457C86.0256 47.457 84.4506 47.922 83.1906 48.852C81.9606 49.752 81.3456 51.012 81.3456 52.632C81.3456 54.252 81.9606 55.527 83.1906 56.457C84.4506 57.387 86.0256 57.852 87.9156 57.852C89.8056 57.852 91.3656 57.387 92.5956 56.457C93.8556 55.527 94.4856 54.252 94.4856 52.632C94.4856 51.012 93.8556 49.752 92.5956 48.852ZM82.4256 71.622C83.7756 72.702 85.6056 73.242 87.9156 73.242C90.2256 73.242 92.0406 72.702 93.3606 71.622C94.7106 70.512 95.3856 69.042 95.3856 67.212C95.3856 65.352 94.7256 63.897 93.4056 62.847C92.0856 61.797 90.2556 61.272 87.9156 61.272C85.5756 61.272 83.7456 61.797 82.4256 62.847C81.1056 63.897 80.4456 65.352 80.4456 67.212C80.4456 69.042 81.1056 70.512 82.4256 71.622Z" fill="#291A15"/>
</g>
<defs>
<filter id="filter0_d_1661_3136" x="0.926605" y="0.166992" width="153" height="126.001" filterUnits="userSpaceOnUse" color-interpolation-filters="sRGB">
<feFlood flood-opacity="0" result="BackgroundImageFix"/>
<feColorMatrix in="SourceAlpha" type="matrix" values="0 0 0 0 0 0 0 0 0 0 0 0 0 0 0 0 0 0 127 0" result="hardAlpha"/>
<feOffset dx="4" dy="4"/>
<feGaussianBlur stdDeviation="17.5"/>
<feComposite in2="hardAlpha" operator="out"/>
<feColorMatrix type="matrix" values="0 0 0 0 0.170718 0 0 0 0 0.108998 0 0 0 0 0.108998 0 0 0 0.1 0"/>
<feBlend mode="normal" in2="BackgroundImageFix" result="effect1_dropShadow_1661_3136"/>
<feBlend mode="normal" in="SourceGraphic" in2="effect1_dropShadow_1661_3136" result="shape"/>
</filter>
</defs>
</svg>
