<svg width="600" height="601" viewBox="0 0 600 601" fill="none" xmlns="http://www.w3.org/2000/svg">
<g clip-path="url(#clip0_1543_3360)">
<rect width="600" height="600" transform="translate(0 0.792969)" fill="white"/>
<rect x="582" y="0.792969" width="18" height="600" fill="#8EA5EB" fill-opacity="0.2"/>
<rect y="0.792969" width="18" height="600" fill="#8EA5EB" fill-opacity="0.2"/>
<rect x="18" y="18.793" width="23" height="563.793" fill="#8EA5EB" fill-opacity="0.2"/>
<rect x="18" y="18.793" width="46" height="563.793" fill="#8EA5EB" fill-opacity="0.2"/>
<rect x="582" y="0.792969" width="18" height="564" transform="rotate(90 582 0.792969)" fill="#8EA5EB" fill-opacity="0.2"/>
<rect x="582" y="582.586" width="18" height="564" transform="rotate(90 582 582.586)" fill="#8EA5EB" fill-opacity="0.2"/>
<path d="M599.5 20.793C599.5 10.0234 590.77 1.29297 580 1.29297H0.5V600.293H580C590.77 600.293 599.5 591.563 599.5 580.793V20.793Z" stroke="black"/>
<path d="M141.486 275.293V241.735H148.536L156.996 257.48H158.03L166.349 241.735H173.446V275.293H169.31V246.529H168.276L159.675 262.462H155.257L146.656 246.529H145.622V275.293H141.486ZM201.332 262.039V263.402H183.284C183.346 266.253 184.02 268.478 185.305 270.076C186.589 271.643 188.438 272.426 190.851 272.426C194.109 272.426 196.115 271.204 196.867 268.76H200.909C200.501 270.891 199.42 272.614 197.666 273.93C195.942 275.246 193.671 275.904 190.851 275.904C187.247 275.904 184.427 274.729 182.391 272.379C180.354 270.029 179.336 266.974 179.336 263.214C179.336 259.517 180.354 256.556 182.391 254.331C184.427 252.106 187.216 250.994 190.757 250.994C194.109 250.994 196.694 252.059 198.512 254.19C200.329 256.289 201.269 258.906 201.332 262.039ZM190.663 254.472C188.626 254.472 186.997 255.005 185.775 256.07C184.553 257.104 183.801 258.436 183.519 260.065H197.196C197.07 258.467 196.428 257.135 195.269 256.07C194.109 255.005 192.574 254.472 190.663 254.472ZM227.856 271.815H232.227V282.014H228.326V275.293H207.834V282.014H203.933V271.815H207.082C209.024 267.679 209.996 263.104 209.996 258.091V251.605H227.856V271.815ZM223.861 271.815V255.083H213.709V258.091C213.709 263.449 212.847 268.024 211.124 271.815H223.861ZM242.254 275.293H236.614V251.605H240.515V269.935H241.549L251.936 251.605H257.764V275.293H253.863V256.963H252.829L242.254 275.293ZM279.772 275.293V272.802H278.738C277.108 274.87 274.649 275.904 271.359 275.904C268.758 275.904 266.69 275.152 265.155 273.648C263.619 272.144 262.852 270.327 262.852 268.196C262.852 266.034 263.604 264.185 265.108 262.65C266.612 261.115 268.883 260.347 271.923 260.347H279.631V259.407C279.631 257.903 279.161 256.712 278.221 255.835C277.281 254.926 275.824 254.472 273.85 254.472C270.403 254.472 268.57 255.616 268.351 257.903H264.356C264.512 255.741 265.437 254.049 267.129 252.827C268.852 251.605 271.061 250.994 273.756 250.994C276.795 250.994 279.176 251.699 280.9 253.109C282.654 254.519 283.532 256.54 283.532 259.172V275.293H279.772ZM272.346 272.426C274.32 272.426 276.027 271.784 277.469 270.499C278.91 269.183 279.631 267.585 279.631 265.705V263.543H272.534C268.742 263.543 266.847 265.047 266.847 268.055C266.847 269.402 267.317 270.468 268.257 271.251C269.228 272.034 270.591 272.426 272.346 272.426ZM301.328 264.013H288.497V260.488H301.328V264.013ZM323.406 268.149H327.401C326.931 270.53 325.818 272.426 324.064 273.836C322.34 275.215 320.131 275.904 317.437 275.904C313.865 275.904 311.045 274.745 308.977 272.426C306.94 270.076 305.922 267.084 305.922 263.449C305.922 259.783 306.94 256.791 308.977 254.472C311.013 252.153 313.833 250.994 317.437 250.994C320.163 250.994 322.372 251.683 324.064 253.062C325.787 254.409 326.852 256.211 327.26 258.467H323.265C322.419 255.804 320.476 254.472 317.437 254.472C314.899 254.472 313.003 255.318 311.75 257.01C310.528 258.671 309.917 260.786 309.917 263.355C309.917 265.956 310.543 268.118 311.797 269.841C313.05 271.564 314.93 272.426 317.437 272.426C320.758 272.426 322.748 271 323.406 268.149ZM353.097 262.039V263.402H335.049C335.112 266.253 335.786 268.478 337.07 270.076C338.355 271.643 340.204 272.426 342.616 272.426C345.875 272.426 347.88 271.204 348.632 268.76H352.674C352.267 270.891 351.186 272.614 349.431 273.93C347.708 275.246 345.436 275.904 342.616 275.904C339.013 275.904 336.193 274.729 334.156 272.379C332.12 270.029 331.101 266.974 331.101 263.214C331.101 259.517 332.12 256.556 334.156 254.331C336.193 252.106 338.982 250.994 342.522 250.994C345.875 250.994 348.46 252.059 350.277 254.19C352.095 256.289 353.035 258.906 353.097 262.039ZM342.428 254.472C340.392 254.472 338.762 255.005 337.54 256.07C336.318 257.104 335.566 258.436 335.284 260.065H348.961C348.836 258.467 348.194 257.135 347.034 256.07C345.875 255.005 344.34 254.472 342.428 254.472ZM369.892 254.472C367.417 254.472 365.552 255.334 364.299 257.057C363.077 258.78 362.466 260.911 362.466 263.449C362.466 265.987 363.077 268.118 364.299 269.841C365.552 271.564 367.417 272.426 369.892 272.426C372.211 272.426 373.997 271.611 375.25 269.982C376.535 268.321 377.177 266.144 377.177 263.449C377.177 260.754 376.535 258.592 375.25 256.963C373.997 255.302 372.211 254.472 369.892 254.472ZM358.518 251.605H362.372V254.143H363.406C365.098 252.044 367.558 250.994 370.785 250.994C373.981 250.994 376.503 252.169 378.352 254.519C380.232 256.869 381.172 259.846 381.172 263.449C381.172 267.115 380.232 270.107 378.352 272.426C376.503 274.745 373.981 275.904 370.785 275.904C367.526 275.904 365.114 274.854 363.547 272.755H362.513V284.693H358.518V251.605ZM403.32 262.227V263.261C404.479 263.543 405.404 264.17 406.093 265.141C406.814 266.112 407.174 267.334 407.174 268.807C407.174 273.131 404.385 275.293 398.808 275.293H386.635V251.605H398.385C400.766 251.605 402.599 252.138 403.884 253.203C405.2 254.237 405.858 255.694 405.858 257.574C405.858 258.671 405.607 259.626 405.106 260.441C404.636 261.256 404.041 261.851 403.32 262.227ZM390.583 271.909H398.573C401.644 271.909 403.179 270.734 403.179 268.384C403.179 266.003 401.644 264.812 398.573 264.812H390.583V271.909ZM390.583 254.989V261.428H398.009C399.356 261.428 400.328 261.13 400.923 260.535C401.55 259.94 401.863 259.172 401.863 258.232C401.863 256.07 400.578 254.989 398.009 254.989H390.583ZM418.235 275.293H412.595V251.605H416.496V269.935H417.53L427.917 251.605H433.745V275.293H429.844V256.963H428.81L418.235 275.293ZM456.693 268.149H460.688C460.218 270.53 459.106 272.426 457.351 273.836C455.628 275.215 453.419 275.904 450.724 275.904C447.152 275.904 444.332 274.745 442.264 272.426C440.227 270.076 439.209 267.084 439.209 263.449C439.209 259.783 440.227 256.791 442.264 254.472C444.301 252.153 447.121 250.994 450.724 250.994C453.45 250.994 455.659 251.683 457.351 253.062C459.074 254.409 460.14 256.211 460.547 258.467H456.552C455.706 255.804 453.763 254.472 450.724 254.472C448.186 254.472 446.29 255.318 445.037 257.01C443.815 258.671 443.204 260.786 443.204 263.355C443.204 265.956 443.831 268.118 445.084 269.841C446.337 271.564 448.217 272.426 450.724 272.426C454.045 272.426 456.035 271 456.693 268.149ZM171.652 304.386C171.652 301.519 169.067 300.109 165.354 300.109C162.957 300.109 160.748 300.861 158.774 302.412C156.847 303.916 155.343 305.749 154.356 307.958C153.369 310.12 152.899 312.329 152.899 314.538C152.899 319.473 155.296 322.951 160.372 322.951C163.333 322.951 165.73 322.246 167.469 320.836C169.208 319.426 170.101 317.687 170.101 315.572C170.101 313.128 168.691 310.872 165.166 310.637C167.328 310.073 168.926 309.18 170.007 307.911C171.088 306.642 171.652 305.467 171.652 304.386ZM166.012 315.337C166.012 317.17 165.495 318.674 164.414 319.849C163.38 321.024 162.252 321.588 160.983 321.588C158.492 321.588 157.223 319.661 157.223 315.76C157.223 314.585 157.317 313.457 157.458 312.376C159.244 311.671 160.983 311.342 162.722 311.342C164.743 311.342 166.012 313.081 166.012 315.337ZM164.884 301.425C166.576 301.425 167.845 302.506 167.845 304.386C167.845 306.407 166.2 308.851 163.145 310.026C161.077 310.214 159.244 310.59 157.646 311.107C158.069 308.428 158.962 306.172 160.325 304.292C161.688 302.365 163.192 301.425 164.884 301.425ZM188.903 320.037C188.903 321.917 189.655 322.951 191.77 322.951C194.308 322.951 196.752 320.46 199.149 315.525L198.115 314.914C196.329 318.862 194.825 320.836 193.603 320.836C192.992 320.836 192.663 320.46 192.663 319.708C192.663 318.909 192.898 317.64 193.415 315.901L197.598 300.767H193.039L190.971 308.663C190.266 311.342 188.997 313.974 187.117 316.653C185.284 319.332 183.592 320.648 182.135 320.648C180.866 320.648 180.255 319.849 180.255 318.204C180.255 317.264 180.49 315.901 180.96 314.162L182.323 309.039C183.122 306.078 183.498 304.151 183.498 303.258C183.498 301.143 182.37 300.109 180.161 300.109C177.576 300.109 175.132 302.6 172.782 307.582L173.816 308.193C175.602 304.245 177.059 302.271 178.234 302.271C178.845 302.271 179.174 302.647 179.174 303.399C179.127 304.574 178.845 305.937 178.422 307.488L176.354 314.679C175.931 316.136 175.696 317.546 175.696 318.815C175.696 321.588 177.153 322.951 180.02 322.951C181.9 322.951 183.733 322.058 185.519 320.272C187.352 318.439 188.903 316.136 190.172 313.316C189.326 316.23 188.903 318.486 188.903 320.037ZM237.314 314.867C235.763 318.251 233.93 320.789 232.849 320.789C232.238 320.789 231.909 320.413 231.909 319.661C231.909 318.674 232.144 317.358 232.661 315.619L234.729 308.381C235.199 306.783 235.434 305.373 235.434 304.151C235.434 301.472 234.071 300.109 231.298 300.109C229.559 300.109 227.679 301.049 225.752 302.882C223.825 304.715 222.227 307.018 220.958 309.791C221.663 307.206 221.992 305.279 221.992 304.01C221.992 301.425 220.817 300.109 218.42 300.109C216.634 300.109 214.754 301.002 212.827 302.788C210.9 304.574 209.302 306.924 208.033 309.791C208.879 306.548 209.302 304.292 209.302 303.07C209.302 301.143 208.597 300.109 206.482 300.109C203.662 300.109 201.359 302.882 199.103 307.582L200.137 308.193C201.594 304.809 203.427 302.271 204.602 302.271C205.213 302.271 205.542 302.647 205.542 303.399C205.542 304.01 205.307 305.279 204.79 307.206L200.748 322.293H205.166L207.422 313.927C208.127 311.436 209.396 308.898 211.229 306.313C213.062 303.728 214.66 302.459 215.929 302.459C217.433 302.459 217.95 303.117 217.95 304.809C217.95 305.749 217.715 307.112 217.245 308.945L213.579 322.293H217.997L220.3 313.927C220.958 311.53 222.227 309.039 224.06 306.407C225.94 303.775 227.538 302.459 228.807 302.459C230.358 302.459 230.875 303.117 230.875 304.809C230.875 305.702 230.64 307.112 230.123 308.945L228.76 314.068C228.008 316.747 227.632 318.674 227.632 319.849C227.632 321.917 228.713 322.951 230.922 322.951C233.742 322.951 236.045 320.178 238.301 315.478L237.314 314.867ZM262.206 314.867C261.501 316.512 260.702 317.922 259.856 319.097C259.057 320.225 258.399 320.789 257.882 320.789C257.177 320.789 256.848 320.413 256.848 319.614C256.848 318.627 257.224 316.888 257.929 314.303L261.642 300.767H257.224L255.908 305.749C255.579 302.177 253.652 300.109 250.785 300.109C244.769 299.921 239.035 308.381 239.223 315.713C239.223 320.178 241.338 322.951 245.098 322.951C248.435 322.951 251.678 320.46 253.511 316.183C253.182 317.546 252.994 318.533 252.994 319.191C252.994 321.682 253.934 322.951 255.767 322.951C258.352 322.951 260.843 320.46 263.24 315.478L262.206 314.867ZM246.743 321.212C244.722 321.212 243.5 319.614 243.5 316.418C243.5 314.585 243.829 312.517 244.534 310.308C245.239 308.099 246.226 306.125 247.495 304.433C248.811 302.694 250.221 301.848 251.678 301.848C253.511 301.848 254.921 303.446 254.921 306.877C254.921 308.71 254.592 310.731 253.887 312.94C253.182 315.149 252.195 317.076 250.879 318.721C249.61 320.366 248.2 321.212 246.743 321.212ZM264.93 321.87C264.178 321.87 263.802 321.635 263.802 321.118C265.071 321.118 265.729 320.225 265.729 319.097C265.729 318.016 264.977 317.17 264.084 317.17C262.815 317.17 261.875 318.439 261.875 319.896C261.875 321.588 263.238 322.904 264.883 322.904C266.434 322.904 267.656 321.87 268.69 320.413C269.395 319.473 270.147 317.546 270.57 316.277C270.805 315.619 271.134 314.726 271.463 313.598L272.309 310.731C272.544 309.932 272.826 308.851 273.155 307.488L274.095 304.151C274.941 306.736 275.458 312.893 275.599 322.622H276.821L288.618 303.258L285.469 314.961C284.858 317.17 284.529 318.815 284.529 319.896C284.529 321.729 285.61 322.951 287.819 322.951C290.498 322.951 293.036 320.46 295.386 315.525L294.399 314.914C292.848 318.345 291.109 320.836 289.934 320.836C289.276 320.836 288.947 320.413 288.947 319.614C288.947 319.003 289.182 317.734 289.699 315.807L293.788 300.767H288.618L279.547 316.183C279.265 305.467 277.479 300.109 274.142 300.109C271.369 300.109 268.737 302.647 266.293 307.676L267.374 308.146C268.925 304.433 270.805 302.412 272.262 302.412C272.544 302.412 272.826 302.506 273.061 302.694C271.087 310.355 269.583 315.431 268.596 318.016C267.609 320.601 266.387 321.87 264.93 321.87ZM311.928 320.037C311.928 321.917 312.68 322.951 314.795 322.951C317.333 322.951 319.777 320.46 322.174 315.525L321.14 314.914C319.354 318.862 317.85 320.836 316.628 320.836C316.017 320.836 315.688 320.46 315.688 319.708C315.688 318.909 315.923 317.64 316.44 315.901L320.623 300.767H316.064L313.996 308.663C313.291 311.342 312.022 313.974 310.142 316.653C308.309 319.332 306.617 320.648 305.16 320.648C303.891 320.648 303.28 319.849 303.28 318.204C303.28 317.264 303.515 315.901 303.985 314.162L305.348 309.039C306.147 306.078 306.523 304.151 306.523 303.258C306.523 301.143 305.395 300.109 303.186 300.109C300.601 300.109 298.157 302.6 295.807 307.582L296.841 308.193C298.627 304.245 300.084 302.271 301.259 302.271C301.87 302.271 302.199 302.647 302.199 303.399C302.152 304.574 301.87 305.937 301.447 307.488L299.379 314.679C298.956 316.136 298.721 317.546 298.721 318.815C298.721 321.588 300.178 322.951 303.045 322.951C304.925 322.951 306.758 322.058 308.544 320.272C310.377 318.439 311.928 316.136 313.197 313.316C312.351 316.23 311.928 318.486 311.928 320.037ZM347.884 314.867C346.051 318.815 344.594 320.789 343.419 320.789C342.761 320.789 342.432 320.413 342.432 319.614C342.432 318.815 342.714 317.499 343.231 315.713L347.414 300.767H342.902L340.364 310.12H331.669L332.139 308.522C332.75 306.313 333.079 304.48 333.079 303.117C333.079 301.284 331.951 300.109 329.742 300.109C327.157 300.109 324.666 302.6 322.363 307.582L323.35 308.193C325.183 304.245 326.687 302.271 327.862 302.271C328.52 302.271 328.849 302.647 328.849 303.399C328.943 304.198 328.238 306.501 328.097 307.206L323.914 322.293H328.426L331.246 311.765H339.894L339.283 314.068C338.531 316.841 338.155 318.768 338.155 319.849C338.155 321.917 339.283 322.951 341.539 322.951C344.03 322.951 346.474 320.46 348.871 315.478L347.884 314.867ZM374.808 314.867C372.975 318.815 371.518 320.789 370.343 320.789C369.685 320.789 369.356 320.413 369.356 319.614C369.356 318.815 369.638 317.499 370.155 315.713L374.338 300.767H369.826L367.288 310.12H358.593L359.063 308.522C359.674 306.313 360.003 304.48 360.003 303.117C360.003 301.284 358.875 300.109 356.666 300.109C354.081 300.109 351.59 302.6 349.287 307.582L350.274 308.193C352.107 304.245 353.611 302.271 354.786 302.271C355.444 302.271 355.773 302.647 355.773 303.399C355.867 304.198 355.162 306.501 355.021 307.206L350.838 322.293H355.35L358.17 311.765H366.818L366.207 314.068C365.455 316.841 365.079 318.768 365.079 319.849C365.079 321.917 366.207 322.951 368.463 322.951C370.954 322.951 373.398 320.46 375.795 315.478L374.808 314.867ZM384.999 321.635C382.367 321.635 381.286 319.285 381.286 314.256C381.145 308.757 384.67 301.378 388.947 301.472C391.438 301.472 392.66 303.728 392.66 308.287C392.66 311.859 391.626 316.136 389.182 319.285C387.96 320.836 386.55 321.635 384.999 321.635ZM396.984 308.898C396.984 303.775 394.117 300.109 389.229 300.109C385.704 300.109 382.79 301.472 380.487 304.245C378.184 306.971 377.009 310.308 377.009 314.303C377.009 319.426 379.876 322.951 384.811 322.951C388.242 322.951 391.109 321.541 393.459 318.674C395.809 315.807 396.984 312.517 396.984 308.898ZM415.283 305.373C415.283 302.177 412.886 300.109 408.703 300.109C404.943 300.109 401.23 301.895 399.209 306.172L400.008 306.783C401.935 303.54 404.473 301.895 407.669 301.895C409.69 301.895 411.335 303.023 411.335 304.95C411.335 308.992 406.635 309.697 402.922 311.06C400.431 312 398.363 314.115 398.363 317.64C398.363 320.789 400.901 322.951 405.366 322.951C408.515 322.951 412.134 320.836 414.061 316.935L413.215 316.465C411.523 319.332 408.609 321.259 406.165 321.259C403.862 321.259 402.264 320.225 402.264 318.204C402.264 314.35 406.964 313.598 410.677 312.141C413.262 311.154 415.283 308.898 415.283 305.373ZM424.618 321.635C421.986 321.635 420.905 319.285 420.905 314.256C420.764 308.757 424.289 301.378 428.566 301.472C431.057 301.472 432.279 303.728 432.279 308.287C432.279 311.859 431.245 316.136 428.801 319.285C427.579 320.836 426.169 321.635 424.618 321.635ZM436.603 308.898C436.603 303.775 433.736 300.109 428.848 300.109C425.323 300.109 422.409 301.472 420.106 304.245C417.803 306.971 416.628 310.308 416.628 314.303C416.628 319.426 419.495 322.951 424.43 322.951C427.861 322.951 430.728 321.541 433.078 318.674C435.428 315.807 436.603 312.517 436.603 308.898ZM238.981 335.359C238.558 336.252 237.947 336.91 237.148 337.286C236.631 337.521 234.469 338.038 230.662 338.837C226.338 339.777 223.33 341.939 221.309 345.652C220.322 347.485 219.57 349.412 219.006 351.386C218.442 353.313 217.925 355.71 217.455 358.577C217.314 359.376 217.22 360.41 217.22 361.585C217.22 366.473 219.57 369.763 223.894 369.763C227.513 369.763 230.662 368.4 233.294 365.721C235.973 363.042 237.289 359.846 237.289 356.18C237.289 353.783 236.631 351.762 235.315 350.164C233.999 348.519 232.213 347.72 230.004 347.72C225.492 347.72 221.638 350.728 219.429 355.757C219.758 354.253 220.04 353.078 220.275 352.185C220.51 351.292 220.886 350.258 221.356 349.177C221.873 348.096 222.437 347.203 223.048 346.545C224.364 345.229 226.432 343.913 229.205 343.302C232.166 342.597 234.281 342.033 235.456 341.516C236.678 340.999 237.571 340.341 238.135 339.542C238.746 338.743 239.357 337.333 239.968 335.359H238.981ZM232.918 355.428C232.918 358.107 232.213 361.303 230.944 363.982C229.675 366.661 227.513 368.635 225.21 368.635C222.719 368.635 221.403 366.332 221.403 362.431C221.403 359.282 222.108 356.274 223.518 353.407C224.975 350.54 226.808 349.13 229.017 349.13C231.508 349.13 232.918 351.715 232.918 355.428ZM262.311 361.867C261.606 363.512 260.807 364.922 259.961 366.097C259.162 367.225 258.504 367.789 257.987 367.789C257.282 367.789 256.953 367.413 256.953 366.614C256.953 365.627 257.329 363.888 258.034 361.303L261.747 347.767H257.329L256.013 352.749C255.684 349.177 253.757 347.109 250.89 347.109C244.874 346.921 239.14 355.381 239.328 362.713C239.328 367.178 241.443 369.951 245.203 369.951C248.54 369.951 251.783 367.46 253.616 363.183C253.287 364.546 253.099 365.533 253.099 366.191C253.099 368.682 254.039 369.951 255.872 369.951C258.457 369.951 260.948 367.46 263.345 362.478L262.311 361.867ZM246.848 368.212C244.827 368.212 243.605 366.614 243.605 363.418C243.605 361.585 243.934 359.517 244.639 357.308C245.344 355.099 246.331 353.125 247.6 351.433C248.916 349.694 250.326 348.848 251.783 348.848C253.616 348.848 255.026 350.446 255.026 353.877C255.026 355.71 254.697 357.731 253.992 359.94C253.287 362.149 252.3 364.076 250.984 365.721C249.715 367.366 248.305 368.212 246.848 368.212ZM264.989 369.81C266.305 369.81 267.386 369.246 268.326 367.789C269.266 366.332 269.924 365.11 270.723 362.525C271.146 361.256 271.475 360.128 271.71 359.141L272.791 355.146L273.966 351.01C274.342 349.647 274.859 349.083 276.034 349.083H277.867C279.371 349.083 280.123 349.929 280.123 351.621C280.123 352.185 279.982 352.937 279.747 353.83L277.209 362.901C276.786 364.358 276.551 365.815 276.551 367.178C276.551 368.823 277.82 369.951 279.935 369.951C282.614 369.951 285.105 367.46 287.502 362.525L286.468 361.914C284.635 365.862 283.178 367.836 282.003 367.836C281.392 367.836 281.063 367.413 281.063 366.567C281.063 365.768 281.345 364.452 281.862 362.572L284.165 354.347C284.447 353.36 284.588 352.373 284.588 351.433C284.588 348.989 283.178 347.767 280.405 347.767H270.112L269.736 349.083H271.616C272.415 349.083 272.838 349.365 272.838 349.976C272.838 350.023 272.791 350.399 272.65 351.01C270.864 358.013 269.454 362.713 268.42 365.157C267.433 367.554 266.258 368.776 264.895 368.776C264.237 368.776 263.908 368.541 263.908 368.024C265.177 368.024 265.835 367.131 265.835 366.003C265.835 364.922 265.083 364.076 264.19 364.076C262.921 364.076 261.981 365.345 261.981 366.802C261.981 368.494 263.344 369.81 264.989 369.81ZM311.661 361.867C310.956 363.512 310.157 364.922 309.311 366.097C308.512 367.225 307.854 367.789 307.337 367.789C306.632 367.789 306.303 367.413 306.303 366.614C306.303 365.627 306.679 363.888 307.384 361.303L311.097 347.767H306.679L305.363 352.749C305.034 349.177 303.107 347.109 300.24 347.109C294.224 346.921 288.49 355.381 288.678 362.713C288.678 367.178 290.793 369.951 294.553 369.951C297.89 369.951 301.133 367.46 302.966 363.183C302.637 364.546 302.449 365.533 302.449 366.191C302.449 368.682 303.389 369.951 305.222 369.951C307.807 369.951 310.298 367.46 312.695 362.478L311.661 361.867ZM296.198 368.212C294.177 368.212 292.955 366.614 292.955 363.418C292.955 361.585 293.284 359.517 293.989 357.308C294.694 355.099 295.681 353.125 296.95 351.433C298.266 349.694 299.676 348.848 301.133 348.848C302.966 348.848 304.376 350.446 304.376 353.877C304.376 355.71 304.047 357.731 303.342 359.94C302.637 362.149 301.65 364.076 300.334 365.721C299.065 367.366 297.655 368.212 296.198 368.212ZM338.626 361.867C336.793 365.815 335.336 367.789 334.161 367.789C333.503 367.789 333.174 367.413 333.174 366.614C333.174 365.815 333.456 364.499 333.973 362.713L338.156 347.767H333.644L331.106 357.12H322.411L322.881 355.522C323.492 353.313 323.821 351.48 323.821 350.117C323.821 348.284 322.693 347.109 320.484 347.109C317.899 347.109 315.408 349.6 313.105 354.582L314.092 355.193C315.925 351.245 317.429 349.271 318.604 349.271C319.262 349.271 319.591 349.647 319.591 350.399C319.685 351.198 318.98 353.501 318.839 354.206L314.656 369.293H319.168L321.988 358.765H330.636L330.025 361.068C329.273 363.841 328.897 365.768 328.897 366.849C328.897 368.917 330.025 369.951 332.281 369.951C334.772 369.951 337.216 367.46 339.613 362.478L338.626 361.867ZM359.017 351.762C359.017 348.754 356.432 347.109 353.001 347.109C349.57 347.109 346.703 348.519 344.353 351.386C342.003 354.253 340.828 357.543 340.828 361.303C340.828 363.888 341.58 365.956 343.084 367.554C344.635 369.152 346.609 369.951 349.006 369.951C352.531 369.951 355.633 367.413 357.748 362.901L356.761 362.431C354.928 366.238 352.672 368.118 349.993 368.118C347.22 368.118 345.34 365.439 345.34 361.35C345.34 357.449 346.139 354.347 347.737 351.95C349.335 349.553 351.168 348.331 353.283 348.331C355.868 348.331 357.607 349.741 357.607 351.574C357.184 351.151 356.62 350.916 355.962 350.916C354.787 350.916 353.8 352.279 353.8 353.595C353.8 354.723 354.411 355.851 355.962 355.851C357.842 355.851 359.017 353.642 359.017 351.762ZM382.793 361.867C382.088 363.512 381.289 364.922 380.443 366.097C379.644 367.225 378.986 367.789 378.469 367.789C377.764 367.789 377.435 367.413 377.435 366.614C377.435 365.627 377.811 363.888 378.516 361.303L382.229 347.767H377.811L376.495 352.749C376.166 349.177 374.239 347.109 371.372 347.109C365.356 346.921 359.622 355.381 359.81 362.713C359.81 367.178 361.925 369.951 365.685 369.951C369.022 369.951 372.265 367.46 374.098 363.183C373.769 364.546 373.581 365.533 373.581 366.191C373.581 368.682 374.521 369.951 376.354 369.951C378.939 369.951 381.43 367.46 383.827 362.478L382.793 361.867ZM367.33 368.212C365.309 368.212 364.087 366.614 364.087 363.418C364.087 361.585 364.416 359.517 365.121 357.308C365.826 355.099 366.813 353.125 368.082 351.433C369.398 349.694 370.808 348.848 372.265 348.848C374.098 348.848 375.508 350.446 375.508 353.877C375.508 355.71 375.179 357.731 374.474 359.94C373.769 362.149 372.782 364.076 371.466 365.721C370.197 367.366 368.787 368.212 367.33 368.212Z" fill="black"/>
<path fill-rule="evenodd" clip-rule="evenodd" d="M574.737 538.513C572.821 537.11 570.507 536.354 568.132 536.354H554.729L545.257 581.818H556.262L557.412 576.293L557.922 576.926C559.621 579.04 561.934 580.574 564.543 581.317C567.151 582.06 569.925 581.975 572.483 581.074C575.041 580.173 577.256 578.501 578.823 576.288C580.391 574.074 581.232 571.429 581.232 568.717C581.233 566.4 580.618 564.123 579.452 562.12C578.285 560.118 576.607 558.461 574.59 557.319L574.062 557.019L574.559 556.67C576.502 555.305 577.96 553.356 578.72 551.106C579.48 548.856 579.504 546.422 578.788 544.158C578.072 541.894 576.653 539.916 574.737 538.513ZM582 568.717C582 571.588 581.109 574.388 579.45 576.731C577.791 579.074 575.446 580.845 572.738 581.798C570.03 582.752 567.093 582.842 564.332 582.055C561.827 581.342 559.578 579.938 557.839 578.012L556.887 582.586H544.313L554.104 535.586L568.132 535.586C568.132 535.586 568.132 535.586 568.132 535.586C570.67 535.586 573.143 536.394 575.19 537.894C577.238 539.393 578.755 541.506 579.52 543.926C580.286 546.346 580.26 548.947 579.448 551.352C578.698 553.571 577.313 555.516 575.472 556.95C577.383 558.141 578.978 559.783 580.115 561.734C581.35 563.854 582.001 566.264 582 568.717Z" fill="black"/>
<path fill-rule="evenodd" clip-rule="evenodd" d="M556.958 547.528C556.956 549.321 557.387 551.088 558.213 552.68C559.04 554.271 560.238 555.64 561.706 556.67L562.203 557.019L561.674 557.318C559.657 558.46 557.98 560.117 556.813 562.12C555.646 564.123 555.031 566.399 555.032 568.717L554.264 568.717C554.263 566.263 554.914 563.853 556.149 561.733C557.286 559.782 558.881 558.141 560.792 556.95C559.438 555.896 558.325 554.561 557.532 553.034C556.649 551.333 556.188 549.444 556.19 547.527L556.958 547.528Z" fill="black"/>
<path d="M41.5 89.293H582" stroke="black"/>
<path d="M41.5 136.293H582" stroke="black"/>
<path d="M41.5 42.293H582" stroke="black"/>
<path d="M41.5 183.293H582" stroke="black"/>
<path d="M41.5 230.293H582" stroke="black"/>
<path d="M41.5 277.293H582" stroke="black"/>
<path d="M41.5 324.293H582" stroke="black"/>
<path d="M41.5 371.293H582" stroke="black"/>
<path d="M41.5 418.293H582" stroke="black"/>
<path d="M41.5 465.293H582" stroke="black"/>
<path d="M41.5 512.293H582" stroke="black"/>
<path d="M41.5 559.293H537.917" stroke="black"/>
<circle cx="20.75" cy="65.793" r="4.5" fill="black" stroke="black"/>
<circle cx="20.75" cy="112.793" r="4.5" fill="black" stroke="black"/>
<circle cx="20.75" cy="159.793" r="4.5" fill="black" stroke="black"/>
<circle cx="20.75" cy="206.793" r="4.5" fill="black" stroke="black"/>
<circle cx="20.75" cy="253.793" r="4.5" fill="black" stroke="black"/>
<circle cx="20.75" cy="300.793" r="4.5" fill="black" stroke="black"/>
<circle cx="20.75" cy="347.793" r="4.5" fill="black" stroke="black"/>
<circle cx="20.75" cy="394.793" r="4.5" fill="black" stroke="black"/>
<circle cx="20.75" cy="441.793" r="4.5" fill="black" stroke="black"/>
<circle cx="20.75" cy="488.793" r="4.5" fill="black" stroke="black"/>
<circle cx="20.75" cy="535.793" r="4.5" fill="black" stroke="black"/>
<path d="M21 70.793C21 59.195 11.598 49.793 0 49.793" stroke="black"/>
<path d="M21 117.73C21 106.132 11.598 96.7305 0 96.7305" stroke="black"/>
<path d="M21 164.668C21 153.07 11.598 143.668 0 143.668" stroke="black"/>
<path d="M21 211.605C21 200.007 11.598 190.605 0 190.605" stroke="black"/>
<path d="M21 258.543C21 246.945 11.598 237.543 0 237.543" stroke="black"/>
<path d="M21 305.48C21 293.882 11.598 284.48 0 284.48" stroke="black"/>
<path d="M21 352.418C21 340.82 11.598 331.418 0 331.418" stroke="black"/>
<path d="M21 399.793C21 388.195 11.598 378.793 0 378.793" stroke="black"/>
<path d="M21 446.793C21 435.195 11.598 425.793 0 425.793" stroke="black"/>
<path d="M21 493.793C21 482.195 11.598 472.793 0 472.793" stroke="black"/>
<path d="M21 540.793C21 529.195 11.598 519.793 0 519.793" stroke="black"/>
</g>
<defs>
<clipPath id="clip0_1543_3360">
<rect width="600" height="600" fill="white" transform="translate(0 0.792969)"/>
</clipPath>
</defs>
</svg>
