<svg width="600" height="601" viewBox="0 0 600 601" fill="none" xmlns="http://www.w3.org/2000/svg">
<g clip-path="url(#clip0_1543_2921)">
<rect width="600" height="600" transform="translate(0 0.792969)" fill="white"/>
<mask id="path-1-inside-1_1543_2921" fill="white">
<path fill-rule="evenodd" clip-rule="evenodd" d="M20 674.793C8.95431 674.793 -3.91404e-07 665.839 -8.74226e-07 654.793L-2.86747e-05 18.793C-2.91092e-05 8.85187 8.05884 0.792968 18 0.792968L150 0.792962C154.971 0.792962 159 4.82238 159 9.79296C159 14.7635 163.029 18.793 168 18.793L580 18.7929C591.046 18.7929 600 27.7472 600 38.7929L600 654.793C600 665.839 591.046 674.793 580 674.793L20 674.793Z"/>
</mask>
<path d="M-1.00003 18.793L-1 654.793L0.999999 654.793L0.999971 18.793L-1.00003 18.793ZM150 -0.207038L18 -0.207032L18 1.79297L150 1.79296L150 -0.207038ZM580 17.7929L168 17.793L168 19.793L580 19.7929L580 17.7929ZM601 654.793L601 38.7929L599 38.7929L599 654.793L601 654.793ZM20 675.793L580 675.793L580 673.793L20 673.793L20 675.793ZM599 654.793C599 665.286 590.493 673.793 580 673.793L580 675.793C591.598 675.793 601 666.391 601 654.793L599 654.793ZM580 19.7929C590.493 19.7929 599 28.2995 599 38.7929L601 38.7929C601 27.1949 591.598 17.7929 580 17.7929L580 19.7929ZM158 9.79296C158 15.3158 162.477 19.793 168 19.793L168 17.793C163.582 17.793 160 14.2112 160 9.79296L158 9.79296ZM150 1.79296C154.418 1.79296 158 5.37469 158 9.79296L160 9.79296C160 4.27013 155.523 -0.207038 150 -0.207038L150 1.79296ZM0.999971 18.793C0.999971 9.40411 8.61112 1.79297 18 1.79297L18 -0.207032C7.50655 -0.207032 -1.00003 8.29956 -1.00003 18.793L0.999971 18.793ZM-1 654.793C-1 666.391 8.40202 675.793 20 675.793L20 673.793C9.50659 673.793 1 665.286 0.999999 654.793L-1 654.793Z" fill="black" mask="url(#path-1-inside-1_1543_2921)"/>
<path d="M141.486 277.793V244.235H148.536L156.996 259.98H158.03L166.349 244.235H173.446V277.793H169.31V249.029H168.276L159.675 264.962H155.257L146.656 249.029H145.622V277.793H141.486ZM201.332 264.539V265.902H183.284C183.346 268.753 184.02 270.978 185.305 272.576C186.589 274.143 188.438 274.926 190.851 274.926C194.109 274.926 196.115 273.704 196.867 271.26H200.909C200.501 273.391 199.42 275.114 197.666 276.43C195.942 277.746 193.671 278.404 190.851 278.404C187.247 278.404 184.427 277.229 182.391 274.879C180.354 272.529 179.336 269.474 179.336 265.714C179.336 262.017 180.354 259.056 182.391 256.831C184.427 254.606 187.216 253.494 190.757 253.494C194.109 253.494 196.694 254.559 198.512 256.69C200.329 258.789 201.269 261.406 201.332 264.539ZM190.663 256.972C188.626 256.972 186.997 257.505 185.775 258.57C184.553 259.604 183.801 260.936 183.519 262.565H197.196C197.07 260.967 196.428 259.635 195.269 258.57C194.109 257.505 192.574 256.972 190.663 256.972ZM227.856 274.315H232.227V284.514H228.326V277.793H207.834V284.514H203.933V274.315H207.082C209.024 270.179 209.996 265.604 209.996 260.591V254.105H227.856V274.315ZM223.861 274.315V257.583H213.709V260.591C213.709 265.949 212.847 270.524 211.124 274.315H223.861ZM242.254 277.793H236.614V254.105H240.515V272.435H241.549L251.936 254.105H257.764V277.793H253.863V259.463H252.829L242.254 277.793ZM279.772 277.793V275.302H278.738C277.108 277.37 274.649 278.404 271.359 278.404C268.758 278.404 266.69 277.652 265.155 276.148C263.619 274.644 262.852 272.827 262.852 270.696C262.852 268.534 263.604 266.685 265.108 265.15C266.612 263.615 268.883 262.847 271.923 262.847H279.631V261.907C279.631 260.403 279.161 259.212 278.221 258.335C277.281 257.426 275.824 256.972 273.85 256.972C270.403 256.972 268.57 258.116 268.351 260.403H264.356C264.512 258.241 265.437 256.549 267.129 255.327C268.852 254.105 271.061 253.494 273.756 253.494C276.795 253.494 279.176 254.199 280.9 255.609C282.654 257.019 283.532 259.04 283.532 261.672V277.793H279.772ZM272.346 274.926C274.32 274.926 276.027 274.284 277.469 272.999C278.91 271.683 279.631 270.085 279.631 268.205V266.043H272.534C268.742 266.043 266.847 267.547 266.847 270.555C266.847 271.902 267.317 272.968 268.257 273.751C269.228 274.534 270.591 274.926 272.346 274.926ZM301.328 266.513H288.497V262.988H301.328V266.513ZM323.406 270.649H327.401C326.931 273.03 325.818 274.926 324.064 276.336C322.34 277.715 320.131 278.404 317.437 278.404C313.865 278.404 311.045 277.245 308.977 274.926C306.94 272.576 305.922 269.584 305.922 265.949C305.922 262.283 306.94 259.291 308.977 256.972C311.013 254.653 313.833 253.494 317.437 253.494C320.163 253.494 322.372 254.183 324.064 255.562C325.787 256.909 326.852 258.711 327.26 260.967H323.265C322.419 258.304 320.476 256.972 317.437 256.972C314.899 256.972 313.003 257.818 311.75 259.51C310.528 261.171 309.917 263.286 309.917 265.855C309.917 268.456 310.543 270.618 311.797 272.341C313.05 274.064 314.93 274.926 317.437 274.926C320.758 274.926 322.748 273.5 323.406 270.649ZM353.097 264.539V265.902H335.049C335.112 268.753 335.786 270.978 337.07 272.576C338.355 274.143 340.204 274.926 342.616 274.926C345.875 274.926 347.88 273.704 348.632 271.26H352.674C352.267 273.391 351.186 275.114 349.431 276.43C347.708 277.746 345.436 278.404 342.616 278.404C339.013 278.404 336.193 277.229 334.156 274.879C332.12 272.529 331.101 269.474 331.101 265.714C331.101 262.017 332.12 259.056 334.156 256.831C336.193 254.606 338.982 253.494 342.522 253.494C345.875 253.494 348.46 254.559 350.277 256.69C352.095 258.789 353.035 261.406 353.097 264.539ZM342.428 256.972C340.392 256.972 338.762 257.505 337.54 258.57C336.318 259.604 335.566 260.936 335.284 262.565H348.961C348.836 260.967 348.194 259.635 347.034 258.57C345.875 257.505 344.34 256.972 342.428 256.972ZM369.892 256.972C367.417 256.972 365.552 257.834 364.299 259.557C363.077 261.28 362.466 263.411 362.466 265.949C362.466 268.487 363.077 270.618 364.299 272.341C365.552 274.064 367.417 274.926 369.892 274.926C372.211 274.926 373.997 274.111 375.25 272.482C376.535 270.821 377.177 268.644 377.177 265.949C377.177 263.254 376.535 261.092 375.25 259.463C373.997 257.802 372.211 256.972 369.892 256.972ZM358.518 254.105H362.372V256.643H363.406C365.098 254.544 367.558 253.494 370.785 253.494C373.981 253.494 376.503 254.669 378.352 257.019C380.232 259.369 381.172 262.346 381.172 265.949C381.172 269.615 380.232 272.607 378.352 274.926C376.503 277.245 373.981 278.404 370.785 278.404C367.526 278.404 365.114 277.354 363.547 275.255H362.513V287.193H358.518V254.105ZM403.32 264.727V265.761C404.479 266.043 405.404 266.67 406.093 267.641C406.814 268.612 407.174 269.834 407.174 271.307C407.174 275.631 404.385 277.793 398.808 277.793H386.635V254.105H398.385C400.766 254.105 402.599 254.638 403.884 255.703C405.2 256.737 405.858 258.194 405.858 260.074C405.858 261.171 405.607 262.126 405.106 262.941C404.636 263.756 404.041 264.351 403.32 264.727ZM390.583 274.409H398.573C401.644 274.409 403.179 273.234 403.179 270.884C403.179 268.503 401.644 267.312 398.573 267.312H390.583V274.409ZM390.583 257.489V263.928H398.009C399.356 263.928 400.328 263.63 400.923 263.035C401.55 262.44 401.863 261.672 401.863 260.732C401.863 258.57 400.578 257.489 398.009 257.489H390.583ZM418.235 277.793H412.595V254.105H416.496V272.435H417.53L427.917 254.105H433.745V277.793H429.844V259.463H428.81L418.235 277.793ZM456.693 270.649H460.688C460.218 273.03 459.106 274.926 457.351 276.336C455.628 277.715 453.419 278.404 450.724 278.404C447.152 278.404 444.332 277.245 442.264 274.926C440.227 272.576 439.209 269.584 439.209 265.949C439.209 262.283 440.227 259.291 442.264 256.972C444.301 254.653 447.121 253.494 450.724 253.494C453.45 253.494 455.659 254.183 457.351 255.562C459.074 256.909 460.14 258.711 460.547 260.967H456.552C455.706 258.304 453.763 256.972 450.724 256.972C448.186 256.972 446.29 257.818 445.037 259.51C443.815 261.171 443.204 263.286 443.204 265.855C443.204 268.456 443.831 270.618 445.084 272.341C446.337 274.064 448.217 274.926 450.724 274.926C454.045 274.926 456.035 273.5 456.693 270.649ZM171.652 306.886C171.652 304.019 169.067 302.609 165.354 302.609C162.957 302.609 160.748 303.361 158.774 304.912C156.847 306.416 155.343 308.249 154.356 310.458C153.369 312.62 152.899 314.829 152.899 317.038C152.899 321.973 155.296 325.451 160.372 325.451C163.333 325.451 165.73 324.746 167.469 323.336C169.208 321.926 170.101 320.187 170.101 318.072C170.101 315.628 168.691 313.372 165.166 313.137C167.328 312.573 168.926 311.68 170.007 310.411C171.088 309.142 171.652 307.967 171.652 306.886ZM166.012 317.837C166.012 319.67 165.495 321.174 164.414 322.349C163.38 323.524 162.252 324.088 160.983 324.088C158.492 324.088 157.223 322.161 157.223 318.26C157.223 317.085 157.317 315.957 157.458 314.876C159.244 314.171 160.983 313.842 162.722 313.842C164.743 313.842 166.012 315.581 166.012 317.837ZM164.884 303.925C166.576 303.925 167.845 305.006 167.845 306.886C167.845 308.907 166.2 311.351 163.145 312.526C161.077 312.714 159.244 313.09 157.646 313.607C158.069 310.928 158.962 308.672 160.325 306.792C161.688 304.865 163.192 303.925 164.884 303.925ZM188.903 322.537C188.903 324.417 189.655 325.451 191.77 325.451C194.308 325.451 196.752 322.96 199.149 318.025L198.115 317.414C196.329 321.362 194.825 323.336 193.603 323.336C192.992 323.336 192.663 322.96 192.663 322.208C192.663 321.409 192.898 320.14 193.415 318.401L197.598 303.267H193.039L190.971 311.163C190.266 313.842 188.997 316.474 187.117 319.153C185.284 321.832 183.592 323.148 182.135 323.148C180.866 323.148 180.255 322.349 180.255 320.704C180.255 319.764 180.49 318.401 180.96 316.662L182.323 311.539C183.122 308.578 183.498 306.651 183.498 305.758C183.498 303.643 182.37 302.609 180.161 302.609C177.576 302.609 175.132 305.1 172.782 310.082L173.816 310.693C175.602 306.745 177.059 304.771 178.234 304.771C178.845 304.771 179.174 305.147 179.174 305.899C179.127 307.074 178.845 308.437 178.422 309.988L176.354 317.179C175.931 318.636 175.696 320.046 175.696 321.315C175.696 324.088 177.153 325.451 180.02 325.451C181.9 325.451 183.733 324.558 185.519 322.772C187.352 320.939 188.903 318.636 190.172 315.816C189.326 318.73 188.903 320.986 188.903 322.537ZM237.314 317.367C235.763 320.751 233.93 323.289 232.849 323.289C232.238 323.289 231.909 322.913 231.909 322.161C231.909 321.174 232.144 319.858 232.661 318.119L234.729 310.881C235.199 309.283 235.434 307.873 235.434 306.651C235.434 303.972 234.071 302.609 231.298 302.609C229.559 302.609 227.679 303.549 225.752 305.382C223.825 307.215 222.227 309.518 220.958 312.291C221.663 309.706 221.992 307.779 221.992 306.51C221.992 303.925 220.817 302.609 218.42 302.609C216.634 302.609 214.754 303.502 212.827 305.288C210.9 307.074 209.302 309.424 208.033 312.291C208.879 309.048 209.302 306.792 209.302 305.57C209.302 303.643 208.597 302.609 206.482 302.609C203.662 302.609 201.359 305.382 199.103 310.082L200.137 310.693C201.594 307.309 203.427 304.771 204.602 304.771C205.213 304.771 205.542 305.147 205.542 305.899C205.542 306.51 205.307 307.779 204.79 309.706L200.748 324.793H205.166L207.422 316.427C208.127 313.936 209.396 311.398 211.229 308.813C213.062 306.228 214.66 304.959 215.929 304.959C217.433 304.959 217.95 305.617 217.95 307.309C217.95 308.249 217.715 309.612 217.245 311.445L213.579 324.793H217.997L220.3 316.427C220.958 314.03 222.227 311.539 224.06 308.907C225.94 306.275 227.538 304.959 228.807 304.959C230.358 304.959 230.875 305.617 230.875 307.309C230.875 308.202 230.64 309.612 230.123 311.445L228.76 316.568C228.008 319.247 227.632 321.174 227.632 322.349C227.632 324.417 228.713 325.451 230.922 325.451C233.742 325.451 236.045 322.678 238.301 317.978L237.314 317.367ZM262.206 317.367C261.501 319.012 260.702 320.422 259.856 321.597C259.057 322.725 258.399 323.289 257.882 323.289C257.177 323.289 256.848 322.913 256.848 322.114C256.848 321.127 257.224 319.388 257.929 316.803L261.642 303.267H257.224L255.908 308.249C255.579 304.677 253.652 302.609 250.785 302.609C244.769 302.421 239.035 310.881 239.223 318.213C239.223 322.678 241.338 325.451 245.098 325.451C248.435 325.451 251.678 322.96 253.511 318.683C253.182 320.046 252.994 321.033 252.994 321.691C252.994 324.182 253.934 325.451 255.767 325.451C258.352 325.451 260.843 322.96 263.24 317.978L262.206 317.367ZM246.743 323.712C244.722 323.712 243.5 322.114 243.5 318.918C243.5 317.085 243.829 315.017 244.534 312.808C245.239 310.599 246.226 308.625 247.495 306.933C248.811 305.194 250.221 304.348 251.678 304.348C253.511 304.348 254.921 305.946 254.921 309.377C254.921 311.21 254.592 313.231 253.887 315.44C253.182 317.649 252.195 319.576 250.879 321.221C249.61 322.866 248.2 323.712 246.743 323.712ZM264.93 324.37C264.178 324.37 263.802 324.135 263.802 323.618C265.071 323.618 265.729 322.725 265.729 321.597C265.729 320.516 264.977 319.67 264.084 319.67C262.815 319.67 261.875 320.939 261.875 322.396C261.875 324.088 263.238 325.404 264.883 325.404C266.434 325.404 267.656 324.37 268.69 322.913C269.395 321.973 270.147 320.046 270.57 318.777C270.805 318.119 271.134 317.226 271.463 316.098L272.309 313.231C272.544 312.432 272.826 311.351 273.155 309.988L274.095 306.651C274.941 309.236 275.458 315.393 275.599 325.122H276.821L288.618 305.758L285.469 317.461C284.858 319.67 284.529 321.315 284.529 322.396C284.529 324.229 285.61 325.451 287.819 325.451C290.498 325.451 293.036 322.96 295.386 318.025L294.399 317.414C292.848 320.845 291.109 323.336 289.934 323.336C289.276 323.336 288.947 322.913 288.947 322.114C288.947 321.503 289.182 320.234 289.699 318.307L293.788 303.267H288.618L279.547 318.683C279.265 307.967 277.479 302.609 274.142 302.609C271.369 302.609 268.737 305.147 266.293 310.176L267.374 310.646C268.925 306.933 270.805 304.912 272.262 304.912C272.544 304.912 272.826 305.006 273.061 305.194C271.087 312.855 269.583 317.931 268.596 320.516C267.609 323.101 266.387 324.37 264.93 324.37ZM311.928 322.537C311.928 324.417 312.68 325.451 314.795 325.451C317.333 325.451 319.777 322.96 322.174 318.025L321.14 317.414C319.354 321.362 317.85 323.336 316.628 323.336C316.017 323.336 315.688 322.96 315.688 322.208C315.688 321.409 315.923 320.14 316.44 318.401L320.623 303.267H316.064L313.996 311.163C313.291 313.842 312.022 316.474 310.142 319.153C308.309 321.832 306.617 323.148 305.16 323.148C303.891 323.148 303.28 322.349 303.28 320.704C303.28 319.764 303.515 318.401 303.985 316.662L305.348 311.539C306.147 308.578 306.523 306.651 306.523 305.758C306.523 303.643 305.395 302.609 303.186 302.609C300.601 302.609 298.157 305.1 295.807 310.082L296.841 310.693C298.627 306.745 300.084 304.771 301.259 304.771C301.87 304.771 302.199 305.147 302.199 305.899C302.152 307.074 301.87 308.437 301.447 309.988L299.379 317.179C298.956 318.636 298.721 320.046 298.721 321.315C298.721 324.088 300.178 325.451 303.045 325.451C304.925 325.451 306.758 324.558 308.544 322.772C310.377 320.939 311.928 318.636 313.197 315.816C312.351 318.73 311.928 320.986 311.928 322.537ZM347.884 317.367C346.051 321.315 344.594 323.289 343.419 323.289C342.761 323.289 342.432 322.913 342.432 322.114C342.432 321.315 342.714 319.999 343.231 318.213L347.414 303.267H342.902L340.364 312.62H331.669L332.139 311.022C332.75 308.813 333.079 306.98 333.079 305.617C333.079 303.784 331.951 302.609 329.742 302.609C327.157 302.609 324.666 305.1 322.363 310.082L323.35 310.693C325.183 306.745 326.687 304.771 327.862 304.771C328.52 304.771 328.849 305.147 328.849 305.899C328.943 306.698 328.238 309.001 328.097 309.706L323.914 324.793H328.426L331.246 314.265H339.894L339.283 316.568C338.531 319.341 338.155 321.268 338.155 322.349C338.155 324.417 339.283 325.451 341.539 325.451C344.03 325.451 346.474 322.96 348.871 317.978L347.884 317.367ZM374.808 317.367C372.975 321.315 371.518 323.289 370.343 323.289C369.685 323.289 369.356 322.913 369.356 322.114C369.356 321.315 369.638 319.999 370.155 318.213L374.338 303.267H369.826L367.288 312.62H358.593L359.063 311.022C359.674 308.813 360.003 306.98 360.003 305.617C360.003 303.784 358.875 302.609 356.666 302.609C354.081 302.609 351.59 305.1 349.287 310.082L350.274 310.693C352.107 306.745 353.611 304.771 354.786 304.771C355.444 304.771 355.773 305.147 355.773 305.899C355.867 306.698 355.162 309.001 355.021 309.706L350.838 324.793H355.35L358.17 314.265H366.818L366.207 316.568C365.455 319.341 365.079 321.268 365.079 322.349C365.079 324.417 366.207 325.451 368.463 325.451C370.954 325.451 373.398 322.96 375.795 317.978L374.808 317.367ZM384.999 324.135C382.367 324.135 381.286 321.785 381.286 316.756C381.145 311.257 384.67 303.878 388.947 303.972C391.438 303.972 392.66 306.228 392.66 310.787C392.66 314.359 391.626 318.636 389.182 321.785C387.96 323.336 386.55 324.135 384.999 324.135ZM396.984 311.398C396.984 306.275 394.117 302.609 389.229 302.609C385.704 302.609 382.79 303.972 380.487 306.745C378.184 309.471 377.009 312.808 377.009 316.803C377.009 321.926 379.876 325.451 384.811 325.451C388.242 325.451 391.109 324.041 393.459 321.174C395.809 318.307 396.984 315.017 396.984 311.398ZM415.283 307.873C415.283 304.677 412.886 302.609 408.703 302.609C404.943 302.609 401.23 304.395 399.209 308.672L400.008 309.283C401.935 306.04 404.473 304.395 407.669 304.395C409.69 304.395 411.335 305.523 411.335 307.45C411.335 311.492 406.635 312.197 402.922 313.56C400.431 314.5 398.363 316.615 398.363 320.14C398.363 323.289 400.901 325.451 405.366 325.451C408.515 325.451 412.134 323.336 414.061 319.435L413.215 318.965C411.523 321.832 408.609 323.759 406.165 323.759C403.862 323.759 402.264 322.725 402.264 320.704C402.264 316.85 406.964 316.098 410.677 314.641C413.262 313.654 415.283 311.398 415.283 307.873ZM424.618 324.135C421.986 324.135 420.905 321.785 420.905 316.756C420.764 311.257 424.289 303.878 428.566 303.972C431.057 303.972 432.279 306.228 432.279 310.787C432.279 314.359 431.245 318.636 428.801 321.785C427.579 323.336 426.169 324.135 424.618 324.135ZM436.603 311.398C436.603 306.275 433.736 302.609 428.848 302.609C425.323 302.609 422.409 303.972 420.106 306.745C417.803 309.471 416.628 312.808 416.628 316.803C416.628 321.926 419.495 325.451 424.43 325.451C427.861 325.451 430.728 324.041 433.078 321.174C435.428 318.307 436.603 315.017 436.603 311.398ZM238.981 337.859C238.558 338.752 237.947 339.41 237.148 339.786C236.631 340.021 234.469 340.538 230.662 341.337C226.338 342.277 223.33 344.439 221.309 348.152C220.322 349.985 219.57 351.912 219.006 353.886C218.442 355.813 217.925 358.21 217.455 361.077C217.314 361.876 217.22 362.91 217.22 364.085C217.22 368.973 219.57 372.263 223.894 372.263C227.513 372.263 230.662 370.9 233.294 368.221C235.973 365.542 237.289 362.346 237.289 358.68C237.289 356.283 236.631 354.262 235.315 352.664C233.999 351.019 232.213 350.22 230.004 350.22C225.492 350.22 221.638 353.228 219.429 358.257C219.758 356.753 220.04 355.578 220.275 354.685C220.51 353.792 220.886 352.758 221.356 351.677C221.873 350.596 222.437 349.703 223.048 349.045C224.364 347.729 226.432 346.413 229.205 345.802C232.166 345.097 234.281 344.533 235.456 344.016C236.678 343.499 237.571 342.841 238.135 342.042C238.746 341.243 239.357 339.833 239.968 337.859H238.981ZM232.918 357.928C232.918 360.607 232.213 363.803 230.944 366.482C229.675 369.161 227.513 371.135 225.21 371.135C222.719 371.135 221.403 368.832 221.403 364.931C221.403 361.782 222.108 358.774 223.518 355.907C224.975 353.04 226.808 351.63 229.017 351.63C231.508 351.63 232.918 354.215 232.918 357.928ZM262.311 364.367C261.606 366.012 260.807 367.422 259.961 368.597C259.162 369.725 258.504 370.289 257.987 370.289C257.282 370.289 256.953 369.913 256.953 369.114C256.953 368.127 257.329 366.388 258.034 363.803L261.747 350.267H257.329L256.013 355.249C255.684 351.677 253.757 349.609 250.89 349.609C244.874 349.421 239.14 357.881 239.328 365.213C239.328 369.678 241.443 372.451 245.203 372.451C248.54 372.451 251.783 369.96 253.616 365.683C253.287 367.046 253.099 368.033 253.099 368.691C253.099 371.182 254.039 372.451 255.872 372.451C258.457 372.451 260.948 369.96 263.345 364.978L262.311 364.367ZM246.848 370.712C244.827 370.712 243.605 369.114 243.605 365.918C243.605 364.085 243.934 362.017 244.639 359.808C245.344 357.599 246.331 355.625 247.6 353.933C248.916 352.194 250.326 351.348 251.783 351.348C253.616 351.348 255.026 352.946 255.026 356.377C255.026 358.21 254.697 360.231 253.992 362.44C253.287 364.649 252.3 366.576 250.984 368.221C249.715 369.866 248.305 370.712 246.848 370.712ZM264.989 372.31C266.305 372.31 267.386 371.746 268.326 370.289C269.266 368.832 269.924 367.61 270.723 365.025C271.146 363.756 271.475 362.628 271.71 361.641L272.791 357.646L273.966 353.51C274.342 352.147 274.859 351.583 276.034 351.583H277.867C279.371 351.583 280.123 352.429 280.123 354.121C280.123 354.685 279.982 355.437 279.747 356.33L277.209 365.401C276.786 366.858 276.551 368.315 276.551 369.678C276.551 371.323 277.82 372.451 279.935 372.451C282.614 372.451 285.105 369.96 287.502 365.025L286.468 364.414C284.635 368.362 283.178 370.336 282.003 370.336C281.392 370.336 281.063 369.913 281.063 369.067C281.063 368.268 281.345 366.952 281.862 365.072L284.165 356.847C284.447 355.86 284.588 354.873 284.588 353.933C284.588 351.489 283.178 350.267 280.405 350.267H270.112L269.736 351.583H271.616C272.415 351.583 272.838 351.865 272.838 352.476C272.838 352.523 272.791 352.899 272.65 353.51C270.864 360.513 269.454 365.213 268.42 367.657C267.433 370.054 266.258 371.276 264.895 371.276C264.237 371.276 263.908 371.041 263.908 370.524C265.177 370.524 265.835 369.631 265.835 368.503C265.835 367.422 265.083 366.576 264.19 366.576C262.921 366.576 261.981 367.845 261.981 369.302C261.981 370.994 263.344 372.31 264.989 372.31ZM311.661 364.367C310.956 366.012 310.157 367.422 309.311 368.597C308.512 369.725 307.854 370.289 307.337 370.289C306.632 370.289 306.303 369.913 306.303 369.114C306.303 368.127 306.679 366.388 307.384 363.803L311.097 350.267H306.679L305.363 355.249C305.034 351.677 303.107 349.609 300.24 349.609C294.224 349.421 288.49 357.881 288.678 365.213C288.678 369.678 290.793 372.451 294.553 372.451C297.89 372.451 301.133 369.96 302.966 365.683C302.637 367.046 302.449 368.033 302.449 368.691C302.449 371.182 303.389 372.451 305.222 372.451C307.807 372.451 310.298 369.96 312.695 364.978L311.661 364.367ZM296.198 370.712C294.177 370.712 292.955 369.114 292.955 365.918C292.955 364.085 293.284 362.017 293.989 359.808C294.694 357.599 295.681 355.625 296.95 353.933C298.266 352.194 299.676 351.348 301.133 351.348C302.966 351.348 304.376 352.946 304.376 356.377C304.376 358.21 304.047 360.231 303.342 362.44C302.637 364.649 301.65 366.576 300.334 368.221C299.065 369.866 297.655 370.712 296.198 370.712ZM338.626 364.367C336.793 368.315 335.336 370.289 334.161 370.289C333.503 370.289 333.174 369.913 333.174 369.114C333.174 368.315 333.456 366.999 333.973 365.213L338.156 350.267H333.644L331.106 359.62H322.411L322.881 358.022C323.492 355.813 323.821 353.98 323.821 352.617C323.821 350.784 322.693 349.609 320.484 349.609C317.899 349.609 315.408 352.1 313.105 357.082L314.092 357.693C315.925 353.745 317.429 351.771 318.604 351.771C319.262 351.771 319.591 352.147 319.591 352.899C319.685 353.698 318.98 356.001 318.839 356.706L314.656 371.793H319.168L321.988 361.265H330.636L330.025 363.568C329.273 366.341 328.897 368.268 328.897 369.349C328.897 371.417 330.025 372.451 332.281 372.451C334.772 372.451 337.216 369.96 339.613 364.978L338.626 364.367ZM359.017 354.262C359.017 351.254 356.432 349.609 353.001 349.609C349.57 349.609 346.703 351.019 344.353 353.886C342.003 356.753 340.828 360.043 340.828 363.803C340.828 366.388 341.58 368.456 343.084 370.054C344.635 371.652 346.609 372.451 349.006 372.451C352.531 372.451 355.633 369.913 357.748 365.401L356.761 364.931C354.928 368.738 352.672 370.618 349.993 370.618C347.22 370.618 345.34 367.939 345.34 363.85C345.34 359.949 346.139 356.847 347.737 354.45C349.335 352.053 351.168 350.831 353.283 350.831C355.868 350.831 357.607 352.241 357.607 354.074C357.184 353.651 356.62 353.416 355.962 353.416C354.787 353.416 353.8 354.779 353.8 356.095C353.8 357.223 354.411 358.351 355.962 358.351C357.842 358.351 359.017 356.142 359.017 354.262ZM382.793 364.367C382.088 366.012 381.289 367.422 380.443 368.597C379.644 369.725 378.986 370.289 378.469 370.289C377.764 370.289 377.435 369.913 377.435 369.114C377.435 368.127 377.811 366.388 378.516 363.803L382.229 350.267H377.811L376.495 355.249C376.166 351.677 374.239 349.609 371.372 349.609C365.356 349.421 359.622 357.881 359.81 365.213C359.81 369.678 361.925 372.451 365.685 372.451C369.022 372.451 372.265 369.96 374.098 365.683C373.769 367.046 373.581 368.033 373.581 368.691C373.581 371.182 374.521 372.451 376.354 372.451C378.939 372.451 381.43 369.96 383.827 364.978L382.793 364.367ZM367.33 370.712C365.309 370.712 364.087 369.114 364.087 365.918C364.087 364.085 364.416 362.017 365.121 359.808C365.826 357.599 366.813 355.625 368.082 353.933C369.398 352.194 370.808 351.348 372.265 351.348C374.098 351.348 375.508 352.946 375.508 356.377C375.508 358.21 375.179 360.231 374.474 362.44C373.769 364.649 372.782 366.576 371.466 368.221C370.197 369.866 368.787 370.712 367.33 370.712Z" fill="black"/>
<path fill-rule="evenodd" clip-rule="evenodd" d="M48.4237 538.513C46.5077 537.11 44.1944 536.354 41.8195 536.354H28.4159L18.9445 581.818H29.9491L31.0994 576.293L31.6089 576.926C33.3082 579.04 35.6215 580.574 38.2296 581.317C40.8378 582.06 43.6122 581.975 46.1701 581.074C48.728 580.173 50.9434 578.501 52.5105 576.288C54.0775 574.074 54.9192 571.429 54.9192 568.717C54.9199 566.4 54.3054 564.123 53.1385 562.12C51.9717 560.118 50.2942 558.461 48.2775 557.319L47.7492 557.019L48.246 556.67C50.1891 555.305 51.6466 553.356 52.407 551.106C53.1675 548.856 53.1913 546.422 52.4751 544.158C51.7588 541.894 50.3397 539.916 48.4237 538.513ZM55.6872 568.717C55.6871 571.588 54.7962 574.388 53.1372 576.731C51.4783 579.074 49.1331 580.845 46.4252 581.798C43.7173 582.752 40.7803 582.842 38.0192 582.055C35.5135 581.342 33.2649 579.938 31.5258 578.012L30.5737 582.586H18L27.7914 535.586L41.8193 535.586C41.8194 535.586 41.8193 535.586 41.8193 535.586C44.3575 535.586 46.8298 536.394 48.8775 537.894C50.9252 539.393 52.4418 541.506 53.2073 543.926C53.9728 546.346 53.9473 548.947 53.1346 551.352C52.3846 553.571 51.0003 555.516 49.1592 556.95C51.0704 558.141 52.6652 559.783 53.8021 561.734C55.0374 563.854 55.6879 566.264 55.6872 568.717Z" fill="black"/>
<path fill-rule="evenodd" clip-rule="evenodd" d="M30.6453 547.528C30.6435 549.321 31.0741 551.088 31.9004 552.68C32.7268 554.271 33.9247 555.64 35.3925 556.67L35.8899 557.019L35.3612 557.318C33.3442 558.46 31.6666 560.117 30.4996 562.12C29.3325 564.123 28.718 566.399 28.7187 568.717L27.9507 568.717C27.95 566.263 28.6006 563.853 29.836 561.733C30.973 559.782 32.5679 558.141 34.4791 556.95C33.1248 555.896 32.0118 554.561 31.2189 553.034C30.3356 551.333 29.8754 549.444 29.8773 547.527L30.6453 547.528Z" fill="black"/>
<path d="M343.64 59.005C345.713 51.2698 353.664 46.6793 361.399 48.752L519.811 91.1983C527.546 93.2709 532.137 101.222 530.064 108.957L501.335 216.175C499.262 223.91 491.311 228.501 483.576 226.428L325.164 183.982C317.429 181.909 312.839 173.958 314.911 166.223L343.64 59.005Z" fill="white" stroke="black"/>
<path d="M361.258 82.3608L365.827 83.585C368.816 84.3857 370.441 83.2595 370.951 81.3578C371.487 79.3574 370.395 77.9001 369.254 77.515L369.287 77.3915C370.453 77.3863 371.608 76.9282 372.045 75.2982C372.541 73.4459 371.71 71.6085 369.067 70.9005L364.647 69.7159L361.258 82.3608ZM363.154 81.4127L364.332 77.0167L367.443 77.8505C369.098 78.2939 369.838 79.6832 369.493 80.9674C369.196 82.0788 368.192 82.7627 366.191 82.2267L363.154 81.4127ZM364.689 75.683L365.814 71.4846L368.703 72.2588C370.383 72.7088 370.886 73.7964 370.588 74.9078C370.23 76.2414 368.912 76.8146 367.529 76.4441L364.689 75.683ZM376.053 86.5102C378.578 87.1868 380.733 86.1827 381.296 84.13C381.712 82.5275 381.008 80.883 379.712 80.2642L379.731 80.1901C381 80.1991 382.089 79.2468 382.462 77.9041C382.965 75.9744 381.732 74.1085 379.534 73.5196C377.311 72.924 375.309 73.923 374.806 75.8526C374.433 77.1953 374.899 78.5645 376.027 79.1975L376.007 79.2716C374.55 79.1525 373.118 80.2246 372.702 81.8271C372.139 83.8798 373.503 85.8269 376.053 86.5102ZM376.417 85.1519C374.682 84.687 373.852 83.5117 374.228 82.1566C374.598 80.7271 376.05 80.0243 377.674 80.4594C379.273 80.8879 380.179 82.2226 379.81 83.6522C379.433 85.0072 378.127 85.6101 376.417 85.1519ZM378.025 79.1505C376.642 78.7799 375.898 77.6541 376.261 76.3485C376.593 75.0609 377.756 74.4727 379.176 74.8532C380.572 75.2271 381.285 76.3183 380.953 77.6058C380.59 78.9115 379.383 79.5145 378.025 79.1505ZM405.015 86.5811L387.629 81.9224L387.265 83.2807L404.651 87.9394L405.015 86.5811ZM412.571 96.3218C414.671 96.8843 416.398 95.9706 417.095 94.3574L415.638 93.967C415.088 94.9315 414.058 95.3173 412.922 95.0129C411.193 94.5497 410.466 92.8194 411.055 90.6214C411.631 88.4728 413.144 87.3695 414.848 87.8261C416.132 88.1702 416.686 89.1656 416.677 90.0896L418.134 90.48C418.363 88.6356 417.174 87.0465 415.174 86.5105C412.605 85.8223 410.359 87.3908 409.584 90.2804C408.823 93.1205 409.904 95.6071 412.571 96.3218ZM418.188 97.6151L419.645 98.0055L421.822 89.8802L426.367 91.0978L424.19 99.2231L425.647 99.6135L428.188 90.1299L420.729 88.1314L418.188 97.6151ZM427.059 103.804L428.516 104.194L429.86 99.1807L429.983 99.2138C430.165 99.8185 430.478 101.12 432.306 101.61C434.677 102.245 436.841 100.787 437.648 97.7736C438.449 94.7853 437.304 92.4402 434.908 91.7983C433.056 91.302 432.184 92.2859 431.73 92.6938L431.557 92.6475L431.961 91.141L430.553 90.7638L427.059 103.804ZM430.715 95.8894C431.284 93.7654 432.607 92.5845 434.385 93.061C436.237 93.5573 436.734 95.358 436.198 97.3585C435.655 99.3836 434.287 100.737 432.459 100.248C430.706 99.7779 430.139 98.038 430.715 95.8894ZM441.043 103.977C442.698 104.421 443.8 103.763 444.262 103.225L444.336 103.245L443.992 104.529L445.449 104.92L447.123 98.6712C447.931 95.6582 445.726 94.697 444.516 94.3728C443.084 93.989 441.322 94.0461 440.117 95.5764L441.368 96.4409C441.874 95.8354 442.832 95.298 444.222 95.6702C445.561 96.0292 446.032 96.9163 445.706 98.1326L445.693 98.182C445.504 98.8859 444.804 98.6322 443.016 98.3913C441.195 98.1482 439.171 98.0227 438.588 100.196C438.092 102.048 439.24 103.494 441.043 103.977ZM441.616 102.728C440.455 102.417 439.754 101.673 440.026 100.661C440.323 99.5492 441.429 99.4747 442.604 99.631C443.242 99.7223 444.943 99.9928 445.269 99.7626L444.912 101.096C444.594 102.282 443.345 103.191 441.616 102.728ZM447.813 105.553L452.283 106.751C454.21 107.267 455.661 106.491 456.052 105.034C456.451 103.546 455.536 102.441 454.534 102.007C455.661 102.071 456.581 101.675 456.891 100.521C457.296 99.0081 456.269 97.6543 454.232 97.1083L450.354 96.0694L447.813 105.553ZM449.553 104.59L450.334 101.676L453.421 102.503C454.422 102.771 454.866 103.532 454.603 104.514C454.381 105.341 453.641 105.685 452.641 105.417L449.553 104.59ZM450.672 100.416L451.38 97.7736L453.874 98.442C455.041 98.7546 455.621 99.4327 455.407 100.229C455.18 101.075 454.333 101.397 453.166 101.085L450.672 100.416ZM461.08 109.32C463.649 110.008 465.9 108.52 466.688 105.581C467.482 102.618 466.276 100.203 463.707 99.515C461.139 98.8268 458.887 100.315 458.093 103.278C457.306 106.217 458.512 108.631 461.08 109.32ZM461.431 108.011C459.48 107.488 459.041 105.57 459.55 103.669C460.06 101.767 461.406 100.301 463.357 100.824C465.308 101.347 465.74 103.289 465.231 105.191C464.721 107.092 463.382 108.534 461.431 108.011ZM477.211 103.266L475.753 102.875L474.465 107.685C473.706 107.7 472.951 107.63 472.08 107.397C470.895 107.079 470.16 106.167 470.55 104.71L471.364 101.672L469.907 101.282L469.093 104.32C468.471 106.641 469.568 108.179 471.716 108.755C472.612 108.995 473.359 109.069 474.099 109.049L473.212 112.359L474.669 112.749L477.211 103.266ZM481.046 104.293L479.588 103.903L477.047 113.386L478.504 113.777L479.59 109.726L484.134 110.944L483.049 114.994L484.506 115.385L487.047 105.901L485.59 105.511L484.498 109.586L479.954 108.368L481.046 104.293ZM488.904 114.26L490.87 106.925L489.412 106.535L486.871 116.019L488.575 116.475L495.085 110.358L493.12 117.693L494.577 118.083L497.118 108.6L495.439 108.15L488.904 114.26ZM496.95 118.719L498.407 119.11L499.479 115.109L500.788 115.459L502.828 120.294L504.705 120.797L502.144 114.843L507.197 111.3L505.32 110.797L500.806 114.009L499.843 113.75L500.948 109.626L499.491 109.236L496.95 118.719ZM380.891 110.397L385.361 111.595C387.288 112.111 388.74 111.336 389.13 109.879C389.529 108.391 388.614 107.285 387.612 106.851C388.74 106.915 389.66 106.52 389.969 105.365C390.374 103.853 389.347 102.499 387.31 101.953L383.432 100.914L380.891 110.397ZM382.632 109.434L383.413 106.52L386.5 107.347C387.5 107.615 387.944 108.376 387.681 109.358C387.46 110.185 386.719 110.53 385.719 110.262L382.632 109.434ZM383.75 105.261L384.458 102.618L386.952 103.286C388.119 103.599 388.699 104.277 388.485 105.074C388.259 105.919 387.411 106.242 386.244 105.929L383.75 105.261ZM392.392 111.176L394.357 103.841L392.9 103.451L390.359 112.934L392.063 113.391L398.572 107.273L396.607 114.608L398.064 114.999L400.605 105.515L398.926 105.065L392.392 111.176ZM401.324 107.164L404.461 108.004L402.283 116.129L403.741 116.52L405.918 108.395L409.03 109.228L409.394 107.87L401.688 105.805L401.324 107.164ZM410.921 118.682C412.576 119.126 413.678 118.468 414.14 117.93L414.214 117.95L413.87 119.234L415.327 119.625L417.002 113.376C417.809 110.363 415.605 109.402 414.395 109.078C412.962 108.694 411.2 108.751 409.996 110.281L411.246 111.146C411.753 110.54 412.711 110.003 414.1 110.375C415.44 110.734 415.91 111.621 415.584 112.838L415.571 112.887C415.382 113.591 414.683 113.337 412.894 113.096C411.073 112.853 409.049 112.728 408.467 114.901C407.97 116.753 409.118 118.199 410.921 118.682ZM411.494 117.433C410.333 117.122 409.633 116.378 409.904 115.366C410.202 114.254 411.307 114.18 412.483 114.336C413.12 114.427 414.821 114.698 415.147 114.468L414.79 115.801C414.472 116.987 413.223 117.896 411.494 117.433ZM423.407 119.672L422.159 111.291L420.232 110.774L417.691 120.258L419.148 120.648L421.129 113.258L422.285 121.489L423.47 121.807L428.551 115.392L426.607 122.647L428.064 123.037L430.605 113.554L428.728 113.051L423.407 119.672ZM432.469 121.915L434.434 114.58L432.977 114.189L430.436 123.673L432.14 124.129L438.65 118.012L436.684 125.347L438.141 125.738L440.682 116.254L439.003 115.804L432.469 121.915ZM444.513 117.28L443.056 116.89L440.514 126.373L441.972 126.764L443.057 122.714L447.601 123.931L446.516 127.981L447.973 128.372L450.514 118.888L449.057 118.498L447.965 122.573L443.421 121.355L444.513 117.28ZM454.138 130.236C456.707 130.924 458.958 129.436 459.746 126.497C460.54 123.534 459.334 121.119 456.765 120.431C454.197 119.743 451.945 121.231 451.151 124.194C450.364 127.133 451.57 129.547 454.138 130.236ZM454.489 128.927C452.538 128.404 452.099 126.486 452.608 124.585C453.118 122.683 454.464 121.217 456.415 121.74C458.366 122.263 458.798 124.205 458.289 126.107C457.779 128.008 456.44 129.45 454.489 128.927ZM460.417 131.706L464.887 132.904C466.814 133.42 468.266 132.645 468.656 131.188C469.055 129.7 468.14 128.594 467.138 128.16C468.266 128.224 469.185 127.829 469.495 126.674C469.9 125.161 468.873 123.808 466.836 123.262L462.958 122.223L460.417 131.706ZM462.158 130.743L462.938 127.829L466.026 128.656C467.026 128.924 467.47 129.685 467.207 130.667C466.986 131.494 466.245 131.839 465.245 131.57L462.158 130.743ZM463.276 126.57L463.984 123.927L466.478 124.595C467.645 124.908 468.225 125.586 468.011 126.382C467.785 127.228 466.937 127.551 465.77 127.238L463.276 126.57ZM373.213 128.813L375.178 121.478L373.721 121.088L371.18 130.571L372.884 131.028L379.394 124.911L377.428 132.246L378.886 132.636L381.427 123.152L379.747 122.702L373.213 128.813ZM385.853 134.503L387.31 134.894L389.488 126.768L394.032 127.986L391.855 136.111L393.312 136.502L395.853 127.018L388.394 125.019L385.853 134.503ZM394.724 140.692L396.181 141.082L397.525 136.069L397.648 136.102C397.83 136.706 398.143 138.008 399.971 138.498C402.342 139.133 404.506 137.675 405.313 134.662C406.114 131.673 404.969 129.328 402.573 128.686C400.721 128.19 399.849 129.174 399.395 129.582L399.222 129.535L399.626 128.029L398.218 127.652L394.724 140.692ZM398.38 132.777C398.949 130.653 400.272 129.473 402.05 129.949C403.902 130.445 404.399 132.246 403.863 134.247C403.32 136.272 401.952 137.625 400.124 137.136C398.371 136.666 397.805 134.926 398.38 132.777ZM409.776 141.125C412.345 141.813 414.597 140.325 415.384 137.386C416.178 134.423 414.972 132.009 412.404 131.32C409.835 130.632 407.584 132.12 406.789 135.084C406.002 138.023 407.208 140.437 409.776 141.125ZM410.127 139.816C408.176 139.293 407.737 137.376 408.247 135.474C408.756 133.572 410.102 132.107 412.053 132.629C414.004 133.152 414.436 135.094 413.927 136.996C413.417 138.898 412.078 140.339 410.127 139.816ZM414.315 145.041L415.772 145.431L416.5 142.715L423.514 144.594L422.786 147.311L424.243 147.701L425.335 143.626L423.878 143.236L426.055 135.111L420.029 133.496L418.702 137.164C417.762 139.758 417.178 140.58 416.197 141.178L415.407 140.966L414.315 145.041ZM417.852 141.621C418.753 140.923 419.4 139.475 420.134 137.548L421.023 135.218L424.234 136.078L422.421 142.845L417.852 141.621ZM426.595 149.232C427.91 149.584 429.023 149.134 429.968 147.806L436.911 138.046L435.325 137.594L430.682 144.45L430.583 144.424L429.99 136.165L428.41 135.742L429.362 146.214L428.892 146.882C427.974 148.185 427.283 148.145 426.294 147.589L425.579 148.774C425.708 148.888 426.101 149.099 426.595 149.232ZM436.009 147.942L437.466 148.333L438.538 144.332L439.847 144.683L441.887 149.517L443.764 150.02L441.203 144.067L446.256 140.523L444.379 140.02L439.865 143.232L438.902 142.973L440.007 138.849L438.55 138.459L436.009 147.942ZM446.686 142.094L449.822 142.935L447.645 151.06L449.102 151.451L451.279 143.325L454.391 144.159L454.755 142.801L447.05 140.736L446.686 142.094ZM457.351 153.873C459.92 154.561 462.171 153.073 462.959 150.134C463.753 147.171 462.547 144.756 459.979 144.068C457.41 143.38 455.158 144.868 454.364 147.831C453.577 150.77 454.783 153.184 457.351 153.873ZM457.702 152.564C455.751 152.041 455.312 150.123 455.822 148.222C456.331 146.32 457.677 144.854 459.628 145.377C461.579 145.9 462.011 147.842 461.502 149.744C460.992 151.645 459.653 153.087 457.702 152.564ZM463.63 155.343L468.1 156.541C470.027 157.057 471.479 156.282 471.869 154.825C472.268 153.337 471.353 152.231 470.351 151.797C471.479 151.861 472.399 151.466 472.708 150.311C473.113 148.798 472.086 147.445 470.049 146.899L466.171 145.86L463.63 155.343ZM465.371 154.38L466.152 151.466L469.239 152.293C470.239 152.561 470.683 153.322 470.42 154.304C470.199 155.131 469.458 155.476 468.458 155.208L465.371 154.38ZM466.489 150.207L467.197 147.564L469.692 148.232C470.858 148.545 471.438 149.223 471.224 150.02C470.998 150.865 470.15 151.188 468.983 150.875L466.489 150.207ZM354.429 152.671L355.886 153.061L357.229 148.048L357.353 148.081C357.535 148.685 357.848 149.987 359.676 150.477C362.047 151.112 364.211 149.654 365.018 146.641C365.819 143.652 364.674 141.307 362.278 140.665C360.426 140.169 359.553 141.153 359.1 141.561L358.927 141.514L359.331 140.008L357.923 139.631L354.429 152.671ZM358.085 144.756C358.654 142.632 359.976 141.451 361.755 141.928C363.607 142.424 364.104 144.225 363.568 146.225C363.025 148.251 361.656 149.604 359.829 149.115C358.075 148.645 357.509 146.905 358.085 144.756ZM368.413 152.844C370.067 153.288 371.17 152.63 371.632 152.092L371.706 152.112L371.362 153.396L372.819 153.787L374.493 147.538C375.3 144.525 373.096 143.564 371.886 143.24C370.454 142.856 368.691 142.913 367.487 144.443L368.738 145.308C369.244 144.702 370.202 144.165 371.591 144.537C372.931 144.896 373.402 145.783 373.076 147L373.062 147.049C372.874 147.753 372.174 147.499 370.386 147.258C368.565 147.015 366.54 146.89 365.958 149.063C365.462 150.915 366.61 152.361 368.413 152.844ZM368.986 151.595C367.825 151.284 367.124 150.54 367.395 149.528C367.693 148.416 368.798 148.342 369.974 148.498C370.611 148.589 372.312 148.86 372.639 148.63L372.281 149.963C371.964 151.149 370.714 152.058 368.986 151.595ZM378.983 155.65C381.082 156.212 382.809 155.299 383.506 153.686L382.049 153.295C381.499 154.26 380.469 154.645 379.333 154.341C377.604 153.878 376.877 152.148 377.466 149.95C378.042 147.801 379.555 146.698 381.259 147.154C382.543 147.498 383.097 148.494 383.088 149.418L384.545 149.808C384.774 147.964 383.585 146.375 381.585 145.839C379.017 145.15 376.77 146.719 375.996 149.608C375.235 152.449 376.315 154.935 378.983 155.65ZM386.029 148.618L389.166 149.458L386.989 157.583L388.446 157.974L390.623 149.849L393.735 150.682L394.099 149.324L386.393 147.259L386.029 148.618ZM395.42 157.54L397.386 150.205L395.929 149.814L393.388 159.298L395.092 159.755L401.601 153.637L399.636 160.972L401.093 161.363L403.634 151.879L401.955 151.429L395.42 157.54ZM404.353 153.527L407.49 154.368L405.312 162.493L406.769 162.884L408.947 154.758L412.058 155.592L412.422 154.234L404.717 152.169L404.353 153.527ZM415.142 165.339C417.068 165.855 418.734 165.269 419.563 163.956L418.261 163.183C417.626 164.072 416.635 164.336 415.493 164.03C413.783 163.572 412.899 162.15 413.376 160.101L420.26 161.946L420.425 161.328C421.372 157.796 419.597 156.024 417.621 155.494C415.053 154.806 412.806 156.375 412.025 159.289C411.244 162.203 412.401 164.604 415.142 165.339ZM413.713 158.841C414.207 157.392 415.603 156.357 417.27 156.803C418.851 157.227 419.546 158.684 419.116 160.289L413.713 158.841ZM420.203 166.483L420.697 166.616C422.796 167.178 423.838 165.71 424.808 162.635L425.863 159.291L429.345 160.224L427.168 168.349L428.625 168.74L431.166 159.256L424.843 157.562L423.546 161.714C422.568 164.867 422.049 165.522 420.913 165.217L420.567 165.125L420.203 166.483ZM434.081 163.717L435.001 160.284L433.544 159.893L431.003 169.377L434.979 170.442C437.202 171.038 438.776 170.004 439.232 168.3C439.696 166.571 438.823 164.987 436.6 164.392L434.081 163.717ZM433.717 165.075L436.236 165.75C437.391 166.059 438.023 166.983 437.755 167.983C437.499 168.94 436.497 169.393 435.343 169.084L432.824 168.409L433.717 165.075ZM444.333 162.784L442.875 162.394L440.334 171.877L441.791 172.268L442.877 168.217L447.421 169.435L446.336 173.485L447.793 173.876L450.334 164.392L448.877 164.002L447.785 168.077L443.241 166.859L444.333 162.784ZM453.958 175.74C456.527 176.428 458.778 174.94 459.566 172.001C460.36 169.037 459.154 166.623 456.585 165.935C454.017 165.247 451.765 166.734 450.971 169.698C450.184 172.637 451.39 175.051 453.958 175.74ZM454.309 174.431C452.358 173.908 451.919 171.99 452.428 170.089C452.938 168.187 454.283 166.721 456.234 167.244C458.186 167.767 458.618 169.709 458.108 171.611C457.599 173.512 456.26 174.953 454.309 174.431ZM468.631 169.295L462.778 167.727L460.237 177.21L461.694 177.601L463.871 169.475L468.267 170.653L468.631 169.295ZM471.229 180.367C473.797 181.056 476.049 179.568 476.837 176.629C477.631 173.665 476.425 171.251 473.856 170.563C471.288 169.874 469.036 171.362 468.242 174.326C467.454 177.265 468.66 179.679 471.229 180.367ZM471.58 179.058C469.629 178.536 469.19 176.618 469.699 174.716C470.209 172.815 471.554 171.349 473.505 171.872C475.456 172.394 475.889 174.337 475.379 176.238C474.87 178.14 473.531 179.581 471.58 179.058ZM344.693 169.026L346.15 169.417L348.327 161.291L352.871 162.509L350.694 170.634L352.151 171.025L354.692 161.541L347.234 159.543L344.693 169.026ZM353.564 175.215L355.021 175.605L356.364 170.592L356.488 170.625C356.67 171.23 356.983 172.531 358.81 173.021C361.181 173.656 363.345 172.198 364.153 169.185C364.954 166.196 363.808 163.851 361.413 163.21C359.56 162.713 358.688 163.697 358.235 164.105L358.062 164.059L358.465 162.552L357.058 162.175L353.564 175.215ZM357.22 167.301C357.789 165.177 359.111 163.996 360.889 164.472C362.741 164.968 363.238 166.769 362.702 168.77C362.16 170.795 360.791 172.149 358.963 171.659C357.21 171.189 356.644 169.449 357.22 167.301ZM368.616 175.648C371.184 176.336 373.436 174.849 374.223 171.91C375.017 168.946 373.811 166.532 371.243 165.844C368.674 165.155 366.423 166.643 365.629 169.607C364.841 172.546 366.047 174.96 368.616 175.648ZM368.967 174.339C367.015 173.817 366.576 171.899 367.086 169.997C367.595 168.096 368.941 166.63 370.892 167.152C372.843 167.675 373.276 169.618 372.766 171.519C372.257 173.421 370.918 174.862 368.967 174.339ZM376.928 175.361L378.893 168.026L377.436 167.635L374.895 177.119L376.599 177.576L383.108 171.458L381.143 178.793L382.6 179.184L385.141 169.7L383.462 169.25L376.928 175.361ZM388.773 181.049C390.872 181.612 392.6 180.698 393.297 179.085L391.839 178.695C391.29 179.659 390.26 180.045 389.124 179.74C387.395 179.277 386.668 177.547 387.257 175.349C387.832 173.2 389.346 172.097 391.05 172.554C392.334 172.898 392.888 173.893 392.878 174.817L394.335 175.208C394.565 173.363 393.376 171.774 391.376 171.238C388.807 170.55 386.56 172.118 385.786 175.008C385.025 177.848 386.106 180.335 388.773 181.049ZM397.916 173.123L396.236 172.673L397.979 178.222L393.695 182.157L395.375 182.606L398.633 179.535L399.919 183.824L401.598 184.274L399.806 178.712L404.139 174.79L402.46 174.34L399.149 177.609L397.916 173.123ZM406.791 185.877C409.36 186.566 411.611 185.078 412.399 182.139C413.193 179.175 411.987 176.761 409.418 176.073C406.85 175.384 404.598 176.872 403.804 179.836C403.017 182.775 404.223 185.189 406.791 185.877ZM407.142 184.568C405.191 184.046 404.752 182.128 405.261 180.226C405.771 178.325 407.117 176.859 409.068 177.382C411.019 177.904 411.451 179.847 410.942 181.748C410.432 183.65 409.093 185.091 407.142 184.568ZM412.087 187.085L413.84 187.554L418.168 184.346L418.908 184.545L417.817 188.62L419.274 189.01L420.366 184.935L421.106 185.134L423.225 190.069L424.979 190.539L422.441 184.697L427.47 181.042L425.742 180.579L421.495 183.782L420.73 183.577L421.815 179.527L420.358 179.136L419.272 183.186L418.482 182.975L416.406 178.077L414.677 177.614L417.23 183.301L412.087 187.085ZM425.025 193.463L426.482 193.853L427.21 191.137L434.224 193.016L433.496 195.733L434.953 196.123L436.045 192.048L434.588 191.658L436.765 183.532L430.739 181.918L429.412 185.586C428.472 188.179 427.888 189.002 426.907 189.6L426.117 189.388L425.025 193.463ZM428.562 190.043C429.463 189.345 430.11 187.897 430.844 185.97L431.733 183.64L434.944 184.5L433.131 191.267L428.562 190.043ZM441.243 195.109C443.169 195.625 444.835 195.039 445.663 193.725L444.361 192.953C443.726 193.842 442.736 194.106 441.593 193.8C439.883 193.341 439 191.92 439.476 189.871L446.361 191.715L446.526 191.098C447.472 187.566 445.697 185.794 443.722 185.264C441.153 184.576 438.907 186.144 438.126 189.059C437.345 191.973 438.501 194.374 441.243 195.109ZM439.814 188.611C440.308 187.162 441.704 186.126 443.371 186.573C444.952 186.997 445.647 188.453 445.216 190.059L439.814 188.611ZM451.142 187.385L449.685 186.994L447.143 196.478L448.601 196.868L449.686 192.818L454.23 194.036L453.145 198.086L454.602 198.476L457.143 188.993L455.686 188.602L454.594 192.677L450.05 191.46L451.142 187.385ZM459 197.352L460.966 190.017L459.509 189.627L456.967 199.11L458.672 199.567L465.181 193.449L463.216 200.784L464.673 201.175L467.214 191.691L465.535 191.241L459 197.352ZM472.751 203.339L474.134 203.71L476.675 194.226L472.773 193.181C470.73 192.633 469.202 193.369 468.734 195.116C468.385 196.419 468.791 197.52 469.829 198.215L466.429 201.645L468.009 202.069L471.24 198.805L473.784 199.487L472.751 203.339ZM474.147 198.128L471.456 197.407C470.424 197.131 469.948 196.414 470.191 195.507C470.438 194.587 471.28 194.21 472.416 194.514L474.935 195.189L474.147 198.128Z" fill="black"/>
<path d="M422.488 67.482C420.154 72.0624 421.976 77.6672 426.556 80.0006C431.136 82.334 436.741 80.5125 439.075 75.9321" stroke="black"/>
<path d="M464.424 26.1706C466.233 22.6208 464.821 18.2771 461.271 16.4687C457.721 14.6603 453.378 16.072 451.569 19.6218" stroke="black"/>
<path d="M464.424 26.1709L439.074 75.932" stroke="black"/>
<path d="M422.488 67.4824L434.916 43.0857" stroke="black"/>
</g>
<defs>
<clipPath id="clip0_1543_2921">
<rect width="600" height="600" fill="white" transform="translate(0 0.792969)"/>
</clipPath>
</defs>
</svg>
