<svg width="1990" height="443" viewBox="0 0 1990 443" fill="none" xmlns="http://www.w3.org/2000/svg">
<rect x="0.566406" width="1989" height="443" rx="94" fill="#F4ECE1"/>
<path d="M168.486 120.02V121.89C171.036 123.08 173.076 124.95 174.606 127.5C176.193 130.05 176.986 132.855 176.986 135.915C176.986 141.015 175.23 145.152 171.716 148.325C168.203 151.442 163.103 153 156.416 153H129.301V92.31H155.736C161.913 92.31 166.673 93.7833 170.016 96.73C173.416 99.62 175.116 103.275 175.116 107.695C175.116 113.532 172.906 117.64 168.486 120.02ZM136.951 99.11V118.065H155.566C163.443 118.065 167.381 114.835 167.381 108.375C167.381 105.202 166.248 102.878 163.981 101.405C161.715 99.875 158.853 99.11 155.396 99.11H136.951ZM136.951 146.2H155.906C159.816 146.2 163.018 145.378 165.511 143.735C168.005 142.035 169.251 139.23 169.251 135.32C169.251 131.637 168.005 128.973 165.511 127.33C163.075 125.63 159.901 124.78 155.991 124.78H136.951V146.2ZM219.331 120.7V122.57C221.654 123.363 223.779 125.035 225.706 127.585C227.633 130.078 228.596 133.138 228.596 136.765C228.596 141.752 226.613 145.888 222.646 149.175C218.736 152.462 213.551 154.105 207.091 154.105C200.631 154.105 195.418 152.462 191.451 149.175C187.541 145.888 185.586 141.752 185.586 136.765C185.586 133.195 186.549 130.135 188.476 127.585C190.403 125.035 192.528 123.363 194.851 122.57V120.7C192.981 119.907 191.253 118.405 189.666 116.195C188.136 113.985 187.371 111.322 187.371 108.205C187.371 103.502 189.213 99.6767 192.896 96.73C196.579 93.7833 201.311 92.31 207.091 92.31C212.871 92.31 217.603 93.7833 221.286 96.73C224.969 99.6767 226.811 103.502 226.811 108.205C226.811 111.208 226.018 113.843 224.431 116.11C222.844 118.377 221.144 119.907 219.331 120.7ZM215.931 101.405C213.608 99.6483 210.661 98.77 207.091 98.77C203.521 98.77 200.546 99.6483 198.166 101.405C195.843 103.105 194.681 105.485 194.681 108.545C194.681 111.605 195.843 114.013 198.166 115.77C200.546 117.527 203.521 118.405 207.091 118.405C210.661 118.405 213.608 117.527 215.931 115.77C218.311 114.013 219.501 111.605 219.501 108.545C219.501 105.485 218.311 103.105 215.931 101.405ZM196.721 144.415C199.271 146.455 202.728 147.475 207.091 147.475C211.454 147.475 214.883 146.455 217.376 144.415C219.926 142.318 221.201 139.542 221.201 136.085C221.201 132.572 219.954 129.823 217.461 127.84C214.968 125.857 211.511 124.865 207.091 124.865C202.671 124.865 199.214 125.857 196.721 127.84C194.228 129.823 192.981 132.572 192.981 136.085C192.981 139.542 194.228 142.318 196.721 144.415ZM239.844 164.985H233.044L258.714 88.485H265.259L239.844 164.985ZM283.045 116.96H301.32C307.78 116.96 312.767 118.547 316.28 121.72C319.85 124.893 321.635 129.313 321.635 134.98C321.635 140.647 319.85 145.067 316.28 148.24C312.767 151.413 307.78 153 301.32 153H275.395V92.31H316.96V99.28H283.045V116.96ZM283.045 146.2H300.045C304.975 146.2 308.517 145.237 310.67 143.31C312.88 141.383 313.985 138.578 313.985 134.895C313.985 127.415 309.338 123.675 300.045 123.675H283.045V146.2ZM330.929 140.59H337.984C339.174 145.407 342.999 147.815 349.459 147.815C353.369 147.815 356.457 146.568 358.724 144.075C361.047 141.582 362.322 138.323 362.549 134.3H343.254V128.18H362.464C362.124 124.27 360.849 121.153 358.639 118.83C356.485 116.507 353.425 115.345 349.459 115.345C343.339 115.345 339.627 117.583 338.324 122.06H331.269C332.119 118.093 334.13 114.948 337.304 112.625C340.477 110.245 344.5 109.055 349.374 109.055C355.72 109.055 360.735 111.152 364.419 115.345C368.102 119.482 369.944 124.893 369.944 131.58C369.944 138.323 368.102 143.763 364.419 147.9C360.735 152.037 355.692 154.105 349.289 154.105C344.472 154.105 340.392 152.858 337.049 150.365C333.762 147.872 331.722 144.613 330.929 140.59ZM391.412 153H381.212V110.16H388.267V143.31H390.137L408.922 110.16H419.462V153H412.407V119.85H410.537L391.412 153ZM407.562 91.46H413.427C413.314 95.4267 412.096 98.4867 409.772 100.64C407.449 102.793 404.247 103.87 400.167 103.87C396.144 103.87 392.971 102.793 390.647 100.64C388.324 98.4867 387.106 95.4267 386.992 91.46H392.857C392.971 96.2767 395.407 98.685 400.167 98.685C404.814 98.685 407.279 96.2767 407.562 91.46ZM429.004 116.45V110.16H465.894V116.45H451.104V153H443.879V116.45H429.004ZM559.09 132.515H492.79V126.395H559.09V132.515ZM596.853 115.43C600.65 111.18 605.807 109.055 612.323 109.055C618.84 109.055 623.968 111.18 627.708 115.43C631.505 119.68 633.403 125.063 633.403 131.58C633.403 138.097 631.505 143.48 627.708 147.73C623.968 151.98 618.84 154.105 612.323 154.105C605.807 154.105 600.65 151.98 596.853 147.73C593.113 143.48 591.243 138.097 591.243 131.58C591.243 125.063 593.113 119.68 596.853 115.43ZM602.038 143.14C604.418 146.257 607.847 147.815 612.323 147.815C616.8 147.815 620.228 146.257 622.608 143.14C624.988 139.967 626.178 136.113 626.178 131.58C626.178 127.047 624.988 123.222 622.608 120.105C620.228 116.932 616.8 115.345 612.323 115.345C607.847 115.345 604.418 116.932 602.038 120.105C599.658 123.222 598.468 127.047 598.468 131.58C598.468 136.113 599.658 139.967 602.038 143.14ZM644.679 153V110.16H676.809V116.45H651.904V153H644.679ZM707.002 115.345C702.525 115.345 699.154 116.903 696.887 120.02C694.677 123.137 693.572 126.99 693.572 131.58C693.572 136.17 694.677 140.023 696.887 143.14C699.154 146.257 702.525 147.815 707.002 147.815C711.195 147.815 714.425 146.342 716.692 143.395C719.015 140.392 720.177 136.453 720.177 131.58C720.177 126.707 719.015 122.797 716.692 119.85C714.425 116.847 711.195 115.345 707.002 115.345ZM686.432 110.16H693.402V114.75H695.272C698.332 110.953 702.78 109.055 708.617 109.055C714.397 109.055 718.959 111.18 722.302 115.43C725.702 119.68 727.402 125.063 727.402 131.58C727.402 138.21 725.702 143.622 722.302 147.815C718.959 152.008 714.397 154.105 708.617 154.105C702.724 154.105 698.36 152.207 695.527 148.41H693.657V170H686.432V110.16ZM741.702 115.43C745.499 111.18 750.655 109.055 757.172 109.055C763.689 109.055 768.817 111.18 772.557 115.43C776.354 119.68 778.252 125.063 778.252 131.58C778.252 138.097 776.354 143.48 772.557 147.73C768.817 151.98 763.689 154.105 757.172 154.105C750.655 154.105 745.499 151.98 741.702 147.73C737.962 143.48 736.092 138.097 736.092 131.58C736.092 125.063 737.962 119.68 741.702 115.43ZM746.887 143.14C749.267 146.257 752.695 147.815 757.172 147.815C761.649 147.815 765.077 146.257 767.457 143.14C769.837 139.967 771.027 136.113 771.027 131.58C771.027 127.047 769.837 123.222 767.457 120.105C765.077 116.932 761.649 115.345 757.172 115.345C752.695 115.345 749.267 116.932 746.887 120.105C744.507 123.222 743.317 127.047 743.317 131.58C743.317 136.113 744.507 139.967 746.887 143.14ZM789.528 153V110.16H801.003L811.543 129.71H813.413L823.953 110.16H835.258V153H828.203V118.575H826.333L816.388 136.935H808.398L798.453 118.575H796.583V153H789.528ZM887.375 153H880.15V134.13H856.435V153H849.21V110.16H856.435V127.84H880.15V110.16H887.375V153ZM928.624 153V148.495H926.754C923.807 152.235 919.359 154.105 913.409 154.105C908.706 154.105 904.966 152.745 902.189 150.025C899.412 147.305 898.024 144.018 898.024 140.165C898.024 136.255 899.384 132.912 902.104 130.135C904.824 127.358 908.932 125.97 914.429 125.97H928.369V124.27C928.369 121.55 927.519 119.397 925.819 117.81C924.119 116.167 921.484 115.345 917.914 115.345C911.681 115.345 908.366 117.413 907.969 121.55H900.744C901.027 117.64 902.699 114.58 905.759 112.37C908.876 110.16 912.871 109.055 917.744 109.055C923.241 109.055 927.547 110.33 930.664 112.88C933.837 115.43 935.424 119.085 935.424 123.845V153H928.624ZM915.194 147.815C918.764 147.815 921.852 146.653 924.459 144.33C927.066 141.95 928.369 139.06 928.369 135.66V131.75H915.534C908.677 131.75 905.249 134.47 905.249 139.91C905.249 142.347 906.099 144.273 907.799 145.69C909.556 147.107 912.021 147.815 915.194 147.815ZM962.509 110.16H983.844V153H976.534V136.085H963.529C962.395 136.085 961.517 136.057 960.894 136L954.434 153H946.869L954.094 134.385C949.674 132.288 947.464 128.548 947.464 123.165C947.464 119.028 948.739 115.827 951.289 113.56C953.895 111.293 957.635 110.16 962.509 110.16ZM976.534 116.28H963.274C960.157 116.28 957.947 116.875 956.644 118.065C955.34 119.255 954.689 120.983 954.689 123.25C954.689 125.46 955.34 127.132 956.644 128.265C957.947 129.398 960.157 129.965 963.274 129.965H976.534V116.28ZM1018.65 140.59H1025.7C1026.89 145.407 1030.72 147.815 1037.18 147.815C1041.09 147.815 1044.18 146.568 1046.44 144.075C1048.77 141.582 1050.04 138.323 1050.27 134.3H1030.97V128.18H1050.18C1049.84 124.27 1048.57 121.153 1046.36 118.83C1044.21 116.507 1041.15 115.345 1037.18 115.345C1031.06 115.345 1027.35 117.583 1026.04 122.06H1018.99C1019.84 118.093 1021.85 114.948 1025.02 112.625C1028.2 110.245 1032.22 109.055 1037.09 109.055C1043.44 109.055 1048.46 111.152 1052.14 115.345C1055.82 119.482 1057.66 124.893 1057.66 131.58C1057.66 138.323 1055.82 143.763 1052.14 147.9C1048.46 152.037 1043.41 154.105 1037.01 154.105C1032.19 154.105 1028.11 152.858 1024.77 150.365C1021.48 147.872 1019.44 144.613 1018.65 140.59ZM1107.1 153H1099.87V134.13H1076.16V153H1068.93V110.16H1076.16V127.84H1099.87V110.16H1107.1V153ZM1151.32 110.16H1158.55V146.71H1166.37V165.155H1159.4V153H1121.06V110.16H1128.29V146.71H1151.32V110.16ZM1185.88 153H1175.68V110.16H1182.73V143.31H1184.6L1203.39 110.16H1213.93V153H1206.87V119.85H1205L1185.88 153ZM1257.47 153L1247.95 134.13H1235.12V153H1227.89V110.16H1235.12V127.84H1248.12L1257.05 110.16H1264.61L1254.16 130.815L1265.21 153H1257.47ZM1270.61 153V146.2H1272.06C1275.06 146.2 1277.21 144.812 1278.52 142.035C1279.82 139.202 1280.47 134.102 1280.47 126.735V110.16H1313.28V153H1305.97V116.45H1287.19V126.905C1287.19 136.595 1286 143.367 1283.62 147.22C1281.29 151.073 1277.44 153 1272.06 153H1270.61ZM1330.14 115.43C1333.94 111.18 1339.1 109.055 1345.61 109.055C1352.13 109.055 1357.26 111.18 1361 115.43C1364.8 119.68 1366.69 125.063 1366.69 131.58C1366.69 138.097 1364.8 143.48 1361 147.73C1357.26 151.98 1352.13 154.105 1345.61 154.105C1339.1 154.105 1333.94 151.98 1330.14 147.73C1326.4 143.48 1324.53 138.097 1324.53 131.58C1324.53 125.063 1326.4 119.68 1330.14 115.43ZM1335.33 143.14C1337.71 146.257 1341.14 147.815 1345.61 147.815C1350.09 147.815 1353.52 146.257 1355.9 143.14C1358.28 139.967 1359.47 136.113 1359.47 131.58C1359.47 127.047 1358.28 123.222 1355.9 120.105C1353.52 116.932 1350.09 115.345 1345.61 115.345C1341.14 115.345 1337.71 116.932 1335.33 120.105C1332.95 123.222 1331.76 127.047 1331.76 131.58C1331.76 136.113 1332.95 139.967 1335.33 143.14ZM1415.8 153H1408.57V116.45H1385.2V153H1377.97V110.16H1415.8V153ZM1466.91 129.03V131.495H1434.27C1434.39 136.652 1435.6 140.675 1437.93 143.565C1440.25 146.398 1443.59 147.815 1447.96 147.815C1453.85 147.815 1457.48 145.605 1458.84 141.185H1466.15C1465.41 145.038 1463.46 148.155 1460.28 150.535C1457.17 152.915 1453.06 154.105 1447.96 154.105C1441.44 154.105 1436.34 151.98 1432.66 147.73C1428.97 143.48 1427.13 137.955 1427.13 131.155C1427.13 124.468 1428.97 119.113 1432.66 115.09C1436.34 111.067 1441.38 109.055 1447.79 109.055C1453.85 109.055 1458.53 110.982 1461.81 114.835C1465.1 118.632 1466.8 123.363 1466.91 129.03ZM1447.62 115.345C1443.93 115.345 1440.99 116.308 1438.78 118.235C1436.57 120.105 1435.21 122.513 1434.7 125.46H1459.43C1459.21 122.57 1458.04 120.162 1455.95 118.235C1453.85 116.308 1451.07 115.345 1447.62 115.345ZM1516.33 146.71H1524.23V165.155H1517.18V153H1480.12V165.155H1473.06V146.71H1478.76C1482.27 139.23 1484.03 130.957 1484.03 121.89V110.16H1516.33V146.71ZM1509.1 146.71V116.45H1490.74V121.89C1490.74 131.58 1489.18 139.853 1486.07 146.71H1509.1ZM1543.81 153H1533.61V110.16H1540.66V143.31H1542.53L1561.32 110.16H1571.86V153H1564.8V119.85H1562.93L1543.81 153ZM1599.68 110.16H1621.01V153H1613.7V136.085H1600.7C1599.56 136.085 1598.68 136.057 1598.06 136L1591.6 153H1584.04L1591.26 134.385C1586.84 132.288 1584.63 128.548 1584.63 123.165C1584.63 119.028 1585.91 115.827 1588.46 113.56C1591.06 111.293 1594.8 110.16 1599.68 110.16ZM1613.7 116.28H1600.44C1597.32 116.28 1595.11 116.875 1593.81 118.065C1592.51 119.255 1591.86 120.983 1591.86 123.25C1591.86 125.46 1592.51 127.132 1593.81 128.265C1595.11 129.398 1597.32 129.965 1600.44 129.965H1613.7V116.28ZM131.511 215.43C135.308 211.18 140.465 209.055 146.981 209.055C153.498 209.055 158.626 211.18 162.366 215.43C166.163 219.68 168.061 225.063 168.061 231.58C168.061 238.097 166.163 243.48 162.366 247.73C158.626 251.98 153.498 254.105 146.981 254.105C140.465 254.105 135.308 251.98 131.511 247.73C127.771 243.48 125.901 238.097 125.901 231.58C125.901 225.063 127.771 219.68 131.511 215.43ZM136.696 243.14C139.076 246.257 142.505 247.815 146.981 247.815C151.458 247.815 154.886 246.257 157.266 243.14C159.646 239.967 160.836 236.113 160.836 231.58C160.836 227.047 159.646 223.222 157.266 220.105C154.886 216.932 151.458 215.345 146.981 215.345C142.505 215.345 139.076 216.932 136.696 220.105C134.316 223.222 133.126 227.047 133.126 231.58C133.126 236.113 134.316 239.967 136.696 243.14ZM233.169 229.37V231.24C235.266 231.75 236.938 232.883 238.184 234.64C239.488 236.397 240.139 238.607 240.139 241.27C240.139 249.09 235.096 253 225.009 253H202.994V210.16H224.244C228.551 210.16 231.866 211.123 234.189 213.05C236.569 214.92 237.759 217.555 237.759 220.955C237.759 222.938 237.306 224.667 236.399 226.14C235.549 227.613 234.473 228.69 233.169 229.37ZM210.134 246.88H224.584C230.138 246.88 232.914 244.755 232.914 240.505C232.914 236.198 230.138 234.045 224.584 234.045H210.134V246.88ZM210.134 216.28V227.925H223.564C226.001 227.925 227.758 227.387 228.834 226.31C229.968 225.233 230.534 223.845 230.534 222.145C230.534 218.235 228.211 216.28 223.564 216.28H210.134ZM261.588 253H251.388V210.16H258.443V243.31H260.313L279.098 210.16H289.638V253H282.583V219.85H280.713L261.588 253ZM299.18 216.45V210.16H336.07V216.45H321.28V253H314.055V216.45H299.18ZM372.887 253V248.495H371.017C368.07 252.235 363.622 254.105 357.672 254.105C352.969 254.105 349.229 252.745 346.452 250.025C343.675 247.305 342.287 244.018 342.287 240.165C342.287 236.255 343.647 232.912 346.367 230.135C349.087 227.358 353.195 225.97 358.692 225.97H372.632V224.27C372.632 221.55 371.782 219.397 370.082 217.81C368.382 216.167 365.747 215.345 362.177 215.345C355.944 215.345 352.629 217.413 352.232 221.55H345.007C345.29 217.64 346.962 214.58 350.022 212.37C353.139 210.16 357.134 209.055 362.007 209.055C367.504 209.055 371.81 210.33 374.927 212.88C378.1 215.43 379.687 219.085 379.687 223.845V253H372.887ZM359.457 247.815C363.027 247.815 366.115 246.653 368.722 244.33C371.329 241.95 372.632 239.06 372.632 235.66V231.75H359.797C352.94 231.75 349.512 234.47 349.512 239.91C349.512 242.347 350.362 244.273 352.062 245.69C353.819 247.107 356.284 247.815 359.457 247.815ZM392.916 253V210.16H404.391L414.931 229.71H416.801L427.341 210.16H438.646V253H431.591V218.575H429.721L419.776 236.935H411.786L401.841 218.575H399.971V253H392.916ZM462.799 253H452.599V210.16H459.654V243.31H461.524L480.309 210.16H490.849V253H483.794V219.85H481.924L462.799 253ZM542.976 253H535.751V234.13H512.036V253H504.811V210.16H512.036V227.84H535.751V210.16H542.976V253ZM584.225 253V248.495H582.355C579.408 252.235 574.96 254.105 569.01 254.105C564.306 254.105 560.566 252.745 557.79 250.025C555.013 247.305 553.625 244.018 553.625 240.165C553.625 236.255 554.985 232.912 557.705 230.135C560.425 227.358 564.533 225.97 570.03 225.97H583.97V224.27C583.97 221.55 583.12 219.397 581.42 217.81C579.72 216.167 577.085 215.345 573.515 215.345C567.281 215.345 563.966 217.413 563.57 221.55H556.345C556.628 217.64 558.3 214.58 561.36 212.37C564.476 210.16 568.471 209.055 573.345 209.055C578.841 209.055 583.148 210.33 586.265 212.88C589.438 215.43 591.025 219.085 591.025 223.845V253H584.225ZM570.795 247.815C574.365 247.815 577.453 246.653 580.06 244.33C582.666 241.95 583.97 239.06 583.97 235.66V231.75H571.135C564.278 231.75 560.85 234.47 560.85 239.91C560.85 242.347 561.7 244.273 563.4 245.69C565.156 247.107 567.621 247.815 570.795 247.815ZM632.899 253L622.274 235.065H619.214L608.334 253H600.429L613.774 231.07L601.789 210.16H609.439L619.299 227.16H622.359L632.389 210.16H639.954L627.799 230.815L641.059 253H632.899ZM685.011 253H674.811V210.16H681.866V243.31H683.736L702.521 210.16H713.061V253H706.006V219.85H704.136L685.011 253ZM771.25 215.345C766.773 215.345 763.402 216.903 761.135 220.02C758.925 223.137 757.82 226.99 757.82 231.58C757.82 236.17 758.925 240.023 761.135 243.14C763.402 246.257 766.773 247.815 771.25 247.815C775.443 247.815 778.673 246.342 780.94 243.395C783.263 240.392 784.425 236.453 784.425 231.58C784.425 226.707 783.263 222.797 780.94 219.85C778.673 216.847 775.443 215.345 771.25 215.345ZM750.68 210.16H757.65V214.75H759.52C762.58 210.953 767.028 209.055 772.865 209.055C778.645 209.055 783.207 211.18 786.55 215.43C789.95 219.68 791.65 225.063 791.65 231.58C791.65 238.21 789.95 243.622 786.55 247.815C783.207 252.008 778.645 254.105 772.865 254.105C766.972 254.105 762.608 252.207 759.775 248.41H757.905V270H750.68V210.16ZM830.26 253V248.495H828.39C825.443 252.235 820.995 254.105 815.045 254.105C810.342 254.105 806.602 252.745 803.825 250.025C801.048 247.305 799.66 244.018 799.66 240.165C799.66 236.255 801.02 232.912 803.74 230.135C806.46 227.358 810.568 225.97 816.065 225.97H830.005V224.27C830.005 221.55 829.155 219.397 827.455 217.81C825.755 216.167 823.12 215.345 819.55 215.345C813.317 215.345 810.002 217.413 809.605 221.55H802.38C802.663 217.64 804.335 214.58 807.395 212.37C810.512 210.16 814.507 209.055 819.38 209.055C824.877 209.055 829.183 210.33 832.3 212.88C835.473 215.43 837.06 219.085 837.06 223.845V253H830.26ZM816.83 247.815C820.4 247.815 823.488 246.653 826.095 244.33C828.702 241.95 830.005 239.06 830.005 235.66V231.75H817.17C810.313 231.75 806.885 234.47 806.885 239.91C806.885 242.347 807.735 244.273 809.435 245.69C811.192 247.107 813.657 247.815 816.83 247.815ZM879.274 240.08H886.499C885.649 244.387 883.638 247.815 880.464 250.365C877.348 252.858 873.353 254.105 868.479 254.105C862.019 254.105 856.919 252.008 853.179 247.815C849.496 243.565 847.654 238.153 847.654 231.58C847.654 224.95 849.496 219.538 853.179 215.345C856.863 211.152 861.963 209.055 868.479 209.055C873.409 209.055 877.404 210.302 880.464 212.795C883.581 215.232 885.508 218.49 886.244 222.57H879.019C877.489 217.753 873.976 215.345 868.479 215.345C863.889 215.345 860.461 216.875 858.194 219.935C855.984 222.938 854.879 226.763 854.879 231.41C854.879 236.113 856.013 240.023 858.279 243.14C860.546 246.257 863.946 247.815 868.479 247.815C874.486 247.815 878.084 245.237 879.274 240.08ZM892.852 216.45V210.16H929.742V216.45H914.952V253H907.727V216.45H892.852ZM949.474 253H939.274V210.16H946.329V243.31H948.199L966.984 210.16H977.524V253H970.469V219.85H968.599L949.474 253ZM987.066 216.45V210.16H1023.96V216.45H1009.17V253H1001.94V216.45H987.066ZM1069.97 229.03V231.495H1037.33C1037.44 236.652 1038.66 240.675 1040.98 243.565C1043.31 246.398 1046.65 247.815 1051.01 247.815C1056.91 247.815 1060.53 245.605 1061.89 241.185H1069.2C1068.47 245.038 1066.51 248.155 1063.34 250.535C1060.22 252.915 1056.11 254.105 1051.01 254.105C1044.5 254.105 1039.4 251.98 1035.71 247.73C1032.03 243.48 1030.19 237.955 1030.19 231.155C1030.19 224.468 1032.03 219.113 1035.71 215.09C1039.4 211.067 1044.44 209.055 1050.84 209.055C1056.91 209.055 1061.58 210.982 1064.87 214.835C1068.16 218.632 1069.86 223.363 1069.97 229.03ZM1050.67 215.345C1046.99 215.345 1044.04 216.308 1041.83 218.235C1039.62 220.105 1038.26 222.513 1037.75 225.46H1062.49C1062.26 222.57 1061.1 220.162 1059 218.235C1056.91 216.308 1054.13 215.345 1050.67 215.345ZM1076.37 253V246.2H1077.82C1080.82 246.2 1082.97 244.812 1084.28 242.035C1085.58 239.202 1086.23 234.102 1086.23 226.735V210.16H1119.04V253H1111.73V216.45H1092.95V226.905C1092.95 236.595 1091.76 243.367 1089.38 247.22C1087.05 251.073 1083.2 253 1077.82 253H1076.37ZM1140.16 210.16V224.44H1152.82C1157.98 224.44 1161.94 225.687 1164.72 228.18C1167.55 230.673 1168.97 234.158 1168.97 238.635C1168.97 243.168 1167.55 246.71 1164.72 249.26C1161.94 251.753 1157.98 253 1152.82 253H1132.93V210.16H1140.16ZM1140.16 246.71H1151.8C1155.37 246.71 1157.92 246.03 1159.45 244.67C1160.98 243.31 1161.75 241.298 1161.75 238.635C1161.75 235.972 1160.98 233.96 1159.45 232.6C1157.92 231.24 1155.37 230.56 1151.8 230.56H1140.16V246.71ZM1217.41 253H1210.19V234.13H1186.47V253H1179.25V210.16H1186.47V227.84H1210.19V210.16H1217.41V253ZM1231.38 210.16H1238.6V224.44H1250.42C1255.57 224.44 1259.54 225.687 1262.32 228.18C1265.15 230.673 1266.57 234.158 1266.57 238.635C1266.57 243.168 1265.15 246.71 1262.32 249.26C1259.54 251.753 1255.57 253 1250.42 253H1231.38V210.16ZM1238.6 230.56V246.71H1249.4C1252.97 246.71 1255.52 246.03 1257.05 244.67C1258.58 243.31 1259.34 241.298 1259.34 238.635C1259.34 235.972 1258.58 233.96 1257.05 232.6C1255.52 231.24 1252.97 230.56 1249.4 230.56H1238.6ZM1273.45 210.16H1280.68V253H1273.45V210.16ZM1323.28 253L1312.65 235.065H1309.59L1298.71 253H1290.81L1304.15 231.07L1292.17 210.16H1299.82L1309.68 227.16H1312.74L1322.77 210.16H1330.33L1318.18 230.815L1331.44 253H1323.28ZM1403.01 253H1395.79V216.45H1372.41V253H1365.19V210.16H1403.01V253ZM1437.55 215.345C1433.08 215.345 1429.71 216.903 1427.44 220.02C1425.23 223.137 1424.12 226.99 1424.12 231.58C1424.12 236.17 1425.23 240.023 1427.44 243.14C1429.71 246.257 1433.08 247.815 1437.55 247.815C1441.75 247.815 1444.98 246.342 1447.24 243.395C1449.57 240.392 1450.73 236.453 1450.73 231.58C1450.73 226.707 1449.57 222.797 1447.24 219.85C1444.98 216.847 1441.75 215.345 1437.55 215.345ZM1416.98 210.16H1423.95V214.75H1425.82C1428.88 210.953 1433.33 209.055 1439.17 209.055C1444.95 209.055 1449.51 211.18 1452.85 215.43C1456.25 219.68 1457.95 225.063 1457.95 231.58C1457.95 238.21 1456.25 243.622 1452.85 247.815C1449.51 252.008 1444.95 254.105 1439.17 254.105C1433.28 254.105 1428.91 252.207 1426.08 248.41H1424.21V270H1416.98V210.16ZM1472.25 215.43C1476.05 211.18 1481.21 209.055 1487.72 209.055C1494.24 209.055 1499.37 211.18 1503.11 215.43C1506.91 219.68 1508.8 225.063 1508.8 231.58C1508.8 238.097 1506.91 243.48 1503.11 247.73C1499.37 251.98 1494.24 254.105 1487.72 254.105C1481.21 254.105 1476.05 251.98 1472.25 247.73C1468.51 243.48 1466.64 238.097 1466.64 231.58C1466.64 225.063 1468.51 219.68 1472.25 215.43ZM1477.44 243.14C1479.82 246.257 1483.25 247.815 1487.72 247.815C1492.2 247.815 1495.63 246.257 1498.01 243.14C1500.39 239.967 1501.58 236.113 1501.58 231.58C1501.58 227.047 1500.39 223.222 1498.01 220.105C1495.63 216.932 1492.2 215.345 1487.72 215.345C1483.25 215.345 1479.82 216.932 1477.44 220.105C1475.06 223.222 1473.87 227.047 1473.87 231.58C1473.87 236.113 1475.06 239.967 1477.44 243.14ZM1558.24 246.71H1566.15V265.155H1559.09V253H1522.03V265.155H1514.98V246.71H1520.67C1524.19 239.23 1525.94 230.957 1525.94 221.89V210.16H1558.24V246.71ZM1551.02 246.71V216.45H1532.66V221.89C1532.66 231.58 1531.1 239.853 1527.98 246.71H1551.02ZM1587.09 270H1579.78L1588.62 249.005L1570.34 210.16H1578.08L1591.17 238.38H1593.29L1605.19 210.16H1612.76L1587.09 270ZM1650.85 253L1641.33 234.13H1628.49V253H1621.27V210.16H1628.49V227.84H1641.5L1650.42 210.16H1657.99L1647.53 230.815L1658.58 253H1650.85ZM1664.41 216.45V210.16H1701.3V216.45H1686.51V253H1679.28V216.45H1664.41ZM1738.12 253V248.495H1736.25C1733.3 252.235 1728.85 254.105 1722.9 254.105C1718.2 254.105 1714.46 252.745 1711.68 250.025C1708.9 247.305 1707.52 244.018 1707.52 240.165C1707.52 236.255 1708.88 232.912 1711.6 230.135C1714.32 227.358 1718.42 225.97 1723.92 225.97H1737.86V224.27C1737.86 221.55 1737.01 219.397 1735.31 217.81C1733.61 216.167 1730.98 215.345 1727.41 215.345C1721.17 215.345 1717.86 217.413 1717.46 221.55H1710.24C1710.52 217.64 1712.19 214.58 1715.25 212.37C1718.37 210.16 1722.36 209.055 1727.24 209.055C1732.73 209.055 1737.04 210.33 1740.16 212.88C1743.33 215.43 1744.92 219.085 1744.92 223.845V253H1738.12ZM1724.69 247.815C1728.26 247.815 1731.34 246.653 1733.95 244.33C1736.56 241.95 1737.86 239.06 1737.86 235.66V231.75H1725.03C1718.17 231.75 1714.74 234.47 1714.74 239.91C1714.74 242.347 1715.59 244.273 1717.29 245.69C1719.05 247.107 1721.51 247.815 1724.69 247.815ZM1786.79 253L1776.17 235.065H1773.11L1762.23 253H1754.32L1767.67 231.07L1755.68 210.16H1763.33L1773.19 227.16H1776.25L1786.28 210.16H1793.85L1781.69 230.815L1794.95 253H1786.79ZM1808.87 253H1804.62V243.14H1813.46V254.615L1808.7 262.775H1804.11L1808.87 254.615V253ZM158.711 329.37V331.24C160.808 331.75 162.48 332.883 163.726 334.64C165.03 336.397 165.681 338.607 165.681 341.27C165.681 349.09 160.638 353 150.551 353H128.536V310.16H149.786C154.093 310.16 157.408 311.123 159.731 313.05C162.111 314.92 163.301 317.555 163.301 320.955C163.301 322.938 162.848 324.667 161.941 326.14C161.091 327.613 160.015 328.69 158.711 329.37ZM135.676 346.88H150.126C155.68 346.88 158.456 344.755 158.456 340.505C158.456 336.198 155.68 334.045 150.126 334.045H135.676V346.88ZM135.676 316.28V327.925H149.106C151.543 327.925 153.3 327.387 154.376 326.31C155.51 325.233 156.076 323.845 156.076 322.145C156.076 318.235 153.753 316.28 149.106 316.28H135.676ZM230.167 353L220.647 334.13H207.812V353H200.587V310.16H207.812V327.84H220.817L229.742 310.16H237.307L226.852 330.815L237.902 353H230.167ZM249.881 315.43C253.677 311.18 258.834 309.055 265.351 309.055C271.867 309.055 276.996 311.18 280.736 315.43C284.532 319.68 286.431 325.063 286.431 331.58C286.431 338.097 284.532 343.48 280.736 347.73C276.996 351.98 271.867 354.105 265.351 354.105C258.834 354.105 253.677 351.98 249.881 347.73C246.141 343.48 244.271 338.097 244.271 331.58C244.271 325.063 246.141 319.68 249.881 315.43ZM255.066 343.14C257.446 346.257 260.874 347.815 265.351 347.815C269.827 347.815 273.256 346.257 275.636 343.14C278.016 339.967 279.206 336.113 279.206 331.58C279.206 327.047 278.016 323.222 275.636 320.105C273.256 316.932 269.827 315.345 265.351 315.345C260.874 315.345 257.446 316.932 255.066 320.105C252.686 323.222 251.496 327.047 251.496 331.58C251.496 336.113 252.686 339.967 255.066 343.14ZM292.456 316.45V310.16H329.346V316.45H314.556V353H307.331V316.45H292.456ZM341.189 315.43C344.986 311.18 350.142 309.055 356.659 309.055C363.176 309.055 368.304 311.18 372.044 315.43C375.841 319.68 377.739 325.063 377.739 331.58C377.739 338.097 375.841 343.48 372.044 347.73C368.304 351.98 363.176 354.105 356.659 354.105C350.142 354.105 344.986 351.98 341.189 347.73C337.449 343.48 335.579 338.097 335.579 331.58C335.579 325.063 337.449 319.68 341.189 315.43ZM346.374 343.14C348.754 346.257 352.182 347.815 356.659 347.815C361.136 347.815 364.564 346.257 366.944 343.14C369.324 339.967 370.514 336.113 370.514 331.58C370.514 327.047 369.324 323.222 366.944 320.105C364.564 316.932 361.136 315.345 356.659 315.345C352.182 315.345 348.754 316.932 346.374 320.105C343.994 323.222 342.804 327.047 342.804 331.58C342.804 336.113 343.994 339.967 346.374 343.14ZM409.585 315.345C405.108 315.345 401.737 316.903 399.47 320.02C397.26 323.137 396.155 326.99 396.155 331.58C396.155 336.17 397.26 340.023 399.47 343.14C401.737 346.257 405.108 347.815 409.585 347.815C413.778 347.815 417.008 346.342 419.275 343.395C421.598 340.392 422.76 336.453 422.76 331.58C422.76 326.707 421.598 322.797 419.275 319.85C417.008 316.847 413.778 315.345 409.585 315.345ZM389.015 310.16H395.985V314.75H397.855C400.915 310.953 405.363 309.055 411.2 309.055C416.98 309.055 421.542 311.18 424.885 315.43C428.285 319.68 429.985 325.063 429.985 331.58C429.985 338.21 428.285 343.622 424.885 347.815C421.542 352.008 416.98 354.105 411.2 354.105C405.307 354.105 400.943 352.207 398.11 348.41H396.24V370H389.015V310.16ZM441.31 310.16H448.535V324.44H460.35C465.507 324.44 469.473 325.687 472.25 328.18C475.083 330.673 476.5 334.158 476.5 338.635C476.5 343.168 475.083 346.71 472.25 349.26C469.473 351.753 465.507 353 460.35 353H441.31V310.16ZM448.535 330.56V346.71H459.33C462.9 346.71 465.45 346.03 466.98 344.67C468.51 343.31 469.275 341.298 469.275 338.635C469.275 335.972 468.51 333.96 466.98 332.6C465.45 331.24 462.9 330.56 459.33 330.56H448.535ZM483.385 310.16H490.61V353H483.385V310.16ZM533.207 353L522.582 335.065H519.522L508.642 353H500.737L514.082 331.07L502.097 310.16H509.747L519.607 327.16H522.667L532.697 310.16H540.262L528.107 330.815L541.367 353H533.207ZM578.093 315.43C581.89 311.18 587.047 309.055 593.563 309.055C600.08 309.055 605.208 311.18 608.948 315.43C612.745 319.68 614.643 325.063 614.643 331.58C614.643 338.097 612.745 343.48 608.948 347.73C605.208 351.98 600.08 354.105 593.563 354.105C587.047 354.105 581.89 351.98 578.093 347.73C574.353 343.48 572.483 338.097 572.483 331.58C572.483 325.063 574.353 319.68 578.093 315.43ZM583.278 343.14C585.658 346.257 589.087 347.815 593.563 347.815C598.04 347.815 601.468 346.257 603.848 343.14C606.228 339.967 607.418 336.113 607.418 331.58C607.418 327.047 606.228 323.222 603.848 320.105C601.468 316.932 598.04 315.345 593.563 315.345C589.087 315.345 585.658 316.932 583.278 320.105C580.898 323.222 579.708 327.047 579.708 331.58C579.708 336.113 580.898 339.967 583.278 343.14ZM664.084 353H656.859V334.13H633.144V353H625.919V310.16H633.144V327.84H656.859V310.16H664.084V353ZM688.248 353H678.048V310.16H685.103V343.31H686.973L705.758 310.16H716.298V353H709.243V319.85H707.373L688.248 353ZM782.902 340.08H790.127C789.277 344.387 787.266 347.815 784.092 350.365C780.976 352.858 776.981 354.105 772.107 354.105C765.647 354.105 760.547 352.008 756.807 347.815C753.124 343.565 751.282 338.153 751.282 331.58C751.282 324.95 753.124 319.538 756.807 315.345C760.491 311.152 765.591 309.055 772.107 309.055C777.037 309.055 781.032 310.302 784.092 312.795C787.209 315.232 789.136 318.49 789.872 322.57H782.647C781.117 317.753 777.604 315.345 772.107 315.345C767.517 315.345 764.089 316.875 761.822 319.935C759.612 322.938 758.507 326.763 758.507 331.41C758.507 336.113 759.641 340.023 761.907 343.14C764.174 346.257 767.574 347.815 772.107 347.815C778.114 347.815 781.712 345.237 782.902 340.08ZM803.875 315.43C807.671 311.18 812.828 309.055 819.345 309.055C825.861 309.055 830.99 311.18 834.73 315.43C838.526 319.68 840.425 325.063 840.425 331.58C840.425 338.097 838.526 343.48 834.73 347.73C830.99 351.98 825.861 354.105 819.345 354.105C812.828 354.105 807.671 351.98 803.875 347.73C800.135 343.48 798.265 338.097 798.265 331.58C798.265 325.063 800.135 319.68 803.875 315.43ZM809.06 343.14C811.44 346.257 814.868 347.815 819.345 347.815C823.821 347.815 827.25 346.257 829.63 343.14C832.01 339.967 833.2 336.113 833.2 331.58C833.2 327.047 832.01 323.222 829.63 320.105C827.25 316.932 823.821 315.345 819.345 315.345C814.868 315.345 811.44 316.932 809.06 320.105C806.68 323.222 805.49 327.047 805.49 331.58C805.49 336.113 806.68 339.967 809.06 343.14ZM889.865 346.71H897.77V365.155H890.715V353H853.655V365.155H846.6V346.71H852.295C855.809 339.23 857.565 330.957 857.565 321.89V310.16H889.865V346.71ZM882.64 346.71V316.45H864.28V321.89C864.28 331.58 862.722 339.853 859.605 346.71H882.64ZM944.295 329.03V331.495H911.655C911.768 336.652 912.986 340.675 915.31 343.565C917.633 346.398 920.976 347.815 925.34 347.815C931.233 347.815 934.86 345.605 936.22 341.185H943.53C942.793 345.038 940.838 348.155 937.665 350.535C934.548 352.915 930.44 354.105 925.34 354.105C918.823 354.105 913.723 351.98 910.04 347.73C906.356 343.48 904.515 337.955 904.515 331.155C904.515 324.468 906.356 319.113 910.04 315.09C913.723 311.067 918.766 309.055 925.17 309.055C931.233 309.055 935.908 310.982 939.195 314.835C942.481 318.632 944.181 323.363 944.295 329.03ZM925 315.345C921.316 315.345 918.37 316.308 916.16 318.235C913.95 320.105 912.59 322.513 912.08 325.46H936.815C936.588 322.57 935.426 320.162 933.33 318.235C931.233 316.308 928.456 315.345 925 315.345ZM976.113 315.345C971.637 315.345 968.265 316.903 965.998 320.02C963.788 323.137 962.683 326.99 962.683 331.58C962.683 336.17 963.788 340.023 965.998 343.14C968.265 346.257 971.637 347.815 976.113 347.815C980.307 347.815 983.537 346.342 985.803 343.395C988.127 340.392 989.288 336.453 989.288 331.58C989.288 326.707 988.127 322.797 985.803 319.85C983.537 316.847 980.307 315.345 976.113 315.345ZM955.543 310.16H962.513V314.75H964.383C967.443 310.953 971.892 309.055 977.728 309.055C983.508 309.055 988.07 311.18 991.413 315.43C994.813 319.68 996.513 325.063 996.513 331.58C996.513 338.21 994.813 343.622 991.413 347.815C988.07 352.008 983.508 354.105 977.728 354.105C971.835 354.105 967.472 352.207 964.638 348.41H962.768V370H955.543V310.16ZM1019.99 334.215L1011.75 353H1004.18L1013.87 330.985L1004.78 310.16H1012.26L1019.99 327.925H1030.96V310.16H1037.93V327.925H1048.89L1056.63 310.16H1064.11L1055.01 330.985L1064.79 353H1057.14L1048.89 334.215H1037.93V353H1030.96V334.215H1019.99ZM1102.28 353V348.495H1100.41C1097.46 352.235 1093.01 354.105 1087.06 354.105C1082.36 354.105 1078.62 352.745 1075.84 350.025C1073.06 347.305 1071.68 344.018 1071.68 340.165C1071.68 336.255 1073.04 332.912 1075.76 330.135C1078.48 327.358 1082.58 325.97 1088.08 325.97H1102.02V324.27C1102.02 321.55 1101.17 319.397 1099.47 317.81C1097.77 316.167 1095.14 315.345 1091.57 315.345C1085.33 315.345 1082.02 317.413 1081.62 321.55H1074.4C1074.68 317.64 1076.35 314.58 1079.41 312.37C1082.53 310.16 1086.52 309.055 1091.4 309.055C1096.89 309.055 1101.2 310.33 1104.32 312.88C1107.49 315.43 1109.08 319.085 1109.08 323.845V353H1102.28ZM1088.85 347.815C1092.42 347.815 1095.5 346.653 1098.11 344.33C1100.72 341.95 1102.02 339.06 1102.02 335.66V331.75H1089.19C1082.33 331.75 1078.9 334.47 1078.9 339.91C1078.9 342.347 1079.75 344.273 1081.45 345.69C1083.21 347.107 1085.67 347.815 1088.85 347.815ZM1117.39 316.45V310.16H1154.28V316.45H1139.49V353H1132.26V316.45H1117.39ZM1192.13 340.08H1199.36C1198.51 344.387 1196.49 347.815 1193.32 350.365C1190.2 352.858 1186.21 354.105 1181.34 354.105C1174.88 354.105 1169.78 352.008 1166.04 347.815C1162.35 343.565 1160.51 338.153 1160.51 331.58C1160.51 324.95 1162.35 319.538 1166.04 315.345C1169.72 311.152 1174.82 309.055 1181.34 309.055C1186.27 309.055 1190.26 310.302 1193.32 312.795C1196.44 315.232 1198.36 318.49 1199.1 322.57H1191.88C1190.35 317.753 1186.83 315.345 1181.34 315.345C1176.75 315.345 1173.32 316.875 1171.05 319.935C1168.84 322.938 1167.74 326.763 1167.74 331.41C1167.74 336.113 1168.87 340.023 1171.14 343.14C1173.4 346.257 1176.8 347.815 1181.34 347.815C1187.34 347.815 1190.94 345.237 1192.13 340.08ZM1223.98 310.16H1245.32V353H1238.01V336.085H1225C1223.87 336.085 1222.99 336.057 1222.37 336L1215.91 353H1208.34L1215.57 334.385C1211.15 332.288 1208.94 328.548 1208.94 323.165C1208.94 319.028 1210.21 315.827 1212.76 313.56C1215.37 311.293 1219.11 310.16 1223.98 310.16ZM1238.01 316.28H1224.75C1221.63 316.28 1219.42 316.875 1218.12 318.065C1216.81 319.255 1216.16 320.983 1216.16 323.25C1216.16 325.46 1216.81 327.132 1218.12 328.265C1219.42 329.398 1221.63 329.965 1224.75 329.965H1238.01V316.28Z" fill="#291A15"/>
</svg>
