<svg width="1737" height="564" viewBox="0 0 1737 564" fill="none" xmlns="http://www.w3.org/2000/svg">
<rect x="0.566406" width="1736" height="564" rx="94" fill="#FC4A27"/>
<path d="M146.486 123.02V124.89C149.036 126.08 151.076 127.95 152.606 130.5C154.193 133.05 154.986 135.855 154.986 138.915C154.986 144.015 153.23 148.152 149.716 151.325C146.203 154.442 141.103 156 134.416 156H107.301V95.31H133.736C139.913 95.31 144.673 96.7833 148.016 99.73C151.416 102.62 153.116 106.275 153.116 110.695C153.116 116.532 150.906 120.64 146.486 123.02ZM114.951 102.11V121.065H133.566C141.443 121.065 145.381 117.835 145.381 111.375C145.381 108.202 144.248 105.878 141.981 104.405C139.715 102.875 136.853 102.11 133.396 102.11H114.951ZM114.951 149.2H133.906C137.816 149.2 141.018 148.378 143.511 146.735C146.005 145.035 147.251 142.23 147.251 138.32C147.251 134.637 146.005 131.973 143.511 130.33C141.075 128.63 137.901 127.78 133.991 127.78H114.951V149.2ZM176.336 156H166.136V113.16H173.191V146.31H175.061L193.846 113.16H204.386V156H197.331V122.85H195.461L176.336 156ZM213.928 119.45V113.16H250.818V119.45H236.028V156H228.803V119.45H213.928ZM287.635 156V151.495H285.765C282.818 155.235 278.37 157.105 272.42 157.105C267.717 157.105 263.977 155.745 261.2 153.025C258.423 150.305 257.035 147.018 257.035 143.165C257.035 139.255 258.395 135.912 261.115 133.135C263.835 130.358 267.943 128.97 273.44 128.97H287.38V127.27C287.38 124.55 286.53 122.397 284.83 120.81C283.13 119.167 280.495 118.345 276.925 118.345C270.692 118.345 267.377 120.413 266.98 124.55H259.755C260.038 120.64 261.71 117.58 264.77 115.37C267.887 113.16 271.882 112.055 276.755 112.055C282.252 112.055 286.558 113.33 289.675 115.88C292.848 118.43 294.435 122.085 294.435 126.845V156H287.635ZM274.205 150.815C277.775 150.815 280.863 149.653 283.47 147.33C286.077 144.95 287.38 142.06 287.38 138.66V134.75H274.545C267.688 134.75 264.26 137.47 264.26 142.91C264.26 145.347 265.11 147.273 266.81 148.69C268.567 150.107 271.032 150.815 274.205 150.815ZM307.664 156V113.16H319.139L329.679 132.71H331.549L342.089 113.16H353.394V156H346.339V121.575H344.469L334.524 139.935H326.534L316.589 121.575H314.719V156H307.664ZM377.547 156H367.347V113.16H374.402V146.31H376.272L395.057 113.16H405.597V156H398.542V122.85H396.672L377.547 156ZM457.724 156H450.499V137.13H426.784V156H419.559V113.16H426.784V130.84H450.499V113.16H457.724V156ZM537.08 138.745H545.155C543.852 144.355 541.132 148.832 536.995 152.175C532.858 155.462 527.56 157.105 521.1 157.105C512.26 157.105 505.375 154.187 500.445 148.35C495.515 142.513 493.05 134.948 493.05 125.655C493.05 116.362 495.543 108.797 500.53 102.96C505.517 97.1233 512.402 94.205 521.185 94.205C527.305 94.205 532.405 95.735 536.485 98.795C540.565 101.798 543.228 105.935 544.475 111.205H536.4C534.02 104.518 528.948 101.175 521.185 101.175C514.498 101.175 509.427 103.527 505.97 108.23C502.513 112.933 500.785 118.742 500.785 125.655C500.785 132.625 502.485 138.462 505.885 143.165C509.342 147.812 514.413 150.135 521.1 150.135C525.293 150.135 528.75 149.143 531.47 147.16C534.19 145.12 536.06 142.315 537.08 138.745ZM582.988 118.43C586.785 114.18 591.941 112.055 598.458 112.055C604.975 112.055 610.103 114.18 613.843 118.43C617.64 122.68 619.538 128.063 619.538 134.58C619.538 141.097 617.64 146.48 613.843 150.73C610.103 154.98 604.975 157.105 598.458 157.105C591.941 157.105 586.785 154.98 582.988 150.73C579.248 146.48 577.378 141.097 577.378 134.58C577.378 128.063 579.248 122.68 582.988 118.43ZM588.173 146.14C590.553 149.257 593.981 150.815 598.458 150.815C602.935 150.815 606.363 149.257 608.743 146.14C611.123 142.967 612.313 139.113 612.313 134.58C612.313 130.047 611.123 126.222 608.743 123.105C606.363 119.932 602.935 118.345 598.458 118.345C593.981 118.345 590.553 119.932 588.173 123.105C585.793 126.222 584.603 130.047 584.603 134.58C584.603 139.113 585.793 142.967 588.173 146.14ZM625.564 119.45V113.16H662.454V119.45H647.664V156H640.439V119.45H625.564ZM702.161 132.37V134.24C704.257 134.75 705.929 135.883 707.176 137.64C708.479 139.397 709.131 141.607 709.131 144.27C709.131 152.09 704.087 156 694.001 156H671.986V113.16H693.236C697.542 113.16 700.857 114.123 703.181 116.05C705.561 117.92 706.751 120.555 706.751 123.955C706.751 125.938 706.297 127.667 705.391 129.14C704.541 130.613 703.464 131.69 702.161 132.37ZM679.126 149.88H693.576C699.129 149.88 701.906 147.755 701.906 143.505C701.906 139.198 699.129 137.045 693.576 137.045H679.126V149.88ZM679.126 119.28V130.925H692.556C694.992 130.925 696.749 130.387 697.826 129.31C698.959 128.233 699.526 126.845 699.526 125.145C699.526 121.235 697.202 119.28 692.556 119.28H679.126ZM757.524 132.03V134.495H724.884C724.998 139.652 726.216 143.675 728.539 146.565C730.863 149.398 734.206 150.815 738.569 150.815C744.463 150.815 748.089 148.605 749.449 144.185H756.759C756.023 148.038 754.068 151.155 750.894 153.535C747.778 155.915 743.669 157.105 738.569 157.105C732.053 157.105 726.953 154.98 723.269 150.73C719.586 146.48 717.744 140.955 717.744 134.155C717.744 127.468 719.586 122.113 723.269 118.09C726.953 114.067 731.996 112.055 738.399 112.055C744.463 112.055 749.138 113.982 752.424 117.835C755.711 121.632 757.411 126.363 757.524 132.03ZM738.229 118.345C734.546 118.345 731.599 119.308 729.389 121.235C727.179 123.105 725.819 125.513 725.309 128.46H750.044C749.818 125.57 748.656 123.162 746.559 121.235C744.463 119.308 741.686 118.345 738.229 118.345ZM766.308 113.16H773.533V125.23C773.533 126.59 773.618 127.667 773.788 128.46C773.958 129.197 774.354 130.047 774.978 131.01C775.601 131.973 776.678 132.682 778.208 133.135C779.794 133.588 781.834 133.815 784.328 133.815C788.068 133.815 791.638 133.447 795.038 132.71V113.16H802.348V156H795.038V139.085C791.241 139.878 787.161 140.275 782.798 140.275C779.794 140.275 777.216 139.992 775.063 139.425C772.966 138.802 771.351 138.093 770.218 137.3C769.141 136.45 768.291 135.317 767.668 133.9C767.044 132.483 766.648 131.208 766.478 130.075C766.364 128.942 766.308 127.525 766.308 125.825V113.16ZM842.874 156V151.495H841.004C838.057 155.235 833.609 157.105 827.659 157.105C822.956 157.105 819.216 155.745 816.439 153.025C813.662 150.305 812.274 147.018 812.274 143.165C812.274 139.255 813.634 135.912 816.354 133.135C819.074 130.358 823.182 128.97 828.679 128.97H842.619V127.27C842.619 124.55 841.769 122.397 840.069 120.81C838.369 119.167 835.734 118.345 832.164 118.345C825.931 118.345 822.616 120.413 822.219 124.55H814.994C815.277 120.64 816.949 117.58 820.009 115.37C823.126 113.16 827.121 112.055 831.994 112.055C837.491 112.055 841.797 113.33 844.914 115.88C848.087 118.43 849.674 122.085 849.674 126.845V156H842.874ZM829.444 150.815C833.014 150.815 836.102 149.653 838.709 147.33C841.316 144.95 842.619 142.06 842.619 138.66V134.75H829.784C822.927 134.75 819.499 137.47 819.499 142.91C819.499 145.347 820.349 147.273 822.049 148.69C823.806 150.107 826.271 150.815 829.444 150.815ZM900.049 132.03V134.495H867.409C867.522 139.652 868.74 143.675 871.064 146.565C873.387 149.398 876.73 150.815 881.094 150.815C886.987 150.815 890.614 148.605 891.974 144.185H899.284C898.547 148.038 896.592 151.155 893.419 153.535C890.302 155.915 886.194 157.105 881.094 157.105C874.577 157.105 869.477 154.98 865.794 150.73C862.11 146.48 860.269 140.955 860.269 134.155C860.269 127.468 862.11 122.113 865.794 118.09C869.477 114.067 874.52 112.055 880.924 112.055C886.987 112.055 891.662 113.982 894.949 117.835C898.235 121.632 899.935 126.363 900.049 132.03ZM880.754 118.345C877.07 118.345 874.124 119.308 871.914 121.235C869.704 123.105 868.344 125.513 867.834 128.46H892.569C892.342 125.57 891.18 123.162 889.084 121.235C886.987 119.308 884.21 118.345 880.754 118.345ZM905.466 119.45V113.16H942.356V119.45H927.566V156H920.341V119.45H905.466ZM996.707 124.89C996.707 122.793 995.829 121.178 994.072 120.045C992.372 118.912 990.105 118.345 987.272 118.345C984.212 118.345 981.832 118.883 980.132 119.96C978.489 120.98 977.412 122.652 976.902 124.975H970.017C970.414 120.895 972.17 117.722 975.287 115.455C978.404 113.188 982.455 112.055 987.442 112.055C992.542 112.055 996.537 113.188 999.427 115.455C1002.37 117.722 1003.85 120.555 1003.85 123.955C1003.85 126.222 1003.39 128.12 1002.49 129.65C1001.64 131.123 1000.56 132.115 999.257 132.625V134.495C1001.01 135.005 1002.46 136.082 1003.59 137.725C1004.78 139.312 1005.38 141.465 1005.38 144.185C1005.38 147.868 1003.79 150.957 1000.62 153.45C997.5 155.887 993.165 157.105 987.612 157.105C981.889 157.105 977.412 155.943 974.182 153.62C970.952 151.297 968.997 148.038 968.317 143.845H975.287C976.704 148.492 980.812 150.815 987.612 150.815C990.785 150.815 993.335 150.248 995.262 149.115C997.189 147.925 998.152 146.197 998.152 143.93C998.152 141.72 997.415 140.077 995.942 139C994.525 137.867 992.117 137.3 988.717 137.3H981.152V131.01H988.377C991.267 131.01 993.364 130.443 994.667 129.31C996.027 128.177 996.707 126.703 996.707 124.89ZM1044.25 156V151.495H1042.38C1039.43 155.235 1034.99 157.105 1029.04 157.105C1024.33 157.105 1020.59 155.745 1017.82 153.025C1015.04 150.305 1013.65 147.018 1013.65 143.165C1013.65 139.255 1015.01 135.912 1017.73 133.135C1020.45 130.358 1024.56 128.97 1030.06 128.97H1044V127.27C1044 124.55 1043.15 122.397 1041.45 120.81C1039.75 119.167 1037.11 118.345 1033.54 118.345C1027.31 118.345 1023.99 120.413 1023.6 124.55H1016.37C1016.65 120.64 1018.33 117.58 1021.39 115.37C1024.5 113.16 1028.5 112.055 1033.37 112.055C1038.87 112.055 1043.17 113.33 1046.29 115.88C1049.46 118.43 1051.05 122.085 1051.05 126.845V156H1044.25ZM1030.82 150.815C1034.39 150.815 1037.48 149.653 1040.09 147.33C1042.69 144.95 1044 142.06 1044 138.66V134.75H1031.16C1024.3 134.75 1020.88 137.47 1020.88 142.91C1020.88 145.347 1021.73 147.273 1023.43 148.69C1025.18 150.107 1027.65 150.815 1030.82 150.815ZM1108.51 118.345C1104.03 118.345 1100.66 119.903 1098.39 123.02C1096.18 126.137 1095.08 129.99 1095.08 134.58C1095.08 139.17 1096.18 143.023 1098.39 146.14C1100.66 149.257 1104.03 150.815 1108.51 150.815C1112.7 150.815 1115.93 149.342 1118.2 146.395C1120.52 143.392 1121.68 139.453 1121.68 134.58C1121.68 129.707 1120.52 125.797 1118.2 122.85C1115.93 119.847 1112.7 118.345 1108.51 118.345ZM1087.94 113.16H1094.91V117.75H1096.78C1099.84 113.953 1104.29 112.055 1110.12 112.055C1115.9 112.055 1120.46 114.18 1123.81 118.43C1127.21 122.68 1128.91 128.063 1128.91 134.58C1128.91 141.21 1127.21 146.622 1123.81 150.815C1120.46 155.008 1115.9 157.105 1110.12 157.105C1104.23 157.105 1099.87 155.207 1097.03 151.41H1095.16V173H1087.94V113.16ZM1143.21 118.43C1147 114.18 1152.16 112.055 1158.68 112.055C1165.19 112.055 1170.32 114.18 1174.06 118.43C1177.86 122.68 1179.76 128.063 1179.76 134.58C1179.76 141.097 1177.86 146.48 1174.06 150.73C1170.32 154.98 1165.19 157.105 1158.68 157.105C1152.16 157.105 1147 154.98 1143.21 150.73C1139.47 146.48 1137.6 141.097 1137.6 134.58C1137.6 128.063 1139.47 122.68 1143.21 118.43ZM1148.39 146.14C1150.77 149.257 1154.2 150.815 1158.68 150.815C1163.15 150.815 1166.58 149.257 1168.96 146.14C1171.34 142.967 1172.53 139.113 1172.53 134.58C1172.53 130.047 1171.34 126.222 1168.96 123.105C1166.58 119.932 1163.15 118.345 1158.68 118.345C1154.2 118.345 1150.77 119.932 1148.39 123.105C1146.01 126.222 1144.82 130.047 1144.82 134.58C1144.82 139.113 1146.01 142.967 1148.39 146.14ZM1220.02 143.08H1227.24C1226.39 147.387 1224.38 150.815 1221.21 153.365C1218.09 155.858 1214.1 157.105 1209.22 157.105C1202.76 157.105 1197.66 155.008 1193.92 150.815C1190.24 146.565 1188.4 141.153 1188.4 134.58C1188.4 127.95 1190.24 122.538 1193.92 118.345C1197.61 114.152 1202.71 112.055 1209.22 112.055C1214.15 112.055 1218.15 113.302 1221.21 115.795C1224.33 118.232 1226.25 121.49 1226.99 125.57H1219.76C1218.23 120.753 1214.72 118.345 1209.22 118.345C1204.63 118.345 1201.21 119.875 1198.94 122.935C1196.73 125.938 1195.62 129.763 1195.62 134.41C1195.62 139.113 1196.76 143.023 1199.02 146.14C1201.29 149.257 1204.69 150.815 1209.22 150.815C1215.23 150.815 1218.83 148.237 1220.02 143.08ZM1233.6 119.45V113.16H1270.49V119.45H1255.7V156H1248.47V119.45H1233.6ZM116.736 256H106.536V213.16H113.591V246.31H115.461L134.246 213.16H144.786V256H137.731V222.85H135.861L116.736 256ZM212.581 232.37V234.24C214.677 234.75 216.349 235.883 217.596 237.64C218.899 239.397 219.551 241.607 219.551 244.27C219.551 252.09 214.507 256 204.421 256H182.406V213.16H203.656C207.962 213.16 211.277 214.123 213.601 216.05C215.981 217.92 217.171 220.555 217.171 223.955C217.171 225.938 216.717 227.667 215.811 229.14C214.961 230.613 213.884 231.69 212.581 232.37ZM189.546 249.88H203.996C209.549 249.88 212.326 247.755 212.326 243.505C212.326 239.198 209.549 237.045 203.996 237.045H189.546V249.88ZM189.546 219.28V230.925H202.976C205.412 230.925 207.169 230.387 208.246 229.31C209.379 228.233 209.946 226.845 209.946 225.145C209.946 221.235 207.622 219.28 202.976 219.28H189.546ZM233.774 218.43C237.571 214.18 242.727 212.055 249.244 212.055C255.761 212.055 260.889 214.18 264.629 218.43C268.426 222.68 270.324 228.063 270.324 234.58C270.324 241.097 268.426 246.48 264.629 250.73C260.889 254.98 255.761 257.105 249.244 257.105C242.727 257.105 237.571 254.98 233.774 250.73C230.034 246.48 228.164 241.097 228.164 234.58C228.164 228.063 230.034 222.68 233.774 218.43ZM238.959 246.14C241.339 249.257 244.767 250.815 249.244 250.815C253.721 250.815 257.149 249.257 259.529 246.14C261.909 242.967 263.099 239.113 263.099 234.58C263.099 230.047 261.909 226.222 259.529 223.105C257.149 219.932 253.721 218.345 249.244 218.345C244.767 218.345 241.339 219.932 238.959 223.105C236.579 226.222 235.389 230.047 235.389 234.58C235.389 239.113 236.579 242.967 238.959 246.14ZM310.585 243.08H317.81C316.96 247.387 314.948 250.815 311.775 253.365C308.658 255.858 304.663 257.105 299.79 257.105C293.33 257.105 288.23 255.008 284.49 250.815C280.807 246.565 278.965 241.153 278.965 234.58C278.965 227.95 280.807 222.538 284.49 218.345C288.173 214.152 293.273 212.055 299.79 212.055C304.72 212.055 308.715 213.302 311.775 215.795C314.892 218.232 316.818 221.49 317.555 225.57H310.33C308.8 220.753 305.287 218.345 299.79 218.345C295.2 218.345 291.772 219.875 289.505 222.935C287.295 225.938 286.19 229.763 286.19 234.41C286.19 239.113 287.323 243.023 289.59 246.14C291.857 249.257 295.257 250.815 299.79 250.815C305.797 250.815 309.395 248.237 310.585 243.08ZM357.567 243.08H364.792C363.942 247.387 361.931 250.815 358.757 253.365C355.641 255.858 351.646 257.105 346.772 257.105C340.312 257.105 335.212 255.008 331.472 250.815C327.789 246.565 325.947 241.153 325.947 234.58C325.947 227.95 327.789 222.538 331.472 218.345C335.156 214.152 340.256 212.055 346.772 212.055C351.702 212.055 355.697 213.302 358.757 215.795C361.874 218.232 363.801 221.49 364.537 225.57H357.312C355.782 220.753 352.269 218.345 346.772 218.345C342.182 218.345 338.754 219.875 336.487 222.935C334.277 225.938 333.172 229.763 333.172 234.41C333.172 239.113 334.306 243.023 336.572 246.14C338.839 249.257 342.239 250.815 346.772 250.815C352.779 250.815 356.377 248.237 357.567 243.08ZM371.145 219.45V213.16H408.035V219.45H393.245V256H386.02V219.45H371.145ZM444.852 256V251.495H442.982C440.035 255.235 435.587 257.105 429.637 257.105C424.933 257.105 421.193 255.745 418.417 253.025C415.64 250.305 414.252 247.018 414.252 243.165C414.252 239.255 415.612 235.912 418.332 233.135C421.052 230.358 425.16 228.97 430.657 228.97H444.597V227.27C444.597 224.55 443.747 222.397 442.047 220.81C440.347 219.167 437.712 218.345 434.142 218.345C427.908 218.345 424.593 220.413 424.197 224.55H416.972C417.255 220.64 418.927 217.58 421.987 215.37C425.103 213.16 429.098 212.055 433.972 212.055C439.468 212.055 443.775 213.33 446.892 215.88C450.065 218.43 451.652 222.085 451.652 226.845V256H444.852ZM431.422 250.815C434.992 250.815 438.08 249.653 440.687 247.33C443.293 244.95 444.597 242.06 444.597 238.66V234.75H431.762C424.905 234.75 421.477 237.47 421.477 242.91C421.477 245.347 422.327 247.273 424.027 248.69C425.783 250.107 428.248 250.815 431.422 250.815ZM503.046 256H495.821V237.13H472.106V256H464.881V213.16H472.106V230.84H495.821V213.16H503.046V256ZM519.985 218.43C523.782 214.18 528.938 212.055 535.455 212.055C541.972 212.055 547.1 214.18 550.84 218.43C554.637 222.68 556.535 228.063 556.535 234.58C556.535 241.097 554.637 246.48 550.84 250.73C547.1 254.98 541.972 257.105 535.455 257.105C528.938 257.105 523.782 254.98 519.985 250.73C516.245 246.48 514.375 241.097 514.375 234.58C514.375 228.063 516.245 222.68 519.985 218.43ZM525.17 246.14C527.55 249.257 530.978 250.815 535.455 250.815C539.932 250.815 543.36 249.257 545.74 246.14C548.12 242.967 549.31 239.113 549.31 234.58C549.31 230.047 548.12 226.222 545.74 223.105C543.36 219.932 539.932 218.345 535.455 218.345C530.978 218.345 527.55 219.932 525.17 223.105C522.79 226.222 521.6 230.047 521.6 234.58C521.6 239.113 522.79 242.967 525.17 246.14ZM597.986 232.37V234.24C600.082 234.75 601.754 235.883 603.001 237.64C604.304 239.397 604.956 241.607 604.956 244.27C604.956 252.09 599.912 256 589.826 256H567.811V213.16H589.061C593.367 213.16 596.682 214.123 599.006 216.05C601.386 217.92 602.576 220.555 602.576 223.955C602.576 225.938 602.122 227.667 601.216 229.14C600.366 230.613 599.289 231.69 597.986 232.37ZM574.951 249.88H589.401C594.954 249.88 597.731 247.755 597.731 243.505C597.731 239.198 594.954 237.045 589.401 237.045H574.951V249.88ZM574.951 219.28V230.925H588.381C590.817 230.925 592.574 230.387 593.651 229.31C594.784 228.233 595.351 226.845 595.351 225.145C595.351 221.235 593.027 219.28 588.381 219.28H574.951ZM611.359 256V249.2H612.804C615.808 249.2 617.961 247.812 619.264 245.035C620.568 242.202 621.219 237.102 621.219 229.735V213.16H654.029V256H646.719V219.45H627.934V229.905C627.934 239.595 626.744 246.367 624.364 250.22C622.041 254.073 618.188 256 612.804 256H611.359ZM705.063 232.03V234.495H672.423C672.537 239.652 673.755 243.675 676.078 246.565C678.402 249.398 681.745 250.815 686.108 250.815C692.002 250.815 695.628 248.605 696.988 244.185H704.298C703.562 248.038 701.607 251.155 698.433 253.535C695.317 255.915 691.208 257.105 686.108 257.105C679.592 257.105 674.492 254.98 670.808 250.73C667.125 246.48 665.283 240.955 665.283 234.155C665.283 227.468 667.125 222.113 670.808 218.09C674.492 214.067 679.535 212.055 685.938 212.055C692.002 212.055 696.677 213.982 699.963 217.835C703.25 221.632 704.95 226.363 705.063 232.03ZM685.768 218.345C682.085 218.345 679.138 219.308 676.928 221.235C674.718 223.105 673.358 225.513 672.848 228.46H697.583C697.357 225.57 696.195 223.162 694.098 221.235C692.002 219.308 689.225 218.345 685.768 218.345ZM754.477 256H747.252V237.13H723.537V256H716.312V213.16H723.537V230.84H747.252V213.16H754.477V256ZM778.641 256H768.441V213.16H775.496V246.31H777.366L796.151 213.16H806.691V256H799.636V222.85H797.766L778.641 256ZM857.798 232.03V234.495H825.158C825.271 239.652 826.489 243.675 828.813 246.565C831.136 249.398 834.479 250.815 838.843 250.815C844.736 250.815 848.363 248.605 849.723 244.185H857.033C856.296 248.038 854.341 251.155 851.168 253.535C848.051 255.915 843.943 257.105 838.843 257.105C832.326 257.105 827.226 254.98 823.543 250.73C819.859 246.48 818.018 240.955 818.018 234.155C818.018 227.468 819.859 222.113 823.543 218.09C827.226 214.067 832.269 212.055 838.673 212.055C844.736 212.055 849.411 213.982 852.698 217.835C855.984 221.632 857.684 226.363 857.798 232.03ZM838.503 218.345C834.819 218.345 831.873 219.308 829.663 221.235C827.453 223.105 826.093 225.513 825.583 228.46H850.318C850.091 225.57 848.929 223.162 846.833 221.235C844.736 219.308 841.959 218.345 838.503 218.345ZM892.703 256V213.16H904.178L914.718 232.71H916.588L927.128 213.16H938.433V256H931.378V221.575H929.508L919.563 239.935H911.573L901.628 221.575H899.758V256H892.703ZM952.386 213.16H959.611V227.44H971.426C976.583 227.44 980.549 228.687 983.326 231.18C986.159 233.673 987.576 237.158 987.576 241.635C987.576 246.168 986.159 249.71 983.326 252.26C980.549 254.753 976.583 256 971.426 256H952.386V213.16ZM959.611 233.56V249.71H970.406C973.976 249.71 976.526 249.03 978.056 247.67C979.586 246.31 980.351 244.298 980.351 241.635C980.351 238.972 979.586 236.96 978.056 235.6C976.526 234.24 973.976 233.56 970.406 233.56H959.611ZM994.461 213.16H1001.69V256H994.461V213.16ZM1063.41 213.16H1070.46V256H1015.64V213.16H1022.69V249.71H1039.52V213.16H1046.58V249.71H1063.41V213.16ZM1114.63 213.16H1121.85V249.71H1129.67V268.155H1122.7V256H1084.37V213.16H1091.59V249.71H1114.63V213.16ZM1147.05 256H1142.8V246.14H1151.64V257.615L1146.88 265.775H1142.29L1147.05 257.615V256ZM1217.78 243.08H1225C1224.15 247.387 1222.14 250.815 1218.97 253.365C1215.85 255.858 1211.86 257.105 1206.98 257.105C1200.52 257.105 1195.42 255.008 1191.68 250.815C1188 246.565 1186.16 241.153 1186.16 234.58C1186.16 227.95 1188 222.538 1191.68 218.345C1195.37 214.152 1200.47 212.055 1206.98 212.055C1211.91 212.055 1215.91 213.302 1218.97 215.795C1222.08 218.232 1224.01 221.49 1224.75 225.57H1217.52C1215.99 220.753 1212.48 218.345 1206.98 218.345C1202.39 218.345 1198.96 219.875 1196.7 222.935C1194.49 225.938 1193.38 229.763 1193.38 234.41C1193.38 239.113 1194.52 243.023 1196.78 246.14C1199.05 249.257 1202.45 250.815 1206.98 250.815C1212.99 250.815 1216.59 248.237 1217.78 243.08ZM1238.75 218.43C1242.55 214.18 1247.7 212.055 1254.22 212.055C1260.74 212.055 1265.86 214.18 1269.6 218.43C1273.4 222.68 1275.3 228.063 1275.3 234.58C1275.3 241.097 1273.4 246.48 1269.6 250.73C1265.86 254.98 1260.74 257.105 1254.22 257.105C1247.7 257.105 1242.55 254.98 1238.75 250.73C1235.01 246.48 1233.14 241.097 1233.14 234.58C1233.14 228.063 1235.01 222.68 1238.75 218.43ZM1243.93 246.14C1246.31 249.257 1249.74 250.815 1254.22 250.815C1258.7 250.815 1262.12 249.257 1264.5 246.14C1266.88 242.967 1268.07 239.113 1268.07 234.58C1268.07 230.047 1266.88 226.222 1264.5 223.105C1262.12 219.932 1258.7 218.345 1254.22 218.345C1249.74 218.345 1246.31 219.932 1243.93 223.105C1241.55 226.222 1240.36 230.047 1240.36 234.58C1240.36 239.113 1241.55 242.967 1243.93 246.14ZM1315.56 243.08H1322.79C1321.94 247.387 1319.92 250.815 1316.75 253.365C1313.63 255.858 1309.64 257.105 1304.77 257.105C1298.31 257.105 1293.21 255.008 1289.47 250.815C1285.78 246.565 1283.94 241.153 1283.94 234.58C1283.94 227.95 1285.78 222.538 1289.47 218.345C1293.15 214.152 1298.25 212.055 1304.77 212.055C1309.7 212.055 1313.69 213.302 1316.75 215.795C1319.87 218.232 1321.79 221.49 1322.53 225.57H1315.31C1313.78 220.753 1310.26 218.345 1304.77 218.345C1300.18 218.345 1296.75 219.875 1294.48 222.935C1292.27 225.938 1291.17 229.763 1291.17 234.41C1291.17 239.113 1292.3 243.023 1294.57 246.14C1296.83 249.257 1300.23 250.815 1304.77 250.815C1310.77 250.815 1314.37 248.237 1315.56 243.08ZM1345.12 273H1337.81L1346.65 252.005L1328.37 213.16H1336.11L1349.2 241.38H1351.32L1363.22 213.16H1370.79L1345.12 273ZM1415.47 249.71H1423.37V268.155H1416.32V256H1379.26V268.155H1372.2V249.71H1377.9C1381.41 242.23 1383.17 233.957 1383.17 224.89V213.16H1415.47V249.71ZM1408.24 249.71V219.45H1389.88V224.89C1389.88 234.58 1388.32 242.853 1385.21 249.71H1408.24ZM1435.73 218.43C1439.52 214.18 1444.68 212.055 1451.2 212.055C1457.71 212.055 1462.84 214.18 1466.58 218.43C1470.38 222.68 1472.28 228.063 1472.28 234.58C1472.28 241.097 1470.38 246.48 1466.58 250.73C1462.84 254.98 1457.71 257.105 1451.2 257.105C1444.68 257.105 1439.52 254.98 1435.73 250.73C1431.99 246.48 1430.12 241.097 1430.12 234.58C1430.12 228.063 1431.99 222.68 1435.73 218.43ZM1440.91 246.14C1443.29 249.257 1446.72 250.815 1451.2 250.815C1455.67 250.815 1459.1 249.257 1461.48 246.14C1463.86 242.967 1465.05 239.113 1465.05 234.58C1465.05 230.047 1463.86 226.222 1461.48 223.105C1459.1 219.932 1455.67 218.345 1451.2 218.345C1446.72 218.345 1443.29 219.932 1440.91 223.105C1438.53 226.222 1437.34 230.047 1437.34 234.58C1437.34 239.113 1438.53 242.967 1440.91 246.14ZM1513.73 232.37V234.24C1515.82 234.75 1517.5 235.883 1518.74 237.64C1520.05 239.397 1520.7 241.607 1520.7 244.27C1520.7 252.09 1515.65 256 1505.57 256H1483.55V213.16H1504.8C1509.11 213.16 1512.42 214.123 1514.75 216.05C1517.13 217.92 1518.32 220.555 1518.32 223.955C1518.32 225.938 1517.86 227.667 1516.96 229.14C1516.11 230.613 1515.03 231.69 1513.73 232.37ZM1490.69 249.88H1505.14C1510.7 249.88 1513.47 247.755 1513.47 243.505C1513.47 239.198 1510.7 237.045 1505.14 237.045H1490.69V249.88ZM1490.69 219.28V230.925H1504.12C1506.56 230.925 1508.32 230.387 1509.39 229.31C1510.53 228.233 1511.09 226.845 1511.09 225.145C1511.09 221.235 1508.77 219.28 1504.12 219.28H1490.69ZM1534.53 256H1530.28V246.14H1539.12V257.615L1534.36 265.775H1529.77L1534.53 257.615V256ZM144.701 349.71H152.606V368.155H145.551V356H108.491V368.155H101.436V349.71H107.131C110.645 342.23 112.401 333.957 112.401 324.89V313.16H144.701V349.71ZM137.476 349.71V319.45H119.116V324.89C119.116 334.58 117.558 342.853 114.441 349.71H137.476ZM199.131 332.03V334.495H166.491C166.604 339.652 167.822 343.675 170.146 346.565C172.469 349.398 175.812 350.815 180.176 350.815C186.069 350.815 189.696 348.605 191.056 344.185H198.366C197.629 348.038 195.674 351.155 192.501 353.535C189.384 355.915 185.276 357.105 180.176 357.105C173.659 357.105 168.559 354.98 164.876 350.73C161.192 346.48 159.351 340.955 159.351 334.155C159.351 327.468 161.192 322.113 164.876 318.09C168.559 314.067 173.602 312.055 180.006 312.055C186.069 312.055 190.744 313.982 194.031 317.835C197.317 321.632 199.017 326.363 199.131 332.03ZM179.836 318.345C176.152 318.345 173.206 319.308 170.996 321.235C168.786 323.105 167.426 325.513 166.916 328.46H191.651C191.424 325.57 190.262 323.162 188.166 321.235C186.069 319.308 183.292 318.345 179.836 318.345ZM191.226 302.28H184.171V294.46H191.226V302.28ZM175.756 302.28H168.701V294.46H175.756V302.28ZM239.364 343.08H246.589C245.739 347.387 243.728 350.815 240.554 353.365C237.438 355.858 233.443 357.105 228.569 357.105C222.109 357.105 217.009 355.008 213.269 350.815C209.586 346.565 207.744 341.153 207.744 334.58C207.744 327.95 209.586 322.538 213.269 318.345C216.953 314.152 222.053 312.055 228.569 312.055C233.499 312.055 237.494 313.302 240.554 315.795C243.671 318.232 245.598 321.49 246.334 325.57H239.109C237.579 320.753 234.066 318.345 228.569 318.345C223.979 318.345 220.551 319.875 218.284 322.935C216.074 325.938 214.969 329.763 214.969 334.41C214.969 339.113 216.103 343.023 218.369 346.14C220.636 349.257 224.036 350.815 228.569 350.815C234.576 350.815 238.174 348.237 239.364 343.08ZM294.507 332.03V334.495H261.867C261.98 339.652 263.198 343.675 265.522 346.565C267.845 349.398 271.188 350.815 275.552 350.815C281.445 350.815 285.072 348.605 286.432 344.185H293.742C293.005 348.038 291.05 351.155 287.877 353.535C284.76 355.915 280.652 357.105 275.552 357.105C269.035 357.105 263.935 354.98 260.252 350.73C256.568 346.48 254.727 340.955 254.727 334.155C254.727 327.468 256.568 322.113 260.252 318.09C263.935 314.067 268.978 312.055 275.382 312.055C281.445 312.055 286.12 313.982 289.407 317.835C292.693 321.632 294.393 326.363 294.507 332.03ZM275.212 318.345C271.528 318.345 268.582 319.308 266.372 321.235C264.162 323.105 262.802 325.513 262.292 328.46H287.027C286.8 325.57 285.638 323.162 283.542 321.235C281.445 319.308 278.668 318.345 275.212 318.345ZM343.92 356H336.695V337.13H312.98V356H305.755V313.16H312.98V330.84H336.695V313.16H343.92V356ZM391.741 356H381.541V313.16H388.596V346.31H390.466L409.251 313.16H419.791V356H412.736V322.85H410.866L391.741 356ZM481.975 324.89C481.975 322.793 481.097 321.178 479.34 320.045C477.64 318.912 475.374 318.345 472.54 318.345C469.48 318.345 467.1 318.883 465.4 319.96C463.757 320.98 462.68 322.652 462.17 324.975H455.285C455.682 320.895 457.439 317.722 460.555 315.455C463.672 313.188 467.724 312.055 472.71 312.055C477.81 312.055 481.805 313.188 484.695 315.455C487.642 317.722 489.115 320.555 489.115 323.955C489.115 326.222 488.662 328.12 487.755 329.65C486.905 331.123 485.829 332.115 484.525 332.625V334.495C486.282 335.005 487.727 336.082 488.86 337.725C490.05 339.312 490.645 341.465 490.645 344.185C490.645 347.868 489.059 350.957 485.885 353.45C482.769 355.887 478.434 357.105 472.88 357.105C467.157 357.105 462.68 355.943 459.45 353.62C456.22 351.297 454.265 348.038 453.585 343.845H460.555C461.972 348.492 466.08 350.815 472.88 350.815C476.054 350.815 478.604 350.248 480.53 349.115C482.457 347.925 483.42 346.197 483.42 343.93C483.42 341.72 482.684 340.077 481.21 339C479.794 337.867 477.385 337.3 473.985 337.3H466.42V331.01H473.645C476.535 331.01 478.632 330.443 479.935 329.31C481.295 328.177 481.975 326.703 481.975 324.89ZM513.795 373H506.485L515.325 352.005L497.05 313.16H504.785L517.875 341.38H520L531.9 313.16H539.465L513.795 373ZM567.522 313.585C573.812 313.585 578.77 315.653 582.397 319.79C586.024 323.87 587.837 329.055 587.837 335.345C587.837 341.578 585.91 346.763 582.057 350.9C578.26 355.037 573.132 357.105 566.672 357.105C559.872 357.105 554.602 354.867 550.862 350.39C547.179 345.913 545.337 339.51 545.337 331.18C545.337 327.95 545.422 325.06 545.592 322.51C545.819 319.96 546.272 317.297 546.952 314.52C547.689 311.743 548.652 309.392 549.842 307.465C551.032 305.482 552.675 303.753 554.772 302.28C556.869 300.807 559.362 299.843 562.252 299.39L573.642 297.52C575.229 297.293 576.277 296.982 576.787 296.585C577.354 296.188 577.694 295.395 577.807 294.205H584.522C584.409 296.868 583.757 298.993 582.567 300.58C581.377 302.11 579.224 303.158 576.107 303.725L562.932 305.935C559.362 306.558 556.727 308.06 555.027 310.44C553.384 312.763 552.307 315.88 551.797 319.79H553.667C555.424 317.467 557.379 315.852 559.532 314.945C561.742 314.038 564.405 313.585 567.522 313.585ZM556.132 346.31C558.569 349.313 562.025 350.815 566.502 350.815C570.979 350.815 574.407 349.313 576.787 346.31C579.224 343.25 580.442 339.567 580.442 335.26C580.442 330.953 579.224 327.298 576.787 324.295C574.407 321.292 570.979 319.79 566.502 319.79C562.025 319.79 558.569 321.292 556.132 324.295C553.752 327.298 552.562 330.953 552.562 335.26C552.562 339.567 553.752 343.25 556.132 346.31ZM602.08 318.43C605.876 314.18 611.033 312.055 617.55 312.055C624.066 312.055 629.195 314.18 632.935 318.43C636.731 322.68 638.63 328.063 638.63 334.58C638.63 341.097 636.731 346.48 632.935 350.73C629.195 354.98 624.066 357.105 617.55 357.105C611.033 357.105 605.876 354.98 602.08 350.73C598.34 346.48 596.47 341.097 596.47 334.58C596.47 328.063 598.34 322.68 602.08 318.43ZM607.265 346.14C609.645 349.257 613.073 350.815 617.55 350.815C622.026 350.815 625.455 349.257 627.835 346.14C630.215 342.967 631.405 339.113 631.405 334.58C631.405 330.047 630.215 326.222 627.835 323.105C625.455 319.932 622.026 318.345 617.55 318.345C613.073 318.345 609.645 319.932 607.265 323.105C604.885 326.222 603.695 330.047 603.695 334.58C603.695 339.113 604.885 342.967 607.265 346.14ZM680.081 332.37V334.24C682.177 334.75 683.849 335.883 685.096 337.64C686.399 339.397 687.051 341.607 687.051 344.27C687.051 352.09 682.007 356 671.921 356H649.906V313.16H671.156C675.462 313.16 678.777 314.123 681.101 316.05C683.481 317.92 684.671 320.555 684.671 323.955C684.671 325.938 684.217 327.667 683.311 329.14C682.461 330.613 681.384 331.69 680.081 332.37ZM657.046 349.88H671.496C677.049 349.88 679.826 347.755 679.826 343.505C679.826 339.198 677.049 337.045 671.496 337.045H657.046V349.88ZM657.046 319.28V330.925H670.476C672.912 330.925 674.669 330.387 675.746 329.31C676.879 328.233 677.446 326.845 677.446 325.145C677.446 321.235 675.122 319.28 670.476 319.28H657.046ZM700.879 356H696.629V346.14H705.469V357.615L700.709 365.775H696.119L700.879 357.615V356ZM769.91 356V351.495H768.04C765.094 355.235 760.645 357.105 754.695 357.105C749.992 357.105 746.252 355.745 743.475 353.025C740.699 350.305 739.31 347.018 739.31 343.165C739.31 339.255 740.67 335.912 743.39 333.135C746.11 330.358 750.219 328.97 755.715 328.97H769.655V327.27C769.655 324.55 768.805 322.397 767.105 320.81C765.405 319.167 762.77 318.345 759.2 318.345C752.967 318.345 749.652 320.413 749.255 324.55H742.03C742.314 320.64 743.985 317.58 747.045 315.37C750.162 313.16 754.157 312.055 759.03 312.055C764.527 312.055 768.834 313.33 771.95 315.88C775.124 318.43 776.71 322.085 776.71 326.845V356H769.91ZM756.48 350.815C760.05 350.815 763.139 349.653 765.745 347.33C768.352 344.95 769.655 342.06 769.655 338.66V334.75H756.82C749.964 334.75 746.535 337.47 746.535 342.91C746.535 345.347 747.385 347.273 749.085 348.69C750.842 350.107 753.307 350.815 756.48 350.815ZM850.742 332.03V334.495H818.102C818.215 339.652 819.434 343.675 821.757 346.565C824.08 349.398 827.424 350.815 831.787 350.815C837.68 350.815 841.307 348.605 842.667 344.185H849.977C849.24 348.038 847.285 351.155 844.112 353.535C840.995 355.915 836.887 357.105 831.787 357.105C825.27 357.105 820.17 354.98 816.487 350.73C812.804 346.48 810.962 340.955 810.962 334.155C810.962 327.468 812.804 322.113 816.487 318.09C820.17 314.067 825.214 312.055 831.617 312.055C837.68 312.055 842.355 313.982 845.642 317.835C848.929 321.632 850.629 326.363 850.742 332.03ZM831.447 318.345C827.764 318.345 824.817 319.308 822.607 321.235C820.397 323.105 819.037 325.513 818.527 328.46H843.262C843.035 325.57 841.874 323.162 839.777 321.235C837.68 319.308 834.904 318.345 831.447 318.345ZM909.761 313.16H916.816V349.71H924.721V368.155H917.666V356H861.991V313.16H869.046V349.71H885.876V313.16H892.931V349.71H909.761V313.16ZM971.186 332.03V334.495H938.546C938.66 339.652 939.878 343.675 942.201 346.565C944.525 349.398 947.868 350.815 952.231 350.815C958.125 350.815 961.751 348.605 963.111 344.185H970.421C969.685 348.038 967.73 351.155 964.556 353.535C961.44 355.915 957.331 357.105 952.231 357.105C945.715 357.105 940.615 354.98 936.931 350.73C933.248 346.48 931.406 340.955 931.406 334.155C931.406 327.468 933.248 322.113 936.931 318.09C940.615 314.067 945.658 312.055 952.061 312.055C958.125 312.055 962.8 313.982 966.086 317.835C969.373 321.632 971.073 326.363 971.186 332.03ZM951.891 318.345C948.208 318.345 945.261 319.308 943.051 321.235C940.841 323.105 939.481 325.513 938.971 328.46H963.706C963.48 325.57 962.318 323.162 960.221 321.235C958.125 319.308 955.348 318.345 951.891 318.345ZM963.281 302.28H956.226V294.46H963.281V302.28ZM947.811 302.28H940.756V294.46H947.811V302.28ZM1009.07 318.43C1012.86 314.18 1018.02 312.055 1024.54 312.055C1031.05 312.055 1036.18 314.18 1039.92 318.43C1043.72 322.68 1045.62 328.063 1045.62 334.58C1045.62 341.097 1043.72 346.48 1039.92 350.73C1036.18 354.98 1031.05 357.105 1024.54 357.105C1018.02 357.105 1012.86 354.98 1009.07 350.73C1005.33 346.48 1003.46 341.097 1003.46 334.58C1003.46 328.063 1005.33 322.68 1009.07 318.43ZM1014.25 346.14C1016.63 349.257 1020.06 350.815 1024.54 350.815C1029.01 350.815 1032.44 349.257 1034.82 346.14C1037.2 342.967 1038.39 339.113 1038.39 334.58C1038.39 330.047 1037.2 326.222 1034.82 323.105C1032.44 319.932 1029.01 318.345 1024.54 318.345C1020.06 318.345 1016.63 319.932 1014.25 323.105C1011.87 326.222 1010.68 330.047 1010.68 334.58C1010.68 339.113 1011.87 342.967 1014.25 346.14ZM1095.06 356H1087.83V337.13H1064.12V356H1056.89V313.16H1064.12V330.84H1087.83V313.16H1095.06V356ZM1157.24 324.89C1157.24 322.793 1156.37 321.178 1154.61 320.045C1152.91 318.912 1150.64 318.345 1147.81 318.345C1144.75 318.345 1142.37 318.883 1140.67 319.96C1139.03 320.98 1137.95 322.652 1137.44 324.975H1130.55C1130.95 320.895 1132.71 317.722 1135.82 315.455C1138.94 313.188 1142.99 312.055 1147.98 312.055C1153.08 312.055 1157.07 313.188 1159.96 315.455C1162.91 317.722 1164.38 320.555 1164.38 323.955C1164.38 326.222 1163.93 328.12 1163.02 329.65C1162.17 331.123 1161.1 332.115 1159.79 332.625V334.495C1161.55 335.005 1163 336.082 1164.13 337.725C1165.32 339.312 1165.91 341.465 1165.91 344.185C1165.91 347.868 1164.33 350.957 1161.15 353.45C1158.04 355.887 1153.7 357.105 1148.15 357.105C1142.43 357.105 1137.95 355.943 1134.72 353.62C1131.49 351.297 1129.53 348.038 1128.85 343.845H1135.82C1137.24 348.492 1141.35 350.815 1148.15 350.815C1151.32 350.815 1153.87 350.248 1155.8 349.115C1157.73 347.925 1158.69 346.197 1158.69 343.93C1158.69 341.72 1157.95 340.077 1156.48 339C1155.06 337.867 1152.65 337.3 1149.25 337.3H1141.69V331.01H1148.91C1151.8 331.01 1153.9 330.443 1155.2 329.31C1156.56 328.177 1157.24 326.703 1157.24 324.89ZM1204.79 356V351.495H1202.92C1199.97 355.235 1195.52 357.105 1189.57 357.105C1184.87 357.105 1181.13 355.745 1178.35 353.025C1175.58 350.305 1174.19 347.018 1174.19 343.165C1174.19 339.255 1175.55 335.912 1178.27 333.135C1180.99 330.358 1185.1 328.97 1190.59 328.97H1204.53V327.27C1204.53 324.55 1203.68 322.397 1201.98 320.81C1200.28 319.167 1197.65 318.345 1194.08 318.345C1187.84 318.345 1184.53 320.413 1184.13 324.55H1176.91C1177.19 320.64 1178.86 317.58 1181.92 315.37C1185.04 313.16 1189.03 312.055 1193.91 312.055C1199.4 312.055 1203.71 313.33 1206.83 315.88C1210 318.43 1211.59 322.085 1211.59 326.845V356H1204.79ZM1191.36 350.815C1194.93 350.815 1198.02 349.653 1200.62 347.33C1203.23 344.95 1204.53 342.06 1204.53 338.66V334.75H1191.7C1184.84 334.75 1181.41 337.47 1181.41 342.91C1181.41 345.347 1182.26 347.273 1183.96 348.69C1185.72 350.107 1188.18 350.815 1191.36 350.815ZM1236.97 337.215L1228.73 356H1221.16L1230.85 333.985L1221.76 313.16H1229.24L1236.97 330.925H1247.94V313.16H1254.91V330.925H1265.87L1273.61 313.16H1281.09L1271.99 333.985L1281.77 356H1274.12L1265.87 337.215H1254.91V356H1247.94V337.215H1236.97ZM1302.17 356H1291.97V313.16H1299.03V346.31H1300.9L1319.68 313.16H1330.22V356H1323.17V322.85H1321.3L1302.17 356ZM1374.36 332.37V334.24C1376.45 334.75 1378.13 335.883 1379.37 337.64C1380.68 339.397 1381.33 341.607 1381.33 344.27C1381.33 352.09 1376.28 356 1366.2 356H1344.18V313.16H1365.43C1369.74 313.16 1373.05 314.123 1375.38 316.05C1377.76 317.92 1378.95 320.555 1378.95 323.955C1378.95 325.938 1378.49 327.667 1377.59 329.14C1376.74 330.613 1375.66 331.69 1374.36 332.37ZM1351.32 349.88H1365.77C1371.33 349.88 1374.1 347.755 1374.1 343.505C1374.1 339.198 1371.33 337.045 1365.77 337.045H1351.32V349.88ZM1351.32 319.28V330.925H1364.75C1367.19 330.925 1368.95 330.387 1370.02 329.31C1371.16 328.233 1371.72 326.845 1371.72 325.145C1371.72 321.235 1369.4 319.28 1364.75 319.28H1351.32ZM1387.73 356V349.2H1389.18C1392.18 349.2 1394.33 347.812 1395.64 345.035C1396.94 342.202 1397.59 337.102 1397.59 329.735V313.16H1430.4V356H1423.09V319.45H1404.31V329.905C1404.31 339.595 1403.12 346.367 1400.74 350.22C1398.41 354.073 1394.56 356 1389.18 356H1387.73ZM1458.15 313.16H1479.48V356H1472.17V339.085H1459.17C1458.03 339.085 1457.15 339.057 1456.53 339L1450.07 356H1442.51L1449.73 337.385C1445.31 335.288 1443.1 331.548 1443.1 326.165C1443.1 322.028 1444.38 318.827 1446.93 316.56C1449.53 314.293 1453.27 313.16 1458.15 313.16ZM1472.17 319.28H1458.91C1455.79 319.28 1453.58 319.875 1452.28 321.065C1450.98 322.255 1450.33 323.983 1450.33 326.25C1450.33 328.46 1450.98 330.132 1452.28 331.265C1453.58 332.398 1455.79 332.965 1458.91 332.965H1472.17V319.28ZM1530.49 332.03V334.495H1497.85C1497.97 339.652 1499.18 343.675 1501.51 346.565C1503.83 349.398 1507.17 350.815 1511.54 350.815C1517.43 350.815 1521.06 348.605 1522.42 344.185H1529.73C1528.99 348.038 1527.04 351.155 1523.86 353.535C1520.75 355.915 1516.64 357.105 1511.54 357.105C1505.02 357.105 1499.92 354.98 1496.24 350.73C1492.55 346.48 1490.71 340.955 1490.71 334.155C1490.71 327.468 1492.55 322.113 1496.24 318.09C1499.92 314.067 1504.96 312.055 1511.37 312.055C1517.43 312.055 1522.11 313.982 1525.39 317.835C1528.68 321.632 1530.38 326.363 1530.49 332.03ZM1511.2 318.345C1507.51 318.345 1504.57 319.308 1502.36 321.235C1500.15 323.105 1498.79 325.513 1498.28 328.46H1523.01C1522.79 325.57 1521.62 323.162 1519.53 321.235C1517.43 319.308 1514.65 318.345 1511.2 318.345ZM1535.91 319.45V313.16H1572.8V319.45H1558.01V356H1550.79V319.45H1535.91ZM127.106 418.345C122.63 418.345 119.258 419.903 116.991 423.02C114.781 426.137 113.676 429.99 113.676 434.58C113.676 439.17 114.781 443.023 116.991 446.14C119.258 449.257 122.63 450.815 127.106 450.815C131.3 450.815 134.53 449.342 136.796 446.395C139.12 443.392 140.281 439.453 140.281 434.58C140.281 429.707 139.12 425.797 136.796 422.85C134.53 419.847 131.3 418.345 127.106 418.345ZM106.536 413.16H113.506V417.75H115.376C118.436 413.953 122.885 412.055 128.721 412.055C134.501 412.055 139.063 414.18 142.406 418.43C145.806 422.68 147.506 428.063 147.506 434.58C147.506 441.21 145.806 446.622 142.406 450.815C139.063 455.008 134.501 457.105 128.721 457.105C122.828 457.105 118.465 455.207 115.631 451.41H113.761V473H106.536V413.16ZM186.116 456V451.495H184.246C181.3 455.235 176.851 457.105 170.901 457.105C166.198 457.105 162.458 455.745 159.681 453.025C156.905 450.305 155.516 447.018 155.516 443.165C155.516 439.255 156.876 435.912 159.596 433.135C162.316 430.358 166.425 428.97 171.921 428.97H185.861V427.27C185.861 424.55 185.011 422.397 183.311 420.81C181.611 419.167 178.976 418.345 175.406 418.345C169.173 418.345 165.858 420.413 165.461 424.55H158.236C158.52 420.64 160.191 417.58 163.251 415.37C166.368 413.16 170.363 412.055 175.236 412.055C180.733 412.055 185.04 413.33 188.156 415.88C191.33 418.43 192.916 422.085 192.916 426.845V456H186.116ZM172.686 450.815C176.256 450.815 179.345 449.653 181.951 447.33C184.558 444.95 185.861 442.06 185.861 438.66V434.75H173.026C166.17 434.75 162.741 437.47 162.741 442.91C162.741 445.347 163.591 447.273 165.291 448.69C167.048 450.107 169.513 450.815 172.686 450.815ZM244.311 456H237.086V437.13H213.371V456H206.146V413.16H213.371V430.84H237.086V413.16H244.311V456ZM258.275 413.16H265.5V427.44H277.315C282.471 427.44 286.438 428.687 289.215 431.18C292.048 433.673 293.465 437.158 293.465 441.635C293.465 446.168 292.048 449.71 289.215 452.26C286.438 454.753 282.471 456 277.315 456H258.275V413.16ZM265.5 433.56V449.71H276.295C279.865 449.71 282.415 449.03 283.945 447.67C285.475 446.31 286.24 444.298 286.24 441.635C286.24 438.972 285.475 436.96 283.945 435.6C282.415 434.24 279.865 433.56 276.295 433.56H265.5ZM300.35 413.16H307.575V456H300.35V413.16ZM325.352 456H321.102V446.14H329.942V457.615L325.182 465.775H320.592L325.352 457.615V456ZM404.923 456H397.698V419.45H374.323V456H367.098V413.16H404.923V456ZM421.87 418.43C425.666 414.18 430.823 412.055 437.34 412.055C443.856 412.055 448.985 414.18 452.725 418.43C456.521 422.68 458.42 428.063 458.42 434.58C458.42 441.097 456.521 446.48 452.725 450.73C448.985 454.98 443.856 457.105 437.34 457.105C430.823 457.105 425.666 454.98 421.87 450.73C418.13 446.48 416.26 441.097 416.26 434.58C416.26 428.063 418.13 422.68 421.87 418.43ZM427.055 446.14C429.435 449.257 432.863 450.815 437.34 450.815C441.816 450.815 445.245 449.257 447.625 446.14C450.005 442.967 451.195 439.113 451.195 434.58C451.195 430.047 450.005 426.222 447.625 423.105C445.245 419.932 441.816 418.345 437.34 418.345C432.863 418.345 429.435 419.932 427.055 423.105C424.675 426.222 423.485 430.047 423.485 434.58C423.485 439.113 424.675 442.967 427.055 446.14ZM490.266 418.345C485.789 418.345 482.417 419.903 480.151 423.02C477.941 426.137 476.836 429.99 476.836 434.58C476.836 439.17 477.941 443.023 480.151 446.14C482.417 449.257 485.789 450.815 490.266 450.815C494.459 450.815 497.689 449.342 499.956 446.395C502.279 443.392 503.441 439.453 503.441 434.58C503.441 429.707 502.279 425.797 499.956 422.85C497.689 419.847 494.459 418.345 490.266 418.345ZM469.696 413.16H476.666V417.75H478.536C481.596 413.953 486.044 412.055 491.881 412.055C497.661 412.055 502.222 414.18 505.566 418.43C508.966 422.68 510.666 428.063 510.666 434.58C510.666 441.21 508.966 446.622 505.566 450.815C502.222 455.008 497.661 457.105 491.881 457.105C485.987 457.105 481.624 455.207 478.791 451.41H476.921V473H469.696V413.16ZM559.136 432.03V434.495H526.496C526.609 439.652 527.827 443.675 530.151 446.565C532.474 449.398 535.817 450.815 540.181 450.815C546.074 450.815 549.701 448.605 551.061 444.185H558.371C557.634 448.038 555.679 451.155 552.506 453.535C549.389 455.915 545.281 457.105 540.181 457.105C533.664 457.105 528.564 454.98 524.881 450.73C521.197 446.48 519.356 440.955 519.356 434.155C519.356 427.468 521.197 422.113 524.881 418.09C528.564 414.067 533.607 412.055 540.011 412.055C546.074 412.055 550.749 413.982 554.036 417.835C557.322 421.632 559.022 426.363 559.136 432.03ZM539.841 418.345C536.157 418.345 533.211 419.308 531.001 421.235C528.791 423.105 527.431 425.513 526.921 428.46H551.656C551.429 425.57 550.267 423.162 548.171 421.235C546.074 419.308 543.297 418.345 539.841 418.345ZM594.949 424.89C594.949 422.793 594.071 421.178 592.314 420.045C590.614 418.912 588.347 418.345 585.514 418.345C582.454 418.345 580.074 418.883 578.374 419.96C576.731 420.98 575.654 422.652 575.144 424.975H568.259C568.656 420.895 570.412 417.722 573.529 415.455C576.646 413.188 580.697 412.055 585.684 412.055C590.784 412.055 594.779 413.188 597.669 415.455C600.616 417.722 602.089 420.555 602.089 423.955C602.089 426.222 601.636 428.12 600.729 429.65C599.879 431.123 598.802 432.115 597.499 432.625V434.495C599.256 435.005 600.701 436.082 601.834 437.725C603.024 439.312 603.619 441.465 603.619 444.185C603.619 447.868 602.032 450.957 598.859 453.45C595.742 455.887 591.407 457.105 585.854 457.105C580.131 457.105 575.654 455.943 572.424 453.62C569.194 451.297 567.239 448.038 566.559 443.845H573.529C574.946 448.492 579.054 450.815 585.854 450.815C589.027 450.815 591.577 450.248 593.504 449.115C595.431 447.925 596.394 446.197 596.394 443.93C596.394 441.72 595.657 440.077 594.184 439C592.767 437.867 590.359 437.3 586.959 437.3H579.394V431.01H586.619C589.509 431.01 591.606 430.443 592.909 429.31C594.269 428.177 594.949 426.703 594.949 424.89ZM615.208 413.16H622.433V427.44H634.248C639.405 427.44 643.372 428.687 646.148 431.18C648.982 433.673 650.398 437.158 650.398 441.635C650.398 446.168 648.982 449.71 646.148 452.26C643.372 454.753 639.405 456 634.248 456H615.208V413.16ZM622.433 433.56V449.71H633.228C636.798 449.71 639.348 449.03 640.878 447.67C642.408 446.31 643.173 444.298 643.173 441.635C643.173 438.972 642.408 436.96 640.878 435.6C639.348 434.24 636.798 433.56 633.228 433.56H622.433ZM657.283 413.16H664.508V456H657.283V413.16ZM712.317 456H702.117V413.16H709.172V446.31H711.042L729.827 413.16H740.367V456H733.312V422.85H731.442L712.317 456ZM770.163 419.45V413.16H807.053V419.45H792.263V456H785.038V419.45H770.163ZM837.155 418.345C832.679 418.345 829.307 419.903 827.04 423.02C824.83 426.137 823.725 429.99 823.725 434.58C823.725 439.17 824.83 443.023 827.04 446.14C829.307 449.257 832.679 450.815 837.155 450.815C841.349 450.815 844.579 449.342 846.845 446.395C849.169 443.392 850.33 439.453 850.33 434.58C850.33 429.707 849.169 425.797 846.845 422.85C844.579 419.847 841.349 418.345 837.155 418.345ZM816.585 413.16H823.555V417.75H825.425C828.485 413.953 832.934 412.055 838.77 412.055C844.55 412.055 849.112 414.18 852.455 418.43C855.855 422.68 857.555 428.063 857.555 434.58C857.555 441.21 855.855 446.622 852.455 450.815C849.112 455.008 844.55 457.105 838.77 457.105C832.877 457.105 828.514 455.207 825.68 451.41H823.81V473H816.585V413.16ZM906.025 432.03V434.495H873.385C873.498 439.652 874.717 443.675 877.04 446.565C879.363 449.398 882.707 450.815 887.07 450.815C892.963 450.815 896.59 448.605 897.95 444.185H905.26C904.523 448.038 902.568 451.155 899.395 453.535C896.278 455.915 892.17 457.105 887.07 457.105C880.553 457.105 875.453 454.98 871.77 450.73C868.087 446.48 866.245 440.955 866.245 434.155C866.245 427.468 868.087 422.113 871.77 418.09C875.453 414.067 880.497 412.055 886.9 412.055C892.963 412.055 897.638 413.982 900.925 417.835C904.212 421.632 905.912 426.363 906.025 432.03ZM886.73 418.345C883.047 418.345 880.1 419.308 877.89 421.235C875.68 423.105 874.32 425.513 873.81 428.46H898.545C898.318 425.57 897.157 423.162 895.06 421.235C892.963 419.308 890.187 418.345 886.73 418.345ZM965.044 413.16H972.099V449.71H980.004V468.155H972.949V456H917.274V413.16H924.329V449.71H941.159V413.16H948.214V449.71H965.044V413.16ZM999.524 456H989.324V413.16H996.379V446.31H998.249L1017.03 413.16H1027.57V456H1020.52V422.85H1018.65L999.524 456ZM1079.7 456H1072.48V437.13H1048.76V456H1041.54V413.16H1048.76V430.84H1072.48V413.16H1079.7V456ZM1093.67 413.16H1100.89V427.44H1112.71C1117.86 427.44 1121.83 428.687 1124.61 431.18C1127.44 433.673 1128.86 437.158 1128.86 441.635C1128.86 446.168 1127.44 449.71 1124.61 452.26C1121.83 454.753 1117.86 456 1112.71 456H1093.67V413.16ZM1100.89 433.56V449.71H1111.69C1115.26 449.71 1117.81 449.03 1119.34 447.67C1120.87 446.31 1121.63 444.298 1121.63 441.635C1121.63 438.972 1120.87 436.96 1119.34 435.6C1117.81 434.24 1115.26 433.56 1111.69 433.56H1100.89ZM1135.74 413.16H1142.97V456H1135.74V413.16Z" fill="#F4ECE1"/>
</svg>
