<svg width="1737" height="377" viewBox="0 0 1737 377" fill="none" xmlns="http://www.w3.org/2000/svg">
<rect x="0.566406" width="1736" height="377" rx="94" fill="#8EA5EB"/>
<path d="M104.301 170V109.31H111.951V135.235H130.311L142.466 109.31H150.541L136.941 138.805L151.306 170H143.231L130.311 142.205H111.951V170H104.301ZM162.376 132.43C166.172 128.18 171.329 126.055 177.846 126.055C184.362 126.055 189.491 128.18 193.231 132.43C197.027 136.68 198.926 142.063 198.926 148.58C198.926 155.097 197.027 160.48 193.231 164.73C189.491 168.98 184.362 171.105 177.846 171.105C171.329 171.105 166.172 168.98 162.376 164.73C158.636 160.48 156.766 155.097 156.766 148.58C156.766 142.063 158.636 136.68 162.376 132.43ZM167.561 160.14C169.941 163.257 173.369 164.815 177.846 164.815C182.322 164.815 185.751 163.257 188.131 160.14C190.511 156.967 191.701 153.113 191.701 148.58C191.701 144.047 190.511 140.222 188.131 137.105C185.751 133.932 182.322 132.345 177.846 132.345C173.369 132.345 169.941 133.932 167.561 137.105C165.181 140.222 163.991 144.047 163.991 148.58C163.991 153.113 165.181 156.967 167.561 160.14ZM210.201 170V127.16H221.676L232.216 146.71H234.086L244.626 127.16H255.931V170H248.876V135.575H247.006L237.061 153.935H229.071L219.126 135.575H217.256V170H210.201ZM281.444 187H274.134L282.974 166.005L264.699 127.16H272.434L285.524 155.38H287.649L299.549 127.16H307.114L281.444 187ZM377.104 170H369.879V133.45H346.504V170H339.279V127.16H377.104V170ZM394.05 132.43C397.847 128.18 403.004 126.055 409.52 126.055C416.037 126.055 421.165 128.18 424.905 132.43C428.702 136.68 430.6 142.063 430.6 148.58C430.6 155.097 428.702 160.48 424.905 164.73C421.165 168.98 416.037 171.105 409.52 171.105C403.004 171.105 397.847 168.98 394.05 164.73C390.31 160.48 388.44 155.097 388.44 148.58C388.44 142.063 390.31 136.68 394.05 132.43ZM399.235 160.14C401.615 163.257 405.044 164.815 409.52 164.815C413.997 164.815 417.425 163.257 419.805 160.14C422.185 156.967 423.375 153.113 423.375 148.58C423.375 144.047 422.185 140.222 419.805 137.105C417.425 133.932 413.997 132.345 409.52 132.345C405.044 132.345 401.615 133.932 399.235 137.105C396.855 140.222 395.665 144.047 395.665 148.58C395.665 153.113 396.855 156.967 399.235 160.14ZM480.041 163.71H487.946V182.155H480.891V170H443.831V182.155H436.776V163.71H442.471C445.985 156.23 447.741 147.957 447.741 138.89V127.16H480.041V163.71ZM472.816 163.71V133.45H454.456V138.89C454.456 148.58 452.898 156.853 449.781 163.71H472.816ZM500.3 132.43C504.097 128.18 509.254 126.055 515.77 126.055C522.287 126.055 527.415 128.18 531.155 132.43C534.952 136.68 536.85 142.063 536.85 148.58C536.85 155.097 534.952 160.48 531.155 164.73C527.415 168.98 522.287 171.105 515.77 171.105C509.254 171.105 504.097 168.98 500.3 164.73C496.56 160.48 494.69 155.097 494.69 148.58C494.69 142.063 496.56 136.68 500.3 132.43ZM505.485 160.14C507.865 163.257 511.294 164.815 515.77 164.815C520.247 164.815 523.675 163.257 526.055 160.14C528.435 156.967 529.625 153.113 529.625 148.58C529.625 144.047 528.435 140.222 526.055 137.105C523.675 133.932 520.247 132.345 515.77 132.345C511.294 132.345 507.865 133.932 505.485 137.105C503.105 140.222 501.915 144.047 501.915 148.58C501.915 153.113 503.105 156.967 505.485 160.14ZM558.326 170H548.126V127.16H555.181V160.31H557.051L575.836 127.16H586.376V170H579.321V136.85H577.451L558.326 170ZM574.476 108.46H580.341C580.228 112.427 579.01 115.487 576.686 117.64C574.363 119.793 571.161 120.87 567.081 120.87C563.058 120.87 559.885 119.793 557.561 117.64C555.238 115.487 554.02 112.427 553.906 108.46H559.771C559.885 113.277 562.321 115.685 567.081 115.685C571.728 115.685 574.193 113.277 574.476 108.46ZM638.503 163.71H646.408V182.155H639.353V170H602.293V182.155H595.238V163.71H600.933C604.446 156.23 606.203 147.957 606.203 138.89V127.16H638.503V163.71ZM631.278 163.71V133.45H612.918V138.89C612.918 148.58 611.36 156.853 608.243 163.71H631.278ZM692.932 146.03V148.495H660.292C660.406 153.652 661.624 157.675 663.947 160.565C666.271 163.398 669.614 164.815 673.977 164.815C679.871 164.815 683.497 162.605 684.857 158.185H692.167C691.431 162.038 689.476 165.155 686.302 167.535C683.186 169.915 679.077 171.105 673.977 171.105C667.461 171.105 662.361 168.98 658.677 164.73C654.994 160.48 653.152 154.955 653.152 148.155C653.152 141.468 654.994 136.113 658.677 132.09C662.361 128.067 667.404 126.055 673.807 126.055C679.871 126.055 684.546 127.982 687.832 131.835C691.119 135.632 692.819 140.363 692.932 146.03ZM673.637 132.345C669.954 132.345 667.007 133.308 664.797 135.235C662.587 137.105 661.227 139.513 660.717 142.46H685.452C685.226 139.57 684.064 137.162 681.967 135.235C679.871 133.308 677.094 132.345 673.637 132.345ZM698.35 133.45V127.16H735.24V133.45H720.45V170H713.225V133.45H698.35ZM804.976 137.02V138.89C807.526 140.08 809.566 141.95 811.096 144.5C812.682 147.05 813.476 149.855 813.476 152.915C813.476 158.015 811.719 162.152 808.206 165.325C804.692 168.442 799.592 170 792.906 170H765.791V109.31H792.226C798.402 109.31 803.162 110.783 806.506 113.73C809.906 116.62 811.606 120.275 811.606 124.695C811.606 130.532 809.396 134.64 804.976 137.02ZM773.441 116.11V135.065H792.056C799.932 135.065 803.871 131.835 803.871 125.375C803.871 122.202 802.737 119.878 800.471 118.405C798.204 116.875 795.342 116.11 791.886 116.11H773.441ZM773.441 163.2H792.396C796.306 163.2 799.507 162.378 802.001 160.735C804.494 159.035 805.741 156.23 805.741 152.32C805.741 148.637 804.494 145.973 802.001 144.33C799.564 142.63 796.391 141.78 792.481 141.78H773.441V163.2ZM855.82 137.7V139.57C858.144 140.363 860.269 142.035 862.195 144.585C864.122 147.078 865.085 150.138 865.085 153.765C865.085 158.752 863.102 162.888 859.135 166.175C855.225 169.462 850.04 171.105 843.58 171.105C837.12 171.105 831.907 169.462 827.94 166.175C824.03 162.888 822.075 158.752 822.075 153.765C822.075 150.195 823.039 147.135 824.965 144.585C826.892 142.035 829.017 140.363 831.34 139.57V137.7C829.47 136.907 827.742 135.405 826.155 133.195C824.625 130.985 823.86 128.322 823.86 125.205C823.86 120.502 825.702 116.677 829.385 113.73C833.069 110.783 837.8 109.31 843.58 109.31C849.36 109.31 854.092 110.783 857.775 113.73C861.459 116.677 863.3 120.502 863.3 125.205C863.3 128.208 862.507 130.843 860.92 133.11C859.334 135.377 857.634 136.907 855.82 137.7ZM852.42 118.405C850.097 116.648 847.15 115.77 843.58 115.77C840.01 115.77 837.035 116.648 834.655 118.405C832.332 120.105 831.17 122.485 831.17 125.545C831.17 128.605 832.332 131.013 834.655 132.77C837.035 134.527 840.01 135.405 843.58 135.405C847.15 135.405 850.097 134.527 852.42 132.77C854.8 131.013 855.99 128.605 855.99 125.545C855.99 122.485 854.8 120.105 852.42 118.405ZM833.21 161.415C835.76 163.455 839.217 164.475 843.58 164.475C847.944 164.475 851.372 163.455 853.865 161.415C856.415 159.318 857.69 156.542 857.69 153.085C857.69 149.572 856.444 146.823 853.95 144.84C851.457 142.857 848 141.865 843.58 141.865C839.16 141.865 835.704 142.857 833.21 144.84C830.717 146.823 829.47 149.572 829.47 153.085C829.47 156.542 830.717 159.318 833.21 161.415ZM892.313 108.205C897.866 108.205 902.286 109.707 905.573 112.71C908.916 115.657 910.588 119.623 910.588 124.61C910.588 126.763 910.361 128.633 909.908 130.22C909.511 131.807 908.69 133.337 907.443 134.81C906.253 136.283 905.261 137.388 904.468 138.125C903.675 138.862 902.258 140.052 900.218 141.695C897.951 143.452 896.45 144.897 895.713 146.03C895.033 147.107 894.693 148.948 894.693 151.555V153.935H887.383V151.555C887.383 149.118 887.695 147.078 888.318 145.435C888.998 143.735 889.82 142.375 890.783 141.355C891.803 140.278 893.39 138.862 895.543 137.105C897.413 135.575 898.801 134.385 899.708 133.535C900.615 132.628 901.436 131.41 902.173 129.88C902.91 128.35 903.278 126.593 903.278 124.61C903.278 121.833 902.286 119.453 900.303 117.47C898.376 115.487 895.741 114.495 892.398 114.495C885.088 114.495 881.235 118.263 880.838 125.8H873.528C873.755 120.303 875.511 115.997 878.798 112.88C882.141 109.763 886.646 108.205 892.313 108.205ZM895.458 170H886.618V160.14H895.458V170ZM940.865 162.435H942.48C945.313 162.435 947.495 161.698 949.025 160.225C950.555 158.752 951.745 155.777 952.595 151.3C953.445 146.767 953.87 140.193 953.87 131.58V109.31H993.735V170H986.085V116.28H961.095V133.025C961.095 142.885 960.415 150.535 959.055 155.975C957.751 161.358 955.796 165.042 953.19 167.025C950.64 169.008 947.098 170 942.565 170H940.865V162.435ZM1045.89 126.055C1052.24 126.055 1057.28 128.208 1061.02 132.515C1064.76 136.765 1066.63 142.12 1066.63 148.58C1066.63 155.04 1064.76 160.423 1061.02 164.73C1057.28 168.98 1052.24 171.105 1045.89 171.105C1040 171.105 1035.21 169.235 1031.52 165.495C1027.9 161.755 1025.83 156.967 1025.32 151.13H1015.54V170H1008.4V127.16H1015.54V144.84H1025.57C1026.25 139.23 1028.38 134.697 1031.95 131.24C1035.58 127.783 1040.22 126.055 1045.89 126.055ZM1035.86 160.14C1038.18 163.257 1041.53 164.815 1045.89 164.815C1050.25 164.815 1053.6 163.257 1055.92 160.14C1058.24 156.967 1059.4 153.113 1059.4 148.58C1059.4 144.047 1058.24 140.222 1055.92 137.105C1053.6 133.932 1050.25 132.345 1045.89 132.345C1041.53 132.345 1038.18 133.932 1035.86 137.105C1033.54 140.222 1032.37 144.047 1032.37 148.58C1032.37 153.113 1033.54 156.967 1035.86 160.14ZM1116.13 163.71H1124.04V182.155H1116.98V170H1079.92V182.155H1072.87V163.71H1078.56C1082.07 156.23 1083.83 147.957 1083.83 138.89V127.16H1116.13V163.71ZM1108.91 163.71V133.45H1090.55V138.89C1090.55 148.58 1088.99 156.853 1085.87 163.71H1108.91ZM1147.27 127.16H1168.6V170H1161.29V153.085H1148.29C1147.16 153.085 1146.28 153.057 1145.65 153L1139.19 170H1131.63L1138.85 151.385C1134.43 149.288 1132.22 145.548 1132.22 140.165C1132.22 136.028 1133.5 132.827 1136.05 130.56C1138.66 128.293 1142.4 127.16 1147.27 127.16ZM1161.29 133.28H1148.03C1144.92 133.28 1142.71 133.875 1141.4 135.065C1140.1 136.255 1139.45 137.983 1139.45 140.25C1139.45 142.46 1140.1 144.132 1141.4 145.265C1142.71 146.398 1144.92 146.965 1148.03 146.965H1161.29V133.28ZM1182.47 170V127.16H1193.95L1204.49 146.71H1206.36L1216.9 127.16H1228.2V170H1221.15V135.575H1219.28L1209.33 153.935H1201.34L1191.4 135.575H1189.53V170H1182.47ZM1245.98 170H1241.73V160.14H1250.57V171.615L1245.81 179.775H1241.22L1245.98 171.615V170ZM1317.31 170L1307.79 151.13H1294.95V170H1287.73V127.16H1294.95V144.84H1307.96L1316.88 127.16H1324.45L1313.99 147.815L1325.04 170H1317.31ZM1337.02 132.43C1340.82 128.18 1345.97 126.055 1352.49 126.055C1359.01 126.055 1364.13 128.18 1367.87 132.43C1371.67 136.68 1373.57 142.063 1373.57 148.58C1373.57 155.097 1371.67 160.48 1367.87 164.73C1364.13 168.98 1359.01 171.105 1352.49 171.105C1345.97 171.105 1340.82 168.98 1337.02 164.73C1333.28 160.48 1331.41 155.097 1331.41 148.58C1331.41 142.063 1333.28 136.68 1337.02 132.43ZM1342.2 160.14C1344.58 163.257 1348.01 164.815 1352.49 164.815C1356.97 164.815 1360.39 163.257 1362.77 160.14C1365.15 156.967 1366.34 153.113 1366.34 148.58C1366.34 144.047 1365.15 140.222 1362.77 137.105C1360.39 133.932 1356.97 132.345 1352.49 132.345C1348.01 132.345 1344.58 133.932 1342.2 137.105C1339.82 140.222 1338.63 144.047 1338.63 148.58C1338.63 153.113 1339.82 156.967 1342.2 160.14ZM1379.59 133.45V127.16H1416.48V133.45H1401.69V170H1394.47V133.45H1379.59ZM1428.33 132.43C1432.12 128.18 1437.28 126.055 1443.8 126.055C1450.31 126.055 1455.44 128.18 1459.18 132.43C1462.98 136.68 1464.88 142.063 1464.88 148.58C1464.88 155.097 1462.98 160.48 1459.18 164.73C1455.44 168.98 1450.31 171.105 1443.8 171.105C1437.28 171.105 1432.12 168.98 1428.33 164.73C1424.59 160.48 1422.72 155.097 1422.72 148.58C1422.72 142.063 1424.59 136.68 1428.33 132.43ZM1433.51 160.14C1435.89 163.257 1439.32 164.815 1443.8 164.815C1448.27 164.815 1451.7 163.257 1454.08 160.14C1456.46 156.967 1457.65 153.113 1457.65 148.58C1457.65 144.047 1456.46 140.222 1454.08 137.105C1451.7 133.932 1448.27 132.345 1443.8 132.345C1439.32 132.345 1435.89 133.932 1433.51 137.105C1431.13 140.222 1429.94 144.047 1429.94 148.58C1429.94 153.113 1431.13 156.967 1433.51 160.14ZM1496.72 132.345C1492.25 132.345 1488.88 133.903 1486.61 137.02C1484.4 140.137 1483.29 143.99 1483.29 148.58C1483.29 153.17 1484.4 157.023 1486.61 160.14C1488.88 163.257 1492.25 164.815 1496.72 164.815C1500.92 164.815 1504.15 163.342 1506.41 160.395C1508.74 157.392 1509.9 153.453 1509.9 148.58C1509.9 143.707 1508.74 139.797 1506.41 136.85C1504.15 133.847 1500.92 132.345 1496.72 132.345ZM1476.15 127.16H1483.12V131.75H1484.99C1488.05 127.953 1492.5 126.055 1498.34 126.055C1504.12 126.055 1508.68 128.18 1512.02 132.43C1515.42 136.68 1517.12 142.063 1517.12 148.58C1517.12 155.21 1515.42 160.622 1512.02 164.815C1508.68 169.008 1504.12 171.105 1498.34 171.105C1492.45 171.105 1488.08 169.207 1485.25 165.41H1483.38V187H1476.15V127.16ZM1528.45 127.16H1535.67V141.44H1547.49C1552.65 141.44 1556.61 142.687 1559.39 145.18C1562.22 147.673 1563.64 151.158 1563.64 155.635C1563.64 160.168 1562.22 163.71 1559.39 166.26C1556.61 168.753 1552.65 170 1547.49 170H1528.45V127.16ZM1535.67 147.56V163.71H1546.47C1550.04 163.71 1552.59 163.03 1554.12 161.67C1555.65 160.31 1556.41 158.298 1556.41 155.635C1556.41 152.972 1555.65 150.96 1554.12 149.6C1552.59 148.24 1550.04 147.56 1546.47 147.56H1535.67ZM1570.52 127.16H1577.75V170H1570.52V127.16ZM1628.85 146.03V148.495H1596.21C1596.32 153.652 1597.54 157.675 1599.86 160.565C1602.18 163.398 1605.53 164.815 1609.89 164.815C1615.78 164.815 1619.41 162.605 1620.77 158.185H1628.08C1627.34 162.038 1625.39 165.155 1622.22 167.535C1619.1 169.915 1614.99 171.105 1609.89 171.105C1603.37 171.105 1598.27 168.98 1594.59 164.73C1590.91 160.48 1589.07 154.955 1589.07 148.155C1589.07 141.468 1590.91 136.113 1594.59 132.09C1598.27 128.067 1603.32 126.055 1609.72 126.055C1615.78 126.055 1620.46 127.982 1623.75 131.835C1627.03 135.632 1628.73 140.363 1628.85 146.03ZM1609.55 132.345C1605.87 132.345 1602.92 133.308 1600.71 135.235C1598.5 137.105 1597.14 139.513 1596.63 142.46H1621.37C1621.14 139.57 1619.98 137.162 1617.88 135.235C1615.78 133.308 1613.01 132.345 1609.55 132.345ZM115.096 287H107.786L116.626 266.005L98.3514 227.16H106.086L119.176 255.38H121.301L133.201 227.16H140.766L115.096 287ZM177.429 257.08H184.654C183.804 261.387 181.792 264.815 178.619 267.365C175.502 269.858 171.507 271.105 166.634 271.105C160.174 271.105 155.074 269.008 151.334 264.815C147.65 260.565 145.809 255.153 145.809 248.58C145.809 241.95 147.65 236.538 151.334 232.345C155.017 228.152 160.117 226.055 166.634 226.055C171.564 226.055 175.559 227.302 178.619 229.795C181.735 232.232 183.662 235.49 184.399 239.57H177.174C175.644 234.753 172.13 232.345 166.634 232.345C162.044 232.345 158.615 233.875 156.349 236.935C154.139 239.938 153.034 243.763 153.034 248.41C153.034 253.113 154.167 257.023 156.434 260.14C158.7 263.257 162.1 264.815 166.634 264.815C172.64 264.815 176.239 262.237 177.429 257.08ZM191.006 233.45V227.16H227.896V233.45H213.106V270H205.881V233.45H191.006ZM264.713 270V265.495H262.843C259.896 269.235 255.448 271.105 249.498 271.105C244.795 271.105 241.055 269.745 238.278 267.025C235.501 264.305 234.113 261.018 234.113 257.165C234.113 253.255 235.473 249.912 238.193 247.135C240.913 244.358 245.021 242.97 250.518 242.97H264.458V241.27C264.458 238.55 263.608 236.397 261.908 234.81C260.208 233.167 257.573 232.345 254.003 232.345C247.77 232.345 244.455 234.413 244.058 238.55H236.833C237.116 234.64 238.788 231.58 241.848 229.37C244.965 227.16 248.96 226.055 253.833 226.055C259.33 226.055 263.636 227.33 266.753 229.88C269.926 232.43 271.513 236.085 271.513 240.845V270H264.713ZM251.283 264.815C254.853 264.815 257.941 263.653 260.548 261.33C263.155 258.95 264.458 256.06 264.458 252.66V248.75H251.623C244.766 248.75 241.338 251.47 241.338 256.91C241.338 259.347 242.188 261.273 243.888 262.69C245.645 264.107 248.11 264.815 251.283 264.815ZM279.897 270V263.2H281.342C284.346 263.2 286.499 261.812 287.802 259.035C289.106 256.202 289.757 251.102 289.757 243.735V227.16H322.567V270H315.257V233.45H296.472V243.905C296.472 253.595 295.282 260.367 292.902 264.22C290.579 268.073 286.726 270 281.342 270H279.897ZM346.656 270H336.456V227.16H343.511V260.31H345.381L364.166 227.16H374.706V270H367.651V236.85H365.781L346.656 270ZM450.15 270H442.925V233.45H419.55V270H412.325V227.16H450.15V270ZM474.322 270H464.122V227.16H471.177V260.31H473.047L491.832 227.16H502.372V270H495.317V236.85H493.447L474.322 270ZM511.914 233.45V227.16H548.804V233.45H534.014V270H526.789V233.45H511.914ZM565.561 227.16V241.44H578.226C583.383 241.44 587.35 242.687 590.126 245.18C592.96 247.673 594.376 251.158 594.376 255.635C594.376 260.168 592.96 263.71 590.126 266.26C587.35 268.753 583.383 270 578.226 270H558.336V227.16H565.561ZM565.561 263.71H577.206C580.776 263.71 583.326 263.03 584.856 261.67C586.386 260.31 587.151 258.298 587.151 255.635C587.151 252.972 586.386 250.96 584.856 249.6C583.326 248.24 580.776 247.56 577.206 247.56H565.561V263.71ZM658.487 246.37V248.24C660.583 248.75 662.255 249.883 663.502 251.64C664.805 253.397 665.457 255.607 665.457 258.27C665.457 266.09 660.413 270 650.327 270H628.312V227.16H649.562C653.868 227.16 657.183 228.123 659.507 230.05C661.887 231.92 663.077 234.555 663.077 237.955C663.077 239.938 662.623 241.667 661.717 243.14C660.867 244.613 659.79 245.69 658.487 246.37ZM635.452 263.88H649.902C655.455 263.88 658.232 261.755 658.232 257.505C658.232 253.198 655.455 251.045 649.902 251.045H635.452V263.88ZM635.452 233.28V244.925H648.882C651.318 244.925 653.075 244.387 654.152 243.31C655.285 242.233 655.852 240.845 655.852 239.145C655.852 235.235 653.528 233.28 648.882 233.28H635.452ZM686.905 270H676.705V227.16H683.76V260.31H685.63L704.415 227.16H714.955V270H707.9V236.85H706.03L686.905 270ZM724.497 233.45V227.16H761.387V233.45H746.597V270H739.372V233.45H724.497ZM798.204 270V265.495H796.334C793.388 269.235 788.939 271.105 782.989 271.105C778.286 271.105 774.546 269.745 771.769 267.025C768.993 264.305 767.604 261.018 767.604 257.165C767.604 253.255 768.964 249.912 771.684 247.135C774.404 244.358 778.513 242.97 784.009 242.97H797.949V241.27C797.949 238.55 797.099 236.397 795.399 234.81C793.699 233.167 791.064 232.345 787.494 232.345C781.261 232.345 777.946 234.413 777.549 238.55H770.324C770.608 234.64 772.279 231.58 775.339 229.37C778.456 227.16 782.451 226.055 787.324 226.055C792.821 226.055 797.128 227.33 800.244 229.88C803.418 232.43 805.004 236.085 805.004 240.845V270H798.204ZM784.774 264.815C788.344 264.815 791.433 263.653 794.039 261.33C796.646 258.95 797.949 256.06 797.949 252.66V248.75H785.114C778.258 248.75 774.829 251.47 774.829 256.91C774.829 259.347 775.679 261.273 777.379 262.69C779.136 264.107 781.601 264.815 784.774 264.815ZM818.234 270V227.16H829.709L840.249 246.71H842.119L852.659 227.16H863.964V270H856.909V235.575H855.039L845.094 253.935H837.104L827.159 235.575H825.289V270H818.234ZM888.116 270H877.916V227.16H884.971V260.31H886.841L905.626 227.16H916.166V270H909.111V236.85H907.241L888.116 270ZM968.293 270H961.068V251.13H937.353V270H930.128V227.16H937.353V244.84H961.068V227.16H968.293V270ZM982.257 227.16H989.482V241.44H1001.3C1006.45 241.44 1010.42 242.687 1013.2 245.18C1016.03 247.673 1017.45 251.158 1017.45 255.635C1017.45 260.168 1016.03 263.71 1013.2 266.26C1010.42 268.753 1006.45 270 1001.3 270H982.257V227.16ZM989.482 247.56V263.71H1000.28C1003.85 263.71 1006.4 263.03 1007.93 261.67C1009.46 260.31 1010.22 258.298 1010.22 255.635C1010.22 252.972 1009.46 250.96 1007.93 249.6C1006.4 248.24 1003.85 247.56 1000.28 247.56H989.482ZM1024.33 227.16H1031.56V270H1024.33V227.16ZM1099.34 246.37V248.24C1101.44 248.75 1103.11 249.883 1104.36 251.64C1105.66 253.397 1106.31 255.607 1106.31 258.27C1106.31 266.09 1101.27 270 1091.18 270H1069.17V227.16H1090.42C1094.72 227.16 1098.04 228.123 1100.36 230.05C1102.74 231.92 1103.93 234.555 1103.93 237.955C1103.93 239.938 1103.48 241.667 1102.57 243.14C1101.72 244.613 1100.64 245.69 1099.34 246.37ZM1076.31 263.88H1090.76C1096.31 263.88 1099.09 261.755 1099.09 257.505C1099.09 253.198 1096.31 251.045 1090.76 251.045H1076.31V263.88ZM1076.31 233.28V244.925H1089.74C1092.17 244.925 1093.93 244.387 1095.01 243.31C1096.14 242.233 1096.71 240.845 1096.71 239.145C1096.71 235.235 1094.38 233.28 1089.74 233.28H1076.31ZM1133.39 233.45V227.16H1170.28V233.45H1155.49V270H1148.27V233.45H1133.39ZM1207.1 270V265.495H1205.23C1202.28 269.235 1197.84 271.105 1191.89 271.105C1187.18 271.105 1183.44 269.745 1180.67 267.025C1177.89 264.305 1176.5 261.018 1176.5 257.165C1176.5 253.255 1177.86 249.912 1180.58 247.135C1183.3 244.358 1187.41 242.97 1192.91 242.97H1206.85V241.27C1206.85 238.55 1206 236.397 1204.3 234.81C1202.6 233.167 1199.96 232.345 1196.39 232.345C1190.16 232.345 1186.84 234.413 1186.45 238.55H1179.22C1179.5 234.64 1181.18 231.58 1184.24 229.37C1187.35 227.16 1191.35 226.055 1196.22 226.055C1201.72 226.055 1206.02 227.33 1209.14 229.88C1212.31 232.43 1213.9 236.085 1213.9 240.845V270H1207.1ZM1193.67 264.815C1197.24 264.815 1200.33 263.653 1202.94 261.33C1205.54 258.95 1206.85 256.06 1206.85 252.66V248.75H1194.01C1187.15 248.75 1183.73 251.47 1183.73 256.91C1183.73 259.347 1184.58 261.273 1186.28 262.69C1188.03 264.107 1190.5 264.815 1193.67 264.815ZM1246.68 227.585C1252.97 227.585 1257.93 229.653 1261.56 233.79C1265.18 237.87 1267 243.055 1267 249.345C1267 255.578 1265.07 260.763 1261.22 264.9C1257.42 269.037 1252.29 271.105 1245.83 271.105C1239.03 271.105 1233.76 268.867 1230.02 264.39C1226.34 259.913 1224.5 253.51 1224.5 245.18C1224.5 241.95 1224.58 239.06 1224.75 236.51C1224.98 233.96 1225.43 231.297 1226.11 228.52C1226.85 225.743 1227.81 223.392 1229 221.465C1230.19 219.482 1231.83 217.753 1233.93 216.28C1236.03 214.807 1238.52 213.843 1241.41 213.39L1252.8 211.52C1254.39 211.293 1255.44 210.982 1255.95 210.585C1256.51 210.188 1256.85 209.395 1256.97 208.205H1263.68C1263.57 210.868 1262.92 212.993 1261.73 214.58C1260.54 216.11 1258.38 217.158 1255.27 217.725L1242.09 219.935C1238.52 220.558 1235.89 222.06 1234.19 224.44C1232.54 226.763 1231.47 229.88 1230.96 233.79H1232.83C1234.58 231.467 1236.54 229.852 1238.69 228.945C1240.9 228.038 1243.56 227.585 1246.68 227.585ZM1235.29 260.31C1237.73 263.313 1241.18 264.815 1245.66 264.815C1250.14 264.815 1253.57 263.313 1255.95 260.31C1258.38 257.25 1259.6 253.567 1259.6 249.26C1259.6 244.953 1258.38 241.298 1255.95 238.295C1253.57 235.292 1250.14 233.79 1245.66 233.79C1241.18 233.79 1237.73 235.292 1235.29 238.295C1232.91 241.298 1231.72 244.953 1231.72 249.26C1231.72 253.567 1232.91 257.25 1235.29 260.31ZM1272.59 270V263.2H1274.03C1277.04 263.2 1279.19 261.812 1280.49 259.035C1281.8 256.202 1282.45 251.102 1282.45 243.735V227.16H1315.26V270H1307.95V233.45H1289.16V243.905C1289.16 253.595 1287.97 260.367 1285.59 264.22C1283.27 268.073 1279.42 270 1274.03 270H1272.59ZM1366.29 246.03V248.495H1333.65C1333.77 253.652 1334.98 257.675 1337.31 260.565C1339.63 263.398 1342.97 264.815 1347.34 264.815C1353.23 264.815 1356.86 262.605 1358.22 258.185H1365.53C1364.79 262.038 1362.84 265.155 1359.66 267.535C1356.55 269.915 1352.44 271.105 1347.34 271.105C1340.82 271.105 1335.72 268.98 1332.04 264.73C1328.35 260.48 1326.51 254.955 1326.51 248.155C1326.51 241.468 1328.35 236.113 1332.04 232.09C1335.72 228.067 1340.76 226.055 1347.17 226.055C1353.23 226.055 1357.91 227.982 1361.19 231.835C1364.48 235.632 1366.18 240.363 1366.29 246.03ZM1347 232.345C1343.31 232.345 1340.37 233.308 1338.16 235.235C1335.95 237.105 1334.59 239.513 1334.08 242.46H1358.81C1358.59 239.57 1357.42 237.162 1355.33 235.235C1353.23 233.308 1350.45 232.345 1347 232.345ZM1371.71 233.45V227.16H1408.6V233.45H1393.81V270H1386.58V233.45H1371.71ZM1447.71 270L1438.19 251.13H1425.36V270H1418.13V227.16H1425.36V244.84H1438.36L1447.29 227.16H1454.85L1444.4 247.815L1455.45 270H1447.71ZM1492.98 270V265.495H1491.11C1488.16 269.235 1483.71 271.105 1477.76 271.105C1473.06 271.105 1469.32 269.745 1466.54 267.025C1463.77 264.305 1462.38 261.018 1462.38 257.165C1462.38 253.255 1463.74 249.912 1466.46 247.135C1469.18 244.358 1473.29 242.97 1478.78 242.97H1492.72V241.27C1492.72 238.55 1491.87 236.397 1490.17 234.81C1488.47 233.167 1485.84 232.345 1482.27 232.345C1476.04 232.345 1472.72 234.413 1472.32 238.55H1465.1C1465.38 234.64 1467.05 231.58 1470.11 229.37C1473.23 227.16 1477.23 226.055 1482.1 226.055C1487.6 226.055 1491.9 227.33 1495.02 229.88C1498.19 232.43 1499.78 236.085 1499.78 240.845V270H1492.98ZM1479.55 264.815C1483.12 264.815 1486.21 263.653 1488.81 261.33C1491.42 258.95 1492.72 256.06 1492.72 252.66V248.75H1479.89C1473.03 248.75 1469.6 251.47 1469.6 256.91C1469.6 259.347 1470.45 261.273 1472.15 262.69C1473.91 264.107 1476.38 264.815 1479.55 264.815ZM1541.65 270L1531.03 252.065H1527.97L1517.09 270H1509.18L1522.53 248.07L1510.54 227.16H1518.19L1528.05 244.16H1531.11L1541.14 227.16H1548.71L1536.55 247.815L1549.81 270H1541.65Z" fill="#F4ECE1"/>
</svg>
