<svg width="393" height="508" viewBox="0 0 393 508" fill="none" xmlns="http://www.w3.org/2000/svg">
<path d="M123.71 501.82L118.31 492.1H117.2L111.65 501.82H108.71L115.13 490.51L109.64 480.4H112.55L117.23 488.95H118.34L123.08 480.4H125.96L120.41 490.39L126.8 501.82H123.71Z" fill="#281915"/>
<path fill-rule="evenodd" clip-rule="evenodd" d="M268.425 97.6768C256.465 88.917 242.024 84.1958 227.199 84.1983H143.528L84.4034 368.004H153.099L160.28 333.512L163.46 337.468C174.068 350.661 188.508 360.237 204.789 364.875C221.071 369.512 238.39 368.983 254.357 363.36C270.325 357.737 284.154 347.297 293.936 333.481C303.719 319.665 308.973 303.153 308.973 286.224C308.977 271.756 305.141 257.545 297.857 245.044C290.573 232.543 280.102 222.199 267.512 215.069L264.215 213.201L267.316 211.022C279.445 202.498 288.544 190.331 293.291 176.286C298.038 162.241 298.187 147.049 293.715 132.914C289.244 118.779 280.386 106.437 268.425 97.6768ZM313.767 286.225C313.766 304.146 308.205 321.625 297.849 336.251C287.493 350.877 272.853 361.929 255.95 367.882C239.046 373.834 220.712 374.395 203.476 369.485C187.834 365.03 173.797 356.269 162.942 344.247L156.998 372.798H78.5078L139.63 79.4043L227.198 79.4043C227.198 79.4043 227.198 79.4043 227.198 79.4043C243.042 79.4017 258.475 84.4473 271.258 93.8091C284.04 103.171 293.508 116.362 298.286 131.469C303.065 146.575 302.906 162.811 297.833 177.821C293.151 191.672 284.509 203.814 273.016 212.765C284.947 220.205 294.902 230.45 301.999 242.63C309.71 255.864 313.771 270.908 313.767 286.225Z" fill="black"/>
<path fill-rule="evenodd" clip-rule="evenodd" d="M157.445 153.953C157.434 165.147 160.122 176.179 165.281 186.113C170.439 196.047 177.917 204.591 187.08 211.021L190.185 213.2L186.884 215.069C174.293 222.198 163.821 232.541 156.536 245.043C149.251 257.544 145.414 271.755 145.419 286.223L140.625 286.225C140.62 270.907 144.682 255.863 152.394 242.629C159.491 230.449 169.447 220.204 181.378 212.766C172.923 206.189 165.976 197.854 161.026 188.322C155.512 177.704 152.64 165.913 152.651 153.949L157.445 153.953Z" fill="black"/>
<rect x="78.5078" y="372.798" width="78.5077" height="78.5077" fill="#E2B8E6"/>
<rect x="313.767" y="372.798" width="78.5077" height="78.5077" fill="#E2B8E6"/>
<rect x="313.767" y="0.896484" width="78.5077" height="78.5077" fill="#E2B8E6"/>
<rect y="0.896484" width="78.5077" height="78.5077" fill="#E2B8E6"/>
<rect y="372.798" width="78.5077" height="78.5077" fill="#E2B8E6"/>
<path d="M78.8278 372.812V465.685" stroke="black"/>
<path d="M156.695 372.812V465.685" stroke="black"/>
<rect x="79.0078" y="79.9043" width="234.259" height="292.393" stroke="black"/>
<rect x="0.792236" y="1.39648" width="390.982" height="449.409" stroke="black"/>
<path d="M358.969 423.271L353.569 413.551H352.459L346.909 423.271H343.969L350.389 411.961L344.899 401.851H347.809L352.489 410.401H353.599L358.339 401.851H361.219L355.669 411.841L362.059 423.271H358.969Z" fill="#281915"/>
<path d="M359.253 50.9277L353.853 41.2077H352.743L347.193 50.9277H344.253L350.673 39.6177L345.183 29.5077H348.093L352.773 38.0577H353.883L358.623 29.5077H361.503L355.953 39.4977L362.343 50.9277H359.253Z" fill="#281915"/>
<path d="M45.202 423.271L39.802 413.551H38.692L33.142 423.271H30.202L36.622 411.961L31.132 401.851H34.042L38.722 410.401H39.832L44.572 401.851H47.452L41.902 411.841L48.292 423.271H45.202Z" fill="#281915"/>
<path d="M45.2019 50.9277L39.8019 41.2077H38.6919L33.1419 50.9277H30.2019L36.6219 39.6177L31.1319 29.5077H34.0419L38.7219 38.0577H39.8319L44.5719 29.5077H47.4519L41.9019 39.4977L48.2919 50.9277H45.2019Z" fill="#281915"/>
<path d="M73.6485 456.485L84.007 446.127" stroke="black" stroke-width="2"/>
<path d="M151.516 456.485L161.875 446.127" stroke="black" stroke-width="2"/>
</svg>
