<svg width="361" height="451" viewBox="0 0 361 451" fill="none" xmlns="http://www.w3.org/2000/svg">
<path d="M357.324 318.048C357.324 344.769 349.031 370.831 333.591 392.639C318.15 414.446 296.322 430.925 271.118 439.8C245.915 448.676 218.578 449.511 192.88 442.191C167.181 434.871 144.388 419.756 127.645 398.932L117.611 447.13H4.75819L96.9551 4.57227H228.25C251.765 4.56832 274.671 12.0568 293.642 25.9513C312.613 39.8458 326.664 59.4235 333.756 81.8439C340.849 104.264 340.613 128.361 333.083 150.639C325.553 172.916 311.122 192.215 291.882 205.735C311.753 216.99 328.282 233.317 339.779 253.049C351.276 272.781 357.331 295.211 357.324 318.048Z" fill="black"/>
<path fill-rule="evenodd" clip-rule="evenodd" d="M291.47 28.9167C273.129 15.4839 250.985 8.24414 228.251 8.24795H99.944L9.27861 443.455H114.621L125.632 390.563L130.509 396.629C146.776 416.86 168.92 431.544 193.887 438.656C218.853 445.768 245.412 444.956 269.897 436.333C294.383 427.71 315.59 411.701 330.591 390.514C345.592 369.328 353.648 344.008 353.648 318.048C353.655 295.861 347.773 274.07 336.603 254.9C325.433 235.73 309.376 219.868 290.07 208.933L285.013 206.069L289.769 202.728C308.369 189.656 322.321 170.999 329.601 149.462C336.88 127.924 337.108 104.628 330.252 82.9524C323.396 61.2768 309.811 42.3496 291.47 28.9167ZM361 318.049C360.999 345.53 352.471 372.334 336.59 394.763C320.71 417.191 298.26 434.139 272.339 443.267C246.418 452.396 218.303 453.255 191.873 445.726C167.887 438.894 146.361 425.459 129.714 407.024L120.6 450.806H0.237793L93.9663 0.896486L228.249 0.896486C228.25 0.896486 228.249 0.896486 228.249 0.896486C252.546 0.892544 276.212 8.62983 295.814 22.9858C315.416 37.3419 329.933 57.57 337.261 80.7353C344.589 103.901 344.345 128.798 336.565 151.815C329.386 173.056 316.135 191.675 298.51 205.401C316.806 216.809 332.072 232.521 342.955 251.199C354.78 271.492 361.007 294.562 361 318.049Z" fill="black"/>
<path fill-rule="evenodd" clip-rule="evenodd" d="M121.287 115.215C121.27 132.38 125.391 149.297 133.302 164.53C141.212 179.764 152.679 192.866 166.73 202.726L171.491 206.067L166.43 208.933C147.122 219.866 131.063 235.727 119.892 254.898C108.72 274.068 102.837 295.859 102.844 318.047L95.4924 318.049C95.4856 294.56 101.713 271.49 113.54 251.196C124.424 232.519 139.691 216.809 157.986 205.402C145.021 195.316 134.368 182.535 126.777 167.918C118.322 151.636 113.917 133.555 113.935 115.208L121.287 115.215Z" fill="white"/>
</svg>
