<svg width="970" height="602" viewBox="0 0 970 602" fill="none" xmlns="http://www.w3.org/2000/svg">
<rect width="193.8" height="301" fill="#E8FF4C"/>
<path d="M160.886 184.249C160.886 194.043 157.847 203.595 152.187 211.589C146.527 219.582 138.526 225.622 129.288 228.875C120.05 232.129 110.03 232.435 100.611 229.752C91.1914 227.069 82.8368 221.528 76.6996 213.896L73.0217 231.562H31.6569L65.4507 69.3472H113.575C122.195 69.3457 130.59 72.0906 137.544 77.1834C144.498 82.2763 149.648 89.4523 152.248 97.6703C154.847 105.888 154.761 114.721 152.001 122.886C149.241 131.052 143.951 138.126 136.899 143.081C144.183 147.207 150.241 153.191 154.455 160.424C158.669 167.656 160.889 175.878 160.886 184.249V184.249Z" fill="#291A15"/>
<path fill-rule="evenodd" clip-rule="evenodd" d="M136.748 78.2705C130.025 73.3468 121.909 70.6932 113.576 70.6946H66.5463L33.3138 230.215H71.926L75.962 210.828L77.7496 213.051C83.712 220.467 91.8288 225.849 100.98 228.456C110.131 231.063 119.866 230.765 128.841 227.605C137.816 224.444 145.589 218.576 151.087 210.81C156.586 203.045 159.539 193.764 159.539 184.249C159.541 176.116 157.385 168.129 153.291 161.102C149.197 154.076 143.311 148.262 136.235 144.254L134.382 143.204L136.124 141.979C142.942 137.188 148.056 130.349 150.725 122.455C153.393 114.561 153.476 106.022 150.963 98.0767C148.45 90.1318 143.471 83.1942 136.748 78.2705ZM162.234 184.249C162.233 194.322 159.107 204.147 153.287 212.367C147.466 220.588 139.237 226.8 129.736 230.146C120.235 233.492 109.93 233.807 100.242 231.048C91.45 228.543 83.5601 223.619 77.4583 216.862L74.1175 232.91H30L64.3552 68L113.575 68C113.575 68 113.575 68 113.575 68C122.481 67.9986 131.156 70.8346 138.34 76.0966C145.525 81.3587 150.846 88.7731 153.532 97.2641C156.218 105.755 156.129 114.881 153.277 123.318C150.646 131.103 145.789 137.928 139.329 142.959C146.035 147.141 151.63 152.899 155.619 159.746C159.954 167.184 162.236 175.64 162.234 184.249Z" fill="#291A15"/>
<path fill-rule="evenodd" clip-rule="evenodd" d="M74.3691 109.903C74.3629 116.194 75.8736 122.395 78.7732 127.979C81.6728 133.562 85.8757 138.365 91.0259 141.979L92.7712 143.203L90.9159 144.254C83.839 148.261 77.9526 154.075 73.8579 161.102C69.7631 168.128 67.6068 176.116 67.6092 184.248L64.9146 184.249C64.9121 175.64 67.1948 167.184 71.5297 159.745C75.5191 152.899 81.1149 147.141 87.8211 142.96C83.0689 139.263 79.164 134.578 76.3818 129.22C73.2826 123.252 71.6679 116.625 71.6745 109.9L74.3691 109.903Z" fill="#E8FF4C"/>
<rect x="387.6" width="193.8" height="301" fill="#F4ECE1"/>
<path d="M549.886 184.249C549.886 194.043 546.847 203.595 541.187 211.589C535.527 219.582 527.527 225.622 518.288 228.875C509.05 232.129 499.03 232.435 489.611 229.752C480.191 227.069 471.837 221.528 465.7 213.896L462.022 231.562H420.657L454.451 69.3472H502.576C511.195 69.3457 519.59 72.0906 526.544 77.1834C533.498 82.2763 538.648 89.4523 541.248 97.6703C543.847 105.888 543.761 114.721 541.001 122.886C538.241 131.052 532.951 138.126 525.899 143.081C533.183 147.207 539.241 153.191 543.455 160.424C547.669 167.656 549.889 175.878 549.886 184.249V184.249Z" fill="#291A15"/>
<path fill-rule="evenodd" clip-rule="evenodd" d="M525.748 78.2705C519.025 73.3468 510.909 70.6932 502.576 70.6946H455.546L422.314 230.215H460.926L464.962 210.828L466.75 213.051C472.712 220.467 480.829 225.849 489.98 228.456C499.131 231.063 508.866 230.765 517.841 227.605C526.816 224.444 534.589 218.576 540.087 210.81C545.586 203.045 548.539 193.764 548.539 184.249C548.541 176.116 546.385 168.129 542.291 161.102C538.197 154.076 532.311 148.262 525.235 144.254L523.382 143.204L525.124 141.979C531.942 137.188 537.056 130.349 539.725 122.455C542.393 114.561 542.476 106.022 539.963 98.0767C537.45 90.1318 532.471 83.1942 525.748 78.2705ZM551.234 184.249C551.233 194.322 548.107 204.147 542.287 212.367C536.466 220.588 528.237 226.8 518.736 230.146C509.235 233.492 498.93 233.807 489.242 231.048C480.45 228.543 472.56 223.619 466.458 216.862L463.117 232.91H419L453.355 68L502.575 68C502.575 68 502.575 68 502.575 68C511.481 67.9986 520.156 70.8346 527.34 76.0966C534.525 81.3587 539.846 88.7731 542.532 97.2641C545.218 105.755 545.129 114.881 542.277 123.318C539.646 131.103 534.789 137.928 528.329 142.959C535.035 147.141 540.63 152.899 544.619 159.746C548.954 167.184 551.236 175.64 551.234 184.249Z" fill="#291A15"/>
<path fill-rule="evenodd" clip-rule="evenodd" d="M463.369 109.903C463.363 116.194 464.874 122.395 467.773 127.979C470.673 133.562 474.876 138.365 480.026 141.979L481.771 143.203L479.916 144.254C472.839 148.261 466.953 154.075 462.858 161.102C458.763 168.128 456.607 176.116 456.609 184.248L453.915 184.249C453.912 175.64 456.195 167.184 460.53 159.745C464.519 152.899 470.115 147.141 476.821 142.96C472.069 139.263 468.164 134.578 465.382 129.22C462.283 123.252 460.668 116.625 460.675 109.9L463.369 109.903Z" fill="#F4ECE1"/>
<rect x="581.4" width="193.8" height="301" fill="#FC4A27"/>
<path fill-rule="evenodd" clip-rule="evenodd" d="M718.697 78.4612C711.957 73.5547 703.82 70.9103 695.466 70.9117H648.319L615.003 229.874H653.712L657.758 210.555L659.55 212.771C665.528 220.16 673.665 225.524 682.839 228.122C692.013 230.719 701.772 230.423 710.77 227.273C719.767 224.124 727.56 218.276 733.072 210.538C738.584 202.799 741.544 193.551 741.545 184.069C741.547 175.965 739.386 168.005 735.281 161.003C731.177 154.001 725.276 148.207 718.182 144.214L716.324 143.167L718.071 141.947C724.906 137.173 730.033 130.358 732.708 122.491C735.383 114.624 735.467 106.115 732.947 98.1981C730.428 90.2809 725.436 83.3676 718.697 78.4612ZM744.246 184.069C744.246 194.107 741.112 203.897 735.276 212.089C729.441 220.281 721.192 226.472 711.667 229.806C702.142 233.14 691.811 233.454 682.099 230.704C673.285 228.208 665.375 223.301 659.258 216.568L655.909 232.559H611.681L646.122 68.2266L695.466 68.2266C695.466 68.2266 695.466 68.2266 695.466 68.2266C704.394 68.2251 713.09 71.0512 720.293 76.2948C727.496 81.5385 732.83 88.927 735.523 97.3883C738.215 105.85 738.126 114.944 735.267 123.351C732.629 131.109 727.76 137.91 721.284 142.923C728.006 147.09 733.616 152.829 737.615 159.651C741.96 167.064 744.248 175.49 744.246 184.069Z" fill="#F4ECE1"/>
<path fill-rule="evenodd" clip-rule="evenodd" d="M656.161 109.982C656.155 116.252 657.67 122.431 660.576 127.995C663.483 133.559 667.697 138.345 672.86 141.946L674.609 143.167L672.749 144.213C665.655 148.207 659.754 154 655.649 161.002C651.544 168.004 649.382 175.964 649.384 184.068L646.683 184.069C646.681 175.489 648.969 167.063 653.315 159.65C657.314 152.828 662.924 147.09 669.647 142.924C664.883 139.24 660.968 134.571 658.179 129.232C655.072 123.285 653.453 116.681 653.46 109.979L656.161 109.982Z" fill="#F4ECE1"/>
<rect x="775.2" width="193.8" height="301" fill="#E2B8E6"/>
<path d="M936.886 184.249C936.886 194.043 933.847 203.595 928.187 211.589C922.527 219.582 914.526 225.622 905.288 228.875C896.05 232.129 886.03 232.435 876.611 229.752C867.191 227.069 858.837 221.528 852.7 213.896L849.022 231.562H807.657L841.451 69.3472H889.575C898.195 69.3457 906.59 72.0906 913.544 77.1834C920.498 82.2763 925.648 89.4523 928.248 97.6703C930.847 105.888 930.761 114.721 928.001 122.886C925.241 131.052 919.951 138.126 912.899 143.081C920.183 147.207 926.241 153.191 930.455 160.424C934.669 167.656 936.889 175.878 936.886 184.249V184.249Z" fill="#F4ECE1"/>
<path fill-rule="evenodd" clip-rule="evenodd" d="M912.748 78.2705C906.025 73.3468 897.909 70.6932 889.576 70.6946H842.546L809.314 230.215H847.926L851.962 210.828L853.75 213.051C859.712 220.467 867.829 225.849 876.98 228.456C886.131 231.063 895.866 230.765 904.841 227.605C913.816 224.444 921.589 218.576 927.087 210.81C932.586 203.045 935.539 193.764 935.539 184.249C935.541 176.116 933.385 168.129 929.291 161.102C925.197 154.076 919.311 148.262 912.235 144.254L910.382 143.204L912.124 141.979C918.942 137.188 924.056 130.349 926.725 122.455C929.393 114.561 929.476 106.022 926.963 98.0767C924.45 90.1318 919.471 83.1942 912.748 78.2705ZM938.234 184.249C938.233 194.322 935.107 204.147 929.287 212.367C923.466 220.588 915.237 226.8 905.736 230.146C896.235 233.492 885.93 233.807 876.242 231.048C867.45 228.543 859.56 223.619 853.458 216.862L850.117 232.91H806L840.355 68L889.575 68C889.575 68 889.575 68 889.575 68C898.481 67.9986 907.156 70.8346 914.34 76.0966C921.525 81.3587 926.846 88.7731 929.532 97.2641C932.218 105.755 932.129 114.881 929.277 123.318C926.646 131.103 921.789 137.928 915.329 142.959C922.035 147.141 927.63 152.899 931.619 159.746C935.954 167.184 938.236 175.64 938.234 184.249Z" fill="#F4ECE1"/>
<path fill-rule="evenodd" clip-rule="evenodd" d="M850.369 109.903C850.363 116.194 851.874 122.395 854.773 127.979C857.673 133.562 861.876 138.365 867.026 141.979L868.771 143.203L866.916 144.254C859.839 148.261 853.953 154.075 849.858 161.102C845.763 168.128 843.607 176.116 843.609 184.248L840.915 184.249C840.912 175.64 843.195 167.184 847.53 159.745C851.519 152.899 857.115 147.141 863.821 142.96C859.069 139.263 855.164 134.578 852.382 129.22C849.283 123.252 847.668 116.625 847.675 109.9L850.369 109.903Z" fill="#E2B8E6"/>
<rect x="193.8" width="193.8" height="301" fill="#8EA5EB"/>
<path fill-rule="evenodd" clip-rule="evenodd" d="M331.77 78.4612C325.03 73.5547 316.893 70.9103 308.539 70.9117H261.392L228.076 229.874H266.785L270.831 210.555L272.623 212.771C278.601 220.16 286.738 225.524 295.912 228.122C305.086 230.719 314.845 230.423 323.843 227.273C332.84 224.124 340.632 218.276 346.145 210.538C351.657 202.799 354.617 193.551 354.617 184.069C354.62 175.965 352.458 168.005 348.354 161.003C344.249 154.001 338.349 148.207 331.255 144.214L329.397 143.167L331.144 141.947C337.979 137.173 343.106 130.358 345.781 122.491C348.456 114.624 348.54 106.115 346.02 98.1981C343.501 90.2809 338.509 83.3676 331.77 78.4612ZM357.319 184.069C357.319 194.107 354.185 203.897 348.349 212.089C342.514 220.281 334.265 226.472 324.74 229.806C315.215 233.14 304.884 233.454 295.172 230.704C286.358 228.208 278.448 223.301 272.331 216.568L268.982 232.559H224.754L259.195 68.2266L308.539 68.2266C308.539 68.2266 308.539 68.2266 308.539 68.2266C317.467 68.2251 326.163 71.0512 333.366 76.2948C340.568 81.5385 345.903 88.927 348.596 97.3883C351.288 105.85 351.199 114.944 348.34 123.351C345.702 131.109 340.833 137.91 334.357 142.923C341.079 147.09 346.689 152.829 350.688 159.651C355.033 167.064 357.321 175.49 357.319 184.069Z" fill="#F4ECE1"/>
<path fill-rule="evenodd" clip-rule="evenodd" d="M269.234 109.982C269.228 116.252 270.742 122.431 273.649 127.995C276.556 133.559 280.77 138.345 285.933 141.946L287.682 143.167L285.822 144.213C278.728 148.207 272.827 154 268.722 161.002C264.617 168.004 262.455 175.964 262.457 184.068L259.756 184.069C259.754 175.489 262.042 167.063 266.388 159.65C270.387 152.828 275.997 147.09 282.72 142.924C277.956 139.24 274.041 134.571 271.252 129.232C268.145 123.285 266.526 116.681 266.533 109.979L269.234 109.982Z" fill="#F4ECE1"/>
<rect x="581.4" y="301" width="193.8" height="301" fill="#F4ECE1"/>
<path d="M742.886 485.249C742.886 495.043 739.847 504.595 734.187 512.589C728.527 520.582 720.527 526.622 711.288 529.875C702.05 533.129 692.03 533.435 682.611 530.752C673.191 528.069 664.837 522.528 658.7 514.896L655.022 532.562H613.657L647.451 370.347H695.576C704.195 370.346 712.59 373.091 719.544 378.183C726.498 383.276 731.648 390.452 734.248 398.67C736.847 406.888 736.761 415.721 734.001 423.886C731.241 432.052 725.951 439.126 718.899 444.081C726.183 448.207 732.241 454.191 736.455 461.424C740.669 468.656 742.889 476.878 742.886 485.249V485.249Z" fill="#8EA5EB"/>
<path fill-rule="evenodd" clip-rule="evenodd" d="M718.748 379.271C712.025 374.347 703.909 371.693 695.576 371.695H648.546L615.314 531.215H653.926L657.962 511.828L659.75 514.051C665.712 521.467 673.829 526.849 682.98 529.456C692.131 532.063 701.866 531.765 710.841 528.605C719.816 525.444 727.589 519.576 733.087 511.81C738.586 504.045 741.539 494.764 741.539 485.249C741.541 477.116 739.385 469.129 735.291 462.102C731.197 455.076 725.311 449.262 718.235 445.254L716.382 444.204L718.124 442.979C724.942 438.188 730.056 431.349 732.725 423.455C735.393 415.561 735.476 407.022 732.963 399.077C730.45 391.132 725.471 384.194 718.748 379.271ZM744.234 485.249C744.233 495.322 741.107 505.147 735.287 513.367C729.466 521.588 721.237 527.8 711.736 531.146C702.235 534.492 691.93 534.807 682.242 532.048C673.45 529.543 665.56 524.619 659.458 517.862L656.117 533.91H612L646.355 369L695.575 369C695.575 369 695.575 369 695.575 369C704.481 368.999 713.156 371.835 720.34 377.097C727.525 382.359 732.846 389.773 735.532 398.264C738.218 406.755 738.129 415.881 735.277 424.318C732.646 432.103 727.789 438.928 721.329 443.959C728.035 448.141 733.63 453.899 737.619 460.746C741.954 468.184 744.236 476.64 744.234 485.249Z" fill="#8EA5EB"/>
<path fill-rule="evenodd" clip-rule="evenodd" d="M656.369 410.902C656.363 417.194 657.874 423.395 660.773 428.978C663.673 434.562 667.876 439.364 673.026 442.978L674.771 444.203L672.916 445.254C665.839 449.261 659.953 455.075 655.858 462.101C651.763 469.128 649.607 477.116 649.609 485.248L646.915 485.249C646.912 476.639 649.195 468.183 653.53 460.745C657.519 453.899 663.115 448.14 669.821 443.959C665.069 440.263 661.164 435.578 658.382 430.22C655.283 424.252 653.668 417.625 653.675 410.9L656.369 410.902Z" fill="#F4ECE1"/>
<rect x="387.6" y="301" width="193.8" height="301" fill="#E2B8E6"/>
<path fill-rule="evenodd" clip-rule="evenodd" d="M524.897 379.461C518.157 374.555 510.02 371.91 501.666 371.912H454.519L421.203 530.874H459.912L463.958 511.555L465.75 513.771C471.728 521.16 479.865 526.524 489.039 529.121C498.213 531.719 507.972 531.423 516.97 528.273C525.967 525.124 533.759 519.276 539.272 511.537C544.784 503.799 547.744 494.551 547.745 485.069C547.747 476.965 545.585 469.005 541.481 462.003C537.377 455.001 531.476 449.207 524.382 445.214L522.524 444.167L524.271 442.947C531.106 438.173 536.233 431.358 538.908 423.491C541.583 415.624 541.667 407.115 539.147 399.198C536.628 391.281 531.636 384.368 524.897 379.461ZM550.446 485.069C550.446 495.107 547.312 504.897 541.476 513.089C535.641 521.281 527.392 527.472 517.867 530.806C508.342 534.14 498.011 534.454 488.299 531.704C479.485 529.208 471.575 524.301 465.458 517.568L462.109 533.559H417.881L452.322 369.227L501.666 369.227C501.666 369.227 501.666 369.227 501.666 369.227C510.594 369.225 519.29 372.051 526.493 377.295C533.696 382.539 539.03 389.927 541.723 398.388C544.415 406.85 544.326 415.944 541.467 424.351C538.829 432.109 533.96 438.91 527.484 443.923C534.206 448.09 539.816 453.829 543.815 460.651C548.16 468.064 550.448 476.49 550.446 485.069Z" fill="#291A15"/>
<path fill-rule="evenodd" clip-rule="evenodd" d="M462.361 410.982C462.355 417.252 463.87 423.431 466.776 428.995C469.683 434.559 473.897 439.345 479.06 442.946L480.809 444.167L478.949 445.213C471.855 449.207 465.954 455 461.849 462.002C457.744 469.004 455.582 476.964 455.584 485.068L452.883 485.069C452.881 476.489 455.169 468.063 459.515 460.65C463.514 453.828 469.124 448.09 475.847 443.924C471.083 440.24 467.168 435.571 464.379 430.232C461.272 424.285 459.653 417.681 459.66 410.979L462.361 410.982Z" fill="#291A15"/>
<rect x="193.8" y="301" width="193.8" height="301" fill="#FC4A27"/>
<path d="M354.886 485.249C354.886 495.043 351.847 504.595 346.187 512.589C340.527 520.582 332.527 526.622 323.288 529.875C314.05 533.129 304.03 533.435 294.611 530.752C285.191 528.069 276.837 522.528 270.7 514.896L267.022 532.562H225.657L259.451 370.347H307.576C316.195 370.346 324.59 373.091 331.544 378.183C338.498 383.276 343.648 390.452 346.248 398.67C348.847 406.888 348.761 415.721 346.001 423.886C343.241 432.052 337.951 439.126 330.899 444.081C338.183 448.207 344.241 454.191 348.455 461.424C352.669 468.656 354.889 476.878 354.886 485.249V485.249Z" fill="#291A15"/>
<path fill-rule="evenodd" clip-rule="evenodd" d="M330.748 379.271C324.025 374.347 315.909 371.693 307.576 371.695H260.546L227.314 531.215H265.926L269.962 511.828L271.75 514.051C277.712 521.467 285.829 526.849 294.98 529.456C304.131 532.063 313.866 531.765 322.841 528.605C331.816 525.444 339.589 519.576 345.087 511.81C350.586 504.045 353.539 494.764 353.539 485.249C353.541 477.116 351.385 469.129 347.291 462.102C343.197 455.076 337.311 449.262 330.235 445.254L328.382 444.204L330.124 442.979C336.942 438.188 342.056 431.349 344.725 423.455C347.393 415.561 347.476 407.022 344.963 399.077C342.45 391.132 337.471 384.194 330.748 379.271ZM356.234 485.249C356.233 495.322 353.107 505.147 347.287 513.367C341.466 521.588 333.237 527.8 323.736 531.146C314.235 534.492 303.93 534.807 294.242 532.048C285.45 529.543 277.56 524.619 271.458 517.862L268.117 533.91H224L258.355 369L307.575 369C307.575 369 307.575 369 307.575 369C316.481 368.999 325.156 371.835 332.34 377.097C339.525 382.359 344.846 389.773 347.532 398.264C350.218 406.755 350.129 415.881 347.277 424.318C344.646 432.103 339.789 438.928 333.329 443.959C340.035 448.141 345.63 453.899 349.619 460.746C353.954 468.184 356.236 476.64 356.234 485.249Z" fill="#291A15"/>
<path fill-rule="evenodd" clip-rule="evenodd" d="M268.369 410.902C268.363 417.194 269.874 423.395 272.773 428.978C275.673 434.562 279.876 439.364 285.026 442.978L286.771 444.203L284.916 445.254C277.839 449.261 271.953 455.075 267.858 462.101C263.763 469.128 261.607 477.116 261.609 485.248L258.915 485.249C258.912 476.639 261.195 468.183 265.53 460.745C269.519 453.899 275.115 448.14 281.821 443.959C277.069 440.263 273.164 435.578 270.382 430.22C267.283 424.252 265.668 417.625 265.675 410.9L268.369 410.902Z" fill="#FC4A27"/>
<rect y="301" width="193.8" height="301" fill="#F4ECE1"/>
<path fill-rule="evenodd" clip-rule="evenodd" d="M137.297 379.461C130.557 374.555 122.42 371.91 114.066 371.912H66.919L33.6034 530.874H72.3122L76.3583 511.555L78.1504 513.771C84.1277 521.16 92.2648 526.524 101.439 529.121C110.613 531.719 120.372 531.423 129.37 528.273C138.367 525.124 146.159 519.276 151.672 511.537C157.184 503.799 160.144 494.551 160.144 485.069C160.147 476.965 157.985 469.005 153.881 462.003C149.777 455.001 143.876 449.207 136.782 445.214L134.924 444.167L136.671 442.947C143.506 438.173 148.633 431.358 151.308 423.491C153.983 415.624 154.067 407.115 151.547 399.198C149.028 391.281 144.036 384.368 137.297 379.461ZM162.846 485.069C162.846 495.107 159.712 504.897 153.876 513.089C148.041 521.281 139.792 527.472 130.267 530.806C120.742 534.14 110.411 534.454 100.699 531.704C91.8851 529.208 83.9754 524.301 77.8583 517.568L74.5091 533.559H30.2812L64.7224 369.227L114.066 369.227C114.066 369.227 114.066 369.227 114.066 369.227C122.994 369.225 131.69 372.051 138.893 377.295C146.096 382.539 151.43 389.927 154.123 398.388C156.815 406.85 156.726 415.944 153.867 424.351C151.229 432.109 146.36 438.91 139.884 443.923C146.606 448.09 152.216 453.829 156.215 460.651C160.56 468.064 162.848 476.49 162.846 485.069Z" fill="#FC4A27"/>
<path fill-rule="evenodd" clip-rule="evenodd" d="M74.7613 410.982C74.7551 417.252 76.2695 423.431 79.1764 428.995C82.0832 434.559 86.2967 439.345 91.4598 442.946L93.2094 444.167L91.3495 445.213C84.2549 449.207 78.3537 455 74.2487 462.002C70.1438 469.004 67.9821 476.964 67.9844 485.068L65.2831 485.069C65.2806 476.489 67.5691 468.063 71.9148 460.65C75.9142 453.828 81.524 448.09 88.2469 443.924C83.4829 440.24 79.5682 435.571 76.779 430.232C73.672 424.285 72.0533 417.681 72.0599 410.979L74.7613 410.982Z" fill="#FC4A27"/>
<rect x="775.873" y="301" width="193.8" height="301" fill="#8EA5EB"/>
<path fill-rule="evenodd" clip-rule="evenodd" d="M913.17 379.461C906.43 374.555 898.293 371.91 889.939 371.912H842.792L809.476 530.874H848.185L852.231 511.555L854.023 513.771C860.001 521.16 868.138 526.524 877.312 529.121C886.486 531.719 896.245 531.423 905.242 528.273C914.24 525.124 922.032 519.276 927.545 511.537C933.057 503.799 936.017 494.551 936.017 485.069C936.02 476.965 933.858 469.005 929.754 462.003C925.649 455.001 919.749 449.207 912.655 445.214L910.797 444.167L912.544 442.947C919.379 438.173 924.506 431.358 927.181 423.491C929.856 415.624 929.94 407.115 927.42 399.198C924.901 391.281 919.909 384.368 913.17 379.461ZM938.719 485.069C938.719 495.107 935.585 504.897 929.749 513.089C923.914 521.281 915.665 527.472 906.14 530.806C896.615 534.14 886.284 534.454 876.572 531.704C867.758 529.208 859.848 524.301 853.731 517.568L850.382 533.559H806.154L840.595 369.227L889.939 369.227C889.939 369.227 889.939 369.227 889.939 369.227C898.867 369.225 907.563 372.051 914.766 377.295C921.968 382.539 927.303 389.927 929.996 398.388C932.688 406.85 932.599 415.944 929.74 424.351C927.102 432.109 922.233 438.91 915.757 443.923C922.479 448.09 928.089 453.829 932.088 460.651C936.433 468.064 938.721 476.49 938.719 485.069Z" fill="#291A15"/>
<path fill-rule="evenodd" clip-rule="evenodd" d="M850.634 410.982C850.628 417.252 852.142 423.431 855.049 428.995C857.956 434.559 862.17 439.345 867.333 442.946L869.082 444.167L867.222 445.213C860.128 449.207 854.227 455 850.122 462.002C846.017 469.004 843.855 476.964 843.857 485.068L841.156 485.069C841.153 476.489 843.442 468.063 847.788 460.65C851.787 453.828 857.397 448.09 864.12 443.924C859.356 440.24 855.441 435.571 852.652 430.232C849.545 424.285 847.926 417.681 847.933 410.979L850.634 410.982Z" fill="#291A15"/>
</svg>
