<svg width="258" height="301" viewBox="0 0 258 301" fill="none" xmlns="http://www.w3.org/2000/svg">
<rect width="258" height="301" fill="#FC4A27"/>
<path fill-rule="evenodd" clip-rule="evenodd" d="M186.606 48.0053C177.074 41.0247 165.567 37.2624 153.753 37.2644H87.076L39.9603 263.427H94.7033L100.425 235.941L102.96 239.093C111.413 249.606 122.921 257.237 135.895 260.933C148.869 264.628 162.671 264.207 175.395 259.726C188.119 255.245 199.14 246.925 206.935 235.915C214.731 224.905 218.917 211.747 218.918 198.257C218.921 186.727 215.864 175.403 210.06 165.441C204.255 155.479 195.911 147.236 185.878 141.554L183.25 140.065L185.721 138.329C195.387 131.536 202.638 121.84 206.421 110.648C210.204 99.4562 210.322 87.3498 206.759 76.0858C203.196 64.8217 196.137 54.9859 186.606 48.0053ZM222.738 198.258C222.738 212.539 218.306 226.468 210.053 238.123C201.801 249.778 190.134 258.585 176.664 263.329C163.194 268.073 148.583 268.519 134.848 264.607C122.384 261.056 111.198 254.075 102.547 244.495L97.8102 267.247H35.2621L83.9696 33.4441L153.752 33.4441C153.752 33.4441 153.752 33.4441 153.752 33.4441C166.378 33.442 178.677 37.4628 188.863 44.9232C199.049 52.3835 206.594 62.8954 210.402 74.9336C214.21 86.9718 214.083 99.9102 210.04 111.872C206.309 122.909 199.423 132.585 190.264 139.718C199.772 145.647 207.705 153.811 213.36 163.518C219.505 174.064 222.741 186.052 222.738 198.258Z" fill="#8EA5EB"/>
<path fill-rule="evenodd" clip-rule="evenodd" d="M98.1663 92.8512C98.1575 101.771 100.299 110.562 104.41 118.479C108.521 126.395 114.48 133.204 121.782 138.328L124.256 140.064L121.626 141.553C111.592 147.235 103.247 155.477 97.4415 165.439C91.6361 175.401 88.579 186.726 88.5823 198.256L84.762 198.257C84.7585 186.051 87.9949 174.062 94.1407 163.516C99.7967 153.81 107.73 145.646 117.238 139.718C110.501 134.477 104.964 127.835 101.02 120.239C96.6259 111.778 94.3366 102.382 94.346 92.8474L98.1663 92.8512Z" fill="#8EA5EB"/>
</svg>
