<svg width="195" height="241" viewBox="0 0 195 241" fill="none" xmlns="http://www.w3.org/2000/svg">
<path fill-rule="evenodd" clip-rule="evenodd" d="M156.827 15.0577C147.007 7.86551 135.15 3.98924 122.978 3.99128L54.2806 3.99128L5.73673 237.009H62.139L68.0345 208.689L70.6457 211.937C79.3552 222.769 91.2116 230.631 104.579 234.439C117.947 238.247 132.166 237.812 145.277 233.196C158.387 228.579 169.741 220.007 177.773 208.663C185.805 197.32 190.118 183.763 190.118 169.864C190.122 157.985 186.972 146.317 180.992 136.053C175.011 125.789 166.414 117.296 156.078 111.442L153.37 109.908L155.916 108.119C165.875 101.121 173.345 91.1309 177.243 79.5995C181.14 68.0681 181.262 55.5948 177.591 43.9893C173.92 32.3839 166.647 22.2499 156.827 15.0577ZM194.054 169.864C194.054 184.578 189.488 198.929 180.985 210.938C172.482 222.947 160.463 232.021 146.584 236.908C132.705 241.796 117.652 242.256 103.501 238.225C90.6583 234.567 79.1333 227.373 70.2201 217.503L65.3401 240.945H0.896118L51.08 0.0551764L122.978 0.0551766C122.978 0.0551766 122.977 0.0551766 122.978 0.0551766C135.986 0.0530662 148.658 4.19574 159.153 11.8822C169.648 19.5687 177.421 30.3991 181.344 42.8023C185.268 55.2054 185.137 68.5359 180.972 80.8598C177.128 92.2321 170.033 102.201 160.596 109.55C170.392 115.659 178.566 124.071 184.393 134.071C190.724 144.937 194.058 157.289 194.054 169.864Z" fill="#088E45"/>
<path fill-rule="evenodd" clip-rule="evenodd" d="M65.7076 61.2619C65.6985 70.4525 67.9052 79.5098 72.1407 87.6661C76.3762 95.8225 82.5157 102.838 90.0387 108.117L92.5881 109.906L89.878 111.44C79.5406 117.294 70.9421 125.786 64.9607 136.05C58.9794 146.314 55.8296 157.982 55.8331 169.862L51.897 169.863C51.8933 157.286 55.2278 144.934 61.56 134.068C67.3874 124.069 75.5614 115.657 85.3574 109.55C78.4157 104.149 72.7116 97.3063 68.6475 89.4801C64.1204 80.7622 61.7618 71.0813 61.7715 61.2581L65.7076 61.2619Z" fill="#088E45"/>
</svg>
